<svg width="360" height="260" viewBox="0 0 360 260" fill="none" xmlns="http://www.w3.org/2000/svg">
<path d="M158.158 231.717L166.665 253.78L173.899 251.329L169.488 229.754L158.158 231.717Z" fill="#26224B"/>
<path d="M248.435 210.795L253.197 233.024L259.664 231.717V206.872L248.435 210.795Z" fill="#26224B"/>
<path d="M126.237 133.612C126.237 133.612 106.119 83.8251 102.416 63.5543C98.7121 43.2836 109.298 28.7256 146.482 14.5059C183.666 0.286158 222.612 6.36557 235.253 20.4871C247.895 34.6087 245.969 60.0601 246.196 72.095C246.423 84.1298 256.229 133.61 256.229 133.61L269.958 200.493C269.958 200.493 273.39 208.177 260.643 212.59C247.895 217.004 159.576 235.635 159.576 235.635C159.576 235.635 150.031 241.518 143.804 232.202C137.577 222.887 119.117 157.297 119.117 157.297L126.237 133.612Z" fill="#F0D763"/>
<path d="M126.237 127.484L104.396 148.762C104.396 148.762 95.6466 159.348 104.396 171.899C114.652 186.609 130.493 178.273 130.493 178.273L150.315 149.219C150.315 149.219 155.322 143.511 145.953 131.66C136.586 119.808 126.237 127.484 126.237 127.484Z" fill="#F0D763"/>
<path fill-rule="evenodd" clip-rule="evenodd" d="M114.715 154.255C117.051 154.235 119.596 155.294 121.037 156.98L121.037 156.98C122.56 158.762 123.78 161.508 123.849 164.026C123.884 165.295 123.626 166.555 122.912 167.599C122.189 168.656 121.046 169.421 119.449 169.77C115.084 170.726 111.932 166.746 113.187 162.839C113.649 161.4 114.811 159.958 116.477 159.661C117.351 159.505 118.255 159.765 118.932 160.26C119.611 160.755 120.141 161.549 120.114 162.508C120.103 162.891 119.783 163.193 119.399 163.182C119.016 163.171 118.714 162.852 118.725 162.468C118.736 162.076 118.521 161.679 118.113 161.382C117.703 161.082 117.177 160.947 116.721 161.028C115.728 161.206 114.874 162.129 114.51 163.263L114.51 163.263C113.555 166.236 115.919 169.121 119.152 168.413L119.152 168.413C120.454 168.128 121.27 167.539 121.766 166.815C122.27 166.078 122.49 165.132 122.461 164.064C122.402 161.908 121.328 159.459 119.981 157.883C118.837 156.545 116.703 155.627 114.727 155.644C113.753 155.653 112.866 155.889 112.175 156.366C111.496 156.835 110.96 157.566 110.718 158.663C110.635 159.038 110.264 159.274 109.89 159.192C109.515 159.109 109.278 158.738 109.361 158.364C109.674 156.943 110.401 155.902 111.386 155.223C112.358 154.552 113.534 154.266 114.715 154.255Z" fill="#D3A246"/>
<path d="M246.808 98.928L270.013 115.712C270.013 115.712 281.267 123.584 276.177 138.013C270.211 154.924 252.722 151.109 252.722 151.109L231.573 125.503C231.573 125.503 223.046 122.125 228.916 108.207C234.789 94.2871 246.808 98.928 246.808 98.928Z" fill="#F0D763"/>
<path d="M173.899 135.988L151.751 142.07C151.751 142.07 140.225 156.858 133.507 173.851C133.507 173.851 190.012 159.988 252.722 151.109L230.393 119.924L173.899 135.988Z" fill="#DEAD41"/>
<path d="M104.396 148.761C104.396 148.761 116.377 142.948 126.08 148.761C135.78 154.575 136.48 163.903 135.15 170.843L151.738 144.09C151.738 144.09 150.111 130.534 140.062 126.497C130.013 122.46 119.755 130.854 104.396 148.761Z" fill="#F0C35A"/>
<path d="M254.05 150.843C254.05 150.843 242.82 144.113 246.666 130.058C250.511 116.004 258.814 114.083 267.903 114.553L248.959 98.3236C248.959 98.3236 240.222 92.7375 230.396 103.447C220.569 114.157 227.759 123.313 227.759 123.313C227.759 123.313 243.921 148.756 254.05 150.843Z" fill="#F0C35A"/>
<path fill-rule="evenodd" clip-rule="evenodd" d="M141.192 200.902C141.556 200.783 141.948 200.982 142.068 201.347L149.451 223.942C149.464 223.981 149.473 224.022 149.479 224.063C149.479 224.064 149.479 224.065 149.48 224.066L149.479 224.065L149.479 224.064L149.479 224.062C149.479 224.062 149.479 224.062 149.479 224.063C149.479 224.063 149.479 224.064 149.479 224.064C149.48 224.067 149.48 224.071 149.481 224.077C149.482 224.081 149.483 224.085 149.484 224.09C149.489 224.116 149.497 224.159 149.512 224.218C149.541 224.334 149.592 224.511 149.679 224.727C149.853 225.161 150.169 225.754 150.731 226.362C151.842 227.562 153.997 228.904 158.184 229.062C159.195 229.101 161.046 228.916 163.564 228.542C166.063 228.171 169.168 227.622 172.659 226.953C179.639 225.614 188.138 223.797 196.371 221.969C204.603 220.141 212.564 218.303 218.468 216.921C221.42 216.231 223.857 215.654 225.556 215.251C226.406 215.049 227.071 214.89 227.524 214.782C227.75 214.728 227.923 214.686 228.04 214.658L228.216 214.616C228.216 214.616 228.216 214.616 228.379 215.291C228.541 215.967 228.541 215.967 228.54 215.967L228.364 216.009C228.247 216.037 228.073 216.079 227.847 216.133C227.394 216.241 226.728 216.4 225.878 216.602C224.177 217.006 221.738 217.583 218.785 218.274C212.878 219.656 204.911 221.496 196.672 223.325C188.434 225.154 179.92 226.974 172.921 228.317C169.421 228.988 166.295 229.541 163.768 229.916C161.26 230.289 159.289 230.494 158.132 230.451C153.644 230.281 151.116 228.823 149.712 227.306C149.017 226.555 148.617 225.81 148.39 225.245C148.277 224.962 148.206 224.724 148.163 224.552C148.142 224.465 148.128 224.395 148.118 224.344C148.117 224.336 148.115 224.329 148.114 224.322L148.131 224.373L148.791 224.158L149.48 224.067C149.48 224.067 149.48 224.066 149.48 224.066M149.48 224.066C149.48 224.066 149.48 224.067 148.791 224.158C148.102 224.248 148.102 224.248 148.102 224.249L148.103 224.25L148.103 224.253L148.104 224.261C148.105 224.266 148.106 224.273 148.107 224.281C148.109 224.292 148.111 224.306 148.114 224.322L140.747 201.778C140.628 201.414 140.827 201.021 141.192 200.902M228.379 215.291L228.541 215.967C228.914 215.877 229.144 215.502 229.054 215.129C228.964 214.756 228.589 214.526 228.216 214.616L228.379 215.291Z" fill="#D3A246"/>
<path fill-rule="evenodd" clip-rule="evenodd" d="M194.497 15.3489L194.5 15.3487L194.513 15.3479C194.524 15.3473 194.542 15.3463 194.566 15.345C194.613 15.3424 194.684 15.3388 194.777 15.3346C194.964 15.3262 195.242 15.3155 195.599 15.3064C196.315 15.2883 197.351 15.2769 198.627 15.3043C201.181 15.3591 204.688 15.5689 208.506 16.1877C216.183 17.432 224.936 20.3018 229.842 26.6999C234.768 33.1257 235.783 41.4813 236.119 51.4905C236.188 53.5373 236.228 55.6511 236.269 57.826C236.429 66.2283 236.607 75.5433 238.507 85.4385C238.579 85.8152 238.944 86.0619 239.32 85.9896C239.697 85.9172 239.944 85.5532 239.871 85.1765C237.996 75.4101 237.821 66.2457 237.66 57.8542C237.618 55.6637 237.577 53.526 237.507 51.4439C237.172 41.4406 236.167 32.6672 230.944 25.8547C225.7 19.0144 216.484 16.0734 208.728 14.8164C204.83 14.1846 201.256 13.9712 198.657 13.9154C197.357 13.8875 196.299 13.8991 195.564 13.9177C195.197 13.9269 194.91 13.938 194.715 13.9468C194.617 13.9512 194.542 13.9551 194.491 13.9578C194.465 13.9592 194.445 13.9603 194.432 13.9611L194.416 13.962L194.411 13.9624C194.411 13.9624 194.41 13.9624 194.454 14.6556L194.41 13.9624C194.027 13.9864 193.736 14.3162 193.76 14.6991C193.784 15.0819 194.114 15.3728 194.497 15.3489C194.497 15.3489 194.497 15.3489 194.497 15.3465L194.497 15.3489Z" fill="#D3A246"/>
<path fill-rule="evenodd" clip-rule="evenodd" d="M265.576 125.444C263.289 125.423 260.797 126.489 259.386 128.185L259.386 128.185C257.895 129.977 256.7 132.74 256.633 135.274C256.599 136.551 256.851 137.818 257.55 138.869C258.258 139.931 259.377 140.701 260.941 141.053C265.214 142.014 268.301 138.011 267.071 134.079C266.619 132.632 265.482 131.181 263.851 130.882C262.995 130.725 262.11 130.987 261.447 131.484C260.782 131.983 260.263 132.782 260.29 133.746C260.301 134.132 260.614 134.436 260.989 134.425C261.365 134.414 261.66 134.092 261.65 133.706C261.639 133.312 261.849 132.913 262.249 132.613C262.65 132.312 263.165 132.176 263.611 132.258C264.584 132.436 265.42 133.366 265.776 134.507L265.776 134.507C266.711 137.497 264.397 140.399 261.232 139.687L261.231 139.687C259.957 139.401 259.158 138.808 258.673 138.079C258.179 137.338 257.964 136.386 257.992 135.312C258.05 133.143 259.101 130.679 260.42 129.093C261.54 127.747 263.63 126.824 265.564 126.841C266.518 126.85 267.386 127.088 268.063 127.568C268.728 128.039 269.253 128.774 269.489 129.878C269.57 130.255 269.933 130.493 270.3 130.41C270.667 130.327 270.899 129.954 270.818 129.577C270.511 128.148 269.799 127.1 268.835 126.417C267.884 125.742 266.732 125.454 265.576 125.444Z" fill="#D3A246"/>
<path fill-rule="evenodd" clip-rule="evenodd" d="M189.906 122.133C189.906 122.133 207.075 111.725 214.735 109.63C225.651 106.645 234.145 110.116 234.145 110.116C234.145 110.116 240.788 119.186 235.351 123.336L219.458 127.486C219.458 127.486 212.103 137.088 204.381 141.747C196.659 146.401 177.184 141.166 189.906 122.133Z" fill="#828FC4"/>
<path fill-rule="evenodd" clip-rule="evenodd" d="M243.554 123.173C248.747 120.364 251.963 112.143 249.303 106.632C249.068 106.146 248.76 105.671 248.293 105.405C247.825 105.142 247.164 105.157 246.813 105.565C246.632 104.434 246.31 103.114 245.248 102.686C244.817 102.51 244.329 102.526 243.874 102.624C242.593 102.905 241.49 103.9 241.077 105.144C240.685 104.297 239.652 103.874 238.724 103.993C237.797 104.111 236.981 104.677 236.341 105.356C233.027 108.868 230.762 118.99 234.721 122.742C237.004 124.917 240.78 124.674 243.554 123.173Z" fill="white"/>
<path d="M244.842 115.542C244.6 115.24 244.279 115.012 243.9 114.888C242.557 114.452 240.32 114.065 238.729 116.322C237.56 117.982 237.921 119.695 238.755 120.575C239.564 121.428 240.855 121.869 242.394 121.167C245.524 119.733 245.94 116.898 244.842 115.542Z" fill="#CF7071"/>
<path d="M239.848 112.809C240.545 112.975 241.645 112.407 242.381 110.953C243.51 108.729 241.635 107.376 239.938 109.92C238.812 111.609 239.099 112.631 239.848 112.809Z" fill="#CF7071"/>
<path d="M243.853 112.967C244.551 113.132 245.651 112.564 246.387 111.11C247.515 108.887 245.64 107.533 243.944 110.077C242.818 111.766 243.104 112.789 243.853 112.967Z" fill="#CF7071"/>
<path d="M246.847 114.359C247.544 114.524 248.644 113.956 249.38 112.502C250.509 110.279 248.634 108.925 246.937 111.469C245.814 113.158 246.098 114.181 246.847 114.359Z" fill="#CF7071"/>
<path d="M139.148 94.9071C139.148 94.9071 138.675 114.532 145.953 131.66C155.829 154.901 176.262 165.21 195.58 156.223C206.008 151.37 207.573 129.617 198.093 118.83C188.615 108.042 164.09 99.1967 160.759 90.7465L139.148 94.9071Z" fill="#828FC4"/>
<path fill-rule="evenodd" clip-rule="evenodd" d="M193.558 134.516C195.502 133.997 197.328 133.137 198.829 131.802C205.869 125.536 199.056 119.723 193.196 116.577C186.549 113.008 181.257 107.822 176.006 102.526C172.931 99.4213 169.124 97.1564 165.309 95.0232C160.924 92.5723 154.651 93.8145 152.538 98.6879C151.361 101.407 151.459 104.512 151.965 107.43C152.546 110.774 153.654 114.057 155.485 116.918C156.727 118.86 158.285 120.583 159.922 122.205C167.639 129.842 177.964 135.547 188.816 135.18C190.404 135.126 192.018 134.927 193.558 134.516Z" fill="#E1EDFF"/>
<path d="M113.528 42.1937C113.528 42.1937 93.7303 26.0474 86.1143 29.5623C78.5008 33.0798 81.8143 56.0545 88.919 69.7835C96.0237 83.5125 111.227 103.817 132.888 105.542C154.548 107.267 172.677 101.128 184.056 80.6252C195.435 60.1221 191.362 33.4259 187.455 21.8326C183.548 10.2394 180.172 8.86031 174.532 11.931C168.891 15.0043 161.565 24.8827 158.6 32.7905C158.6 32.7905 137.126 24.7484 113.528 42.1937Z" fill="#ACB3DB"/>
<path d="M108.903 45.5486C108.903 45.5486 96.9999 33.6144 89.8384 36.6645C82.6769 39.7119 88.8751 58.1542 92.2402 62.9371C92.2377 62.9345 98.2267 52.803 108.903 45.5486Z" fill="#EBCBCC"/>
<path d="M163.264 33.1909C163.264 33.1909 172.246 17.0342 178.483 18.1577C184.72 19.2811 186.967 34.8748 185.593 44.1075C185.595 44.1075 177.362 36.8711 163.264 33.1909Z" fill="#EBCBCC"/>
<path d="M106.375 53.0897C106.375 53.0897 111.24 50.3445 112.488 49.846C113.735 49.3476 113.237 46.1038 110.367 47.1007C107.498 48.1002 104.505 53.3403 106.375 53.0897Z" fill="#0B1411"/>
<path d="M169.253 38.9372C169.253 38.9372 166.634 35.2493 163.14 35.3732C159.646 35.4972 160.395 38.9372 161.642 38.9372C164.927 38.9372 169.253 40.1304 169.253 38.9372Z" fill="#0B1411"/>
<path d="M143.197 74.8558C143.197 74.8558 139.623 75.4808 136.005 80.7183C136.005 80.7183 124.029 83.962 122.531 89.2021C121.033 94.4421 132.885 102.926 149.729 99.0572C168.429 94.7624 171.52 82.8412 169.775 78.975C168.029 75.1089 154.969 76.4777 154.969 76.4777C154.969 76.4777 150.39 72.485 143.197 74.8558Z" fill="white"/>
<path d="M136.005 84.3365C136.005 84.3365 142.743 84.9615 145.485 79.5948C145.485 79.5948 148.98 82.3401 155.467 80.3438C155.467 80.3438 158.174 88.7372 147.983 90.7129C137.751 92.6963 136.005 84.3365 136.005 84.3365Z" fill="#0B1411"/>
<path d="M145.899 85.3076C142.608 86.4207 140.692 88.2672 139.685 89.5585C141.49 90.7413 144.137 91.4593 147.983 90.7129C152.306 89.8762 154.305 87.8824 155.178 85.8654C153.194 85.0725 149.568 84.0653 145.899 85.3076Z" fill="#CF7071"/>
<path d="M144.408 74.5098L145.899 81.3743" stroke="#0B1411" stroke-width="4.106" stroke-miterlimit="10"/>
<path d="M151.691 66.7904C152.347 69.1818 147.513 74.8558 144.767 75.4782C142.022 76.1032 135.382 73.8331 134.726 71.4416C134.07 69.0501 137.337 66.0698 142.022 64.7837C146.707 63.4976 151.035 64.3989 151.691 66.7904Z" fill="#CF7071"/>
<path d="M118.944 82.5907C126.592 82.5907 132.792 76.3908 132.792 68.7429C132.792 61.0949 126.592 54.895 118.944 54.895C111.296 54.895 105.096 61.0949 105.096 68.7429C105.096 76.3908 111.296 82.5907 118.944 82.5907Z" fill="white"/>
<path d="M120.912 76.6559C125.595 76.6559 129.391 72.8599 129.391 68.1772C129.391 63.4946 125.595 59.6986 120.912 59.6986C116.229 59.6986 112.433 63.4946 112.433 68.1772C112.433 72.8599 116.229 76.6559 120.912 76.6559Z" fill="#6973BD"/>
<path d="M120.912 73.4199C123.808 73.4199 126.155 71.0727 126.155 68.1772C126.155 65.2818 123.808 62.9346 120.912 62.9346C118.017 62.9346 115.669 65.2818 115.669 68.1772C115.669 71.0727 118.017 73.4199 120.912 73.4199Z" fill="#0B1411"/>
<path d="M122.203 67.1519C123.521 67.1519 124.59 66.0835 124.59 64.7656C124.59 63.4477 123.521 62.3793 122.203 62.3793C120.885 62.3793 119.817 63.4477 119.817 64.7656C119.817 66.0835 120.885 67.1519 122.203 67.1519Z" fill="white"/>
<path d="M164.511 72.9524C172.159 72.9524 178.359 66.7525 178.359 59.1046C178.359 51.4567 172.159 45.2568 164.511 45.2568C156.863 45.2568 150.663 51.4567 150.663 59.1046C150.663 66.7525 156.863 72.9524 164.511 72.9524Z" fill="white"/>
<path d="M162.202 67.6478C166.885 67.6478 170.681 63.8517 170.681 59.1691C170.681 54.4865 166.885 50.6905 162.202 50.6905C157.52 50.6905 153.724 54.4865 153.724 59.1691C153.724 63.8517 157.52 67.6478 162.202 67.6478Z" fill="#6973BD"/>
<path d="M162.202 64.4118C165.098 64.4118 167.445 62.0646 167.445 59.1692C167.445 56.2737 165.098 53.9265 162.202 53.9265C159.307 53.9265 156.96 56.2737 156.96 59.1692C156.96 62.0646 159.307 64.4118 162.202 64.4118Z" fill="#0B1411"/>
<path d="M163.494 58.1438C164.812 58.1438 165.88 57.0755 165.88 55.7575C165.88 54.4396 164.812 53.3712 163.494 53.3712C162.176 53.3712 161.107 54.4396 161.107 55.7575C161.107 57.0755 162.176 58.1438 163.494 58.1438Z" fill="white"/>
<path fill-rule="evenodd" clip-rule="evenodd" d="M149.058 77.8087C149.058 77.8087 149.058 77.8087 149.057 77.8077L149.058 77.8087C148.805 77.9561 148.48 77.8705 148.333 77.6175C148.186 77.3645 148.271 77.0399 148.524 76.8924L148.791 77.3506C148.524 76.8924 148.524 76.8923 148.525 76.8921L148.526 76.8915L148.529 76.8894L148.543 76.8814C148.555 76.8745 148.573 76.8644 148.596 76.8513C148.642 76.8249 148.71 76.7863 148.8 76.7363C148.979 76.6363 149.243 76.4909 149.587 76.3079C150.274 75.9419 151.278 75.4252 152.553 74.8195C155.102 73.6083 158.734 72.0401 163.069 70.6101C171.729 67.7534 183.245 65.4315 194.554 67.657C194.841 67.7135 195.028 67.9923 194.971 68.2796C194.915 68.5669 194.636 68.754 194.349 68.6974C183.295 66.5222 171.981 68.787 163.401 71.6171C159.117 73.0305 155.526 74.5808 153.008 75.7773C151.75 76.3754 150.759 76.8847 150.085 77.2439C149.748 77.4234 149.49 77.5654 149.317 77.6621C149.23 77.7105 149.165 77.7475 149.121 77.7722C149.1 77.7846 149.084 77.7939 149.073 77.8L149.061 77.8068L149.059 77.8084L149.058 77.8087Z" fill="#0B1411"/>
<path fill-rule="evenodd" clip-rule="evenodd" d="M153.937 77.1423L153.94 77.1412L153.95 77.137C153.959 77.1331 153.973 77.1271 153.992 77.1191C154.029 77.1032 154.086 77.0794 154.162 77.0483C154.314 76.9861 154.541 76.895 154.838 76.7804C155.433 76.5514 156.309 76.2287 157.432 75.8571C159.678 75.1136 162.905 74.1745 166.825 73.3949C174.669 71.8351 185.262 70.9191 196.3 73.469C196.585 73.5349 196.87 73.357 196.936 73.0717C197.002 72.7864 196.824 72.5017 196.538 72.4358C185.307 69.8412 174.553 70.7769 166.618 72.3549C162.649 73.1443 159.378 74.0956 157.099 74.8504C155.959 75.2278 155.066 75.5562 154.457 75.7909C154.152 75.9083 153.918 76.0022 153.76 76.0671C153.681 76.0996 153.621 76.1248 153.58 76.1421C153.559 76.1507 153.544 76.1573 153.533 76.1619L153.521 76.1672L153.516 76.1691C153.516 76.1692 153.516 76.1693 153.726 76.6558L153.516 76.1693C153.247 76.2857 153.123 76.5979 153.24 76.8666C153.356 77.1353 153.668 77.2587 153.937 77.1423Z" fill="#0B1411"/>
<path fill-rule="evenodd" clip-rule="evenodd" d="M151.896 79.4492C151.897 79.451 151.897 79.451 151.897 79.451L151.9 79.4501L151.912 79.4467C151.923 79.4436 151.94 79.439 151.962 79.4328C152.006 79.4205 152.072 79.4022 152.161 79.3785C152.337 79.3311 152.599 79.2622 152.94 79.1769C153.622 79.0063 154.621 78.7704 155.881 78.5103C158.401 77.99 161.964 77.3735 166.132 76.9898C174.478 76.2213 185.2 76.3906 194.821 80.0922C195.094 80.1974 195.401 80.061 195.506 79.7877C195.612 79.5145 195.475 79.2077 195.202 79.1025C185.363 75.3172 174.455 75.1586 166.035 75.9338C161.82 76.3219 158.217 76.9452 155.666 77.4718C154.391 77.7351 153.378 77.9744 152.683 78.1481C152.335 78.235 152.067 78.3055 151.885 78.3545C151.794 78.379 151.724 78.3981 151.677 78.4112C151.654 78.4178 151.636 78.4228 151.624 78.4263L151.61 78.4302L151.605 78.4316C151.605 78.4317 151.604 78.4318 151.751 78.9414L151.604 78.4318C151.323 78.5125 151.16 78.8062 151.241 79.0877C151.322 79.3691 151.616 79.5318 151.897 79.451L151.896 79.4492Z" fill="#0B1411"/>
<path fill-rule="evenodd" clip-rule="evenodd" d="M141.619 79.0234C141.619 79.0234 141.619 79.0234 141.619 79.0223L141.619 79.0234C141.911 79.0541 142.172 78.843 142.202 78.5518C142.233 78.2606 142.022 77.9996 141.731 77.9688L141.675 78.4961C141.731 77.9688 141.731 77.9688 141.73 77.9688L141.729 77.9686L141.725 77.9682L141.709 77.9666C141.695 77.9652 141.675 77.9632 141.649 77.9606C141.596 77.9555 141.518 77.9482 141.416 77.9393C141.211 77.9214 140.911 77.8972 140.522 77.871C139.745 77.8188 138.617 77.7592 137.206 77.7291C134.385 77.6689 130.429 77.7269 125.889 78.199C116.819 79.1422 105.363 81.7437 95.9594 88.4082C95.7205 88.5775 95.6641 88.9084 95.8334 89.1473C96.0028 89.3863 96.3337 89.4427 96.5726 89.2733C105.764 82.7591 117.013 80.1882 125.999 79.2537C130.486 78.7871 134.396 78.7298 137.184 78.7893C138.577 78.819 139.689 78.8778 140.451 78.9291C140.832 78.9547 141.126 78.9784 141.323 78.9957C141.422 79.0043 141.497 79.0113 141.547 79.0161C141.571 79.0185 141.59 79.0204 141.602 79.0216L141.616 79.023L141.619 79.0233L141.619 79.0234Z" fill="#0B1411"/>
<path fill-rule="evenodd" clip-rule="evenodd" d="M136.896 80.4152L136.893 80.4152L136.882 80.4154C136.872 80.4156 136.857 80.4159 136.836 80.4164C136.795 80.4173 136.734 80.4189 136.652 80.4217C136.488 80.4271 136.244 80.4369 135.926 80.4543C135.289 80.489 134.357 80.554 133.181 80.6751C130.828 80.9172 127.499 81.3832 123.604 82.2786C115.81 84.0703 105.772 87.5758 96.7484 94.4254C96.5152 94.6024 96.1825 94.5569 96.0055 94.3237C95.8285 94.0904 95.874 93.7578 96.1073 93.5808C105.289 86.6112 115.481 83.0577 123.366 81.2451C127.311 80.3384 130.684 79.866 133.072 79.6202C134.267 79.4973 135.216 79.431 135.868 79.3954C136.194 79.3776 136.445 79.3675 136.616 79.3618C136.702 79.359 136.767 79.3573 136.812 79.3562C136.834 79.3557 136.851 79.3554 136.863 79.3552L136.876 79.3549L136.881 79.3549C136.881 79.3549 136.881 79.3549 136.888 79.885L136.881 79.3549C137.174 79.3509 137.415 79.5851 137.419 79.8779C137.423 80.1707 137.188 80.4112 136.896 80.4152Z" fill="#0B1411"/>
<path fill-rule="evenodd" clip-rule="evenodd" d="M139.703 81.683C139.703 81.6849 139.703 81.6849 139.703 81.6849L139.699 81.6854L139.687 81.6872C139.676 81.6888 139.659 81.6914 139.636 81.6948C139.591 81.7017 139.523 81.7123 139.433 81.7267C139.252 81.7557 138.985 81.8002 138.639 81.8623C137.947 81.9863 136.939 82.1804 135.683 82.4595C133.171 83.0177 129.668 83.9157 125.709 85.2737C117.781 87.993 108.07 92.5415 100.811 99.8608C100.605 100.069 100.27 100.07 100.062 99.8639C99.8537 99.6577 99.8523 99.322 100.059 99.1141C107.482 91.6292 117.367 87.014 125.365 84.2707C129.369 82.8973 132.911 81.9893 135.453 81.4243C136.725 81.1418 137.747 80.9449 138.452 80.8185C138.805 80.7553 139.078 80.7097 139.264 80.6798C139.357 80.6648 139.429 80.6538 139.477 80.6464C139.501 80.6428 139.519 80.64 139.532 80.6382L139.546 80.6361L139.551 80.6353C139.552 80.6353 139.552 80.6353 139.627 81.1601L139.552 80.6353C139.842 80.5936 140.11 80.7948 140.152 81.0846C140.194 81.3745 139.993 81.6432 139.703 81.6849L139.703 81.683Z" fill="#0B1411"/>
<path d="M125.421 209.215C125.248 209.726 125.088 210.292 124.789 210.896C124.471 211.503 124.125 212.131 123.606 212.748C123.087 213.362 122.418 213.969 121.545 214.476C120.669 214.979 119.59 215.387 118.216 215.54C117.286 215.643 116.375 215.617 115.476 215.462C115.029 215.385 114.577 215.276 114.143 215.129C113.72 214.979 113.299 214.796 112.886 214.581C112.062 214.15 111.227 213.595 110.512 212.887C110.145 212.536 109.784 212.154 109.433 211.743C109.252 211.539 109.089 211.322 108.934 211.098C108.777 210.873 108.622 210.64 108.469 210.403C108.17 209.925 107.855 209.421 107.596 208.887C107.343 208.35 107.103 207.784 106.876 207.198C106.633 206.612 106.463 205.994 106.297 205.359C106.215 205.041 106.135 204.716 106.06 204.388C106.024 204.223 105.985 204.057 105.949 203.892C105.915 203.724 105.894 203.556 105.869 203.389C105.77 202.712 105.688 202.017 105.618 201.304C105.566 200.594 105.572 199.874 105.572 199.138C105.579 198.771 105.566 198.396 105.605 198.03C105.636 197.66 105.67 197.288 105.711 196.914C105.789 196.165 105.871 195.406 106.039 194.657C106.114 194.28 106.194 193.903 106.277 193.526C106.364 193.149 106.437 192.764 106.556 192.394C106.778 191.651 107.015 190.904 107.268 190.158C107.837 188.699 108.456 187.237 109.234 185.876L109.804 184.846C110.011 184.515 110.225 184.19 110.437 183.864C110.654 183.541 110.869 183.219 111.085 182.896L111.413 182.415L111.765 181.961C112.237 181.356 112.715 180.762 113.195 180.179C113.696 179.618 114.21 179.081 114.722 178.547L115.104 178.151C115.228 178.02 115.362 177.891 115.504 177.761C115.783 177.506 116.059 177.25 116.336 176.997C116.607 176.744 116.904 176.504 117.191 176.266C117.48 176.029 117.764 175.791 118.058 175.564C118.663 175.12 119.236 174.67 119.856 174.275C120.161 174.076 120.465 173.877 120.765 173.684C121.077 173.5 121.385 173.319 121.69 173.139C124.143 171.718 126.62 170.77 128.776 170.164C128.776 170.164 128.991 170.094 129.401 169.965C129.812 169.825 130.421 169.673 131.209 169.464C132.782 169.087 135.096 168.637 137.862 168.521C140.628 168.389 143.835 168.565 147.138 169.154C150.449 169.73 153.869 170.683 157.228 171.894C158.07 172.196 158.907 172.516 159.741 172.849C160.49 173.152 161.244 173.459 162.006 173.769C163.424 174.337 164.855 174.908 166.273 175.427C167.691 175.951 169.103 176.45 170.498 176.891C171.895 177.338 173.274 177.743 174.635 178.087C177.355 178.797 180.009 179.27 182.548 179.593C182.866 179.629 183.183 179.662 183.496 179.698C183.654 179.717 183.808 179.735 183.963 179.753C184.054 179.763 184.087 179.763 184.139 179.766L184.286 179.776C184.676 179.812 185.058 179.815 185.436 179.815C186.187 179.809 186.905 179.727 187.576 179.595C188.209 179.474 189.059 179.277 190.048 178.908C190.175 178.869 190.296 178.813 190.422 178.758C190.549 178.704 190.681 178.655 190.81 178.598C191.066 178.469 191.339 178.361 191.605 178.208C191.882 178.077 192.145 177.906 192.427 177.749C192.695 177.57 192.982 177.403 193.25 177.198C195.471 175.649 197.504 173.09 198.261 170.202C198.457 169.492 198.596 168.691 198.638 168.11C198.687 167.472 198.666 166.804 198.576 166.127C198.395 164.769 197.907 163.392 197.284 162.194C196.649 160.995 195.874 159.996 195.146 159.239C194.407 158.493 193.728 157.984 193.214 157.661C193.121 157.604 193.028 157.545 192.938 157.478C192.845 157.413 192.749 157.359 192.656 157.292C192.473 157.147 192.279 157.026 192.099 156.866C191.729 156.574 191.375 156.218 191.037 155.822C190.701 155.404 190.379 154.947 190.079 154.363C189.779 153.795 189.495 153.098 189.281 152.284C188.917 150.825 188.741 148.354 189.333 146.099C189.63 144.978 190.138 143.875 190.882 143.062C191.626 142.228 192.615 141.654 193.751 141.538C194.128 141.507 194.526 141.494 194.914 141.541C195.304 141.587 195.699 141.662 196.094 141.758C196.481 141.869 196.869 141.998 197.253 142.14C197.636 142.285 198.002 142.458 198.369 142.623C199.598 143.204 200.895 143.924 202.194 144.813C203.488 145.706 204.787 146.765 206.032 147.995C208.519 150.453 210.827 153.601 212.444 157.413C213.25 159.317 213.885 161.383 214.267 163.578C214.647 165.771 214.745 168.1 214.515 170.461C214.293 172.746 213.761 175.008 212.971 177.204C212.584 178.304 212.101 179.37 211.584 180.419C211.042 181.455 210.466 182.475 209.805 183.438C209.162 184.414 208.439 185.331 207.695 186.225C206.928 187.098 206.135 187.947 205.277 188.722C204.436 189.515 203.534 190.233 202.617 190.92C201.688 191.589 200.737 192.221 199.748 192.779C197.78 193.903 195.714 194.812 193.602 195.455C191.492 196.103 189.348 196.508 187.238 196.679C186.184 196.769 185.139 196.793 184.113 196.769C183.599 196.769 183.093 196.72 182.587 196.692L182.22 196.666L181.905 196.635C181.696 196.614 181.487 196.594 181.28 196.576C179.62 196.423 178.029 196.204 176.52 195.979C173.507 195.499 170.846 194.9 168.656 194.329C165.508 193.513 162.45 192.536 159.481 191.503C157.996 190.987 156.531 190.455 155.085 189.918L154 189.515L153.037 189.166C152.402 188.944 151.766 188.73 151.136 188.531C148.61 187.738 146.108 187.165 143.732 186.906C141.359 186.648 139.125 186.718 137.177 187.139C135.222 187.56 133.567 188.311 132.103 189.386C131.369 189.923 130.68 190.545 130.026 191.256C129.858 191.418 129.703 191.622 129.543 191.803C129.463 191.899 129.38 191.979 129.303 192.087L129.068 192.4C128.758 192.818 128.412 193.208 128.156 193.65C125.876 197.048 124.951 200.881 125.303 204.507C125.344 204.765 125.375 205.01 125.398 205.248C125.427 205.486 125.419 205.715 125.465 205.938C125.499 206.16 125.522 206.374 125.535 206.578C125.553 206.785 125.54 206.983 125.571 207.177C125.61 207.562 125.607 207.921 125.566 208.259C125.551 208.6 125.512 208.915 125.421 209.215Z" fill="#828FC4"/>
<path d="M125.421 209.215C125.512 208.915 125.55 208.6 125.563 208.265C125.605 207.926 125.607 207.567 125.568 207.182C125.537 206.991 125.55 206.79 125.532 206.583C125.519 206.377 125.494 206.162 125.463 205.943C125.416 205.721 125.426 205.493 125.395 205.253C125.372 205.016 125.341 204.768 125.3 204.512C125.026 201.563 125.574 198.487 127.007 195.597C127.206 195.246 127.4 194.889 127.591 194.528C127.805 194.179 128.043 193.841 128.265 193.49L128.433 193.226L128.626 192.978L129.014 192.477C129.143 192.312 129.269 192.131 129.398 191.976L129.788 191.524C130.318 190.943 130.86 190.391 131.436 189.918C132.012 189.445 132.614 189.019 133.246 188.645C133.117 188.528 132.947 188.443 132.702 188.384C130.78 187.896 128.569 188.164 126.454 189.153C124.313 190.186 122.371 191.821 120.959 193.88L121.299 192.557L121.385 192.219C121.416 192.108 121.457 192.002 121.493 191.891L121.715 191.232C121.989 190.329 122.382 189.481 122.756 188.585C122.95 188.144 123.185 187.728 123.402 187.289C123.624 186.852 123.843 186.408 124.102 185.995C124.226 185.783 124.349 185.569 124.479 185.357L124.884 184.735C125.15 184.309 125.455 183.919 125.749 183.505C126.121 183.017 126.534 182.304 126.134 181.945C125.938 181.772 125.612 181.783 125.308 181.814C124.729 181.865 124.164 182.007 123.582 182.186C123.288 182.271 123.017 182.392 122.73 182.514C122.451 182.64 122.159 182.767 121.893 182.924C121.354 183.234 120.811 183.58 120.341 183.996C119.861 184.407 119.383 184.835 118.97 185.321C119.223 184.724 119.621 184.19 120.024 183.647C120.416 183.1 120.899 182.599 121.31 182.051C121.524 181.785 121.736 181.504 121.919 181.207C122.012 181.06 122.097 180.91 122.178 180.76C122.26 180.613 122.338 180.466 122.405 180.318C122.671 179.727 122.782 179.133 122.617 178.647C122.441 178.141 121.948 177.821 121.403 177.625C120.455 177.279 119.326 177.206 118.146 177.423C117.849 177.478 117.539 177.542 117.237 177.627C116.935 177.715 116.63 177.818 116.32 177.935C116.015 178.051 115.682 178.18 115.388 178.327C115.088 178.472 114.784 178.629 114.479 178.8C111.424 181.961 108.717 185.995 107.178 190.424C106.819 191.54 106.437 192.635 106.22 193.771C106.098 194.334 105.985 194.895 105.881 195.452C105.804 196.015 105.742 196.578 105.685 197.136C105.45 199.36 105.569 201.542 105.889 203.549C105.92 203.799 105.977 204.047 106.034 204.293C106.093 204.538 106.15 204.781 106.207 205.021C106.326 205.501 106.455 205.969 106.589 206.426C106.902 207.332 107.263 208.187 107.638 208.985C108.051 209.775 108.51 210.504 108.978 211.167C109.203 211.503 109.479 211.808 109.742 212.102C110.008 212.397 110.28 212.673 110.553 212.934C110.83 213.192 111.098 213.437 111.395 213.657C111.695 213.877 111.997 214.078 112.302 214.261C112.911 214.628 113.534 214.922 114.166 215.145C115.478 215.568 116.829 215.697 118.216 215.545C119.59 215.393 120.669 214.984 121.545 214.481C122.418 213.975 123.089 213.368 123.606 212.753C124.125 212.136 124.471 211.508 124.789 210.901C125.091 210.294 125.251 209.729 125.421 209.215Z" fill="#E1EDFF"/>
<path d="M162.221 115.537L195.766 103.228L220.685 106.34L198.095 118.829L162.221 115.537Z" fill="#EBCBCC"/>
<path d="M203.457 73.2831L227.467 65.3184C229.582 64.7606 231.434 66.8447 230.631 68.8798L223.317 107.378C223.027 108.9 222.069 110.212 220.706 110.95L197.829 123.336L203.457 73.2831Z" fill="#CC7AA0"/>
<path d="M162.722 120.028L195.229 123.933C197.052 124.152 198.787 123.086 199.412 121.358L207.281 76.692C207.808 75.238 206.984 73.642 205.492 73.2339C204.141 72.8646 202.734 73.6084 202.284 74.9359L195.755 118.677L163.7 115.162C162.073 114.984 160.676 116.309 160.767 117.944C160.826 119.021 161.65 119.899 162.722 120.028Z" fill="#E29FB2"/>
<path d="M171.112 106.066C171.112 106.066 174.813 110.545 177.034 112.608C178.468 113.938 181.117 113.37 182.812 113.034C183.651 112.869 184.831 112.234 185.67 112.28C186.778 112.342 187.623 113.311 188.85 113.305C189.911 113.303 190.998 112.768 191.499 111.833C192.266 110.408 191.52 108.672 190.779 107.234C191.223 107.446 191.709 107.009 191.928 106.57C192.811 104.806 191.933 102.544 190.373 101.338C185.658 97.6782 174.062 101.294 171.112 106.066Z" fill="white"/>
<path d="M140.576 107.903C140.576 107.903 146.012 103.77 152.776 108.884C155.038 110.596 159.483 113.409 159.483 113.409C159.483 113.409 169.488 104.326 172.615 104.326C178.517 104.326 178.517 112.572 178.517 112.572C178.517 112.572 170.518 130.183 162.086 131.652C153.654 133.124 143.22 124.023 139.69 118.538C136.16 113.052 140.576 107.903 140.576 107.903Z" fill="#ACB3DB"/>
<path fill-rule="evenodd" clip-rule="evenodd" d="M176.717 137.904C176.717 137.904 170.663 147.465 174.056 154.575C177.45 161.685 192.648 159.722 199.268 156.781C205.887 153.839 208.214 146.964 208.214 146.964L224.892 150.487L233.965 140.681C233.965 140.681 214.804 122.987 203.774 122.254C192.744 121.521 186.523 126.872 176.717 137.904Z" fill="#ACB3DB"/>
<path fill-rule="evenodd" clip-rule="evenodd" d="M232.348 151.003C238.221 148.687 242.689 140.373 240.571 134.186C240.385 133.641 240.119 133.096 239.657 132.755C239.194 132.414 238.489 132.347 238.063 132.734C238.017 131.51 237.844 130.069 236.769 129.475C236.333 129.235 235.814 129.186 235.318 129.235C233.921 129.369 232.624 130.283 232.025 131.551C231.718 130.601 230.674 130.02 229.677 130.028C228.678 130.035 227.74 130.531 226.971 131.169C223.004 134.472 219.298 144.924 223.02 149.415C225.173 152.011 229.21 152.24 232.348 151.003Z" fill="white"/>
<path d="M235.148 144.066C234.851 143.661 234.468 143.318 234.019 143.077C232.431 142.228 229.804 141.202 228.051 143.341C226.762 144.914 227.263 146.954 228.278 148.17C229.259 149.348 230.786 150.19 232.552 149.797C236.137 148.999 236.491 145.892 235.148 144.066Z" fill="#CF7071"/>
<path d="M229.192 139.655C230.013 140.027 231.271 139.671 232.064 138.219C233.278 135.993 231.028 133.966 229.164 136.407C227.929 138.021 228.309 139.255 229.192 139.655Z" fill="#CF7071"/>
<path d="M233.874 140.887C234.696 141.259 235.953 140.903 236.746 139.451C237.96 137.225 235.711 135.198 233.846 137.638C232.612 139.252 232.991 140.489 233.874 140.887Z" fill="#CF7071"/>
<path d="M237.433 143.253C238.255 143.625 239.512 143.268 240.305 141.817C241.519 139.591 239.269 137.564 237.405 140.004C236.17 141.618 236.55 142.855 237.433 143.253Z" fill="#CF7071"/>
<path d="M15.0002 211.123L16.715 237.471H21.1287L22.6007 213.083C22.6007 213.083 19.4138 209.896 15.0002 211.123Z" fill="#F1FFF4"/>
<path d="M336.152 190.284L338.113 215.289H342.526L343.753 188.895C343.753 188.895 339.094 187.588 336.152 190.284Z" fill="#F1FFF4"/>
<path fill-rule="evenodd" clip-rule="evenodd" d="M23.0914 212.592C23.0917 212.592 23.0919 212.592 22.6007 213.084L23.0919 212.592L23.3129 212.813L21.7826 238.165H16.0642L14.2704 210.605L14.8142 210.454C17.2265 209.784 19.302 210.323 20.7547 211.017C21.4804 211.363 22.0572 211.75 22.4542 212.052C22.6532 212.203 22.8082 212.334 22.9155 212.429C22.9692 212.476 23.011 212.515 23.0406 212.543C23.0553 212.557 23.067 212.568 23.0756 212.576L23.0861 212.587L23.0896 212.59L23.0909 212.591L23.0914 212.592ZM21.8872 213.376C21.8132 213.314 21.7216 213.24 21.6134 213.158C21.275 212.9 20.7792 212.567 20.1565 212.27C19.0268 211.731 17.5008 211.319 15.7314 211.664L17.3659 236.776H20.4747L21.8872 213.376ZM22.1107 213.576C22.1109 213.576 22.1109 213.576 22.1107 213.576V213.576Z" fill="#A6B1AB"/>
<path fill-rule="evenodd" clip-rule="evenodd" d="M343.94 188.226C343.94 188.226 343.941 188.226 343.753 188.895L343.941 188.226L344.473 188.375L343.189 215.984H337.47L335.434 190.001L335.683 189.772C337.334 188.259 339.436 187.895 341.051 187.884C341.866 187.878 342.581 187.962 343.093 188.048C343.35 188.09 343.557 188.134 343.702 188.167C343.775 188.184 343.832 188.198 343.872 188.208C343.892 188.213 343.908 188.217 343.92 188.22L343.934 188.224L343.938 188.225L343.94 188.226L343.94 188.226ZM343.032 189.447C342.98 189.438 342.924 189.428 342.865 189.418C342.411 189.342 341.778 189.268 341.061 189.273C339.703 189.282 338.127 189.573 336.873 190.581L338.755 214.594H341.863L343.032 189.447Z" fill="#A6B1AB"/>
<path fill-rule="evenodd" clip-rule="evenodd" d="M345.02 196.107C345.37 195.95 345.781 196.106 345.938 196.455C346.096 196.805 345.94 197.217 345.591 197.374L345.305 196.741L345.02 196.107ZM12.9987 216.19C13.2745 215.553 13.2748 215.553 13.2755 215.553L13.347 215.584C13.3957 215.605 13.4685 215.636 13.5651 215.677C13.7582 215.76 14.0461 215.883 14.4242 216.042C15.1803 216.362 16.2974 216.83 17.7393 217.423C20.6231 218.609 24.806 220.295 29.9995 222.296C40.387 226.299 54.8141 231.559 70.9731 236.588C103.331 246.66 142.494 255.761 170.091 252.102C205.948 247.347 249.669 233.357 284.456 220.539C301.843 214.133 316.986 208.024 327.782 203.517C333.18 201.264 337.49 199.411 340.451 198.121C341.931 197.477 343.074 196.973 343.847 196.631C344.233 196.459 344.526 196.328 344.723 196.24C344.822 196.196 344.896 196.163 344.946 196.141L345.019 196.108C345.02 196.108 345.02 196.107 345.305 196.741C345.591 197.374 345.59 197.374 345.589 197.375L345.586 197.376L345.514 197.408C345.464 197.431 345.389 197.464 345.29 197.509C345.092 197.597 344.797 197.729 344.41 197.901C343.635 198.244 342.489 198.749 341.006 199.395C338.039 200.687 333.722 202.543 328.317 204.799C317.508 209.312 302.346 215.428 284.937 221.843C250.131 234.667 206.291 248.702 170.274 253.479C142.341 257.183 102.912 247.984 70.5602 237.915C54.3646 232.874 39.9077 227.603 29.5 223.593C24.2958 221.587 20.1032 219.897 17.2109 218.707C15.7648 218.113 14.6436 217.643 13.8836 217.322C13.5036 217.162 13.2139 217.038 13.019 216.955C12.9215 216.913 12.8477 216.881 12.7982 216.86L12.7243 216.828C12.7235 216.828 12.723 216.828 12.9987 216.19ZM12.9987 216.19L13.2745 215.553C12.9224 215.4 12.5135 215.562 12.3612 215.915C12.2089 216.267 12.3709 216.675 12.723 216.828L12.9987 216.19Z" fill="#26224B"/>
<path fill-rule="evenodd" clip-rule="evenodd" d="M345.984 194.306C346.065 194.681 345.826 195.051 345.451 195.132L334.829 197.42C334.454 197.501 334.085 197.262 334.004 196.887C333.923 196.512 334.162 196.143 334.537 196.062L345.159 193.774C345.534 193.693 345.903 193.931 345.984 194.306Z" fill="#26224B"/>
<path fill-rule="evenodd" clip-rule="evenodd" d="M345.927 201.252C346.098 201.595 345.959 202.012 345.616 202.184L334.994 207.494C334.65 207.665 334.233 207.526 334.062 207.183C333.89 206.84 334.029 206.423 334.372 206.251L344.995 200.941C345.338 200.77 345.755 200.909 345.927 201.252Z" fill="#26224B"/>
<path fill-rule="evenodd" clip-rule="evenodd" d="M12.6046 223.038C12.6807 222.662 13.0472 222.419 13.4232 222.495L23.7174 224.58C24.0934 224.656 24.3365 225.022 24.2603 225.398C24.1842 225.774 23.8177 226.017 23.4417 225.941L13.1475 223.857C12.7716 223.781 12.5285 223.414 12.6046 223.038Z" fill="#26224B"/>
<path fill-rule="evenodd" clip-rule="evenodd" d="M12.5923 219.901C12.6182 219.518 12.9495 219.229 13.3323 219.255L23.6265 219.952C24.0092 219.978 24.2985 220.31 24.2725 220.692C24.2466 221.075 23.9153 221.364 23.5326 221.338L13.2384 220.641C12.8556 220.615 12.5664 220.284 12.5923 219.901Z" fill="#26224B"/>
</svg>
