<svg width="360" height="260" viewBox="0 0 360 260" fill="none" xmlns="http://www.w3.org/2000/svg">
<path d="M184.487 242.273C199.641 242.273 211.926 229.988 211.926 214.834C211.926 199.68 199.641 187.395 184.487 187.395C169.333 187.395 157.048 199.68 157.048 214.834C157.048 229.988 169.333 242.273 184.487 242.273Z" fill="#9BA5F1"/>
<path d="M186.818 187.657C187.294 187.507 190.552 188.073 190.584 188.08L190.763 188.123C192.502 188.576 192.569 188.593 193.52 188.922C195.343 189.614 195.453 189.654 196.529 190.175C198.399 191.159 198.596 191.263 199.854 192.098C201.672 193.418 202.001 193.657 203.475 195.021C205.154 196.747 205.503 197.109 206.942 199.044C207.38 199.719 207.973 200.613 208.379 201.31C206.885 198.787 201.199 192.69 200.569 194.005C200.1 193.975 199.675 193.644 199.179 193.794C199.112 193.928 198.868 194.648 200.741 195.487C201.988 196.048 201.948 196.444 201.906 196.551C201.418 196.673 198.723 195.477 197.495 194.74C197.388 194.675 197.249 194.578 197.159 194.493C196.843 194.192 196.718 193.764 196.444 193.432C196.078 192.994 195.473 192.89 195.099 192.464C195.249 191.789 193.608 190.359 193.59 190.344C192.793 189.674 191.767 189.44 190.888 188.922C190.885 188.852 190.888 188.758 190.895 188.688C189.73 187.615 188.188 188.152 186.863 187.749C186.863 187.717 186.833 187.684 186.818 187.657Z" fill="#B5E26A"/>
<path d="M177.257 191.819C177.247 191.819 176.231 191.786 175.91 191.522C175.778 191.413 175.693 191.251 175.536 191.169C175.424 191.109 175.225 191.062 175.05 191.022C174.776 190.959 174.595 190.917 174.535 190.812C174.341 190.486 174.749 190.095 174.948 189.908C175.74 189.156 175.74 189.156 175.648 189.054C175.651 189.042 175.653 189.022 175.653 189.009C175.962 188.783 178.032 188.197 178.435 188.481C178.44 188.556 178.44 188.556 178.333 188.658C178.191 188.795 178.231 188.84 178.375 188.89C178.535 188.945 178.851 188.947 179.787 188.95C180.286 188.952 180.776 188.8 181.277 188.85C181.528 188.875 181.511 189.019 181.374 189.106C180.988 189.348 180.988 189.348 180.345 190.01C180.066 190.297 179.999 190.287 179.82 190.257C179.648 190.227 179.337 190.2 179.197 190.329C179.135 190.389 179.157 190.481 179.205 190.683C179.277 190.982 179.269 191.064 179.162 191.189C179.115 191.226 179.068 191.263 178.956 191.301C178.721 191.378 178.47 191.395 178.241 191.49C178.106 191.547 178.039 191.697 177.895 191.741C177.728 191.794 177.514 191.819 177.257 191.819Z" fill="#B5E26A"/>
<path d="M180.442 187.928C180.544 187.879 181.822 187.575 182.109 187.537C182.577 187.48 183.566 187.45 183.755 187.522C183.737 187.552 183.715 187.567 183.326 187.625C183.047 187.664 182.699 187.717 182.589 187.786C182.485 187.854 182.711 188.001 182.597 188.048C182.587 188.053 182.559 188.063 182.502 188.07C182.462 188.073 182.432 188.075 182.37 188.073C182.203 188.063 182.049 187.991 181.884 187.971C181.404 187.909 180.918 188.118 180.437 187.948C180.44 187.941 180.442 187.933 180.442 187.928Z" fill="#B5E26A"/>
<path d="M187.316 188.157C187.408 188.108 187.643 188.073 187.899 188.103C188.116 188.128 188.317 188.215 188.527 188.265C188.878 188.347 189.239 188.359 189.59 188.424C189.767 188.456 190.175 188.544 190.116 188.666C190.053 188.793 189.779 188.775 188.963 188.723C188.711 188.708 188.492 188.563 188.243 188.534C188.044 188.511 187.839 188.543 187.64 188.511C187.63 188.509 187.62 188.509 187.61 188.506C187.232 188.404 187.152 188.245 187.316 188.157Z" fill="#B5E26A"/>
<path d="M183.924 187.801C184.039 187.727 185.533 187.61 185.907 187.632C186.801 187.684 186.666 187.933 186.649 187.963C186.636 187.981 186.452 188.1 185.991 188.08C185.837 188.065 185.655 188.013 185.613 187.911C185.595 187.869 185.553 187.856 185.339 187.854C184.96 187.854 184.584 187.943 184.203 187.908C184.193 187.908 184.181 187.906 184.173 187.906C184.099 187.896 183.927 187.869 183.907 187.819C183.912 187.814 183.917 187.806 183.924 187.801Z" fill="#B5E26A"/>
<path d="M183.282 188.297C183.354 188.118 184.714 188.055 184.848 188.342C184.878 188.404 184.878 188.509 184.567 188.519C183.625 188.499 183.214 188.464 183.282 188.297Z" fill="#B5E26A"/>
<path d="M165.686 197.034C165.534 197.133 165.364 197.201 165.394 197.061C165.432 196.884 165.579 196.755 165.594 196.571C165.604 196.434 165.539 196.294 165.596 196.157C165.631 196.077 165.736 195.868 165.982 195.674C166.174 195.522 166.428 195.559 166.64 195.465C167.058 195.278 167.437 195.012 167.853 194.822C167.89 194.805 167.937 194.785 167.975 194.77C168.151 194.698 168.311 194.678 168.346 194.72C168.358 194.735 168.351 194.76 168.343 194.78C168.306 194.855 168.244 194.924 168.126 195.024C167.77 195.325 167.339 195.507 166.953 195.761C166.445 196.097 166.196 196.698 165.686 197.034Z" fill="#B5E26A"/>
<path d="M204.247 212.072C204.735 212.269 205.181 211.9 204.964 211.255C204.598 210.159 203.216 210.206 202.72 209.26C202.192 208.251 202.768 207.078 202.245 206.067C201.943 205.487 201.286 204.493 200.255 204.359C197.147 203.953 197.147 203.953 196.925 203.39C196.676 202.755 196.833 202.289 197.445 201.833C197.956 201.455 197.988 201.268 198.041 200.959C198.123 200.478 197.523 200.319 197.533 199.873C197.54 199.497 198.088 199.514 198.081 199.126C198.078 198.967 198.046 198.755 197.998 198.605C199.689 199.285 200.364 201.671 202.638 201.367C202.671 201.305 202.71 201.223 202.743 201.163C202.713 201.091 202.713 201.091 200.15 199.477C199.346 198.969 199.47 197.898 198.828 197.293C198.716 197.188 198.524 197.109 198.382 197.049C197.944 197.233 197.445 196.867 197.465 196.371C197.587 196.299 197.734 196.162 197.807 196.04C197.732 195.906 197.615 195.731 197.49 195.642C197.391 195.574 197.229 195.537 197.112 195.51C195.401 196.578 193.934 197.983 192.208 199.029C192.143 199.069 192.053 199.121 191.984 199.151C191.316 199.45 190.619 198.685 189.959 199.211C189.473 199.597 189.473 200.414 188.743 200.583C188.235 200.7 187.747 200.461 187.511 200.344C187.446 200.311 187.364 200.269 187.299 200.239C186.577 199.92 185.996 199.783 184.838 199.92C184.014 200.018 184.395 198.727 183.633 198.633C183.404 198.63 178.007 198.623 179.087 201.544C178.285 202.426 177.805 202.189 177.541 201.838C177.762 201.45 178.457 200.117 178.119 199.32C177.862 199.338 177.234 199.522 176.936 200.862C176.315 199.841 176.315 199.841 172.066 200.057C171.944 200.172 171.822 200.292 171.703 200.409C171.798 200.316 171.892 200.224 171.989 200.132C171.934 200.125 171.865 200.115 171.812 200.102C171.299 199.963 171.242 199.059 172.395 198.339C172.196 198.989 172.492 199.079 172.555 199.091C172.575 199.096 174.353 198.954 173.192 196.648C172.968 196.267 172.443 195.375 169.683 196.227C169.404 195.4 168.311 196.449 168.288 196.708C168.236 197.298 168.236 197.298 167.437 197.891C166.894 198.294 166.585 199.011 167.07 198.979L169.001 197.786C169.568 197.335 169.945 197.036 171.688 197.29C170.453 198.152 169.808 198.292 169.638 198.312C169.165 198.371 169.155 198.71 169.165 198.812C169.182 199.019 169.397 199.158 169.422 199.173C170.064 199.572 169.486 200.174 169.479 200.179C169.439 200.219 169.222 200.416 168.993 200.409C168.664 200.399 168.607 199.988 168.303 199.943C167.82 199.873 167.384 200.234 166.894 200.102C166.687 200.047 166.522 200.003 165.89 199.213C165.753 199.041 165.76 198.722 166.58 198.175C167.033 197.871 167.277 197.661 167.265 197.422C167.242 197.41 167.217 197.383 167.192 197.378L165.713 197.721C165.397 197.883 165.359 197.861 165.267 197.649C165.265 197.642 164.841 196.992 164.542 197.096C163.643 197.405 163.676 198.568 162.851 198.942C162.829 198.932 162.797 198.919 162.774 198.909C162.789 198.072 163.873 197.816 163.833 196.952C163.265 197.44 161.118 199.998 161.12 200.966C161.252 201.016 161.252 201.016 161.589 200.827C162.625 200.239 162.575 201.108 162.572 201.118C162.57 201.146 161.8 203.96 161.28 204.062C161.123 204.092 160.886 204.139 160.787 204.653C160.695 205.128 161.379 206.092 162.216 203.684C162.523 202.805 162.662 202.536 162.891 202.376C162.914 202.389 162.944 202.406 162.963 202.418C163.073 204.401 161.275 205.873 161.501 207.885C161.539 208.209 161.81 208.299 162.142 207.698C162.281 207.444 162.54 206.974 162.854 207.327C163.125 207.636 163.085 208.182 163.046 208.757C162.991 209.502 162.968 209.808 163.481 210.473C163.626 210.662 163.78 210.842 163.93 211.028C163.997 210.891 164.067 210.757 164.134 210.62C164.062 210.764 163.987 210.911 163.915 211.056C164.61 212 164.61 212 162.687 213.935C162.592 214.191 162.508 214.448 162.42 214.704C162.47 214.558 162.518 214.408 162.57 214.261C161.736 212.363 159.972 210.984 159.569 208.847C159.203 206.909 160.353 205.235 160.515 203.39C160.615 201.99 160.652 201.467 161.247 200.259C160.463 201.517 160.44 201.564 159.275 204.022C158.167 206.66 157.81 208.451 157.397 210.525C157.138 212.226 157.136 212.341 157.061 215.23C157.111 217.205 157.155 217.489 157.584 220.214C158.094 222.525 158.256 222.963 159.163 225.401C160.176 227.67 160.45 228.111 161.778 230.233C163.198 232.181 163.758 232.828 164.884 233.999C165.088 234.223 165.297 234.442 165.516 234.651L166.263 235.341C166.261 235.339 166.261 235.336 166.258 235.334C166.408 235.419 166.622 235.503 166.789 235.551C166.42 234.208 164.428 233.887 164.66 232.163C164.861 230.677 166.622 231.334 167.454 230.642C168.47 229.797 169.167 227.733 166.512 227.501C164.774 227.349 159.947 218.239 162.689 215.835C163.616 218.722 163.571 221.84 164.797 224.652C166.109 227.66 172.647 226.096 173.19 224.953C173.197 224.936 174.002 223.175 171.185 222.836C167.586 222.403 167.713 218.542 167.828 218.283C168.804 217.915 168.804 217.915 170.689 220.57C171.616 221.875 173.212 221.519 174.44 222.082C174.592 222.151 174.789 222.256 174.928 222.346C175.775 222.889 175.987 223.984 176.831 224.532C177.663 225.073 178.816 224.562 179.568 225.367C180.886 226.774 181.259 228.672 182.136 230.308C183.167 232.236 183.167 232.236 184.215 231.807C185.585 231.247 185.209 229.74 185.857 228.786C185.904 228.719 190.806 222.617 192.33 225.917C192.982 227.332 193.734 227.195 194.452 226.836C195.057 226.532 196.056 226.306 195.949 228.176C195.814 230.5 195.814 230.5 198.013 232.104C198.307 232.32 198.932 232.153 199.191 231.68C199.376 231.346 199.119 231.162 198.696 230.858C197.627 230.094 197.306 229.862 197.181 229.421C196.546 227.165 198.745 228.256 199.929 228.841C200.347 229.048 201.024 228.649 201.522 227.282C202.272 225.227 202.003 225.217 201.356 225.192C199.819 225.132 199.929 223.531 199.931 223.514C199.981 222.988 200.3 222.328 201.537 222.161C203.149 221.942 204.202 218.328 204.212 218.293C204.414 217.549 204.529 217.085 204.534 216.216C204.549 213.467 200.661 214.807 200.021 212.52C199.338 210.097 203.034 211.584 204.247 212.072Z" fill="#B5E26A"/>
<path d="M170.926 237.588C171.143 237.964 171.026 238.011 170.796 238.106C170.632 238.173 170.881 238.412 171.145 238.664C171.202 238.719 171.265 238.778 171.292 238.818C171.29 238.821 171.285 238.826 171.282 238.828C171.073 238.771 169.539 237.897 169.447 237.678C169.449 237.673 169.452 237.668 169.454 237.663C169.469 237.66 169.489 237.655 169.501 237.653C169.526 237.595 169.422 237.466 169.093 237.167C168.729 236.831 168.682 236.764 168.682 236.671C168.702 236.654 168.737 236.637 168.764 236.632C168.901 236.607 169.036 236.664 169.17 236.647C169.275 236.632 169.349 236.539 169.459 236.537C169.536 236.534 169.676 236.574 169.833 236.644C170.498 236.965 170.804 237.374 170.926 237.588Z" fill="#B5E26A"/>
<path d="M206.197 228.472C206.058 229.06 205.674 230.188 204.686 231.125C204.295 231.496 202.616 232.44 202.603 232.447C202.479 232.51 202.15 232.672 201.996 232.457C201.919 232.35 201.846 231.865 202.285 231.244C202.867 230.418 203.806 229.967 204.444 229.2C204.974 228.56 205.209 227.735 205.742 227.098C205.796 227.033 205.829 227.005 205.856 226.986C206.309 226.694 206.414 227.561 206.197 228.472Z" fill="#B5E26A"/>
<path d="M209.719 225.646L209.57 225.989C209.333 226.502 209.251 226.495 209.226 226.492C209.223 226.487 209.156 226.328 209.849 225.038C210.172 224.438 210.257 224.271 210.407 223.88L209.719 225.646Z" fill="#B5E26A"/>
<path d="M204.927 204.142C206.561 206.276 206.748 210.53 205.841 210.456C205.323 210.413 205.298 209.36 205.276 208.428C205.253 207.492 205.201 207.255 205.069 206.77C204.648 205.208 203.913 204.142 203.672 203.791C203.6 203.686 203.542 203.599 203.512 203.502C203.463 203.345 203.505 203.253 203.525 203.213C203.851 202.782 204.75 203.913 204.927 204.142Z" fill="#B5E26A"/>
<path d="M206.785 230.338C205.604 232.261 202.882 233.86 202.855 233.576C202.832 233.341 203.712 232.719 204.486 232.168C204.942 231.845 205.129 231.66 205.345 231.451C205.801 231.005 206.192 230.502 206.646 230.056C206.902 229.812 206.932 229.812 207.019 229.82C207.007 229.907 206.994 229.999 206.785 230.338Z" fill="#B5E26A"/>
<path d="M208.815 224.525C208.733 224.874 207.918 226.943 206.93 225.412C206.596 224.893 205.973 223.932 206.758 223.27C206.87 223.2 207.213 222.988 207.682 223.275C207.886 223.399 208.003 223.613 208.18 223.768C208.349 223.915 208.606 223.88 208.763 224.052C208.827 224.124 208.892 224.194 208.815 224.525Z" fill="#B5E26A"/>
<path d="M79.5866 97.4108C78.827 98.1729 77.7735 99.0895 76.2966 99.6847C75.5693 99.9811 74.7175 100.185 73.7462 100.19C72.7724 100.193 71.6766 99.9985 70.4562 99.4282C68.8049 98.6561 67.455 97.4656 66.5136 95.8567C65.5672 94.2528 65.0168 92.2229 65.0018 89.9017C64.9819 88.7386 65.1264 87.5183 65.3829 86.2456C65.6643 84.9853 66.0678 83.6753 66.6381 82.3727C67.2085 81.0752 67.9158 79.7701 68.7701 78.5148C69.6243 77.2621 70.6131 76.0517 71.7164 74.9185C73.9181 72.6495 76.578 70.7318 79.4073 69.2574C82.2416 67.7954 85.2402 66.7743 88.1666 66.1716C89.6311 65.8702 91.0756 65.6635 92.4803 65.5415C93.885 65.4269 95.2498 65.387 96.5549 65.4144C99.165 65.4767 101.536 65.788 103.558 66.184C103.558 66.184 103.763 66.2189 104.154 66.2836C104.348 66.316 104.592 66.3584 104.876 66.4082C105.16 66.4655 105.489 66.5302 105.857 66.6049C107.332 66.9212 109.464 67.4318 112.009 68.3981C114.554 69.3495 117.511 70.7667 120.529 72.8089C122.036 73.8301 123.553 75.0106 125.025 76.353C126.492 77.6905 127.926 79.2047 129.231 80.8336C129.851 81.633 130.496 82.435 131.069 83.2843C131.358 83.7077 131.669 84.1236 131.943 84.5595C132.217 84.9928 132.494 85.4287 132.773 85.867C133.836 87.6328 134.837 89.4584 135.679 91.3239L136.006 92.0237L136.304 92.726C136.501 93.1943 136.705 93.665 136.895 94.1357C137.256 95.0771 137.629 96.0236 137.943 96.9675C138.606 98.8578 139.149 100.743 139.627 102.601C140.112 104.462 140.484 106.287 140.83 108.073C140.979 108.962 141.151 109.846 141.276 110.708C141.395 111.505 141.515 112.292 141.632 113.067C142.055 115.868 142.543 118.386 143.069 120.538C143.315 121.552 143.652 122.899 144.115 124.431C144.576 125.963 145.173 127.674 145.933 129.38C146.693 131.083 147.627 132.764 148.712 134.236C149.258 134.969 149.843 135.646 150.463 136.259C150.613 136.421 150.78 136.555 150.937 136.707C151.091 136.861 151.258 136.991 151.422 137.13C151.504 137.198 151.584 137.272 151.669 137.337L151.923 137.529L152.174 137.726L152.364 137.85C152.849 138.189 153.377 138.47 153.973 138.695C154.57 138.914 155.24 139.071 155.962 139.165C156.685 139.257 157.457 139.287 158.251 139.245C159.046 139.195 159.853 139.083 160.642 138.929C162.224 138.592 163.718 138.082 164.961 137.512C166.209 136.949 167.21 136.358 167.925 135.893C168.946 135.22 170.186 134.483 171.509 134.015C172.841 133.554 174.266 133.34 175.887 133.793C177.317 134.209 179.344 135.462 180.786 137.2C181.145 137.636 181.468 138.102 181.735 138.595C182.004 139.091 182.211 139.601 182.338 140.119C182.604 141.168 182.557 142.251 182.101 143.225C181.493 144.535 180.29 145.583 179.11 146.493C177.1 148.034 174.587 149.673 171.546 151.095C168.51 152.515 164.943 153.755 160.844 154.29C158.797 154.552 156.615 154.629 154.349 154.408C152.085 154.186 149.731 153.66 147.442 152.726C146.307 152.241 145.178 151.693 144.112 151.018L143.313 150.51L142.598 150.004C142.117 149.673 141.667 149.304 141.208 148.943C139.393 147.476 137.771 145.793 136.332 144.017C134.897 142.236 133.677 140.346 132.611 138.436C131.547 136.52 130.663 134.578 129.894 132.65C128.359 128.792 127.331 125.006 126.536 121.467C126.14 119.696 125.814 117.985 125.528 116.352C125.393 115.55 125.261 114.765 125.132 113.998C125.012 113.306 124.9 112.628 124.768 111.981C124.267 109.373 123.692 107.117 123.134 105.276C122.347 102.626 121.339 100.118 120.141 97.7894C119.999 97.493 119.834 97.2116 119.677 96.9301C119.518 96.6487 119.364 96.3598 119.199 96.0833L118.691 95.2664C118.606 95.1319 118.524 94.9925 118.437 94.858L118.168 94.467L117.633 93.6824L117.062 92.9352L116.778 92.5617C116.681 92.4396 116.579 92.3251 116.479 92.2055L115.882 91.4957C112.764 87.9417 108.569 85.5532 104.047 84.5321C99.5336 83.5084 94.7094 83.882 90.6946 85.5183C89.6909 85.9243 88.737 86.3975 87.8528 86.9405C86.9687 87.4859 86.1542 88.0936 85.417 88.7511C83.9351 90.0636 82.787 91.5854 81.9626 93.2341C81.4969 94.1631 81.1333 94.98 80.7671 95.6774C80.6675 95.8467 80.5878 96.0211 80.4932 96.178C80.3985 96.3374 80.2989 96.4843 80.2093 96.6338C80.1146 96.7782 80.0125 96.9152 79.9054 97.0397C79.8033 97.1742 79.6987 97.2962 79.5866 97.4108Z" fill="#DB9A46"/>
<path d="M79.5866 97.4109C79.6987 97.2988 79.8033 97.1768 79.9029 97.0448C80.01 96.9178 80.1121 96.7833 80.2067 96.6388C80.2989 96.4919 80.396 96.3424 80.4906 96.1831C80.5853 96.0261 80.6675 95.8518 80.7646 95.6824C81.1282 94.9826 81.4944 94.1682 81.9601 93.2392C82.6301 91.8993 83.5117 90.6415 84.62 89.5158C85.7233 88.3876 87.0433 87.3814 88.5327 86.552C91.5164 84.8983 95.1776 83.9618 98.9059 83.9743C98.8287 83.8174 98.6918 83.6555 98.4601 83.4836C96.6445 82.1611 94.3756 81.2645 91.9298 80.9781C89.4891 80.6867 86.8715 81.0155 84.4781 81.9992C87.2276 79.4638 90.7095 77.3892 94.6271 75.9994C95.2249 75.7902 95.972 75.4092 95.8151 74.9136C95.7379 74.6695 95.4515 74.5151 95.1726 74.3881C93.088 73.4142 90.3633 73.2175 87.8329 73.9248C88.9586 73.2225 90.3708 72.9336 91.6733 72.5151C92.9734 72.0917 94.3532 71.3969 94.5848 70.4256C94.7019 69.9175 94.4603 69.4119 94.1191 68.9661C92.9286 67.407 90.6447 66.4506 87.8204 66.2538C85.6362 66.7271 83.4171 67.4244 81.2602 68.3808C80.1793 68.849 79.1233 69.3994 78.0872 69.9872C77.0586 70.5974 76.0525 71.24 75.0986 71.9647C71.2606 74.8115 68.2022 78.637 66.5733 82.5322C65.749 84.4749 65.2558 86.415 65.079 88.2282C64.9022 90.0438 65.0242 91.7299 65.4252 93.2118C65.5173 93.5804 65.6319 93.939 65.7664 94.2852C65.8959 94.6289 66.0379 94.9602 66.1923 95.2765C66.521 95.9116 66.8847 96.4894 67.313 97.0099C67.7464 97.5305 68.2196 97.9937 68.7401 98.3947C69.2706 98.7982 69.8435 99.1443 70.4586 99.4332C71.679 100.004 72.7749 100.198 73.7487 100.195C74.7225 100.19 75.5718 99.9862 76.299 99.6898C77.7734 99.0896 78.827 98.1705 79.5866 97.4109Z" fill="#F4F3B6"/>
<path fill-rule="evenodd" clip-rule="evenodd" d="M208.947 127.405C208.947 127.405 228.01 130.794 234.894 134.152C244.704 138.936 248.647 146.859 248.647 146.859C248.647 146.859 247.685 157.658 241.105 157.204L226.949 150.094C226.949 150.094 213.868 152.213 205.308 150.672C196.751 149.13 187.613 133.093 208.947 127.405Z" fill="#DB9A46"/>
<path fill-rule="evenodd" clip-rule="evenodd" d="M247.147 162.308C252.699 163.578 260.26 159.668 261.839 153.984C261.979 153.484 262.058 152.943 261.887 152.452C261.715 151.962 261.227 151.553 260.711 151.626C261.301 150.692 261.906 149.528 261.411 148.542C261.209 148.141 260.848 147.84 260.454 147.623C259.346 147.013 257.917 147.03 256.823 147.668C257.08 146.804 256.599 145.84 255.852 145.337C255.105 144.834 254.153 144.724 253.257 144.809C248.622 145.245 240.537 151.135 241.016 156.373C241.292 159.401 244.181 161.63 247.147 162.308Z" fill="#F4F3B6"/>
<path d="M252.94 157.598C252.955 157.224 252.871 156.856 252.674 156.525C251.979 155.352 250.604 153.65 248.017 154.271C246.114 154.729 245.284 156.201 245.329 157.369C245.372 158.5 246.027 159.643 247.591 160.113C250.764 161.07 252.871 159.279 252.94 157.598Z" fill="#CB542F"/>
<path d="M251.06 152.44C251.461 153.003 252.619 153.292 254.079 152.709C256.313 151.815 255.815 149.643 252.965 150.405C251.073 150.911 250.629 151.835 251.06 152.44Z" fill="#CB542F"/>
<path d="M253.859 155.105C254.26 155.668 255.419 155.957 256.878 155.374C259.112 154.48 258.614 152.308 255.765 153.07C253.874 153.576 253.431 154.5 253.859 155.105Z" fill="#CB542F"/>
<path d="M255.145 158.019C255.546 158.582 256.704 158.871 258.163 158.288C260.397 157.394 259.899 155.222 257.05 155.984C255.159 156.49 254.714 157.411 255.145 158.019Z" fill="#CB542F"/>
<path d="M213.203 90.0736C215.348 96.3573 215.607 104.424 215.888 108.932C216.498 118.668 216.329 128.481 214.573 138.099C212.466 149.633 199.689 154.014 189.207 152.027C169.536 148.298 168.891 135.915 169.822 127.405C172.141 106.203 183.648 99.5005 190.517 90.0363C193.299 86.2033 196.671 82.2408 201.328 81.3691C207.776 80.1612 211.263 84.3852 213.203 90.0736Z" fill="#DB9A46"/>
<path d="M169.568 131.679C173.401 129.846 179.147 126.319 180.719 121.096C182.751 114.352 180.734 107.871 178.833 103.817C174.652 109.403 171.018 116.479 169.822 127.402C169.675 128.75 169.568 130.189 169.568 131.679Z" fill="#A36D3D"/>
<path d="M205.953 92.1881C205.953 92.1881 197.978 100.514 193.015 119.428C188.051 138.341 190.4 153.623 201.953 152.174C213.238 150.756 219.113 138.585 217.699 118.322C216.354 99.0496 213.432 86.5395 213.432 86.5395L205.953 92.1881Z" fill="#F4F3B6"/>
<path d="M170.199 31.9437C170.199 31.9437 160.53 11.2595 146.872 18.7486C133.211 26.2378 137.998 49.1162 149.278 69.2226C160.558 89.329 181.17 99.1144 205.141 95.2466C229.997 91.2342 242.953 78.0541 248.846 49.8609C254.739 21.6676 243.185 0.881267 232.493 3.17259C221.801 5.46641 217.921 12.831 215.796 23.4932C215.796 23.4932 206.974 19.6403 192.026 22.7983C180.462 25.2415 170.199 31.9437 170.199 31.9437Z" fill="#EAC652"/>
<path d="M192.479 73.6035C192.479 73.6035 194.484 83.11 202.359 82.0017C210.162 80.9058 209.866 71.2997 209.866 71.2997C209.866 71.2997 204.676 75.7404 201.49 69.9847C201.49 69.9847 198.848 77.1525 192.479 73.6035Z" fill="#0B1411"/>
<path d="M208.215 78.0442C207.111 77.1999 205.298 76.2709 202.631 76.2858C199.453 76.3033 196.833 78.1363 195.386 79.4165C196.908 81.135 199.144 82.4525 202.359 82.0017C205.333 81.5858 207.126 79.932 208.215 78.0442Z" fill="#CB542F"/>
<path d="M232.493 3.17259C221.801 5.46641 217.92 12.831 215.796 23.4932C215.796 23.4932 211.851 21.7747 204.775 21.5754C202.753 26.8181 201.009 35.2935 202.842 47.5621C205.913 68.1342 221.776 78.1463 239.185 75.2348C243.528 68.6248 246.672 60.269 248.846 49.8584C254.738 21.6676 243.185 0.881267 232.493 3.17259Z" fill="#A36D3D"/>
<path d="M154.008 46.1125C154.008 46.1125 154.496 50.3216 152.12 52.8769C149.744 55.4323 147.086 55.3003 144.795 44.6082C142.504 33.9162 144.215 25.2216 149.766 22.5916C155.318 19.9615 163.676 27.8143 166.448 34.7107C169.22 41.6071 163.596 42.0629 161.076 41.2734C161.076 41.2734 162.254 45.2035 159.43 47.1411C156.6 49.0763 154.008 46.1125 154.008 46.1125Z" fill="#5D3317"/>
<path d="M229.086 28.168C229.086 28.168 226.71 30.7233 223.741 29.3136C220.772 27.904 220.593 23.9714 222.827 17.0675C225.061 10.1636 231.469 5.18747 236.44 7.59585C241.412 10.0042 245.426 18.0015 246.206 31.9038C246.206 31.9038 246.49 36.5961 242.866 36.0481C239.242 35.5027 237.27 30.0882 237.27 30.0882C237.27 30.0882 235.31 33.6796 232.929 33.2338C230.543 32.788 229.086 28.168 229.086 28.168Z" fill="#5D3317"/>
<path d="M232.832 42.8151C229.021 36.3645 220.708 34.2251 214.257 38.0357C207.806 41.8463 205.667 50.1598 209.478 56.6104C213.288 63.0609 221.602 65.2003 228.052 61.3898C234.5 57.5792 236.642 49.2657 232.832 42.8151Z" fill="#F4F3B6"/>
<path d="M187.418 51.552C183.61 45.1064 175.294 42.962 168.844 46.7726C162.398 50.5807 160.259 58.8992 164.064 65.3473C167.875 71.7979 176.193 73.9373 182.639 70.1267C189.09 66.3161 191.229 58.0026 187.418 51.552Z" fill="#F4F3B6"/>
<path d="M184.587 53.537C182.236 49.562 177.11 48.242 173.135 50.5931C169.16 52.9393 167.838 58.0648 170.189 62.0398C172.537 66.0197 177.66 67.3373 181.64 64.9886C185.615 62.6351 186.933 57.5119 184.587 53.537Z" fill="#0B1411"/>
<path d="M225.743 45.2608C223.397 41.2859 218.272 39.9634 214.294 42.317C210.319 44.6631 209.004 49.7912 211.35 53.7686C213.701 57.7436 218.825 59.0586 222.8 56.7125C226.772 54.3614 228.092 49.2358 225.743 45.2608Z" fill="#0B1411"/>
<path d="M221.995 45.1014C222.682 46.2595 222.294 47.7539 221.136 48.4413C219.98 49.1212 218.483 48.7401 217.801 47.5795C217.114 46.4214 217.502 44.9271 218.66 44.2397C219.818 43.5548 221.313 43.9408 221.995 45.1014Z" fill="white"/>
<path d="M181.374 53.3029C182.061 54.4611 181.675 55.9604 180.515 56.6428C179.356 57.3302 177.862 56.9417 177.18 55.7811C176.492 54.6229 176.881 53.1286 178.034 52.4437C179.195 51.7613 180.694 52.1423 181.374 53.3029Z" fill="white"/>
<path fill-rule="evenodd" clip-rule="evenodd" d="M151.507 77.195L151.187 76.777C150.956 76.9537 150.912 77.2841 151.089 77.5149C151.266 77.7457 151.596 77.7896 151.827 77.6131M151.507 77.195C151.187 76.777 151.187 76.7768 151.188 76.7765L151.188 76.7758L151.192 76.7735L151.202 76.7654C151.211 76.7585 151.225 76.7486 151.242 76.7358C151.276 76.7101 151.327 76.6729 151.394 76.6249C151.527 76.529 151.725 76.3901 151.986 76.2151C152.507 75.8653 153.281 75.3713 154.297 74.7887C156.33 73.6237 159.335 72.1037 163.239 70.6738C171.048 67.8135 182.452 65.314 196.855 66.7337C197.144 66.7623 197.355 67.0199 197.327 67.3092C197.298 67.5985 197.041 67.8099 196.751 67.7814C182.528 66.3794 171.283 68.8485 163.601 71.6624C159.759 73.0695 156.808 74.563 154.821 75.7021C153.827 76.2716 153.074 76.7524 152.572 77.0893C152.321 77.2578 152.133 77.3902 152.008 77.4798C151.946 77.5246 151.9 77.5587 151.869 77.5812C151.854 77.5924 151.843 77.6007 151.836 77.6061L151.828 77.6118L151.827 77.613" fill="#5D3317"/>
<path fill-rule="evenodd" clip-rule="evenodd" d="M151.44 81.9146L151.125 81.4923C150.892 81.6658 150.844 81.9955 151.017 82.2288C151.191 82.462 151.521 82.5104 151.754 82.3369M151.754 82.3369L151.756 82.335L151.766 82.3281C151.774 82.3219 151.787 82.3123 151.805 82.2995C151.84 82.274 151.893 82.2356 151.963 82.1853C152.104 82.0847 152.314 81.9363 152.59 81.7472C153.142 81.3689 153.958 80.8276 155.005 80.1792C157.101 78.8822 160.124 77.1576 163.828 75.4511C171.243 72.0354 181.355 68.707 192.206 68.9967C192.497 69.0044 192.739 68.7751 192.746 68.4845C192.754 68.1939 192.525 67.952 192.234 67.9443C181.161 67.6487 170.883 71.0423 163.388 74.4949C159.638 76.2227 156.576 77.9689 154.451 79.284C153.389 79.9417 152.56 80.4919 151.995 80.8786C151.713 81.0719 151.497 81.2244 151.351 81.329C151.277 81.3813 151.222 81.4217 151.184 81.4492C151.165 81.4629 151.151 81.4734 151.141 81.4807L151.13 81.489L151.126 81.4919C151.126 81.4921 151.125 81.4923 151.44 81.9146" fill="#5D3317"/>
<path fill-rule="evenodd" clip-rule="evenodd" d="M195.578 70.1046C195.594 70.3948 195.372 70.6433 195.082 70.6597C184.572 71.251 174.774 75.4785 167.585 79.5786C163.994 81.6265 161.063 83.6373 159.031 85.1354C158.015 85.8843 157.225 86.5046 156.689 86.9369C156.421 87.153 156.217 87.322 156.08 87.4366C156.012 87.4939 155.961 87.5375 155.927 87.5666C155.91 87.5812 155.897 87.5921 155.889 87.5992L155.879 87.6071L155.877 87.6089L155.877 87.6093C155.658 87.8 155.325 87.7767 155.134 87.5573C154.944 87.3379 154.967 87.0054 155.186 86.8147L155.532 87.212C155.186 86.8147 155.187 86.8145 155.187 86.8143L155.188 86.8136L155.191 86.8111L155.201 86.8017C155.211 86.7936 155.225 86.7817 155.243 86.7661C155.279 86.7351 155.333 86.6894 155.404 86.63C155.545 86.5114 155.754 86.338 156.028 86.1175C156.574 85.6765 157.377 85.0468 158.406 84.288C160.465 82.7707 163.43 80.7362 167.063 78.6641C174.322 74.5242 184.285 70.2127 195.022 69.6086C195.313 69.5922 195.561 69.8143 195.578 70.1046Z" fill="#5D3317"/>
<path fill-rule="evenodd" clip-rule="evenodd" d="M249.95 57.786C249.95 57.7861 249.951 57.7862 249.795 58.289L249.951 57.7862C250.228 57.8722 250.384 58.167 250.298 58.4447C250.212 58.7223 249.917 58.8777 249.639 58.7919C249.639 58.7919 249.639 58.7919 249.639 58.7918L249.638 58.7916L249.631 58.7895C249.625 58.7874 249.614 58.7842 249.599 58.7799C249.569 58.7712 249.522 58.758 249.459 58.7412C249.334 58.7074 249.143 58.6587 248.889 58.6008C248.38 58.4851 247.616 58.3327 246.608 58.1899C244.593 57.9043 241.601 57.657 237.721 57.8181C229.962 58.1402 218.642 60.0958 204.466 66.6544C204.202 66.7765 203.889 66.6615 203.767 66.3977C203.645 66.1338 203.76 65.821 204.024 65.6989C218.325 59.0824 229.78 57.0941 237.677 56.7662C241.625 56.6023 244.681 56.8534 246.756 57.1475C247.794 57.2946 248.586 57.4523 249.122 57.5743C249.39 57.6353 249.594 57.6873 249.733 57.7245C249.802 57.7432 249.855 57.7581 249.891 57.7686C249.91 57.7739 249.924 57.778 249.933 57.781L249.945 57.7845L249.949 57.7856L249.95 57.786Z" fill="#5D3317"/>
<path fill-rule="evenodd" clip-rule="evenodd" d="M251.946 62.7308C251.946 62.7309 251.946 62.731 251.78 63.2303L251.946 62.731C252.222 62.8229 252.371 63.121 252.279 63.3968C252.187 63.6726 251.889 63.8216 251.613 63.7297L251.612 63.7291L251.603 63.7263C251.595 63.7238 251.583 63.7198 251.567 63.7145C251.533 63.7039 251.483 63.688 251.415 63.6673C251.279 63.626 251.075 63.5658 250.805 63.4919C250.266 63.344 249.466 63.141 248.428 62.9233C246.353 62.4879 243.33 61.9938 239.553 61.7639C232 61.3041 221.436 61.9012 209.411 66.1352C209.137 66.2318 208.836 66.0877 208.739 65.8135C208.643 65.5393 208.787 65.2387 209.061 65.1422C221.242 60.8535 231.95 60.2464 239.617 60.7131C243.451 60.9464 246.525 61.4483 248.644 61.893C249.704 62.1153 250.526 62.3234 251.084 62.4766C251.363 62.5532 251.577 62.6161 251.721 62.6602C251.794 62.6822 251.849 62.6996 251.887 62.7116C251.905 62.7176 251.92 62.7223 251.93 62.7255L251.942 62.7293L251.946 62.7308Z" fill="#5D3317"/>
<path fill-rule="evenodd" clip-rule="evenodd" d="M247.059 67.2183C247.06 67.2184 247.06 67.2185 246.911 67.7233L247.06 67.2185C247.339 67.3008 247.498 67.5936 247.416 67.8724C247.333 68.1512 247.04 68.3105 246.762 68.2281L246.761 68.2281L246.759 68.2274L246.75 68.2247C246.741 68.2221 246.728 68.2183 246.71 68.2132C246.674 68.2029 246.619 68.1875 246.547 68.1676C246.402 68.1279 246.186 68.07 245.903 67.9983C245.337 67.8549 244.504 67.6565 243.441 67.438C241.314 67.001 238.268 66.4841 234.601 66.1666C227.264 65.5311 217.462 65.6962 207.561 68.8795C207.285 68.9684 206.988 68.8162 206.899 68.5395C206.81 68.2627 206.962 67.9662 207.239 67.8772C217.316 64.6373 227.269 64.4748 234.692 65.1177C238.406 65.4393 241.493 65.963 243.652 66.4068C244.733 66.6287 245.581 66.8308 246.162 66.9777C246.452 67.0512 246.675 67.111 246.826 67.1526C246.902 67.1734 246.959 67.1896 246.999 67.2008C247.018 67.2064 247.033 67.2107 247.043 67.2136L247.055 67.2171L247.059 67.2183Z" fill="#5D3317"/>
<path fill-rule="evenodd" clip-rule="evenodd" d="M200.013 63.9877C200.292 63.9063 200.584 64.0666 200.666 64.3457L200.16 64.493C200.666 64.3457 200.666 64.3456 200.666 64.3457L200.666 64.346L200.666 64.3468L200.67 64.3599L200.681 64.3996C200.691 64.4342 200.706 64.4849 200.724 64.5496C200.76 64.6791 200.812 64.8649 200.873 65.0916C200.995 65.5445 201.156 66.1622 201.308 66.8193C201.46 67.4748 201.606 68.1776 201.696 68.7985C201.783 69.3916 201.834 69.996 201.743 70.4053L201.742 70.4059C201.574 71.1586 201.112 71.967 200.472 72.684C199.828 73.4061 198.977 74.0659 197.991 74.505C195.989 75.3962 193.454 75.3611 191.068 73.1828C190.854 72.9868 190.839 72.6538 191.035 72.4392C191.231 72.2245 191.564 72.2093 191.778 72.4054C193.833 74.2817 195.915 74.2765 197.562 73.5432C198.401 73.1701 199.133 72.6041 199.687 71.9831C200.245 71.3571 200.597 70.7053 200.715 70.1767C200.758 69.9807 200.743 69.5578 200.654 68.9504C200.57 68.3707 200.431 67.6997 200.283 67.0569C200.134 66.4158 199.977 65.811 199.857 65.3659C199.797 65.1436 199.746 64.9615 199.711 64.8354C199.693 64.7723 199.679 64.7232 199.669 64.6901L199.658 64.6525L199.655 64.6404C199.655 64.6404 199.655 64.6404 199.655 64.6404M200.013 63.9877C199.734 64.069 199.574 64.3613 199.655 64.6404L200.013 63.9877Z" fill="#5D3317"/>
<path fill-rule="evenodd" clip-rule="evenodd" d="M202.015 69.3312C202.015 69.3312 202.015 69.3312 202.015 69.3312L202.015 69.3311C202.015 69.3311 202.015 69.3312 202.015 69.3312ZM202.015 69.3307C201.907 69.0612 201.601 68.93 201.332 69.0376C201.062 69.1453 200.93 69.4515 201.038 69.7215L201.527 69.5265C201.038 69.7215 201.038 69.7217 201.038 69.722L201.038 69.7226L201.039 69.724L201.04 69.728L201.045 69.7404C201.05 69.7506 201.055 69.7646 201.063 69.7822C201.078 69.8173 201.1 69.8668 201.13 69.9282C201.188 70.0509 201.274 70.2223 201.391 70.4242C201.623 70.8264 201.979 71.3581 202.473 71.8681C203.468 72.8953 205.049 73.8521 207.273 73.4439L207.273 73.4439C209.244 73.0819 210.384 72.1605 211.027 71.2925C211.344 70.864 211.533 70.4573 211.644 70.1538C211.699 70.0019 211.735 69.875 211.758 69.7829C211.769 69.7368 211.777 69.6994 211.783 69.6717C211.786 69.6579 211.788 69.6465 211.789 69.6377L211.791 69.6265L211.792 69.6224L211.792 69.6207L211.792 69.6199C211.792 69.6196 211.792 69.6192 211.272 69.539L211.792 69.6192C211.837 69.3319 211.64 69.0631 211.352 69.0187C211.066 68.9746 210.798 69.1699 210.752 69.4555C210.752 69.4552 210.752 69.455 210.752 69.4552L210.752 69.4554L210.752 69.4558M210.752 69.4555C210.752 69.4563 210.752 69.457 210.752 69.4578L210.752 69.4575L210.752 69.4566L210.752 69.4558C210.752 69.4573 210.751 69.4613 210.75 69.4675C210.748 69.4799 210.743 69.5013 210.736 69.5308C210.721 69.5897 210.696 69.6799 210.655 69.7928C210.572 70.0189 210.427 70.3325 210.18 70.6664C209.694 71.3232 208.787 72.0955 207.083 72.4084C205.304 72.7349 204.059 71.9919 203.229 71.1356C202.811 70.7039 202.505 70.2479 202.303 69.8979C202.202 69.7237 202.128 69.5778 202.081 69.4773C202.057 69.4271 202.04 69.3884 202.029 69.3634C202.024 69.3508 202.02 69.3417 202.017 69.3363L202.015 69.3311C202.015 69.3309 202.015 69.3307 202.015 69.3307" fill="#5D3317"/>
<path d="M199.047 57.5766C202.853 56.7473 206.232 57.4471 206.601 59.1308C206.967 60.8194 200.16 64.493 200.16 64.493C200.16 64.493 193.192 63.818 192.828 62.1344C192.464 60.4508 195.246 58.4085 199.047 57.5766Z" fill="#CB542F"/>
<path d="M187.232 114.245C187.232 114.245 194.17 118.733 201.809 120.162C211.338 121.948 222.169 119.774 222.169 119.774L223.168 111.535C223.168 111.535 206.636 108.818 198.902 101.819C187.296 91.3164 183.909 100.82 183.909 100.82C183.909 100.82 179.451 107.754 187.232 114.245Z" fill="#EAC652"/>
<path d="M222.172 119.774C222.172 119.774 233.88 121.861 239.476 119.129C245.073 116.397 246.086 109.734 243.205 108.581C240.323 107.425 239.09 108.736 239.09 108.736C239.09 108.736 239.295 108.237 236.829 108.26C234.363 108.282 231.972 111.841 231.972 111.841L223.173 111.537C223.171 111.535 217.27 115.226 222.172 119.774Z" fill="#F4F3B6"/>
<path d="M206.417 104.467L239.424 94.5667L269.246 99.3735L240.759 109.722L206.417 104.467Z" fill="#D0D0F3"/>
<path d="M256.592 66.6723L286.185 60.7621C288.252 60.3487 289.913 62.4607 289.024 64.3735L271.142 102.813L240.244 114.04L256.592 66.6723Z" fill="#9B9BE5"/>
<path d="M206.638 108.818L237.703 114.466C239.447 114.783 241.177 113.856 241.88 112.232L260.073 70.179C260.666 68.8092 259.964 67.2252 258.552 66.747C257.272 66.3111 255.874 66.9487 255.364 68.199L238.515 109.44L207.861 104.193C206.304 103.926 204.882 105.122 204.875 106.701C204.872 107.739 205.615 108.633 206.638 108.818Z" fill="#B1B1EB"/>
<path d="M191.754 193.081C191.754 193.081 195.787 187.614 192.464 182.444C192.464 182.444 190.636 179.398 183.284 179.846C175.932 180.295 170.291 186.738 172.281 191.794C174.271 196.849 177.73 192.795 177.73 192.795C177.73 192.795 178.507 194.892 180.965 194.989C183.423 195.086 184.883 192.583 184.883 192.583C184.883 192.583 187.782 197.148 191.754 193.081Z" fill="#F4F3B6"/>
<path d="M171.449 135.768C171.449 135.768 167.885 146.841 169.145 156.928C170.405 167.015 177.411 183.054 177.411 183.054C177.411 183.054 186.935 185.575 190.736 181.161C190.736 181.161 189.092 166.975 189.74 161.932C190.387 156.888 189.956 155.399 190.213 149.795C190.467 144.189 178.325 121.318 171.449 135.768Z" fill="#EAC652"/>
<path d="M269.854 126.717C269.854 133.576 257.433 146.973 257.433 146.973C257.433 146.973 245.013 133.576 245.013 126.717C245.013 119.858 250.574 114.297 257.433 114.297C264.292 114.297 269.854 119.858 269.854 126.717Z" fill="#E679E0"/>
<path d="M257.526 134.129C261.77 134.129 265.211 130.688 265.211 126.443C265.211 122.199 261.77 118.758 257.526 118.758C253.281 118.758 249.84 122.199 249.84 126.443C249.84 130.688 253.281 134.129 257.526 134.129Z" fill="white"/>
<path fill-rule="evenodd" clip-rule="evenodd" d="M294 245.926H111.72V241.907H294V245.926Z" fill="#676768"/>
</svg>
