<svg width="360" height="260" viewBox="0 0 360 260" fill="none" xmlns="http://www.w3.org/2000/svg">
<path d="M142.936 256.923C152.145 256.923 159.61 249.503 159.61 240.351C159.61 231.198 152.145 223.779 142.936 223.779C133.727 223.779 126.262 231.198 126.262 240.351C126.262 249.503 133.727 256.923 142.936 256.923Z" stroke="#C68FBC" stroke-width="6" stroke-miterlimit="10"/>
<path fill-rule="evenodd" clip-rule="evenodd" d="M236.69 238.407L59 209.157L59.8886 203.825L237.579 233.075L236.69 238.407Z" fill="#676768"/>
<path d="M174.03 178.821C174.03 178.821 184.739 193.263 198.102 194.82C211.465 196.375 223.749 186.385 223.749 186.385L219.641 177.153C219.641 177.153 205.007 178.525 202.927 177.932C200.844 177.339 191.376 168.823 191.376 168.823L174.03 178.821Z" fill="#D18163"/>
<path d="M130.829 113.006C130.829 113.006 152.012 84.3265 155.988 82.4827C170.713 75.6626 188.527 74.1152 188.527 74.1152L186.561 85.5599C186.561 85.5599 173.774 94.352 171.863 95.4095C169.955 96.4696 162.052 115.403 162.052 115.403L130.829 113.006Z" fill="#D18163"/>
<path d="M183.983 87.4918C191.983 87.5194 194.394 77.9386 194.48 72.6658C194.495 71.7866 194.414 70.8547 193.815 70.1362C193.216 69.4178 191.934 69.0385 191.095 69.5585C191.689 68.3276 190.686 66.7551 189.149 66.4637C187.61 66.1748 185.927 67.2123 185.75 68.5311C184.913 66.5566 181.405 66.328 179.459 67.6318C177.512 68.9355 176.769 71.1084 176.188 73.1456C174.543 78.9183 174.472 87.4566 183.983 87.4918Z" fill="#EED7A9"/>
<path d="M188.606 77.4763C188.249 77.1974 187.817 76.999 187.332 76.9086C185.616 76.5895 182.825 76.4011 181.349 78.78C180.262 80.5309 181.046 82.2039 182.234 83.0052C183.384 83.7815 185.037 84.1105 186.763 83.2765C190.271 81.5859 190.208 78.7298 188.606 77.4763Z" fill="#CB542F"/>
<path d="M182.001 75.1929C182.881 75.2959 184.102 74.6352 184.703 73.128C185.626 70.8195 183.083 69.6363 181.534 72.3141C180.508 74.0901 181.059 75.0824 182.001 75.1929Z" fill="#CB542F"/>
<path d="M186.89 75.0045C187.769 75.1075 188.99 74.4469 189.591 72.9397C190.514 70.6311 187.971 69.448 186.422 72.1258C185.393 73.8993 185.947 74.8915 186.89 75.0045Z" fill="#CB542F"/>
<path d="M190.8 76.1274C191.679 76.2304 192.9 75.5697 193.502 74.0625C194.424 71.754 191.882 70.5708 190.332 73.2486C189.303 75.0221 189.854 76.0169 190.8 76.1274Z" fill="#CB542F"/>
<path d="M184.617 21.5488C184.519 21.1921 184.423 20.7349 184.322 20.1923C184.281 19.911 184.228 19.6196 184.188 19.2981C184.145 18.979 184.135 18.6148 184.104 18.2455C184.064 17.502 184.102 16.6403 184.319 15.6858C184.542 14.7312 184.938 13.6812 185.712 12.5809C186.761 11.0888 188.148 9.97595 189.905 9.4208C191.654 8.85559 193.782 8.84554 196.027 9.58408C198.261 10.3126 200.606 11.7947 202.563 13.9248C203.556 14.9824 204.421 16.1982 205.194 17.507C205.955 18.8208 206.574 20.2325 207.069 21.697C207.557 23.1615 207.893 24.6763 208.111 26.2036C208.323 27.7309 208.384 29.2657 208.343 30.783C208.3 32.3028 208.113 33.7949 207.845 35.2519C207.572 36.7088 207.178 38.1181 206.723 39.4721C206.245 40.821 205.707 42.1172 205.088 43.3356C204.941 43.642 204.774 43.9384 204.615 44.2349C204.451 44.5313 204.297 44.8202 204.125 45.1115C203.766 45.6918 203.43 46.2621 203.053 46.8072C201.569 48.9976 199.879 50.8314 198.309 52.2457C198.309 52.2457 198.155 52.3939 197.864 52.6752C197.573 52.9616 197.129 53.356 196.547 53.8509C195.387 54.8306 193.625 56.1544 191.409 57.4104C191.131 57.5737 190.85 57.7294 190.562 57.8776C190.274 58.0284 189.978 58.1841 189.677 58.3424C189.081 58.6312 188.452 58.9478 187.817 59.2216C187.175 59.5155 186.526 59.7792 185.856 60.0555C185.196 60.3118 184.509 60.5806 183.829 60.8192C182.461 61.3116 181.061 61.7662 179.671 62.1908C178.283 62.6153 176.901 63.0197 175.556 63.4191C172.864 64.2155 170.317 65.0118 168.196 65.9286C167.673 66.1397 167.132 66.4336 166.594 66.6873L165.785 67.0766L165.009 67.5188C163.957 68.0764 162.982 68.7371 162.014 69.3827C160.103 70.7065 158.417 72.2338 156.941 73.7762C156.756 73.9696 156.575 74.163 156.395 74.354C156.307 74.4494 156.211 74.5398 156.127 74.6403C156.044 74.7408 155.96 74.8413 155.877 74.9418C155.543 75.3387 155.217 75.728 154.896 76.1073C154.598 76.5093 154.305 76.9011 154.022 77.2805C153.883 77.4739 153.731 77.6522 153.605 77.8482C153.476 78.0441 153.349 78.235 153.226 78.4234C153.107 78.6018 152.978 78.7927 152.839 78.9987C152.7 79.2072 152.543 79.4182 152.404 79.6669C152.111 80.1542 151.782 80.6968 151.426 81.2871C151.262 81.5936 151.087 81.9101 150.91 82.2392C150.819 82.4025 150.728 82.5708 150.635 82.7391C150.589 82.8245 150.541 82.9099 150.493 82.9953C150.45 83.0857 150.407 83.1737 150.364 83.2641C150.19 83.6258 150.008 83.9976 149.823 84.3794C149.732 84.5728 149.629 84.7587 149.543 84.9622C149.457 85.1632 149.371 85.3692 149.283 85.5751C149.106 85.9871 148.924 86.4091 148.739 86.8362C148.575 87.2758 148.406 87.7254 148.236 88.1801C148.15 88.4087 148.059 88.6348 147.978 88.8684C147.903 89.1045 147.824 89.3432 147.748 89.5818C147.597 90.0616 147.425 90.5414 147.281 91.0363C146.697 93.0182 146.209 95.1283 145.822 97.2736C145.476 99.4289 145.211 101.612 145.094 103.74C144.988 105.867 144.955 107.927 145.059 109.829C145.218 113.632 145.734 116.769 146.123 118.598C146.394 119.907 146.598 121.502 146.437 123.049C146.368 123.818 146.164 124.594 145.863 125.305C145.557 126.019 145.102 126.687 144.455 127.265C143.308 128.282 141.066 129.166 138.803 129.432C137.671 129.566 136.534 129.54 135.528 129.307C134.524 129.071 133.632 128.629 133.071 127.93C132.687 127.466 132.411 126.918 132.189 126.34C131.972 125.76 131.843 125.144 131.701 124.542C131.226 122.504 130.771 120.058 130.362 117.304C129.957 114.549 129.679 111.474 129.56 108.191C129.449 104.905 129.527 101.406 129.881 97.8087C130.24 94.214 130.872 90.5263 131.822 86.8889C132.77 83.2515 134.039 79.6619 135.611 76.2857C137.178 72.907 139.051 69.7469 141.104 66.9385C141.359 66.5868 141.614 66.2376 141.864 65.891C142.135 65.5569 142.403 65.2253 142.668 64.8987C143.204 64.2456 143.712 63.5874 144.276 62.9971C144.829 62.3968 145.357 61.7964 145.903 61.2362C146.464 60.6886 147.013 60.156 147.546 59.6335C149.745 57.6189 151.851 55.9509 153.726 54.7225L154.729 54.0518C154.899 53.9413 155.063 53.8257 155.235 53.7202L155.753 53.4138L157.833 52.1904C159.261 51.4594 160.664 50.6933 162.17 50.0452C165.133 48.7439 168.001 47.7894 170.691 46.88C173.377 45.9757 175.897 45.1342 178.109 44.1821C180.323 43.2376 182.216 42.1876 183.657 41.017C185.11 39.8464 186.109 38.5828 186.874 37.0957C186.971 36.9098 187.072 36.7289 187.15 36.528C187.233 36.327 187.327 36.1462 187.408 35.9377C187.486 35.7267 187.575 35.5207 187.648 35.3097C187.716 35.0936 187.794 34.8851 187.86 34.6716C188.123 33.815 188.313 32.9358 188.419 32.0591C188.634 30.3107 188.517 28.5749 188.11 27.1104C187.709 25.6384 187.024 24.4678 186.245 23.7066C185.803 23.2771 185.451 22.9706 185.189 22.639C185.115 22.5637 185.055 22.4808 185.002 22.3929C184.948 22.3049 184.885 22.2296 184.84 22.1366C184.759 21.9432 184.663 21.7724 184.617 21.5488Z" fill="#D18163"/>
<path d="M184.617 21.5488C184.66 21.7724 184.759 21.9432 184.842 22.1341C184.885 22.227 184.948 22.3024 185.004 22.3903C185.057 22.4782 185.118 22.5611 185.191 22.6365C185.457 22.9656 185.808 23.272 186.248 23.7041C186.867 24.3371 187.458 25.2013 187.853 26.3166C188.052 26.8692 188.229 27.4671 188.335 28.1077C188.444 28.7482 188.507 29.4189 188.522 30.1123C188.535 31.4939 188.353 32.9483 187.949 34.3475C187.858 34.7017 187.731 35.0408 187.618 35.39C187.481 35.7266 187.357 36.0783 187.211 36.3822C186.938 37.0278 186.609 37.6081 186.245 38.1708C186.402 38.216 186.601 38.2386 186.826 38.1859C187.749 38.0201 188.639 37.6483 189.511 37.1308C190.375 36.5832 191.174 35.8849 191.874 35.0685C193.277 33.4382 194.252 31.313 194.548 29.0698C194.993 30.6574 195.271 32.3655 195.337 34.134C195.382 35.0207 195.354 35.9175 195.301 36.8319C195.225 37.7387 195.129 38.6682 194.947 39.5876C194.922 39.7308 194.902 39.884 194.894 40.0397C194.882 40.1905 194.879 40.3437 194.899 40.4819C194.937 40.7607 195.051 40.9918 195.304 41.0647C195.549 41.135 195.829 40.9993 196.08 40.8536C197 40.2985 197.862 39.5248 198.542 38.5778C198.895 38.1105 199.184 37.593 199.451 37.0605C199.694 36.5179 199.919 35.9552 200.063 35.3699C200.109 35.9853 200 36.6033 199.879 37.2288C199.727 37.8493 199.573 38.4798 199.424 39.0902C199.358 39.4017 199.307 39.7257 199.267 40.0448C199.232 40.3638 199.224 40.6853 199.242 40.9893C199.269 41.5897 199.426 42.1348 199.795 42.4814C200.179 42.8432 200.73 42.916 201.289 42.8758C201.777 42.8381 202.272 42.7301 202.76 42.5493C203.24 42.3659 203.72 42.1096 204.198 41.7931C204.668 41.4741 205.118 41.0847 205.571 40.6451C206 40.198 206.435 39.6981 206.827 39.1455C208.176 35.0936 208.743 30.479 208.073 25.9247C207.734 23.6513 207.09 21.4056 206.134 19.3307C205.184 17.2557 203.92 15.3541 202.447 13.7917C200.976 12.2267 199.3 11.0083 197.614 10.212C195.926 9.41322 194.245 9.02637 192.718 9.00125C192.336 8.99371 191.957 9.02134 191.596 9.05651C191.232 9.0967 190.886 9.14192 190.539 9.23235C190.196 9.31525 189.867 9.41573 189.549 9.53128C189.389 9.58906 189.235 9.65186 189.084 9.71717C188.929 9.78751 188.78 9.86287 188.634 9.94325C188.045 10.2598 187.514 10.6265 187.029 11.0686C186.541 11.5158 186.104 12.0182 185.714 12.5733C184.941 13.6736 184.544 14.7236 184.322 15.6782C184.104 16.6328 184.064 17.4944 184.107 18.2379C184.137 18.6047 184.147 18.9689 184.19 19.2905C184.231 19.612 184.284 19.9034 184.324 20.1848C184.423 20.7349 184.519 21.1921 184.617 21.5488Z" fill="#EED7A9"/>
<path d="M172.955 47.6813C172.387 49.0629 172.015 50.4721 171.856 51.8738C171.697 53.273 171.747 54.6647 171.997 56.0137C172.498 58.7116 173.746 61.2512 175.635 63.3965C178.566 62.5298 181.673 61.633 184.625 60.5303C183.321 59.1185 182.355 57.8625 182.145 57.5259C181.172 55.9383 180.374 54.3306 179.648 52.7078C178.521 50.1782 177.566 47.6084 176.512 44.9507C176.496 44.9156 176.481 44.8779 176.466 44.8427C175.693 45.1366 174.904 45.4255 174.08 45.7144C173.615 46.2846 173.238 46.9855 172.955 47.6813Z" fill="#CB542F"/>
<path d="M158.212 70.7592C157.906 70.1664 157.424 69.659 156.961 69.1566C155.293 67.3353 154.007 65.3885 153.084 63.2608C152.621 62.1983 152.247 61.0905 151.954 59.94C151.663 58.7945 151.479 57.6389 151.353 56.4307C148.545 58.5659 145.403 61.4673 142.496 65.1097C144.154 67.3655 146.32 69.1892 148.719 70.5055C151.128 71.8318 153.711 72.6131 156.355 72.9572C156.852 73.02 157.366 73.02 157.795 72.8969C158.01 72.6935 158.227 72.49 158.447 72.284C158.591 71.8469 158.465 71.2516 158.212 70.7592Z" fill="#CB542F"/>
<path d="M132.194 85.5551C131.6 87.6099 131.14 89.6924 130.743 91.7648L130.748 91.7723C131.724 92.9881 132.859 93.9703 134.044 94.7289C135.237 95.4876 136.508 96.0226 137.838 96.3567C139.162 96.6908 140.525 96.824 141.892 96.7813C143.267 96.7386 144.665 96.5225 146.037 96.1558L146.199 95.3017C146.249 95.0178 146.328 94.7415 146.391 94.4602C146.527 93.9025 146.644 93.3423 146.788 92.7972C146.939 92.2546 147.089 91.717 147.238 91.182C147.306 90.9132 147.394 90.6545 147.48 90.3957C147.564 90.137 147.65 89.8808 147.733 89.6245C143.76 89.9863 139.693 90.0717 135.705 88.6423C135.333 88.5092 134.782 88.0319 134.155 87.4366C133.526 86.8462 132.861 86.1378 132.194 85.5551Z" fill="#CB542F"/>
<path d="M121.035 142.013C121.035 142.013 104.103 112.167 104.796 100.898C105.491 89.6295 112.747 68.2899 112.747 68.2899L126.348 77.5668L125.668 96.4873C125.668 96.4873 133.336 109.113 136.923 115.408C140.512 121.703 121.035 142.013 121.035 142.013Z" fill="#D18163"/>
<path d="M109.381 116.644C109.381 116.644 115.004 109.459 119.218 111.424C123.431 113.388 116.473 112.685 113.738 127.347L109.381 116.644Z" fill="#CB542F"/>
<path d="M104.796 100.898C104.796 100.898 111.155 98.6074 113.073 99.8735C114.992 101.137 109.226 103.172 106.231 109.547C106.231 109.547 104.187 105.945 104.796 100.898Z" fill="#CB542F"/>
<path d="M130.753 68.8651C130.43 65.1775 128.163 59.0808 124.462 57.4857C123.803 57.2018 123.06 57.0335 122.362 57.2119C121.667 57.3902 121.045 57.9906 121.025 58.704C119.837 57.4329 118.151 56.4658 116.417 56.6592C114.683 56.8501 113.101 58.5533 113.508 60.2388C112.884 58.8698 110.771 58.812 109.618 59.7892C108.466 60.7664 108.056 62.3364 107.778 63.816C106.618 70.0131 111.587 78.255 117.805 80.2797C122.167 81.699 127.538 79.9105 129.661 75.8661C130.774 73.7435 130.963 71.249 130.753 68.8651Z" fill="#EED7A9"/>
<path d="M124.189 68.3351C123.56 68.2573 122.913 68.2824 122.296 68.4231C120.115 68.9204 116.842 70.0056 117.165 72.6834C117.403 74.6529 119.665 75.7205 121.657 75.8712C123.585 76.0144 125.703 75.5547 126.942 74.0776C129.454 71.0732 127.015 68.6818 124.189 68.3351Z" fill="#CB542F"/>
<path d="M114.921 69.3499C115.99 69.046 116.804 67.9382 116.228 66.3933C115.343 64.0244 111.524 64.1576 112.012 67.1193C112.335 69.0837 113.773 69.679 114.921 69.3499Z" fill="#CB542F"/>
<path d="M120.221 67.0037C121.29 66.6997 122.104 65.5919 121.528 64.047C120.643 61.6782 116.824 61.8113 117.312 64.773C117.635 66.7374 119.074 67.3327 120.221 67.0037Z" fill="#CB542F"/>
<path d="M125.519 66.2099C126.588 65.9059 127.402 64.7981 126.825 63.2532C125.941 60.8844 122.122 61.0175 122.61 63.9792C122.933 65.9411 124.371 66.5364 125.519 66.2099Z" fill="#CB542F"/>
<path d="M169.905 134.534C168.492 124.213 166.619 112.986 158.832 106.013C153.218 100.986 145.168 99.0798 137.694 100.173C134.019 100.71 130.405 101.946 127.384 104.091C123.881 106.581 121.308 110.195 119.465 114.064C113.983 125.592 114.999 139.147 119.713 150.745C123.838 160.891 129.025 170.71 139.233 175.774C146.687 179.472 155.167 181.065 163.467 180.778C172.116 180.479 180.973 178.136 187.557 172.556C196.702 164.804 201.135 146.68 189.738 138.908C184.165 134.876 176.454 135.542 169.905 134.534Z" fill="#D18163"/>
<path d="M197.884 166.093C200.392 160.916 201.534 154.965 199.022 150.734C194.563 143.226 181.622 144.321 176.709 150.684C174.591 153.427 174.012 156.801 171.851 159.431C169.556 162.224 166.169 164.362 162.883 165.801C156.114 168.763 148.067 169.082 141.273 166.023C139.135 165.06 137.1 163.802 134.812 163.279C135.593 170.602 140.995 176.915 147.632 180.188C154.269 183.461 161.968 184.034 169.341 183.313C177.196 182.544 185.148 180.241 191.174 175.171C193.547 173.172 196.072 169.833 197.884 166.093Z" fill="#EED7A9"/>
<path d="M125.574 136.353C125.524 136.825 125.501 137.303 125.506 137.782C127.063 137.855 128.378 136.727 129.558 135.72C137.07 129.314 146.419 125.057 156.208 123.587C157.841 123.341 159.994 122.55 159.726 120.929C159.544 119.834 156.342 117.111 155.311 116.531C152.75 115.099 148.757 116.194 146.171 117.001C138.06 119.53 126.565 127.029 125.574 136.353Z" fill="#CB542F"/>
<path d="M125.736 118.52C125.585 118.97 125.458 119.43 125.357 119.902C126.861 120.309 128.39 119.493 129.765 118.764C138.5 114.132 148.555 111.997 158.43 112.675C160.078 112.788 162.352 112.479 162.446 110.841C162.509 109.733 159.979 106.382 159.097 105.596C156.911 103.644 152.773 103.853 150.074 104.081C141.601 104.797 128.741 109.633 125.736 118.52Z" fill="#CB542F"/>
<path d="M133.036 149.883C132.985 150.355 132.962 150.832 132.967 151.312C134.524 151.385 135.839 150.257 137.019 149.25C144.531 142.844 153.88 138.586 163.669 137.117C165.302 136.871 167.456 136.079 167.188 134.459C167.006 133.364 163.803 130.641 162.772 130.063C160.212 128.631 156.218 129.726 153.633 130.533C145.522 133.062 134.027 140.561 133.036 149.883Z" fill="#CB542F"/>
<path d="M134.653 160.539C134.653 160.539 130.23 175.013 130.23 184.807C130.23 194.599 135.275 209.553 135.275 209.553L148.428 209.938L149.455 184.81L157.414 161.003C158.581 154.158 153.39 147.866 146.406 147.662C139.337 147.454 133.759 153.57 134.653 160.539Z" fill="#D18163"/>
<path d="M136.079 219.561C136.079 219.561 131.721 214.404 135.275 209.553C135.275 209.553 137.229 206.695 145.137 207.144C153.043 207.594 159.135 213.675 157.014 218.423C154.894 223.171 151.158 219.345 151.158 219.345C151.158 219.345 150.329 221.314 147.688 221.397C145.046 221.48 143.464 219.121 143.464 219.121C143.464 219.121 140.365 223.402 136.079 219.561Z" fill="#EED7A9"/>
<path d="M132.97 166.902C132.97 166.902 142.387 169.085 146.565 167.555C150.743 166.025 135.7 158.416 135.7 158.416L132.97 166.902Z" fill="#CB542F"/>
<path d="M130.359 183.411C130.359 183.411 141.318 184.204 142.638 181.414C143.957 178.625 131.413 175.701 131.413 175.701L130.359 183.411Z" fill="#CB542F"/>
<path d="M170.511 98.0976C170.511 98.0976 159.183 75.1805 150.748 75.2056C142.314 75.2282 135.715 97.4822 136.455 112.911C137.196 128.342 142.582 153.121 161.655 163.709C180.727 174.297 199.873 176.274 218.868 162.388C237.862 148.501 245.328 122.557 246.615 110.394C247.901 98.2308 245.394 95.5756 238.954 96.0177C232.514 96.4598 221.673 102.381 215.65 108.329C215.65 108.332 199.391 92.0813 170.511 98.0976Z" fill="#DDA684"/>
<path d="M202.335 114.906C204.704 116.262 207.757 109.181 209.44 103.777C206.784 102.197 203.298 100.487 199.032 99.1526C199.158 103.629 199.729 113.413 202.335 114.906Z" fill="#CB542F"/>
<path d="M188.682 118.307C192.518 120.497 196.173 106.219 197.788 98.7809C194.495 97.8414 190.769 97.1355 186.629 96.8743C185.906 102.443 184.607 115.981 188.682 118.307Z" fill="#CB542F"/>
<path d="M177.262 110.208C179.883 110.851 183.584 101.969 185.196 96.8014C182.252 96.6908 179.11 96.8064 175.774 97.2209C175.369 101.31 174.853 109.618 177.262 110.208Z" fill="#CB542F"/>
<path d="M183.182 137.504C183.182 137.504 180.111 138.124 176.436 139.44C172.761 140.757 168.785 140.191 165.59 140.357C162.395 140.52 157.737 142.241 160.346 148.991C162.954 155.741 174.414 162.101 183.697 162.97C192.981 163.84 202.479 159.665 204.832 154.696C207.186 149.727 198.721 146.901 196.105 145.685C193.489 144.469 190.4 140.49 188.277 139.071C186.152 137.652 183.182 137.504 183.182 137.504Z" fill="#EED7A9"/>
<path d="M184.688 140.016L183.306 146.456" stroke="#3A1C16" stroke-width="2.1094" stroke-miterlimit="10"/>
<path d="M194.788 136.373C194.275 139.106 186.791 141.967 184.397 141.518C182.004 141.068 176.148 135.753 176.658 133.02C177.171 130.286 181.642 128.819 186.65 129.746C191.659 130.671 195.301 133.64 194.788 136.373Z" fill="#CB542F"/>
<path d="M173.109 145.761C173.109 145.761 179.527 148.28 183.695 145.143C183.695 145.143 186.968 149.333 192.71 150.222C192.71 150.222 190.514 159.037 180.768 156.356C171.019 153.673 173.109 145.761 173.109 145.761Z" fill="#3A1C16"/>
<path d="M172.973 146.592C172.746 148.69 172.948 154.206 180.768 156.356C181.496 156.557 182.178 156.685 182.823 156.766C181.986 149.888 176.082 147.418 172.973 146.592Z" fill="#CB542F"/>
<path d="M165.36 98.3965C165.36 98.3965 159.312 82.6613 151.487 82.5306C143.661 82.4 141.806 101.755 142.938 107.49C142.938 107.49 152.583 100.677 165.36 98.3965Z" fill="#EED7A9"/>
<path d="M219.987 110.391C219.987 110.391 234.569 98.9341 239.925 102.366C245.283 105.797 241.343 121.047 236.502 129.038C236.5 129.036 231.652 119.199 219.987 110.391Z" fill="#EED7A9"/>
<path d="M159.698 105.104C159.698 105.104 165.277 104.44 166.626 104.458C167.976 104.476 168.767 101.293 165.719 101.112C162.668 100.931 157.863 104.616 159.698 105.104Z" fill="#3A1C16"/>
<path d="M223.2 118.616C223.2 118.616 222.191 114.207 218.901 112.981C215.61 111.755 214.975 115.214 216.133 115.694C219.186 116.955 222.74 119.716 223.2 118.616Z" fill="#3A1C16"/>
<path fill-rule="evenodd" clip-rule="evenodd" d="M157.955 126.235L157.955 126.234L157.958 126.222C157.961 126.211 157.966 126.192 157.972 126.167C157.986 126.116 158.007 126.039 158.036 125.939C158.095 125.739 158.188 125.451 158.321 125.106C158.587 124.412 159.007 123.507 159.623 122.638C160.844 120.913 162.776 119.39 165.847 119.822C169.004 120.266 170.538 121.966 171.31 123.726C172.106 125.538 172.099 127.446 172.046 128.172C172.015 128.61 172.346 128.991 172.787 129.022C173.227 129.053 173.61 128.724 173.642 128.286C173.703 127.44 173.719 125.238 172.776 123.09C171.81 120.89 169.845 118.779 166.071 118.248C162.212 117.705 159.752 119.693 158.315 121.723C157.601 122.731 157.124 123.764 156.827 124.539C156.677 124.928 156.571 125.256 156.502 125.49C156.467 125.607 156.442 125.701 156.424 125.767C156.416 125.8 156.409 125.826 156.405 125.845C156.402 125.854 156.401 125.861 156.399 125.867L156.398 125.874L156.397 125.876L156.397 125.877C156.397 125.878 156.397 125.878 157.176 126.056L156.397 125.878C156.297 126.306 156.566 126.732 156.996 126.831C157.427 126.929 157.855 126.663 157.955 126.236C157.955 126.236 157.955 126.236 157.955 126.236C157.955 126.235 157.955 126.235 157.955 126.235C157.955 126.235 157.955 126.235 157.955 126.235Z" fill="#3A1C16"/>
<path fill-rule="evenodd" clip-rule="evenodd" d="M201.554 136.649L201.554 136.649L201.557 136.637C201.56 136.625 201.564 136.607 201.571 136.581C201.584 136.531 201.605 136.453 201.635 136.354C201.694 136.154 201.787 135.865 201.919 135.52C202.186 134.827 202.606 133.921 203.221 133.052C204.442 131.328 206.375 129.805 209.446 130.237C212.602 130.681 214.136 132.381 214.909 134.14C215.704 135.953 215.697 137.861 215.645 138.587C215.613 139.025 215.945 139.405 216.385 139.437C216.826 139.468 217.209 139.139 217.24 138.701C217.301 137.854 217.317 135.653 216.375 133.505C215.409 131.304 213.443 129.194 209.67 128.663C205.81 128.12 203.351 130.108 201.913 132.137C201.199 133.146 200.723 134.178 200.425 134.953C200.276 135.343 200.17 135.671 200.1 135.905C200.066 136.022 200.04 136.115 200.023 136.181C200.014 136.214 200.008 136.24 200.003 136.259C200.001 136.268 199.999 136.276 199.998 136.282L199.996 136.289L199.996 136.291L199.995 136.292C199.995 136.292 199.995 136.293 200.774 136.471L199.995 136.293C199.896 136.72 200.165 137.147 200.595 137.245C201.025 137.344 201.454 137.078 201.554 136.65C201.554 136.65 201.554 136.65 201.554 136.65C201.554 136.65 201.554 136.65 201.554 136.65C201.554 136.65 201.554 136.649 201.554 136.649Z" fill="#3A1C16"/>
<path fill-rule="evenodd" clip-rule="evenodd" d="M134.593 132.937L134.454 132.425C134.17 132.501 134.001 132.792 134.078 133.074C134.154 133.357 134.446 133.524 134.731 133.449L134.731 133.449L134.731 133.448L134.732 133.448L134.741 133.446C134.749 133.444 134.762 133.441 134.779 133.436C134.814 133.427 134.868 133.414 134.94 133.398C135.085 133.364 135.302 133.317 135.59 133.261C136.167 133.149 137.024 133.006 138.139 132.879C140.369 132.627 143.626 132.444 147.716 132.73C155.894 133.302 167.409 135.747 180.701 143.26C180.957 143.404 181.283 143.315 181.428 143.061C181.574 142.807 181.485 142.483 181.229 142.338C167.787 134.741 156.116 132.255 147.791 131.673C143.63 131.382 140.307 131.567 138.018 131.826C136.874 131.956 135.989 132.104 135.387 132.221C135.086 132.279 134.855 132.329 134.699 132.365C134.621 132.384 134.561 132.398 134.52 132.408C134.5 132.413 134.484 132.417 134.473 132.42L134.46 132.424L134.456 132.425L134.455 132.425C134.454 132.425 134.454 132.425 134.593 132.937Z" fill="#3A1C16"/>
<path fill-rule="evenodd" clip-rule="evenodd" d="M132.791 138.056C132.505 138.126 132.216 137.952 132.146 137.667C132.076 137.383 132.251 137.096 132.537 137.027L132.664 137.541C132.537 137.027 132.537 137.027 132.538 137.027L132.539 137.026L132.542 137.025L132.556 137.022C132.567 137.019 132.584 137.016 132.606 137.01C132.649 137 132.714 136.986 132.798 136.967C132.966 136.93 133.215 136.876 133.537 136.813C134.183 136.685 135.126 136.513 136.323 136.338C138.716 135.989 142.127 135.623 146.206 135.56C154.359 135.433 165.203 136.513 175.923 141.354C176.191 141.476 176.31 141.79 176.188 142.056C176.066 142.323 175.75 142.44 175.482 142.319C164.951 137.563 154.276 136.494 146.222 136.619C142.198 136.682 138.834 137.043 136.478 137.387C135.3 137.559 134.375 137.727 133.746 137.852C133.431 137.914 133.191 137.966 133.03 138.001C132.949 138.019 132.889 138.033 132.849 138.042C132.829 138.047 132.814 138.051 132.804 138.053L132.793 138.055L132.791 138.056L132.791 138.056Z" fill="#3A1C16"/>
<path fill-rule="evenodd" clip-rule="evenodd" d="M133.882 144.527L133.636 144.057C133.375 144.193 133.273 144.513 133.41 144.772C133.546 145.031 133.867 145.132 134.128 144.997L134.129 144.997L134.129 144.997L134.13 144.996L134.136 144.993C134.143 144.99 134.153 144.985 134.167 144.978C134.195 144.964 134.238 144.943 134.296 144.915C134.413 144.86 134.59 144.779 134.827 144.677C135.302 144.474 136.015 144.191 136.959 143.875C138.847 143.242 141.66 142.479 145.338 141.967C152.691 140.943 163.508 140.92 177.309 144.963C177.591 145.045 177.888 144.885 177.971 144.604C178.054 144.323 177.893 144.029 177.61 143.946C163.658 139.859 152.687 139.873 145.19 140.918C141.442 141.44 138.564 142.219 136.618 142.87C135.645 143.196 134.905 143.49 134.406 143.704C134.156 143.811 133.966 143.898 133.838 143.959C133.773 143.989 133.724 144.013 133.69 144.03C133.674 144.038 133.661 144.045 133.652 144.049L133.641 144.055L133.638 144.056L133.636 144.057C133.636 144.057 133.636 144.057 133.882 144.527Z" fill="#3A1C16"/>
<path fill-rule="evenodd" clip-rule="evenodd" d="M189.085 147.496C189.118 147.205 189.383 146.997 189.675 147.03L189.614 147.557C189.675 147.03 189.676 147.03 189.676 147.03L189.681 147.031L189.695 147.033C189.707 147.034 189.726 147.036 189.749 147.039C189.796 147.045 189.866 147.054 189.957 147.066C190.139 147.09 190.406 147.128 190.751 147.181C191.44 147.287 192.441 147.456 193.688 147.707C196.182 148.208 199.667 149.038 203.636 150.352C211.568 152.979 221.472 157.554 229.263 165.348C229.47 165.555 229.469 165.891 229.26 166.097C229.051 166.303 228.714 166.302 228.506 166.095C220.879 158.464 211.148 153.957 203.299 151.358C199.378 150.059 195.936 149.24 193.476 148.745C192.246 148.498 191.263 148.332 190.588 148.228C190.25 148.176 189.99 148.14 189.815 148.116C189.727 148.105 189.661 148.096 189.617 148.091C189.595 148.088 189.579 148.086 189.568 148.085L189.556 148.084L189.553 148.083" fill="#3A1C16"/>
<path fill-rule="evenodd" clip-rule="evenodd" d="M191.548 145.907C191.552 145.614 191.794 145.38 192.088 145.384L192.081 145.914C192.088 145.384 192.089 145.384 192.089 145.384L192.09 145.384L192.094 145.384L192.107 145.384C192.119 145.384 192.136 145.385 192.158 145.385C192.203 145.386 192.268 145.388 192.354 145.391C192.526 145.397 192.778 145.407 193.105 145.426C193.759 145.463 194.711 145.532 195.91 145.659C198.307 145.915 201.695 146.407 205.666 147.352C213.603 149.242 223.89 152.949 233.244 160.222C233.476 160.402 233.517 160.735 233.336 160.966C233.154 161.196 232.819 161.237 232.587 161.057C223.39 153.906 213.259 150.25 205.417 148.383C201.498 147.45 198.156 146.965 195.796 146.713C194.616 146.587 193.682 146.52 193.045 146.484C192.726 146.466 192.482 146.456 192.318 146.45C192.236 146.447 192.174 146.446 192.133 146.445C192.112 146.444 192.097 146.444 192.087 146.444L192.077 146.444L192.074 146.444" fill="#3A1C16"/>
<path fill-rule="evenodd" clip-rule="evenodd" d="M187.646 145.265L187.648 145.265L187.657 145.263C187.665 145.261 187.678 145.258 187.695 145.255C187.73 145.248 187.784 145.237 187.856 145.223C188.001 145.195 188.219 145.156 188.507 145.111C189.082 145.022 189.939 144.909 191.05 144.82C193.272 144.642 196.512 144.556 200.566 144.932C208.672 145.683 220.036 148.281 233.017 155.681C233.272 155.826 233.598 155.738 233.745 155.485C233.891 155.231 233.803 154.907 233.547 154.761C220.422 147.28 208.909 144.641 200.665 143.877C196.544 143.495 193.241 143.581 190.964 143.764C189.825 143.855 188.942 143.971 188.342 144.064C188.041 144.111 187.812 144.152 187.656 144.182C187.577 144.197 187.518 144.209 187.477 144.218C187.457 144.222 187.441 144.225 187.43 144.227L187.417 144.23L187.413 144.231L187.412 144.231C187.412 144.231 187.412 144.231 187.529 144.748L187.412 144.231C187.124 144.296 186.944 144.58 187.009 144.865C187.074 145.15 187.359 145.33 187.646 145.265L187.646 145.265L187.646 145.265Z" fill="#3A1C16"/>
<path d="M223.266 173.84C223.266 173.84 216.649 175.742 216.884 181.838C216.884 181.838 216.907 185.353 223.837 189.422C230.77 193.491 239.376 191.786 240.291 186.581C241.206 181.379 235.871 182.506 235.871 182.506C235.871 182.506 236.293 180.379 234.109 178.821C231.925 177.264 229.246 178.367 229.246 178.367C229.246 178.367 229.074 173.008 223.266 173.84Z" fill="#EED7A9"/>
<path d="M209.443 169.76L244.414 169.567L272.077 182.697L241.378 184.611L209.443 169.76Z" fill="#D0D0F3"/>
<path d="M269.11 147.454L299.615 150.149C301.745 150.337 302.759 152.854 301.346 154.452L272.939 186.566L239.642 188.646L269.11 147.454Z" fill="#9B9BE5"/>
<path d="M208.414 174.036L237.046 188.334C238.651 189.136 240.602 188.731 241.752 187.36L271.499 151.835C272.467 150.679 272.237 148.946 270.998 148.079C269.876 147.295 268.334 147.514 267.48 148.579L239.275 183.7L210.929 169.909C209.491 169.208 207.762 169.959 207.305 171.486C207.004 172.491 207.471 173.566 208.414 174.036Z" fill="#B1B1EB"/>
</svg>
