<svg width="114" height="235" viewBox="0 0 114 235" fill="none" xmlns="http://www.w3.org/2000/svg">
<path fill-rule="evenodd" clip-rule="evenodd" d="M-14.084 234.807C-36.5057 233.634 -53.4599 215.69 -73.6449 205.842C-90.9281 197.409 -111.486 195.003 -124.573 180.896C-137.755 166.688 -137.404 145.261 -145.981 127.871C-157.971 103.56 -191.926 84.4093 -185.103 58.1683C-178.461 32.627 -142.808 27.5361 -117.761 19.3445C-98.8266 13.1523 -78.7338 20.1535 -59.0743 16.9518C-40.5459 13.9343 -23.8369 -4.75995 -6.01518 1.14599C11.8062 7.05182 11.175 35.6794 27.1641 45.5303C53.2179 61.582 101.862 45.6117 112.677 74.2719C122.587 100.532 73.9356 114.574 62.9675 140.409C53.3398 163.086 69.5562 193.441 53.9842 212.519C38.6125 231.352 10.1675 236.076 -14.084 234.807Z" fill="#FFF1CB"/>
</svg>
