<svg width="608" height="680" viewBox="0 0 608 680" fill="none" xmlns="http://www.w3.org/2000/svg">
<path fill-rule="evenodd" clip-rule="evenodd" d="M236.556 679.442C171.534 676.048 122.366 624.125 63.8299 595.627C13.7086 571.225 -45.9106 564.263 -83.863 523.444C-122.089 482.332 -121.073 420.329 -145.945 370.01C-180.717 299.662 -279.186 244.248 -259.398 168.317C-240.138 94.41 -136.743 79.6788 -64.1059 55.9757C-9.19701 38.0577 49.0719 58.3165 106.085 49.052C159.817 40.3205 208.273 -13.7735 259.956 3.31605C311.638 20.4053 309.807 103.243 356.176 131.747C431.732 178.195 572.799 131.983 604.163 214.914C632.901 290.901 491.813 331.534 460.006 406.289C432.086 471.909 479.113 559.745 433.954 614.949C389.376 669.443 306.886 683.114 236.556 679.442Z" fill="#FFF1CB"/>
</svg>
