<svg width="211" height="680" viewBox="0 0 211 680" fill="none" xmlns="http://www.w3.org/2000/svg">
<path fill-rule="evenodd" clip-rule="evenodd" d="M-160.444 679.442C-225.466 676.048 -274.634 624.125 -333.17 595.627C-383.291 571.225 -442.911 564.263 -480.863 523.444C-519.089 482.332 -518.073 420.329 -542.945 370.01C-577.717 299.662 -676.186 244.248 -656.398 168.317C-637.138 94.41 -533.743 79.6788 -461.106 55.9757C-406.197 38.0577 -347.928 58.3165 -290.915 49.052C-237.183 40.3205 -188.727 -13.7735 -137.044 3.31605C-85.3619 20.4053 -87.1925 103.243 -40.824 131.747C34.7319 178.195 175.799 131.983 207.163 214.914C235.901 290.901 94.8132 331.534 63.0059 406.289C35.0855 471.909 82.1131 559.745 36.9542 614.949C-7.62378 669.443 -90.1143 683.114 -160.444 679.442Z" fill="#FFF1CB"/>
</svg>
