<svg width="480" height="750" viewBox="0 0 480 750" fill="none" xmlns="http://www.w3.org/2000/svg">
<path fill-rule="evenodd" clip-rule="evenodd" d="M404.801 571.976C342.959 627.508 318.628 738.582 236.359 749.194C162.583 758.711 97.1438 682.133 60.4701 616.393C26.2272 555.01 57.0493 479.858 47.2666 410.231C37.9106 343.642 -15.4603 281.233 4.38925 217.249C24.4342 152.635 93.1685 119.903 148.93 82.521C204.16 45.4952 260.261 6.58803 326.507 1.30292C394.698 -4.13747 470.366 6.41994 521.473 52.7992C570.915 97.668 578.166 171.963 587.628 238.27C594.972 289.734 584.234 340.047 569.552 389.723C557.016 432.141 538.473 471.762 508.975 504.393C480.576 535.81 436.276 543.712 404.801 571.976Z" fill="#DDE5FF"/>
</svg>
