<svg width="350" height="500" viewBox="0 0 350 500" fill="none" xmlns="http://www.w3.org/2000/svg">
<path d="M233.945 329.035L237.279 333.049C232.264 342.892 232.691 352.645 237.256 362.29L234.257 364.795L136.913 363.667L133.515 332.352L233.945 329.035Z" fill="white" stroke="#67676A"/>
<path d="M135.993 364.196L135.994 364.201C136.005 364.318 136.059 364.426 136.145 364.505C136.231 364.584 136.342 364.629 136.458 364.63L234.414 365.765C234.517 365.759 234.616 365.719 234.695 365.65L234.703 365.643L234.703 365.643L238.152 362.777C238.153 362.777 238.153 362.776 238.154 362.776C238.234 362.707 238.291 362.613 238.313 362.508C238.336 362.403 238.324 362.293 238.278 362.196C238.278 362.196 238.277 362.195 238.277 362.195L238.729 361.98C233.91 352.011 233.91 342.658 238.729 333.419L135.993 364.196ZM135.993 364.196L132.489 331.905C132.489 331.905 132.489 331.905 132.489 331.904C132.482 331.839 132.488 331.774 132.508 331.711C132.527 331.649 132.559 331.591 132.602 331.542L132.602 331.542L132.604 331.54C132.646 331.491 132.697 331.452 132.754 331.424C132.812 331.397 132.874 331.382 132.937 331.38L132.937 331.38L132.941 331.38L234.152 328.037C234.152 328.037 234.153 328.037 234.153 328.037C234.224 328.035 234.295 328.049 234.361 328.078C234.426 328.108 234.484 328.151 234.53 328.206L135.993 364.196ZM136.826 363.239L136.873 363.68L137.317 363.685L234.062 364.816L234.246 364.818L234.388 364.701L236.985 362.54L237.281 362.295L237.119 361.946C232.562 352.106 232.586 342.503 237.157 333.343L237.302 333.051L237.094 332.801L234.107 329.202L233.95 329.013L233.705 329.021L134.021 332.33L133.482 332.348L133.54 332.883L136.826 363.239Z" fill="black" stroke="#67676A"/>
<path d="M239.762 325.472H239.771L239.779 325.472C240.245 325.457 240.709 325.535 241.144 325.704C241.579 325.872 241.976 326.127 242.311 326.452C242.647 326.778 242.913 327.168 243.096 327.6L243.556 327.406L243.096 327.6C243.278 328.032 243.372 328.496 243.372 328.965C243.372 329.434 243.278 329.898 243.096 330.33L243.556 330.524L243.096 330.33C242.913 330.761 242.647 331.152 242.311 331.477C241.976 331.803 241.579 332.058 241.144 332.226C240.709 332.394 240.245 332.473 239.779 332.458L239.771 332.457H239.762H153.386H153.385C150.216 332.459 147.177 333.724 144.936 335.974C142.695 338.224 141.436 341.276 141.435 344.457V344.457V350.925C141.435 354.106 142.694 357.158 144.935 359.409C147.176 361.66 150.215 362.925 153.386 362.925H239.762H239.771L239.779 362.924C240.245 362.909 240.709 362.988 241.144 363.156C241.579 363.324 241.976 363.579 242.311 363.905C242.647 364.23 242.913 364.621 243.096 365.052L243.556 364.858L243.096 365.052C243.278 365.484 243.372 365.948 243.372 366.417C243.372 366.886 243.278 367.35 243.096 367.782L243.556 367.976L243.096 367.782C242.913 368.214 242.647 368.604 242.311 368.93C241.976 369.255 241.579 369.51 241.144 369.678C240.709 369.847 240.245 369.925 239.779 369.91L239.771 369.91H239.762H51.8964C46.43 369.91 41.1871 367.729 37.3212 363.846C33.4552 359.963 31.2829 354.696 31.2829 349.204V346.178C31.2829 343.458 31.8162 340.766 32.8523 338.253C33.8884 335.741 35.407 333.459 37.3212 331.536C39.2354 329.613 41.5079 328.089 44.0087 327.048C46.5094 326.008 49.1897 325.472 51.8964 325.472H239.762Z" fill="white" stroke="#67676A"/>
<path d="M153.385 333.434L153.384 333.434C150.475 333.444 147.689 334.608 145.632 336.674C143.576 338.739 142.417 341.536 142.408 344.456V344.457V350.924V350.926C142.416 353.846 143.575 356.645 145.631 358.711C147.687 360.777 150.474 361.942 153.384 361.952H153.385H239.762C240.941 361.952 242.071 362.422 242.905 363.26C243.739 364.097 244.208 365.234 244.208 366.419C244.208 367.604 243.739 368.741 242.905 369.578C242.071 370.416 240.941 370.886 239.762 370.886H51.8968C46.1749 370.879 40.689 368.593 36.6427 364.528C32.5965 360.464 30.3204 354.953 30.3147 349.204V346.178C30.3204 340.429 32.5966 334.919 36.643 330.855C40.6893 326.791 46.1751 324.506 51.8965 324.5H239.762C240.941 324.5 242.071 324.97 242.905 325.808C243.739 326.645 244.208 327.782 244.208 328.967C244.208 330.152 243.739 331.289 242.905 332.126C242.071 332.964 240.941 333.434 239.762 333.434L153.385 333.434ZM241.128 325.682L240.949 326.149L241.128 325.682C240.689 325.515 240.222 325.437 239.753 325.453L51.8963 325.445C46.4189 325.445 41.1663 327.63 37.2939 331.519C33.4215 335.408 31.2465 340.683 31.2465 346.182V349.209C31.2465 354.708 33.4215 359.982 37.2939 363.871C41.1663 367.761 46.4189 369.946 51.8962 369.946H239.762C240.693 369.946 241.584 369.575 242.242 368.915C242.899 368.255 243.267 367.36 243.267 366.428C243.267 365.496 242.899 364.601 242.242 363.941C241.584 363.281 240.693 362.91 239.762 362.91H153.386C150.226 362.905 147.197 361.643 144.962 359.397C142.728 357.152 141.47 354.108 141.467 350.933V344.467C141.47 341.291 142.728 338.248 144.963 336.003C147.197 333.759 150.227 332.497 153.386 332.494H239.753C240.222 332.51 240.689 332.432 241.128 332.265L240.949 331.798L241.128 332.265C241.569 332.096 241.972 331.839 242.312 331.511L241.964 331.151L242.312 331.511C242.652 331.182 242.922 330.788 243.107 330.352C243.291 329.916 243.387 329.447 243.387 328.974C243.387 328.5 243.291 328.031 243.107 327.595C242.922 327.159 242.652 326.765 242.312 326.437L241.964 326.796L242.312 326.436C241.972 326.108 241.569 325.851 241.128 325.682Z" fill="black" stroke="#67676A"/>
<path d="M234.198 346.809L234.181 346.808H234.164H177.167H177.15L177.133 346.809C177.069 346.813 177.004 346.804 176.943 346.782C176.883 346.761 176.827 346.726 176.779 346.682L176.437 347.046L176.779 346.682C176.732 346.638 176.694 346.584 176.668 346.524C176.642 346.464 176.629 346.399 176.629 346.333C176.629 346.268 176.642 346.203 176.668 346.143C176.694 346.083 176.732 346.029 176.779 345.984C176.827 345.94 176.883 345.906 176.943 345.884C177.004 345.862 177.069 345.853 177.133 345.858L177.15 345.859H177.167H234.164H234.181L234.198 345.858C234.262 345.853 234.327 345.862 234.387 345.884C234.448 345.906 234.504 345.94 234.551 345.984C234.599 346.029 234.637 346.083 234.663 346.143C234.688 346.203 234.702 346.268 234.702 346.333C234.702 346.399 234.688 346.464 234.663 346.524C234.637 346.584 234.599 346.638 234.551 346.682C234.504 346.726 234.448 346.761 234.387 346.782C234.327 346.804 234.262 346.813 234.198 346.809Z" fill="black" stroke="#67676A"/>
<path d="M234.528 355.426H188.197C188.073 355.426 187.954 355.377 187.866 355.289C187.778 355.201 187.728 355.08 187.728 354.954C187.728 354.828 187.778 354.708 187.866 354.62C187.954 354.531 188.073 354.482 188.197 354.482H234.528C234.651 354.482 234.77 354.531 234.858 354.62L235.212 354.267L234.858 354.62C234.946 354.708 234.996 354.828 234.996 354.954C234.996 355.08 234.946 355.201 234.858 355.289L235.212 355.642L234.858 355.289C234.77 355.377 234.651 355.426 234.528 355.426Z" fill="black" stroke="#67676A"/>
<path d="M244.45 376.109C239.712 389.859 239.58 403.452 244.438 416.864H75.9716V376.109H244.45Z" fill="white" stroke="#67676A"/>
<path d="M75.1413 417.699L74.7875 418.051L75.1413 417.699C75.0532 417.611 75.0034 417.49 75.0034 417.364V375.609C75.0034 375.484 75.0533 375.363 75.1413 375.275C75.2292 375.186 75.348 375.137 75.4715 375.137L245.155 375.137L245.158 375.137C245.234 375.137 245.309 375.155 245.376 375.19C245.444 375.225 245.502 375.276 245.546 375.34C245.589 375.403 245.617 375.476 245.626 375.553C245.636 375.629 245.626 375.707 245.599 375.779L245.598 375.779L245.595 375.79C240.586 389.897 240.578 403.841 245.597 417.212C245.622 417.282 245.63 417.356 245.621 417.43C245.611 417.503 245.586 417.573 245.545 417.634C245.5 417.696 245.442 417.747 245.375 417.782C245.306 417.817 245.231 417.836 245.154 417.837C245.154 417.837 245.154 417.837 245.153 417.837L75.4715 417.837C75.3481 417.837 75.2293 417.787 75.1413 417.699ZM75.9439 416.387L75.9436 416.888H76.4439H243.775H244.479L244.247 416.223C239.778 403.451 239.784 390.186 244.275 376.745L244.495 376.086H243.801H76.4702H75.9705L75.9702 376.586L75.9439 416.387Z" fill="black" stroke="#67676A"/>
<path d="M85.2304 387.865V387.866V405.904C85.2304 407.311 85.5064 408.703 86.0425 410.003C86.5787 411.303 87.3646 412.484 88.3555 413.479C89.3464 414.473 90.5229 415.262 91.8177 415.801C93.1125 416.339 94.5003 416.615 95.9017 416.615C95.9018 416.615 95.9018 416.615 95.9019 416.615H246.333C247.071 416.615 247.779 416.909 248.302 417.434C248.824 417.959 249.118 418.671 249.118 419.414C249.118 420.158 248.824 420.87 248.302 421.395C247.779 421.92 247.071 422.214 246.333 422.214H51.1253C47.4411 422.214 43.9074 420.744 41.3016 418.127C38.6957 415.51 37.2314 411.96 37.2314 408.258V385.53C37.2314 381.828 38.6957 378.278 41.3016 375.661C43.9074 373.044 47.4411 371.574 51.1253 371.574H246.333C247.071 371.574 247.779 371.868 248.302 372.393C248.824 372.918 249.118 373.63 249.118 374.373C249.118 375.116 248.824 375.829 248.302 376.354C247.779 376.878 247.071 377.173 246.333 377.173H95.9019C95.9018 377.173 95.9018 377.173 95.9017 377.173C93.0744 377.172 90.3627 378.298 88.362 380.303C86.3614 382.308 85.2353 385.028 85.2304 387.865Z" fill="white" stroke="#67676A"/>
<path d="M246.333 423.186H245.833V423.203H51.1259C47.1857 423.199 43.4077 421.625 40.6206 418.827C37.8334 416.028 36.2646 412.233 36.2589 408.274V385.548C36.2646 381.589 37.8334 377.794 40.6206 374.995C43.4077 372.197 47.1855 370.623 51.1256 370.619H246.333C247.325 370.619 248.278 371.015 248.98 371.72C249.683 372.426 250.078 373.383 250.078 374.382C250.078 375.38 249.683 376.338 248.98 377.043C248.278 377.749 247.325 378.145 246.333 378.145H95.9017C93.3287 378.145 90.8615 379.171 89.0428 380.998C87.2242 382.824 86.2029 385.301 86.2029 387.883V405.921C86.2029 408.503 87.2242 410.98 89.0428 412.807C90.8615 414.633 93.3287 415.66 95.9017 415.66H246.333C247.325 415.66 248.278 416.056 248.98 416.761C249.683 417.467 250.078 418.424 250.078 419.423C250.078 420.422 249.683 421.379 248.98 422.084C248.278 422.79 247.325 423.186 246.333 423.186ZM51.1254 371.568L51.1248 371.568C47.4328 371.571 43.8933 373.046 41.2829 375.666C38.6725 378.287 37.2042 381.841 37.1994 385.547V385.547L37.1994 408.275L37.1994 408.275C37.2042 411.981 38.6725 415.535 41.2829 418.156C43.8933 420.777 47.4328 422.251 51.1248 422.255H51.1253H246.333C247.077 422.255 247.791 421.957 248.317 421.43C248.842 420.902 249.137 420.186 249.137 419.44C249.137 418.695 248.842 417.979 248.317 417.451C247.791 416.923 247.077 416.626 246.333 416.626H95.9023C93.0821 416.623 90.3779 415.496 88.3831 413.493C86.3882 411.489 85.2657 408.772 85.2623 405.938V387.902C85.2657 385.067 86.3882 382.35 88.3831 380.347C90.3779 378.343 93.0818 377.217 95.9019 377.213C95.902 377.213 95.9021 377.213 95.9023 377.213L246.333 377.213C247.077 377.213 247.791 376.916 248.317 376.388C248.842 375.86 249.137 375.145 249.137 374.399C249.137 373.654 248.842 372.938 248.317 372.41C247.791 371.882 247.077 371.585 246.333 371.585L51.1254 371.568Z" fill="black" stroke="#67676A"/>
<path d="M217.098 386.003H217.081L217.065 386.004C217 386.008 216.936 385.999 216.875 385.978C216.814 385.956 216.758 385.922 216.711 385.877C216.664 385.833 216.626 385.779 216.6 385.719C216.574 385.659 216.561 385.594 216.561 385.528C216.561 385.463 216.574 385.398 216.6 385.338C216.626 385.278 216.664 385.224 216.711 385.18C216.758 385.135 216.814 385.101 216.875 385.079C216.936 385.057 217 385.048 217.065 385.053L217.081 385.054H217.098H242.134C242.248 385.065 242.354 385.117 242.433 385.202C242.515 385.29 242.561 385.407 242.561 385.528C242.561 385.65 242.515 385.767 242.433 385.855C242.354 385.939 242.248 385.992 242.134 386.003H217.098Z" fill="black" stroke="#67676A"/>
<path d="M241.903 391.424C241.824 391.509 241.718 391.561 241.604 391.572H164.479C164.365 391.561 164.259 391.509 164.18 391.424C164.098 391.336 164.052 391.219 164.052 391.098C164.052 390.976 164.098 390.859 164.18 390.771C164.259 390.686 164.365 390.634 164.479 390.623H241.604C241.718 390.634 241.824 390.686 241.903 390.771C241.985 390.859 242.031 390.976 242.031 391.098C242.031 391.219 241.985 391.336 241.903 391.424Z" fill="black" stroke="#67676A"/>
<path d="M175.231 403.204H175.214L175.197 403.205C175.133 403.209 175.068 403.2 175.007 403.178C174.947 403.157 174.891 403.122 174.843 403.078C174.796 403.034 174.758 402.98 174.732 402.92C174.706 402.86 174.693 402.795 174.693 402.729C174.693 402.663 174.706 402.599 174.732 402.539C174.758 402.479 174.796 402.425 174.843 402.38C174.891 402.336 174.947 402.302 175.007 402.28C175.068 402.258 175.133 402.249 175.197 402.254L175.214 402.255H175.231H241.604C241.718 402.266 241.824 402.318 241.903 402.403C241.985 402.491 242.031 402.608 242.031 402.729C242.031 402.851 241.985 402.967 241.903 403.055L242.269 403.396L241.903 403.055C241.824 403.14 241.718 403.192 241.604 403.204H175.231Z" fill="black" stroke="#67676A"/>
<path d="M41.4694 468.084L38.0078 465.208C43.1852 454.297 43.6688 443.269 37.9845 432.14L41.7999 427.546L155.384 431.299L151.547 466.811L41.4694 468.084Z" fill="white" stroke="#67676A"/>
<path d="M41.3001 469.063L41.2981 469.063C41.1911 469.063 41.0871 469.026 41.0047 468.956L41.0019 468.954L37.1021 465.714C37.1017 465.714 37.1013 465.713 37.1009 465.713C37.0198 465.644 36.9633 465.55 36.9406 465.445C36.918 465.34 36.9306 465.23 36.9764 465.133C42.5103 453.7 42.5223 442.936 36.9692 432.298C36.9263 432.215 36.9086 432.121 36.9185 432.027C36.9284 431.934 36.9654 431.846 37.0247 431.774C37.0248 431.774 37.025 431.773 37.0251 431.773L41.2073 426.737L41.2078 426.737C41.2537 426.681 41.3115 426.637 41.3766 426.607C41.4413 426.578 41.5118 426.564 41.5828 426.566C41.5831 426.566 41.5834 426.566 41.5837 426.566L155.949 430.345L155.953 430.345C156.017 430.346 156.08 430.361 156.138 430.389C156.196 430.416 156.248 430.456 156.29 430.505C156.333 430.554 156.365 430.611 156.384 430.673C156.403 430.736 156.409 430.801 156.402 430.866L156.401 430.869L152.459 467.358L152.458 467.364C152.447 467.481 152.394 467.589 152.309 467.667C152.224 467.746 152.114 467.79 151.999 467.791L41.3307 469.063H41.328L41.3001 469.063ZM38.1485 464.869L37.9852 465.219L38.2836 465.465L41.3498 467.995L41.4909 468.112L41.6738 468.109L151.162 466.842L151.605 466.837L151.653 466.396L155.389 431.812L155.447 431.277L154.909 431.259L42.0613 427.528L41.8165 427.52L41.66 427.709L38.1908 431.888L37.9824 432.139L38.1282 432.431C43.3167 442.818 43.3359 453.731 38.1485 464.869Z" fill="black" stroke="#67676A"/>
<path d="M146.321 445.036V445.036C146.32 441.458 144.904 438.026 142.383 435.496C139.863 432.966 136.445 431.544 132.881 431.544H35.2772C34.2186 431.544 33.2028 431.122 32.4536 430.369C31.7043 429.617 31.2829 428.596 31.2829 427.53C31.2829 426.465 31.7043 425.444 32.4536 424.691C33.2028 423.939 34.2186 423.517 35.2772 423.517H247.551C250.619 423.517 253.656 424.124 256.491 425.303C259.325 426.482 261.9 428.211 264.07 430.39C266.239 432.569 267.96 435.156 269.134 438.003C270.307 440.851 270.911 443.903 270.911 446.984V450.407C270.91 456.63 268.448 462.597 264.067 466.996C259.686 471.396 253.745 473.867 247.551 473.867H35.2772H35.2694L35.2615 473.867C34.7271 473.884 34.1946 473.792 33.6959 473.598L33.5147 474.064L33.6959 473.598C33.1971 473.405 32.742 473.112 32.3577 472.738C31.9735 472.364 31.6678 471.916 31.459 471.421C31.2502 470.925 31.1426 470.393 31.1426 469.855C31.1426 469.317 31.2502 468.785 31.459 468.289C31.6678 467.794 31.9735 467.346 32.3577 466.972C32.742 466.598 33.1971 466.305 33.6959 466.111C34.1947 465.918 34.7271 465.826 35.2615 465.843L35.2694 465.843H35.2772H132.881C134.647 465.843 136.395 465.494 138.026 464.815C139.657 464.137 141.139 463.142 142.387 461.888C143.635 460.634 144.624 459.146 145.299 457.508C145.974 455.871 146.321 454.115 146.321 452.343C146.321 452.343 146.321 452.343 146.321 452.343V445.036Z" fill="white" stroke="#67676A"/>
<path d="M132.881 464.871H132.881C136.188 464.867 139.358 463.546 141.695 461.198C144.032 458.85 145.346 455.667 145.348 452.348V452.348V445.04V445.04C145.344 441.721 144.03 438.539 141.693 436.192C139.356 433.845 136.187 432.525 132.881 432.521H132.881H35.277C33.9616 432.521 32.6997 431.996 31.7689 431.061C30.838 430.126 30.3147 428.858 30.3147 427.535C30.3147 426.212 30.838 424.943 31.7689 424.008C32.6997 423.074 33.9616 422.549 35.277 422.549H247.55C254 422.557 260.183 425.133 264.744 429.714C269.305 434.295 271.871 440.506 271.879 446.985V450.407C271.871 456.886 269.305 463.097 264.744 467.678C260.183 472.259 253.999 474.835 247.55 474.843H35.277C34.6257 474.843 33.9806 474.714 33.3787 474.464C32.7768 474.214 32.2298 473.847 31.7689 473.384C31.308 472.921 30.9423 472.371 30.6927 471.766C30.4432 471.161 30.3147 470.512 30.3147 469.857C30.3147 469.202 30.4432 468.554 30.6927 467.948C30.9423 467.343 31.308 466.794 31.7689 466.331C32.2298 465.868 32.7768 465.501 33.3787 465.25C33.9806 465 34.6257 464.871 35.277 464.871H132.881ZM247.551 473.894H247.551C253.752 473.887 259.697 471.41 264.081 467.007C268.465 462.604 270.931 456.634 270.938 450.408V450.407V446.985V446.984C270.931 440.758 268.465 434.789 264.081 430.385C259.697 425.982 253.752 423.505 247.551 423.498H247.551H35.277C34.2097 423.498 33.1865 423.924 32.4324 424.681C31.6784 425.438 31.2552 426.465 31.2552 427.535C31.2552 428.605 31.6784 429.631 32.4324 430.389C33.1865 431.146 34.2097 431.572 35.277 431.572H132.88C136.434 431.577 139.842 432.996 142.356 435.521C144.87 438.046 146.284 441.469 146.289 445.041V452.347C146.285 455.919 144.871 459.344 142.357 461.869C139.843 464.395 136.435 465.816 132.88 465.82H35.277C34.2097 465.82 33.1865 466.246 32.4324 467.003C31.6784 467.761 31.2552 468.787 31.2552 469.857C31.2552 470.927 31.6784 471.954 32.4324 472.711C33.1865 473.468 34.2097 473.894 35.277 473.894H247.551Z" fill="black" stroke="#67676A"/>
<path d="M94.2184 447.485C94.1395 447.57 94.0331 447.622 93.9193 447.633H41.6047C41.491 447.622 41.3845 447.57 41.3057 447.485C41.2236 447.397 41.1776 447.28 41.1776 447.159C41.1776 447.037 41.2236 446.92 41.3057 446.832C41.3845 446.748 41.491 446.695 41.6047 446.684H93.9193C94.0331 446.695 94.1395 446.748 94.2184 446.832C94.3005 446.92 94.3465 447.037 94.3465 447.159C94.3465 447.28 94.3005 447.397 94.2184 447.485Z" fill="black" stroke="#67676A"/>
<path d="M41.1818 457.378H41.165L41.1482 457.379C41.0839 457.383 41.0194 457.374 40.9587 457.353C40.8979 457.331 40.8421 457.297 40.7947 457.252C40.7474 457.208 40.7095 457.154 40.6835 457.094C40.6576 457.034 40.6442 456.969 40.6442 456.903C40.6442 456.838 40.6576 456.773 40.6835 456.713C40.7095 456.653 40.7473 456.599 40.7947 456.554C40.8421 456.51 40.8979 456.476 40.9587 456.454C41.0194 456.432 41.0839 456.423 41.1482 456.428L41.165 456.429H41.1818H105.155C105.269 456.44 105.375 456.492 105.454 456.577C105.536 456.665 105.582 456.782 105.582 456.903C105.582 457.025 105.536 457.142 105.454 457.23C105.375 457.314 105.269 457.367 105.155 457.378H41.1818Z" fill="black" stroke="#67676A"/>
<path d="M227.825 79.2619C225.713 77.5756 224.255 75.2127 223.764 72.6798L217.562 41.2921L213.219 19.3182C212.712 16.7973 213.196 14.299 214.569 12.3495C215.942 10.3999 218.097 9.15112 220.581 8.86603C280.526 1.81085 316.391 5.9784 332.43 9.07948C334.97 9.56985 337.338 10.9985 339.039 13.0658C340.741 15.133 341.642 17.6782 341.554 20.1673L339.693 82.2135C339.649 83.617 339.294 84.9564 338.651 86.1386C338.008 87.3209 337.094 88.3177 335.972 89.0599C334.85 89.802 333.547 90.2716 332.153 90.4362C330.759 90.6007 329.307 90.4561 327.9 90.0126C315.431 86.1125 302.796 83.7249 290.916 82.3279C274.802 80.433 260.078 80.3608 249.043 80.8085C247.567 80.8684 246.158 80.9376 244.82 81.0129C241.162 81.2189 238.038 81.4711 235.56 81.7058C234.281 81.8317 232.957 81.6961 231.668 81.3071C230.378 80.9182 229.15 80.2839 228.056 79.442L227.825 79.2619ZM215.139 19.175L219.11 39.2767L219.495 41.2231L225.682 72.5399C225.885 73.5798 226.293 74.5942 226.881 75.5238C227.469 76.4535 228.226 77.2796 229.107 77.9538C229.987 78.6279 230.974 79.1366 232.01 79.45C233.046 79.7634 234.109 79.8752 235.138 79.7789C238.456 79.4629 242.923 79.1166 248.274 78.8903C249.596 78.8344 250.972 78.7858 252.398 78.7468C263.029 78.4559 276.439 78.6976 290.974 80.4099C291.623 80.4864 292.275 80.5659 292.929 80.6484C304.334 82.0869 316.379 84.4443 328.28 88.1648C329.409 88.5179 330.572 88.6318 331.689 88.4987C332.807 88.3655 333.851 87.9886 334.751 87.3938C335.65 86.7991 336.384 86.0007 336.9 85.0539C337.417 84.107 337.704 83.0342 337.742 81.9097L339.607 19.8664C339.675 17.8721 338.951 15.8338 337.588 14.1783C336.225 12.5228 334.327 11.3786 332.293 10.9851C316.359 7.89989 280.719 3.77566 221.032 10.8006C219.044 11.0314 217.319 12.0327 216.22 13.5944C215.121 15.156 214.734 17.1563 215.139 19.175Z" fill="#FFF1CB"/>
<path d="M179.99 113.285C177.879 111.598 176.422 109.236 175.929 106.703L165.384 53.3384C164.877 50.8178 165.362 48.3202 166.734 46.3709C168.107 44.4217 170.262 43.1727 172.745 42.8867C190.209 40.8322 205.628 39.73 219.11 39.2767C251.905 38.174 273.232 40.9106 284.609 43.117C287.144 43.6117 289.508 45.0405 291.206 47.1051C292.905 49.1697 293.806 51.7104 293.723 54.1964L292.929 80.6484L291.861 116.239C291.817 117.642 291.461 118.982 290.819 120.164C290.176 121.346 289.262 122.343 288.14 123.085C287.018 123.827 285.715 124.297 284.321 124.461C282.927 124.626 281.475 124.481 280.068 124.037C242.24 112.204 202.887 114.291 187.732 115.729C186.451 115.854 185.127 115.718 183.836 115.329C182.546 114.94 181.317 114.307 180.221 113.466L179.99 113.285ZM167.301 53.1986L177.849 106.56C178.053 107.6 178.461 108.615 179.049 109.545C179.638 110.475 180.394 111.301 181.276 111.976C182.157 112.65 183.144 113.159 184.18 113.473C185.216 113.787 186.28 113.899 187.309 113.802C202.592 112.344 242.255 110.253 280.446 122.193C281.58 122.55 282.75 122.666 283.873 122.532C284.997 122.398 286.046 122.017 286.949 121.416C287.844 120.822 288.573 120.024 289.084 119.078C289.595 118.132 289.876 117.06 289.908 115.938L290.916 82.3279L290.974 80.4099L291.77 53.8958C291.839 51.9012 291.117 49.8619 289.753 48.2054C288.39 46.549 286.492 45.4042 284.458 45.011C273.184 42.8292 252.046 40.1297 219.495 41.2231C218.855 41.2446 218.21 41.2676 217.562 41.2921C204.577 41.7816 189.822 42.8715 173.2 44.8242C171.211 45.0544 169.485 46.0554 168.385 47.617C167.285 49.1785 166.897 51.1791 167.301 53.1986Z" fill="#FFF1CB"/>
<path d="M176.459 56.1843C176.253 56.0238 176.108 55.7984 176.052 55.5542C175.997 55.31 176.036 55.0655 176.162 54.8707C176.288 54.6759 176.49 54.5456 176.728 54.5063C176.967 54.4671 177.222 54.5218 177.443 54.6595L220.695 80.7587C224.4 83.0173 228.544 84.2824 232.665 84.4129C236.785 84.5434 240.72 83.5341 244.031 81.4977L244.82 81.0129L248.274 78.8903L284.123 56.8621C284.33 56.735 284.59 56.7013 284.846 56.7684C285.101 56.8354 285.332 56.9977 285.487 57.2196C285.642 57.4414 285.708 57.7047 285.671 57.9514C285.635 58.1981 285.498 58.4081 285.291 58.5351L252.398 78.7468L249.043 80.8085L245.198 83.1708C241.601 85.3854 237.324 86.4835 232.846 86.3426C228.367 86.2017 223.863 84.8273 219.836 82.3728L176.587 56.2765L176.459 56.1843Z" fill="#FFF1CB"/>
<path d="M328.28 88.1648C329.409 88.5179 330.572 88.6318 331.689 88.4987C332.807 88.3655 333.851 87.9886 334.751 87.3938C335.65 86.7991 336.384 86.0007 336.9 85.0539C337.417 84.107 337.704 83.0342 337.742 81.9097L339.607 19.8664C339.675 17.8721 338.951 15.8338 337.588 14.1783C336.225 12.5228 334.327 11.3786 332.293 10.9851C316.359 7.89989 280.719 3.77566 221.032 10.8006C219.044 11.0314 217.319 12.0327 216.22 13.5944C215.121 15.156 214.734 17.1563 215.139 19.175L219.11 39.2767C251.905 38.174 273.232 40.9106 284.609 43.117C287.144 43.6117 289.508 45.0405 291.206 47.1051C292.905 49.1697 293.806 51.7104 293.723 54.1964L292.929 80.6484C304.334 82.0869 316.379 84.4443 328.28 88.1648Z" fill="#FFF1CB"/>
<path d="M227.825 79.2619C225.713 77.5756 224.255 75.2127 223.764 72.6798L217.562 41.2921C204.577 41.7816 189.822 42.8715 173.2 44.8242C171.211 45.0544 169.485 46.0554 168.385 47.617C167.285 49.1785 166.897 51.1791 167.301 53.1986L177.849 106.56C178.053 107.6 178.461 108.615 179.049 109.545C179.638 110.475 180.394 111.301 181.276 111.976C182.157 112.65 183.144 113.159 184.18 113.473C185.216 113.787 186.28 113.899 187.309 113.802C202.592 112.344 242.255 110.253 280.446 122.193C281.58 122.55 282.75 122.666 283.873 122.532C284.997 122.398 286.046 122.017 286.949 121.416C287.844 120.822 288.573 120.024 289.084 119.078C289.595 118.132 289.876 117.06 289.908 115.938L290.916 82.3279C274.802 80.433 260.078 80.3608 249.043 80.8085L245.198 83.1708C241.601 85.3854 237.324 86.4835 232.846 86.3426C228.367 86.2017 223.863 84.8273 219.836 82.3728L176.587 56.2765L176.459 56.1843C176.253 56.0238 176.108 55.7984 176.052 55.5542C175.997 55.31 176.036 55.0655 176.162 54.8707C176.288 54.6759 176.49 54.5456 176.728 54.5063C176.967 54.4671 177.222 54.5218 177.443 54.6595L220.695 80.7587C224.4 83.0173 228.544 84.2824 232.665 84.4129C236.785 84.5434 240.72 83.5341 244.031 81.4977L244.82 81.0129C241.162 81.2189 238.038 81.4711 235.56 81.7058C234.281 81.8317 232.957 81.6961 231.668 81.3071C230.378 80.9182 229.15 80.2839 228.056 79.442L227.825 79.2619Z" fill="#FFF1CB"/>
<path fill-rule="evenodd" clip-rule="evenodd" d="M291.926 81.4529L290.888 116.081C290.848 117.346 290.528 118.553 289.949 119.618C289.37 120.684 288.546 121.582 287.534 122.251C286.523 122.92 285.348 123.343 284.092 123.491C282.836 123.639 281.528 123.509 280.259 123.109C242.818 111.401 204.374 113.156 187.523 114.759C186.367 114.867 185.172 114.742 184.008 114.39C182.844 114.038 181.734 113.466 180.744 112.709C179.754 111.952 178.904 111.024 178.243 109.979C177.581 108.934 177.123 107.795 176.893 106.626L166.34 53.2658C165.892 50.9971 166.332 48.7516 167.568 46.9981C168.804 45.2447 170.741 44.1189 172.974 43.8559C190.015 41.852 205.109 40.7611 218.339 40.2933L214.179 19.248C213.731 16.9789 214.172 14.7334 215.41 12.9807C216.648 11.2281 218.586 10.104 220.82 9.84341C281.276 2.71881 317.219 7.10304 332.362 10.0336C334.647 10.4796 336.777 11.766 338.308 13.625C339.84 15.4841 340.656 17.7723 340.585 20.0131L338.72 82.0553C338.681 83.3199 338.36 84.5267 337.781 85.5919C337.202 86.6571 336.379 87.5552 335.367 88.2237C334.356 88.8923 333.182 89.3152 331.926 89.4632C330.67 89.6112 329.362 89.4806 328.094 89.0806C315.883 85.264 303.566 82.8788 291.926 81.4529ZM215.139 19.175L219.11 39.2767C251.905 38.174 273.232 40.9106 284.609 43.117C287.144 43.6117 289.508 45.0405 291.206 47.1051C292.905 49.1697 293.806 51.7104 293.723 54.1964L292.929 80.6484C304.334 82.0869 316.379 84.4443 328.28 88.1648C329.409 88.5179 330.572 88.6318 331.689 88.4987C332.807 88.3655 333.851 87.9886 334.751 87.3938C335.65 86.7991 336.384 86.0007 336.9 85.0539C337.417 84.107 337.704 83.0342 337.742 81.9097L339.607 19.8664C339.675 17.8721 338.951 15.8338 337.588 14.1783C336.225 12.5228 334.327 11.3786 332.293 10.9851C316.359 7.89989 280.719 3.77566 221.032 10.8006C219.044 11.0314 217.319 12.0327 216.22 13.5944C215.121 15.156 214.734 17.1563 215.139 19.175ZM227.825 79.2619C225.713 77.5756 224.255 75.2127 223.764 72.6798L217.562 41.2921C204.577 41.7816 189.822 42.8715 173.2 44.8242C171.211 45.0544 169.485 46.0554 168.385 47.617C167.285 49.1785 166.897 51.1791 167.301 53.1986L177.849 106.56C178.053 107.6 178.461 108.615 179.049 109.545C179.638 110.475 180.394 111.301 181.276 111.976C182.157 112.65 183.144 113.159 184.18 113.473C185.216 113.787 186.28 113.899 187.309 113.802C202.592 112.344 242.255 110.253 280.446 122.193C281.58 122.55 282.75 122.666 283.873 122.532C284.997 122.398 286.046 122.017 286.949 121.416C287.844 120.822 288.573 120.024 289.084 119.078C289.595 118.132 289.876 117.06 289.908 115.938L290.916 82.3279C274.802 80.433 260.078 80.3608 249.043 80.8085L245.198 83.1708C241.601 85.3854 237.324 86.4835 232.846 86.3426C228.367 86.2017 223.863 84.8273 219.836 82.3728L176.587 56.2765L176.459 56.1843C176.253 56.0238 176.108 55.7984 176.052 55.5542C175.997 55.31 176.036 55.0655 176.162 54.8707C176.288 54.6759 176.49 54.5456 176.728 54.5063C176.967 54.4671 177.222 54.5218 177.443 54.6595L220.695 80.7587C224.4 83.0173 228.544 84.2824 232.665 84.4129C236.785 84.5434 240.72 83.5341 244.031 81.4977L244.82 81.0129C241.162 81.2189 238.038 81.4711 235.56 81.7058C234.281 81.8317 232.957 81.6961 231.668 81.3071C230.378 80.9182 229.15 80.2839 228.056 79.442L227.825 79.2619ZM226.881 75.5238C226.293 74.5942 225.885 73.5798 225.682 72.5399L219.495 41.2231C252.046 40.1297 273.184 42.8292 284.458 45.011C286.492 45.4042 288.39 46.549 289.753 48.2054C291.117 49.8619 291.839 51.9012 291.77 53.8958L290.974 80.4099C276.439 78.6976 263.029 78.4559 252.398 78.7468L285.291 58.5351C285.498 58.4081 285.635 58.1981 285.671 57.9514C285.708 57.7047 285.642 57.4414 285.487 57.2196C285.332 56.9977 285.101 56.8354 284.846 56.7684C284.59 56.7013 284.33 56.735 284.123 56.8621L248.274 78.8903C242.923 79.1166 238.456 79.4629 235.138 79.7789C234.109 79.8752 233.046 79.7634 232.01 79.45C230.974 79.1366 229.987 78.6279 229.107 77.9538C228.226 77.2796 227.469 76.4535 226.881 75.5238Z" fill="#FFF1CB"/>
<path d="M225.682 72.5399C225.885 73.5798 226.293 74.5942 226.881 75.5238C227.469 76.4535 228.226 77.2796 229.107 77.9538C229.987 78.6279 230.974 79.1366 232.01 79.45C233.046 79.7634 234.109 79.8752 235.138 79.7789C238.456 79.4629 242.923 79.1166 248.274 78.8903L284.123 56.8621C284.33 56.735 284.59 56.7013 284.846 56.7684C285.101 56.8354 285.332 56.9977 285.487 57.2196C285.642 57.4414 285.708 57.7047 285.671 57.9514C285.635 58.1981 285.498 58.4081 285.291 58.5351L252.398 78.7468C263.029 78.4559 276.439 78.6976 290.974 80.4099L291.77 53.8958C291.839 51.9012 291.117 49.8619 289.753 48.2054C288.39 46.549 286.492 45.4042 284.458 45.011C273.184 42.8292 252.046 40.1297 219.495 41.2231L225.682 72.5399Z" fill="#FFF1CB"/>
<path d="M184.99 108.285C182.879 106.598 181.422 104.236 180.929 101.703L170.384 48.3384C169.877 45.8178 170.362 43.3202 171.734 41.3709C173.107 39.4217 175.262 38.1727 177.745 37.8867C195.209 35.8322 210.628 34.73 224.11 34.2767C256.905 33.174 278.232 35.9106 289.609 38.117C292.144 38.6117 294.508 40.0405 296.206 42.1051C297.905 44.1697 298.806 46.7104 298.723 49.1964L297.929 75.6484L296.861 111.239C296.817 112.642 296.461 113.982 295.819 115.164C295.176 116.346 294.262 117.343 293.14 118.085C292.018 118.827 290.715 119.297 289.321 119.461C287.927 119.626 286.475 119.481 285.068 119.037C247.24 107.204 207.887 109.291 192.732 110.729C191.451 110.854 190.127 110.718 188.836 110.329C187.546 109.94 186.317 109.307 185.221 108.466L184.99 108.285ZM172.301 48.1986L182.849 101.56C183.053 102.6 183.461 103.615 184.049 104.545C184.638 105.475 185.394 106.301 186.276 106.976C187.157 107.65 188.144 108.159 189.18 108.473C190.216 108.787 191.28 108.899 192.309 108.802C207.592 107.344 247.255 105.253 285.446 117.193C286.58 117.55 287.75 117.666 288.873 117.532C289.997 117.398 291.046 117.017 291.949 116.416C292.844 115.822 293.573 115.024 294.084 114.078C294.595 113.132 294.876 112.06 294.908 110.938L295.916 77.3279L295.946 76.335L295.974 75.4099L296.77 48.8958C296.839 46.9012 296.117 44.8619 294.753 43.2054C293.39 41.549 291.492 40.4042 289.458 40.011C278.184 37.8292 257.046 35.1297 224.495 36.2231C224.174 36.2339 223.852 36.245 223.529 36.2566C223.208 36.268 222.885 36.2799 222.562 36.2921C209.577 36.7816 194.822 37.8715 178.2 39.8242C176.211 40.0544 174.485 41.0554 173.385 42.617C172.285 44.1785 171.897 46.1791 172.301 48.1986Z" fill="#67676A"/>
<path d="M181.459 51.1843C181.253 51.0238 181.108 50.7984 181.052 50.5542C180.997 50.31 181.036 50.0655 181.162 49.8707C181.288 49.6759 181.49 49.5456 181.728 49.5063C181.967 49.4671 182.222 49.5218 182.443 49.6595L225.695 75.7587C229.4 78.0173 233.544 79.2824 237.665 79.4129C241.785 79.5434 245.72 78.5341 249.031 76.4977L249.82 76.0129L251.586 74.9277L253.274 73.8903L289.123 51.8621C289.33 51.735 289.59 51.7013 289.846 51.7684C290.101 51.8354 290.332 51.9977 290.487 52.2196C290.642 52.4414 290.708 52.7047 290.671 52.9514C290.635 53.1981 290.498 53.4081 290.291 53.5351L257.398 73.7468L255.767 74.7494L254.043 75.8085L250.198 78.1708C246.601 80.3854 242.324 81.4835 237.846 81.3426C233.367 81.2017 228.863 79.8273 224.836 77.3728L181.587 51.2765L181.459 51.1843Z" fill="#67676A"/>
<path fill-rule="evenodd" clip-rule="evenodd" d="M223.529 36.2566C223.208 36.268 222.885 36.2799 222.562 36.2921C209.577 36.7816 194.822 37.8715 178.2 39.8242C176.211 40.0544 174.485 41.0554 173.385 42.617C172.285 44.1785 171.897 46.1791 172.301 48.1986L182.849 101.56C183.053 102.6 183.461 103.615 184.049 104.545C184.638 105.475 185.394 106.301 186.276 106.976C187.157 107.65 188.144 108.159 189.18 108.473C190.216 108.787 191.28 108.899 192.309 108.802C207.592 107.344 247.255 105.253 285.446 117.193C286.58 117.55 287.75 117.666 288.873 117.532C289.997 117.398 291.046 117.017 291.949 116.416C292.844 115.822 293.573 115.024 294.084 114.078C294.595 113.132 294.876 112.06 294.908 110.938L295.916 77.3279L295.946 76.335L295.974 75.4099L296.77 48.8958C296.839 46.9012 296.117 44.8619 294.753 43.2054C293.39 41.549 291.492 40.4042 289.458 40.011C278.184 37.8292 257.046 35.1297 224.495 36.2231C224.174 36.2339 223.852 36.245 223.529 36.2566ZM257.398 73.7468L255.767 74.7494L254.043 75.8085L250.198 78.1708C246.601 80.3854 242.324 81.4835 237.846 81.3426C233.367 81.2017 228.863 79.8273 224.836 77.3728L181.587 51.2765L181.459 51.1843C181.253 51.0238 181.108 50.7984 181.052 50.5542C180.997 50.31 181.036 50.0655 181.162 49.8707C181.288 49.6759 181.49 49.5456 181.728 49.5063C181.967 49.4671 182.222 49.5218 182.443 49.6595L225.695 75.7587C229.4 78.0173 233.544 79.2824 237.665 79.4129C241.785 79.5434 245.72 78.5341 249.031 76.4977L249.82 76.0129L251.586 74.9277L253.274 73.8903L289.123 51.8621C289.33 51.735 289.59 51.7013 289.846 51.7684C290.101 51.8354 290.332 51.9977 290.487 52.2196C290.642 52.4414 290.708 52.7047 290.671 52.9514C290.635 53.1981 290.498 53.4081 290.291 53.5351L257.398 73.7468ZM222.371 35.3285C209.375 35.8146 194.601 36.9007 177.974 38.8559C175.741 39.1189 173.804 40.2447 172.568 41.9981C171.332 43.7516 170.892 45.9971 171.34 48.2658L181.893 101.626C182.123 102.795 182.581 103.934 183.243 104.979C183.904 106.024 184.754 106.952 185.744 107.709C186.734 108.466 187.844 109.038 189.008 109.39C190.172 109.742 191.367 109.867 192.523 109.759C209.374 108.156 247.818 106.401 285.259 118.109C286.528 118.509 287.836 118.639 289.092 118.491C290.348 118.343 291.523 117.92 292.534 117.251C293.546 116.582 294.37 115.684 294.949 114.618C295.528 113.553 295.848 112.346 295.888 111.081L296.896 77.4452C308.489 78.8571 320.773 81.2195 332.9 85.0126C334.307 85.4561 335.759 85.6007 337.153 85.4362C338.547 85.2716 339.85 84.802 340.972 84.0599C342.094 83.3177 343.008 82.3209 343.651 81.1386C344.294 79.9564 344.649 78.617 344.693 77.2135L346.554 15.1673C346.642 12.6782 345.741 10.133 344.039 8.06578C342.338 5.99853 339.97 4.56985 337.43 4.07948C321.391 0.978399 285.526 -3.18915 225.581 3.86603C223.097 4.15112 220.942 5.39991 219.569 7.34948C218.196 9.29905 217.712 11.7973 218.219 14.3182L222.371 35.3285ZM336.689 83.4987C335.572 83.6318 334.409 83.5179 333.28 83.1648C321.379 79.4443 309.334 77.0869 297.929 75.6484L298.723 49.1964C298.806 46.7104 297.905 44.1697 296.206 42.1051C294.508 40.0405 292.144 38.6117 289.609 38.117C278.232 35.9106 256.905 33.174 224.11 34.2767L220.139 14.175C219.734 12.1563 220.121 10.156 221.22 8.59436C222.319 7.03275 224.044 6.03137 226.032 5.80062C285.719 -1.22434 321.359 2.89989 337.293 5.98513C339.327 6.37858 341.225 7.52284 342.588 9.17831C343.951 10.8338 344.675 12.8721 344.607 14.8664L342.742 76.9097C342.704 78.0342 342.417 79.107 341.9 80.0539C341.384 81.0007 340.65 81.7991 339.751 82.3938C338.851 82.9886 337.807 83.3655 336.689 83.4987Z" fill="#67676A"/>
<path d="M288.693 443.836C288.693 443.836 255.166 369.983 274.387 274.265C274.387 274.265 326.382 318.021 307.639 443.858L288.693 443.836Z" fill="#A1DA67"/>
<path d="M307.638 444.807H288.693C288.509 444.806 288.328 444.753 288.173 444.652C288.017 444.551 287.894 444.408 287.817 444.24C287.48 443.496 254.36 369.01 273.445 274.048C273.479 273.883 273.555 273.73 273.666 273.602C273.776 273.475 273.918 273.379 274.076 273.323C274.234 273.266 274.404 273.253 274.57 273.283C274.735 273.313 274.889 273.386 275.018 273.494C275.557 273.934 288.33 284.897 298.952 311.487C308.716 335.931 318.322 378.759 308.589 443.98C308.554 444.209 308.439 444.417 308.265 444.569C308.091 444.72 307.869 444.805 307.638 444.807ZM289.328 442.858H306.802C316.233 378.627 306.802 336.467 297.204 312.363C288.658 290.911 278.478 279.605 275 276.151C257.628 365.301 286.324 435.837 289.333 442.858H289.328Z" fill="#A1DA67"/>
<path d="M296.898 437.109H296.841C296.584 437.094 296.344 436.978 296.173 436.786C296.001 436.594 295.912 436.341 295.925 436.084C298.497 388.865 277.295 288.079 277.09 287.067C277.063 286.942 277.061 286.813 277.085 286.687C277.108 286.561 277.156 286.441 277.225 286.334C277.294 286.227 277.384 286.134 277.489 286.062C277.594 285.989 277.712 285.938 277.836 285.912C277.961 285.885 278.09 285.884 278.215 285.907C278.34 285.93 278.459 285.978 278.566 286.048C278.673 286.117 278.765 286.208 278.837 286.313C278.909 286.418 278.96 286.537 278.986 286.662C279.201 287.678 300.45 388.728 297.87 436.189C297.857 436.439 297.748 436.673 297.567 436.844C297.386 437.016 297.146 437.11 296.898 437.109Z" fill="#A1DA67"/>
<path d="M294.002 445.337C293.942 445.201 293.862 445.017 293.764 444.787C293.525 444.227 293.176 443.39 292.738 442.291C291.861 440.092 290.63 436.842 289.212 432.641C286.375 424.24 282.791 412.038 279.806 396.849C273.872 366.652 270.309 324.654 279.688 277.228C280.054 277.573 280.569 278.073 281.207 278.738C282.579 280.167 284.524 282.352 286.802 285.37C291.359 291.405 297.25 300.768 302.56 314.059C313.156 340.577 321.449 382.753 312.19 445.358L294.002 445.337Z" stroke="#67676A"/>
<path d="M279.226 275.795L279.226 275.795C279.149 275.823 279.08 275.87 279.026 275.932C278.972 275.994 278.935 276.069 278.918 276.15C259.87 370.925 292.911 445.275 293.255 446.034L279.226 275.795ZM279.226 275.795C279.302 275.768 279.384 275.762 279.463 275.776C279.542 275.79 279.616 275.825 279.678 275.878L279.678 275.878M279.226 275.795L279.678 275.878M279.678 275.878L279.684 275.883M279.678 275.878L279.684 275.883M279.684 275.883C280.163 276.274 292.882 287.17 303.471 313.674C313.2 338.031 322.798 380.769 313.078 445.906C313.06 446.018 313.004 446.12 312.919 446.193C312.835 446.266 312.729 446.307 312.618 446.309H293.678M279.684 275.883L293.678 446.309M293.678 446.309C293.589 446.308 293.502 446.282 293.427 446.234M293.678 446.309L293.427 446.234M293.427 446.234C293.353 446.185 293.293 446.116 293.255 446.035L293.427 446.234ZM311.785 445.36H312.217L312.279 444.932C321.722 380.619 312.283 338.37 302.652 314.179L302.652 314.179C294.077 292.655 283.855 281.293 280.335 277.798L279.671 277.139L279.492 278.057C262.092 367.349 290.83 437.995 293.856 445.057L294.311 444.862V445.36H294.316H295.074H311.785Z" stroke="#67676A"/>
<path d="M301.881 438.61H301.884C302.003 438.61 302.119 438.565 302.207 438.482L302.55 438.845L302.207 438.482C302.294 438.399 302.347 438.285 302.354 438.163L302.354 438.163C303.641 414.493 298.983 377.415 293.966 346.089C288.951 314.782 283.588 289.276 283.48 288.766L301.881 438.61ZM301.881 438.61H301.841M301.881 438.61V439.11H301.824M301.824 439.11L301.852 438.61C301.849 438.61 301.845 438.61 301.841 438.61M301.824 439.11V438.61H301.841M301.824 439.11L301.841 438.61M301.841 438.61C301.721 438.6 301.609 438.544 301.528 438.454L301.156 438.787L301.528 438.454C301.445 438.36 301.401 438.237 301.408 438.111C302.696 414.441 298.029 377.39 293.026 346.169C288.208 316.11 283.069 291.402 282.596 289.131C282.578 289.042 282.566 288.987 282.563 288.968L282.563 288.968L282.562 288.964C282.549 288.903 282.548 288.84 282.559 288.779C282.571 288.717 282.594 288.659 282.628 288.606C282.661 288.554 282.705 288.509 282.756 288.474C282.807 288.439 282.864 288.415 282.924 288.402C282.984 288.389 283.046 288.388 283.106 288.399C283.166 288.411 283.224 288.434 283.276 288.468C283.328 288.501 283.372 288.545 283.407 288.596C283.442 288.647 283.467 288.705 283.48 288.766L301.841 438.61Z" stroke="#67676A"/>
<path d="M328.308 326.266C328.308 326.266 285.083 404.699 311.085 438.636H324.992C324.992 438.636 352.786 377.33 328.308 326.266Z" fill="#A1DA67"/>
<path d="M324.992 439.635H311.085C310.936 439.635 310.789 439.601 310.655 439.535C310.522 439.469 310.405 439.374 310.314 439.256C299.328 424.91 298.89 401.421 309.021 369.451C316.521 345.782 327.349 326.015 327.458 325.817C327.544 325.661 327.671 325.531 327.826 325.442C327.98 325.353 328.156 325.309 328.334 325.314C328.512 325.319 328.685 325.373 328.834 325.47C328.983 325.568 329.103 325.705 329.18 325.866C353.574 376.749 326.153 438.447 325.873 439.063C325.796 439.233 325.672 439.377 325.516 439.479C325.36 439.58 325.178 439.634 324.992 439.635ZM311.566 437.686H324.357C327.016 431.443 349.619 375.566 328.251 328.466C322.224 340.01 288.92 407.176 311.549 437.664L311.566 437.686Z" fill="#A1DA67"/>
<path d="M317.576 441.689C317.325 441.689 317.084 441.591 316.904 441.416C316.723 441.242 316.617 441.003 316.608 440.751C315.355 408.376 326.197 337.928 326.306 337.22C326.358 336.975 326.501 336.76 326.706 336.618C326.911 336.476 327.163 336.418 327.409 336.457C327.655 336.496 327.877 336.629 328.029 336.827C328.181 337.025 328.251 337.275 328.225 337.524C328.115 338.228 317.305 408.486 318.549 440.677C318.557 440.935 318.464 441.186 318.289 441.375C318.114 441.564 317.872 441.677 317.616 441.689H317.576Z" fill="#A1DA67"/>
<path d="M332.501 327.24C332.504 327.234 332.507 327.229 332.51 327.224C344.243 352.383 343.403 379.955 339.568 401.361C337.629 412.186 334.927 421.42 332.71 427.948C331.602 431.211 330.615 433.797 329.905 435.565C329.551 436.45 329.266 437.13 329.07 437.588C329.001 437.748 328.944 437.88 328.898 437.985H315.563C309.277 429.652 307.146 418.599 307.537 406.627C307.931 394.565 310.882 381.628 314.653 369.725C318.423 357.826 323.005 346.982 326.645 339.111C328.465 335.176 330.049 331.986 331.178 329.78C331.742 328.677 332.192 327.82 332.501 327.24Z" stroke="#67676A"/>
<path d="M313.729 369.451L313.729 369.451C321.213 345.829 332.024 326.096 332.127 325.909L332.128 325.907C332.169 325.831 332.231 325.768 332.306 325.725C332.38 325.682 332.465 325.661 332.551 325.663C332.636 325.666 332.72 325.692 332.792 325.739C332.864 325.786 332.922 325.852 332.959 325.931L332.96 325.932C345.093 351.24 344.35 379.265 340.518 401.078C336.686 422.884 329.778 438.421 329.648 438.705L329.648 438.707C329.61 438.79 329.55 438.86 329.475 438.909C329.399 438.958 329.312 438.984 329.222 438.984H315.315C315.243 438.984 315.172 438.968 315.107 438.936C315.042 438.904 314.985 438.858 314.94 438.801C304.114 424.662 303.606 401.392 313.729 369.451ZM315.406 437.847L315.557 438.035H315.797H328.588H328.918L329.048 437.731C330.386 434.589 336.718 419.018 340.039 398.326C343.359 377.64 343.678 351.784 332.937 328.109L332.514 327.175L332.039 328.084C329.019 333.868 319.168 353.58 312.904 375.674C309.771 386.721 307.53 398.384 307.495 409.211C307.461 420.035 309.633 430.07 315.378 437.811L315.383 437.818L315.389 437.825L315.406 437.847Z" stroke="#67676A"/>
<path d="M321.807 441.039H321.807C321.686 441.039 321.57 440.992 321.482 440.907C321.395 440.823 321.343 440.707 321.339 440.584L321.339 440.582C320.714 424.439 323.106 398.77 325.674 377.019C328.215 355.496 330.923 337.852 331.029 337.162C331.056 337.047 331.125 336.946 331.221 336.879C331.321 336.81 331.443 336.782 331.562 336.801C331.681 336.82 331.789 336.884 331.863 336.981C331.935 337.075 331.969 337.193 331.959 337.312C331.855 337.989 329.151 355.605 326.613 377.084C324.053 398.756 321.656 424.404 322.28 440.544C322.284 440.671 322.238 440.794 322.152 440.886C322.069 440.977 321.955 441.031 321.833 441.039H321.807Z" stroke="#67676A"/>
<path d="M244.905 355.016C244.905 355.016 281.7 367.629 295.056 442.326H280.575C280.575 442.326 250.35 401.293 244.905 355.016Z" fill="#A1DA67"/>
<path d="M295.056 443.295H280.574C280.423 443.294 280.273 443.258 280.138 443.189C280.002 443.121 279.885 443.021 279.795 442.899C279.488 442.485 249.355 401.135 243.941 355.122C243.921 354.958 243.943 354.792 244.004 354.639C244.066 354.486 244.165 354.352 244.292 354.248C244.42 354.144 244.571 354.075 244.733 354.046C244.895 354.017 245.061 354.03 245.216 354.083C245.601 354.215 254.791 357.466 265.712 370.009C275.712 381.5 289.086 403.339 296.011 442.159C296.036 442.3 296.03 442.444 295.993 442.582C295.957 442.72 295.891 442.848 295.8 442.957C295.709 443.067 295.595 443.155 295.467 443.215C295.338 443.276 295.198 443.307 295.056 443.308V443.295ZM281.069 441.346H293.878C282.195 377.642 252.987 359.956 246.061 356.578C251.642 399.01 278.025 437.069 281.069 441.346Z" fill="#A1DA67"/>
<path d="M287.141 441.187C286.911 441.187 286.688 441.105 286.513 440.956C286.337 440.807 286.22 440.601 286.181 440.373C280.701 407.105 256.986 373.608 256.745 373.273C256.595 373.063 256.535 372.802 256.576 372.547C256.618 372.292 256.759 372.064 256.969 371.914C257.178 371.763 257.438 371.702 257.692 371.744C257.945 371.787 258.172 371.928 258.322 372.138C258.567 372.473 282.546 406.344 288.109 440.056C288.149 440.311 288.088 440.572 287.937 440.781C287.787 440.99 287.561 441.132 287.307 441.174L287.141 441.187Z" fill="#A1DA67"/>
<path d="M248.492 356.102C248.713 356.198 248.979 356.317 249.287 356.464C250.301 356.946 251.772 357.72 253.582 358.883C257.203 361.208 262.183 365.088 267.585 371.296C278.328 383.644 290.757 405.221 297.448 442.135H283.819C283.768 442.065 283.705 441.977 283.63 441.872C283.409 441.562 283.083 441.101 282.666 440.497C281.832 439.289 280.634 437.511 279.178 435.231C276.266 430.672 272.326 424.11 268.216 416.105C260.093 400.283 251.319 378.848 248.492 356.102Z" stroke="#67676A"/>
<path d="M298.243 443.072C298.214 443.085 298.184 443.096 298.154 443.103H298.046H283.565C283.492 443.103 283.42 443.086 283.354 443.052C283.288 443.019 283.231 442.97 283.187 442.911L283.186 442.909C282.886 442.504 252.825 401.245 247.427 355.372L247.428 355.372L247.427 355.369C247.417 355.29 247.428 355.209 247.458 355.134C247.488 355.06 247.536 354.994 247.598 354.944C247.659 354.894 247.733 354.86 247.81 354.847C247.888 354.833 247.968 354.839 248.043 354.865L248.044 354.865C248.358 354.973 257.47 358.179 268.324 370.646C278.26 382.063 291.597 403.817 298.508 442.556L299.001 442.468L298.508 442.556C298.521 442.624 298.518 442.695 298.5 442.763C298.482 442.83 298.45 442.893 298.405 442.946L298.79 443.266L298.405 442.946C298.361 442.999 298.306 443.042 298.243 443.072ZM283.652 441.944L283.801 442.154H284.059H296.867H297.467L297.359 441.564C285.649 377.708 256.341 359.887 249.27 356.437L248.434 356.029L248.555 356.952C254.153 399.514 280.602 437.66 283.652 441.944Z" stroke="#67676A"/>
<path d="M260.905 372.738L260.905 372.738C260.832 372.635 260.722 372.567 260.6 372.547C260.477 372.527 260.352 372.556 260.25 372.629C260.149 372.702 260.08 372.813 260.06 372.937C260.039 373.062 260.069 373.19 260.142 373.292L259.735 373.582L260.141 373.29C260.271 373.471 266.273 381.949 272.93 394.548C279.585 407.143 286.912 423.889 289.664 440.6M260.905 372.738L289.171 440.682M260.905 372.738L260.909 372.743C260.909 372.743 260.909 372.744 260.91 372.745L260.915 372.752L260.933 372.777L260.994 372.864C261.046 372.938 261.12 373.043 261.215 373.18C261.404 373.453 261.676 373.848 262.019 374.358C262.707 375.379 263.683 376.857 264.864 378.727C267.228 382.467 270.416 387.775 273.769 394.123C280.479 406.826 287.836 423.666 290.605 440.445C290.624 440.57 290.594 440.697 290.521 440.799C290.451 440.896 290.348 440.963 290.232 440.986L290.114 440.996M260.905 372.738L290.13 441.496M289.664 440.6C289.664 440.6 289.664 440.601 289.664 440.601L289.171 440.682M289.664 440.6C289.664 440.6 289.664 440.599 289.664 440.599L289.171 440.682M289.664 440.6C289.683 440.711 289.741 440.812 289.826 440.884C289.907 440.953 290.009 440.992 290.114 440.996M289.171 440.682C289.209 440.91 289.327 441.116 289.502 441.265C289.678 441.414 289.901 441.496 290.13 441.496M290.114 440.996L290.091 440.998L290.13 441.496M290.114 440.996C290.119 440.996 290.125 440.996 290.13 440.996L290.13 441.496" stroke="#67676A"/>
<path d="M256.918 437.414H347.758L349.795 480.568C349.914 483.075 349.524 485.581 348.65 487.933C347.777 490.285 346.437 492.434 344.712 494.251C342.987 496.068 340.913 497.514 338.615 498.502C336.318 499.49 333.844 500 331.345 500H279.463C276.496 500 273.558 499.413 270.817 498.272C268.076 497.131 265.586 495.458 263.489 493.35C261.391 491.242 259.729 488.739 258.595 485.985C257.462 483.231 256.88 480.279 256.883 477.299L256.918 437.414Z" fill="#FFD152"/>
<path d="M255.088 474.288L255.088 474.288L255.122 435.402H344.01L346.002 477.603C346.114 479.976 345.746 482.347 344.919 484.573C344.092 486.798 342.824 488.832 341.192 490.551C339.561 492.269 337.599 493.637 335.426 494.572C333.253 495.506 330.914 495.988 328.55 495.988H276.669C273.834 495.988 271.026 495.427 268.407 494.337C265.788 493.246 263.408 491.648 261.403 489.633C259.399 487.618 257.809 485.225 256.726 482.592C255.642 479.959 255.086 477.138 255.088 474.288Z" stroke="#67676A" stroke-width="2"/>
<path d="M64.5105 166.564L64.5117 166.564C64.6451 166.584 64.7888 166.573 64.9143 166.534C65.042 166.494 65.1165 166.437 65.1483 166.4C65.1484 166.399 65.1485 166.399 65.1486 166.399L65.5325 166.719C79.4784 149.936 96.3063 134.249 115.652 119.999C115.83 119.868 115.926 119.698 115.919 119.526C115.913 119.354 115.805 119.193 115.619 119.08C115.433 118.967 115.184 118.91 114.927 118.923C114.671 118.935 114.427 119.015 114.249 119.146C94.7957 133.475 77.8741 149.249 63.8507 166.125L64.5105 166.564ZM64.5105 166.564C64.4608 166.556 64.416 166.545 64.3771 166.531L64.3768 166.531C64.3139 166.509 64.2717 166.483 64.2465 166.461C64.2407 166.457 64.2361 166.452 64.2324 166.448C64.2335 166.447 64.2346 166.446 64.2359 166.444M64.5105 166.564L64.2359 166.444M64.2359 166.444C78.2308 149.602 95.1218 133.856 114.546 119.548C114.631 119.485 114.776 119.43 114.951 119.422C115.127 119.414 115.273 119.455 115.359 119.507C115.384 119.522 115.4 119.536 115.41 119.546L64.2359 166.444ZM24.5875 331.361L24.5786 331.36C24.4651 331.343 24.3812 331.307 24.3301 331.272C24.2958 331.248 24.2844 331.232 24.282 331.227C13.5826 295.462 15.5488 258.964 30.1389 222.725L30.139 222.724C36.7722 206.23 45.9702 190.17 57.5802 174.817L57.5913 174.802L57.6014 174.787C57.6109 174.772 57.6347 174.744 57.6837 174.712C57.7322 174.68 57.7976 174.651 57.8775 174.629C57.9572 174.608 58.0439 174.597 58.1311 174.599C58.2183 174.6 58.2988 174.614 58.3669 174.636C58.4354 174.657 58.4831 174.685 58.5123 174.708C58.5203 174.715 58.5265 174.72 58.5312 174.725C58.5291 174.728 58.5268 174.73 58.524 174.734L58.512 174.747L58.5009 174.762C46.9062 190.096 37.7133 206.144 31.0804 222.636C16.4923 258.87 14.5157 295.397 25.2243 331.189C25.2206 331.195 25.2147 331.202 25.2055 331.212C25.1816 331.237 25.141 331.268 25.0795 331.297C25.0187 331.326 24.9449 331.349 24.8623 331.362C24.7693 331.376 24.6745 331.376 24.5875 331.361ZM125.032 142.698L125.052 142.683L125.07 142.665C125.101 142.637 125.15 142.603 125.221 142.574C125.291 142.546 125.373 142.525 125.462 142.516C125.552 142.507 125.64 142.512 125.72 142.527C125.801 142.542 125.865 142.567 125.911 142.594C125.941 142.611 125.959 142.627 125.97 142.638C125.958 142.654 125.933 142.679 125.891 142.706L125.873 142.717L125.857 142.73C91.5991 168.839 67.3817 199.049 53.9039 232.526C41.904 262.331 39.4039 292.498 46.4877 322.177C46.4832 322.184 46.4748 322.195 46.46 322.21C46.4011 322.266 46.2794 322.332 46.1061 322.356L46.1061 322.356L46.0951 322.358C46.0042 322.373 45.9106 322.375 45.8219 322.365C45.7109 322.346 45.6309 322.31 45.5838 322.276C45.5579 322.257 45.5473 322.244 45.5438 322.238C45.5436 322.238 45.5435 322.238 45.5434 322.238C38.4632 292.583 40.9549 262.439 52.9566 232.629C66.436 199.148 90.6771 168.879 125.032 142.698Z" fill="black" stroke="#67676A"/>
</svg>
