<svg width="436" height="316" viewBox="0 0 436 316" fill="none" xmlns="http://www.w3.org/2000/svg">
<path d="M310.858 6.21584L113.034 15.6626C96.3747 16.4676 80.1937 19.4759 65.5964 24.4821C50.9991 29.4883 38.3294 36.3745 28.4527 44.6703C18.5761 52.966 11.7251 62.476 8.36775 72.5505C5.0104 82.6251 5.22577 93.0269 8.99915 103.046L59.309 235.584C65.8765 252.907 82.7083 268.099 106.512 278.188C130.316 288.278 159.38 292.539 188.019 290.139L305.388 280.321C306.729 280.209 308.075 280.486 309.263 281.12L367.483 312.146C371.28 314.169 375.986 312.321 377.391 308.255L392.319 265.061C392.916 263.333 394.17 261.916 395.785 261.059C407.982 254.585 417.863 246.612 424.785 237.645C432.18 228.065 436.011 217.59 436 206.984V77.4683C436.001 67.6154 432.691 57.8689 426.278 48.8409C419.866 39.8128 410.489 31.6984 398.737 25.0072C386.986 18.316 373.112 13.1926 357.989 9.95879C342.866 6.72499 326.82 5.45066 310.858 6.21584Z" fill="#DDE5FF"/>
<path d="M305.858 1.21584L108.034 10.6626C91.3747 11.4676 75.1937 14.4759 60.5964 19.4821C45.9991 24.4883 33.3294 31.3745 23.4527 39.6703C13.5761 47.966 6.7251 57.476 3.36775 67.5505C0.0104029 77.6251 0.225767 88.0269 3.99915 98.0455L54.309 230.584C60.8765 247.907 77.7083 263.099 101.512 273.188C125.316 283.278 154.38 287.539 183.019 285.139L300.388 275.321C301.729 275.209 303.075 275.486 304.263 276.119L362.483 307.146C366.28 309.169 370.986 307.321 372.391 303.255L387.319 260.061C387.916 258.333 389.17 256.916 390.785 256.059C402.982 249.585 412.863 241.612 419.785 232.645C427.18 223.065 431.011 212.59 431 201.984V72.4683C431.001 62.6154 427.691 52.8689 421.278 43.8409C414.866 34.8128 405.489 26.6984 393.737 20.0072C381.986 13.316 368.112 8.19259 352.989 4.95879C337.866 1.72499 321.82 0.450662 305.858 1.21584Z" stroke="#67676A" stroke-miterlimit="10"/>
<path d="M41.5257 37.1854V37.1775L41.5254 37.1696C41.3359 31.1818 42.2075 25.208 44.0996 19.5269C45.8374 14.8902 48.8561 10.8484 52.801 7.87588L52.801 7.8759L52.8052 7.87266C55.3142 5.94004 58.0707 4.37376 60.9921 3.21154C63.5377 2.19885 66.1656 4.23962 66.1656 7.12118V8.99602C66.1656 10.669 65.1672 12.1985 63.8214 13.4077C63.1772 13.9865 62.5933 14.6338 62.0805 15.3399C61.6439 15.9411 61.2637 16.5786 60.9432 17.2441C60.4631 18.2408 60.6536 19.2583 61.2337 20.0083C61.8057 20.7478 62.7509 21.2267 63.8017 21.2267C65.1399 21.2267 66.2247 22.3115 66.2247 23.6498V46C66.2247 48.4853 64.21 50.5 61.7247 50.5H46.0257C43.5404 50.5 41.5257 48.4853 41.5257 46V37.1854ZM75.8305 37.1854V37.1775L75.8303 37.1696C75.6407 31.1817 76.5124 25.2077 78.4045 19.5265C80.135 14.8863 83.1548 10.8428 87.1051 7.87637L87.1052 7.87641L87.111 7.87192C89.6298 5.92196 92.4028 4.34677 95.3437 3.18561C97.8844 2.18247 100.5 4.22177 100.5 7.0962V8.95247C100.5 10.6457 99.4767 12.1892 98.1074 13.409C97.4705 13.9764 96.8927 14.6116 96.3849 15.3053C95.9398 15.9133 95.5536 16.5594 95.2298 17.2346C94.7534 18.2281 94.9453 19.2407 95.5244 19.9864C96.0954 20.7217 97.0372 21.197 98.0828 21.197C99.4178 21.197 100.5 22.2792 100.5 23.6142V46C100.5 48.4853 98.4853 50.5 96 50.5H80.3305C77.8452 50.5 75.8305 48.4853 75.8305 46V37.1854Z" fill="white" stroke="#67676A"/>
<path d="M415.474 249.815V249.823L415.475 249.83C415.664 255.818 414.792 261.792 412.9 267.473C411.163 272.11 408.144 276.152 404.199 279.124L404.199 279.124L404.195 279.127C401.686 281.06 398.929 282.626 396.008 283.788C393.462 284.801 390.834 282.76 390.834 279.879V278.004C390.834 276.331 391.833 274.802 393.179 273.592C393.823 273.013 394.407 272.366 394.919 271.66C395.356 271.059 395.736 270.421 396.057 269.756C396.537 268.759 396.346 267.742 395.766 266.992C395.194 266.252 394.249 265.773 393.198 265.773C391.86 265.773 390.775 264.688 390.775 263.35V241C390.775 238.515 392.79 236.5 395.275 236.5H410.974C413.46 236.5 415.474 238.515 415.474 241V249.815ZM381.169 249.815V249.823L381.17 249.83C381.359 255.818 380.488 261.792 378.595 267.473C376.865 272.114 373.845 276.157 369.895 279.124L369.895 279.124L369.889 279.128C367.37 281.078 364.597 282.653 361.656 283.814C359.116 284.818 356.5 282.778 356.5 279.904V278.048C356.5 276.354 357.523 274.811 358.893 273.591C359.529 273.024 360.107 272.388 360.615 271.695C361.06 271.087 361.446 270.441 361.77 269.765C362.247 268.772 362.055 267.759 361.476 267.014C360.905 266.278 359.963 265.803 358.917 265.803C357.582 265.803 356.5 264.721 356.5 263.386V241C356.5 238.515 358.515 236.5 361 236.5H376.669C379.155 236.5 381.169 238.515 381.169 241V249.815Z" fill="white" stroke="#67676A"/>
</svg>
