<svg width="250" height="250" viewBox="0 0 250 250" fill="none" xmlns="http://www.w3.org/2000/svg">
<path fill-rule="evenodd" clip-rule="evenodd" d="M128.013 230C70.7132 230 24.2627 183.55 24.2627 126.25C24.2627 68.9505 70.7132 22.5 128.013 22.5C185.312 22.5 231.763 68.9505 231.763 126.25C231.763 183.55 185.312 230 128.013 230ZM128.013 232.5C69.3324 232.5 21.7627 184.93 21.7627 126.25C21.7627 67.5697 69.3324 20 128.013 20C186.693 20 234.263 67.5697 234.263 126.25C234.263 184.93 186.693 232.5 128.013 232.5Z" fill="#67676A"/>
<path d="M180.126 83.8463C180.126 83.8463 222.122 51.2965 238.277 58.3823C254.427 65.4733 247.398 111.789 232.328 139.465C217.257 167.142 185.007 208.074 139.062 211.552C93.1167 215.03 54.66 202.654 30.5231 161.321C6.38635 119.988 15.0254 66.1709 23.3139 42.7999C31.6023 19.4288 38.7623 16.6486 50.7266 22.8389C62.691 29.0344 78.2325 48.9485 84.5215 64.8902C84.5215 64.8902 130.072 48.6778 180.126 83.8463Z" fill="#ACB3DB"/>
<path d="M189.938 90.6096C189.938 90.6096 215.187 66.5513 230.378 72.6999C245.569 78.8433 232.421 116.022 225.283 125.664C225.288 125.658 212.585 105.234 189.938 90.6096Z" fill="#EBCBCC"/>
<path d="M74.6279 65.6971C74.6279 65.6971 55.5749 33.1264 42.3451 35.3912C29.1153 37.6559 24.3493 69.0916 27.2637 87.7041C27.2582 87.7041 44.7226 73.1161 74.6279 65.6971Z" fill="#EBCBCC"/>
<path d="M195.302 105.812C195.302 105.812 184.981 100.277 182.335 99.2726C179.689 98.2678 180.746 91.7286 186.832 93.7383C192.919 95.7531 199.268 106.317 195.302 105.812Z" fill="#0B1411"/>
<path d="M61.9246 77.2812C61.9246 77.2812 67.4795 69.8466 74.8915 70.0965C82.3034 70.3464 80.7147 77.2812 78.0688 77.2812C71.1006 77.2812 61.9246 79.6865 61.9246 77.2812Z" fill="#0B1411"/>
<path d="M117.194 149.691C117.194 149.691 124.775 150.951 132.45 161.509C132.45 161.509 157.852 168.048 161.03 178.612C164.207 189.175 139.068 206.278 103.339 198.479C63.6718 189.821 57.1145 165.789 60.8177 157.995C64.5209 150.201 92.224 152.96 92.224 152.96C92.224 152.96 101.937 144.911 117.194 149.691Z" fill="white"/>
<path d="M132.45 168.803C132.45 168.803 118.157 170.063 112.34 159.244C112.34 159.244 104.928 164.778 91.1665 160.754C91.1665 160.754 85.4254 177.674 107.042 181.657C128.747 185.656 132.45 168.803 132.45 168.803Z" fill="#0B1411"/>
<path d="M111.463 170.76C118.443 173.004 122.507 176.727 124.644 179.33C120.815 181.714 115.199 183.162 107.042 181.657C97.872 179.97 93.6319 175.951 91.7803 171.885C95.9875 170.287 103.679 168.256 111.463 170.76Z" fill="#CF7071"/>
<path fill-rule="evenodd" clip-rule="evenodd" d="M113.9 163.388L117.061 149.55L112.187 148.437L109.026 162.275L113.9 163.388Z" fill="#0B1411"/>
<path d="M99.176 133.431C97.7846 138.252 108.04 149.69 113.863 150.945C119.686 152.205 133.771 147.629 135.162 142.808C136.554 137.987 129.624 131.979 119.686 129.386C109.749 126.793 100.567 128.61 99.176 133.431Z" fill="#CF7071"/>
<path d="M168.639 165.284C152.416 165.284 139.265 152.785 139.265 137.367C139.265 121.95 152.416 109.451 168.639 109.451C184.861 109.451 198.012 121.95 198.012 137.367C198.012 152.785 184.861 165.284 168.639 165.284Z" fill="white"/>
<path d="M164.465 153.319C154.532 153.319 146.48 145.667 146.48 136.227C146.48 126.787 154.532 119.135 164.465 119.135C174.397 119.135 182.449 126.787 182.449 136.227C182.449 145.667 174.397 153.319 164.465 153.319Z" fill="#6973BD"/>
<path d="M164.465 146.796C158.323 146.796 153.344 142.064 153.344 136.227C153.344 130.39 158.323 125.658 164.465 125.658C170.607 125.658 175.585 130.39 175.585 136.227C175.585 142.064 170.607 146.796 164.465 146.796Z" fill="#0B1411"/>
<path d="M161.725 134.16C158.93 134.16 156.663 132.007 156.663 129.35C156.663 126.693 158.93 124.539 161.725 124.539C164.521 124.539 166.787 126.693 166.787 129.35C166.787 132.007 164.521 134.16 161.725 134.16Z" fill="white"/>
<path d="M71.9824 145.853C55.7596 145.853 42.6085 133.355 42.6085 117.937C42.6085 102.519 55.7596 90.021 71.9824 90.021C88.2052 90.021 101.356 102.519 101.356 117.937C101.356 133.355 88.2052 145.853 71.9824 145.853Z" fill="white"/>
<path d="M76.8791 135.16C66.9463 135.16 58.8942 127.507 58.8942 118.067C58.8942 108.628 66.9463 100.975 76.8791 100.975C86.8118 100.975 94.8639 108.628 94.8639 118.067C94.8639 127.507 86.8118 135.16 76.8791 135.16Z" fill="#6973BD"/>
<path d="M76.8797 128.636C70.7379 128.636 65.759 123.904 65.759 118.067C65.759 112.23 70.7379 107.499 76.8797 107.499C83.0215 107.499 88.0004 112.23 88.0004 118.067C88.0004 123.904 83.0215 128.636 76.8797 128.636Z" fill="#0B1411"/>
<path d="M74.1409 116.001C71.3454 116.001 69.0791 113.847 69.0791 111.19C69.0791 108.533 71.3454 106.379 74.1409 106.379C76.9365 106.379 79.2028 108.533 79.2028 111.19C79.2028 113.847 76.9365 116.001 74.1409 116.001Z" fill="white"/>
<path fill-rule="evenodd" clip-rule="evenodd" d="M104.762 155.643C104.762 155.643 104.762 155.643 104.763 155.641L104.762 155.643C105.298 155.94 105.987 155.768 106.3 155.258C106.612 154.748 106.431 154.093 105.894 153.796L105.328 154.72C105.894 153.796 105.894 153.796 105.893 153.796L105.891 153.794L105.883 153.79L105.854 153.774C105.828 153.76 105.791 153.74 105.742 153.713C105.644 153.66 105.499 153.582 105.31 153.481C104.93 153.28 104.369 152.987 103.64 152.618C102.183 151.88 100.052 150.838 97.3476 149.617C91.9406 147.176 84.2369 144.014 75.0414 141.131C56.6719 135.373 32.2447 130.692 8.25662 135.178C7.64718 135.292 7.25035 135.854 7.37028 136.433C7.49021 137.013 8.0815 137.39 8.69094 137.276C32.1383 132.89 56.1381 137.456 74.3368 143.162C83.4254 146.011 91.041 149.136 96.3823 151.548C99.0524 152.754 101.153 153.781 102.583 154.505C103.298 154.867 103.846 155.153 104.213 155.348C104.396 155.445 104.535 155.52 104.627 155.57C104.673 155.595 104.707 155.614 104.73 155.626L104.755 155.639L104.76 155.643L104.762 155.643Z" fill="#0B1411"/>
<path fill-rule="evenodd" clip-rule="evenodd" d="M94.4118 154.3L94.4064 154.298L94.3852 154.289C94.3659 154.282 94.3362 154.269 94.2962 154.253C94.2162 154.221 94.0951 154.173 93.9343 154.111C93.6126 153.985 93.1316 153.802 92.5009 153.571C91.2395 153.109 89.3797 152.458 86.9984 151.709C82.2351 150.21 75.3889 148.317 67.0741 146.746C50.4359 143.601 27.9666 141.755 4.55247 146.895C3.94727 147.028 3.34332 146.669 3.20351 146.094C3.06371 145.519 3.44099 144.945 4.04618 144.812C27.8703 139.582 50.6808 141.468 67.5128 144.649C75.9332 146.241 82.8697 148.158 87.7054 149.68C90.1235 150.441 92.0172 151.103 93.3095 151.576C93.9557 151.812 94.4515 152.002 94.7875 152.133C94.9554 152.198 95.0834 152.249 95.1703 152.284C95.2137 152.301 95.2468 152.315 95.2695 152.324L95.2956 152.334L95.3049 152.338C95.3055 152.339 95.306 152.339 94.8589 153.319L95.306 152.339C95.876 152.573 96.1378 153.203 95.8909 153.744C95.644 154.286 94.9818 154.535 94.4118 154.3Z" fill="#0B1411"/>
<path fill-rule="evenodd" clip-rule="evenodd" d="M98.7402 158.95C98.7391 158.954 98.7391 158.954 98.7391 158.954L98.732 158.952L98.7067 158.945C98.6837 158.939 98.6487 158.93 98.6018 158.917C98.508 158.893 98.3668 158.856 98.18 158.808C97.8063 158.712 97.2504 158.573 96.5267 158.401C95.0792 158.058 92.961 157.582 90.2884 157.058C84.9425 156.009 77.3839 154.766 68.5431 153.992C50.8398 152.443 28.0965 152.785 7.68845 160.247C7.10875 160.459 6.45799 160.184 6.23495 159.633C6.01192 159.082 6.30106 158.464 6.88078 158.252C27.7507 150.621 50.8898 150.301 68.7494 151.864C77.69 152.646 85.333 153.903 90.7432 154.964C93.4488 155.495 95.5974 155.977 97.0721 156.328C97.8095 156.503 98.3785 156.645 98.7646 156.744C98.9577 156.793 99.105 156.832 99.2048 156.858C99.2546 156.871 99.2926 156.881 99.3185 156.888L99.3482 156.896L99.3585 156.899C99.3592 156.899 99.3596 156.899 99.0494 157.927L99.3596 156.899C99.9566 157.062 100.302 157.654 100.13 158.222C99.959 158.789 99.3361 159.117 98.7391 158.954L98.7402 158.95Z" fill="#0B1411"/>
<path fill-rule="evenodd" clip-rule="evenodd" d="M120.54 158.092C120.54 158.092 120.54 158.092 120.54 158.09L120.54 158.092C119.922 158.154 119.368 157.729 119.303 157.142C119.238 156.555 119.686 156.028 120.303 155.966L120.422 157.029C120.303 155.966 120.304 155.966 120.305 155.966L120.307 155.966L120.316 155.965L120.35 155.962C120.379 155.959 120.422 155.955 120.478 155.95C120.59 155.94 120.756 155.925 120.972 155.907C121.406 155.871 122.043 155.822 122.867 155.769C124.515 155.664 126.908 155.544 129.901 155.483C135.886 155.362 144.276 155.479 153.907 156.43C173.147 158.332 197.447 163.576 217.393 177.011C217.9 177.353 218.02 178.02 217.661 178.501C217.302 178.983 216.6 179.097 216.093 178.755C196.596 165.623 172.735 160.44 153.675 158.557C144.156 157.616 135.861 157.501 129.949 157.62C126.994 157.68 124.635 157.799 123.018 157.902C122.21 157.954 121.587 158.002 121.168 158.036C120.958 158.054 120.8 158.068 120.694 158.078C120.642 158.083 120.602 158.086 120.576 158.089L120.548 158.092L120.541 158.092L120.54 158.092Z" fill="#0B1411"/>
<path fill-rule="evenodd" clip-rule="evenodd" d="M130.56 160.898L130.566 160.898L130.589 160.899C130.61 160.899 130.643 160.899 130.686 160.9C130.773 160.902 130.904 160.906 131.078 160.911C131.425 160.922 131.943 160.942 132.618 160.977C133.968 161.047 135.945 161.178 138.44 161.422C143.431 161.91 150.492 162.85 158.755 164.655C175.287 168.267 196.579 175.333 215.72 189.142C216.215 189.499 216.921 189.407 217.296 188.937C217.672 188.466 217.575 187.796 217.08 187.439C197.604 173.389 175.984 166.225 159.258 162.571C150.891 160.743 143.737 159.791 138.67 159.296C136.136 159.048 134.123 158.914 132.741 158.842C132.049 158.806 131.515 158.786 131.152 158.775C130.971 158.769 130.832 158.765 130.738 158.763C130.691 158.762 130.655 158.762 130.63 158.761L130.602 158.761L130.592 158.761C130.592 158.761 130.591 158.761 130.575 159.829L130.591 158.761C129.969 158.753 129.459 159.225 129.451 159.815C129.443 160.405 129.939 160.89 130.56 160.898Z" fill="#0B1411"/>
<path fill-rule="evenodd" clip-rule="evenodd" d="M124.605 163.454C124.605 163.458 124.605 163.458 124.605 163.458L124.612 163.459L124.638 163.462C124.662 163.466 124.698 163.471 124.746 163.478C124.842 163.491 124.987 163.513 125.178 163.542C125.56 163.6 126.127 163.69 126.861 163.815C128.33 164.065 130.467 164.456 133.131 165.019C138.46 166.144 145.89 167.955 154.288 170.692C171.105 176.174 191.703 185.344 207.101 200.099C207.538 200.518 208.25 200.521 208.691 200.105C209.132 199.689 209.135 199.013 208.698 198.594C192.952 183.504 171.983 174.201 155.018 168.67C146.525 165.902 139.012 164.071 133.619 162.932C130.922 162.363 128.754 161.966 127.258 161.711C126.51 161.584 125.93 161.492 125.535 161.431C125.337 161.401 125.186 161.379 125.084 161.364C125.033 161.357 124.994 161.351 124.967 161.347L124.937 161.343L124.926 161.342C124.925 161.342 124.925 161.342 124.765 162.4L124.925 161.342C124.31 161.258 123.74 161.663 123.652 162.247C123.563 162.832 123.99 163.374 124.605 163.458L124.605 163.454Z" fill="#0B1411"/>
</svg>
