<svg width="805" height="576" viewBox="0 0 805 576" fill="none" xmlns="http://www.w3.org/2000/svg">
<path fill-rule="evenodd" clip-rule="evenodd" d="M173.402 660.966C80.4898 594.733 -83.7156 629.317 -130.291 526.461C-174.404 429.043 -56.4534 343.799 -11.6899 252.213C29.6048 167.724 35.5218 51.4958 121.301 11.7031C206.676 -27.9017 306.33 44.4343 402.516 60.0644C493.835 74.9037 600.845 36.8341 670.024 100.87C739.197 164.9 709.546 273.982 730.591 363.746C751.115 451.291 837.763 546.666 791.68 619.778C743.826 695.699 609.677 636.363 530.979 680.434C452.517 724.372 441.311 872.92 348.646 867.875C258.314 862.956 248.898 714.784 173.402 660.966Z" fill="#D0ECB3"/>
</svg>
