<svg width="183" height="408" viewBox="0 0 183 408" fill="none" xmlns="http://www.w3.org/2000/svg">
<path fill-rule="evenodd" clip-rule="evenodd" d="M-134.47 303.767C-181.172 270.422 -263.709 287.834 -287.12 236.05C-309.293 187.005 -250.006 144.088 -227.505 97.978C-206.749 55.4415 -203.775 -3.07411 -160.658 -23.108C-117.745 -43.0473 -67.6544 -6.62927 -19.3069 1.23981C26.5941 8.71072 80.3823 -10.4556 115.155 21.7837C149.925 54.0199 135.02 108.938 145.599 154.13C155.915 198.206 199.468 246.222 176.305 283.031C152.251 321.254 84.8219 291.381 45.2645 313.569C5.82596 335.69 0.193237 410.477 -46.3844 407.937C-91.7892 405.461 -96.5223 330.862 -134.47 303.767Z" fill="#D0ECB3"/>
</svg>
