<svg width="445" height="770" viewBox="0 0 445 770" fill="none" xmlns="http://www.w3.org/2000/svg">
<path fill-rule="evenodd" clip-rule="evenodd" d="M371.128 253.001C391.859 313.838 460.963 367.615 441.621 428.886C421.405 492.928 317.531 486.215 279.978 541.745C237.707 604.251 282.779 714.929 220.065 756.502C162.081 794.94 83.4692 741.858 19.6198 714.337C-33.6937 691.357 -73.7443 649.678 -117.292 611.089C-158.667 574.425 -197.53 538.014 -229.986 493.152C-270.937 436.549 -351.053 381.461 -332.163 314.087C-312.248 243.054 -207.747 243.072 -147.931 200.479C-107.361 171.59 -77.2838 133.382 -37.0862 103.97C14.925 65.9132 59.4344 10.0897 123.234 2.06815C190.799 -6.4269 267.731 10.9583 315.786 59.6026C363.583 107.985 349.13 188.443 371.128 253.001Z" fill="#DDE5FF"/>
</svg>
