<svg width="520" height="1050" viewBox="0 0 520 1050" fill="none" xmlns="http://www.w3.org/2000/svg">
<path fill-rule="evenodd" clip-rule="evenodd" d="M128.581 550.487C114.484 420.54 -42.4815 306.18 11.1082 188.079C61.8647 76.2217 227.214 112.441 341.549 81.1485C447.024 52.2805 552.809 -31.0238 653.726 12.1977C754.166 55.215 768.157 195.577 828.85 289.853C886.471 379.358 1002.29 442.076 999.966 550.023C997.643 657.96 879.747 715.5 817.835 801.779C757.454 885.924 741.335 1032.66 642.068 1048.78C538.987 1065.51 487.028 905.488 387.856 871.584C288.982 837.783 150.967 941.13 83.7766 857.919C18.2781 776.803 140.036 656.075 128.581 550.487Z" fill="#D0ECB3"/>
</svg>
