<svg width="388" height="310" viewBox="0 0 388 310" fill="none" xmlns="http://www.w3.org/2000/svg">
<path d="M350.348 239.761L386.577 35.2841L221.147 6.00732L179.625 240.357L315.222 264.354L350.348 239.761Z" fill="#FFF1CB"/>
<path fill-rule="evenodd" clip-rule="evenodd" d="M217.655 0.920188C217.703 0.648281 217.963 0.466867 218.235 0.51499L383.664 29.7917C383.936 29.8399 384.117 30.0993 384.069 30.3712L347.84 234.848C347.817 234.979 347.743 235.095 347.634 235.171L312.509 259.764C312.4 259.84 312.266 259.87 312.135 259.847L176.538 235.85C176.266 235.802 176.085 235.542 176.133 235.27L217.655 0.920188ZM218.553 1.58679L177.205 234.952L311.823 258.776L317.509 228.907C317.534 228.776 317.61 228.66 317.72 228.586C317.83 228.511 317.966 228.484 318.096 228.509L346.944 234.173L382.997 30.6893L218.553 1.58679ZM346.098 235.026L318.397 229.587L312.943 258.239L346.098 235.026Z" fill="#5B5B5B"/>
<path fill-rule="evenodd" clip-rule="evenodd" d="M243.656 75.9201C243.704 75.6482 243.964 75.4668 244.236 75.5149L353.536 94.8623C353.808 94.9104 353.99 95.1699 353.941 95.4418C353.893 95.7137 353.634 95.8951 353.362 95.847L244.061 76.4996C243.789 76.4515 243.608 76.192 243.656 75.9201Z" fill="#5B5B5B"/>
<path fill-rule="evenodd" clip-rule="evenodd" d="M242.656 82.9201C242.704 82.6482 242.964 82.4668 243.236 82.5149L352.536 101.862C352.808 101.91 352.99 102.17 352.941 102.442C352.893 102.714 352.634 102.895 352.362 102.847L243.061 83.4996C242.789 83.4515 242.608 83.192 242.656 82.9201Z" fill="#5B5B5B"/>
<path fill-rule="evenodd" clip-rule="evenodd" d="M241.656 89.9201C241.704 89.6482 241.964 89.4668 242.236 89.5149L351.536 108.862C351.808 108.91 351.99 109.17 351.941 109.442C351.893 109.714 351.634 109.895 351.362 109.847L242.061 90.4996C241.789 90.4515 241.608 90.192 241.656 89.9201Z" fill="#5B5B5B"/>
<path fill-rule="evenodd" clip-rule="evenodd" d="M237.284 73.28C237.473 73.4818 237.462 73.7982 237.26 73.9867L224.462 85.9392C224.346 86.0472 224.186 86.0941 224.03 86.0656C223.875 86.0372 223.742 85.9368 223.672 85.7949L220.323 78.9997C220.201 78.7521 220.303 78.4523 220.551 78.3302C220.798 78.2081 221.098 78.3099 221.22 78.5576L224.271 84.7488L236.578 73.2559C236.78 73.0674 237.096 73.0782 237.284 73.28Z" fill="#5B5B5B"/>
<path fill-rule="evenodd" clip-rule="evenodd" d="M217.656 70.9202C217.704 70.6483 217.964 70.4669 218.236 70.515L233.991 73.3032C234.263 73.3514 234.444 73.6108 234.396 73.8827L231.605 89.6373C231.556 89.9092 231.297 90.0906 231.025 90.0425L215.27 87.2543C214.998 87.2061 214.817 86.9467 214.865 86.6748L217.656 70.9202ZM218.554 71.5868L215.937 86.3567L230.707 88.9707L233.324 74.2008L218.554 71.5868Z" fill="#5B5B5B"/>
<path fill-rule="evenodd" clip-rule="evenodd" d="M238.656 102.92C238.704 102.648 238.964 102.467 239.236 102.515L348.536 121.862C348.808 121.91 348.99 122.17 348.941 122.442C348.893 122.714 348.634 122.895 348.362 122.847L239.061 103.5C238.789 103.451 238.608 103.192 238.656 102.92Z" fill="#5B5B5B"/>
<path fill-rule="evenodd" clip-rule="evenodd" d="M237.656 109.92C237.704 109.648 237.964 109.467 238.236 109.515L347.536 128.862C347.808 128.91 347.99 129.17 347.941 129.442C347.893 129.714 347.634 129.895 347.362 129.847L238.061 110.5C237.789 110.451 237.608 110.192 237.656 109.92Z" fill="#5B5B5B"/>
<path fill-rule="evenodd" clip-rule="evenodd" d="M236.656 116.92C236.704 116.648 236.964 116.467 237.236 116.515L346.536 135.862C346.808 135.91 346.99 136.17 346.941 136.442C346.893 136.714 346.634 136.895 346.362 136.847L237.061 117.5C236.789 117.451 236.608 117.192 236.656 116.92Z" fill="#5B5B5B"/>
<path fill-rule="evenodd" clip-rule="evenodd" d="M213.656 97.9202C213.704 97.6483 213.964 97.4669 214.236 97.515L229.991 100.303C230.263 100.351 230.444 100.611 230.396 100.883L227.605 116.637C227.556 116.909 227.297 117.091 227.025 117.043L211.27 114.254C210.998 114.206 210.817 113.947 210.865 113.675L213.656 97.9202ZM214.554 98.5868L211.937 113.357L226.707 115.971L229.324 101.201L214.554 98.5868Z" fill="#5B5B5B"/>
<path fill-rule="evenodd" clip-rule="evenodd" d="M233.654 129.921C233.702 129.649 233.962 129.467 234.234 129.515L343.535 148.863C343.806 148.911 343.988 149.17 343.94 149.442C343.892 149.714 343.632 149.896 343.36 149.848L234.059 130.5C233.787 130.452 233.606 130.193 233.654 129.921Z" fill="#5B5B5B"/>
<path fill-rule="evenodd" clip-rule="evenodd" d="M232.654 136.921C232.702 136.649 232.962 136.467 233.234 136.515L316.933 151.331C317.204 151.379 317.386 151.638 317.338 151.91C317.29 152.182 317.03 152.364 316.758 152.316L233.059 137.5C232.787 137.452 232.606 137.192 232.654 136.921Z" fill="#5B5B5B"/>
<path fill-rule="evenodd" clip-rule="evenodd" d="M231.655 143.921C231.703 143.649 231.963 143.468 232.235 143.516L315.934 158.331C316.205 158.379 316.387 158.639 316.339 158.911C316.291 159.183 316.031 159.364 315.759 159.316L232.06 144.5C231.788 144.452 231.607 144.193 231.655 143.921Z" fill="#5B5B5B"/>
<path fill-rule="evenodd" clip-rule="evenodd" d="M208.656 124.92C208.704 124.648 208.964 124.467 209.236 124.515L224.991 127.303C225.263 127.351 225.444 127.611 225.396 127.883L222.605 143.637C222.556 143.909 222.297 144.091 222.025 144.043L206.27 141.254C205.998 141.206 205.817 140.947 205.865 140.675L208.656 124.92ZM209.554 125.587L206.937 140.357L221.707 142.971L224.324 128.201L209.554 125.587Z" fill="#5B5B5B"/>
<path fill-rule="evenodd" clip-rule="evenodd" d="M280.654 183.919C280.702 183.647 280.962 183.466 281.234 183.514L331.453 192.403C331.725 192.451 331.906 192.711 331.858 192.983C331.81 193.255 331.551 193.436 331.279 193.388L281.059 184.499C280.787 184.451 280.606 184.191 280.654 183.919Z" fill="#5B5B5B"/>
<path fill-rule="evenodd" clip-rule="evenodd" d="M279.655 190.919C279.703 190.648 279.963 190.466 280.234 190.514L330.454 199.404C330.726 199.452 330.907 199.711 330.859 199.983C330.811 200.255 330.551 200.436 330.279 200.388L280.06 191.499C279.788 191.451 279.607 191.191 279.655 190.919Z" fill="#5B5B5B"/>
<path fill-rule="evenodd" clip-rule="evenodd" d="M278.655 197.92C278.703 197.648 278.963 197.466 279.235 197.514L329.454 206.404C329.726 206.452 329.907 206.711 329.859 206.983C329.811 207.255 329.551 207.437 329.28 207.388L279.06 198.499C278.788 198.451 278.607 198.192 278.655 197.92Z" fill="#5B5B5B"/>
<path fill-rule="evenodd" clip-rule="evenodd" d="M276.656 204.92C276.704 204.648 276.964 204.467 277.236 204.515L327.455 213.404C327.727 213.452 327.908 213.712 327.86 213.984C327.812 214.255 327.553 214.437 327.281 214.389L277.061 205.499C276.79 205.451 276.608 205.192 276.656 204.92Z" fill="#5B5B5B"/>
<path fill-rule="evenodd" clip-rule="evenodd" d="M223.656 172.92C223.704 172.648 223.964 172.467 224.235 172.515L257.715 178.441C257.987 178.489 258.168 178.749 258.12 179.021C258.072 179.292 257.812 179.474 257.541 179.426L224.061 173.5C223.789 173.451 223.608 173.192 223.656 172.92Z" fill="#5B5B5B"/>
<path fill-rule="evenodd" clip-rule="evenodd" d="M222.656 179.92C222.704 179.648 222.964 179.467 223.235 179.515L256.715 185.441C256.987 185.489 257.168 185.749 257.12 186.021C257.072 186.292 256.812 186.474 256.541 186.426L223.061 180.5C222.789 180.451 222.608 180.192 222.656 179.92Z" fill="#5B5B5B"/>
<path fill-rule="evenodd" clip-rule="evenodd" d="M204.656 183.92C204.704 183.648 204.964 183.467 205.235 183.515L255.455 192.404C255.727 192.452 255.908 192.712 255.86 192.984C255.812 193.256 255.552 193.437 255.28 193.389L205.061 184.5C204.789 184.451 204.608 184.192 204.656 183.92Z" fill="#5B5B5B"/>
<path fill-rule="evenodd" clip-rule="evenodd" d="M202.656 190.92C202.704 190.648 202.964 190.467 203.235 190.515L253.455 199.404C253.727 199.452 253.908 199.712 253.86 199.984C253.812 200.256 253.552 200.437 253.28 200.389L203.061 191.5C202.789 191.451 202.608 191.192 202.656 190.92Z" fill="#5B5B5B"/>
<path fill-rule="evenodd" clip-rule="evenodd" d="M202.656 158.92C202.704 158.648 202.964 158.467 203.236 158.515L266.256 169.668C266.528 169.716 266.71 169.976 266.662 170.247L259.509 210.619C259.46 210.891 259.201 211.072 258.929 211.024L195.908 199.871C195.636 199.823 195.455 199.563 195.503 199.291L200.506 171.055C200.554 170.783 200.814 170.602 201.086 170.65C201.358 170.698 201.539 170.957 201.491 171.229L196.575 198.973L258.611 209.952L265.59 170.566L203.061 159.5C202.789 159.452 202.608 159.192 202.656 158.92Z" fill="#5B5B5B"/>
<path d="M228.148 18.0073L291.169 29.1604L284.016 69.5316L220.996 58.3785L226 30.1324" fill="white"/>
<path fill-rule="evenodd" clip-rule="evenodd" d="M227.656 17.9202C227.704 17.6483 227.964 17.4669 228.236 17.515L291.256 28.6681C291.528 28.7162 291.71 28.9756 291.662 29.2475L284.509 69.6187C284.46 69.8906 284.201 70.0721 283.929 70.0239L220.908 58.8709C220.636 58.8227 220.455 58.5633 220.503 58.2914L225.508 30.0453C225.556 29.7734 225.815 29.5919 226.087 29.6401C226.359 29.6882 226.541 29.9476 226.492 30.2195L221.575 57.9733L283.611 68.9521L290.59 29.5656L228.061 18.4997C227.789 18.4515 227.608 18.1921 227.656 17.9202Z" fill="#5B5B5B"/>
<path fill-rule="evenodd" clip-rule="evenodd" d="M202.657 214.917C202.707 214.645 202.968 214.465 203.239 214.516L308.461 233.945C308.732 233.995 308.912 234.256 308.861 234.527C308.811 234.799 308.55 234.978 308.279 234.928L203.058 215.499C202.786 215.449 202.607 215.188 202.657 214.917Z" fill="#5B5B5B"/>
<path fill-rule="evenodd" clip-rule="evenodd" d="M307.003 242.744C306.955 243.016 306.696 243.198 306.424 243.15L201.049 224.573C200.777 224.525 200.595 224.265 200.643 223.993C200.691 223.721 200.95 223.54 201.222 223.588L306.598 242.165C306.869 242.213 307.051 242.472 307.003 242.744Z" fill="#5B5B5B"/>
<path fill-rule="evenodd" clip-rule="evenodd" d="M229.656 29.9201C229.704 29.6482 229.964 29.4668 230.236 29.5149L287.348 39.6244C287.62 39.6725 287.801 39.932 287.753 40.2039C287.705 40.4758 287.445 40.6572 287.173 40.6091L230.061 30.4996C229.789 30.4515 229.608 30.192 229.656 29.9201Z" fill="#5B5B5B"/>
<path fill-rule="evenodd" clip-rule="evenodd" d="M215.862 100.598C216.088 100.439 216.4 100.494 216.558 100.721L224.66 112.31C224.818 112.536 224.763 112.848 224.537 113.006C224.311 113.164 223.999 113.109 223.841 112.883L215.739 101.294C215.58 101.068 215.636 100.756 215.862 100.598Z" fill="#5B5B5B"/>
<path fill-rule="evenodd" clip-rule="evenodd" d="M226.405 102.463C226.563 102.689 226.508 103.001 226.282 103.159L214.69 111.263C214.464 111.422 214.152 111.366 213.994 111.14C213.836 110.914 213.891 110.602 214.117 110.444L225.709 102.34C225.935 102.182 226.247 102.237 226.405 102.463Z" fill="#5B5B5B"/>
<path d="M340.479 156.018L334.322 154.928C334.314 153.574 333.828 152.267 332.952 151.239C332.075 150.212 330.864 149.53 329.533 149.315C329.458 149.301 329.381 149.31 329.312 149.342C329.243 149.374 329.186 149.427 329.148 149.493C329.111 149.559 329.094 149.635 329.102 149.711C329.109 149.787 329.14 149.858 329.189 149.916C329.657 150.502 329.949 151.209 330.032 151.956C330.114 152.702 329.984 153.457 329.656 154.134L326.803 153.628C325.35 153.377 323.857 153.712 322.648 154.562C321.439 155.411 320.613 156.705 320.349 158.162L318.586 168.116C318.333 169.573 318.665 171.072 319.509 172.282C320.353 173.493 321.641 174.319 323.091 174.578L336.762 176.997C338.211 177.251 339.703 176.918 340.911 176.069C342.118 175.221 342.942 173.928 343.203 172.472L344.967 162.519C345.098 161.795 345.085 161.053 344.931 160.335C344.776 159.616 344.482 158.936 344.065 158.332C343.648 157.729 343.117 157.214 342.502 156.816C341.886 156.419 341.199 156.148 340.479 156.018Z" fill="white"/>
<path d="M333.332 150.915C332.38 149.799 331.064 149.057 329.618 148.822C329.443 148.791 329.263 148.814 329.102 148.889C328.939 148.965 328.803 149.089 328.714 149.245C328.625 149.401 328.587 149.581 328.604 149.759C328.621 149.934 328.69 150.099 328.803 150.233C329.209 150.744 329.463 151.36 329.535 152.011C329.593 152.54 329.53 153.074 329.351 153.572L326.89 153.136L326.888 153.136C325.305 152.862 323.678 153.227 322.361 154.152C321.044 155.078 320.144 156.487 319.857 158.073L319.857 158.075L318.093 168.028L318.093 168.03C317.818 169.618 318.179 171.249 319.099 172.568C320.018 173.888 321.423 174.788 323.003 175.07L336.675 177.49C338.256 177.767 339.883 177.403 341.198 176.479C342.514 175.554 343.412 174.144 343.695 172.559L345.459 162.607C345.601 161.819 345.588 161.011 345.419 160.229C345.251 159.447 344.931 158.706 344.477 158.048C344.023 157.391 343.444 156.829 342.773 156.396C342.102 155.964 341.353 155.668 340.568 155.526L338.126 155.094L340.391 156.51C341.046 156.628 341.671 156.875 342.231 157.237C342.791 157.598 343.274 158.067 343.654 158.617C344.033 159.166 344.301 159.786 344.442 160.44C344.583 161.094 344.594 161.77 344.475 162.43L344.474 162.431L342.711 172.385C342.473 173.711 341.722 174.888 340.623 175.66C339.525 176.432 338.167 176.736 336.849 176.505L323.178 174.086C321.859 173.85 320.687 173.099 319.919 171.997C319.151 170.894 318.848 169.53 319.078 168.202L320.841 158.25C321.082 156.923 321.835 155.744 322.935 154.971C324.036 154.197 325.395 153.892 326.716 154.121L329.942 154.692L330.106 154.352C330.475 153.591 330.622 152.741 330.529 151.9C330.448 151.171 330.189 150.474 329.778 149.872C330.863 150.119 331.844 150.711 332.571 151.564C332.603 151.602 332.635 151.64 332.666 151.678L334.429 152.781C334.177 152.104 333.807 151.472 333.332 150.915Z" fill="#67676A"/>
<path d="M333.822 154.931L333.824 155.348L340.391 156.51L338.126 155.094L334.805 154.506C334.762 153.913 334.634 153.332 334.429 152.781L332.666 151.678C333.406 152.597 333.815 153.744 333.822 154.931Z" fill="#67676A"/>
<path d="M199.9 171.946L206.054 173.035C206.062 174.389 206.547 175.697 207.422 176.725C208.298 177.754 209.509 178.438 210.84 178.656C210.915 178.668 210.992 178.658 211.062 178.626C211.131 178.593 211.189 178.54 211.227 178.474C211.266 178.408 211.283 178.332 211.277 178.255C211.272 178.179 211.243 178.106 211.195 178.047C210.724 177.462 210.43 176.755 210.345 176.008C210.261 175.261 210.39 174.505 210.718 173.829L213.591 174.337C215.04 174.588 216.53 174.253 217.736 173.406C218.942 172.558 219.766 171.267 220.03 169.813L221.794 159.854C222.047 158.398 221.716 156.903 220.875 155.693C220.033 154.483 218.748 153.658 217.301 153.396L203.616 150.975C202.167 150.724 200.677 151.058 199.471 151.906C198.265 152.753 197.44 154.044 197.177 155.498L195.413 165.458C195.151 166.917 195.477 168.42 196.318 169.636C197.16 170.853 198.448 171.683 199.9 171.946Z" fill="white"/>
<path fill-rule="evenodd" clip-rule="evenodd" d="M203.702 150.482L203.704 150.482L217.39 152.904C218.968 153.189 220.368 154.089 221.285 155.407C222.202 156.725 222.562 158.354 222.287 159.939L222.287 159.941L220.522 169.901L220.522 169.902C220.235 171.485 219.337 172.892 218.023 173.815C216.709 174.738 215.085 175.103 213.505 174.83L213.503 174.829L211.023 174.391C210.845 174.889 210.782 175.423 210.842 175.952C210.916 176.605 211.173 177.222 211.584 177.732C211.696 177.871 211.763 178.04 211.776 178.217C211.79 178.395 211.749 178.572 211.659 178.726C211.57 178.88 211.435 179.003 211.274 179.078C211.113 179.154 210.932 179.178 210.757 179.149C209.31 178.911 207.994 178.168 207.042 177.049C206.18 176.037 205.667 174.778 205.571 173.457L199.813 172.438L199.811 172.438C198.228 172.151 196.824 171.246 195.907 169.921C194.991 168.595 194.636 166.959 194.92 165.37C194.92 165.37 194.92 165.37 194.92 165.37L196.685 155.411L196.685 155.409C196.972 153.826 197.87 152.42 199.184 151.497C200.498 150.573 202.122 150.208 203.702 150.482ZM210.757 179.149C210.756 179.148 210.756 179.148 210.755 179.148L210.84 178.655L210.759 179.149C210.758 179.149 210.758 179.149 210.757 179.149ZM203.53 151.467C202.212 151.239 200.856 151.543 199.759 152.315C198.661 153.086 197.909 154.262 197.67 155.586L195.905 165.545C195.667 166.874 195.964 168.244 196.73 169.352C197.496 170.459 198.668 171.215 199.989 171.453C199.989 171.453 199.989 171.453 199.989 171.453L206.552 172.615L206.555 173.032C206.561 174.269 207.004 175.462 207.803 176.401C208.534 177.26 209.52 177.855 210.612 178.102C210.194 177.498 209.931 176.798 209.848 176.065C209.753 175.224 209.899 174.373 210.268 173.611L210.433 173.27L213.677 173.845C214.995 174.073 216.351 173.768 217.448 172.997C218.546 172.225 219.298 171.049 219.537 169.725C219.537 169.725 219.537 169.725 219.537 169.725L221.302 159.769C221.302 159.768 221.302 159.769 221.302 159.769C221.532 158.443 221.23 157.08 220.464 155.979C219.698 154.877 218.529 154.126 217.213 153.888L203.53 151.467Z" fill="#5B5B5B"/>
<path d="M209.017 155.754C209.08 155.554 209.23 155.384 209.436 155.279C209.642 155.173 209.89 155.138 210.134 155.182C210.378 155.225 210.6 155.343 210.757 155.513C210.914 155.682 210.996 155.893 210.986 156.103L209.332 165.44C209.269 165.641 209.12 165.81 208.914 165.916C208.707 166.021 208.459 166.056 208.215 166.013C207.971 165.97 207.75 165.852 207.592 165.682C207.435 165.512 207.353 165.302 207.363 165.091L209.017 155.754Z" fill="#5B5B5B"/>
<path d="M207.785 169.151C207.588 169.116 207.407 169.023 207.264 168.885C207.121 168.746 207.022 168.568 206.981 168.373C206.94 168.178 206.958 167.975 207.033 167.791C207.108 167.606 207.236 167.448 207.401 167.337C207.567 167.225 207.761 167.166 207.961 167.166C208.16 167.166 208.355 167.226 208.52 167.338C208.685 167.449 208.813 167.607 208.887 167.792C208.962 167.977 208.979 168.18 208.938 168.375C208.886 168.63 208.736 168.854 208.52 168.999C208.305 169.145 208.04 169.199 207.785 169.151Z" fill="#5B5B5B"/>
<path fill-rule="evenodd" clip-rule="evenodd" d="M282.861 172.597C283.087 172.439 283.399 172.494 283.557 172.721L285.988 176.197C286.146 176.424 286.091 176.735 285.865 176.894L282.387 179.325C282.161 179.483 281.849 179.428 281.691 179.202C281.533 178.975 281.588 178.664 281.814 178.505L284.882 176.361L282.738 173.294C282.579 173.067 282.635 172.756 282.861 172.597Z" fill="#5B5B5B"/>
<path fill-rule="evenodd" clip-rule="evenodd" d="M287.861 173.598C288.087 173.439 288.399 173.494 288.557 173.721L290.988 177.197C291.146 177.424 291.091 177.735 290.865 177.894L287.387 180.325C287.161 180.483 286.849 180.428 286.691 180.202C286.533 179.975 286.588 179.664 286.814 179.506L289.882 177.361L287.738 174.294C287.579 174.068 287.635 173.756 287.861 173.598Z" fill="#5B5B5B"/>
<path fill-rule="evenodd" clip-rule="evenodd" d="M291.861 174.598C292.087 174.439 292.399 174.494 292.557 174.721L294.988 178.197C295.146 178.424 295.091 178.735 294.865 178.894L291.387 181.325C291.161 181.483 290.849 181.428 290.691 181.202C290.533 180.975 290.588 180.664 290.814 180.506L293.882 178.361L291.738 175.294C291.579 175.068 291.635 174.756 291.861 174.598Z" fill="#5B5B5B"/>
<path fill-rule="evenodd" clip-rule="evenodd" d="M328.512 219.243C328.671 219.47 328.615 219.782 328.389 219.94L325.321 222.084L327.466 225.151C327.624 225.378 327.568 225.689 327.342 225.848C327.116 226.006 326.804 225.951 326.646 225.725L324.215 222.248C324.057 222.021 324.112 221.71 324.339 221.552L327.816 219.12C328.042 218.962 328.354 219.017 328.512 219.243Z" fill="#5B5B5B"/>
<path fill-rule="evenodd" clip-rule="evenodd" d="M324.512 218.243C324.671 218.47 324.615 218.782 324.389 218.94L321.321 221.084L323.466 224.151C323.624 224.378 323.568 224.689 323.342 224.848C323.116 225.006 322.804 224.951 322.646 224.725L320.215 221.248C320.057 221.021 320.112 220.71 320.339 220.552L323.816 218.12C324.042 217.962 324.354 218.017 324.512 218.243Z" fill="#5B5B5B"/>
<path fill-rule="evenodd" clip-rule="evenodd" d="M319.512 217.244C319.671 217.47 319.615 217.782 319.389 217.94L316.321 220.085L318.466 223.152C318.624 223.378 318.569 223.69 318.342 223.848C318.116 224.006 317.804 223.951 317.646 223.725L315.215 220.248C315.057 220.021 315.112 219.71 315.339 219.552L318.816 217.12C319.042 216.962 319.354 217.017 319.512 217.244Z" fill="#5B5B5B"/>
<path d="M175.797 79.2031L207.427 283.559L41.3979 309.218L5.14766 75.0071L141.226 53.9768L175.797 79.2031Z" fill="#DDE5FF"/>
<path fill-rule="evenodd" clip-rule="evenodd" d="M0.653321 71.0836C0.611083 70.8107 0.798074 70.5553 1.07098 70.5131L137.149 49.4828C137.28 49.4626 137.414 49.495 137.521 49.5731L172.092 74.7993C172.199 74.8777 172.271 74.9955 172.291 75.1268L203.921 279.483C203.963 279.756 203.776 280.011 203.503 280.054L37.4742 305.713C37.2013 305.755 36.9458 305.568 36.9035 305.295L0.653321 71.0836ZM1.71807 71.425L37.8153 304.648L202.856 279.142L171.38 75.7795L140.082 80.9931C139.945 81.0159 139.805 80.9806 139.694 80.8956C139.584 80.8106 139.515 80.6836 139.502 80.545L136.776 50.5524L1.71807 71.425ZM137.824 51.0321L170.541 74.9056L140.449 79.9182L137.824 51.0321Z" fill="#5B5B5B"/>
<path fill-rule="evenodd" clip-rule="evenodd" d="M25.7451 125.712C25.9082 125.489 26.2211 125.44 26.4439 125.604L29.8676 128.11C30.0904 128.273 30.1388 128.586 29.9757 128.809L27.4698 132.232C27.3067 132.455 26.9938 132.503 26.771 132.34C26.5482 132.177 26.4997 131.864 26.6628 131.641L28.8734 128.621L25.8533 126.41C25.6304 126.247 25.582 125.934 25.7451 125.712Z" fill="#5B5B5B"/>
<path fill-rule="evenodd" clip-rule="evenodd" d="M30.7451 124.712C30.9082 124.489 31.2211 124.44 31.4439 124.604L34.8676 127.11C35.0904 127.273 35.1388 127.586 34.9757 127.809L32.4698 131.232C32.3067 131.455 31.9938 131.503 31.771 131.34C31.5482 131.177 31.4997 130.864 31.6628 130.641L33.8734 127.621L30.8533 125.41C30.6304 125.247 30.582 124.934 30.7451 124.712Z" fill="#5B5B5B"/>
<path fill-rule="evenodd" clip-rule="evenodd" d="M34.7451 124.712C34.9082 124.489 35.2211 124.44 35.4439 124.604L38.8676 127.11C39.0904 127.273 39.1388 127.586 38.9757 127.809L36.4698 131.232C36.3067 131.455 35.9938 131.503 35.771 131.34C35.5482 131.177 35.4997 130.864 35.6628 130.641L37.8734 127.621L34.8533 125.41C34.6304 125.247 34.582 124.934 34.7451 124.712Z" fill="#5B5B5B"/>
<path fill-rule="evenodd" clip-rule="evenodd" d="M159.41 105.145C159.632 105.309 159.681 105.621 159.518 105.844L157.307 108.864L160.327 111.075C160.55 111.238 160.599 111.551 160.435 111.774C160.272 111.996 159.959 112.045 159.737 111.882L156.313 109.375C156.09 109.212 156.042 108.899 156.205 108.676L158.711 105.253C158.874 105.031 159.187 104.982 159.41 105.145Z" fill="#5B5B5B"/>
<path fill-rule="evenodd" clip-rule="evenodd" d="M155.409 105.146C155.631 105.309 155.68 105.622 155.517 105.844L153.306 108.864L156.326 111.075C156.549 111.238 156.598 111.551 156.434 111.774C156.271 111.997 155.959 112.045 155.736 111.882L152.312 109.375C152.089 109.212 152.041 108.899 152.204 108.677L154.71 105.254C154.873 105.031 155.186 104.983 155.409 105.146Z" fill="#5B5B5B"/>
<path fill-rule="evenodd" clip-rule="evenodd" d="M150.409 106.146C150.632 106.309 150.68 106.622 150.517 106.844L148.306 109.864L151.327 112.075C151.549 112.238 151.598 112.551 151.435 112.774C151.272 112.997 150.959 113.045 150.736 112.882L147.312 110.375C147.089 110.212 147.041 109.899 147.204 109.676L149.71 106.254C149.873 106.031 150.186 105.982 150.409 106.146Z" fill="#5B5B5B"/>
<path fill-rule="evenodd" clip-rule="evenodd" d="M45.6533 129.084C45.6111 128.811 45.7981 128.555 46.071 128.513L141.932 113.693C142.205 113.651 142.46 113.838 142.503 114.111C142.545 114.383 142.358 114.639 142.085 114.681L46.2239 129.501C45.951 129.544 45.6955 129.357 45.6533 129.084Z" fill="#5B5B5B"/>
<path fill-rule="evenodd" clip-rule="evenodd" d="M45.7441 257.712C45.9072 257.489 46.2201 257.441 46.4429 257.604L49.8665 260.11C50.0894 260.273 50.1378 260.586 49.9747 260.809L47.4687 264.232C47.3056 264.455 46.9927 264.503 46.7699 264.34C46.547 264.177 46.4986 263.864 46.6617 263.641L48.8724 260.622L45.8523 258.411C45.6294 258.247 45.581 257.935 45.7441 257.712Z" fill="#5B5B5B"/>
<path fill-rule="evenodd" clip-rule="evenodd" d="M50.7441 256.712C50.9072 256.489 51.2201 256.441 51.4429 256.604L54.8666 259.11C55.0894 259.273 55.1378 259.586 54.9747 259.809L52.4688 263.232C52.3057 263.455 51.9928 263.503 51.77 263.34C51.5471 263.177 51.4987 262.864 51.6618 262.641L53.8725 259.622L50.8523 257.41C50.6294 257.247 50.581 256.935 50.7441 256.712Z" fill="#5B5B5B"/>
<path fill-rule="evenodd" clip-rule="evenodd" d="M54.7441 256.712C54.9072 256.489 55.2201 256.441 55.4429 256.604L58.8666 259.11C59.0894 259.273 59.1378 259.586 58.9747 259.809L56.4688 263.232C56.3057 263.455 55.9928 263.503 55.77 263.34C55.5471 263.177 55.4987 262.864 55.6618 262.641L57.8725 259.622L54.8523 257.41C54.6294 257.247 54.581 256.935 54.7441 256.712Z" fill="#5B5B5B"/>
<path fill-rule="evenodd" clip-rule="evenodd" d="M65.6533 261.084C65.6111 260.811 65.7981 260.555 66.071 260.513L109.554 253.79C109.827 253.748 110.083 253.935 110.125 254.208C110.167 254.481 109.98 254.737 109.707 254.779L66.2239 261.501C65.951 261.544 65.6955 261.357 65.6533 261.084Z" fill="#5B5B5B"/>
<path fill-rule="evenodd" clip-rule="evenodd" d="M66.6533 268.084C66.6111 267.811 66.7981 267.555 67.071 267.513L110.554 260.79C110.827 260.748 111.083 260.935 111.125 261.208C111.167 261.481 110.98 261.736 110.707 261.779L67.2239 268.501C66.951 268.544 66.6955 268.356 66.6533 268.084Z" fill="#5B5B5B"/>
<path fill-rule="evenodd" clip-rule="evenodd" d="M67.6533 276.083C67.6111 275.81 67.7981 275.555 68.071 275.513L111.554 268.79C111.827 268.748 112.083 268.935 112.125 269.208C112.167 269.481 111.98 269.736 111.707 269.778L68.2239 276.501C67.951 276.543 67.6955 276.356 67.6533 276.083Z" fill="#5B5B5B"/>
<path fill-rule="evenodd" clip-rule="evenodd" d="M68.6533 283.083C68.6111 282.81 68.7981 282.555 69.071 282.513L112.554 275.79C112.827 275.748 113.083 275.935 113.125 276.208C113.167 276.481 112.98 276.736 112.707 276.778L69.2239 283.501C68.951 283.543 68.6955 283.356 68.6533 283.083Z" fill="#5B5B5B"/>
<path fill-rule="evenodd" clip-rule="evenodd" d="M28.6543 148.084C28.6121 147.811 28.7991 147.555 29.072 147.513L138.769 130.554C139.042 130.512 139.297 130.699 139.339 130.971C139.382 131.244 139.195 131.5 138.922 131.542L29.2249 148.501C28.952 148.544 28.6965 148.357 28.6543 148.084Z" fill="#5B5B5B"/>
<path fill-rule="evenodd" clip-rule="evenodd" d="M29.6533 155.084C29.6111 154.811 29.7981 154.555 30.071 154.513L139.768 137.554C140.041 137.512 140.296 137.699 140.338 137.972C140.381 138.244 140.194 138.5 139.921 138.542L30.2239 155.501C29.951 155.544 29.6955 155.357 29.6533 155.084Z" fill="#5B5B5B"/>
<path fill-rule="evenodd" clip-rule="evenodd" d="M30.6534 162.084C30.6111 161.811 30.7981 161.555 31.071 161.513L140.768 144.554C141.041 144.512 141.296 144.699 141.338 144.971C141.381 145.244 141.194 145.5 140.921 145.542L31.2239 162.501C30.951 162.544 30.6956 162.356 30.6534 162.084Z" fill="#5B5B5B"/>
<path fill-rule="evenodd" clip-rule="evenodd" d="M31.6534 169.084C31.6111 168.811 31.7981 168.555 32.071 168.513L141.768 151.554C142.041 151.512 142.296 151.699 142.338 151.971C142.381 152.244 142.194 152.5 141.921 152.542L32.2239 169.501C31.951 169.544 31.6956 169.356 31.6534 169.084Z" fill="#5B5B5B"/>
<path fill-rule="evenodd" clip-rule="evenodd" d="M117.653 213.084C117.611 212.811 117.798 212.555 118.071 212.513L180.33 202.888C180.603 202.845 180.859 203.032 180.901 203.305C180.943 203.578 180.756 203.834 180.483 203.876L118.224 213.501C117.951 213.544 117.696 213.356 117.653 213.084Z" fill="#5B5B5B"/>
<path fill-rule="evenodd" clip-rule="evenodd" d="M118.653 220.084C118.611 219.811 118.798 219.555 119.071 219.513L181.33 209.888C181.603 209.845 181.859 210.032 181.901 210.305C181.943 210.578 181.756 210.834 181.483 210.876L119.224 220.501C118.951 220.544 118.696 220.356 118.653 220.084Z" fill="#5B5B5B"/>
<path fill-rule="evenodd" clip-rule="evenodd" d="M119.653 227.084C119.611 226.811 119.798 226.555 120.071 226.513L182.33 216.888C182.603 216.845 182.859 217.032 182.901 217.305C182.943 217.578 182.756 217.834 182.483 217.876L120.224 227.501C119.951 227.543 119.696 227.356 119.653 227.084Z" fill="#5B5B5B"/>
<path fill-rule="evenodd" clip-rule="evenodd" d="M120.653 234.084C120.611 233.811 120.798 233.555 121.071 233.513L183.33 223.888C183.603 223.845 183.859 224.032 183.901 224.305C183.943 224.578 183.756 224.834 183.483 224.876L121.224 234.501C120.951 234.543 120.696 234.356 120.653 234.084Z" fill="#5B5B5B"/>
<path d="M166.624 146.092L160.445 147.047C160.412 148.402 159.899 149.7 159 150.709C158.1 151.718 156.872 152.372 155.535 152.554C155.46 152.567 155.383 152.555 155.315 152.522C155.247 152.488 155.191 152.435 155.155 152.368C155.118 152.301 155.104 152.224 155.113 152.149C155.122 152.073 155.154 152.002 155.205 151.946C155.685 151.371 155.992 150.67 156.091 149.925C156.19 149.181 156.077 148.423 155.764 147.74L152.9 148.182C151.444 148.405 149.958 148.039 148.768 147.165C147.578 146.291 146.78 144.981 146.548 143.519L145.001 133.52C144.78 132.057 145.144 130.566 146.015 129.374C146.885 128.182 148.19 127.385 149.645 127.157L163.366 125.037C164.82 124.818 166.303 125.185 167.491 126.059C168.679 126.933 169.475 128.242 169.707 129.702L171.254 139.701C171.484 141.166 171.125 142.662 170.257 143.86C169.389 145.059 168.083 145.861 166.624 146.092Z" fill="#CEEBEA"/>
<path fill-rule="evenodd" clip-rule="evenodd" d="M149.722 126.736L163.291 124.543C164.877 124.303 166.493 124.704 167.787 125.656C169.082 126.608 169.949 128.034 170.201 129.624L170.201 129.625L171.748 139.624L170.636 138.973L169.213 129.78C169.002 128.45 168.276 127.257 167.195 126.461C166.114 125.666 164.764 125.332 163.441 125.531L150.96 127.46L149.722 126.736ZM149.722 126.736L150.178 127.581L149.722 127.651C148.399 127.859 147.211 128.584 146.418 129.669C145.626 130.754 145.294 132.112 145.495 133.444L147.042 143.442C147.254 144.773 147.981 145.967 149.064 146.762C150.147 147.557 151.499 147.89 152.823 147.688L153.452 148.603L152.976 148.676C151.389 148.919 149.769 148.52 148.472 147.568C147.176 146.616 146.307 145.189 146.055 143.597L146.054 143.596L144.507 133.596L144.506 133.594C144.266 132.001 144.662 130.378 145.611 129.079C146.559 127.78 148.136 126.985 149.722 126.736ZM160.921 147.48L162.693 146.194L166.546 145.598C167.873 145.388 169.062 144.658 169.852 143.567C170.54 142.618 170.877 141.464 170.815 140.301L171.748 139.624C171.998 141.219 171.608 142.849 170.662 144.154C169.716 145.459 168.292 146.334 166.703 146.586L166.701 146.586L160.921 147.48ZM155.792 152.004L155.177 151.11C155.076 151.29 154.958 151.46 154.826 151.62C154.71 151.752 154.637 151.916 154.616 152.09C154.595 152.268 154.63 152.448 154.715 152.606C154.801 152.764 154.933 152.891 155.095 152.971C155.254 153.049 155.433 153.076 155.608 153.049C157.061 152.85 158.396 152.138 159.373 151.042C160.258 150.049 160.799 148.799 160.921 147.48L160.416 146.546L159.956 146.617L159.945 147.035C159.915 148.271 159.447 149.456 158.627 150.376C157.879 151.214 156.884 151.784 155.792 152.004Z" fill="#5B5B5B"/>
<path d="M170.815 140.301L171.748 139.624L170.636 138.973L170.76 139.778C170.788 139.952 170.806 140.127 170.815 140.301Z" fill="#5B5B5B"/>
<path d="M150.96 127.46L149.722 126.736L150.178 127.581L150.96 127.46Z" fill="#5B5B5B"/>
<path d="M160.416 146.546L160.921 147.48L162.693 146.194L160.416 146.546Z" fill="#5B5B5B"/>
<path d="M155.446 148.295C155.614 148.796 155.666 149.332 155.596 149.859C155.537 150.302 155.394 150.726 155.177 151.11L155.792 152.004C156.216 151.41 156.49 150.719 156.587 149.991C156.625 149.709 156.635 149.424 156.619 149.142C156.587 148.587 156.452 148.041 156.218 147.531L156.061 147.188L152.823 147.688L153.452 148.603L155.446 148.295Z" fill="#5B5B5B"/>
<path fill-rule="evenodd" clip-rule="evenodd" d="M163.242 130.733C163.486 130.863 163.578 131.166 163.448 131.41L157.56 142.438C157.486 142.578 157.349 142.674 157.193 142.697C157.036 142.721 156.878 142.669 156.766 142.557L151.385 137.181C151.19 136.985 151.19 136.669 151.385 136.473C151.58 136.278 151.897 136.278 152.092 136.473L156.996 141.373L162.566 130.939C162.696 130.695 162.998 130.603 163.242 130.733Z" fill="#5B5B5B"/>
<path fill-rule="evenodd" clip-rule="evenodd" d="M64.6534 183.083C64.6111 182.811 64.7981 182.555 65.071 182.513L174.767 165.554C175.04 165.511 175.296 165.698 175.338 165.971C175.38 166.244 175.193 166.5 174.92 166.542L65.2239 183.501C64.951 183.543 64.6956 183.356 64.6534 183.083Z" fill="#5B5B5B"/>
<path fill-rule="evenodd" clip-rule="evenodd" d="M65.6533 190.083C65.6111 189.81 65.7981 189.555 66.071 189.513L175.767 172.554C176.04 172.511 176.296 172.698 176.338 172.971C176.38 173.244 176.193 173.5 175.92 173.542L66.2239 190.501C65.951 190.543 65.6955 190.356 65.6533 190.083Z" fill="#5B5B5B"/>
<path fill-rule="evenodd" clip-rule="evenodd" d="M66.6534 197.083C66.6111 196.811 66.7981 196.555 67.071 196.513L176.767 179.554C177.04 179.511 177.296 179.699 177.338 179.971C177.38 180.244 177.193 180.5 176.92 180.542L67.2239 197.501C66.951 197.543 66.6956 197.356 66.6534 197.083Z" fill="#5B5B5B"/>
<path fill-rule="evenodd" clip-rule="evenodd" d="M67.6534 204.083C67.6111 203.811 67.7981 203.555 68.071 203.513L177.767 186.554C178.04 186.511 178.296 186.699 178.338 186.971C178.38 187.244 178.193 187.5 177.92 187.542L68.2239 204.501C67.951 204.543 67.6956 204.356 67.6534 204.083Z" fill="#5B5B5B"/>
<path d="M43.8957 206.208L50.0773 205.253C50.5226 206.534 51.4047 207.615 52.5669 208.306C53.7292 208.997 55.0965 209.252 56.4264 209.026C56.5026 209.017 56.5741 208.985 56.6308 208.933C56.6874 208.881 56.7263 208.812 56.7418 208.737C56.7574 208.661 56.7489 208.583 56.7175 208.512C56.6862 208.442 56.6335 208.383 56.5671 208.344C55.9326 207.942 55.4249 207.367 55.1033 206.686C54.7817 206.006 54.6596 205.247 54.7513 204.5L57.6167 204.057C59.072 203.827 60.3765 203.026 61.2449 201.831C62.1133 200.636 62.475 199.143 62.2511 197.679L60.7031 187.678C60.467 186.222 59.6683 184.917 58.481 184.048C57.2937 183.179 55.8138 182.816 54.3633 183.037L40.6377 185.159C39.1828 185.386 37.878 186.184 37.0091 187.378C36.1402 188.571 35.7779 190.063 36.0017 191.526L37.5497 201.528C37.7789 202.991 38.5751 204.305 39.7642 205.182C40.9533 206.059 42.4387 206.428 43.8957 206.208Z" fill="#CEEBEA"/>
<path fill-rule="evenodd" clip-rule="evenodd" d="M42.7304 190.731C42.8827 190.501 43.1929 190.438 43.4233 190.59L55.8236 198.793C56.0539 198.945 56.1172 199.255 55.9648 199.486C55.8125 199.716 55.5023 199.779 55.272 199.627L42.8716 191.424C42.6413 191.272 42.5781 190.962 42.7304 190.731Z" fill="#5B5B5B"/>
<path fill-rule="evenodd" clip-rule="evenodd" d="M54.3324 188.938C54.5472 189.112 54.5807 189.427 54.4072 189.641L45.066 201.204C44.8925 201.419 44.5777 201.452 44.3629 201.279C44.148 201.105 44.1145 200.79 44.2881 200.575L53.6292 189.013C53.8027 188.798 54.1175 188.765 54.3324 188.938Z" fill="#5B5B5B"/>
<path d="M47.4637 224.031L103.408 215.383L106.62 236.136L44.3589 245.76L42.1125 231.244" fill="white"/>
<path fill-rule="evenodd" clip-rule="evenodd" d="M46.9696 224.107C46.9274 223.834 47.1144 223.579 47.3873 223.537L103.332 214.889C103.604 214.847 103.86 215.034 103.902 215.307L107.114 236.06C107.156 236.333 106.969 236.588 106.696 236.631L44.4354 246.254C44.1625 246.297 43.907 246.109 43.8648 245.837L41.6184 231.32C41.5762 231.047 41.7632 230.792 42.0361 230.75C42.309 230.707 42.5645 230.894 42.6067 231.167L44.7766 245.19L106.049 235.719L102.99 215.954L47.5402 224.525C47.2673 224.567 47.0118 224.38 46.9696 224.107Z" fill="#5B5B5B"/>
<path d="M130.464 251.031L186.408 242.383L189.62 263.136L127.359 272.76L125.113 258.244" fill="white"/>
<path fill-rule="evenodd" clip-rule="evenodd" d="M129.97 251.107C129.927 250.834 130.114 250.579 130.387 250.537L186.332 241.889C186.605 241.847 186.86 242.034 186.902 242.307L190.114 263.06C190.156 263.333 189.969 263.588 189.696 263.631L127.435 273.254C127.163 273.297 126.907 273.109 126.865 272.837L124.618 258.32C124.576 258.047 124.763 257.792 125.036 257.75C125.309 257.707 125.564 257.895 125.607 258.167L127.777 272.19L189.049 262.719L185.99 242.954L130.54 251.525C130.267 251.567 130.012 251.38 129.97 251.107Z" fill="#5B5B5B"/>
<path d="M123.88 246.924C122.711 247.115 121.625 247.647 120.758 248.454C119.891 249.262 119.282 250.307 119.009 251.46C118.736 252.612 118.809 253.82 119.221 254.931C119.633 256.041 120.365 257.005 121.323 257.701C122.282 258.397 123.425 258.794 124.609 258.841C125.793 258.888 126.964 258.584 127.975 257.967C128.986 257.349 129.791 256.447 130.29 255.372C130.788 254.298 130.958 253.1 130.777 251.929C130.52 250.354 129.651 248.944 128.359 248.007C127.067 247.069 125.457 246.68 123.88 246.924ZM123.733 249.244C123.722 249.178 123.723 249.111 123.738 249.046C123.753 248.981 123.781 248.92 123.819 248.866C123.858 248.812 123.907 248.766 123.964 248.731C124.021 248.697 124.084 248.673 124.149 248.663C124.283 248.643 124.419 248.676 124.529 248.756C124.638 248.836 124.711 248.956 124.731 249.089L125.595 254.673C125.616 254.807 125.583 254.943 125.503 255.052C125.423 255.161 125.303 255.234 125.169 255.255C125.104 255.265 125.037 255.262 124.972 255.246C124.908 255.23 124.847 255.201 124.794 255.161C124.74 255.122 124.695 255.071 124.662 255.014C124.628 254.957 124.606 254.893 124.597 254.827L123.733 249.244ZM125.462 257.143C125.32 257.164 125.176 257.129 125.06 257.045C124.944 256.96 124.867 256.833 124.845 256.691C124.823 256.55 124.859 256.405 124.943 256.29C125.028 256.174 125.155 256.097 125.296 256.075C125.438 256.053 125.582 256.089 125.698 256.173C125.813 256.258 125.891 256.385 125.913 256.526C125.934 256.668 125.899 256.812 125.815 256.928C125.73 257.043 125.603 257.121 125.462 257.143Z" fill="#5B5B5B"/>
<path fill-rule="evenodd" clip-rule="evenodd" d="M41.1261 220.083C39.9498 220.255 38.8511 220.773 37.9695 221.57C37.0878 222.367 36.463 223.409 36.1742 224.562C35.8854 225.715 35.9457 226.928 36.3474 228.047C36.7491 229.165 37.4742 230.14 38.4306 230.846C39.3869 231.552 40.5315 231.959 41.7191 232.014C42.9066 232.068 44.0837 231.769 45.1008 231.154C46.1179 230.539 46.9293 229.635 47.432 228.558C47.9347 227.481 48.106 226.279 47.9242 225.104C47.6822 223.54 46.832 222.134 45.5587 221.194C44.2854 220.254 42.6922 219.854 41.1261 220.083ZM42.3492 230.463C42.4638 230.547 42.607 230.582 42.7474 230.56C42.8878 230.539 43.0138 230.462 43.0977 230.347C43.1816 230.233 43.2165 230.09 43.1948 229.949C43.173 229.809 43.0964 229.683 42.9818 229.599C42.8672 229.515 42.724 229.48 42.5836 229.502C42.4432 229.524 42.3172 229.6 42.2334 229.715C42.1495 229.829 42.1145 229.972 42.1363 230.113C42.158 230.253 42.2346 230.379 42.3492 230.463ZM42.8759 228.343L42.5559 226.275L42.5973 226.218C42.9982 226.059 43.3459 225.79 43.5999 225.442C43.854 225.093 44.0042 224.68 44.0329 224.25C44.0616 223.82 43.9678 223.39 43.7623 223.011C43.5568 222.632 43.2481 222.319 42.8719 222.108C42.4957 221.897 42.0674 221.797 41.6368 221.82C41.2062 221.842 40.7908 221.987 40.4388 222.236C40.0869 222.485 39.8128 222.829 39.6483 223.227C39.4838 223.626 39.4357 224.063 39.5096 224.488C39.5101 224.555 39.525 224.621 39.5533 224.681C39.5816 224.742 39.6227 224.796 39.6737 224.839C39.7246 224.883 39.7844 224.915 39.8488 224.933C39.9132 224.951 39.9808 224.955 40.047 224.945C40.1131 224.935 40.1763 224.91 40.2322 224.874C40.2881 224.837 40.3354 224.788 40.3709 224.732C40.4064 224.675 40.4292 224.611 40.4379 224.545C40.4465 224.478 40.4408 224.411 40.421 224.347C40.3803 224.083 40.4185 223.813 40.5311 223.572C40.6436 223.33 40.8254 223.127 41.0533 222.988C41.2813 222.85 41.5452 222.782 41.8117 222.793C42.0782 222.805 42.3354 222.895 42.5506 223.053C42.7659 223.21 42.9296 223.428 43.0211 223.679C43.1125 223.929 43.1276 224.201 43.0644 224.461C43.0012 224.72 42.8625 224.954 42.666 225.135C42.4695 225.315 42.2239 225.433 41.9602 225.474C41.8402 225.495 41.7332 225.562 41.6622 225.661C41.5913 225.761 41.562 225.884 41.5807 226.004L41.9644 228.484C41.9649 228.551 41.9798 228.617 42.0081 228.677C42.0365 228.738 42.0775 228.792 42.1285 228.835C42.1795 228.879 42.2392 228.91 42.3036 228.929C42.3681 228.947 42.4356 228.951 42.5018 228.941C42.568 228.931 42.6311 228.906 42.687 228.869C42.7429 228.833 42.7902 228.784 42.8257 228.727C42.8612 228.671 42.8841 228.607 42.8927 228.541C42.9014 228.474 42.8956 228.407 42.8759 228.343Z" fill="#67676A"/>
<path fill-rule="evenodd" clip-rule="evenodd" d="M35.3011 94.0398L29.467 94.9325L31.7835 110.07L26.2855 110.911L23.969 95.7737L18.1349 96.6664L17.3564 91.5796L34.5227 88.953L35.3011 94.0398ZM24.8062 94.634L27.1227 109.772L30.6438 109.233L28.3272 94.0952L34.1613 93.2025L33.6854 90.0927L18.4962 92.4169L18.9721 95.5267L24.8062 94.634ZM38.9016 108.612L38.8936 108.61C37.845 108.336 36.9013 107.891 36.0752 107.266L36.0646 107.258C35.2528 106.627 34.5786 105.873 34.0465 104.998L34.04 104.988L34.0338 104.977C33.5164 104.077 33.1786 103.101 33.0188 102.057C32.7991 100.622 32.9122 99.2381 33.373 97.9243L33.3771 97.9125C33.8592 96.5908 34.6576 95.4705 35.7563 94.5634C36.8962 93.6144 38.2905 93.032 39.8976 92.7861C41.517 92.5383 43.0188 92.6756 44.3651 93.2518C45.6679 93.7936 46.7394 94.6308 47.5592 95.7562C47.8753 96.175 48.1463 96.6157 48.3722 97.0773C48.4486 96.5544 48.5765 96.0409 48.7567 95.538L48.7586 95.5326C49.241 94.2102 50.0399 93.0894 51.1395 92.1821C52.267 91.2518 53.6544 90.6811 55.2573 90.4359C56.8595 90.1907 58.3487 90.321 59.6897 90.8776C60.4786 91.205 61.1787 91.6367 61.7829 92.173L61.4092 89.7313L75.3885 87.5923L76.1512 92.5763L71.8592 93.233L73.4599 103.693L68.039 104.523L66.4383 94.0625L62.9673 94.5936L58.5387 96.7229L58.0409 96.1099C57.7825 95.7918 57.4894 95.587 57.1541 95.4684L57.1412 95.4638L57.1284 95.4589C56.7781 95.3241 56.4026 95.2824 55.9824 95.3467C55.5152 95.4182 55.1156 95.6021 54.7629 95.9056L54.7563 95.9113C54.4328 96.1847 54.1825 96.5548 54.0195 97.0605L54.016 97.0713C53.8588 97.5407 53.8123 98.1024 53.9161 98.7807C54.0155 99.4305 54.2236 99.9542 54.5196 100.378C54.8415 100.798 55.2133 101.1 55.637 101.303C56.0365 101.48 56.4557 101.536 56.9188 101.465C57.218 101.42 57.4759 101.33 57.7019 101.202L57.7085 101.198L57.7152 101.194C57.9778 101.05 58.1917 100.88 58.3658 100.686C58.5292 100.503 58.6185 100.331 58.6629 100.169L58.8958 99.3148L64.43 100.12L64.1126 101.222C63.8655 102.079 63.4347 102.868 62.838 103.587C62.252 104.31 61.5248 104.913 60.6706 105.399L60.6604 105.405C59.7964 105.884 58.8109 106.198 57.7211 106.364C56.5159 106.549 55.3696 106.522 54.2951 106.26L54.287 106.258L54.279 106.256C53.2245 105.981 52.276 105.523 51.4461 104.878L51.4359 104.87C50.6236 104.222 49.9491 103.451 49.4163 102.561L49.4118 102.553L49.4074 102.546C49.2456 102.264 49.1014 101.975 48.9747 101.679L46.4228 102.07L49.1905 102.402L48.8487 103.541C48.5858 104.417 48.1379 105.217 47.5208 105.94C46.9177 106.663 46.1744 107.266 45.3049 107.753L45.2969 107.757L45.2888 107.762C44.3978 108.239 43.4008 108.556 42.31 108.723C41.1197 108.905 39.9823 108.875 38.9097 108.614L38.9016 108.612ZM46.7566 105.295C47.051 104.951 47.2978 104.59 47.497 104.213C47.6603 103.905 47.7916 103.585 47.8909 103.254L44.8095 102.883C44.6706 103.466 44.319 103.975 43.7546 104.412C43.2048 104.83 42.5872 105.091 41.9018 105.196C41.3021 105.288 40.717 105.246 40.1466 105.07C39.5906 104.874 39.1019 104.546 38.6806 104.084C38.4841 103.858 38.3148 103.608 38.1728 103.332C38.0228 103.041 37.9033 102.722 37.8142 102.376L48.223 100.783C48.2192 100.643 48.2101 100.469 48.1958 100.261C48.1788 100.036 48.1546 99.8202 48.1231 99.6145C47.937 98.398 47.4812 97.3105 46.7558 96.3518C46.045 95.3734 45.1185 94.6472 43.9763 94.1732C42.8315 93.682 41.5223 93.5491 40.0488 93.7746C38.5924 93.9975 37.3743 94.517 36.3945 95.3333C35.4293 96.1298 34.7366 97.1037 34.3166 98.2552C33.9138 99.404 33.8107 100.621 34.0073 101.906C34.1489 102.831 34.4467 103.689 34.9007 104.478C35.3693 105.248 35.9618 105.912 36.6782 106.468C37.3921 107.008 38.2147 107.399 39.1462 107.643C40.0751 107.869 41.0793 107.899 42.1587 107.734C43.1525 107.582 44.0383 107.297 44.8162 106.88C45.5914 106.446 46.2382 105.917 46.7566 105.295ZM40.4602 104.12C40.8779 104.246 41.3043 104.276 41.7506 104.207C42.2703 104.128 42.7307 103.933 43.1462 103.619C43.5636 103.295 43.7607 102.97 43.8367 102.651L43.8827 102.459L39.2365 103.17C39.2963 103.258 39.36 103.341 39.4272 103.419C39.7372 103.756 40.0799 103.983 40.4602 104.12ZM62.0649 102.952C62.3456 102.615 62.5805 102.264 62.7697 101.9C62.9299 101.591 63.0572 101.273 63.1517 100.945L59.6276 100.432C59.5377 100.761 59.3655 101.068 59.1109 101.353C58.8564 101.637 58.5511 101.877 58.1951 102.071C57.8563 102.264 57.4813 102.391 57.0701 102.454C56.419 102.554 55.8016 102.473 55.218 102.211C54.6318 101.933 54.1301 101.519 53.7128 100.969C53.31 100.399 53.0482 99.7202 52.9276 98.932C52.8044 98.1267 52.8511 97.4006 53.0677 96.7538C53.2818 96.0897 53.6294 95.5543 54.1108 95.1475C54.6066 94.7209 55.1801 94.4578 55.8312 94.3582C56.4137 94.2691 56.9658 94.3249 57.4875 94.5256C58.0066 94.7092 58.4498 95.0272 58.8171 95.4795L62.0266 93.9363C61.8256 93.6519 61.6034 93.3889 61.3601 93.1472C60.791 92.5819 60.1064 92.1332 59.3064 91.8012C58.1642 91.3271 56.8649 91.2015 55.4085 91.4244C53.9521 91.6472 52.7413 92.1569 51.776 92.9534C50.8107 93.7499 50.1181 94.7239 49.6981 95.8753C49.2926 97.007 49.1869 98.2068 49.3809 99.4747C49.5225 100.4 49.8203 101.257 50.2743 102.047C50.7455 102.834 51.3406 103.515 52.0597 104.089C52.7761 104.645 53.6001 105.045 54.5316 105.289C55.4605 105.515 56.4733 105.544 57.5698 105.376C58.5636 105.224 59.4323 104.942 60.1759 104.53C60.934 104.098 61.5636 103.573 62.0649 102.952ZM67.2755 92.9227L68.8762 103.383L72.3201 102.856L70.7194 92.3958L75.0115 91.739L74.5513 88.732L62.549 90.5685L63.0092 93.5755L67.2755 92.9227ZM42.8251 98.0959L42.8125 98.0806C42.5376 97.7491 42.2159 97.5258 41.836 97.3923L41.8239 97.388L41.812 97.3835C41.4267 97.2368 41.0062 97.1911 40.5302 97.264C40.0763 97.3334 39.6961 97.4992 39.3685 97.7574L39.3595 97.7644C39.0485 98.0038 38.7989 98.3207 38.6147 98.7398C38.5768 98.8289 38.5434 98.9225 38.5147 99.021L43.015 98.3324C42.9592 98.2533 42.9002 98.1795 42.8384 98.1106L42.8251 98.0959ZM44.0838 98.1689C44.2347 98.4572 44.355 98.776 44.4448 99.1253L37.4028 100.203C37.3839 99.8426 37.4011 99.5028 37.4543 99.1833C37.5039 98.8855 37.5847 98.6054 37.6968 98.3429C37.9437 97.7791 38.2946 97.3221 38.7495 96.9719C39.219 96.602 39.7621 96.3698 40.3789 96.2755C41.0129 96.1785 41.6091 96.2363 42.1677 96.4489C42.7237 96.6444 43.1952 96.9755 43.5823 97.4424C43.776 97.658 43.9432 97.9002 44.0838 98.1689Z" fill="#67676A"/>
<path fill-rule="evenodd" clip-rule="evenodd" d="M315.003 47.4289L309.19 46.404L306.531 61.4853L301.053 60.5195L303.713 45.4382L297.9 44.4133L298.794 39.3455L315.896 42.361L315.003 47.4289ZM304.871 44.627L302.212 59.7083L305.72 60.3269L308.379 45.2455L314.191 46.2704L314.738 43.1722L299.605 40.5039L299.059 43.6021L304.871 44.627ZM313.741 62.3865L313.734 62.3819C312.828 61.7864 312.077 61.0616 311.495 60.2053L311.488 60.1942C310.921 59.3365 310.524 58.4055 310.301 57.4066L310.298 57.3944L310.296 57.3822C310.094 56.364 310.087 55.3315 310.27 54.2913C310.522 52.861 311.073 51.5869 311.931 50.4901L311.938 50.4803C312.819 49.3829 313.934 48.5778 315.266 48.0708C316.65 47.5374 318.157 47.4327 319.758 47.715C321.372 47.9995 322.75 48.611 323.841 49.5885C324.901 50.5193 325.648 51.6558 326.063 52.9846C326.228 53.4827 326.344 53.987 326.41 54.4967C326.65 54.0259 326.936 53.5805 327.267 53.1619L327.271 53.1574C328.152 52.0595 329.268 51.254 330.601 50.7471C331.967 50.2274 333.464 50.1317 335.061 50.4133C336.657 50.6947 338.026 51.2956 339.118 52.2527C339.76 52.8158 340.285 53.4491 340.685 54.1508L341.114 51.7182L355.041 54.1739L354.165 59.1393L349.889 58.3854L348.052 68.8066L342.651 67.8543L344.489 57.4331L341.031 56.8233L336.153 57.4205L335.878 56.6801C335.736 56.296 335.523 56.008 335.244 55.7882L335.233 55.7798L335.223 55.771C334.934 55.531 334.592 55.3711 334.173 55.2973C333.708 55.2153 333.27 55.2614 332.839 55.4357L332.831 55.439C332.437 55.5943 332.081 55.8646 331.764 56.2914L331.758 56.3005C331.458 56.6947 331.234 57.2118 331.115 57.8876C331.001 58.5349 331.03 59.0977 331.175 59.5937C331.345 60.095 331.6 60.5003 331.936 60.8286C332.258 61.1242 332.637 61.3119 333.098 61.3933C333.396 61.4458 333.669 61.4432 333.925 61.3943L333.932 61.3929L333.94 61.3916C334.234 61.3397 334.492 61.2471 334.719 61.1186C334.932 60.9981 335.072 60.8639 335.166 60.7241L335.66 59.99L340.644 62.5272L339.991 63.4687C339.481 64.2018 338.82 64.811 338.025 65.3001C337.238 65.7976 336.356 66.1353 335.391 66.3221L335.379 66.3244C334.407 66.5007 333.373 66.4824 332.287 66.2909C331.087 66.0792 330.01 65.6859 329.076 65.0937L329.069 65.0892L329.062 65.0847C328.151 64.4858 327.4 63.7482 326.82 62.8713L326.813 62.8605C326.252 61.9861 325.86 61.0393 325.641 60.0254L325.639 60.0168L325.637 60.0081C325.574 59.6898 325.53 59.37 325.505 59.0491L322.962 58.6008L325.477 59.8031L324.789 60.772C324.259 61.5174 323.578 62.132 322.762 62.6182C321.959 63.1099 321.061 63.4426 320.082 63.6252L320.073 63.6269L320.063 63.6284C319.066 63.7953 318.021 63.7753 316.934 63.5836C315.748 63.3745 314.68 62.9821 313.748 62.391L313.741 62.3865ZM322.245 61.7622C322.634 61.5309 322.983 61.2687 323.293 60.9755C323.546 60.7353 323.773 60.4743 323.974 60.1926L321.174 58.854C320.855 59.3611 320.359 59.7312 319.684 59.9642C319.03 60.1832 318.361 60.2325 317.678 60.1121C317.081 60.0068 316.54 59.7794 316.056 59.4301C315.592 59.0667 315.234 58.5988 314.983 58.0265C314.869 57.7497 314.789 57.458 314.743 57.1515C314.695 56.8277 314.684 56.4873 314.71 56.1303L325.08 57.9588C325.122 57.8253 325.169 57.6576 325.222 57.4557C325.278 57.2368 325.324 57.025 325.36 56.8201C325.574 55.6082 325.491 54.4319 325.111 53.2913C324.752 52.1366 324.107 51.1517 323.177 50.3365C322.25 49.5042 321.053 48.9587 319.585 48.6998C318.134 48.444 316.813 48.5456 315.624 49.0046C314.454 49.4496 313.486 50.1501 312.719 51.1061C311.969 52.0651 311.481 53.1847 311.255 54.465C311.092 55.3868 311.1 56.2945 311.276 57.1881C311.473 58.0677 311.822 58.8859 312.322 59.643C312.825 60.3829 313.479 61.0174 314.283 61.5464C315.091 62.0584 316.032 62.4092 317.108 62.5988C318.098 62.7734 319.028 62.7878 319.898 62.6421C320.772 62.4793 321.554 62.186 322.245 61.7622ZM315.803 57.3384C315.831 57.4413 315.865 57.5402 315.904 57.6356C316.089 58.0541 316.341 58.3792 316.657 58.6308C317.013 58.8838 317.407 59.0489 317.852 59.1273C318.369 59.2186 318.868 59.182 319.362 59.0175C319.862 58.8441 320.152 58.6001 320.327 58.3225L320.432 58.1546L315.803 57.3384ZM337.496 64.4514C337.87 64.2219 338.205 63.9649 338.501 63.6804C338.752 63.4394 338.974 63.1788 339.169 62.8983L335.995 61.2827C335.805 61.5659 335.543 61.8014 335.211 61.9892C334.879 62.177 334.513 62.3061 334.113 62.3764C333.73 62.4498 333.334 62.4503 332.925 62.3781C332.276 62.2637 331.717 61.9892 331.248 61.5545C330.782 61.1027 330.44 60.5495 330.221 59.8948C330.022 59.2262 329.992 58.4992 330.13 57.714C330.272 56.9117 330.549 56.2389 330.961 55.6956C331.377 55.1353 331.878 54.7396 332.464 54.5086C333.071 54.2635 333.698 54.1981 334.347 54.3125C334.927 54.4149 335.432 54.6447 335.862 55.0021C336.295 55.3424 336.613 55.7857 336.816 56.3319L340.35 55.8992C340.251 55.5653 340.125 55.245 339.972 54.938C339.614 54.2201 339.11 53.5757 338.458 53.0046C337.528 52.1894 336.338 51.6539 334.887 51.3981C333.436 51.1422 332.126 51.2368 330.956 51.6818C329.786 52.1267 328.818 52.8272 328.051 53.7832C327.304 54.7252 326.819 55.8277 326.597 57.0909C326.434 58.0127 326.441 58.9204 326.618 59.814C326.812 60.7106 327.157 61.546 327.655 62.3201C328.155 63.0771 328.807 63.7201 329.611 64.2492C330.419 64.7612 331.369 65.1135 332.461 65.3061C333.451 65.4807 334.364 65.4921 335.201 65.3404C336.057 65.1746 336.822 64.8782 337.496 64.4514ZM345.647 56.6219L343.81 67.0431L347.241 67.6481L349.078 57.2269L353.354 57.9809L353.883 54.9851L341.925 52.8767L341.397 55.8724L345.647 56.6219ZM320.829 53.6831L320.822 53.6646C320.668 53.2624 320.435 52.9478 320.118 52.6995L320.108 52.6916L320.098 52.6835C319.78 52.421 319.396 52.2429 318.922 52.1593C318.47 52.0796 318.056 52.1147 317.663 52.2542L317.653 52.258C317.281 52.3851 316.943 52.6052 316.634 52.9431C316.57 53.0154 316.508 53.0933 316.449 53.1774L320.933 53.968C320.905 53.8751 320.873 53.7863 320.837 53.7013L320.829 53.6831ZM321.998 54.1558C322.048 54.4772 322.06 54.8177 322.033 55.1774L315.017 53.9403C315.115 53.5931 315.24 53.2768 315.393 52.9912C315.535 52.725 315.702 52.4856 315.892 52.2729C316.307 51.818 316.786 51.4976 317.329 51.3118C317.892 51.1119 318.481 51.0661 319.096 51.1745C319.727 51.2859 320.273 51.5318 320.734 51.9123C321.198 52.2757 321.539 52.7405 321.756 53.3068C321.87 53.5732 321.951 53.8562 321.998 54.1558Z" fill="#67676A"/>
</svg>
