<svg width="340" height="240" viewBox="0 0 340 240" fill="none" xmlns="http://www.w3.org/2000/svg">
<g clip-path="url(#clip0_147_1125)">
<ellipse cx="120" cy="30" rx="120" ry="30" transform="matrix(-1 0 0 1 243 173)" fill="#D3D9DC"/>
<path d="M333.128 60.1324C333.412 59.8781 333.708 59.6269 333.997 59.3294C334.288 59.0405 334.57 58.6981 334.845 58.3628C335.393 57.6821 335.885 56.8517 336.243 55.9379C336.598 55.0126 336.814 53.9461 336.769 52.7375C336.722 51.529 336.414 50.1799 335.657 48.6938C335.144 47.6871 334.52 46.7807 333.782 45.9674C333.047 45.1657 332.203 44.4773 331.252 43.875C329.36 42.7094 327.04 41.944 324.456 41.6902C321.87 41.4219 319.008 41.6202 316.06 42.2829C313.113 42.9427 310.082 44.0656 307.146 45.5726C304.209 47.0781 301.365 48.9663 298.749 51.1056C296.131 53.2448 293.736 55.635 291.642 58.1102C289.543 60.5868 287.743 63.1469 286.245 65.6118C284.745 68.0781 283.532 70.4358 282.589 72.536C282.589 72.536 282.481 72.7418 282.278 73.1332C282.08 73.5277 281.8 74.1198 281.437 74.8776C281.348 75.0678 281.249 75.2679 281.153 75.4797C281.059 75.6943 280.961 75.919 280.857 76.1551C280.653 76.6259 280.431 77.1397 280.193 77.6892C279.973 78.2492 279.737 78.8479 279.487 79.4823C279.235 80.1153 279.01 80.805 278.753 81.5201C278.252 82.9535 277.789 84.4987 277.33 86.155C276.886 87.8059 276.465 89.5539 276.082 91.3646C275.704 93.1697 275.356 95.0373 275.034 96.9329C274.72 98.8214 274.425 100.736 274.142 102.646C273.858 104.556 273.584 106.46 273.292 108.324C273.144 109.254 273 110.183 272.832 111.095C272.668 112.009 272.518 112.936 272.339 113.853C271.648 117.533 270.791 121.196 269.836 124.716C269.371 126.483 268.834 128.19 268.32 129.866C268.043 130.693 267.769 131.512 267.499 132.319C267.43 132.521 267.367 132.723 267.295 132.923C267.222 133.12 267.151 133.317 267.078 133.511C266.933 133.903 266.79 134.292 266.649 134.678C266.507 135.063 266.367 135.447 266.229 135.827C266.083 136.202 265.931 136.57 265.785 136.937C265.489 137.667 265.206 138.389 264.915 139.086C264.612 139.774 264.313 140.447 264.025 141.104C263.878 141.43 263.745 141.759 263.593 142.069C263.443 142.381 263.294 142.688 263.148 142.99C262.871 143.558 262.564 144.236 262.193 144.983C261.814 145.725 261.393 146.55 260.933 147.448C260.456 148.332 259.923 149.273 259.371 150.286C259.084 150.781 258.772 151.282 258.465 151.801C258.31 152.061 258.153 152.323 257.995 152.588C257.837 152.854 257.68 153.126 257.502 153.386C257.157 153.913 256.805 154.45 256.448 154.998C256.269 155.27 256.094 155.554 255.905 155.824C255.712 156.095 255.519 156.365 255.322 156.64C254.932 157.188 254.537 157.745 254.136 158.308C253.719 158.846 253.319 159.404 252.879 159.944C252.026 161.04 251.099 162.113 250.153 163.186C249.195 164.247 248.199 165.293 247.173 166.304C243.061 170.346 238.418 173.782 234.199 176.122C232.096 177.306 230.112 178.245 228.376 178.954C226.641 179.664 225.154 180.144 224.047 180.476C222.46 180.931 220.608 181.602 218.974 182.599C218.567 182.861 218.168 183.118 217.793 183.423C217.605 183.572 217.423 183.733 217.246 183.898C217.068 184.058 216.899 184.227 216.735 184.404C216.408 184.758 216.112 185.157 215.852 185.58C215.591 186.001 215.369 186.461 215.196 186.965C214.59 188.749 214.642 191.701 215.485 194.37C215.908 195.704 216.535 196.97 217.367 197.979C217.782 198.474 218.248 198.903 218.76 199.246C219.015 199.417 219.285 199.567 219.562 199.691C219.84 199.809 220.127 199.901 220.423 199.967C220.821 200.054 221.23 200.102 221.646 200.117C222.06 200.124 222.479 200.097 222.903 200.051C223.751 199.971 224.592 199.756 225.418 199.564C228.213 198.878 231.48 197.874 235.023 196.485C236.786 195.775 238.625 194.982 240.492 194.068C242.358 193.149 244.262 192.126 246.176 190.994C250.001 188.725 253.847 185.998 257.536 182.885C261.227 179.774 264.737 176.255 267.942 172.467C269.555 170.572 271.035 168.603 272.479 166.632C273.173 165.629 273.882 164.636 274.556 163.633C275.207 162.615 275.857 161.604 276.502 160.598C278.997 156.53 281.129 152.426 282.934 148.483C284.74 144.54 286.236 140.761 287.421 137.312C287.573 136.882 287.721 136.456 287.871 136.038C288.014 135.619 288.142 135.202 288.277 134.792C288.539 133.973 288.795 133.18 289.042 132.412C289.278 131.644 289.489 130.9 289.7 130.187C289.904 129.472 290.119 128.79 290.29 128.132C291.326 124.373 292.219 120.591 293.028 116.801L293.604 113.955C293.704 113.48 293.788 113.011 293.878 112.539L294.141 111.133L295.144 105.642C295.475 103.85 295.81 102.098 296.17 100.389C296.53 98.6833 296.917 97.0271 297.344 95.4235C298.192 92.2032 299.226 89.2477 300.508 86.5551C303.103 81.1026 306.851 76.1857 311.346 72.1832C315.841 68.1808 321.062 65.0794 326.504 63.1336C329.589 62.058 331.774 61.2712 333.128 60.1324Z" fill="#A07A3C"/>
<path d="M333.128 60.1323C331.774 61.2711 329.588 62.0593 326.513 63.1337C322.09 64.7135 317.813 67.0637 313.949 70.0306C310.104 73.0166 306.66 76.6162 303.893 80.6788C303.786 80.482 303.724 80.2183 303.726 79.8518C303.7 76.9512 304.298 73.9196 305.511 71.0323C305.667 70.676 305.829 70.3183 305.998 69.9608C306.082 69.7835 306.165 69.6018 306.256 69.4261C306.349 69.2518 306.443 69.079 306.537 68.9033C306.727 68.5563 306.923 68.2065 307.124 67.8597C307.335 67.5232 307.551 67.1853 307.774 66.849L308.111 66.3461L308.469 65.8594C308.71 65.5365 308.959 65.2151 309.209 64.8952C309.467 64.5841 309.736 64.2775 310.005 63.9724L310.414 63.517C310.552 63.3667 310.698 63.2237 310.842 63.0793C306.583 65.1182 302.425 67.6798 298.501 70.7783C297.909 71.2577 297.033 71.7562 296.613 71.2678C296.411 71.0288 296.426 70.638 296.465 70.2752C296.749 67.5463 298.08 64.6844 300.15 62.4699C299.816 62.6584 299.496 62.8788 299.184 63.1168C298.88 63.362 298.586 63.6277 298.294 63.8978C298.004 64.1708 297.708 64.4422 297.425 64.7254C297.142 65.0072 296.855 65.2831 296.556 65.5458C295.951 66.0624 295.284 66.5634 294.596 66.8635C293.906 67.1621 293.239 67.2981 292.655 67.0836C292.051 66.8615 291.665 66.2958 291.392 65.6716C290.91 64.5731 290.76 63.3497 290.843 62.0065C290.953 60.6884 291.303 59.255 291.893 57.8234C295.039 54.1344 298.876 50.6779 303.078 47.9381C305.184 46.5756 307.372 45.3892 309.585 44.4196C311.808 43.4691 314.047 42.7294 316.236 42.2443C320.629 41.2886 324.802 41.3547 328.183 42.4633C329.878 43.0235 331.371 43.8179 332.628 44.8705C332.94 45.1303 333.239 45.4029 333.522 45.6911C333.806 45.9793 334.075 46.2917 334.329 46.611C334.836 47.2526 335.279 47.9478 335.661 48.6981C336.417 50.1856 336.725 51.5347 336.774 52.7418C336.819 53.9504 336.604 55.0154 336.247 55.9422C335.889 56.856 335.397 57.6864 334.849 58.3671C334.575 58.7024 334.292 59.0448 334.001 59.3337C333.71 59.6254 333.414 59.8766 333.128 60.1323Z" fill="#F4F3B6"/>
<path d="M191.659 117.993C191.659 117.993 183.47 115.561 178.84 129.428C175.249 140.177 168.718 153.31 168.718 153.31L158.841 166.796L164.176 173.146C164.176 173.146 183.903 161.133 192.767 149.124C201.63 137.114 202.558 124.616 191.659 117.993Z" fill="#BE9A5C"/>
<path d="M126.3 182.148C126.332 182.318 126.365 182.487 126.402 182.657C126.734 184.162 127.295 185.642 128.232 186.867C128.7 187.478 129.255 188.02 129.853 188.505C132.577 190.719 136.229 191.752 139.709 191.29C141.339 191.074 142.82 190.272 144.033 189.183C144.649 188.631 145.207 188.003 145.69 187.331C146.171 186.659 146.274 185.937 146.753 185.246C147.745 183.805 148.042 182.008 148.224 180.27C148.771 175.049 148.434 169.473 145.622 165.042C144.98 164.029 144.201 163.077 143.186 162.442C142.172 161.805 140.893 161.516 139.75 161.871C138.607 162.227 137.671 163.314 137.685 164.513C136.968 164.262 136.219 164.062 135.46 164.089C134.7 164.118 133.925 164.401 133.434 164.982C132.912 165.598 132.779 166.444 132.664 167.243C132.577 167.848 132.564 168.611 133.099 168.907C130.395 168.318 128.505 170.174 127.474 172.444C126.106 175.458 125.693 178.896 126.3 182.148Z" fill="#F4F3B6"/>
<path d="M197.173 197.67C197.173 197.67 175.137 187.494 167.211 187.031C159.285 186.568 141.289 190.889 141.289 190.889C141.289 190.889 137.461 182.797 145.512 175.195C145.512 175.195 151.583 166.976 168.544 161.596C185.505 156.216 208.231 164.999 208.231 164.999L197.173 197.67Z" fill="#A07A3C"/>
<path d="M217.076 102.62C217.076 102.62 213.608 115.561 215.638 124.782C217.668 134.003 226.926 158.194 225.838 175.704C224.749 193.214 208.911 201.18 194.76 202.68C180.609 204.179 170.86 179.447 176.58 165.134C182.298 150.821 190.247 131.823 191.668 121.369C193.089 110.915 194.15 105.704 194.15 105.704L217.076 102.62Z" fill="#A07A3C"/>
<path d="M187.093 107.437C187.093 107.437 186.443 121.07 180.297 132.953C174.152 144.834 160.78 167.705 176.244 190.661C176.244 190.661 181.73 201.044 193.055 196.942C200.554 194.225 206.483 180.879 206.035 166.837C205.587 152.795 200.21 140.361 200.446 130.939C200.682 121.518 203.58 107.166 203.58 107.166L187.093 107.437Z" fill="#F4F3B6"/>
<path d="M204.772 176.109C204.772 176.109 219.765 178.768 217.5 194.139C215.636 206.794 199.232 213.099 191.343 214.446C183.454 215.794 169.162 214.905 169.162 214.905L142.399 220.636L135.957 210.062C135.957 210.062 155.088 198.578 166.713 191.326C178.34 184.075 196.547 175.963 204.772 176.109Z" fill="#BE9A5C"/>
<path d="M209.572 115.842C209.572 115.842 201.195 114.168 197.852 128.4C195.259 139.433 189.956 153.108 189.956 153.108L181.354 167.441L187.247 173.276C187.247 173.276 205.793 159.51 213.522 146.74C221.25 133.971 221.031 121.44 209.572 115.842Z" fill="#BE9A5C"/>
<path fill-rule="evenodd" clip-rule="evenodd" d="M138.356 224.229C130.736 223.492 122.298 215.464 122.21 207.724C122.203 207.044 122.285 206.335 122.675 205.797C123.066 205.259 123.838 204.954 124.479 205.257C124.037 203.846 123.654 202.148 124.636 201.124C125.036 200.708 125.607 200.484 126.19 200.378C127.835 200.08 129.678 200.7 130.872 201.951C130.838 200.768 131.79 199.768 132.929 199.454C134.068 199.138 135.338 199.4 136.469 199.88C142.317 202.359 150.751 213.07 148.329 219.397C146.928 223.054 142.426 224.622 138.356 224.229Z" fill="#F4F3B6"/>
<path d="M133.06 215.75C133.125 215.312 133.312 214.928 133.625 214.642C134.735 213.631 136.796 212.346 139.814 214.353C142.034 215.829 142.715 217.946 142.398 219.275C142.09 220.563 141.038 221.557 139.023 221.324C134.934 220.848 132.767 217.729 133.06 215.75Z" fill="#CB542F"/>
<path d="M136.512 210.719C135.897 211.172 134.418 210.928 132.77 209.528C130.245 207.384 131.339 205.117 134.648 207.418C136.837 208.943 137.173 210.232 136.512 210.719Z" fill="#CB542F"/>
<path d="M132.497 212.404C131.882 212.858 130.402 212.613 128.755 211.213C126.23 209.069 127.323 206.802 130.632 209.104C132.822 210.63 133.158 211.92 132.497 212.404Z" fill="#CB542F"/>
<path d="M130.276 215.136C129.661 215.589 128.181 215.345 126.534 213.945C124.009 211.801 125.102 209.534 128.411 211.835C130.601 213.362 130.936 214.649 130.276 215.136Z" fill="#CB542F"/>
<path d="M181.064 165.561C182.761 165.042 184.777 165.801 186.173 166.804C188.724 168.635 188.003 171.271 186.712 173.723C184.373 178.168 180.44 182.887 175.783 184.92C171.371 186.847 163.64 185.551 163.041 179.762C162.984 179.205 163.028 178.58 163.427 178.189C163.827 177.797 164.662 177.887 164.779 178.433C164.372 176.744 165.188 174.833 166.69 173.96C167.19 173.669 168.005 173.597 168.184 174.148C167.42 172.539 167.902 170.434 169.288 169.315C171.543 167.496 173.869 169.415 176.092 168.634C176.529 168.48 176.885 168.164 177.24 167.864C178.378 166.894 179.635 165.998 181.064 165.561Z" fill="#F4F3B6"/>
<path d="M40.0689 29.9858L52.8801 41.8149L104.982 59.5215C104.982 59.5215 97.0251 50.0966 86.8227 45.8637C76.6202 41.6282 40.0689 29.9858 40.0689 29.9858Z" fill="#428B75"/>
<path d="M107.961 177.045L85.3923 166.62L33.7688 164.687L19.3692 178.05L107.961 177.045Z" fill="#6973BD"/>
<path d="M20.8577 179.695C21.5943 180.636 30.4898 191.68 22.9755 208.364H103.503C103.503 208.364 114.514 204.75 112.984 191.923C111.455 179.097 99.3775 178.588 99.3775 178.588L20.8577 179.695Z" fill="#EDEDF7"/>
<path d="M21.8199 181.033C21.8199 181.033 99.7974 176.066 107.961 183.335C116.125 190.603 107.961 200.45 107.961 200.45C111.591 184.44 98.2296 185.36 98.2296 185.36L24.4645 186.394C23.6128 183.987 22.5744 182.176 21.8199 181.033Z" fill="#D0D2EA"/>
<path d="M33.6184 46.9045H66.3537L105.759 59.9434L104.79 65.2429L33.6184 46.9045Z" fill="white"/>
<path d="M104.061 58.4959L37.0145 34.0857L43.7948 42.132L104.79 61.1379L104.061 58.4959Z" fill="#EDEDF7"/>
<path d="M27.7282 63.5906C27.7282 63.5906 33.8614 58.1914 33.6184 46.9045L104.793 61.1378C104.793 61.1378 107.432 72.6958 93.0018 72.9797C78.569 73.2611 27.7282 63.5906 27.7282 63.5906Z" fill="#EDEDF7"/>
<path d="M14.0648 87.2566L49.5674 72.9773L85.6379 70.9517L96.9248 76.3508L14.0648 87.2566Z" fill="#6973BD"/>
<path d="M105.69 107.467L81.6532 101.802L32.1449 103.587L13.4945 107.467H105.69Z" fill="#AF381E"/>
<path d="M6.58886 144.074C6.58886 144.074 19.7582 159.042 8.77566 175.973L98.2319 172.032C98.2319 172.032 106.542 169.738 104.792 156.615C103.043 143.491 96.1908 142.392 92.2649 142.496C88.3389 142.601 6.58886 144.074 6.58886 144.074Z" fill="#EDEDF7"/>
<path d="M100.649 145.827C102.516 147.914 104.079 151.264 104.79 156.618C104.895 157.413 104.964 158.167 105 158.886C104.222 162.017 102.567 163.83 102.567 163.83C102.567 163.83 101.831 149.855 94.1014 149.113C87.5282 148.482 27.6384 148.924 9.84743 149.07C8.2131 145.934 6.58388 144.077 6.58388 144.077C6.58388 144.077 56.6293 143.177 80.285 142.735L95.5695 143.065C95.5746 143.062 98.1476 143.852 100.649 145.827Z" fill="#D0D2EA"/>
<path d="M2.08488 141.044L28.71 132.455L88.8274 137.205L100.135 141.77L2.08488 141.044Z" fill="#E3AE4B"/>
<path d="M96.9247 76.3511C96.9247 76.3511 91.9858 91.564 99.3774 99.6615L19.1492 104.815C19.1492 104.815 11.53 105.306 10.5479 96.7176C9.56572 88.129 19.1492 87.2569 19.1492 87.2569L96.9247 76.3511Z" fill="#EDEDF7"/>
<path d="M15.1523 89.6429C18.0552 87.9933 35.2119 85.1312 53.1845 82.4841L78.876 78.8804C87.3725 77.7371 94.1119 76.8726 96.8716 76.5222C96.667 77.1949 95.9304 79.7832 95.5467 83.1312L19.3698 92.973C19.3698 92.973 12.3593 93.6942 12.4642 101.787C12.4591 101.782 12.4565 101.776 12.4514 101.771C12.2314 101.257 8.91928 93.1853 15.1523 89.6429Z" fill="#D0D2EA"/>
<path d="M103.503 109.084C103.503 109.084 94.7204 117.667 101.342 138.433L12.2696 130.115C12.2696 130.115 7.11601 124.593 9.32581 114.948C11.5331 105.303 21.8225 108.956 21.8225 108.956L103.503 109.084Z" fill="#EDEDF7"/>
<path d="M18.4639 113.956C18.4639 113.956 10.6452 114.337 8.96736 122.273C8.67323 120.199 8.68091 117.757 9.32288 114.951C9.36636 114.762 9.4175 114.588 9.46609 114.409C10.3843 112.667 11.8345 111.217 14.0622 110.447C16.1748 109.715 22.2211 109.252 30.2393 108.974L103.5 109.086C103.5 109.086 101.413 111.135 100.04 115.636L18.4639 113.956Z" fill="#D0D2EA"/>
<path d="M107.91 139.251L107.902 139.282C107.659 140.407 106.613 141.175 105.467 141.07L11.287 132.456C11.287 132.456 5.39679 131.765 4.90828 121.368C4.41721 110.971 10.5888 106.322 16.7041 106.181C22.1621 106.056 90.9526 107.214 105.69 107.465C107.127 107.49 108.176 108.82 107.871 110.224C107.641 111.288 106.69 112.043 105.603 112.022L18.1569 110.442C18.1569 110.442 11.5326 109.869 10.796 119.12C10.0594 128.371 14.2309 128.862 14.2309 128.862L105.871 136.499C107.242 136.612 108.199 137.906 107.91 139.251Z" fill="#CB542F"/>
<path d="M0.000244141 143.172C0.000244141 144.349 0.954269 145.303 2.13078 145.303H95.4541C95.4541 145.303 101.099 145.65 101.833 155.17C102.569 164.69 98.398 169.104 96.4337 169.841C94.651 170.511 18.9166 173.204 5.09509 173.692C3.90834 173.733 2.99014 174.741 3.05153 175.928L3.08478 176.567C3.14361 177.736 4.13084 178.636 5.29967 178.588L98.2292 174.749C98.2292 174.749 108.452 174.444 109.93 166.621C112.984 150.456 108.772 143.065 98.2292 141.254C88.6534 139.609 15.4331 140.809 2.08473 141.042C0.923561 141.065 0.000244141 142.011 0.000244141 143.172Z" fill="#F0D763"/>
<path d="M16.7043 180.782C16.7043 179.299 17.8859 178.086 19.3694 178.051L103.503 175.976C103.503 175.976 115.816 176.345 116.921 190.698C118.025 205.052 107.383 211.049 103.503 211.916C100.043 212.689 33.6973 212.083 19.4026 211.944C17.9038 211.929 16.7043 210.712 16.7043 209.213V208.74C16.7043 207.231 17.9268 206.008 19.4359 206.008H98.2292C98.2292 206.008 108.24 206.898 108.547 192.174C108.547 192.174 108.979 181.133 98.2292 181.501C88.7583 181.826 32.7126 183.197 19.4947 183.519C17.9601 183.552 16.7043 182.317 16.7043 180.782Z" fill="#828FC4"/>
<path d="M103.483 101.917L19.1523 106.183C19.1523 106.183 8.77339 107.467 7.36924 101.802C5.17734 92.9577 8.13398 89.111 16.7046 86.1672C24.3673 83.5328 86.4107 74.8163 99.4393 73.003C100.762 72.8188 101.971 73.7498 102.14 75.0747L102.268 76.067C102.434 77.374 101.516 78.571 100.209 78.7474L19.1523 89.6379C19.1523 89.6379 11.5331 92.0574 12.7607 97.7021C13.9884 103.347 19.1523 102.61 19.1523 102.61L103.207 97.1318C104.59 97.0423 105.759 98.1395 105.759 99.5232C105.759 100.799 104.759 101.851 103.483 101.917Z" fill="#828FC4"/>
<path d="M39.5081 26.8374C38.838 28.2773 39.5056 29.9884 40.9737 30.5946L97.1703 53.7745C97.1703 53.7745 104.194 56.7184 103.503 62.8542C102.812 68.9899 99.623 70.3378 90.0523 69.6012C81.8244 68.9695 37.306 62.9846 24.9807 61.3196C23.3055 61.0945 21.8169 62.3963 21.8169 64.0844C21.8169 65.4988 22.8758 66.6906 24.2799 66.8543L88.9065 74.4786C88.9065 74.4786 104.552 77.7217 107.958 70.9491C112.301 62.3094 108.544 53.7029 98.2266 48.3753C92.4974 45.4161 53.4294 29.3976 43.186 25.2082C41.8074 24.6429 40.2371 25.267 39.6079 26.6174L39.5081 26.8374Z" fill="#609682"/>
<path fill-rule="evenodd" clip-rule="evenodd" d="M53.0814 119.067C53.0521 119.642 53.4947 120.132 54.0699 120.161L98.1765 122.409C98.7517 122.439 99.2418 121.996 99.2711 121.421C99.3004 120.846 98.8579 120.356 98.2827 120.326L54.176 118.078C53.6008 118.049 53.1108 118.491 53.0814 119.067Z" fill="#D0D2EA"/>
<path fill-rule="evenodd" clip-rule="evenodd" d="M41.4098 124.255C41.3642 124.829 41.7926 125.331 42.3668 125.377L99.2949 129.901C99.869 129.947 100.371 129.519 100.417 128.944C100.463 128.37 100.034 127.868 99.4601 127.822L42.532 123.298C41.9579 123.252 41.4554 123.681 41.4098 124.255Z" fill="#D0D2EA"/>
<path fill-rule="evenodd" clip-rule="evenodd" d="M73.0874 156.617C73.0874 156.041 72.6205 155.574 72.0445 155.574H12.5844C12.0084 155.574 11.5415 156.041 11.5415 156.617C11.5415 157.193 12.0084 157.66 12.5844 157.66H72.0445C72.6205 157.66 73.0874 157.193 73.0874 156.617Z" fill="#D0D2EA"/>
<path fill-rule="evenodd" clip-rule="evenodd" d="M60.636 163.808C60.6254 163.232 60.15 162.774 59.5741 162.785L12.9559 163.644C12.3801 163.655 11.9219 164.13 11.9325 164.706C11.9431 165.282 12.4185 165.74 12.9944 165.729L59.6126 164.87C60.1884 164.859 60.6467 164.384 60.636 163.808Z" fill="#D0D2EA"/>
<path fill-rule="evenodd" clip-rule="evenodd" d="M89.9521 192.166C89.9521 191.59 89.4852 191.123 88.9093 191.123H25.7943C25.2183 191.123 24.7514 191.59 24.7514 192.166C24.7514 192.742 25.2183 193.209 25.7943 193.209H88.9093C89.4852 193.209 89.9521 192.742 89.9521 192.166Z" fill="#D0D2EA"/>
<path fill-rule="evenodd" clip-rule="evenodd" d="M67.7495 199.527C67.7495 198.951 67.2826 198.484 66.7066 198.484H25.6436C25.0677 198.484 24.6008 198.951 24.6008 199.527C24.6008 200.103 25.0677 200.57 25.6436 200.57H66.7066C67.2826 200.57 67.7495 200.103 67.7495 199.527Z" fill="#D0D2EA"/>
<path fill-rule="evenodd" clip-rule="evenodd" d="M95.3119 86.8019C95.2373 86.2308 94.7138 85.8283 94.1427 85.9029L60.1747 90.3405C59.6035 90.4151 59.2011 90.9385 59.2757 91.5096C59.3503 92.0807 59.8737 92.4832 60.4448 92.4086L94.4129 87.9711C94.984 87.8965 95.3865 87.373 95.3119 86.8019Z" fill="#D0D2EA"/>
<path fill-rule="evenodd" clip-rule="evenodd" d="M32.0535 52.8692C31.9646 53.4383 32.3537 53.9717 32.9228 54.0607L77.1342 60.974C77.7033 61.063 78.2367 60.6738 78.3257 60.1048C78.4147 59.5357 78.0255 59.0023 77.4565 58.9133L33.245 52C32.676 51.911 32.1425 52.3002 32.0535 52.8692Z" fill="#D0D2EA"/>
<path fill-rule="evenodd" clip-rule="evenodd" d="M96.349 91.6036C96.2807 91.0317 95.7617 90.6235 95.1898 90.6918L78.2045 92.72C77.6326 92.7883 77.2243 93.3073 77.2926 93.8792C77.3609 94.4511 77.8799 94.8593 78.4518 94.791L95.4371 92.7628C96.009 92.6945 96.4173 92.1755 96.349 91.6036Z" fill="#D0D2EA"/>
<path fill-rule="evenodd" clip-rule="evenodd" d="M30.5071 57.764C30.4322 58.3351 30.8344 58.8587 31.4054 58.9337L56.0816 62.1717C56.6527 62.2466 57.1763 61.8444 57.2513 61.2733C57.3262 60.7023 56.924 60.1786 56.3529 60.1037L31.6768 56.8657C31.1057 56.7907 30.582 57.1929 30.5071 57.764Z" fill="#D0D2EA"/>
<path d="M238.408 46.0322C238.408 46.0322 262.128 26.6641 271.249 30.8846C280.368 35.1082 276.391 62.676 267.876 79.1479C259.36 95.6198 241.142 119.979 215.196 122.041C189.251 124.104 167.537 116.731 153.914 92.1236C140.291 67.5164 145.179 35.4832 149.864 21.5731C154.549 7.66292 158.592 6.00925 165.347 9.69601C172.102 13.3859 180.875 25.2423 184.424 34.7325C184.424 34.7325 210.149 25.0898 238.408 46.0322Z" fill="#BE9A5C"/>
<path d="M243.486 50.0615C243.486 50.0615 257.748 35.7453 266.325 39.4078C274.902 43.0671 267.471 65.1949 263.438 70.9331C263.441 70.93 256.271 58.7704 243.486 50.0615Z" fill="#EBCBCC"/>
<path d="M178.374 35.213C178.374 35.213 167.621 15.8224 160.15 17.1683C152.679 18.5141 149.982 37.2251 151.624 48.3045C151.621 48.3045 161.486 39.624 178.374 35.213Z" fill="#EBCBCC"/>
<path d="M246.511 59.1116C246.511 59.1116 240.684 55.8156 239.19 55.2171C237.696 54.6185 238.294 50.7263 241.731 51.9236C245.167 53.1239 248.751 59.4128 246.511 59.1116Z" fill="#0B1411"/>
<path d="M171.199 42.1067C171.199 42.1067 174.337 37.6822 178.522 37.8322C182.708 37.9822 181.809 42.1099 180.315 42.1094C176.38 42.1082 171.198 43.5384 171.199 42.1067Z" fill="#0B1411"/>
<path d="M202.396 85.217C202.396 85.217 206.677 85.9682 211.009 92.2544C211.009 92.2544 225.352 96.1511 227.145 102.44C228.937 108.728 214.738 118.904 194.564 114.256C172.165 109.095 168.466 94.7891 170.559 90.1505C172.652 85.5118 188.295 87.159 188.295 87.159C188.295 87.159 193.781 82.3695 202.396 85.217Z" fill="white"/>
<path d="M211.007 96.5963C211.007 96.5963 202.936 97.3438 199.653 90.9031C199.653 90.9031 195.467 94.1961 187.697 91.7983C187.697 91.7983 184.452 101.869 196.658 104.243C208.913 106.627 211.007 96.5963 211.007 96.5963Z" fill="#0B1411"/>
<path d="M199.157 97.7582C203.097 99.095 205.392 101.311 206.598 102.861C204.435 104.28 201.264 105.141 196.658 104.244C191.48 103.238 189.086 100.845 188.042 98.4242C190.418 97.4735 194.761 96.2662 199.157 97.7582Z" fill="#CF7071"/>
<path fill-rule="evenodd" clip-rule="evenodd" d="M201.164 93.4734L202.951 85.2368L198.939 84.3661L197.151 92.6027L201.164 93.4734Z" fill="#0B1411"/>
<path d="M231.444 94.5072C222.283 94.5045 214.859 87.0626 214.862 77.8854C214.865 68.7082 222.293 61.2708 231.454 61.2735C240.615 61.2762 248.039 68.7181 248.036 77.8953C248.034 87.0725 240.605 94.5099 231.444 94.5072Z" fill="white"/>
<path fill-rule="evenodd" clip-rule="evenodd" d="M211.862 77.8845C211.859 88.7135 220.621 97.504 231.443 97.5072C242.266 97.5104 251.033 88.7252 251.036 77.8962C251.039 67.0672 242.278 58.2767 231.455 58.2735C220.632 58.2703 211.865 67.0555 211.862 77.8845ZM214.862 77.8854C214.859 87.0626 222.283 94.5045 231.444 94.5072C240.605 94.5099 248.033 87.0725 248.036 77.8953C248.039 68.7181 240.615 61.2762 231.454 61.2735C222.293 61.2708 214.865 68.7082 214.862 77.8854Z" fill="#6973BD"/>
<path d="M229.089 87.3852C223.48 87.3835 218.935 82.8271 218.936 77.2081C218.938 71.5892 223.486 67.0354 229.095 67.0371C234.704 67.0388 239.25 71.5952 239.248 77.2142C239.246 82.8331 234.698 87.3868 229.089 87.3852Z" fill="#0B1411"/>
<path d="M229.09 83.5021C225.622 83.501 222.811 80.6836 222.812 77.2092C222.813 73.7348 225.626 70.9191 229.094 70.9201C232.562 70.9211 235.373 73.7386 235.372 77.213C235.371 80.6874 232.558 83.5031 229.09 83.5021Z" fill="#0B1411"/>
<path d="M227.546 75.9803C225.967 75.9798 224.688 74.6974 224.688 73.1159C224.689 71.5345 225.969 70.2528 227.547 70.2533C229.126 70.2538 230.405 71.5362 230.405 73.1176C230.404 74.6991 229.124 75.9807 227.546 75.9803Z" fill="white"/>
<path d="M176.866 82.9252C167.705 82.9225 160.281 75.4806 160.284 66.3034C160.286 57.1262 167.715 49.6888 176.876 49.6915C186.037 49.6942 193.461 57.1361 193.458 66.3133C193.455 75.4905 186.027 82.9279 176.866 82.9252Z" fill="white"/>
<path fill-rule="evenodd" clip-rule="evenodd" d="M157.284 66.3025C157.28 77.1315 166.042 85.922 176.865 85.9252C187.688 85.9284 196.455 77.1432 196.458 66.3142C196.461 55.4852 187.699 46.6947 176.877 46.6915C166.054 46.6883 157.287 55.4735 157.284 66.3025ZM160.284 66.3034C160.281 75.4806 167.705 82.9225 176.866 82.9252C186.027 82.9279 193.455 75.4905 193.458 66.3133C193.461 57.1361 186.037 49.6942 176.876 49.6915C167.715 49.6888 160.286 57.1262 160.284 66.3034Z" fill="#6973BD"/>
<path d="M179.633 76.5607C174.024 76.559 169.479 72.0026 169.48 66.3837C169.482 60.7647 174.03 56.211 179.639 56.2127C185.248 56.2143 189.794 60.7708 189.792 66.3897C189.79 72.0087 185.242 76.5624 179.633 76.5607Z" fill="#0B1411"/>
<path d="M179.635 72.6778C176.166 72.6768 173.356 69.8594 173.357 66.385C173.358 62.9106 176.17 60.0948 179.638 60.0959C183.107 60.0969 185.917 62.9143 185.916 66.3887C185.915 69.8631 183.103 72.6788 179.635 72.6778Z" fill="#0B1411"/>
<path d="M178.09 65.156C176.511 65.1555 175.232 63.8731 175.233 62.2917C175.233 60.7102 176.513 59.4286 178.092 59.429C179.67 59.4295 180.95 60.7119 180.949 62.2934C180.949 63.8748 179.669 65.1565 178.09 65.156Z" fill="white"/>
<path fill-rule="evenodd" clip-rule="evenodd" d="M195.374 88.7586C195.374 88.7586 195.374 88.7586 195.375 88.7574L195.374 88.7586C195.677 88.9356 196.066 88.833 196.243 88.5294C196.42 88.2259 196.317 87.8363 196.014 87.6593L195.694 88.209C196.014 87.6593 196.014 87.6592 196.014 87.659L196.012 87.6582L196.008 87.6557L195.991 87.6461C195.977 87.6378 195.956 87.6257 195.928 87.6099C195.873 87.5783 195.791 87.5319 195.684 87.4718C195.47 87.3518 195.153 87.1773 194.742 86.9575C193.919 86.5181 192.716 85.8977 191.189 85.1704C188.136 83.7161 183.786 81.833 178.594 80.1154C168.222 76.6844 154.429 73.8941 140.882 76.5605C140.538 76.6283 140.314 76.9627 140.381 77.3075C140.449 77.6523 140.783 77.8769 141.127 77.8091C154.368 75.2028 167.92 77.9246 178.196 81.3237C183.328 83.0213 187.628 84.8829 190.643 86.3195C192.151 87.0377 193.337 87.6493 194.144 88.0805C194.548 88.296 194.857 88.4665 195.065 88.5826C195.168 88.6407 195.247 88.6851 195.298 88.7148C195.324 88.7297 195.344 88.7409 195.357 88.7482L195.371 88.7563L195.374 88.7582L195.374 88.7586Z" fill="#0B1411"/>
<path fill-rule="evenodd" clip-rule="evenodd" d="M189.531 87.957L189.528 87.9557L189.516 87.9506C189.505 87.9459 189.488 87.9387 189.465 87.9292C189.42 87.9101 189.352 87.8814 189.261 87.8441C189.079 87.7694 188.808 87.66 188.452 87.5225C187.74 87.2473 186.69 86.8599 185.345 86.4135C182.655 85.5205 178.79 84.3925 174.095 83.4557C164.7 81.5811 152.012 80.4781 138.79 83.534C138.448 83.613 138.107 83.3995 138.028 83.0571C137.949 82.7147 138.162 82.3731 138.504 82.2941C151.958 79.1848 164.839 80.3114 174.343 82.2078C179.098 83.1564 183.014 84.2991 185.745 85.2056C187.11 85.6589 188.179 86.0534 188.909 86.3352C189.274 86.4761 189.554 86.5889 189.743 86.6669C189.838 86.7059 189.91 86.7361 189.959 86.7569C189.984 86.7672 190.003 86.7752 190.015 86.7807L190.03 86.7871L190.035 86.7893C190.036 86.7895 190.036 86.7896 189.783 87.3733L190.036 86.7896C190.358 86.9294 190.506 87.304 190.366 87.6264C190.227 87.9488 189.853 88.0968 189.531 87.957Z" fill="#0B1411"/>
<path fill-rule="evenodd" clip-rule="evenodd" d="M191.974 90.7262C191.973 90.7284 191.973 90.7284 191.973 90.7284L191.969 90.7272L191.955 90.7231C191.942 90.7195 191.922 90.7139 191.896 90.7065C191.843 90.6917 191.763 90.6697 191.658 90.6412C191.447 90.5843 191.133 90.5015 190.724 90.399C189.907 90.1941 188.711 89.9107 187.202 89.5981C184.183 88.9729 179.915 88.2318 174.923 87.7699C164.926 86.8447 152.083 87.0441 140.558 91.4824C140.23 91.6085 139.863 91.4448 139.737 91.1168C139.611 90.7889 139.775 90.4208 140.102 90.2947C151.888 85.7559 164.955 85.5695 175.04 86.5028C180.088 86.97 184.404 87.7193 187.459 88.352C188.987 88.6684 190.2 88.9559 191.032 89.1646C191.449 89.269 191.77 89.3538 191.988 89.4126C192.097 89.442 192.18 89.465 192.237 89.4807C192.265 89.4886 192.286 89.4946 192.301 89.4988L192.318 89.5036L192.323 89.5052C192.324 89.5053 192.324 89.5054 192.149 90.1169L192.324 89.5054C192.661 89.6024 192.856 89.9549 192.759 90.2926C192.662 90.6303 192.31 90.8254 191.973 90.7284L191.974 90.7262Z" fill="#0B1411"/>
<path fill-rule="evenodd" clip-rule="evenodd" d="M204.284 90.2189C204.284 90.2189 204.284 90.2189 204.284 90.2176L204.284 90.2189C203.935 90.2557 203.622 90.0023 203.586 89.6529C203.549 89.3034 203.802 88.9903 204.151 88.9534L204.217 89.5862C204.151 88.9534 204.151 88.9534 204.151 88.9534L204.153 88.9532L204.158 88.9527L204.177 88.9508C204.193 88.9491 204.217 88.9467 204.249 88.9436C204.312 88.9375 204.406 88.9288 204.528 88.9181C204.773 88.8968 205.133 88.8678 205.598 88.8365C206.529 88.7741 207.88 88.703 209.571 88.6674C212.95 88.5962 217.688 88.6671 223.127 89.2353C233.991 90.3704 247.712 93.4962 258.973 101.497C259.259 101.7 259.327 102.097 259.124 102.384C258.921 102.67 258.525 102.738 258.239 102.535C247.231 94.7145 233.758 91.6255 222.995 90.5009C217.62 89.9393 212.936 89.8693 209.597 89.9396C207.928 89.9747 206.596 90.0449 205.683 90.1062C205.227 90.1368 204.875 90.1652 204.638 90.1858C204.52 90.1961 204.43 90.2045 204.371 90.2102C204.341 90.2131 204.319 90.2153 204.304 90.2168L204.288 90.2184L204.285 90.2188L204.284 90.2189Z" fill="#0B1411"/>
<path fill-rule="evenodd" clip-rule="evenodd" d="M209.943 91.8907L209.946 91.8908L209.959 91.891C209.971 91.8912 209.989 91.8916 210.014 91.8922C210.063 91.8933 210.137 91.8953 210.235 91.8986C210.431 91.9052 210.724 91.917 211.105 91.938C211.867 91.9799 212.983 92.0582 214.392 92.2039C217.211 92.4953 221.198 93.0557 225.863 94.1315C235.198 96.2842 247.22 100.494 258.027 108.717C258.306 108.929 258.704 108.875 258.916 108.595C259.129 108.315 259.074 107.916 258.795 107.703C247.799 99.337 235.592 95.0693 226.148 92.8915C221.423 91.802 217.384 91.234 214.523 90.9382C213.092 90.7903 211.955 90.7104 211.174 90.6674C210.784 90.646 210.482 90.6337 210.277 90.6268C210.175 90.6234 210.097 90.6213 210.043 90.6201C210.017 90.6194 209.997 90.619 209.983 90.6188L209.967 90.6185L209.961 90.6184C209.961 90.6184 209.96 90.6184 209.951 91.2545L209.96 90.6184C209.609 90.6136 209.321 90.8945 209.316 91.2458C209.312 91.5971 209.592 91.8858 209.943 91.8907Z" fill="#0B1411"/>
<path fill-rule="evenodd" clip-rule="evenodd" d="M206.579 93.4108C206.578 93.413 206.578 93.413 206.578 93.413L206.583 93.4136L206.597 93.4158C206.611 93.4178 206.631 93.4208 206.658 93.425C206.712 93.4333 206.794 93.446 206.902 93.4633C207.118 93.4981 207.438 93.5517 207.853 93.6262C208.682 93.7754 209.889 94.0086 211.393 94.3439C214.402 95.0147 218.597 96.0935 223.339 97.7245C232.834 100.99 244.464 106.452 253.156 115.237C253.403 115.487 253.806 115.489 254.055 115.241C254.304 114.994 254.306 114.591 254.059 114.342C245.17 105.357 233.33 99.8157 223.751 96.521C218.956 94.8716 214.714 93.7807 211.669 93.1019C210.146 92.7624 208.922 92.5258 208.077 92.3738C207.655 92.2978 207.327 92.243 207.104 92.2071C206.992 92.1891 206.907 92.1758 206.849 92.167C206.82 92.1626 206.798 92.1593 206.783 92.1571L206.766 92.1545L206.76 92.1537C206.76 92.1536 206.76 92.1536 206.669 92.7833L206.76 92.1536C206.412 92.1035 206.09 92.3448 206.04 92.6926C205.99 93.0404 206.231 93.3629 206.578 93.413L206.579 93.4108Z" fill="#0B1411"/>
<path fill-rule="evenodd" clip-rule="evenodd" d="M203.476 73.1686C200.751 72.6461 197.514 73.4041 193.268 75.9513L191.725 73.3789C196.269 70.6523 200.283 69.5016 204.041 70.2222C207.797 70.9425 210.94 73.4644 213.896 77.2592L211.53 79.1029C208.773 75.5644 206.203 73.6914 203.476 73.1686Z" fill="#6973BD"/>
<path d="M192.245 75.479C191.443 78.344 197.194 85.1865 200.478 85.9526C203.762 86.7219 211.731 84.0446 212.533 81.1796C213.336 78.3146 209.444 74.7154 203.841 73.1392C198.239 71.5629 193.048 72.614 192.245 75.479Z" fill="#CF7071"/>
</g>
<defs>
<clipPath id="clip0_147_1125">
<rect width="340" height="240" fill="white" transform="matrix(-1 0 0 1 340 0)"/>
</clipPath>
</defs>
</svg>
