<svg width="360" height="440" viewBox="0 0 360 440" fill="none" xmlns="http://www.w3.org/2000/svg">
<path d="M204.141 426.582C201.423 426.11 199.603 423.523 200.074 420.805L207.155 380.008C207.626 377.289 210.212 375.468 212.93 375.94L243.692 381.283C246.41 381.755 248.231 384.342 247.759 387.061L240.679 427.858C240.207 430.576 237.621 432.398 234.904 431.926L204.141 426.582Z" fill="#FFD152"/>
<path d="M346.934 209.116C348.871 212.824 350.476 216.776 351.751 220.973C352.871 224.662 353.621 228.557 354 232.656C357.5 246.777 348.538 269.577 345.526 275.354C342.757 281.174 339.241 286.234 334.978 290.534C331.001 294.631 326.234 298.214 320.677 301.281C315.121 304.348 309.219 307.229 302.973 309.925C295.954 312.738 288.833 315.407 281.612 317.933C274.634 320.502 268.505 323.974 263.224 328.349C259.256 331.664 256.408 336.286 254.682 342.217C253.91 344.866 251.363 346.702 248.645 346.23L218.248 340.95C215.531 340.478 213.698 337.889 214.281 335.191C215.567 329.231 217.255 323.654 219.344 318.459C222.282 311.66 226.455 305.707 231.864 300.598C237.273 295.489 244.404 291.309 253.258 288.058C257.055 286.45 261.89 284.643 267.765 282.639C273.883 280.678 279.822 278.307 285.58 275.527C291.38 272.502 296.433 268.717 300.739 264.173C305.331 259.426 308.222 253.627 309.411 246.777C310.599 239.927 309.89 233.881 307.283 228.64C304.919 223.441 301.267 219.152 296.326 215.774C291.63 212.438 286.233 210.24 280.136 209.181C273.064 207.953 266.448 208.442 260.287 210.648C254.168 212.609 248.776 215.453 244.11 219.179C240.971 221.685 238.099 224.294 235.493 227.007C233.471 229.112 230.094 229.288 228.013 227.241L206.807 206.382C205.103 204.705 204.812 202.046 206.223 200.116C211.881 192.381 218.558 185.983 226.255 180.921C235.29 175.181 245.126 171.345 255.761 169.412C266.641 167.522 277.567 167.529 288.541 169.435C297.808 171.045 306.699 174.102 315.212 178.605C323.768 182.863 338.513 193 346.934 209.116Z" fill="#FFD152"/>
<path d="M194.582 415.719C194.063 418.71 196.065 421.555 199.055 422.075L229.818 427.418C232.808 427.938 235.652 425.934 236.171 422.943L243.251 382.146C243.77 379.156 241.768 376.31 238.778 375.791L208.015 370.447C205.025 369.928 202.181 371.932 201.662 374.922L194.582 415.719Z" stroke="#67676A" stroke-linecap="round"/>
<path d="M71.8633 283.981C69.1293 284.22 66.7181 282.188 66.4778 279.442L62.4352 233.262C62.1948 230.516 64.2163 228.096 66.9502 227.857L106.552 224.392C109.286 224.153 111.698 226.185 111.938 228.931L115.981 275.111C116.221 277.857 114.2 280.277 111.466 280.516L71.8633 283.981Z" fill="#FF80DD"/>
<path d="M102.219 114.745L105.649 157.088L107.293 175.872C107.534 178.618 105.512 181.037 102.778 181.277L63.176 184.741C60.442 184.981 58.0308 182.948 57.7905 180.203L44.0194 22.8889C43.779 20.143 45.8005 17.7231 48.5344 17.4839L88.1367 14.0191C90.8707 13.7799 93.2818 15.8121 93.5222 18.558L102.219 114.745Z" fill="#FF80DD"/>
<path d="M60.9797 274.486C61.244 277.505 63.8958 279.742 66.9069 279.479L106.509 276.014C109.52 275.751 111.743 273.086 111.479 270.067L107.436 223.887C107.172 220.868 104.52 218.63 101.509 218.894L61.9067 222.359C58.8955 222.622 56.6728 225.286 56.9371 228.305L60.9797 274.486Z" stroke="#67676A" stroke-linecap="round"/>
</svg>
