<svg width="750" height="1100" viewBox="0 0 750 1100" fill="none" xmlns="http://www.w3.org/2000/svg">
<path opacity="0.3" fill-rule="evenodd" clip-rule="evenodd" d="M-158.924 137.756C-67.9185 67.6281 37.7614 -19.2674 151.099 3.78652C264.155 26.7832 284.728 183.31 379.889 247.355C486.165 318.881 665.258 280.904 727.344 391.612C788.161 500.055 713 635.241 660.577 747.857C611.637 852.992 539.615 945.903 440.299 1008.25C342.682 1069.53 227.869 1088.14 112.022 1092.23C-12.1406 1096.61 -166.801 1125.89 -246.402 1032.47C-328.196 936.485 -231.261 790.083 -250.755 666.495C-266.414 567.217 -365.199 487.428 -347.996 388.382C-329.767 283.419 -244.361 203.592 -158.924 137.756Z" fill="#8FA9FF"/>
</svg>
