<svg width="770" height="718" viewBox="0 0 770 718" fill="none" xmlns="http://www.w3.org/2000/svg">
<path fill-rule="evenodd" clip-rule="evenodd" d="M722.065 317.366C738.793 411.479 805.221 508.126 745.683 592.597C684.666 679.168 554.544 715.744 439.714 717.96C341.468 719.856 272.716 654.058 198.012 603.166C132.569 558.583 68.787 514.658 40.9235 446.285C6.5746 361.998 -24.1041 266.911 27.4998 184.755C83.0563 96.3059 195.755 46.3425 307.841 21.3403C424.836 -4.75726 559.642 -17.3328 648.566 46.2169C733.603 106.988 705.043 221.598 722.065 317.366Z" fill="#FFF1CB"/>
<path opacity="0.92" d="M281 619C410.235 619 515 599.301 515 575C515 550.699 410.235 531 281 531C151.765 531 47 550.699 47 575C47 599.301 151.765 619 281 619Z" fill="#CDC6B3"/>
<path d="M239.519 479.609C241.373 478.293 263.772 462.845 244.851 439.508H447.615C447.615 439.508 475.339 444.563 471.488 462.505C467.637 480.446 437.227 481.158 437.227 481.158L239.519 479.609Z" fill="#EDEDF7"/>
<path d="M241.94 477.738C241.94 477.738 438.283 484.686 458.839 474.518C479.396 464.351 458.839 450.577 458.839 450.577C467.978 472.973 434.335 471.685 434.335 471.685L248.599 470.24C246.454 473.606 243.839 476.139 241.94 477.738Z" fill="#D0D2EA"/>
<path d="M203.59 529.434C203.59 529.434 236.749 508.498 209.096 484.815L434.342 490.328C434.342 490.328 455.266 493.537 450.861 511.893C446.456 530.25 429.203 531.788 419.317 531.642C409.432 531.495 203.59 529.434 203.59 529.434Z" fill="#EDEDF7"/>
<path d="M440.428 526.984C445.129 524.064 449.064 519.378 450.854 511.89C451.118 510.777 451.292 509.722 451.382 508.717C449.424 504.338 445.258 501.801 445.258 501.801C445.258 501.801 443.403 521.349 423.941 522.386C407.39 523.27 256.591 522.651 211.794 522.447C207.679 526.833 203.577 529.431 203.577 529.431C203.577 529.431 329.589 530.69 389.152 531.309L427.638 530.847C427.651 530.851 434.129 529.745 440.428 526.984Z" fill="#D0D2EA"/>
<path d="M192.249 533.673L259.289 545.687L410.662 539.043L439.133 532.657L192.249 533.673Z" fill="#E3AE4B"/>
<path d="M447.615 578.378C447.615 578.378 425.499 566.372 442.173 537.326L217.893 548.96C217.893 548.96 204.916 556.684 210.48 570.175C216.038 583.666 241.946 578.557 241.946 578.557L447.615 578.378Z" fill="#EDEDF7"/>
<path d="M233.491 571.563C233.491 571.563 213.804 571.03 209.579 559.929C208.838 562.83 208.858 566.247 210.474 570.171C210.584 570.436 210.712 570.679 210.835 570.93C213.147 573.366 216.798 575.395 222.407 576.472C227.727 577.495 242.951 578.142 263.141 578.532L447.608 578.375C447.608 578.375 442.353 575.509 438.895 569.213L233.491 571.563Z" fill="#D0D2EA"/>
<path d="M458.711 536.181L458.691 536.138C458.08 534.564 455.446 533.491 452.56 533.638L215.42 545.687C215.42 545.687 200.589 546.653 199.358 561.196C198.122 575.738 213.662 582.242 229.06 582.439C242.803 582.614 416.013 580.994 453.121 580.643C456.74 580.607 459.38 578.747 458.614 576.783C458.034 575.295 455.639 574.239 452.902 574.268L232.718 576.479C232.718 576.479 216.038 577.28 214.183 564.34C212.329 551.4 222.832 550.713 222.832 550.713L453.578 540.031C457.03 539.873 459.438 538.063 458.711 536.181Z" fill="#CB542F"/>
<path d="M187 530.937C187 529.212 189.4 527.813 192.36 527.813H427.138C427.138 527.813 441.338 527.303 443.185 513.343C445.038 499.383 434.543 492.91 429.602 491.83C425.117 490.847 234.589 486.898 199.817 486.181C196.832 486.121 194.522 484.644 194.676 482.903L194.76 481.966C194.908 480.252 197.392 478.931 200.332 479.003L434.119 484.632C434.119 484.632 459.837 485.079 463.556 496.552C471.239 520.255 460.641 531.095 434.119 533.75C410.028 536.162 225.825 534.403 192.244 534.061C189.323 534.027 187 532.64 187 530.937Z" fill="#F0D763"/>
<path d="M229.06 478.089C229.06 480.164 232.035 481.86 235.77 481.91L447.615 484.811C447.615 484.811 478.617 484.296 481.399 464.219C484.181 444.141 457.384 435.752 447.615 434.539C438.901 433.459 271.847 434.307 235.854 434.5C232.08 434.521 229.06 436.224 229.06 438.321V438.983C229.06 441.093 232.138 442.803 235.938 442.803H434.335C434.335 442.803 459.542 441.558 460.314 462.154C460.314 462.154 461.403 477.599 434.335 477.084C410.488 476.629 269.368 474.712 236.086 474.261C232.222 474.214 229.06 475.942 229.06 478.089Z" fill="#2C3765"/>
<path fill-rule="evenodd" clip-rule="evenodd" d="M320.655 564.414C320.581 563.61 321.695 562.924 323.144 562.883L434.202 559.739C435.65 559.698 436.884 560.317 436.958 561.121C437.032 561.926 435.918 562.611 434.469 562.652L323.411 565.797C321.963 565.838 320.729 565.219 320.655 564.414Z" fill="#D0D2EA"/>
<path fill-rule="evenodd" clip-rule="evenodd" d="M291.267 557.157C291.153 556.354 292.231 555.652 293.677 555.588L437.019 549.259C438.465 549.195 439.73 549.795 439.845 550.598C439.96 551.401 438.881 552.104 437.435 552.167L294.093 558.496C292.647 558.56 291.382 557.961 291.267 557.157Z" fill="#D0D2EA"/>
<path fill-rule="evenodd" clip-rule="evenodd" d="M371.028 511.889C371.028 512.695 369.853 513.348 368.402 513.348H218.685C217.235 513.348 216.059 512.695 216.059 511.889C216.059 511.084 217.235 510.43 218.685 510.43H368.402C369.853 510.43 371.028 511.084 371.028 511.889Z" fill="#D0D2EA"/>
<path fill-rule="evenodd" clip-rule="evenodd" d="M339.678 501.832C339.651 502.637 338.454 503.278 337.004 503.263L219.622 502.061C218.172 502.046 217.018 501.381 217.045 500.576C217.071 499.77 218.269 499.129 219.719 499.144L337.101 500.346C338.551 500.361 339.704 501.026 339.678 501.832Z" fill="#D0D2EA"/>
<path fill-rule="evenodd" clip-rule="evenodd" d="M413.494 462.165C413.494 462.971 412.318 463.624 410.868 463.624H251.948C250.497 463.624 249.322 462.971 249.322 462.165C249.322 461.359 250.497 460.706 251.948 460.706H410.868C412.318 460.706 413.494 461.359 413.494 462.165Z" fill="#D0D2EA"/>
<path fill-rule="evenodd" clip-rule="evenodd" d="M357.588 451.868C357.588 452.674 356.413 453.327 354.962 453.327H251.568C250.118 453.327 248.942 452.674 248.942 451.868C248.942 451.063 250.118 450.41 251.568 450.41H354.962C356.413 450.41 357.588 451.063 357.588 451.868Z" fill="#D0D2EA"/>
<path d="M283.374 313.646C283.374 313.646 256.345 332.422 248.016 334.584C239.687 336.747 205.475 351.436 205.475 351.436L209.28 371.496C209.28 371.496 259.633 360.044 283.613 346.557C307.594 333.069 304.129 309.53 283.374 313.646Z" fill="#828FC4"/>
<path d="M207.389 348.909C211.958 348.031 220.07 352.96 220.435 357.748C220.585 359.727 219.967 361.689 219.26 363.539C216.473 370.714 211.884 377.174 206.009 382.182C203.648 384.212 195.16 390.149 192.392 386.013C191.423 384.542 191.682 382.482 192.692 381.034C191.32 381.47 190.092 382.232 188.748 382.689C187.404 383.147 185.826 383.34 184.591 382.622C182.39 381.345 182.474 378.198 183.019 375.704C180.22 375.103 178.075 372.264 178.296 369.394C178.421 367.797 179.175 366.285 180.074 364.927C186.052 355.658 196.976 350.915 207.389 348.909Z" fill="#E1EDFF"/>
<path d="M216.58 451.181C216.58 451.181 193.87 464.663 198.956 470.484C204.085 476.327 211.166 471.892 211.166 471.892C211.166 471.892 208.373 482.946 227.081 473.535C245.789 464.123 246.288 452.021 241.589 447.529C236.934 443.06 223.974 446.247 216.58 451.181Z" fill="#E1EDFF"/>
<path d="M217.131 384.575C217.131 384.575 156.62 373.079 171.452 418.701C181.521 449.723 218.995 453.86 218.995 453.86C218.995 453.86 242.257 456.573 249.265 446.898C256.229 437.2 251.591 403.286 217.131 384.575Z" fill="#828FC4"/>
<path d="M345.47 288.084C345.47 288.084 344.951 311.153 344.743 332.251C344.571 348.887 347.199 388.523 318.7 419.996C297.948 442.927 271.352 445.763 248.075 436.424C224.799 427.086 229.952 380.533 250.669 362.963C271.352 345.359 299.401 322.325 310.226 307.211C321.052 292.096 307.217 274.008 307.217 274.008L345.47 288.084Z" fill="#828FC4"/>
<path d="M295.354 289.156C295.354 289.156 289.164 310.911 269.795 324.365C250.427 337.819 220.13 361.096 229.122 402.461C229.122 402.461 229.122 423.143 250.15 426.083C264.054 428.02 284.287 412.11 295.147 389.871C306.007 367.632 307.875 343.837 316.002 329.346C324.13 314.854 321.26 302.299 321.26 302.299L295.354 289.156Z" fill="#E1EDFF"/>
<path d="M222.627 462.975C218.825 466.764 215.276 472.143 216.98 477.262C217.369 478.481 218.141 479.651 219.338 480.104C220.078 480.377 220.877 480.376 221.644 480.277C224.623 479.944 227.515 478.769 229.913 476.952C228.499 477.185 228.351 479.228 228.694 480.644C229.171 482.597 229.963 484.74 231.757 485.584C233.55 486.428 235.77 485.648 237.178 484.256C238.585 482.863 239.387 480.938 240.134 479.066C239.803 482.584 243.98 485.21 247.338 484.357C250.707 483.537 253.089 480.419 254.618 477.245C256.239 473.788 257.185 470.038 257.378 466.201C258.454 442.698 231.582 454.058 222.627 462.975Z" fill="#E1EDFF"/>
<path d="M300.543 398.791C293.592 390.08 282.89 384.634 272.279 381.409C260.655 377.854 247.078 375.575 237.142 382.553C225.461 390.778 222.383 404.355 223.549 417.923C224.167 424.986 231.215 457.007 231.215 457.007C243.167 465.576 256.981 457.325 256.981 457.325L258.112 440.375C258.112 440.375 278.426 451.035 291.514 441.418C302.836 433.09 310.764 422.432 306.268 409.236C304.952 405.336 302.975 401.864 300.543 398.791Z" fill="#ACB3DB"/>
<path d="M207.19 602.173C206.271 603.942 204.617 606.187 202.131 608.346C199.525 610.407 195.782 612.631 190.012 612.499C188.049 612.422 186.161 612.086 184.332 611.458C182.503 610.83 180.689 609.893 179.185 608.63C177.649 607.381 176.095 605.837 174.834 604.013C173.65 602.192 172.48 600.062 171.599 597.729C168.105 588.382 168.806 575.439 173.706 563.777C176.057 557.895 179.458 552.419 183.29 547.319C187.255 542.349 191.662 537.864 196.423 534.093C197.569 533.094 198.831 532.271 200.034 531.398C201.25 530.557 202.393 529.635 203.665 528.921C206.136 527.411 208.639 525.887 210.748 524.841C215.158 522.586 219.22 520.826 222.724 519.427C222.724 519.427 224.101 518.779 226.614 517.705C229.095 516.645 232.697 515.126 237.124 513.507C238.227 513.094 239.376 512.699 240.574 512.245C241.755 511.836 242.999 511.399 244.383 510.937C245.075 510.707 245.736 510.49 246.46 510.245C247.12 510.028 247.812 509.798 248.518 509.599C249.885 509.183 251.315 508.739 252.777 508.281C258.321 506.622 264.413 504.833 270.835 502.936C283.304 499.233 296.507 495.054 308.026 490.145C313.792 487.706 319.071 485.105 323.609 482.453C328.146 479.802 331.866 477.097 334.644 474.657C334.968 474.363 335.323 474.054 335.741 473.718C336.128 473.395 336.455 473.023 336.846 472.624C337.25 472.256 337.64 471.856 338.094 471.428C338.47 470.997 338.847 470.565 339.241 470.088C340.134 469.201 340.708 468.191 341.546 467.177C341.848 466.665 342.137 466.121 342.486 465.627C342.669 465.356 342.82 465.1 342.926 464.827C343.063 464.539 343.183 464.297 343.32 464.009C344.307 461.795 344.943 459.471 345.095 456.567C345.068 455.822 345.118 455.081 345.109 454.291C344.977 453.48 344.908 452.641 344.825 451.77C344.819 451.243 344.727 451.207 344.679 450.926C344.658 450.709 344.623 450.459 344.525 450.238C344.424 449.753 344.214 449.279 344.036 448.79C343.154 446.798 341.542 444.523 339.199 442.648C338.098 441.698 336.852 440.85 335.554 440.138C334.288 439.413 332.982 438.856 331.701 438.44C331.382 438.316 331.076 438.225 330.771 438.133C330.42 438.024 330.083 437.946 329.714 437.882C329.026 437.695 328.303 437.599 327.629 437.443C326.246 437.223 324.876 437.035 323.577 437.005C320.982 436.868 318.668 437.022 316.894 437.202C314.372 437.486 311.218 437.709 307.988 437.248C304.772 436.818 301.435 435.686 298.851 433.009C296.579 430.611 294.497 425.821 293.89 420.946C293.237 416.053 294.158 410.955 297.593 408.376C299.889 406.641 302.959 405.888 305.955 405.394C311.031 404.471 317.244 403.725 324.478 404.004C328.095 404.143 331.933 404.524 335.903 405.377C339.814 406.18 344.135 407.482 348.212 409.346C356.385 413.029 364.306 418.79 370.431 427.16C373.456 431.344 375.97 436.17 377.531 441.492C377.887 442.81 378.24 444.204 378.487 445.532L379.026 449.227C379.454 451.647 379.502 454.236 379.6 456.764C379.922 467.061 376.478 477.738 371.327 486.183C366.067 494.638 359.361 500.935 352.93 505.974C346.454 510.997 340.067 514.769 334.286 517.857C328.504 520.946 323.268 523.301 318.876 525.169C306.281 530.554 293.661 534.854 281.311 538.997C275.159 541.077 269.042 543.065 263.23 545.146C261.751 545.649 260.363 546.188 258.929 546.709L254.843 548.328C252.032 549.497 249.298 550.669 246.623 551.891C241.289 554.365 236.302 557.026 231.795 560.004C230.677 560.726 229.51 561.507 228.624 562.24C227.706 562.986 226.701 563.621 225.825 564.462C224.018 566.018 222.312 567.719 220.711 569.486C214.278 576.57 210.103 585.339 209.195 593.116C208.472 597.294 208.436 600.033 207.19 602.173Z" fill="#828FC4"/>
<path d="M207.19 602.173C208.437 600.033 208.504 597.28 209.02 592.891C209.324 589.731 210.347 586.404 211.725 583.108C212.12 582.291 212.378 581.42 212.818 580.62L214.11 578.157C215.114 576.578 216.043 574.919 217.229 573.41C218.31 571.835 219.601 570.394 220.864 568.889C222.228 567.529 223.537 566.042 225.035 564.812C226.477 563.455 228.013 562.397 229.574 561.139C231.367 559.891 233.219 558.693 235.146 557.576C234.798 557.389 234.356 557.244 233.692 557.198C231.129 557.046 228.369 557.133 225.893 557.435C224.677 557.595 223.385 557.751 222.148 558.033C220.926 558.347 219.685 558.707 218.442 559.144C213.526 560.942 208.83 564.004 205.034 567.991C206.525 564.267 208.505 560.706 210.701 557.124L212.465 554.528L213.348 553.191L214.305 551.935L216.283 549.396C216.972 548.561 217.69 547.79 218.411 546.941C219.294 545.945 220.262 544.458 219.449 543.645C219.049 543.255 218.354 543.222 217.732 543.27C212.893 543.445 207.696 545.632 203.669 549.268C205.109 546.966 207.352 545.028 209.382 543.033C211.292 540.939 213.21 538.35 212.567 536.214C212.231 535.115 211.305 534.39 210.2 533.858C206.372 531.959 201.244 532.337 195.878 534.485C188.874 540.195 182.433 547.433 177.694 555.696C172.926 563.895 169.965 573.186 169.524 581.93C169.05 590.687 171.138 598.651 174.939 604.079C175.882 605.44 177.018 606.639 178.115 607.666C179.259 608.711 180.364 609.584 181.693 610.281C184.307 611.658 187.091 612.393 190.044 612.485C195.845 612.603 199.557 610.393 202.163 608.332C204.617 606.187 206.239 603.956 207.19 602.173Z" fill="#E1EDFF"/>
<path d="M303.704 401.204C297.22 392.141 286.818 386.141 276.39 382.364C264.135 377.886 241.268 372.755 236.158 389.967C234.088 396.944 235.045 404.559 237.578 411.368C240.112 418.177 244.157 424.34 248.292 430.3C256.876 442.603 278.245 452.668 292.461 443.332C304.204 435.61 312.681 425.382 308.882 411.968C307.764 407.971 305.971 404.4 303.704 401.204Z" fill="#ACB3DB"/>
<path d="M277.475 371.587L184.437 353.307L120.429 371.845L184.832 395.163L277.475 371.587Z" fill="#EBCBCC"/>
<path d="M151.805 278.037L85.5647 267.168C79.7893 266.587 75.805 272.82 78.7577 277.819L113.965 375.663C115.357 379.528 118.414 382.567 122.295 383.935L187.407 406.863L151.805 278.037Z" fill="#CC7AA0"/>
<path d="M278.033 383.565L194.471 407.342C189.784 408.677 184.791 406.605 182.434 402.338L143.202 288.564C141.215 284.973 142.71 280.447 146.451 278.756C149.837 277.225 153.836 278.588 155.566 281.879L190.9 393.789L273.441 371.222C277.63 370.077 281.844 372.967 282.288 377.289C282.581 380.136 280.788 382.78 278.033 383.565Z" fill="#E29FB2"/>
<path d="M339.85 314.86C339.85 314.86 328.987 304.44 310.542 322.453C296.257 336.411 281.26 350.261 281.26 350.261L249.048 364.877L252.272 379.121C252.272 379.121 298.703 374.753 322.301 363.096C345.883 351.407 351.567 334.019 339.85 314.86Z" fill="#ACB3DB"/>
<path d="M264.606 359.874C269.092 361.109 274.185 369.119 272.392 373.574C271.651 375.415 270.229 376.901 268.775 378.247C263.101 383.447 256.127 387.209 248.642 389.099C245.626 389.874 235.387 391.441 234.735 386.507C234.518 384.759 235.662 383.026 237.208 382.175C235.785 381.959 234.347 382.099 232.939 381.914C231.531 381.729 230.031 381.204 229.241 380.013C227.833 377.895 229.301 375.11 230.893 373.114C228.65 371.336 227.983 367.841 229.451 365.365C230.27 363.988 231.615 362.967 233.023 362.147C242.486 356.481 254.381 357.063 264.606 359.874Z" fill="#E1EDFF"/>
<path d="M280.102 152.794C280.102 152.794 275.859 103.581 243.085 109.167C210.307 114.751 203.189 164.973 211.077 214.151C218.964 263.33 253.041 298.046 303.794 307.222C356.422 316.732 391.942 299.002 424.291 245.52C456.639 192.038 448.7 141.272 425.649 138.338C402.597 135.409 389.466 147.711 377.44 168.011C377.44 168.011 362.612 153.839 330.418 149.643C305.514 146.398 280.102 152.794 280.102 152.794Z" fill="#ACB3DB"/>
<path d="M322.545 236.59C322.545 236.59 328.03 240.387 334.011 246C339.991 251.646 348.487 253.898 354.674 256.923C360.861 259.947 370.553 266.938 359.252 278.398C348.57 289.22 326.463 302.126 300.273 295.001C273.463 283.549 264.05 264.077 264.463 252.549C264.875 241.021 282.043 241.496 288.518 241.362C294.993 241.228 305.181 236.22 310.873 235.279C316.482 234.338 322.545 236.59 322.545 236.59Z" fill="#E1EDFF"/>
<path d="M294.264 253.913C294.264 253.913 291.338 274.793 307.893 278.139C324.295 281.46 330.71 261.595 330.71 261.595C330.71 261.595 317.092 266.98 314.921 252.933C314.921 252.933 304.409 265.714 294.264 253.913Z" fill="#0B1411"/>
<path d="M322.488 274.217C320.898 271.703 317.95 268.51 312.606 266.639C306.239 264.409 299.663 266.291 295.835 267.879C297.625 272.48 301.136 276.77 307.894 278.14C314.143 279.409 318.935 277.304 322.488 274.217Z" fill="#CB542F"/>
<path d="M247.483 176.21C247.483 176.21 235.298 179.2 228.683 182.735C222.068 186.269 216.851 184.104 220.068 160.595C223.286 137.086 233.05 120.516 246.069 119.093C259.088 117.67 270.072 139.695 270.584 155.781C271.096 171.867 247.483 176.21 247.483 176.21Z" fill="#EBCBCC"/>
<path d="M402.266 198.665C402.266 198.665 412.079 206.483 416.606 212.463C421.132 218.443 426.776 218.663 433.701 195.967C440.626 173.272 438.699 154.136 427.474 147.391C416.248 140.646 397.048 156.045 389.846 170.438C382.643 184.831 402.266 198.665 402.266 198.665Z" fill="#EBCBCC"/>
<path d="M397.409 219.688C394.495 203.774 379.433 193.47 363.755 196.668C348.077 199.865 337.735 215.35 340.649 231.264C343.563 247.178 358.625 257.482 374.303 254.285C389.976 251.085 400.323 235.603 397.409 219.688Z" fill="white"/>
<path d="M300.231 205.189C297.318 189.287 282.254 178.971 266.576 182.168C250.91 185.365 240.564 200.859 243.47 216.765C246.384 232.679 261.457 242.987 277.124 239.785C292.802 236.588 303.145 221.103 300.231 205.189Z" fill="white"/>
<path d="M293.121 207.231C291.319 197.422 282.033 191.068 272.37 193.044C262.711 195.01 256.327 204.555 258.129 214.363C259.922 224.181 269.204 230.529 278.876 228.561C288.541 226.579 294.912 217.036 293.121 207.231Z" fill="#0B1411"/>
<path d="M381.452 219.639C379.661 209.834 370.376 203.474 360.707 205.454C351.047 207.421 344.677 216.975 346.467 226.785C348.268 236.594 357.553 242.937 367.212 240.971C376.87 238.992 383.249 229.446 381.452 219.639Z" fill="#0B1411"/>
<path d="M374.073 216.641C374.603 219.5 372.736 222.281 369.919 222.861C367.112 223.429 364.397 221.582 363.879 218.721C363.35 215.861 365.216 213.081 368.034 212.5C370.849 211.924 373.555 213.78 374.073 216.641Z" fill="white"/>
<path d="M286.867 204.462C287.397 207.321 285.531 210.114 282.713 210.683C279.895 211.263 277.191 209.403 276.673 206.542C276.143 203.683 278.01 200.902 280.816 200.323C283.634 199.754 286.354 201.603 286.867 204.462Z" fill="white"/>
<path fill-rule="evenodd" clip-rule="evenodd" d="M209.719 232.053L209.384 230.969C208.793 231.166 208.464 231.811 208.649 232.409C208.834 233.007 209.463 233.333 210.053 233.136M209.719 232.053C209.384 230.969 209.384 230.969 209.385 230.969L209.388 230.968L209.395 230.965L209.423 230.956C209.446 230.949 209.48 230.938 209.524 230.924C209.611 230.896 209.74 230.856 209.908 230.806C210.245 230.705 210.742 230.561 211.391 230.389C212.688 230.045 214.595 229.586 217.053 229.119C221.967 228.184 229.085 227.217 237.934 227.074C255.635 226.789 280.26 229.805 308.024 242.977C308.582 243.242 308.816 243.92 308.548 244.492C308.28 245.063 307.611 245.312 307.053 245.047C279.635 232.039 255.351 229.074 237.937 229.355C229.229 229.495 222.238 230.447 217.433 231.36C215.031 231.817 213.176 232.265 211.926 232.596C211.301 232.762 210.828 232.898 210.513 232.993C210.356 233.04 210.238 233.077 210.161 233.101C210.123 233.113 210.095 233.122 210.077 233.128L210.057 233.135L210.053 233.136" fill="black"/>
<path fill-rule="evenodd" clip-rule="evenodd" d="M206.141 241.661L205.821 240.573C205.228 240.761 204.891 241.402 205.068 242.003C205.244 242.603 205.868 242.938 206.461 242.749M206.461 242.749L206.468 242.747L206.491 242.739C206.513 242.733 206.546 242.722 206.59 242.709C206.679 242.681 206.813 242.641 206.99 242.588C207.345 242.482 207.874 242.329 208.564 242.138C209.944 241.758 211.969 241.232 214.537 240.652C219.674 239.493 226.976 238.119 235.628 237.269C252.945 235.566 275.592 235.965 297.079 244.293C297.654 244.517 298.305 244.22 298.532 243.631C298.76 243.042 298.478 242.383 297.902 242.16C275.977 233.661 252.949 233.277 235.445 234.998C226.685 235.86 219.291 237.25 214.082 238.426C211.478 239.014 209.419 239.549 208.008 239.937C207.302 240.132 206.759 240.289 206.39 240.399C206.206 240.454 206.065 240.497 205.97 240.526C205.922 240.541 205.886 240.552 205.861 240.56L205.832 240.569L205.822 240.572C205.821 240.573 205.821 240.573 206.141 241.661" fill="black"/>
<path fill-rule="evenodd" clip-rule="evenodd" d="M303.012 248.964C302.833 249.57 302.207 249.92 301.615 249.746C280.17 243.464 257.495 245.128 240.129 248.392C231.455 250.022 224.127 252.047 218.972 253.663C216.394 254.471 214.36 255.176 212.974 255.679C212.281 255.93 211.749 256.131 211.393 256.268C211.214 256.336 211.08 256.389 210.99 256.424C210.946 256.442 210.912 256.455 210.89 256.464L210.866 256.473L210.861 256.475L210.86 256.476C210.282 256.71 209.634 256.425 209.413 255.84C209.192 255.255 209.481 254.592 210.059 254.358L210.459 255.417C210.059 254.358 210.059 254.358 210.06 254.357L210.062 254.356L210.07 254.353L210.098 254.342C210.123 254.332 210.159 254.318 210.207 254.299C210.302 254.261 210.443 254.206 210.628 254.135C210.998 253.993 211.542 253.788 212.25 253.531C213.664 253.019 215.729 252.303 218.341 251.484C223.563 249.847 230.976 247.798 239.753 246.149C257.288 242.854 280.352 241.135 302.264 247.554C302.856 247.727 303.191 248.359 303.012 248.964Z" fill="black"/>
<path fill-rule="evenodd" clip-rule="evenodd" d="M420.717 262.522C420.718 262.523 420.718 262.523 420.04 263.441L420.718 262.523C421.211 262.897 421.306 263.611 420.932 264.118C420.557 264.625 419.855 264.733 419.362 264.359C419.362 264.359 419.362 264.359 419.362 264.359L419.36 264.358L419.348 264.348C419.336 264.339 419.316 264.325 419.29 264.305C419.236 264.266 419.153 264.206 419.039 264.127C418.813 263.968 418.467 263.733 418.001 263.433C417.068 262.834 415.652 261.977 413.741 260.967C409.919 258.945 404.117 256.306 396.241 253.87C380.491 248.998 356.431 244.928 323.301 248.241C322.684 248.303 322.142 247.845 322.091 247.218C322.039 246.591 322.497 246.033 323.114 245.971C356.536 242.629 380.891 246.728 396.921 251.686C404.934 254.165 410.861 256.858 414.797 258.939C416.764 259.98 418.234 260.868 419.217 261.499C419.708 261.815 420.078 262.067 420.328 262.242C420.453 262.329 420.548 262.398 420.613 262.445C420.645 262.469 420.67 262.487 420.688 262.5L420.709 262.516L420.715 262.521L420.717 262.522Z" fill="black"/>
<path fill-rule="evenodd" clip-rule="evenodd" d="M421.101 274.062C421.101 274.062 421.102 274.063 420.405 274.966L421.102 274.063C421.586 274.447 421.667 275.164 421.282 275.662C420.897 276.161 420.192 276.253 419.708 275.869L419.705 275.866L419.69 275.855C419.676 275.844 419.654 275.827 419.625 275.804C419.566 275.759 419.476 275.69 419.356 275.599C419.115 275.418 418.75 275.149 418.265 274.806C417.296 274.119 415.843 273.133 413.927 271.948C410.095 269.578 404.41 266.412 397.027 263.249C382.259 256.924 360.701 250.614 333.567 250.704C332.948 250.706 332.453 250.197 332.459 249.567C332.466 248.937 332.974 248.425 333.592 248.423C361.076 248.332 382.93 254.723 397.921 261.145C405.416 264.355 411.197 267.573 415.111 269.994C417.068 271.205 418.558 272.216 419.563 272.927C420.065 273.283 420.446 273.564 420.704 273.758C420.832 273.854 420.93 273.929 420.997 273.98C421.03 274.006 421.055 274.026 421.073 274.04L421.093 274.056L421.101 274.062Z" fill="black"/>
<path fill-rule="evenodd" clip-rule="evenodd" d="M408.057 279.76C408.057 279.76 408.058 279.761 407.391 280.687L408.058 279.761C408.555 280.128 408.66 280.84 408.292 281.352C407.924 281.864 407.222 281.981 406.725 281.614L406.724 281.613L406.721 281.611L406.704 281.598C406.688 281.587 406.664 281.569 406.632 281.546C406.567 281.499 406.47 281.429 406.34 281.337C406.079 281.152 405.69 280.88 405.176 280.531C404.149 279.835 402.627 278.835 400.661 277.63C396.727 275.219 391.014 271.99 383.914 268.727C369.706 262.196 349.986 255.545 327.868 255C327.249 254.985 326.767 254.462 326.791 253.833C326.815 253.203 327.336 252.705 327.954 252.72C350.466 253.275 370.486 260.038 384.861 266.646C392.052 269.951 397.841 273.223 401.837 275.671C403.834 276.895 405.384 277.913 406.437 278.628C406.964 278.985 407.366 279.266 407.638 279.459C407.774 279.556 407.878 279.63 407.948 279.681C407.983 279.706 408.01 279.726 408.028 279.739L408.049 279.754L408.057 279.76Z" fill="black"/>
<path fill-rule="evenodd" clip-rule="evenodd" d="M316.342 239.611C316.96 239.643 317.427 240.179 317.386 240.808L316.268 240.749C317.386 240.808 317.386 240.808 317.386 240.808L317.386 240.809L317.386 240.811L317.384 240.84L317.378 240.93C317.372 241.008 317.364 241.122 317.354 241.267C317.332 241.558 317.3 241.975 317.257 242.482C317.171 243.496 317.041 244.874 316.866 246.327C316.692 247.777 316.47 249.319 316.198 250.653C315.939 251.928 315.6 253.201 315.119 253.974L315.118 253.975C314.233 255.395 312.719 256.72 310.917 257.73C309.102 258.749 306.919 259.492 304.626 259.687C299.973 260.083 294.931 258.205 291.75 252.047C291.463 251.493 291.676 250.801 292.225 250.501C292.773 250.202 293.45 250.408 293.736 250.962C296.476 256.266 300.643 257.74 304.472 257.414C306.42 257.248 308.296 256.612 309.857 255.736C311.431 254.854 312.609 253.771 313.231 252.774C313.461 252.404 313.739 251.527 314.005 250.222C314.258 248.975 314.471 247.504 314.642 246.082C314.813 244.665 314.94 243.315 315.025 242.319C315.067 241.821 315.098 241.413 315.119 241.129C315.13 240.988 315.137 240.877 315.143 240.803L315.148 240.718L315.15 240.691C315.15 240.691 315.15 240.691 315.15 240.691M316.342 239.611C315.725 239.578 315.191 240.062 315.15 240.691L316.342 239.611Z" fill="black"/>
<path fill-rule="evenodd" clip-rule="evenodd" d="M316.448 251.97C316.448 251.97 316.448 251.97 316.448 251.97L316.448 251.97C316.448 251.97 316.448 251.97 316.448 251.97ZM316.448 251.969C316.429 251.341 315.913 250.854 315.295 250.882C314.677 250.91 314.19 251.443 314.208 252.072L315.328 252.021C314.208 252.072 314.208 252.072 314.208 252.073L314.208 252.074L314.209 252.078L314.209 252.087L314.21 252.116C314.211 252.14 314.213 252.173 314.215 252.214C314.22 252.297 314.228 252.414 314.241 252.56C314.268 252.853 314.316 253.265 314.402 253.761C314.573 254.75 314.897 256.091 315.513 257.487C316.754 260.298 319.216 263.383 323.96 264.133L323.96 264.133C328.167 264.798 331.118 263.725 333.036 262.407C333.982 261.757 334.658 261.06 335.101 260.518C335.322 260.246 335.487 260.012 335.6 259.84C335.656 259.754 335.699 259.683 335.73 259.63C335.746 259.604 335.758 259.582 335.768 259.565L335.78 259.544L335.784 259.536L335.786 259.532L335.787 259.531C335.787 259.53 335.788 259.53 334.806 258.995L335.788 259.53C336.086 258.973 335.888 258.283 335.346 257.987C334.806 257.693 334.128 257.902 333.828 258.453C333.828 258.453 333.828 258.452 333.828 258.453L333.828 258.453L333.827 258.454M333.828 258.453C333.827 258.455 333.826 258.456 333.825 258.458L333.825 258.457L333.826 258.455L333.827 258.454C333.826 258.457 333.821 258.464 333.814 258.476C333.8 258.5 333.776 258.541 333.74 258.596C333.668 258.706 333.551 258.872 333.386 259.074C333.056 259.478 332.538 260.016 331.8 260.523C330.349 261.52 327.972 262.454 324.336 261.879C320.541 261.279 318.594 258.871 317.559 256.527C317.038 255.346 316.758 254.195 316.609 253.335C316.535 252.906 316.494 252.555 316.473 252.316C316.462 252.196 316.455 252.105 316.452 252.046C316.45 252.016 316.449 251.995 316.449 251.982L316.448 251.97C316.448 251.97 316.448 251.969 316.448 251.969" fill="black"/>
<path d="M319.087 225.804C327.301 226.82 333.549 230.662 333.058 234.369C332.558 238.085 316.268 240.749 316.268 240.749C316.268 240.749 302.826 234.4 303.327 230.696C303.828 226.992 310.881 224.797 319.087 225.804Z" fill="#CB542F"/>
</svg>
