<svg width="100" height="100" viewBox="0 0 100 100" fill="none" xmlns="http://www.w3.org/2000/svg">
<path fill-rule="evenodd" clip-rule="evenodd" d="M48.7949 92C71.7147 92 90.2949 73.4198 90.2949 50.5C90.2949 27.5802 71.7147 9 48.7949 9C25.8751 9 7.29492 27.5802 7.29492 50.5C7.29492 73.4198 25.8751 92 48.7949 92ZM48.7949 93C72.267 93 91.2949 73.9721 91.2949 50.5C91.2949 27.0279 72.267 8 48.7949 8C25.3228 8 6.29492 27.0279 6.29492 50.5C6.29492 73.9721 25.3228 93 48.7949 93Z" fill="#67676A"/>
<path d="M27.9494 33.5385C27.9494 33.5385 11.1512 20.5186 4.68913 23.3529C-1.77073 26.1893 1.04066 44.7154 7.06884 55.7861C13.097 66.8568 25.997 83.2296 44.3752 84.6207C62.7533 86.0118 78.136 81.0617 87.7907 64.5285C97.4455 47.9954 93.9898 26.4684 90.6745 17.1199C87.3591 7.77151 84.4951 6.65944 79.7093 9.13556C74.9236 11.6138 68.707 19.5794 66.1914 25.9561C66.1914 25.9561 47.971 19.4711 27.9494 33.5385Z" fill="#ACB3DB"/>
<path d="M24.0248 36.2437C24.0248 36.2437 13.9253 26.6204 7.84888 29.0798C1.77249 31.5372 7.03153 46.4085 9.88675 50.2653C9.88456 50.2632 14.9661 42.0935 24.0248 36.2437Z" fill="#EBCBCC"/>
<path d="M70.1488 26.279C70.1488 26.279 77.77 13.2507 83.0619 14.1566C88.3538 15.0625 90.2603 27.6368 89.0945 35.0818C89.0967 35.0818 82.1109 29.2465 70.1488 26.279Z" fill="#EBCBCC"/>
<path d="M21.8794 42.3247C21.8794 42.3247 26.0077 40.111 27.0661 39.709C28.1245 39.3071 27.7016 36.6915 25.2671 37.4953C22.8326 38.3012 20.2929 42.5267 21.8794 42.3247Z" fill="#0B1411"/>
<path d="M75.2301 30.9126C75.2301 30.9126 73.0082 27.9388 70.0434 28.0387C67.0786 28.1387 67.7141 30.9126 68.7725 30.9126C71.5598 30.9126 75.2301 31.8747 75.2301 30.9126Z" fill="#0B1411"/>
<path d="M53.1226 59.8762C53.1226 59.8762 50.0899 60.3801 47.0199 64.6035C47.0199 64.6035 36.859 67.2191 35.5881 71.4446C34.3172 75.67 44.3729 82.5111 58.6643 79.3915C74.5313 75.9282 77.1542 66.3153 75.6729 63.1978C74.1917 60.0802 63.1104 61.184 63.1104 61.184C63.1104 61.184 59.2253 57.9644 53.1226 59.8762Z" fill="white"/>
<path d="M47.02 67.5213C47.02 67.5213 52.737 68.0252 55.0642 63.6978C55.0642 63.6978 58.0289 65.9115 63.5334 64.3017C63.5334 64.3017 65.8299 71.0699 57.1831 72.663C48.5013 74.2624 47.02 67.5213 47.02 67.5213Z" fill="#0B1411"/>
<path d="M55.4146 68.3043C52.623 69.2018 50.9971 70.6908 50.1425 71.7321C51.6742 72.6859 53.9202 73.2648 57.183 72.663C60.8512 71.9882 62.5472 70.3805 63.2879 68.7541C61.605 68.1147 58.5284 67.3026 55.4146 68.3043Z" fill="#CF7071"/>
<path fill-rule="evenodd" clip-rule="evenodd" d="M54.4399 65.3552L53.1755 59.8199L55.1253 59.3745L56.3897 64.9098L54.4399 65.3552Z" fill="#0B1411"/>
<path d="M60.3295 53.3726C60.8861 55.301 56.7841 59.8763 54.4548 60.3782C52.1254 60.8822 46.4917 59.0516 45.9351 57.1232C45.3785 55.1948 48.1505 52.7916 52.1254 51.7545C56.1004 50.7174 59.773 51.4442 60.3295 53.3726Z" fill="#CF7071"/>
<path d="M32.5446 66.1133C39.0337 66.1133 44.2942 61.114 44.2942 54.9469C44.2942 48.7798 39.0337 43.7804 32.5446 43.7804C26.0555 43.7804 20.795 48.7798 20.795 54.9469C20.795 61.114 26.0555 66.1133 32.5446 66.1133Z" fill="white"/>
<path d="M34.2142 61.3278C38.1873 61.3278 41.4081 58.2668 41.4081 54.4908C41.4081 50.7149 38.1873 47.6539 34.2142 47.6539C30.2411 47.6539 27.0203 50.7149 27.0203 54.4908C27.0203 58.2668 30.2411 61.3278 34.2142 61.3278Z" fill="#6973BD"/>
<path d="M34.214 58.7183C36.6707 58.7183 38.6623 56.8256 38.6623 54.4908C38.6623 52.156 36.6707 50.2633 34.214 50.2633C31.7573 50.2633 29.7657 52.156 29.7657 54.4908C29.7657 56.8256 31.7573 58.7183 34.214 58.7183Z" fill="#0B1411"/>
<path d="M35.3099 53.6641C36.4281 53.6641 37.3346 52.8025 37.3346 51.7398C37.3346 50.6771 36.4281 49.8156 35.3099 49.8156C34.1917 49.8156 33.2852 50.6771 33.2852 51.7398C33.2852 52.8025 34.1917 53.6641 35.3099 53.6641Z" fill="white"/>
<path d="M71.2071 58.3414C77.6962 58.3414 82.9567 53.342 82.9567 47.1749C82.9567 41.0078 77.6962 36.0084 71.2071 36.0084C64.718 36.0084 59.4575 41.0078 59.4575 47.1749C59.4575 53.342 64.718 58.3414 71.2071 58.3414Z" fill="white"/>
<path d="M69.2484 54.0638C73.2215 54.0638 76.4423 51.0029 76.4423 47.2269C76.4423 43.451 73.2215 40.39 69.2484 40.39C65.2753 40.39 62.0544 43.451 62.0544 47.2269C62.0544 51.0029 65.2753 54.0638 69.2484 54.0638Z" fill="#6973BD"/>
<path d="M69.2481 51.4545C71.7048 51.4545 73.6963 49.5618 73.6963 47.227C73.6963 44.8922 71.7048 42.9995 69.2481 42.9995C66.7914 42.9995 64.7998 44.8922 64.7998 47.227C64.7998 49.5618 66.7914 51.4545 69.2481 51.4545Z" fill="#0B1411"/>
<path d="M70.3437 46.4003C71.4619 46.4003 72.3684 45.5387 72.3684 44.476C72.3684 43.4133 71.4619 42.5518 70.3437 42.5518C69.2255 42.5518 68.319 43.4133 68.319 44.476C68.319 45.5387 69.2255 46.4003 70.3437 46.4003Z" fill="white"/>
<path fill-rule="evenodd" clip-rule="evenodd" d="M58.0954 62.2574C58.0954 62.2574 58.0954 62.2574 58.0949 62.2566L58.0954 62.2574C57.8807 62.3763 57.6053 62.3072 57.4802 62.1032C57.3551 61.8992 57.4277 61.6374 57.6424 61.5186L57.8689 61.888C57.6424 61.5186 57.6426 61.5185 57.6429 61.5183L57.6437 61.5178L57.6469 61.5161L57.6585 61.5097C57.6687 61.5041 57.6836 61.496 57.7032 61.4854C57.7423 61.4641 57.8002 61.4329 57.8762 61.3926C58.0281 61.312 58.2523 61.1948 58.5438 61.0472C59.1269 60.7521 59.9793 60.3354 61.061 59.847C63.2238 58.8703 66.3053 57.6058 69.9834 56.4527C77.3312 54.1491 87.1021 52.2768 96.6974 54.0714C96.9411 54.1169 97.0999 54.3417 97.0519 54.5734C97.0039 54.8051 96.7674 54.9559 96.5236 54.9103C87.1447 53.1563 77.5448 54.9826 70.2653 57.2647C66.6299 58.4044 63.5836 59.6545 61.4471 60.6193C60.379 61.1016 59.5389 61.5123 58.9668 61.8019C58.6808 61.9467 58.4618 62.0612 58.3149 62.1392C58.2414 62.1782 58.186 62.208 58.1492 62.228C58.1308 62.238 58.117 62.2455 58.108 62.2504L58.0981 62.2559L58.0958 62.2571L58.0954 62.2574Z" fill="#0B1411"/>
<path fill-rule="evenodd" clip-rule="evenodd" d="M62.2353 61.7201L62.2374 61.7192L62.2459 61.7157C62.2536 61.7126 62.2655 61.7078 62.2815 61.7014C62.3135 61.6885 62.3619 61.6693 62.4263 61.6442C62.555 61.5941 62.7474 61.5206 62.9996 61.4283C63.5042 61.2435 64.2481 60.9834 65.2006 60.6837C67.106 60.0841 69.8444 59.3269 73.1704 58.6983C79.8256 57.4405 88.8133 56.7018 98.179 58.758C98.4211 58.8111 98.6627 58.6677 98.7186 58.4377C98.7745 58.2076 98.6236 57.978 98.3815 57.9249C88.8519 55.8327 79.7277 56.5872 72.9949 57.8596C69.6267 58.4962 66.8521 59.2633 64.9179 59.8719C63.9506 60.1763 63.1931 60.4411 62.6762 60.6303C62.4177 60.725 62.2194 60.8007 62.085 60.8531C62.0178 60.8792 61.9666 60.8996 61.9319 60.9135C61.9145 60.9204 61.9013 60.9258 61.8922 60.9295L61.8817 60.9338L61.878 60.9353C61.8778 60.9354 61.8776 60.9355 62.0564 61.3278L61.8776 60.9355C61.6496 61.0293 61.5449 61.2811 61.6436 61.4977C61.7424 61.7144 62.0073 61.8139 62.2353 61.7201Z" fill="#0B1411"/>
<path fill-rule="evenodd" clip-rule="evenodd" d="M60.5039 63.5802C60.5044 63.5817 60.5044 63.5817 60.5044 63.5817L60.5072 63.5809L60.5174 63.5782C60.5265 63.5757 60.5406 63.572 60.5593 63.567C60.5968 63.5571 60.6533 63.5423 60.728 63.5232C60.8775 63.485 61.0999 63.4294 61.3894 63.3606C61.9684 63.2231 62.8156 63.0329 63.8846 62.8231C66.023 62.4036 69.0465 61.9065 72.5828 61.597C79.6641 60.9773 88.7614 61.1139 96.9246 64.0987C97.1565 64.1835 97.4168 64.0736 97.5061 63.8532C97.5953 63.6328 97.4796 63.3855 97.2477 63.3007C88.8997 60.2483 79.6441 60.1204 72.5003 60.7455C68.924 61.0585 65.8668 61.5611 63.7027 61.9857C62.6205 62.198 61.7611 62.391 61.1712 62.5311C60.8762 62.6011 60.6486 62.658 60.4942 62.6975C60.417 62.7173 60.358 62.7327 60.3181 62.7432C60.2982 62.7485 60.283 62.7526 60.2726 62.7554L60.2607 62.7586L60.2566 62.7597C60.2564 62.7597 60.2562 62.7598 60.3803 63.1707L60.2562 62.7598C60.0174 62.8249 59.8793 63.0617 59.9479 63.2887C60.0164 63.5157 60.2656 63.6468 60.5044 63.5817L60.5039 63.5802Z" fill="#0B1411"/>
<path fill-rule="evenodd" clip-rule="evenodd" d="M51.7841 63.2369C51.7841 63.2369 51.7841 63.2369 51.7842 63.236L51.7841 63.2369C52.0312 63.2617 52.2526 63.0915 52.2787 62.8566C52.3049 62.6218 52.1257 62.4113 51.8787 62.3865L51.8314 62.8117C51.8787 62.3865 51.8784 62.3865 51.8782 62.3865L51.8771 62.3864L51.8735 62.386L51.8601 62.3847C51.8485 62.3836 51.8314 62.382 51.8089 62.3799C51.764 62.3758 51.6978 62.3699 51.6111 62.3627C51.4378 62.3483 51.1827 62.3287 50.8532 62.3077C50.194 62.2655 49.2368 62.2175 48.0396 62.1932C45.6456 62.1447 42.2894 62.1914 38.4371 62.5721C30.7413 63.3327 21.0213 65.4304 13.0426 70.8045C12.8399 70.941 12.7921 71.2079 12.9357 71.4005C13.0794 71.5932 13.3602 71.6387 13.5629 71.5021C21.3617 66.2492 30.9059 64.1761 38.5301 63.4226C42.3377 63.0463 45.6555 63.0002 48.0204 63.0481C49.2026 63.0721 50.1461 63.1195 50.7928 63.1608C51.1161 63.1815 51.3652 63.2006 51.5329 63.2145C51.6167 63.2215 51.6802 63.2271 51.7223 63.231C51.7434 63.233 51.7592 63.2345 51.7695 63.2354L51.7809 63.2366L51.7835 63.2368L51.7841 63.2369Z" fill="#0B1411"/>
<path fill-rule="evenodd" clip-rule="evenodd" d="M47.7759 64.3592L47.7735 64.3593L47.7643 64.3594C47.7559 64.3596 47.743 64.3598 47.7256 64.3602C47.6909 64.3609 47.6384 64.3623 47.5689 64.3645C47.4299 64.3688 47.2227 64.3767 46.9528 64.3907C46.4129 64.4188 45.6221 64.4712 44.624 64.5688C42.6275 64.764 39.803 65.1398 36.4982 65.8618C29.8851 67.3066 21.3682 70.1333 13.7119 75.6567C13.514 75.7994 13.2317 75.7627 13.0815 75.5746C12.9313 75.3865 12.97 75.1183 13.1679 74.9756C20.9583 69.3555 29.6065 66.4901 36.2966 65.0285C39.6434 64.2973 42.5051 63.9164 44.5319 63.7182C45.5455 63.6191 46.3506 63.5656 46.9038 63.5369C47.1803 63.5226 47.3939 63.5144 47.5391 63.5098C47.6116 63.5076 47.6671 63.5062 47.7048 63.5053C47.7236 63.5049 47.738 63.5046 47.7479 63.5045L47.7593 63.5043L47.7633 63.5042C47.7633 63.5042 47.7638 63.5042 47.7698 63.9317L47.7638 63.5042C48.0122 63.501 48.2163 63.6899 48.2197 63.926C48.223 64.1621 48.0243 64.356 47.7759 64.3592Z" fill="#0B1411"/>
<path fill-rule="evenodd" clip-rule="evenodd" d="M50.1579 65.3815C50.1581 65.383 50.1581 65.383 50.1581 65.383L50.1552 65.3834L50.1448 65.3849C50.1353 65.3862 50.1209 65.3882 50.1017 65.391C50.0632 65.3966 50.0053 65.4051 49.9289 65.4168C49.7761 65.4401 49.5492 65.476 49.2555 65.5261C48.6681 65.6261 47.8132 65.7826 46.7476 66.0076C44.6161 66.4578 41.6439 67.1819 38.2847 68.2769C31.5582 70.4697 23.3188 74.1375 17.1597 80.0396C16.9847 80.2072 16.6999 80.2083 16.5235 80.0421C16.3471 79.8758 16.3459 79.6051 16.5208 79.4374C22.8193 73.4018 31.2069 69.6802 37.9928 67.4681C41.3899 66.3607 44.3953 65.6285 46.5524 65.1729C47.6312 64.9451 48.4983 64.7863 49.0968 64.6844C49.3961 64.6334 49.6282 64.5966 49.7861 64.5725C49.8651 64.5605 49.9255 64.5516 49.9664 64.5457C49.9869 64.5427 50.0025 64.5405 50.0132 64.539L50.0254 64.5373L50.0296 64.5367C50.0299 64.5367 50.0301 64.5366 50.0941 64.9598L50.0301 64.5366C50.276 64.503 50.504 64.6653 50.5394 64.899C50.5747 65.1327 50.404 65.3494 50.1581 65.383L50.1579 65.3815Z" fill="#0B1411"/>
</svg>
