<svg width="24" height="24" viewBox="0 0 24 24" fill="none" xmlns="http://www.w3.org/2000/svg">
<path fill-rule="evenodd" clip-rule="evenodd" d="M7.29289 6.29289C7.68342 5.90237 8.31658 5.90237 8.70711 6.29289L12.9498 10.5356L17.1924 6.29289C17.583 5.90237 18.2161 5.90237 18.6066 6.29289C18.9972 6.68342 18.9972 7.31658 18.6066 7.70711L14.364 11.9498L18.6066 16.1924C18.9971 16.5829 18.9971 17.2161 18.6066 17.6066C18.2161 17.9971 17.5829 17.9971 17.1924 17.6066L12.9498 13.364L8.70715 17.6066C8.31662 17.9971 7.68346 17.9971 7.29293 17.6066C6.90241 17.2161 6.90241 16.5829 7.29293 16.1924L11.5356 11.9498L7.29289 7.70711C6.90237 7.31658 6.90237 6.68342 7.29289 6.29289Z" fill="#FF80DD"/>
<path fill-rule="evenodd" clip-rule="evenodd" d="M6.29289 6.29289C6.68342 5.90237 7.31658 5.90237 7.70711 6.29289L11.9498 10.5356L16.1924 6.29289C16.583 5.90237 17.2161 5.90237 17.6066 6.29289C17.9972 6.68342 17.9972 7.31658 17.6066 7.70711L13.364 11.9498L17.6066 16.1924C17.9971 16.5829 17.9971 17.2161 17.6066 17.6066C17.2161 17.9971 16.5829 17.9971 16.1924 17.6066L11.9498 13.364L7.70715 17.6066C7.31662 17.9971 6.68346 17.9971 6.29293 17.6066C5.90241 17.2161 5.90241 16.5829 6.29293 16.1924L10.5356 11.9498L6.29289 7.70711C5.90237 7.31658 5.90237 6.68342 6.29289 6.29289Z" stroke="#67676A" stroke-width="0.5" stroke-linecap="round" stroke-linejoin="round"/>
</svg>
