<svg width="50" height="50" viewBox="0 0 50 50" fill="none" xmlns="http://www.w3.org/2000/svg">
<g clip-path="url(#clip0_124_853)">
<path d="M33.2985 45.7214H5.33503C3.93102 45.7214 2.79297 44.551 2.79297 43.1075V10.8688C2.79297 9.42507 3.93102 8.25485 5.33503 8.25485H47.7034C49.1074 8.25485 50.2456 9.42507 50.2456 10.8688L50.2456 26.5524" fill="white"/>
<path d="M19.7401 45.7214H33.2985H47.7035C49.1076 45.7214 50.2456 44.551 50.2456 43.1075V10.8688C50.2456 9.42507 49.1074 8.25485 47.7034 8.25485H5.33503C3.93102 8.25485 2.79297 9.42507 2.79297 10.8688V43.1075C2.79297 44.551 3.93102 45.7214 5.33503 45.7214H19.7401Z" fill="white"/>
<path d="M48.2456 9.7398L28.415 27.4998C26.1819 29.4996 22.8565 29.4996 20.6235 27.4998L0.792969 9.7398" stroke="#67676A" stroke-miterlimit="10" stroke-linecap="round" stroke-linejoin="round"/>
<path d="M17.7401 43.7211H45.7035C47.1076 43.7211 48.2456 42.5508 48.2456 41.1072V8.86851M48.2456 8.86851C48.2456 7.42482 47.1074 6.25461 45.7034 6.25461H3.33503C1.93102 6.25461 0.792969 7.42482 0.792969 8.86851V41.1072C0.792969 42.5508 1.93102 43.7211 3.33503 43.7211H31.2985M48.2456 8.86851L48.2456 24.5522" stroke="#67676A" stroke-miterlimit="10" stroke-linecap="round" stroke-linejoin="round"/>
<path d="M33.652 27.166L48.2031 40.2174" stroke="#67676A" stroke-miterlimit="10" stroke-linecap="round" stroke-linejoin="round"/>
<path d="M0.792969 40.2359L15.1982 27.3349" stroke="#67676A" stroke-miterlimit="10" stroke-linecap="round" stroke-linejoin="round"/>
</g>
<defs>
<clipPath id="clip0_124_853">
<rect width="50" height="50" fill="white"/>
</clipPath>
</defs>
</svg>
