<svg width="100" height="150" viewBox="0 0 100 150" fill="none" xmlns="http://www.w3.org/2000/svg">
<path d="M39.1051 59.4966L32.5849 11.8621L61.9977 7.93354L69.9057 13.9805L75.472 54.6398L39.1051 59.4966ZM69.9004 13.9421C69.9004 13.9419 69.9003 13.9417 69.9003 13.9415L69.9004 13.9419L69.9004 13.9421Z" fill="white" stroke="#67676A"/>
<path d="M39.958 22.2584L64.7027 18.9502" stroke="#67676A" stroke-linecap="round" stroke-linejoin="round"/>
<path d="M40.5381 26.5686L65.282 23.2603" stroke="#67676A" stroke-linecap="round" stroke-linejoin="round"/>
<path d="M41.1182 30.88L65.8621 27.5717" stroke="#67676A" stroke-linecap="round" stroke-linejoin="round"/>
<path d="M41.6982 35.1901L66.4422 31.8818" stroke="#67676A" stroke-linecap="round" stroke-linejoin="round"/>
<path d="M42.2778 39.5011L67.0218 36.1928" stroke="#67676A" stroke-linecap="round" stroke-linejoin="round"/>
<path d="M42.8584 43.8115L67.6015 40.5031" stroke="#67676A" stroke-linecap="round" stroke-linejoin="round"/>
<path d="M43.4372 48.1224L68.1812 44.8141" stroke="#67676A" stroke-linecap="round" stroke-linejoin="round"/>
<path d="M44.0181 52.4328L68.762 49.1245" stroke="#67676A" stroke-linecap="round" stroke-linejoin="round"/>
<path d="M37.9368 76.5354L37.9368 76.5354L37.9368 76.5354ZM37.9368 76.5354L37.9366 76.5354L37.9368 76.5354ZM89.1224 56.272L70.9648 92.9597L38.0631 76.4931L59.3352 33.5106L85.9466 46.8291L89.1224 56.272ZM71.0238 92.9935C71.0242 92.9936 71.0246 92.9937 71.0249 92.9938C71.0246 92.9937 71.0242 92.9936 71.0238 92.9935ZM89.1397 56.237L89.1396 56.2372L89.1397 56.237ZM37.9362 76.5356L37.5529 76.6634L37.9362 76.5356Z" fill="white" stroke="#67676A"/>
<path d="M59.6125 46.2172L81.9914 57.4018" stroke="#67676A" stroke-linecap="round" stroke-linejoin="round"/>
<path d="M57.6853 50.1115L80.0641 61.2961" stroke="#67676A" stroke-linecap="round" stroke-linejoin="round"/>
<path d="M55.7578 54.0057L78.1357 65.191" stroke="#67676A" stroke-linecap="round" stroke-linejoin="round"/>
<path d="M53.8308 57.9L76.2088 69.0844" stroke="#67676A" stroke-linecap="round" stroke-linejoin="round"/>
<path d="M51.9023 61.7949L74.2812 72.9795" stroke="#67676A" stroke-linecap="round" stroke-linejoin="round"/>
<path d="M49.9746 65.6892L72.3534 76.8738" stroke="#67676A" stroke-linecap="round" stroke-linejoin="round"/>
<path d="M48.0476 69.5827L70.4263 80.7681" stroke="#67676A" stroke-linecap="round" stroke-linejoin="round"/>
<path d="M46.1199 73.4778L68.4979 84.6622" stroke="#67676A" stroke-linecap="round" stroke-linejoin="round"/>
<path d="M19.2258 79.1241L19.2262 79.1242C19.2269 79.1243 19.2277 79.1243 19.2285 79.1241L19.2305 79.1235L49.64 70.4835L49.6406 70.4833C49.6424 70.4828 49.6441 70.4819 49.6456 70.4807C49.6465 70.48 49.6473 70.4792 49.648 70.4783C49.6485 70.4777 49.6489 70.477 49.6493 70.4764C49.6493 70.4764 49.6493 70.4764 49.6493 70.4763L50.0864 70.7207C50.1191 70.6617 50.1398 70.5967 50.1474 70.5295C50.1551 70.4622 50.1494 70.3941 50.1307 70.329L19.2258 79.1241ZM19.2258 79.1241C19.2234 79.1237 19.2211 79.1226 19.2192 79.1209L18.8856 79.4918L19.2192 79.1209C19.2174 79.1192 19.2159 79.117 19.2152 79.1144L19.2151 79.1141L10.4584 48.6016C10.4584 48.6016 10.4584 48.6015 10.4584 48.6015C10.4573 48.5976 10.4578 48.5933 10.4598 48.5896L10.0236 48.3463L10.4598 48.5896C10.4618 48.586 10.4651 48.5834 10.4688 48.5823C10.4689 48.5823 10.4689 48.5823 10.4689 48.5823L40.8768 39.9423L40.8771 39.9423C40.8788 39.9418 40.8805 39.9416 40.8823 39.9418C40.884 39.9421 40.8857 39.9426 40.8872 39.9434L41.1288 39.507L40.8872 39.9434C40.8887 39.9443 40.8901 39.9455 40.8912 39.9469C40.8923 39.9482 40.8931 39.9499 40.8937 39.9517L40.8938 39.9521L49.6506 70.465C49.6506 70.4651 49.6506 70.4651 49.6506 70.4652L19.2258 79.1241Z" fill="white" stroke="#67676A"/>
<path d="M20.1727 70.4876L20.1711 70.4874C20.169 70.487 20.167 70.486 20.1653 70.4845C20.1637 70.4831 20.1624 70.4811 20.1618 70.4788L20.1617 70.4784L14.4807 50.6814C14.4807 50.6814 14.4807 50.6813 14.4807 50.6813C14.4796 50.6774 14.4801 50.6731 14.4821 50.6695C14.484 50.666 14.4873 50.6634 14.491 50.6623C14.4911 50.6623 14.4911 50.6622 14.4912 50.6622L38.5745 43.8182L38.5765 43.8176C38.5772 43.8174 38.578 43.8174 38.5788 43.8175L38.5807 43.8179C38.5831 43.8183 38.5854 43.8194 38.5873 43.8211C38.5891 43.8228 38.5905 43.825 38.5913 43.8275L38.5914 43.8279L44.2726 63.6245C44.2726 63.6245 44.2726 63.6246 44.2726 63.6246C44.2731 63.6264 44.2733 63.6284 44.273 63.6303C44.2728 63.6322 44.2722 63.6341 44.2713 63.6358C44.2703 63.6375 44.2691 63.639 44.2676 63.6402C44.2661 63.6413 44.2644 63.6422 44.2626 63.6427L44.262 63.6429L20.18 70.4873C20.1798 70.4873 20.1797 70.4874 20.1796 70.4874C20.1773 70.488 20.175 70.4881 20.1727 70.4876Z" fill="#8FA9FF" stroke="#67676A"/>
<path d="M22.9385 56.5001L22.9378 56.4999C22.2546 56.3782 21.6388 56.0089 21.208 55.4623C20.7772 54.9157 20.5615 54.2301 20.6021 53.5362C20.6427 52.8424 20.9368 52.189 21.4282 51.7006C21.9196 51.2123 22.5739 50.9232 23.2663 50.8885C23.9587 50.8537 24.6407 51.0757 25.1823 51.5121C25.724 51.9485 26.0873 52.5689 26.2029 53.2548C26.3186 53.9408 26.1784 54.6444 25.8091 55.2312C25.4399 55.8181 24.8674 56.2471 24.2011 56.4365L24.2004 56.4367C23.7905 56.5539 23.3589 56.5756 22.9385 56.5001Z" fill="white" stroke="#67676A"/>
<path d="M20.5415 70.3756L20.5415 70.3756L20.5423 70.371C20.5682 70.2221 20.9327 68.2575 21.6285 66.0727C21.9764 64.9803 22.4033 63.845 22.9062 62.8586C23.4139 61.863 23.9766 61.0645 24.5764 60.5997C25.0284 60.2497 25.7772 60.1046 27.0074 60.3246C28.9947 60.6801 31.6388 61.8935 33.8603 63.0711C36.0657 64.2403 37.7927 65.3402 37.9276 65.4267L37.9281 65.427C37.9304 65.4285 37.9322 65.4305 37.9334 65.4331C37.9345 65.4356 37.935 65.4385 37.9346 65.4413C37.9341 65.4442 37.9329 65.4468 37.9311 65.4489C37.9293 65.451 37.9269 65.4525 37.9243 65.4532L37.9242 65.4532L20.5573 70.3885L20.5554 70.389C20.5534 70.3896 20.5512 70.3899 20.5491 70.3899C20.5484 70.3896 20.5477 70.3893 20.5471 70.3888C20.5457 70.3879 20.5445 70.3868 20.5436 70.3854C20.5426 70.3841 20.5419 70.3825 20.5416 70.3808C20.5412 70.3791 20.5412 70.3774 20.5415 70.3756Z" fill="#A1DA67" stroke="#67676A"/>
<path d="M26.8626 68.577L26.8614 68.5768C26.8595 68.5764 26.8576 68.5756 26.856 68.5745C26.8544 68.5734 26.8529 68.5719 26.8519 68.5701L26.4239 68.824L26.8519 68.5701C26.8508 68.5683 26.8501 68.5662 26.8499 68.5641C26.8496 68.5619 26.8499 68.5597 26.8506 68.5577L26.3765 68.3977L26.8503 68.5584C26.9237 68.3389 27.8373 65.6102 29.0686 62.6779C29.6845 61.2111 30.376 59.7028 31.0777 58.4358C31.7902 57.1494 32.4775 56.1789 33.0678 55.7211C33.3747 55.4838 33.7907 55.3813 34.364 55.4838C35.1354 55.6218 36.1217 56.1441 37.2079 56.9182C38.2804 57.6825 39.3972 58.653 40.4217 59.6225C42.47 61.5608 44.1143 63.4613 44.2441 63.6121L44.2442 63.6122C44.245 63.6132 44.2457 63.6143 44.2463 63.6154C44.2467 63.6165 44.2471 63.6176 44.2474 63.6187C44.2479 63.6212 44.2478 63.6238 44.2471 63.6262C44.2464 63.6286 44.2451 63.6308 44.2433 63.6325C44.2416 63.6342 44.2395 63.6355 44.2372 63.6361L44.237 63.6362L26.8699 68.5766C26.8675 68.5773 26.865 68.5774 26.8626 68.577Z" fill="#A1DA67" stroke="#67676A"/>
<path d="M74.9874 103.217L75.0026 103.233L75.0163 103.245L69.0529 137.419L13.0975 127.433L19.0609 93.2591L19.0749 93.2537L19.0917 93.2456L50.528 78.2529L74.9874 103.217Z" fill="white" stroke="#67676A"/>
<mask id="path-25-inside-1_192_7763" fill="white">
<path d="M20.5617 119.948C20.4333 119.925 20.3191 119.852 20.2442 119.745C20.1693 119.637 20.1398 119.505 20.1622 119.376L30.192 61.815C30.2144 61.6863 30.2869 61.5719 30.3935 61.4971C30.5001 61.4222 30.6321 61.3929 30.7606 61.4156L66.3564 67.7772C66.4199 67.7885 66.4806 67.8123 66.5351 67.8472C66.5895 67.8821 66.6366 67.9274 66.6736 67.9805L73.642 77.9505C73.7172 78.0579 73.747 78.1906 73.7249 78.3196L65.1694 127.42C65.1468 127.548 65.0741 127.663 64.9674 127.737C64.8607 127.812 64.7286 127.841 64.6002 127.818L20.5617 119.948Z"/>
</mask>
<path d="M20.5617 119.948C20.4333 119.925 20.3191 119.852 20.2442 119.745C20.1693 119.637 20.1398 119.505 20.1622 119.376L30.192 61.815C30.2144 61.6863 30.2869 61.5719 30.3935 61.4971C30.5001 61.4222 30.6321 61.3929 30.7606 61.4156L66.3564 67.7772C66.4199 67.7885 66.4806 67.8123 66.5351 67.8472C66.5895 67.8821 66.6366 67.9274 66.6736 67.9805L73.642 77.9505C73.7172 78.0579 73.747 78.1906 73.7249 78.3196L65.1694 127.42C65.1468 127.548 65.0741 127.663 64.9674 127.737C64.8607 127.812 64.7286 127.841 64.6002 127.818L20.5617 119.948Z" fill="white"/>
<path d="M65.3312 75.1846L64.8382 75.1015L64.7713 75.5088L65.1583 75.6533L65.3312 75.1846ZM66.042 67.7641L64.8382 75.1015L65.8242 75.2677L67.0281 67.9303L66.042 67.7641ZM65.1583 75.6533L73.5519 78.7884L73.8978 77.8509L65.5041 74.7159L65.1583 75.6533ZM20.5617 119.948L20.7334 118.963L20.5617 119.948ZM20.1622 119.376L21.1467 119.552L20.1622 119.376ZM30.192 61.815L31.1764 61.9909L31.1764 61.9909L30.192 61.815ZM30.7606 61.4156L30.9322 60.4305L30.9306 60.4302L30.7606 61.4156ZM66.3564 67.7772L66.528 66.792L66.528 66.792L66.3564 67.7772ZM66.6736 67.9805L65.8551 68.5512L65.8558 68.5522L66.6736 67.9805ZM73.642 77.9505L72.8241 78.5221L72.8246 78.5228L73.642 77.9505ZM73.7249 78.3196L74.7093 78.4955L74.7097 78.4928L73.7249 78.3196ZM65.1694 127.42L66.1536 127.597L66.1539 127.596L65.1694 127.42ZM64.6002 127.818L64.7718 126.833L64.6002 127.818ZM20.7334 118.963C20.8665 118.986 20.9847 119.062 21.0621 119.173L19.4264 120.316C19.6536 120.641 20.0002 120.863 20.39 120.933L20.7334 118.963ZM21.0621 119.173C21.1394 119.284 21.1697 119.42 21.1467 119.552L19.1778 119.2C19.11 119.59 19.1992 119.991 19.4264 120.316L21.0621 119.173ZM21.1467 119.552L31.1764 61.9909L29.2076 61.639L19.1778 119.2L21.1467 119.552ZM31.1764 61.9909C31.1534 62.1227 31.0791 62.2401 30.9694 62.3172L29.8175 60.6769C29.4946 60.9037 29.2754 61.2498 29.2076 61.639L31.1764 61.9909ZM30.9694 62.3172C30.8597 62.3943 30.7234 62.4246 30.5905 62.4011L30.9306 60.4302C30.5408 60.3612 30.1405 60.4501 29.8175 60.6769L30.9694 62.3172ZM30.5889 62.4008L66.1847 68.7623L66.528 66.792L30.9322 60.4305L30.5889 62.4008ZM66.1847 68.7623C66.1185 68.7505 66.0554 68.7257 65.9988 68.6895L67.0713 67.005C66.9059 66.8989 66.7213 66.8265 66.528 66.792L66.1847 68.7623ZM65.9988 68.6895C65.9422 68.6532 65.8934 68.6062 65.8551 68.5512L67.4922 67.4099C67.3798 67.2487 67.2368 67.111 67.0713 67.005L65.9988 68.6895ZM65.8558 68.5522L72.8241 78.5221L74.4599 77.3789L67.4915 67.4089L65.8558 68.5522ZM72.8246 78.5228C72.7477 78.413 72.7175 78.2777 72.74 78.1464L74.7097 78.4928C74.7765 78.1036 74.6866 77.7028 74.4594 77.3782L72.8246 78.5228ZM72.7404 78.1437L64.185 127.244L66.1539 127.596L74.7093 78.4955L72.7404 78.1437ZM64.1853 127.242C64.2085 127.11 64.283 126.993 64.3928 126.916L65.542 128.558C65.8653 128.332 66.0851 127.986 66.1536 127.597L64.1853 127.242ZM64.3928 126.916C64.5027 126.839 64.639 126.809 64.7718 126.833L64.4285 128.803C64.8182 128.873 65.2187 128.785 65.542 128.558L64.3928 126.916ZM64.7718 126.833L20.7334 118.963L20.39 120.933L64.4285 128.803L64.7718 126.833Z" fill="#67676A" mask="url(#path-25-inside-1_192_7763)"/>
<path d="M35.4568 76.749L65.2492 82.0347" stroke="#67676A" stroke-linecap="round" stroke-linejoin="round"/>
<path d="M34.5457 81.9397L64.3381 87.2255" stroke="#67676A" stroke-linecap="round" stroke-linejoin="round"/>
<path d="M33.635 87.1289L63.4274 92.4146" stroke="#67676A" stroke-linecap="round" stroke-linejoin="round"/>
<path d="M32.7236 92.3197L62.5161 97.6054" stroke="#67676A" stroke-linecap="round" stroke-linejoin="round"/>
<path d="M31.813 97.5097L61.6054 102.795" stroke="#67676A" stroke-linecap="round" stroke-linejoin="round"/>
<path d="M30.9021 102.699L60.6945 107.985" stroke="#67676A" stroke-linecap="round" stroke-linejoin="round"/>
<path d="M29.9912 107.89L59.7836 113.175" stroke="#67676A" stroke-linecap="round" stroke-linejoin="round"/>
<path d="M29.0803 113.08L58.8727 118.365" stroke="#67676A" stroke-linecap="round" stroke-linejoin="round"/>
<mask id="path-35-inside-2_192_7763" fill="white">
<path d="M13.0031 127.914C12.8747 127.891 12.7604 127.818 12.6854 127.711C12.6105 127.603 12.5809 127.471 12.6034 127.342L18.5552 93.1924C18.5707 93.1034 18.6104 93.0205 18.6699 92.9527C18.7294 92.885 18.8063 92.835 18.8924 92.8082C18.9673 92.7849 19.0467 92.7802 19.124 92.7945C19.2246 92.8125 19.3174 92.8613 19.3896 92.9341L43.6394 117.668L74.7874 102.832C74.8798 102.789 74.9834 102.775 75.0841 102.793C75.1612 102.806 75.234 102.838 75.2962 102.886C75.3682 102.941 75.4237 103.015 75.4568 103.099C75.4899 103.183 75.4993 103.275 75.484 103.364L69.5322 137.514C69.5097 137.642 69.4372 137.757 69.3305 137.831C69.2238 137.906 69.0917 137.935 68.9633 137.912L13.0031 127.914Z"/>
</mask>
<path d="M13.0031 127.914C12.8747 127.891 12.7604 127.818 12.6854 127.711C12.6105 127.603 12.5809 127.471 12.6034 127.342L18.5552 93.1924C18.5707 93.1034 18.6104 93.0205 18.6699 92.9527C18.7294 92.885 18.8063 92.835 18.8924 92.8082C18.9673 92.7849 19.0467 92.7802 19.124 92.7945C19.2246 92.8125 19.3174 92.8613 19.3896 92.9341L43.6394 117.668L74.7874 102.832C74.8798 102.789 74.9834 102.775 75.0841 102.793C75.1612 102.806 75.234 102.838 75.2962 102.886C75.3682 102.941 75.4237 103.015 75.4568 103.099C75.4899 103.183 75.4993 103.275 75.484 103.364L69.5322 137.514C69.5097 137.642 69.4372 137.757 69.3305 137.831C69.2238 137.906 69.0917 137.935 68.9633 137.912L13.0031 127.914Z" fill="#FFD152"/>
<path d="M12.6034 127.342L13.5878 127.518L12.6034 127.342ZM18.5552 93.1924L17.5708 93.0162L17.5708 93.0165L18.5552 93.1924ZM18.8924 92.8082L19.1921 93.7641L19.1925 93.764L18.8924 92.8082ZM19.124 92.7945L18.9466 93.7786L18.9514 93.7795L19.124 92.7945ZM19.3896 92.9341L20.1012 92.2344L20.0972 92.2304L19.3896 92.9341ZM43.6394 117.668L42.9277 118.368L43.4284 118.878L44.0715 118.572L43.6394 117.668ZM74.7874 102.832L74.3603 101.926L74.3552 101.928L74.7874 102.832ZM75.0841 102.793L74.9133 103.778L74.9165 103.779L75.0841 102.793ZM75.2962 102.886L74.6912 103.68L74.6922 103.681L75.2962 102.886ZM75.484 103.364L76.4684 103.54L76.4688 103.538L75.484 103.364ZM69.5322 137.514L68.5477 137.338L69.5322 137.514ZM13.1748 126.929C13.3078 126.953 13.426 127.028 13.5033 127.139L11.8675 128.282C12.0948 128.607 12.4415 128.829 12.8314 128.899L13.1748 126.929ZM13.5033 127.139C13.5806 127.249 13.6108 127.386 13.5878 127.518L11.619 127.166C11.5511 127.556 11.6403 127.957 11.8675 128.282L13.5033 127.139ZM13.5878 127.518L19.5396 93.3683L17.5708 93.0165L11.619 127.166L13.5878 127.518ZM19.5396 93.3687C19.5236 93.4601 19.4828 93.5453 19.4216 93.6151L17.9182 92.2904C17.738 92.4957 17.6179 92.7468 17.5708 93.0162L19.5396 93.3687ZM19.4216 93.6151C19.3604 93.6848 19.281 93.7364 19.1921 93.7641L18.5927 91.8524C18.3317 91.9335 18.0983 92.0851 17.9182 92.2904L19.4216 93.6151ZM19.1925 93.764C19.113 93.7887 19.0286 93.7937 18.9466 93.7786L19.3013 91.8103C19.0649 91.7667 18.8216 91.7811 18.5923 91.8525L19.1925 93.764ZM18.9514 93.7795C18.8491 93.7611 18.755 93.7116 18.6819 93.6378L20.0972 92.2304C19.8797 92.011 19.6001 91.864 19.2965 91.8095L18.9514 93.7795ZM18.6779 93.6338L42.9277 118.368L44.351 116.968L20.1012 92.2344L18.6779 93.6338ZM44.0715 118.572L75.2195 103.736L74.3552 101.928L43.2072 116.764L44.0715 118.572ZM75.2144 103.739C75.1207 103.783 75.0156 103.796 74.9133 103.778L75.255 101.808C74.9513 101.754 74.6389 101.795 74.3604 101.926L75.2144 103.739ZM74.9165 103.779C74.8346 103.765 74.7573 103.731 74.6912 103.68L75.9013 102.092C75.7107 101.946 75.4878 101.848 75.2518 101.807L74.9165 103.779ZM74.6922 103.681C74.6182 103.624 74.5611 103.548 74.5271 103.462L76.3865 102.736C76.2863 102.481 76.1181 102.258 75.9003 102.091L74.6922 103.681ZM74.5271 103.462C74.4931 103.375 74.4835 103.281 74.4992 103.19L76.4688 103.538C76.5151 103.268 76.4868 102.991 76.3865 102.736L74.5271 103.462ZM74.4996 103.188L68.5477 137.338L70.5166 137.69L76.4684 103.54L74.4996 103.188ZM68.5477 137.338C68.5708 137.206 68.6453 137.088 68.7553 137.011L69.9057 138.652C70.2291 138.425 70.4487 138.079 70.5166 137.69L68.5477 137.338ZM68.7553 137.011C68.8653 136.934 69.0019 136.904 69.135 136.927L68.7916 138.898C69.1815 138.967 69.5823 138.879 69.9057 138.652L68.7553 137.011ZM69.135 136.927L13.1748 126.929L12.8314 128.899L68.7916 138.898L69.135 136.927Z" fill="#67676A" mask="url(#path-35-inside-2_192_7763)"/>
<path d="M69.0149 137.428L69.0146 137.428L69.0149 137.428ZM69.0149 137.428L69.015 137.427L69.0157 137.427L69.0155 137.428L69.0152 137.429L68.9308 137.913L69.0148 137.428L69.0149 137.428ZM13.1166 127.454L44.0298 115.388L68.9891 137.415L13.1166 127.454Z" fill="#FFD152" stroke="#67676A"/>
<path d="M71.8617 146.329C71.3252 146.233 70.5665 145.908 69.9965 144.905L65.4085 136.836L63.6218 137.854C63.0607 138.173 62.4964 138.293 61.9894 138.203C61.0328 138.032 60.4454 137.185 60.4521 135.986L60.5208 121.773C60.5234 120.994 60.7829 120.349 61.2481 119.957C61.6509 119.618 62.185 119.491 62.7534 119.593C63.0889 119.658 63.4105 119.782 63.703 119.96L75.9432 127.173C76.7275 127.634 77.1756 128.308 77.1731 129.021C77.1705 129.734 76.7146 130.402 75.9254 130.851L74.1379 131.868L78.7258 139.938C79.5439 141.376 79.1454 142.88 77.7374 143.682L73.7136 145.971C73.1078 146.316 72.4662 146.441 71.858 146.332L71.8617 146.329Z" fill="#8FA9FF"/>
<path d="M70.7211 145.188L70.6143 145.169C70.2035 145.095 69.5835 144.847 69.0973 143.991L69.0972 143.991L64.5092 135.921L64.2612 135.485L63.827 135.732L62.0406 136.75C61.5539 137.027 61.1073 137.107 60.7419 137.042C60.097 136.927 59.6127 136.358 59.6185 135.323L59.6185 135.323L59.6871 121.11L59.6871 121.109C59.6895 120.433 59.9131 119.946 60.2371 119.673L60.2377 119.672C60.5129 119.44 60.8911 119.339 61.331 119.417C61.6069 119.47 61.8712 119.573 62.1117 119.719L62.1117 119.719L62.1177 119.722L74.3579 126.935L74.3582 126.936C75.0373 127.335 75.3419 127.865 75.3402 128.349C75.3384 128.832 75.0282 129.358 74.3441 129.747L74.3439 129.747L72.5564 130.765L72.1234 131.011L72.3707 131.446L76.9587 139.516L76.9587 139.516C77.3121 140.137 77.3854 140.738 77.2501 141.25C77.115 141.761 76.7586 142.235 76.156 142.578C76.156 142.578 76.156 142.578 76.1559 142.578C76.1559 142.578 76.1559 142.578 76.1558 142.578L72.1322 144.867L72.1322 144.867C71.6529 145.14 71.1691 145.241 70.7211 145.188Z" stroke="#67676A"/>
</svg>
