<svg width="50" height="50" viewBox="0 0 50 50" fill="none" xmlns="http://www.w3.org/2000/svg">
<path d="M20.1609 15.2573H44.8747C46.6007 15.2573 48 16.6565 48 18.3825V33.9228C48 35.6352 46.6225 37.0252 44.9152 37.047V44.3077C44.9152 44.7631 44.3405 44.9627 44.0582 44.6054L38.4644 37.5234C38.3473 37.3752 38.1982 37.2555 38.0282 37.1731C37.8582 37.0908 37.6718 37.048 37.483 37.048H20.1609C18.4348 37.048 17.0356 35.6488 17.0356 33.9228V18.3825C17.0356 16.6565 18.4348 15.2573 20.1609 15.2573Z" fill="white"/>
<path d="M21.2222 19.9321H41.8137" stroke="#67676A" stroke-miterlimit="10" stroke-linecap="round" stroke-linejoin="round"/>
<path d="M21.2222 24.8926H41.8137" stroke="#67676A" stroke-miterlimit="10" stroke-linecap="round" stroke-linejoin="round"/>
<path d="M21.2222 29.853H41.8137" stroke="#67676A" stroke-miterlimit="10" stroke-linecap="round" stroke-linejoin="round"/>
<path d="M19.161 14.2573H43.8748C45.6008 14.2573 47.0001 15.6565 47.0001 17.3826V32.9229C47.0001 34.6352 45.6226 36.0253 43.9153 36.0471V43.3077C43.9153 43.7631 43.3406 43.9627 43.0584 43.6054L37.4645 36.5234C37.3474 36.3752 37.1983 36.2555 37.0283 36.1732C36.8583 36.0908 36.6719 36.048 36.4831 36.048H19.161C17.435 36.048 16.0358 34.6488 16.0358 32.9229V17.3826C16.0358 15.6565 17.435 14.2573 19.161 14.2573Z" stroke="#67676A" stroke-miterlimit="10" stroke-linecap="round" stroke-linejoin="round"/>
<path d="M30.9552 11.2237V8.72052C30.9552 7.21802 29.7372 6.00001 28.2346 6.00001H6.72059C5.21802 6.00001 4 7.21802 4 8.72052V22.2488C4 23.7395 5.19907 24.9496 6.68529 24.9685V31.2891C6.68529 31.6855 7.18563 31.8594 7.43135 31.5482L12.301 25.3832C12.4743 25.1638 12.7253 25.0195 13.0021 24.9802" stroke="#67676A" stroke-miterlimit="10" stroke-linecap="round" stroke-linejoin="round"/>
</svg>
