<svg width="50" height="50" viewBox="0 0 50 50" fill="none" xmlns="http://www.w3.org/2000/svg">
<path d="M20.5201 26.866C19.9442 26.1103 19.3996 25.3313 18.8877 24.5309C18.2137 23.4765 18.4176 22.0799 19.3026 21.1955L22.3785 18.1225C23.0406 17.4618 23.0406 16.3892 22.3785 15.7284L15.1397 8.49632C14.4783 7.83456 13.4048 7.83456 12.7435 8.49632L10.9115 10.3264C7.9382 13.2963 7.13461 17.8292 9.00091 21.5928C12.3213 28.29 19.1541 38.5562 32.3179 45.0053C36.0967 46.8556 40.6546 46.0708 43.6298 43.0983L45.5034 41.2264C46.1655 40.5657 46.1655 39.4931 45.5034 38.8313L38.2646 31.6002C37.6032 30.9385 36.5297 30.9385 35.8684 31.6002L32.7926 34.6732C31.9074 35.5574 30.5096 35.7611 29.454 35.0877C28.3146 34.3602 27.2187 33.5669 26.1719 32.7117" fill="white"/>
<path d="M21.5455 28.0227C19.3864 25.8636 17.3996 23.3313 16.8877 22.5309C16.2137 21.4765 16.4176 20.0799 17.3026 19.1955L20.3785 16.1225C21.0406 15.4618 21.0406 14.3892 20.3785 13.7284L13.1397 6.49631C12.4783 5.83456 11.4048 5.83456 10.7435 6.49631L8.91151 8.32644C5.93821 11.2963 5.13461 15.8292 7.00091 19.5928C10.3213 26.29 17.1541 36.5562 30.3179 43.0053C34.0967 44.8556 38.6546 44.0708 41.6298 41.0983L43.5034 39.2264C44.1655 38.5657 44.1655 37.4931 43.5034 36.8313L36.2646 29.6002C35.6032 28.9385 34.5297 28.9385 33.8684 29.6002L30.7926 32.6732C29.9074 33.5574 28.5096 33.7611 27.454 33.0877C26.3146 32.3602 23.7045 30.1818 21.5455 28.0227Z" stroke="#67676A" stroke-miterlimit="10" stroke-linecap="round" stroke-linejoin="round"/>
</svg>
