<svg width="60" height="49" viewBox="0 0 60 49" fill="none" xmlns="http://www.w3.org/2000/svg">
<path d="M0.525673 35.1854V35.1775L0.525422 35.1696C0.335873 29.1818 1.20751 23.208 3.09957 17.5269C4.83739 12.8902 7.85613 8.84836 11.801 5.87588L11.801 5.8759L11.8052 5.87266C14.3142 3.94004 17.0707 2.37376 19.9921 1.21154C22.5377 0.198852 25.1656 2.23962 25.1656 5.12118V6.99602C25.1656 8.66902 24.1672 10.1985 22.8214 11.4077C22.1772 11.9865 21.5933 12.6338 21.0805 13.3399C20.6439 13.9411 20.2637 14.5786 19.9432 15.2441C19.4631 16.2408 19.6536 17.2583 20.2337 18.0083C20.8057 18.7478 21.7509 19.2267 22.8017 19.2267C24.1399 19.2267 25.2247 20.3115 25.2247 21.6498V44C25.2247 46.4853 23.21 48.5 20.7247 48.5H5.02568C2.5404 48.5 0.525673 46.4853 0.525673 44V35.1854ZM34.8305 35.1854V35.1775L34.8303 35.1696C34.6407 29.1817 35.5124 23.2077 37.4045 17.5265C39.135 12.8863 42.1548 8.8428 46.1051 5.87637L46.1052 5.87641L46.111 5.87192C48.6298 3.92196 51.4028 2.34677 54.3437 1.18561C56.8844 0.182466 59.5 2.22177 59.5 5.0962V6.95247C59.5 8.64569 58.4767 10.1892 57.1074 11.409C56.4705 11.9764 55.8927 12.6116 55.3849 13.3053C54.9398 13.9133 54.5536 14.5594 54.2298 15.2346C53.7534 16.2281 53.9453 17.2407 54.5244 17.9864C55.0954 18.7217 56.0372 19.197 57.0828 19.197C58.4178 19.197 59.5 20.2792 59.5 21.6142V44C59.5 46.4853 57.4853 48.5 55 48.5H39.3305C36.8452 48.5 34.8305 46.4853 34.8305 44V35.1854Z" fill="white" stroke="#67676A"/>
</svg>
