<svg width="150" height="150" viewBox="0 0 150 150" fill="none" xmlns="http://www.w3.org/2000/svg">
<circle cx="75" cy="74" r="74" fill="#D0ECB3"/>
<path d="M105.465 38.0835L112.27 41.8764M105.465 38.0835L101.751 44.7464M105.465 38.0835C105.465 38.0835 101.995 25.0967 95.5005 23.1797C88.1351 21.0052 82.2399 36.649 86.3993 40.7538C90.0411 44.3481 101.751 44.7464 101.751 44.7464M105.465 38.0835C111.56 27.1485 114.867 16.9335 116.914 11.6899L117.142 11.003C118.737 6.19527 122.3 -0.22787 128.892 3.44637C135.484 7.12061 131.895 13.5293 128.645 17.4143C125.394 21.2991 121.725 25.0106 112.311 41.8996L105.465 38.0835ZM112.27 41.8764L108.556 48.5393M112.27 41.8764C112.27 41.8764 118.583 38.0835 127.468 41.0096C128.503 41.3504 129.432 41.8378 130.186 42.5126C135.909 47.6334 125.705 60.8752 120.025 59.4965C115.053 58.2894 108.556 48.5393 108.556 48.5393M108.556 48.5393L101.751 44.7464M101.751 44.7464C101.751 44.7464 99.4561 44.6678 96.5827 44.2692C86.8917 53.0946 82.9977 60.3555 82.9977 60.3555L85.0494 70.1794C91.9472 58.2908 105.165 46.6701 105.165 46.6701L105.147 46.639M101.751 44.7464L105.147 46.639M105.147 46.639L105.111 46.6398C105.111 46.6398 102.179 63.994 95.6956 76.1134L105.13 72.6917C105.13 72.6917 109.258 65.5609 111.667 52.6768C109.817 50.4425 108.543 48.532 108.543 48.532L105.147 46.639ZM111.642 52.8074C117.118 61.7267 114.129 74.8745 110.229 82.7359C106.044 91.1736 107.845 94.7759 109.266 98.7692C110.21 101.419 109.701 104.268 109.059 106.282C108.594 107.742 106.901 108.4 105.563 107.655L69.3556 87.4736L53.0879 78.4063C51.7502 77.6607 51.4199 75.8738 52.4165 74.7109C53.7921 73.106 55.9475 71.1743 58.6972 70.5831C62.8416 69.6922 66.8525 69.3293 71.8279 61.332C76.4504 53.9017 86.0201 44.4749 96.4525 44.3896" stroke="#67676A" stroke-miterlimit="10" stroke-linecap="round" stroke-linejoin="round"/>
<path d="M107.02 39.0598L109.95 33.688C114.447 24.9684 117.379 17.2961 118.964 13.0817C120.233 9.20688 122.86 3.3354 127.255 6.26548C131.65 9.19557 128.096 13.4639 125.79 16.5206C123.485 19.5772 117.872 27.546 110.927 41.0132" stroke="#67676A" stroke-miterlimit="10" stroke-linecap="round" stroke-linejoin="round"/>
<line x1="64.6417" y1="94.1938" x2="45.2394" y2="104.775" stroke="#67676A"/>
<line x1="74.9073" y1="98.8647" x2="64.9797" y2="118.399" stroke="#67676A"/>
<line x1="83.5901" y1="103.489" x2="85.0105" y2="125.355" stroke="#67676A"/>
</svg>
