<svg width="150" height="150" viewBox="0 0 150 150" fill="none" xmlns="http://www.w3.org/2000/svg">
<circle cx="75" cy="74" r="74" fill="#DDE5FF"/>
<path d="M75.9752 103.536L116.343 109.904C117.206 110.056 118.089 110.027 118.942 109.819C119.794 109.612 120.6 109.229 121.312 108.693C122.024 108.156 122.629 107.478 123.092 106.695C123.556 105.912 123.868 105.041 124.012 104.131L136.909 22.7751C137.053 21.8655 137.026 20.9348 136.829 20.0362C136.632 19.1377 136.269 18.2888 135.761 17.5381C135.253 16.7874 134.609 16.1496 133.867 15.6611C133.125 15.1726 132.299 14.8429 131.436 14.691L115.928 11.9571M75.9752 103.536H49.6647C45.9838 103.536 43 100.39 43 96.51V34.2877M75.9752 103.536L98.2332 103.229M115.928 11.9571C115.508 10.5214 114.663 9.2655 113.516 8.3734C112.369 7.4813 110.982 6.99998 109.556 7L68.885 7M115.928 11.9571L116.218 15.9661M116.218 15.9661L116.221 96.51C116.222 97.4328 116.049 98.3466 115.715 99.1992C115.38 100.052 114.889 100.827 114.27 101.479C113.651 102.132 112.916 102.649 112.107 103.002C111.299 103.355 110.432 103.536 109.556 103.536L98.2332 103.229M116.218 15.9661L130.826 18.542C131.6 18.6788 132.29 19.1337 132.746 19.8069C133.201 20.4801 133.385 21.3164 133.256 22.1321L120.359 103.488C120.228 104.303 119.796 105.03 119.158 105.511C118.52 105.991 117.727 106.184 116.953 106.049L98.2332 103.229M68.885 7L67.7591 7C66.804 7 65.8872 7.40053 65.211 8.11341L43.5438 30.9548C43.1952 31.3223 43 31.8184 43 32.3365V34.2877M68.885 7V10.9061V32.3365C68.885 32.5927 68.8371 32.8465 68.7441 33.0832C68.6511 33.3199 68.5147 33.535 68.3428 33.7162C68.171 33.8974 67.9669 34.0411 67.7424 34.1392C67.5178 34.2372 67.2771 34.2877 67.0341 34.2877H46.7053H43" stroke="#67676A"/>
<line x1="66.7227" y1="62.8334" x2="104.46" y2="62.8334" stroke="#67676A"/>
<line x1="75.8712" y1="51.5" x2="104.46" y2="51.5" stroke="#67676A"/>
<line x1="53" y1="74.1666" x2="104.46" y2="74.1666" stroke="#67676A"/>
<line x1="53" y1="85.5" x2="104.46" y2="85.5" stroke="#67676A"/>
</svg>
