<svg width="150" height="150" viewBox="0 0 150 150" fill="none" xmlns="http://www.w3.org/2000/svg">
<circle cx="75" cy="74" r="74" fill="#FFF1CB"/>
<path d="M87.8864 106.364H136.018C137.112 106.364 138 106.985 138 107.752C138 108.994 136.563 110 134.791 110H55.2088C53.4367 110 52 108.994 52 107.752C52 106.985 52.8875 106.364 53.9823 106.364H87.8864Z" stroke="#67676A" stroke-miterlimit="10" stroke-linecap="round" stroke-linejoin="round"/>
<path d="M72.6042 106.397C70.7234 106.397 69.1987 104.891 69.1987 103.034V74.9703C69.1987 73.1131 70.7234 71.6077 72.6042 71.6077H116.534C118.415 71.6077 119.939 73.1131 119.939 74.9703V103.034C119.939 104.891 118.415 106.397 116.534 106.397" stroke="#67676A" stroke-miterlimit="10" stroke-linecap="round" stroke-linejoin="round"/>
<path d="M100.47 60.8877L118.22 64.457C123.201 65.7594 126.594 70.3151 126.594 75.3979V79.8807L126.594 106.397" stroke="#67676A" stroke-miterlimit="10" stroke-linecap="round" stroke-linejoin="round"/>
<path d="M88.9469 60.8203L70.9155 64.4559C65.9359 65.759 62.5435 70.314 62.5435 75.3961V106.396" stroke="#67676A" stroke-miterlimit="10" stroke-linejoin="round"/>
<path d="M100.199 54.2192C99.9378 56.4785 100.006 58.572 100.449 60.7836L100.47 60.8878C100.132 61.2635 99.7871 61.6342 99.4373 61.9998C98.1104 63.3947 96.4506 64.1547 94.7398 64.1499C93.0268 64.1542 91.3652 63.3929 90.0367 61.9955C89.6674 61.6095 89.3043 61.2178 88.9474 60.8207C89.4048 58.5853 89.5044 56.502 89.2403 54.2152" stroke="#67676A" stroke-miterlimit="10" stroke-linejoin="round"/>
<path d="M98.4463 89.428C98.4463 91.5571 96.6966 93.2832 94.5383 93.2832C92.3798 93.2832 90.6301 91.5571 90.6301 89.428C90.6301 87.2986 92.3798 85.5728 94.5383 85.5728C96.6966 85.5728 98.4463 87.2986 98.4463 89.428Z" stroke="#67676A" stroke-miterlimit="10" stroke-linecap="round" stroke-linejoin="round"/>
<path d="M68.7145 65.2676C69.1754 55.9536 64.7634 55.165 65.2244 45.8508C65.6853 36.5366 70.362 29.3995 70.823 20.0853C71.0993 15.4378 71.8975 11.0328 75.0199 8.09895C79.7832 3.62394 87.7498 4.64586 94.8148 4.64586C101.947 4.64586 109.973 3.68435 114.746 8.22762C119.519 12.7709 118.831 20.7175 119.085 27.7491C119.419 36.9776 123.833 36.8223 124.167 46.0508C124.501 55.2793 120.086 56.0393 120.42 65.2676" stroke="#67676A" stroke-miterlimit="10" stroke-linecap="round" stroke-linejoin="round"/>
<path d="M111.612 27.4102C109.222 29.4414 106.113 30.6724 102.712 30.6724C97.2141 30.6724 92.4794 27.464 90.318 22.8434C88.1566 27.464 83.4217 30.6724 77.9246 30.6724C77.9021 30.6724 77.88 30.6709 77.8577 30.6707C77.8392 34.3464 77.7848 37.2519 77.6943 38.1615C77.6581 38.582 77.6404 39.0038 77.6413 39.4257C77.6413 43.4489 81.1082 48.2558 87.9431 53.7109C89.8638 55.2523 92.2646 56.0915 94.7397 56.0866C97.2118 56.0919 99.61 55.2544 101.529 53.7157C108.368 48.2565 111.835 43.4493 111.835 39.4262C111.835 38.9998 111.819 38.5717 111.782 38.1515C111.666 36.9876 111.61 32.5484 111.612 27.4102Z" stroke="#67676A" stroke-miterlimit="10" stroke-linejoin="round"/>
<line x1="83.66" y1="36.3469" x2="90.8091" y2="36.3469" stroke="#67676A"/>
<line x1="98.9796" y1="36.3469" x2="106.129" y2="36.3469" stroke="#67676A"/>
</svg>
