<svg width="150" height="150" viewBox="0 0 150 150" fill="none" xmlns="http://www.w3.org/2000/svg">
<circle cx="75" cy="74" r="74" fill="#FFF1CB"/>
<path d="M113.812 108.133H37.2394C35.4503 108.133 34 106.619 34 104.753V99.4407C34 97.5738 35.4503 96.0604 37.2394 96.0604H145.761C147.55 96.0604 149 97.5738 149 99.4407V104.753C149 106.619 147.55 108.133 145.761 108.133H113.812Z" stroke="#005408" stroke-miterlimit="10" stroke-linecap="round" stroke-linejoin="round"/>
<path d="M57.4861 23.6279H46.3795C43.8226 23.6279 41.7517 25.7913 41.7517 28.4569L41.7519 34.8966L41.754 91.2314C41.754 93.8994 43.8249 96.0603 46.3818 96.0603L136.621 96.0579C139.178 96.0579 141.249 93.8945 141.249 91.229L141.246 28.4547C141.246 25.7867 139.175 23.6257 136.619 23.6257H125.514" stroke="#67676A" stroke-miterlimit="10" stroke-linecap="round" stroke-linejoin="round"/>
<path d="M128.051 29H135.498C136.602 29 137.498 29.8954 137.498 30.9999L137.5 88.9974C137.5 90.102 136.605 90.9974 135.5 90.9975L47.5025 90.9999C46.3979 91 45.5025 90.1046 45.5024 89L45.5001 31.0027C45.5 29.8981 46.3955 29.0026 47.5001 29.0026H54.9486" stroke="#67676A" stroke-miterlimit="10" stroke-linecap="round" stroke-linejoin="round"/>
<path d="M91.5003 18.2512V62.9819M91.5003 62.9819L58.782 60.9819C58.067 60.9819 57.4862 60.3759 57.4862 59.6298V17.6033C57.4862 16.8572 58.067 16.2512 58.782 16.2512L63.3889 18.2512M91.5003 62.9819L124.219 60.9819C124.934 60.9819 125.514 60.3759 125.514 59.6298V17.6033C125.514 16.8572 124.934 16.2512 124.219 16.2512L119.612 18.2512" stroke="#67676A" stroke-miterlimit="10" stroke-linecap="round" stroke-linejoin="round"/>
<path d="M91.5002 62.9819L64.2621 53.1533C64.0073 53.0613 63.7864 52.8888 63.63 52.6597C63.4736 52.4306 63.3895 52.1563 63.3895 51.8751V7.3536C63.3895 6.42402 64.2676 5.77163 65.1097 6.07561L91.5002 15.5984V62.9819Z" stroke="#67676A" stroke-miterlimit="10" stroke-linecap="round" stroke-linejoin="round"/>
<path d="M112.424 8.04777L91.5 15.5981V62.9819L118.738 53.1533C118.993 53.0613 119.214 52.8888 119.37 52.6597C119.527 52.4306 119.611 52.1563 119.611 51.8751V7.35361C119.611 6.42379 118.733 5.77139 117.891 6.07538L112.424 8.04777Z" stroke="#67676A" stroke-miterlimit="10" stroke-linecap="round" stroke-linejoin="round"/>
<path d="M98.8514 101.855H84.1493C82.7142 101.855 81.5505 100.641 81.5505 99.1438V96.0605H101.45V99.1438C101.45 100.641 100.287 101.855 98.8514 101.855Z" stroke="#67676A" stroke-miterlimit="10" stroke-linecap="round" stroke-linejoin="round"/>
<path d="M68.7059 71.7683H114.295" stroke="#67676A" stroke-miterlimit="10" stroke-linecap="round" stroke-linejoin="round"/>
<path d="M68.7059 79.4497H98.2713" stroke="#67676A" stroke-miterlimit="10" stroke-linecap="round" stroke-linejoin="round"/>
</svg>
