<svg width="400" height="280" viewBox="0 0 400 280" fill="none" xmlns="http://www.w3.org/2000/svg">
<path d="M106.609 260.991C106.609 260.991 100.619 265.365 100.417 270.951C100.215 276.47 104.253 278.759 106.609 275.057C106.609 275.057 107.147 278.557 110.512 278.355C113.878 278.22 115.762 275.259 115.762 275.259C115.762 275.259 117.31 277.345 120.204 276.672C123.569 275.865 127.675 273.307 127.944 268.192C128.213 263.077 125.857 258.164 122.492 257.154C119.262 256.077 111.118 258.097 106.609 260.991Z" fill="#E6CFC0"/>
<path d="M85.4083 205.398C85.4083 205.398 79.8221 212.869 90.9944 237.098C96.244 248.405 106.272 262.337 106.272 262.337C106.272 262.337 111.118 267.519 123.569 259.644L114.752 234.137C114.752 234.137 112.262 212.734 108.224 206.744C99.0034 193.149 89.7156 195.438 85.4083 205.398Z" fill="#CB9035"/>
<path d="M89.4461 166.228C87.7636 166.968 86.081 167.709 84.3311 168.449C82.8505 169.055 81.3025 169.795 80.4949 171.141C79.9564 172.016 79.7545 173.093 79.7545 174.17C79.8218 177.266 81.639 180.025 82.514 183.054C83.3889 186.015 82.7832 190.053 79.8218 191.063C78.1393 191.669 76.2548 190.996 74.6395 190.121C66.967 185.813 63.0634 175.785 65.8902 167.44C67.5727 162.459 71.2071 158.421 75.1779 155.056C78.745 152.027 82.7832 149.402 87.0232 147.451C90.7249 145.768 95.8399 143.345 100.013 144.355C103.041 145.095 105.06 147.787 105.935 150.614C106.878 153.777 106.272 156.738 103.849 159.094C102.032 160.844 99.6089 161.853 97.3206 162.863C94.7631 163.94 92.0709 165.084 89.4461 166.228Z" fill="#E2A659"/>
<path d="M87.4943 199.745C88.5038 200.351 89.9172 199.745 90.5229 198.735C93.4169 193.957 90.2537 186.957 85.7444 184.333C85.206 183.996 84.6002 183.727 83.9272 183.592C80.091 182.919 74.5721 185.477 73.428 189.313C72.6204 192.14 73.428 195.37 75.7163 197.255C74.6394 197.322 73.4953 197.524 72.8223 198.399C72.2838 199.139 72.4184 200.283 72.9569 201.024C74.3029 202.908 76.995 205.062 79.4852 204.523C80.8313 204.254 81.8408 203.245 82.7158 202.235C83.5907 202.774 84.8022 202.841 85.7444 202.37C86.8212 201.831 87.427 200.822 87.4943 199.745Z" fill="#EBD9CD"/>
<path d="M236.368 144.893C237.176 145.297 237.916 145.835 238.589 146.508C239.262 147.114 239.801 147.922 240.07 148.797C240.676 150.479 240.272 152.364 238.589 154.517C237.445 155.998 236.301 157.075 235.157 158.152C234.551 158.69 234.013 159.094 233.407 159.565C232.801 159.969 232.263 160.373 231.724 160.777C230.58 161.517 229.503 162.19 228.359 162.796C227.215 163.401 226.071 164.007 224.927 164.613C222.571 165.824 220.148 167.036 217.927 168.315C217.658 168.449 217.389 168.651 217.12 168.786C216.85 168.988 216.581 169.122 216.312 169.324C215.773 169.661 215.235 170.064 214.697 170.401C213.687 171.141 212.745 171.814 211.937 172.487C211.937 172.487 211.87 172.555 211.735 172.689C211.601 172.824 211.399 173.026 211.13 173.295C210.591 173.833 209.784 174.641 208.841 175.785C206.957 177.939 204.467 181.304 201.707 185.342C198.948 189.38 195.852 194.361 192.218 199.207C190.4 201.629 188.381 203.985 186.295 206.071C184.208 208.225 181.987 210.11 179.834 211.658C177.815 213.138 174.18 215.359 169.536 217.109C164.893 218.859 159.239 220.07 153.384 220.205C147.528 220.34 141.538 219.263 136.558 217.109C131.578 215.09 127.876 212.129 125.924 210.244C124.511 208.898 123.03 207.014 122.29 204.995C121.886 203.985 121.751 202.976 121.751 202.033C121.819 201.091 122.088 200.216 122.559 199.476C123.434 198.197 125.588 197.12 127.741 196.514C129.962 195.909 132.049 195.64 133.26 196.111C133.664 196.313 134.001 196.514 134.27 196.784C134.539 197.053 134.808 197.389 135.01 197.659C135.818 198.668 136.962 199.812 138.443 200.822C139.923 201.831 141.74 202.706 143.827 203.379C145.913 204.052 148.336 204.389 150.826 204.456C153.316 204.456 155.941 204.254 158.499 203.581C159.778 203.312 160.989 202.908 162.268 202.504C163.479 202.033 164.691 201.562 165.767 200.956C166.306 200.687 166.844 200.351 167.383 200.081C167.921 199.745 168.392 199.476 168.931 199.139C169.94 198.466 170.815 197.793 171.69 197.053C175.19 194.024 177.815 190.524 179.632 187.9C182.324 184.131 184.747 179.891 187.439 175.516C190.131 171.141 193.025 166.632 196.592 162.325C198.342 160.171 200.294 158.017 202.448 155.998C203.524 154.989 204.669 154.046 205.813 153.104C207.024 152.162 208.303 151.22 209.582 150.412C214.831 147.047 220.821 144.557 227.619 143.682C231.455 143.413 234.551 143.884 236.368 144.893Z" fill="#DB9A46"/>
<path d="M236.368 144.893C234.551 143.884 231.455 143.413 227.619 143.884C222.1 144.557 217.052 146.307 212.543 148.797C210.322 150.008 208.169 151.422 206.217 152.97C204.265 154.45 202.515 156.133 200.833 157.748C201.034 157.815 201.236 157.748 201.573 157.681C204.13 157.075 206.688 156.335 209.245 155.594C211.736 154.854 214.293 154.114 216.783 153.373C213.755 155.594 211.264 158.286 209.313 161.18C209.043 161.652 208.774 162.257 209.178 162.594C209.38 162.728 209.649 162.728 209.918 162.728C210.861 162.661 211.803 162.526 212.678 162.257C213.553 162.055 214.36 161.652 215.168 161.248C214.63 161.988 213.822 162.459 213.216 163.132C212.611 163.805 212.207 164.882 212.611 165.757C212.812 166.228 213.284 166.565 213.687 166.834C215.168 167.776 216.783 168.113 218.129 168.18C219.745 167.17 221.562 166.295 223.379 165.353C225.129 164.478 226.879 163.603 228.561 162.661C230.244 161.719 231.859 160.709 233.609 159.431L234.282 158.892C234.484 158.758 234.686 158.556 234.955 158.354C235.359 158.017 235.83 157.613 236.234 157.21C237.109 156.402 237.984 155.46 238.791 154.383C240.474 152.229 240.878 150.345 240.272 148.662C240.003 147.854 239.464 147.047 238.791 146.374C237.916 145.835 237.176 145.23 236.368 144.893Z" fill="#EBD9CD"/>
<path d="M106.07 131.769C100.686 138.634 93.821 150.345 91.5327 155.796C86.6196 167.641 81.37 181.371 79.4182 194.091C77.0626 209.369 89.0425 224.041 102.974 226.128C129.02 229.964 137.164 211.052 139.721 200.014C145.913 172.622 134.539 159.363 130.03 144.624C128.213 138.634 125.723 132.307 120.271 129.212C112.733 124.971 110.916 125.577 106.07 131.769Z" fill="#CB9035"/>
<path d="M121.752 138.836C121.752 138.836 128.684 162.863 129.693 188.573C130.77 214.282 115.223 223.839 100.484 219.801C86.2158 215.898 82.5141 202.437 85.5427 186.89C90.3885 161.921 104.455 137.625 104.455 137.625L121.752 138.836Z" fill="#E6CFC0"/>
<path d="M125.79 262.27C125.79 262.27 119.8 266.644 119.598 272.23C119.396 277.749 123.434 280.038 125.79 276.336C125.79 276.336 126.328 279.836 129.694 279.634C133.059 279.432 134.943 276.538 134.943 276.538C134.943 276.538 136.491 278.624 139.385 277.951C142.75 277.144 144.971 274.586 145.24 269.471C145.51 264.356 144.366 261.26 141.068 260.251C137.837 259.241 130.299 259.376 125.79 262.27Z" fill="#EBD9CD"/>
<path d="M110.31 220.744C110.31 220.744 112.868 233.8 115.964 242.011C120.338 253.655 123.636 264.288 123.636 264.288C123.636 264.288 131.78 269.673 141.202 260.25L138.981 234.81C138.981 234.81 143.894 211.321 138.779 206.139C126.059 193.351 130.636 215.898 110.31 220.744Z" fill="#E2A659"/>
<path d="M130.097 147.854C126.126 149.806 126.934 155.258 129.895 158.421C136.625 165.757 143.221 176.256 136.962 186.15C142.481 187.025 148.942 190.457 151.769 195.303C154.797 191.399 157.355 188.236 158.903 183.592C160.518 178.881 159.71 172.622 158.499 167.843C157.624 164.411 155.201 161.584 152.913 158.959C150.288 155.998 147.057 153.575 143.625 151.623C140.529 149.874 135.481 146.71 131.847 147.383C131.174 147.383 130.568 147.585 130.097 147.854Z" fill="#E2A659"/>
<path d="M136.962 186.082C136.962 186.082 128.751 194.765 129.895 200.216C131.107 205.668 134.136 204.322 134.136 204.322C134.136 204.322 134.539 207.35 137.703 208.023C140.933 208.764 141.202 207.889 141.202 207.889C141.202 207.889 144.5 211.658 146.654 209.706C148.808 207.754 147.798 204.927 144.5 204.052C144.5 204.052 154.192 197.524 151.634 192.476C146.856 182.852 136.962 186.082 136.962 186.082Z" fill="#EBD9CD"/>
<path d="M103.512 149.267L105.868 155.055C105.868 155.055 109.435 156.603 113.54 155.796L117.646 150.95C117.646 150.95 114.954 143.21 109.839 143.21C104.791 143.143 103.512 149.267 103.512 149.267Z" fill="#CB542F"/>
<path d="M105.936 155.055C105.936 155.055 99.4745 177.063 98.1284 182.784C98.1284 182.784 99.4745 189.514 104.791 196.447C104.791 196.447 114.483 189.38 115.493 185.005C116.502 180.63 113.541 155.863 113.541 155.863C113.541 155.863 110.378 153.844 105.936 155.055Z" fill="#CB542F"/>
<path d="M95.6382 144.489L102.436 152.969L109.839 143.21L99.3398 137.691L95.6382 144.489Z" fill="white"/>
<path d="M128.28 136.682L109.839 143.21L117.646 155.056L132.385 145.902L128.28 136.682Z" fill="white"/>
<path d="M67.3037 30.6804L131.174 27.7864L192.218 48.5829L128.347 51.8808L67.3037 30.6804Z" fill="#533270"/>
<path d="M131.174 27.7862L131.713 23.2096L68.3133 26.7766L67.3037 30.6802L131.174 27.7862Z" fill="#66487F"/>
<path d="M131.712 23.2097L192.621 45.4196L192.217 48.5829L131.174 27.7863L131.712 23.2097Z" fill="#785D8E"/>
<path d="M95.6382 58.3415L99.2725 37.7469C99.2725 37.7469 111.925 33.6414 127.944 35.9297C143.962 38.218 152.105 45.7559 152.105 45.7559L151.769 65.6776C151.769 65.6776 116.435 56.9955 95.6382 58.3415Z" fill="#66487F"/>
<path d="M62.1886 82.0319C62.1886 82.0319 60.5733 35.7276 71.3417 34.7854C79.4181 34.1123 95.5035 51.4765 98.5994 61.4373C98.5994 61.4373 73.1589 76.1093 62.1886 82.0319Z" fill="#BB7942"/>
<path d="M91.0612 59.1488C91.0612 59.1488 79.687 61.0333 68.0437 69.9846C68.0437 69.9846 66.8322 44.6787 73.7644 41.852C77.7353 40.2367 88.9075 52.8224 91.0612 59.1488Z" fill="#EBD9CD"/>
<path d="M181.718 99.1268C181.718 99.1268 196.255 55.1108 186.227 51.2072C178.689 48.2459 158.364 60.4277 152.576 69.1098C152.509 69.1771 172.834 90.3774 181.718 99.1268Z" fill="#BB7942"/>
<path d="M160.383 69.7154C160.383 69.7154 169.671 76.3783 178.353 88.2236C178.353 88.2236 187.842 61.9755 181.987 57.3317C178.555 54.7068 164.219 64.1965 160.383 69.7154Z" fill="#EBD9CD"/>
<path fill-rule="evenodd" clip-rule="evenodd" d="M126.597 59.2164C165.633 64.8025 184.41 86.7432 181.718 99.1269C181.718 99.1269 174.921 118.847 165.633 128.202C152.643 141.191 135.952 146.912 111.387 142.672C88.5712 138.768 74.4376 128.067 66.8324 113.059C60.3713 100.271 62.2558 82.032 62.2558 82.032C62.7269 65.6101 87.5617 53.6302 126.597 59.2164Z" fill="#EBD9CD"/>
<mask id="mask0_448_40895" style="mask-type:luminance" maskUnits="userSpaceOnUse" x="62" y="57" width="120" height="88">
<path d="M126.597 59.2164C165.633 64.8025 184.41 86.7432 181.718 99.1269C181.718 99.1269 174.921 118.847 165.633 128.202C152.643 141.191 135.952 146.912 111.387 142.672C88.5712 138.768 74.4376 128.067 66.8324 113.059C60.3713 100.271 62.2558 82.032 62.2558 82.032C62.7269 65.6101 87.5617 53.6302 126.597 59.2164Z" fill="white"/>
</mask>
<g mask="url(#mask0_448_40895)">
<path d="M115.829 55.3129C117.714 66.9563 113.877 80.3495 113.877 80.3495C113.877 80.3495 97.0516 63.995 80.024 76.5806C66.9672 86.2049 75.7839 106.396 75.7839 106.396L44.7573 96.0984L49.5358 38.0834C49.4685 38.0834 113.877 43.6022 115.829 55.3129Z" fill="#E2A659"/>
</g>
<mask id="mask1_448_40895" style="mask-type:luminance" maskUnits="userSpaceOnUse" x="62" y="57" width="120" height="88">
<path d="M126.597 59.2164C165.633 64.8025 184.41 86.7432 181.718 99.1269C181.718 99.1269 174.921 118.847 165.633 128.202C152.643 141.191 135.952 146.912 111.387 142.672C88.5712 138.768 74.4376 128.067 66.8324 113.059C60.3713 100.271 62.2558 82.032 62.2558 82.032C62.7269 65.6101 87.5617 53.6302 126.597 59.2164Z" fill="white"/>
</mask>
<g mask="url(#mask1_448_40895)">
<path d="M135.683 60.3603C132.251 69.0424 130.299 82.6375 130.299 82.6375C130.299 82.6375 151.028 71.6672 163.883 88.4929C173.709 101.415 159.643 118.308 159.643 118.308C159.643 118.308 181.516 119.991 192.352 117.164C203.12 114.337 203.995 60.0911 203.995 60.0911C203.995 60.0911 139.115 51.7455 135.683 60.3603Z" fill="#E2A659"/>
</g>
<path d="M150.422 100.607C150.422 102.155 149.144 103.502 147.596 103.502C146.048 103.502 144.702 102.223 144.702 100.675C144.702 99.1268 145.98 97.7808 147.528 97.7808C149.144 97.7808 150.422 99.0595 150.422 100.607Z" fill="white"/>
<path d="M162.739 100.944C162.672 92.1949 155.47 85.1281 146.721 85.1954C137.972 85.2627 130.905 92.4641 130.972 101.213C131.039 109.963 138.241 117.03 146.99 116.962C155.74 116.895 162.806 109.694 162.739 100.944Z" fill="#7EAA00"/>
<path d="M109.166 93.2717C109.099 84.5223 101.897 77.4555 93.1478 77.5228C84.3984 77.5901 77.3316 84.7915 77.3989 93.5409C77.4662 102.29 84.6676 109.357 93.417 109.29C102.166 109.222 109.233 102.021 109.166 93.2717Z" fill="#7EAA00"/>
<path d="M96.1089 91.4544C96.1089 93.0024 94.8302 94.3484 93.2822 94.3484C91.7342 94.3484 90.3882 93.0696 90.3882 91.5217C90.3882 89.9737 91.6669 88.6277 93.2149 88.6277C94.8302 88.5604 96.1089 89.8391 96.1089 91.4544Z" fill="white"/>
<path d="M142.48 92.3295C147.865 92.2622 152.307 96.6369 152.374 102.021C152.441 107.405 148.067 111.847 142.682 111.915C137.298 111.982 132.856 107.607 132.789 102.223C132.722 96.7715 137.096 92.3968 142.48 92.3295Z" fill="#0B1411"/>
<path d="M147.798 102.088C149.346 102.088 150.625 100.81 150.625 99.1944C150.625 97.6464 149.346 96.3677 147.731 96.3677C146.183 96.3677 144.904 97.6464 144.904 99.2617C144.971 100.877 146.25 102.156 147.798 102.088Z" fill="white"/>
<path d="M87.7635 95.7618C87.6962 90.3776 92.0708 85.9356 97.4551 85.8683C102.839 85.801 107.281 90.1757 107.349 95.5599C107.416 100.944 103.041 105.386 97.657 105.453C92.2055 105.453 87.8308 101.146 87.7635 95.7618ZM93.215 88.6277C91.667 88.6277 90.3883 89.9065 90.3883 91.5218C90.3883 93.0697 91.667 94.3485 93.2823 94.3485C94.8303 94.3485 96.109 93.0697 96.109 91.4545C96.109 89.8392 94.8303 88.5604 93.215 88.6277Z" fill="#0B1411"/>
<path d="M117.781 106.597C117.781 106.597 99.2052 103.434 91.9365 113.664C85.5427 122.683 95.84 133.72 113.877 136.278C131.914 138.835 141.404 131.836 141.875 121.942C142.212 114.606 125.992 107.809 117.781 106.597Z" fill="white"/>
<path d="M116.233 117.5C116.839 118.241 121.348 123.625 127.54 122.077C127.54 122.077 127.271 126.586 123.636 129.211C123.636 129.211 121.752 125.307 116.166 124.23C110.58 123.154 106.272 126.048 106.272 126.048C104.119 122.817 104.926 119.183 104.926 119.183C104.926 119.183 111.589 121.269 116.233 117.433C116.166 117.366 116.233 117.433 116.233 117.5Z" fill="#0A1311"/>
<path d="M116.166 124.163C121.752 125.307 123.637 129.144 123.637 129.144C121.752 130.49 119.06 131.297 114.954 130.692C110.176 129.951 107.551 128.067 106.205 125.98C106.272 125.98 110.58 123.019 116.166 124.163Z" fill="#CB542F"/>
<path fill-rule="evenodd" clip-rule="evenodd" d="M117.134 111.71C117.47 111.761 117.7 112.076 117.649 112.412L116.706 118.536C116.655 118.872 116.34 119.103 116.004 119.051C115.668 119 115.437 118.685 115.489 118.349L116.431 112.225C116.483 111.888 116.798 111.658 117.134 111.71Z" fill="#0B1411"/>
<path fill-rule="evenodd" clip-rule="evenodd" d="M102.964 110.965C102.965 110.965 102.965 110.965 102.907 111.572L102.964 110.965C103.303 110.997 103.552 111.298 103.52 111.636C103.488 111.975 103.187 112.223 102.848 112.191L102.907 111.578C102.848 112.191 102.849 112.191 102.848 112.191L102.778 112.184L102.569 112.165C102.385 112.148 102.115 112.123 101.767 112.093C101.072 112.031 100.067 111.943 98.834 111.843C96.3669 111.641 92.9833 111.385 89.3169 111.166C81.9593 110.728 73.5407 110.448 69.0674 111.044C68.7303 111.089 68.4205 110.852 68.3756 110.515C68.3306 110.178 68.5675 109.868 68.9046 109.823C73.5171 109.208 82.0588 109.5 89.3901 109.937C93.0681 110.156 96.4611 110.413 98.9344 110.615C100.171 110.716 101.178 110.804 101.876 110.866C102.225 110.897 102.497 110.922 102.682 110.939L102.892 110.958L102.964 110.965Z" fill="#0B1411"/>
<path fill-rule="evenodd" clip-rule="evenodd" d="M99.4201 113.116C99.4203 113.116 99.4205 113.116 99.4072 113.732L99.4201 113.116C99.7601 113.123 100.03 113.405 100.023 113.745C100.016 114.085 99.734 114.355 99.3939 114.347L99.3914 114.347L99.382 114.347L99.3432 114.346C99.3084 114.346 99.256 114.345 99.1866 114.344C99.0477 114.343 98.8406 114.342 98.5702 114.342C98.0293 114.343 97.2352 114.352 96.2264 114.382C94.2086 114.441 91.3332 114.586 87.9086 114.925C81.0553 115.603 72.0229 117.06 63.2697 120.167C62.9492 120.281 62.5972 120.113 62.4834 119.793C62.3696 119.472 62.5372 119.12 62.8577 119.007C71.7379 115.854 80.8772 114.383 87.7873 113.699C91.2445 113.357 94.1486 113.211 96.1901 113.151C97.2109 113.121 98.0163 113.112 98.5675 113.111C98.8431 113.11 99.0553 113.111 99.199 113.113C99.2709 113.113 99.3257 113.114 99.3628 113.115L99.4052 113.116L99.4162 113.116L99.4201 113.116Z" fill="#0B1411"/>
<path fill-rule="evenodd" clip-rule="evenodd" d="M103.585 116.075C103.629 116.412 103.391 116.721 103.054 116.765C93.8199 117.97 85.922 120.279 80.3331 122.287C77.5392 123.29 75.3241 124.218 73.8096 124.894C73.0524 125.232 72.4704 125.507 72.079 125.697C71.8832 125.792 71.7351 125.865 71.6366 125.915C71.5873 125.94 71.5504 125.958 71.5262 125.971L71.4993 125.985L71.493 125.988L71.4917 125.989L71.4915 125.989C71.4915 125.989 71.4915 125.989 71.4914 125.989M103.585 116.075C103.541 115.738 103.232 115.5 102.895 115.544L103.585 116.075ZM102.895 115.544C93.5528 116.763 85.5673 119.097 79.9167 121.128L102.895 115.544ZM79.9167 121.128C77.0907 122.143 74.847 123.083 73.3077 123.77L79.9167 121.128ZM73.3077 123.77C72.538 124.113 71.9442 124.394 71.5417 124.589L73.3077 123.77ZM71.5417 124.589C71.3405 124.686 71.187 124.762 71.0832 124.815L71.5417 124.589ZM71.0832 124.815C71.0314 124.841 70.9919 124.861 70.9651 124.875L71.0832 124.815ZM70.9651 124.875L70.9345 124.89L70.9651 124.875ZM70.9345 124.89L70.9263 124.894L70.9345 124.89ZM70.9263 124.894L70.924 124.896L70.9263 124.894ZM70.924 124.896L70.9234 124.896L70.924 124.896ZM70.9234 124.896C70.9231 124.896 70.923 124.896 71.2072 125.442L70.9234 124.896Z" fill="#0B1411"/>
<path fill-rule="evenodd" clip-rule="evenodd" d="M131.714 115.634C131.778 115.301 132.101 115.082 132.435 115.146L132.319 115.751L132.202 116.355C131.868 116.291 131.65 115.968 131.714 115.634ZM132.319 115.751C132.202 116.355 132.202 116.355 132.202 116.355L132.272 116.369L132.478 116.409C132.659 116.444 132.925 116.497 133.268 116.564C133.953 116.7 134.941 116.898 136.153 117.148C138.577 117.647 141.895 118.35 145.473 119.169C152.654 120.813 160.804 122.904 164.913 124.727C165.224 124.864 165.587 124.724 165.725 124.413C165.863 124.102 165.723 123.739 165.412 123.601C161.175 121.721 152.903 119.606 145.748 117.969C142.159 117.147 138.831 116.442 136.401 115.942C135.186 115.692 134.195 115.493 133.507 115.356C133.164 115.288 132.896 115.236 132.714 115.2L132.506 115.16L132.435 115.146C132.435 115.146 132.435 115.146 132.319 115.751Z" fill="#0B1411"/>
<path fill-rule="evenodd" clip-rule="evenodd" d="M134.55 118.688C134.638 118.359 134.976 118.164 135.304 118.252L135.145 118.847C135.304 118.252 135.304 118.252 135.304 118.252L135.309 118.253L135.319 118.256L135.36 118.267C135.396 118.277 135.449 118.291 135.518 118.311C135.657 118.35 135.861 118.408 136.126 118.486C136.656 118.641 137.427 118.875 138.399 119.189C140.343 119.819 143.091 120.772 146.312 122.07C152.749 124.663 161.094 128.64 168.688 134.165C168.963 134.365 169.024 134.75 168.823 135.025C168.623 135.3 168.238 135.361 167.963 135.161C160.481 129.716 152.236 125.784 145.852 123.212C142.662 121.927 139.941 120.983 138.02 120.361C137.059 120.05 136.299 119.82 135.779 119.667C135.519 119.591 135.32 119.534 135.186 119.497C135.119 119.478 135.069 119.464 135.035 119.455L134.997 119.445L134.988 119.442L134.986 119.442C134.986 119.442 134.986 119.442 134.986 119.442M134.55 118.688C134.462 119.016 134.658 119.354 134.986 119.442L134.55 118.688Z" fill="#0B1411"/>
<path fill-rule="evenodd" clip-rule="evenodd" d="M130.34 120.015C130.475 119.703 130.838 119.56 131.15 119.695C139.815 123.452 146.837 127.919 151.693 131.447C154.122 133.211 156.01 134.742 157.293 135.833C157.935 136.379 158.425 136.814 158.756 137.115C158.922 137.265 159.047 137.381 159.132 137.461C159.174 137.5 159.206 137.531 159.228 137.551L159.253 137.575L159.26 137.581L159.262 137.584C159.263 137.584 159.263 137.584 158.836 138.028L159.262 137.584C159.507 137.82 159.515 138.21 159.279 138.455C159.044 138.7 158.654 138.707 158.409 138.472M158.409 138.472L158.408 138.47L158.402 138.466L158.381 138.445C158.361 138.426 158.331 138.398 158.291 138.36C158.21 138.285 158.089 138.173 157.928 138.027C157.607 137.735 157.126 137.308 156.495 136.771C155.234 135.698 153.37 134.187 150.969 132.444C146.168 128.955 139.224 124.538 130.66 120.825C130.348 120.69 130.205 120.327 130.34 120.015" fill="#0B1411"/>
<path d="M119.329 102.626C124.78 103.636 128.886 106.395 128.415 108.818C127.944 111.241 116.973 112.385 116.973 112.385C116.973 112.385 108.156 107.674 108.628 105.251C109.099 102.828 113.877 101.617 119.329 102.626Z" fill="#CB542F"/>
<path d="M240.406 259.375C240.406 259.375 233.878 264.154 233.676 270.144C233.474 276.134 237.849 278.624 240.406 274.586C240.406 274.586 240.945 278.355 244.647 278.22C248.348 278.018 250.367 274.855 250.367 274.855C250.367 274.855 252.05 277.143 255.213 276.403C258.847 275.528 263.357 272.769 263.626 267.182C263.895 261.596 261.338 256.279 257.703 255.135C254.136 254.058 245.32 256.279 240.406 259.375Z" fill="#B4C0C3"/>
<path d="M217.389 199.005C217.389 199.005 211.264 207.148 223.446 233.464C229.099 245.78 240.07 260.923 240.07 260.923C240.07 260.923 245.387 266.577 258.915 257.962L249.223 230.3C249.223 230.3 246.531 207.081 242.156 200.553C232.128 185.679 222.033 188.169 217.389 199.005Z" fill="#506C74"/>
<path d="M223.446 160.305C217.456 161.517 211.668 162.392 205.274 162.661C202.448 162.796 199.621 162.93 196.727 162.997C194.842 163.065 194.169 166.093 192.554 165.151C183.536 159.969 195.717 146.239 200.092 143.749C208.168 139.038 216.918 135.471 226.004 133.115C228.426 132.509 230.917 131.971 233.34 132.577C236.637 133.384 238.858 136.278 239.733 139.374C240.81 143.009 239.262 145.431 238.993 148.931C238.589 154.517 234.888 157.882 229.84 158.959C227.686 159.43 225.532 159.902 223.446 160.305Z" fill="#637C83"/>
<path d="M372.051 115.684C372.791 116.491 373.464 117.501 374.002 118.51C374.474 119.587 374.81 120.664 374.81 121.808C374.81 124.029 373.599 126.116 370.772 127.933C369.83 128.539 368.887 129.077 367.945 129.548C367.003 130.019 366.061 130.356 365.119 130.692C363.234 131.365 361.417 131.769 359.667 132.106C356.167 132.779 352.869 133.048 349.773 133.452C348.966 133.519 348.226 133.654 347.485 133.788C347.081 133.855 346.745 133.923 346.341 133.99C345.937 134.057 345.601 134.125 345.264 134.192C344.928 134.259 344.524 134.327 344.187 134.394C343.851 134.461 343.447 134.596 343.11 134.663L342.572 134.798L342.034 135C341.697 135.134 341.361 135.201 340.957 135.269C338.197 136.211 335.775 137.355 334.092 138.499C334.092 138.499 334.025 138.567 333.89 138.701C333.755 138.836 333.554 139.038 333.284 139.307C333.015 139.576 332.679 139.845 332.409 140.249C332.14 140.653 331.669 141.057 331.4 141.595C331.198 141.864 331.063 142.134 330.861 142.403C330.727 142.672 330.525 143.009 330.39 143.278C330.188 143.547 330.054 143.884 329.919 144.22C329.785 144.557 329.583 144.893 329.515 145.297C329.448 145.701 329.246 146.037 329.179 146.441C329.111 146.845 329.044 147.249 328.91 147.653C328.775 148.527 328.64 149.537 328.64 150.614C328.573 152.835 328.91 155.594 329.448 158.69C329.717 160.238 330.054 161.921 330.39 163.738C330.727 165.555 331.063 167.44 331.4 169.391C332.006 173.295 332.477 177.333 332.477 181.439C332.477 185.544 332.073 189.717 330.996 193.62C330.525 195.437 329.65 197.928 328.102 200.822C327.698 201.562 327.227 202.235 326.756 203.043C326.487 203.447 326.285 203.783 326.016 204.187C325.746 204.591 325.41 204.927 325.141 205.331C324.535 206.071 323.929 206.812 323.256 207.552C322.516 208.225 321.776 208.965 321.035 209.638L320.429 210.177C320.228 210.311 320.026 210.513 319.824 210.648C319.42 210.984 319.016 211.254 318.545 211.59C318.141 211.927 317.67 212.196 317.266 212.532C316.795 212.869 316.391 213.071 315.987 213.34C314.238 214.417 312.353 215.292 310.401 216.099C306.498 217.58 302.325 218.59 298.287 218.859C296.268 219.061 294.181 219.061 292.23 218.993C290.21 218.859 288.259 218.724 286.374 218.388C282.605 217.782 279.038 216.705 275.942 215.426C269.616 212.936 264.905 209.504 262.28 207.148C260.395 205.533 258.376 203.177 257.232 200.553C256.155 197.928 255.953 195.236 257.165 193.351C258.242 191.669 260.934 190.322 263.626 189.582C264.972 189.178 266.385 188.909 267.529 188.842C268.741 188.707 269.75 188.775 270.558 189.044C271.096 189.246 271.433 189.582 271.837 189.919C272.173 190.255 272.51 190.659 272.846 191.063C273.991 192.342 275.538 193.822 277.625 195.101C279.644 196.447 282.134 197.591 284.961 198.399C287.72 199.206 290.816 199.678 293.912 199.61C297.008 199.543 300.104 198.937 302.796 197.793C303.469 197.524 304.142 197.187 304.748 196.784C305.084 196.649 305.354 196.447 305.69 196.245L306.161 195.976L306.565 195.639C307.036 195.236 307.642 194.832 307.978 194.428L308.651 193.755C308.853 193.486 308.988 193.284 309.19 193.015C309.594 192.611 309.796 192.005 310.132 191.534L310.267 191.332L310.334 191.13L310.536 190.726C310.671 190.457 310.805 190.188 310.872 189.919C311.276 188.775 311.613 187.563 311.747 186.217C312.084 183.592 312.017 180.833 311.747 178.208C311.478 175.583 311.074 173.16 310.671 171.074C309.526 165.151 307.507 158.286 307.373 150.143C307.373 148.124 307.44 146.037 307.777 143.884C307.978 142.807 308.18 141.73 308.382 140.653C308.651 139.576 308.988 138.567 309.257 137.49C310.671 133.317 312.757 129.413 315.449 125.981C320.833 119.116 328.169 114.136 336.38 111.376C340.486 110.03 344.86 109.223 349.302 109.088C351.523 109.021 353.744 109.088 355.965 109.357C358.186 109.626 360.34 110.03 362.494 110.569C367.003 111.78 370.368 113.732 372.051 115.684Z" fill="#637C83"/>
<path d="M372.051 115.684C370.301 113.732 367.003 111.78 362.09 110.501C358.59 109.559 354.956 109.088 351.389 109.021C349.572 109.021 347.754 109.021 346.004 109.223L343.312 109.559C342.437 109.694 341.562 109.896 340.688 110.097C337.255 110.905 333.89 111.982 330.727 113.53C327.564 115.078 324.602 116.828 321.843 119.049C322.112 119.116 322.448 119.116 322.92 118.981C330.323 117.568 337.39 117.03 344.389 117.03C339.611 118.645 335.505 121.27 332.275 124.433C331.736 124.904 331.265 125.712 331.736 126.183C331.938 126.452 332.275 126.452 332.611 126.519C333.217 126.587 333.823 126.654 334.361 126.654C334.63 126.654 334.967 126.654 335.236 126.654C335.505 126.654 335.842 126.654 336.111 126.654C336.717 126.587 337.255 126.519 337.794 126.452C338.332 126.385 338.938 126.25 339.409 126.116C338.938 126.519 338.467 126.789 337.928 126.99C337.457 127.26 336.919 127.529 336.447 127.865C335.976 128.202 335.573 128.673 335.303 129.211C335.034 129.75 334.967 130.288 335.169 130.894C335.371 131.5 335.774 132.038 336.246 132.442C337.053 133.25 337.861 133.788 338.668 134.259C339.476 134.798 340.284 135.067 341.091 135.336C343.178 134.663 345.399 134.192 347.62 133.855C349.841 133.452 352.196 133.25 354.687 132.913C355.898 132.779 357.177 132.577 358.455 132.375C359.734 132.173 361.08 131.904 362.426 131.567C365.118 130.894 367.945 129.884 370.839 128C373.666 126.183 374.945 124.096 374.877 121.875C374.877 120.731 374.541 119.654 374.07 118.578C373.464 117.501 372.791 116.491 372.051 115.684Z" fill="#C6CFD1"/>
<path d="M239.801 118.982C233.945 126.452 226.475 139.172 223.985 145.095C218.6 157.95 212.947 172.891 210.793 186.688C208.236 203.245 221.293 219.263 236.368 221.484C264.703 225.657 273.587 205.062 276.279 193.149C283.076 163.401 270.625 148.999 265.78 132.981C263.828 126.52 261.068 119.587 255.213 116.222C247.069 111.578 245.118 112.251 239.801 118.982Z" fill="#506C74"/>
<path d="M256.896 126.721C256.896 126.721 264.434 152.835 265.578 180.766C266.722 208.696 249.896 219.128 233.811 214.686C218.264 210.446 214.226 195.774 217.524 178.948C222.773 151.825 238.051 125.443 238.051 125.443L256.896 126.721Z" fill="#B4C0C3"/>
<path d="M261.27 260.789C261.27 260.789 254.742 265.567 254.54 271.557C254.338 277.547 258.713 280.037 261.27 275.999C261.27 275.999 261.809 279.768 265.51 279.633C269.212 279.431 271.231 276.268 271.231 276.268C271.231 276.268 272.914 278.556 276.077 277.816C279.711 276.941 282.201 274.182 282.471 268.596C282.74 263.01 281.528 259.712 277.894 258.568C274.327 257.491 266.116 257.693 261.27 260.789Z" fill="#C6CFD1"/>
<path d="M244.377 215.696C244.377 215.696 247.137 229.897 250.502 238.781C255.281 251.434 258.78 263.01 258.78 263.01C258.78 263.01 267.664 268.865 277.894 258.635L275.471 230.973C275.471 230.973 280.788 205.398 275.269 199.812C261.54 185.881 266.52 210.379 244.377 215.696Z" fill="#637C83"/>
<path d="M265.914 136.48C265.914 136.48 258.646 140.317 265.645 147.922C272.577 155.46 274.193 158.421 275.202 162.796C276.144 167.17 271.164 179.218 271.164 179.218C271.164 179.218 284.153 176.997 286.98 185.14C286.98 185.14 292.566 177.872 295.999 165.421C299.431 152.97 277.154 133.115 265.914 136.48Z" fill="#637C83"/>
<path d="M273.789 176.458C270.356 178.881 269.28 182.785 268.472 186.688C267.799 189.65 267.597 194.698 270.693 196.515C272.106 197.322 274.193 197.053 275.068 195.64C275.471 197.255 276.952 198.466 278.567 198.534C280.183 198.601 281.798 197.524 282.336 195.976C283.211 197.12 284.894 197.592 286.307 197.188C287.721 196.851 288.932 195.707 289.538 194.428C290.076 193.351 290.278 192.073 289.672 191.063C289.134 190.054 287.653 189.515 286.711 190.256C289.403 185.275 289.201 178.881 283.75 175.853C280.788 174.17 276.885 174.305 274.058 176.189C274.058 176.257 273.923 176.391 273.789 176.458Z" fill="#C6CFD1"/>
<path d="M237.109 138.029L239.666 144.288C239.666 144.288 243.503 145.971 248.012 145.096L252.454 139.846C252.454 139.846 249.493 131.5 243.974 131.433C238.388 131.366 237.109 138.029 237.109 138.029Z" fill="#CB542F"/>
<path d="M239.666 144.288C239.666 144.288 232.667 168.247 231.186 174.439C231.186 174.439 232.667 181.708 238.455 189.246C238.455 189.246 249.021 181.573 250.098 176.795C251.175 172.016 248.012 145.095 248.012 145.095C248.012 145.095 244.512 143.009 239.666 144.288Z" fill="#CB542F"/>
<path d="M228.494 132.779L235.897 141.999L243.974 131.433L232.532 125.375L228.494 132.779Z" fill="white"/>
<path d="M263.963 124.299L243.974 131.433L252.454 144.288L268.405 134.327L263.963 124.299Z" fill="white"/>
<path d="M197.736 9.14321L267.126 5.97998L333.419 28.5937L264.03 32.1608L197.736 9.14321Z" fill="#533270"/>
<path d="M267.126 5.98016L267.731 0.999756L198.813 4.90332L197.736 9.14339L267.126 5.98016Z" fill="#66487F"/>
<path d="M267.732 0.999512L333.823 25.0939L333.419 28.5937L267.126 5.97992L267.732 0.999512Z" fill="#785D8E"/>
<path d="M228.494 39.1601L232.398 16.7482C232.398 16.7482 246.195 12.3062 263.559 14.7964C280.99 17.2866 289.807 25.4976 289.807 25.4976L289.403 47.1691C289.47 47.1691 251.041 37.7467 228.494 39.1601Z" fill="#66487F"/>
<path d="M197.602 41.4487C197.602 41.4487 203.054 46.4291 206.688 54.5728L217.524 46.9676L203.659 37.1414L197.602 41.4487Z" fill="#506C74"/>
<path d="M210.592 49.6596C210.592 49.6596 206.486 43.8716 198.881 40.3045C198.881 40.3045 210.726 27.3824 221.697 39.295L210.592 49.6596Z" fill="#9EACAF"/>
<path d="M234.282 38.6892C234.282 38.6892 219.408 26.5747 212.207 27.1131C205.005 27.6516 194.237 38.6892 193.362 44.1407C192.487 49.5923 213.283 36.1317 213.283 36.1317L220.283 42.7947L234.282 38.6892Z" fill="#506C74"/>
<path d="M320.093 55.7843C320.093 55.7843 313.632 59.3514 308.248 66.4855L299.499 56.592L315.247 50.2655L320.093 55.7843Z" fill="#506C74"/>
<path d="M305.556 60.7649C305.556 60.7649 310.873 56.0537 319.151 54.3712C319.151 54.3712 310.671 39.0934 297.143 48.112L305.556 60.7649Z" fill="#9EACAF"/>
<path d="M285.028 44.6119C285.028 44.6119 302.258 36.2664 309.19 38.4874C316.122 40.7084 323.997 53.8997 323.593 59.4186C323.189 64.9374 306.094 47.0348 306.094 47.0348L297.749 51.8806L285.028 44.6119Z" fill="#506C74"/>
<path d="M317.738 104.04C319.151 94.4161 316.93 83.3784 313.699 74.3598C313.161 72.6773 312.488 70.8601 311.613 68.9756C303.537 49.6597 294.922 42.0545 266.385 37.7471C264.972 37.4779 263.491 37.276 262.011 37.1414C261.405 37.0741 260.799 37.0068 260.194 36.9395C259.588 36.8722 258.982 36.8049 258.376 36.7376C256.896 36.5357 255.415 36.4684 253.934 36.3338C225.196 33.9109 215.101 39.3624 202.717 56.2554C201.438 57.8707 200.361 59.4859 199.419 61.0339C194.237 69.0429 189.526 79.3403 188.651 89.0319C187.708 95.2237 188.18 101.214 191.141 106.261C200.967 123.222 229.773 129.414 248.079 131.567C266.385 133.721 297.681 134.596 311.209 120.328C315.382 115.953 317.199 110.232 317.738 104.04Z" fill="#637C83"/>
<mask id="mask2_448_40895" style="mask-type:luminance" maskUnits="userSpaceOnUse" x="188" y="35" width="131" height="98">
<path d="M317.738 104.04C319.151 94.4161 316.93 83.3784 313.699 74.3598C313.161 72.6773 312.488 70.8601 311.613 68.9756C303.537 49.6597 294.922 42.0545 266.385 37.7471C264.972 37.4779 263.491 37.276 262.011 37.1414C261.405 37.0741 260.799 37.0068 260.194 36.9395C259.588 36.8722 258.982 36.8049 258.376 36.7376C256.896 36.5357 255.415 36.4684 253.934 36.3338C225.196 33.9109 215.101 39.3624 202.717 56.2554C201.438 57.8707 200.361 59.4859 199.419 61.0339C194.237 69.0429 189.526 79.3403 188.651 89.0319C187.708 95.2237 188.18 101.214 191.141 106.261C200.967 123.222 229.773 129.414 248.079 131.567C266.385 133.721 297.681 134.596 311.209 120.328C315.382 115.953 317.199 110.232 317.738 104.04Z" fill="white"/>
</mask>
<g mask="url(#mask2_448_40895)">
<path d="M254.204 85.6666C254.204 85.6666 224.321 81.2246 212.812 100.002C202.65 116.626 219.475 135.673 248.483 139.038C277.49 142.47 292.701 129.279 293.239 111.444C293.71 98.3195 267.462 87.2818 254.204 85.6666Z" fill="#C6CFD1"/>
</g>
<mask id="mask3_448_40895" style="mask-type:luminance" maskUnits="userSpaceOnUse" x="188" y="35" width="131" height="98">
<path d="M317.738 104.04C319.151 94.4161 316.93 83.3784 313.699 74.3598C313.161 72.6773 312.488 70.8601 311.613 68.9756C303.537 49.6597 294.922 42.0545 266.385 37.7471C264.972 37.4779 263.491 37.276 262.011 37.1414C261.405 37.0741 260.799 37.0068 260.194 36.9395C259.588 36.8722 258.982 36.8049 258.376 36.7376C256.896 36.5357 255.415 36.4684 253.934 36.3338C225.196 33.9109 215.101 39.3624 202.717 56.2554C201.438 57.8707 200.361 59.4859 199.419 61.0339C194.237 69.0429 189.526 79.3403 188.651 89.0319C187.708 95.2237 188.18 101.214 191.141 106.261C200.967 123.222 229.773 129.414 248.079 131.567C266.385 133.721 297.681 134.596 311.209 120.328C315.382 115.953 317.199 110.232 317.738 104.04Z" fill="white"/>
</mask>
<g mask="url(#mask3_448_40895)">
<path d="M234.282 87.6857C234.282 87.6857 250.233 76.1096 255.617 58.5435C256.088 56.9283 257.704 55.8514 259.386 56.0533C261.069 56.2552 262.347 57.6013 262.482 59.2166C263.155 66.5526 266.655 86.0031 276.818 93.8775C276.818 93.8775 269.212 97.8484 253.262 95.9639C237.311 94.1467 234.282 87.6857 234.282 87.6857Z" fill="#C6CFD1"/>
</g>
<path d="M252.79 97.6464C253.463 98.4541 259.857 104.377 266.587 102.492C266.587 102.492 265.443 110.03 261.54 112.991C261.54 112.991 258.713 108.751 252.521 107.675C246.396 106.598 241.079 109.896 241.079 109.896C238.657 106.396 239.06 99.6655 239.06 99.6655C239.06 99.6655 247.742 101.887 252.656 97.6464C252.723 97.5118 252.723 97.5791 252.79 97.6464Z" fill="#0A1311"/>
<path d="M252.521 107.607C258.646 108.684 261.54 112.924 261.54 112.924C259.79 115.145 255.752 116.693 251.31 116.087C246.06 115.414 242.426 112.722 241.08 109.761C241.08 109.828 246.397 106.53 252.521 107.607Z" fill="#CB542F"/>
<path d="M289.672 78.2631C289.74 80.013 288.393 81.4263 286.644 81.4936C284.961 81.5609 283.48 80.2149 283.413 78.465C283.346 76.7151 284.692 75.3018 286.442 75.2345C288.192 75.1672 289.605 76.5132 289.672 78.2631Z" fill="white"/>
<path d="M303.065 78.2633C302.729 68.7063 294.72 61.2356 285.163 61.5049C275.606 61.8414 268.135 69.8504 268.405 79.4074C268.741 88.9644 276.75 96.435 286.307 96.1658C295.931 95.8293 303.402 87.8203 303.065 78.2633Z" fill="#EAC652"/>
<path d="M244.31 71.331C243.974 61.774 235.965 54.3034 226.408 54.5726C216.851 54.9091 209.38 62.9181 209.649 72.4751C209.986 82.0321 217.995 89.5701 227.552 89.2336C237.176 88.9643 244.647 80.9553 244.31 71.331Z" fill="#EAC652"/>
<path d="M230.042 69.7159C230.109 71.4657 228.763 72.8791 227.013 72.9464C225.263 73.0137 223.85 71.6676 223.783 69.9178C223.715 68.1679 225.061 66.7545 226.811 66.6872C228.561 66.6199 229.975 67.966 230.042 69.7159Z" fill="white"/>
<path d="M280.721 69.3791C286.644 69.1772 291.557 73.8211 291.759 79.6765C291.961 85.5991 287.317 90.5122 281.462 90.7141C275.539 90.916 270.626 86.2721 270.424 80.4168C270.222 74.5615 274.866 69.5811 280.721 69.3791Z" fill="#0B1411"/>
<path d="M286.846 79.946C288.596 79.8787 289.942 78.4654 289.874 76.7155C289.807 74.9656 288.394 73.6196 286.644 73.6869C284.894 73.7542 283.548 75.1675 283.615 76.9174C283.683 78.6673 285.096 80.0133 286.846 79.946Z" fill="white"/>
<path d="M221.023 74.6962C220.822 68.7736 225.465 63.8605 231.321 63.6586C237.243 63.4567 242.157 68.1006 242.358 73.9559C242.56 79.8785 237.916 84.7916 232.061 84.9936C226.206 85.1955 221.225 80.5516 221.023 74.6962ZM226.811 66.6872C225.129 66.7545 223.716 68.1679 223.783 69.9177C223.85 71.6676 225.264 73.0137 227.013 72.9464C228.763 72.8791 230.109 71.4657 230.042 69.7158C229.975 67.9659 228.561 66.6199 226.811 66.6872Z" fill="#0B1411"/>
<path fill-rule="evenodd" clip-rule="evenodd" d="M253.543 91.2577C253.912 91.302 254.176 91.637 254.131 92.0061L253.324 98.7364C253.279 99.1054 252.944 99.3687 252.575 99.3244C252.206 99.2801 251.943 98.945 251.987 98.576L252.795 91.8457C252.839 91.4767 253.174 91.2134 253.543 91.2577Z" fill="#0B1411"/>
<path fill-rule="evenodd" clip-rule="evenodd" d="M238.071 90.8493C238.071 90.8493 238.071 90.8493 238.051 91.522C238.03 92.1947 238.03 92.1947 238.03 92.1947L237.684 92.1845C237.457 92.1779 237.122 92.1685 236.692 92.157C235.832 92.1341 234.59 92.1028 233.065 92.0697C230.014 92.0035 225.831 91.93 221.296 91.9005C212.209 91.8416 201.773 91.9607 196.205 92.6609C195.836 92.7072 195.499 92.4459 195.453 92.0771C195.407 91.7083 195.668 91.3717 196.037 91.3253C201.709 90.6121 212.237 90.4957 221.305 90.5545C225.848 90.584 230.039 90.6577 233.094 90.724C234.622 90.7571 235.866 90.7884 236.728 90.8115C237.159 90.823 237.495 90.8324 237.722 90.839L238.071 90.8493ZM238.723 91.5426C238.712 91.9142 238.401 92.2061 238.03 92.1947L238.051 91.522L238.071 90.8493C238.442 90.8607 238.735 91.1711 238.723 91.5426Z" fill="#0B1411"/>
<path fill-rule="evenodd" clip-rule="evenodd" d="M234.046 94.686C234.417 94.6674 234.733 94.9532 234.752 95.3244C234.771 95.6957 234.485 96.0117 234.114 96.0304L234.08 95.3582L234.046 94.686ZM234.046 94.686C234.046 94.686 234.046 94.686 234.08 95.3582C234.114 96.0304 234.114 96.0304 234.114 96.0304L234.014 96.0355C233.949 96.0389 233.851 96.0441 233.722 96.051C233.465 96.0649 233.085 96.0858 232.597 96.1141C231.621 96.1707 230.212 96.2565 228.478 96.3736C225.01 96.6078 220.247 96.967 215.064 97.4667C204.671 98.469 192.683 100.029 186.037 102.256C185.685 102.374 185.304 102.184 185.185 101.831C185.067 101.479 185.257 101.097 185.61 100.979C192.425 98.6962 204.565 97.1269 214.935 96.1269C220.134 95.6256 224.91 95.2654 228.387 95.0306C230.126 94.9132 231.54 94.8271 232.519 94.7703C233.009 94.7419 233.39 94.7209 233.649 94.7069C233.779 94.6999 233.878 94.6947 233.944 94.6913L234.046 94.686Z" fill="#0B1411"/>
<path fill-rule="evenodd" clip-rule="evenodd" d="M238.915 96.4488C238.981 96.8144 238.739 97.1649 238.373 97.2316C227.328 99.246 217.977 101.63 211.39 103.51C208.097 104.449 205.494 105.263 203.717 105.841C202.828 106.13 202.146 106.36 201.686 106.518C201.456 106.597 201.282 106.658 201.166 106.698C201.108 106.719 201.064 106.734 201.035 106.745L201.003 106.756L200.993 106.76L200.765 106.127C200.537 105.493 200.537 105.493 200.538 105.493L200.55 105.489L200.584 105.476C200.615 105.466 200.66 105.45 200.72 105.429C200.839 105.387 201.016 105.325 201.249 105.245C201.715 105.085 202.405 104.852 203.3 104.561C205.092 103.978 207.71 103.16 211.021 102.215C217.641 100.326 227.035 97.9312 238.132 95.9074C238.498 95.8407 238.848 96.0831 238.915 96.4488ZM200.132 106.354C200.006 106.005 200.188 105.619 200.538 105.493L200.765 106.127L200.993 106.76C200.643 106.885 200.257 106.704 200.132 106.354Z" fill="#0B1411"/>
<path fill-rule="evenodd" clip-rule="evenodd" d="M269.764 95.2224C269.839 94.8583 270.195 94.624 270.559 94.6989L270.424 95.3581L270.288 96.0173C269.924 95.9424 269.69 95.5865 269.764 95.2224ZM270.424 95.3581C270.288 96.0173 270.288 96.0173 270.288 96.0173L270.627 96.0876C270.85 96.1338 271.178 96.2021 271.599 96.2906C272.441 96.4674 273.656 96.7246 275.148 97.0456C278.131 97.6876 282.218 98.5849 286.635 99.6061C295.487 101.653 305.604 104.184 310.838 106.151C311.186 106.282 311.574 106.106 311.705 105.758C311.835 105.41 311.659 105.022 311.311 104.891C305.979 102.887 295.771 100.337 286.938 98.2947C282.513 97.2715 278.419 96.3727 275.431 95.7297C273.937 95.4081 272.72 95.1505 271.875 94.9732C271.453 94.8846 271.124 94.8161 270.901 94.7697L270.559 94.6989C270.559 94.6988 270.559 94.6989 270.424 95.3581Z" fill="#0B1411"/>
<path fill-rule="evenodd" clip-rule="evenodd" d="M272.806 99.8137C272.911 99.4569 273.284 99.252 273.641 99.3561L273.453 100.002L273.264 100.648C272.907 100.544 272.702 100.171 272.806 99.8137ZM273.453 100.002C273.264 100.648 273.264 100.648 273.264 100.648L273.359 100.676C273.422 100.695 273.517 100.722 273.64 100.759C273.887 100.832 274.252 100.94 274.72 101.081C275.656 101.362 277.008 101.771 278.668 102.287C281.988 103.317 286.539 104.768 291.465 106.452C301.345 109.83 312.646 114.115 318.595 117.804C318.91 118 319.325 117.902 319.521 117.586C319.717 117.27 319.62 116.856 319.304 116.66C313.205 112.878 301.758 108.548 291.901 105.179C286.959 103.489 282.395 102.034 279.067 101.001C277.402 100.484 276.047 100.073 275.107 99.7915C274.637 99.6505 274.271 99.5417 274.022 99.4682C273.898 99.4314 273.802 99.4034 273.738 99.3846L273.641 99.3561C273.641 99.356 273.641 99.3561 273.453 100.002Z" fill="#0B1411"/>
<path fill-rule="evenodd" clip-rule="evenodd" d="M268.528 99.9339C268.677 99.5934 269.074 99.4382 269.415 99.5873C279.736 104.107 288.321 108.61 294.326 111.984C297.329 113.671 299.688 115.076 301.297 116.06C302.101 116.552 302.718 116.939 303.135 117.203C303.343 117.335 303.502 117.437 303.608 117.505C303.662 117.54 303.702 117.566 303.729 117.583L303.76 117.604L303.768 117.609L303.77 117.61L303.771 117.611C303.771 117.611 303.771 117.611 303.402 118.174L303.771 117.611C304.081 117.814 304.169 118.232 303.965 118.543C303.761 118.853 303.344 118.94 303.033 118.737L303.081 118.664C303.033 118.737 303.033 118.737 303.033 118.737L303.024 118.731L302.995 118.712C302.97 118.695 302.931 118.67 302.879 118.637C302.775 118.57 302.62 118.47 302.414 118.34C302.003 118.079 301.392 117.696 300.594 117.208C298.998 116.232 296.654 114.836 293.667 113.157C287.692 109.801 279.148 105.319 268.875 100.82C268.534 100.671 268.379 100.274 268.528 99.9339Z" fill="#0B1411"/>
<path d="M255.751 81.2921C261.741 82.2343 266.251 85.1283 265.847 87.7532C265.443 90.4453 253.463 91.9259 253.463 91.9259C253.463 91.9259 243.704 87.0128 244.108 84.388C244.579 81.7632 249.761 80.3498 255.751 81.2921Z" fill="#CB542F"/>
<path d="M227.686 193.823L197.736 178.41L199.89 172.084L229.032 188.775L227.686 193.823Z" fill="#428B75"/>
<path d="M213.889 134.192L239.666 149.403L228.763 192.409L200.765 174.776L207.831 135.808L213.889 134.192Z" fill="#D0D2EA"/>
<path d="M229.907 153.374L218.869 196.851L193.9 181.506L205.207 137.827L229.907 153.374Z" fill="#3B76DB"/>
<path d="M215.033 136.817L238.657 150.412L230.244 153.104L210.12 137.827C210.12 137.827 212.745 136.346 215.033 136.817Z" fill="white"/>
<path d="M238.657 150.412L227.888 192.88C227.888 192.88 222.639 192.948 218.802 196.851L230.176 153.104C234.215 151.085 234.08 151.153 238.657 150.412Z" fill="#EDEDF7"/>
<path d="M229.907 153.374L205.207 137.827C205.207 137.827 202.649 136.01 208.168 134.192C213.687 132.375 215.774 133.99 215.774 133.99L241.281 149.605L239.33 149.941C237.176 149.47 217.591 135.875 214.36 135.135C212.745 134.798 212.408 134.865 210.86 135.404C209.918 135.74 207.899 136.144 208.572 137.086C209.649 138.769 231.119 152.095 231.59 152.23L229.907 153.374Z" fill="#6094E4"/>
<path d="M241.281 149.605L229.032 193.15L227.686 193.823L239.329 149.941L241.281 149.605Z" fill="#3B6DC3"/>
<path d="M231.589 152.162L229.907 153.374L218.869 196.851L220.552 196.448L231.589 152.162Z" fill="#3B6DC3"/>
<path fill-rule="evenodd" clip-rule="evenodd" d="M215.961 139.164C216.078 138.97 216.329 138.908 216.523 139.024L235.973 150.735C236.13 150.829 236.205 151.015 236.158 151.192L232.725 163.979C232.667 164.198 232.442 164.327 232.224 164.268C232.005 164.21 231.876 163.985 231.934 163.767L235.287 151.277L216.101 139.726C215.907 139.609 215.844 139.357 215.961 139.164Z" fill="#D0D2EA"/>
<path fill-rule="evenodd" clip-rule="evenodd" d="M229.205 173.102C229.423 173.16 229.553 173.384 229.495 173.602L224.044 194.13C223.986 194.348 223.762 194.478 223.543 194.42C223.325 194.362 223.195 194.138 223.253 193.92L228.704 173.392C228.762 173.174 228.986 173.044 229.205 173.102Z" fill="#D0D2EA"/>
<path d="M205.611 137.894L193.9 181.506C193.9 181.506 193.025 181.237 193.16 179.487L204.736 137.086C204.803 137.086 205.005 137.288 205.611 137.894Z" fill="#3B6DC3"/>
<path fill-rule="evenodd" clip-rule="evenodd" d="M229.203 179.966C229.422 180.023 229.553 180.247 229.495 180.466L226.13 193.321C226.073 193.539 225.849 193.67 225.631 193.613C225.412 193.556 225.281 193.332 225.338 193.113L228.703 180.258C228.761 180.04 228.984 179.909 229.203 179.966Z" fill="#D0D2EA"/>
<path d="M189.929 155.729C190.333 154.652 190.804 153.643 191.544 152.633C192.689 151.018 194.371 149.605 196.323 149.605C197.938 149.605 199.486 150.614 200.563 151.826C201.64 153.037 202.448 154.518 203.39 155.864C205.409 158.69 206.149 161.988 209.245 163.738C205.476 165.555 203.255 170.065 203.995 174.17C202.38 174.439 200.765 174.372 199.15 174.103C190.804 172.757 186.901 164.277 189.929 155.729Z" fill="#637C83"/>
<path d="M206.284 162.055C206.284 162.055 213.418 160.305 218.668 162.863C223.917 165.353 218.6 169.795 218.6 169.795C218.6 169.795 221.898 174.372 215.841 175.583C215.841 175.583 216.85 179.285 211.735 179.016C206.62 178.746 200.092 174.237 200.092 174.237C200.092 174.237 196.929 165.622 206.284 162.055Z" fill="#C6CFD1"/>
</svg>
