<svg width="400" height="281" viewBox="0 0 400 281" fill="none" xmlns="http://www.w3.org/2000/svg">
<path d="M95.5303 232.152L135.315 226.015L156.124 258.534L136.725 277.368L95.5303 232.152Z" fill="#CB542F"/>
<path d="M95.6006 211.907C95.6006 211.907 101.596 220.725 97.5757 232.082L136.231 269.82L154.924 259.239L95.6006 211.907Z" fill="#EDEDF7"/>
<path d="M98.6338 220.16L126.567 248.94C126.567 248.94 134.186 255.994 135.314 268.833C135.314 268.833 146.177 256.911 133.903 242.451C121.559 228.061 95.6006 211.907 95.6006 211.907L98.6338 220.16Z" fill="#D0D2EA"/>
<path fill-rule="evenodd" clip-rule="evenodd" d="M98.0218 228.314C98.2715 228.054 98.6848 228.045 98.9448 228.295L118.414 246.988C118.674 247.238 118.682 247.651 118.432 247.911C118.183 248.171 117.769 248.18 117.509 247.93L98.0405 229.237C97.7805 228.987 97.7721 228.574 98.0218 228.314Z" fill="#D0D2EA"/>
<path fill-rule="evenodd" clip-rule="evenodd" d="M98.5186 223.938C98.7699 223.679 99.1832 223.673 99.4418 223.925L109.388 233.588C109.646 233.84 109.652 234.253 109.401 234.512C109.15 234.77 108.737 234.776 108.478 234.525L98.5319 224.861C98.2733 224.61 98.2673 224.196 98.5186 223.938Z" fill="#D0D2EA"/>
<path d="M94.4019 206.758H203.033L264.684 246.683L251.634 257.828L134.045 250.21L94.4019 206.758Z" fill="#CB542F"/>
<path d="M136.655 280.189L93.9784 235.256C93.6257 236.314 93.4141 235.82 93.4141 235.256V232.999C93.4141 231.87 94.8249 231.376 95.5303 232.152L133.904 270.949C133.904 270.949 136.725 264.248 130.729 250.492L93.1319 211.766C92.7087 211.343 92.4971 210.779 92.4971 210.214V207.463C92.4971 206.476 93.6962 206.053 94.3311 206.687L133.833 246.683L145.331 256.629V280.119H136.655V280.189Z" fill="#8E381E"/>
<path d="M133.904 246.683C133.904 246.683 143.85 258.816 136.655 280.119H262.497C262.497 280.119 276.464 264.106 264.754 246.683H133.904Z" fill="#AF381E"/>
<path d="M168.539 205.488L207.547 200.621L227.933 226.297L206.348 242.662L168.539 205.488Z" fill="#E3AE4B"/>
<path d="M168.539 189.476C168.539 189.476 174.464 196.459 170.514 205.418L208.464 238.571L226.804 226.862L168.539 189.476Z" fill="#EDEDF7"/>
<path d="M171.572 195.965L199.012 218.679C199.012 218.679 206.489 227.567 207.617 237.725C207.617 237.725 218.339 224.957 206.207 213.6C194.074 202.243 168.539 189.476 168.539 189.476L171.572 195.965Z" fill="#D0D2EA"/>
<path fill-rule="evenodd" clip-rule="evenodd" d="M170.989 202.44C171.192 202.196 171.555 202.163 171.799 202.366L190.844 218.238C191.088 218.441 191.121 218.803 190.918 219.047C190.715 219.291 190.352 219.324 190.108 219.121L171.063 203.249C170.819 203.046 170.786 202.684 170.989 202.44Z" fill="#D0D2EA"/>
<path fill-rule="evenodd" clip-rule="evenodd" d="M171.4 198.999C171.595 198.748 171.956 198.703 172.207 198.897L182.012 206.516C182.262 206.71 182.308 207.071 182.113 207.322C181.918 207.573 181.557 207.618 181.306 207.423L171.501 199.805C171.251 199.61 171.205 199.249 171.4 198.999Z" fill="#D0D2EA"/>
<path d="M167.41 185.385H261.862L330.427 216.986L321.75 233.069L206.348 219.737L167.41 185.385Z" fill="#E3AE4B"/>
<path d="M208.887 246.683L166.987 208.945C166.634 208.662 166.493 208.239 166.493 207.816V206.052C166.493 205.135 167.833 204.783 168.609 205.418L206.277 239.347C206.277 239.347 209.028 230.741 203.173 219.878L166.281 189.264C165.858 188.911 165.646 188.488 165.646 188.065V185.949C165.646 185.173 166.775 184.82 167.481 185.384L206.277 216.986L217.564 225.945V242.31L208.887 246.683Z" fill="#F0D763"/>
<path d="M206.207 216.986C206.207 216.986 215.941 229.895 208.887 246.754H332.402C332.402 246.754 343.688 229.119 330.426 216.986H206.207Z" fill="#D18B4B"/>
<path d="M239.784 180.235L274.348 175.932L292.406 195.824L273.219 213.106L239.784 180.235Z" fill="#609682"/>
<path d="M239.784 163.235C239.784 163.235 245.004 172.194 241.547 180.165L275.194 209.509L291.419 196.318L239.784 163.235Z" fill="#EDEDF7"/>
<path d="M242.394 169.019L266.659 189.123C266.659 189.123 273.29 199.845 274.277 208.804C274.277 208.804 283.73 194.696 273.008 184.609C262.356 174.521 239.784 163.235 239.784 163.235L242.394 169.019Z" fill="#D0D2EA"/>
<path fill-rule="evenodd" clip-rule="evenodd" d="M241.822 176.007C242.054 175.731 242.465 175.694 242.742 175.925L259.601 190.033C259.877 190.265 259.914 190.676 259.682 190.953C259.451 191.229 259.039 191.266 258.763 191.035L241.904 176.927C241.627 176.695 241.591 176.284 241.822 176.007Z" fill="#D0D2EA"/>
<path fill-rule="evenodd" clip-rule="evenodd" d="M242.231 171.581C242.453 171.296 242.863 171.245 243.147 171.467L251.753 178.168C252.038 178.39 252.089 178.8 251.867 179.084C251.646 179.369 251.235 179.42 250.951 179.198L242.345 172.497C242.061 172.276 242.01 171.865 242.231 171.581Z" fill="#D0D2EA"/>
<path d="M238.726 159.637H353.141L394.265 187.571L386.647 201.82L273.219 190.04L238.726 159.637Z" fill="#609682"/>
<path d="M275.476 216.774L238.373 183.339C238.091 183.057 237.879 182.704 237.879 182.351V180.729C237.879 179.953 239.078 179.6 239.713 180.165L273.078 210.214C273.078 210.214 275.547 199.774 270.327 190.111L237.667 163.094C237.315 162.812 237.103 162.459 237.103 162.036V160.131C237.103 159.426 238.091 159.144 238.725 159.567L273.078 187.501L283.095 195.401V212.683L275.476 216.774Z" fill="#427763"/>
<path d="M273.078 187.571C273.078 187.571 281.684 201.82 275.476 216.704H396.028C396.028 216.704 406.045 198.293 394.265 187.571H273.078Z" fill="#428B75"/>
<path d="M8.69588 161.26C8.06103 161.331 7.35563 161.26 6.5797 161.19C5.87431 161.119 5.09837 160.907 4.32243 160.555C2.77057 159.849 1.2187 158.439 0.442766 155.758C-0.121549 153.924 -0.121547 152.09 0.301689 150.185C0.513308 149.268 0.936544 148.351 1.35978 147.505C1.5714 147.082 1.85356 146.588 2.13571 146.165C2.41787 145.741 2.77057 145.318 3.12327 144.895C5.94484 141.509 10.6004 138.688 15.9614 137.065C21.3224 135.443 27.3183 135.019 32.8204 135.584C38.3224 136.148 43.1897 137.629 46.8577 139.04C46.8577 139.04 47.0693 139.111 47.422 139.181C47.7747 139.322 48.2685 139.534 48.9739 139.746C49.6087 140.028 50.4552 140.31 51.3722 140.733C52.2892 141.156 53.3473 141.65 54.476 142.215C56.8038 143.343 59.2726 144.895 61.8826 146.658C64.4926 148.422 67.1025 150.397 69.7125 152.443C70.9822 153.43 72.2519 154.418 73.5921 155.405C74.8619 156.393 76.1316 157.31 77.4013 158.227C80.0112 160.061 82.6917 161.824 85.3017 163.376C87.9822 164.999 90.5921 166.41 93.1316 167.609C94.4013 168.244 95.6004 168.737 96.7996 169.302C97.9988 169.795 99.1274 170.289 100.186 170.642C102.161 171.418 105.617 172.688 109.779 173.675C113.941 174.663 118.808 175.509 123.675 175.509C128.542 175.58 133.41 174.874 137.36 173.887C141.31 172.899 144.414 171.488 146.107 170.571C146.389 170.43 146.742 170.219 147.094 170.078C147.447 169.937 147.8 169.725 148.152 169.584C148.858 169.302 149.704 169.09 150.48 168.878C152.103 168.526 153.725 168.526 155.347 169.302C156.758 170.078 158.451 171.912 159.509 174.028C160.003 175.086 160.356 176.215 160.497 177.343C160.567 178.401 160.426 179.53 159.791 180.376C159.015 181.505 157.746 182.351 156.476 183.057C155.982 183.339 155.418 183.692 154.783 183.974C154.219 184.256 153.584 184.609 152.949 184.891C151.679 185.596 150.269 186.161 148.787 186.795C145.825 187.995 142.439 189.123 138.771 189.97C131.434 191.733 122.97 192.297 114.576 191.451C110.414 191.028 106.322 190.252 102.372 189.264C98.422 188.277 94.754 187.007 91.2975 185.667C87.8411 184.327 84.7374 182.916 81.9863 181.505C80.5756 180.8 79.3058 180.094 78.1067 179.459C76.9075 178.824 75.8494 178.19 74.7913 177.555C71.9697 175.862 69.1482 174.098 66.4677 172.264C63.7166 170.43 61.1067 168.455 58.6378 166.692C53.6295 163.094 48.9034 159.92 44.1067 158.227C34.5133 154.629 23.3681 155.194 14.4801 159.215C13.2809 159.849 12.1523 160.273 11.2353 160.625C10.7415 160.837 10.3183 160.978 9.89505 161.049C9.40127 161.119 9.04858 161.26 8.69588 161.26Z" fill="#735190"/>
<path d="M8.69608 161.26C9.04878 161.26 9.47201 161.119 9.89525 161.049C10.3185 160.978 10.7417 160.837 11.2355 160.625C12.1525 160.202 13.2811 159.779 14.4803 159.215C21.7459 155.97 30.4222 154.912 38.6048 156.605C38.5343 156.393 38.4637 156.252 38.2521 155.97C34.8662 152.372 29.5757 150.045 24.0737 149.903C27.8828 148.634 31.9036 147.787 36.1359 147.364C36.7708 147.293 37.6172 147.082 37.5467 146.518C37.5467 146.235 37.2646 146.024 37.0529 145.812C35.2894 144.331 32.75 143.343 30.2106 143.202C30.4928 143.132 30.8455 143.061 31.1982 142.991C31.5509 142.991 31.833 142.991 32.1857 142.991C32.8911 142.991 33.526 142.991 34.2314 142.991C35.5716 142.92 37.0529 142.638 37.5467 141.65C37.7583 141.157 37.6878 140.592 37.4762 140.028C37.1235 139.111 36.4886 138.194 35.6421 137.418C34.7957 136.713 33.7376 136.078 32.5384 135.513C28.4471 135.161 24.0737 135.231 19.9119 136.078C15.75 136.924 11.7998 138.335 8.555 140.31C5.31019 142.356 2.77077 144.754 1.43052 147.505C0.725127 148.845 0.231354 150.186 0.160815 151.596C0.0197361 153.007 0.160814 154.347 0.58405 155.688C1.43052 158.368 2.98239 159.708 4.46372 160.484C5.23965 160.837 6.01558 161.049 6.72098 161.119C7.28529 161.26 8.06123 161.331 8.69608 161.26Z" fill="#E2DBE8"/>
<path d="M145.966 227.356C145.824 227.285 145.754 227.215 145.613 227.144C144.555 226.368 143.567 225.522 142.862 224.393C142.509 223.829 142.298 223.194 142.086 222.629C141.239 219.808 141.592 216.563 143.003 214.024C143.708 212.824 144.766 211.907 146.036 211.273C146.671 210.99 147.306 210.708 148.011 210.567C148.717 210.426 149.281 210.567 149.986 210.426C151.468 210.073 152.949 210.426 154.36 210.849C158.663 212.049 162.895 214.094 165.505 217.762C166.069 218.609 166.563 219.526 166.775 220.513C166.986 221.501 166.775 222.629 166.14 223.405C165.505 224.181 164.376 224.605 163.389 224.181C163.389 224.816 163.248 225.451 163.036 226.086C162.754 226.65 162.331 227.214 161.696 227.426C161.061 227.638 160.356 227.497 159.65 227.285C159.156 227.144 158.522 226.932 158.451 226.439C158.028 228.766 155.982 229.613 153.866 229.754C151.185 229.613 148.364 228.837 145.966 227.356Z" fill="#E2DBE8"/>
<path d="M193.862 116.045C193.862 117.173 194.003 118.302 194.285 119.431C194.497 120.489 194.92 121.547 195.837 122.04C196.26 122.252 196.754 122.393 197.177 122.393C201.692 122.957 206.982 121.123 210.721 118.655C212.061 117.808 213.119 116.327 213.119 114.634C213.119 113.576 212.414 112.518 211.356 112.306C212.414 111.46 212.837 109.908 212.273 108.638C211.708 107.368 210.086 106.733 208.887 107.227C209.098 106.804 209.239 106.31 209.31 105.816C209.381 105.323 209.24 104.829 208.887 104.476C208.675 104.265 208.322 104.123 207.97 104.123C206.277 103.841 204.584 104.688 203.032 105.534C202.327 105.957 201.692 106.381 201.198 107.016C200.845 106.24 200.069 105.675 199.223 105.605C198.306 105.534 197.389 105.957 196.683 106.663C196.049 107.298 195.555 108.215 195.202 109.061C194.356 111.46 193.791 113.646 193.862 116.045Z" fill="#E2DBE8"/>
<path d="M161.273 134.949C160.779 134.667 160.356 134.385 159.862 134.032C157.393 132.269 154.995 129.659 154.712 126.485C154.36 122.534 157.816 119.713 161.625 119.501C166.845 119.29 172.629 120.489 177.92 120.982C179.331 121.124 180.741 121.194 182.152 120.912C185.75 120.207 187.936 117.808 191.181 116.115C192.31 115.551 193.932 114.211 193.932 114.211C194.849 114.422 196.895 115.41 197.671 116.045C199.505 117.667 200.986 119.642 202.044 121.829C199.646 125.568 197.107 127.754 193.509 130.364C188.077 134.314 181.799 137.418 175.098 137.982C170.302 138.406 165.364 137.489 161.273 134.949Z" fill="#8B6FA3"/>
<path d="M156.335 166.692C156.335 166.692 157.323 187.219 155.136 193.638C152.949 199.987 143.85 212.754 143.85 212.754C143.85 212.754 148.999 218.327 157.534 214.447C157.534 214.447 165.928 212.26 175.522 200.692C185.115 189.123 185.468 168.385 185.468 168.385L156.335 166.692Z" fill="#735190"/>
<path d="M126.497 113.575C126.497 113.575 134.256 121.899 136.372 129.588C138.488 137.277 141.169 159.144 148.928 171.841C156.687 184.538 171.712 184.256 182.928 179.741C194.144 175.227 191.675 152.866 181.658 144.401C171.712 135.936 158.239 124.862 153.019 117.596C147.799 110.331 144.978 106.804 144.978 106.804L126.497 113.575Z" fill="#735190"/>
<path d="M150.903 105.323C150.903 105.323 156.758 115.269 166.14 121.758C175.451 128.248 194.567 140.098 192.028 163.447C192.028 163.447 192.028 173.393 181.941 174.804C175.239 175.721 165.505 168.103 160.285 157.381C155.065 146.659 154.148 135.231 150.268 128.248C146.389 121.264 138.488 111.671 138.488 111.671L150.903 105.323Z" fill="#E2DBE8"/>
<path fill-rule="evenodd" clip-rule="evenodd" d="M130.941 46.8453C130.941 46.8453 121.841 7.0611 132.422 2.40549C144.696 -3.02604 163.107 47.9034 163.107 47.9034L130.941 46.8453Z" fill="#735190"/>
<path d="M139.123 9.17721C148.505 12.7747 158.169 42.4718 158.169 42.4718C147.306 34.2187 136.16 30.9739 136.16 30.9739C136.16 30.9739 129.812 5.5797 139.123 9.17721Z" fill="#E29FB2"/>
<path fill-rule="evenodd" clip-rule="evenodd" d="M168.609 49.3142C183.069 64.3391 183.351 103.982 154.43 116.75C118.596 132.551 82.6917 121.688 78.9531 94.5299C72.9573 50.6544 95.0361 39.7913 106.464 34.7125C115.493 30.7623 143.92 23.7083 168.609 49.3142Z" fill="#8B6FA3"/>
<path fill-rule="evenodd" clip-rule="evenodd" d="M88.2644 85.9242C88.2644 85.9242 65.0569 31.6088 76.2727 20.1109C86.2893 9.81214 107.874 41.3433 107.874 41.3433L88.2644 85.9242Z" fill="#8B6FA3"/>
<path d="M102.584 40.5673C102.584 40.5673 92.3556 51.5714 90.5216 66.3142C90.5216 66.3142 76.5548 38.31 80.2228 28.2934C83.4676 19.5465 95.1066 29.0694 102.584 40.5673Z" fill="#E29FB2"/>
<path d="M148.434 78.0943C148.434 78.0943 146.671 80.4221 144.978 83.6669C143.285 86.9117 140.181 88.8163 138.065 90.7914C135.949 92.837 132.916 97.0694 138.629 101.584C144.061 105.816 154.642 112.094 164.165 106.31C176.509 98.7624 171.995 86.6296 170.584 81.1275C169.173 75.6254 164.941 76.7541 162.401 77.2478C159.862 77.7416 155.277 76.2603 152.949 76.3308C150.551 76.4719 148.434 78.0943 148.434 78.0943Z" fill="#E2DBE8"/>
<path d="M170.091 51.783C165.364 43.0362 158.169 38.7332 154.008 42.2602C149.846 45.7167 150.339 55.6627 155.066 64.4096C159.792 73.1565 166.987 77.4594 171.149 73.9324C175.24 70.476 174.817 60.5299 170.091 51.783Z" fill="white"/>
<path d="M169.455 55.7332C166.493 50.3722 161.626 47.9033 158.592 50.3016C155.559 52.6294 155.559 58.9075 158.522 64.2685C161.484 69.6294 166.352 72.0983 169.385 69.7C172.418 67.3722 172.418 61.0942 169.455 55.7332Z" fill="#0B1411"/>
<path d="M167.339 54.4636C168.186 56.0155 168.186 57.8495 167.339 58.5549C166.493 59.2603 165.012 58.5549 164.165 56.9325C163.319 55.3806 163.319 53.5466 164.165 52.8412C165.012 52.2064 166.493 52.9118 167.339 54.4636Z" fill="white"/>
<path d="M137.783 64.5506C132.916 55.8743 125.016 51.8535 120.148 55.7332C115.211 59.5423 115.211 69.7 120.007 78.4469C124.875 87.1232 132.775 91.144 137.642 87.2643C142.58 83.3846 142.58 73.227 137.783 64.5506Z" fill="white"/>
<path d="M137.713 68.9241C134.75 63.5631 129.883 61.0942 126.85 63.4926C123.817 65.8204 123.817 72.0984 126.779 77.4594C129.742 82.8204 134.609 85.2892 137.642 82.8909C140.675 80.5631 140.675 74.2851 137.713 68.9241Z" fill="#0B1411"/>
<path d="M133.974 67.4426C134.821 68.9945 134.821 70.8285 133.974 71.5339C133.057 72.2393 131.646 71.5339 130.8 69.9115C129.953 68.3596 129.953 66.5256 130.8 65.8202C131.717 65.1854 133.128 65.8908 133.974 67.4426Z" fill="white"/>
<path fill-rule="evenodd" clip-rule="evenodd" d="M144.236 86.0684C144.507 85.931 144.838 86.0392 144.975 86.3102C145.113 86.5812 145.004 86.9123 144.733 87.0498L144.484 86.5591L144.236 86.0684ZM144.236 86.0684C144.236 86.0684 144.236 86.0684 144.484 86.5591C144.733 87.0498 144.734 87.0497 144.733 87.0498L144.733 87.0501L144.568 87.1336C144.46 87.1889 144.299 87.2708 144.089 87.3775C143.67 87.5909 143.059 87.9032 142.286 88.2987C140.742 89.0897 138.556 90.2135 135.991 91.5444C130.861 94.2065 124.216 97.6961 118.155 101.009C117.888 101.154 117.554 101.056 117.408 100.79C117.263 100.523 117.361 100.189 117.627 100.043C123.699 96.725 130.351 93.2313 135.484 90.5676C138.051 89.2357 140.239 88.111 141.785 87.3193C142.558 86.9234 143.17 86.6108 143.59 86.3971C143.799 86.2902 143.961 86.2081 144.07 86.1527L144.236 86.0684Z" fill="#0B1411"/>
<path fill-rule="evenodd" clip-rule="evenodd" d="M143.43 90.035C143.692 89.881 144.029 89.9685 144.183 90.2304C144.337 90.4924 144.249 90.8296 143.988 90.9836L143.709 90.5093L143.43 90.035ZM143.43 90.035C143.43 90.0349 143.43 90.035 143.709 90.5093L143.988 90.9836L143.986 90.9847L143.979 90.9885L143.952 91.0043C143.929 91.0185 143.893 91.04 143.845 91.0686C143.75 91.1258 143.608 91.2115 143.423 91.3248C143.053 91.5515 142.512 91.8886 141.827 92.3289C140.457 93.2095 138.515 94.5025 136.227 96.1493C131.649 99.4444 125.698 104.15 120.19 109.798C119.978 110.016 119.629 110.02 119.412 109.808C119.194 109.596 119.19 109.247 119.402 109.03C124.969 103.321 130.974 98.5742 135.584 95.2562C137.89 93.5965 139.849 92.2927 141.232 91.4033C141.924 90.9585 142.472 90.6172 142.848 90.3868C143.036 90.2715 143.18 90.184 143.279 90.125C143.328 90.0956 143.365 90.0733 143.391 90.0582L143.419 90.0411L143.43 90.035Z" fill="#0B1411"/>
<path fill-rule="evenodd" clip-rule="evenodd" d="M147.312 90.7271C147.543 90.9253 147.569 91.2727 147.37 91.5031C142.161 97.5569 137.479 103.595 134.097 108.121C132.407 110.383 131.043 112.267 130.101 113.585C129.63 114.244 129.265 114.761 129.018 115.113C128.895 115.289 128.801 115.424 128.738 115.515L128.666 115.618L128.643 115.651C128.643 115.651 128.643 115.652 128.19 115.339C127.737 115.027 127.737 115.027 127.737 115.027L127.762 114.991L127.834 114.887C127.898 114.795 127.993 114.659 128.117 114.481C128.366 114.127 128.733 113.607 129.206 112.945C130.151 111.622 131.52 109.732 133.216 107.462C136.606 102.924 141.306 96.8643 146.536 90.7853C146.734 90.555 147.082 90.529 147.312 90.7271ZM127.877 115.792C127.627 115.62 127.565 115.277 127.737 115.027L128.19 115.339L128.643 115.651C128.47 115.901 128.127 115.965 127.877 115.792Z" fill="#0B1411"/>
<path fill-rule="evenodd" clip-rule="evenodd" d="M164.47 83.0063C164.523 82.7071 164.809 82.5078 165.108 82.5611L165.011 83.1028C165.108 82.5611 165.108 82.5611 165.108 82.5611L165.11 82.5615L165.115 82.5624L165.132 82.5656C165.147 82.5683 165.169 82.5724 165.197 82.5779C165.255 82.5889 165.339 82.6054 165.449 82.6281C165.669 82.6735 165.994 82.7435 166.416 82.8428C167.259 83.0414 168.492 83.3573 170.055 83.828C173.181 84.7695 177.632 86.3305 182.949 88.8117C183.225 88.9402 183.344 89.2676 183.215 89.5429C183.087 89.8183 182.759 89.9374 182.484 89.8089C177.22 87.3523 172.819 85.8095 169.737 84.8817C168.197 84.4178 166.987 84.1077 166.164 83.9139C165.752 83.817 165.438 83.7492 165.227 83.7059C165.122 83.6842 165.043 83.6687 164.99 83.6586C164.964 83.6536 164.945 83.6499 164.932 83.6476L164.918 83.6451L164.915 83.6445C164.616 83.5912 164.416 83.3054 164.47 83.0063Z" fill="#0B1411"/>
<path fill-rule="evenodd" clip-rule="evenodd" d="M167.017 81.1832L167.018 81.1832L167.022 81.1829L167.042 81.1819C167.061 81.181 167.088 81.1798 167.125 81.1782C167.199 81.1751 167.309 81.171 167.453 81.1671C167.743 81.1592 168.168 81.1522 168.71 81.1554C169.794 81.162 171.341 81.2099 173.189 81.3759C176.887 81.7081 181.769 82.5117 186.536 84.3906C186.818 84.502 187.138 84.3632 187.249 84.0805C187.361 83.7978 187.222 83.4782 186.939 83.3668C182.042 81.4366 177.048 80.6177 173.287 80.2799C171.405 80.1108 169.826 80.0617 168.717 80.055C168.162 80.0517 167.724 80.0589 167.424 80.0671C167.273 80.0711 167.158 80.0754 167.079 80.0788C167.039 80.0804 167.009 80.0818 166.989 80.0828L166.965 80.084L166.958 80.0844L166.956 80.0845C166.956 80.0845 166.956 80.0845 166.986 80.6339L166.956 80.0845C166.652 80.1015 166.42 80.3612 166.437 80.6646C166.454 80.968 166.714 81.2001 167.017 81.1832Z" fill="#0B1411"/>
<path fill-rule="evenodd" clip-rule="evenodd" d="M164.251 79.2566L164.252 79.2563L164.257 79.2548L164.278 79.2487C164.297 79.2432 164.326 79.2349 164.364 79.2241C164.44 79.2025 164.554 79.1707 164.702 79.1307C164.999 79.0508 165.434 78.9381 165.982 78.8084C167.079 78.5488 168.629 78.2214 170.436 77.9508C174.061 77.4078 178.674 77.1012 182.739 77.9968C183.036 78.0622 183.33 77.8747 183.395 77.5779C183.46 77.2812 183.273 76.9876 182.976 76.9222C178.717 75.9838 173.949 76.312 170.273 76.8625C168.43 77.1385 166.849 77.4724 165.729 77.7375C165.169 77.8701 164.723 77.9856 164.416 78.0682C164.263 78.1095 164.144 78.1426 164.063 78.1655C164.023 78.177 163.992 78.1859 163.971 78.192L163.947 78.1991L163.94 78.201L163.938 78.2016C163.938 78.2016 163.938 78.2018 164.094 78.7291L163.938 78.2018C163.646 78.2884 163.48 78.5947 163.567 78.886C163.653 79.1773 163.96 79.3432 164.251 79.2566Z" fill="#0B1411"/>
<path d="M156.547 86.2063C157.323 86.7001 161.484 90.7208 164.165 86.559C164.165 86.559 166.493 91.2146 165.858 95.3059C165.858 95.3059 162.684 92.2727 158.874 93.4718C155.065 94.7415 154.289 99.5382 154.289 99.5382C151.327 97.2104 149.775 93.2602 149.775 93.2602C149.775 93.2602 155.982 91.92 156.476 86.1357C156.406 86.1357 156.476 86.2063 156.547 86.2063Z" fill="#0A1311"/>
<path d="M158.875 93.4719C162.684 92.2021 165.858 95.3059 165.858 95.3059C165.505 97.4221 164.447 99.3972 161.837 100.526C158.734 101.866 156.194 101.02 154.29 99.5383C154.219 99.5383 155.066 94.7416 158.875 93.4719Z" fill="#CB542F"/>
<path fill-rule="evenodd" clip-rule="evenodd" d="M153.929 80.1996C154.208 80.0784 154.532 80.2061 154.653 80.4848L157.475 86.9744C157.596 87.2531 157.468 87.5772 157.189 87.6984C156.911 87.8195 156.587 87.6918 156.465 87.4132L153.644 80.9235C153.523 80.6449 153.65 80.3207 153.929 80.1996Z" fill="#0B1411"/>
<path d="M150.128 70.0528C153.725 68.7126 157.605 69.7001 158.663 72.3101C159.721 74.9201 154.149 80.7043 154.149 80.7043C154.149 80.7043 146.601 79.7873 145.543 77.1773C144.485 74.5674 146.46 71.3931 150.128 70.0528Z" fill="#CB542F"/>
<path fill-rule="evenodd" clip-rule="evenodd" d="M213.119 190.393C219.538 191.451 228.144 186.655 229.907 180.306C230.048 179.742 230.119 179.177 229.907 178.613C229.696 178.119 229.131 177.696 228.567 177.767C229.202 176.708 229.907 175.368 229.343 174.31C229.131 173.887 228.708 173.605 228.214 173.393C226.945 172.829 225.252 172.899 224.053 173.675C224.335 172.688 223.77 171.7 222.924 171.206C222.077 170.713 220.949 170.642 219.961 170.783C214.6 171.559 205.43 178.543 206.065 184.256C206.347 187.572 209.733 189.829 213.119 190.393Z" fill="#E2DBE8"/>
<path d="M156.335 158.65C156.335 158.65 145.825 166.198 153.231 177.132C162.542 190.957 185.679 182.704 196.825 176.638C199.646 180.165 203.173 183.057 207.123 185.314C211.779 184.468 215.941 181.011 217.704 176.638C214.742 172.476 211.497 168.385 207.688 165.069C201.127 159.285 192.239 155.335 183.493 154.912C174.675 154.277 164.306 154.63 156.335 158.65Z" fill="#8B6FA3"/>
<path d="M140.816 162.53C139.687 162.177 138.559 161.966 137.43 161.895C136.372 161.825 135.243 161.825 134.467 162.601C134.115 162.953 133.903 163.376 133.692 163.8C131.787 167.891 131.999 173.534 133.127 177.837C133.409 178.825 133.762 179.812 134.397 180.659C135.032 181.435 136.09 181.999 137.077 181.928C138.136 181.858 139.053 180.941 138.982 179.883C139.476 181.152 140.887 181.999 142.227 181.858C143.567 181.717 144.766 180.518 144.978 179.177C146.177 179.53 147.87 179.671 148.364 178.472C148.575 178.049 148.505 177.555 148.434 177.132C148.152 175.086 147.658 173.111 146.882 171.206C147.799 170.571 147.799 169.231 147.517 168.173C147.165 166.833 146.812 165.845 145.613 165.069C144.272 163.87 142.58 163.094 140.816 162.53Z" fill="#E2DBE8"/>
<path d="M131.999 125.497C132.422 125.144 132.845 124.791 133.269 124.439C135.737 122.675 138.912 121.123 142.015 121.829C145.895 122.675 147.588 126.837 146.6 130.505C145.26 135.513 142.298 140.733 140.252 145.6C139.688 146.941 139.194 148.21 138.982 149.621C138.559 153.289 140.816 156.746 141.451 160.343C141.663 161.542 141.663 162.883 141.028 163.941C140.534 164.787 139.758 165.351 138.912 165.845C136.796 167.115 134.468 167.961 132.069 168.244C129.177 164.858 127.908 161.754 126.497 157.522C124.381 151.103 123.322 144.19 124.804 137.629C125.932 133.115 128.401 128.671 131.999 125.497Z" fill="#8B6FA3"/>
</svg>
