<svg width="400" height="280" viewBox="0 0 400 280" fill="none" xmlns="http://www.w3.org/2000/svg">
<path fill-rule="evenodd" clip-rule="evenodd" d="M86.6968 21.4075C121.931 -1.88081 164.754 26.3131 206.635 31.5883C251.143 37.1944 303.405 18.5816 332.838 52.411C366.314 90.8867 372.215 150.677 350.394 196.821C329.749 240.478 278.382 254.52 231.601 266.492C188.576 277.502 143.065 282.705 105.189 259.573C64.9926 235.024 37.5531 192.728 33.906 145.755C30.2402 98.5421 47.1685 47.534 86.6968 21.4075Z" fill="#D0ECB3"/>
<path d="M298.175 222.128L259.034 200.136L125.2 199.127L85.1172 219.975L298.175 222.128Z" fill="#6973BD"/>
<path d="M87.6719 222.8C88.9497 224.414 104.418 243.581 91.3708 272.567H290.44C290.44 272.567 309.54 270.146 306.917 247.953C304.295 225.759 283.312 224.818 283.312 224.818L87.6719 222.8Z" fill="#EDEDF7"/>
<path d="M89.3535 225.154C89.3535 225.154 283.984 220.446 298.175 233.023C312.365 245.599 298.175 262.749 298.175 262.749C304.497 234.973 281.294 236.587 281.294 236.587L93.9267 234.502C92.4472 230.265 90.6313 227.104 89.3535 225.154Z" fill="#D0D2EA"/>
<path d="M80.4766 224.75C80.4766 222.195 82.5614 220.043 85.117 220.043L290.441 220.312C290.441 220.312 311.828 220.917 313.711 245.868C315.661 270.752 297.167 277.275 290.441 278.822C284.456 280.167 109.933 279.091 85.1843 278.889C82.5614 278.889 80.4766 276.737 80.4766 274.114V273.307C80.4766 270.684 82.6287 268.532 85.2515 268.532H281.295C281.295 268.532 299.52 267.12 299.184 248.424C299.184 248.424 299.924 229.256 281.295 229.929C264.885 230.467 108.252 228.987 85.3188 229.525C82.6287 229.525 80.4766 227.373 80.4766 224.75Z" fill="#828FC4"/>
<path d="M96.2148 244.456H265.088" stroke="#D0D2EA" stroke-width="5.3817" stroke-miterlimit="10" stroke-linecap="round" stroke-linejoin="round"/>
<path d="M95.9453 257.234H226.551" stroke="#D0D2EA" stroke-width="5.3817" stroke-miterlimit="10" stroke-linecap="round" stroke-linejoin="round"/>
<path d="M177.388 127.704C177.388 127.704 145.577 145.391 135.96 147.409C126.342 149.427 113.833 145.19 113.833 145.19L102.871 153.395C102.871 153.395 112.152 166.711 126.006 170.679C140.197 174.714 151.899 173.1 165.618 161.734C179.338 150.368 195.748 127.233 177.388 127.704Z" fill="#E2A659"/>
<path d="M340.073 62.5355C342.427 63.2081 344.983 64.4859 346.462 66.638C347.942 68.7228 348.278 71.4802 346.799 75.1119C344.848 80.0214 341.486 83.384 337.787 86.2087C334.088 89.0333 330.053 91.2527 326.219 93.5393C325.748 93.8083 325.278 94.1446 324.807 94.4136C324.336 94.7498 323.865 95.0188 323.395 95.2879C322.924 95.5569 322.453 95.8931 322.049 96.1622C321.579 96.4984 321.108 96.7002 320.704 97.0364C318.956 98.1798 317.342 99.5248 315.728 100.803C314.988 101.475 314.181 102.08 313.508 102.82C313.172 103.156 312.836 103.493 312.499 103.829C312.163 104.165 311.894 104.502 311.558 104.838C310.347 106.183 309.271 107.393 308.532 108.604C308.532 108.604 308.195 109.075 307.792 110.016C307.321 110.958 306.716 112.303 306.043 114.119C305.438 115.935 304.833 118.288 304.362 121.046C303.891 123.87 303.622 127.166 303.555 130.798C303.488 134.093 303.757 137.926 304.093 142.298C304.429 146.669 304.9 151.444 304.967 156.623C305.034 159.178 304.9 161.869 304.698 164.559C304.564 165.904 304.429 167.249 304.227 168.594C304.093 169.266 304.026 169.939 303.891 170.611C303.757 171.284 303.622 171.957 303.42 172.629C302.21 178.009 300.058 183.053 297.502 187.156C297.233 187.627 296.897 188.165 296.56 188.703C296.157 189.241 295.753 189.846 295.283 190.451C294.812 191.056 294.408 191.729 293.803 192.334C293.265 192.94 292.66 193.612 292.055 194.285C289.566 196.908 286.405 199.732 282.706 202.153C279.007 204.574 274.703 206.592 270.264 208.072C265.826 209.551 261.051 210.56 256.478 211.031C251.904 211.501 247.331 211.569 243.094 211.367C238.857 211.098 234.889 210.56 231.258 209.955C223.994 208.677 218.278 206.928 214.848 205.852C212.427 205.112 209.602 203.835 207.383 202.086C206.239 201.212 205.298 200.203 204.625 199.06C203.953 197.916 203.482 196.706 203.415 195.495C203.28 193.209 204.76 190.115 206.71 187.492C208.728 184.869 211.216 182.852 213.503 182.65C215.05 182.583 216.529 183.121 217.941 183.726C222.784 185.609 229.778 187.761 237.848 188.635C245.852 189.644 254.931 189.308 262.598 186.483L264.01 185.945C264.481 185.743 264.951 185.542 265.355 185.34C266.297 184.936 267.104 184.466 267.978 183.995C268.381 183.726 268.785 183.457 269.188 183.255C269.592 182.986 269.995 182.717 270.332 182.448L271.475 181.641C271.811 181.372 272.148 181.036 272.484 180.767L273.022 180.296C273.156 180.161 273.358 179.96 273.493 179.825C273.829 179.489 274.098 179.22 274.434 178.884C274.703 178.547 274.972 178.211 275.241 177.875L275.645 177.404C275.779 177.27 275.914 177.068 275.981 176.866C276.25 176.53 276.452 176.194 276.721 175.857C276.923 175.521 277.124 175.117 277.326 174.781C277.797 174.109 278.066 173.302 278.402 172.629C281.025 166.778 280.958 160.12 280.689 155.009C280.487 151.31 280.016 147.476 279.613 143.374C279.142 139.271 278.738 134.9 278.671 130.192C278.604 125.754 278.806 121.248 279.411 116.54C280.016 111.832 281.092 107.057 282.774 102.282C284.522 97.5745 286.876 92.934 289.768 88.7643C290.508 87.7555 291.247 86.6794 292.055 85.6706C292.862 84.6618 293.669 83.7203 294.543 82.7788L297.166 80.0214C298.107 79.1471 299.049 78.2728 299.99 77.3985C303.891 74.0358 308.195 71.1439 312.836 68.7901C317.409 66.4362 322.251 64.6876 327.228 63.4098C333.012 61.7957 337.316 61.7285 340.073 62.5355Z" fill="#DB9A46"/>
<path d="M340.073 62.5355C337.249 61.7285 333.012 61.863 327.43 63.2753C326.421 63.5443 325.412 63.8133 324.403 64.0823L321.444 65.0239C319.494 65.7637 317.543 66.5035 315.66 67.3777C311.827 69.1263 308.195 71.2112 304.765 73.6323C301.403 76.1207 298.175 78.8108 295.35 81.9044C294.61 82.6442 293.938 83.4513 293.332 84.2583C292.66 85.0654 291.987 85.8051 291.382 86.6794C290.104 88.2935 288.961 90.0421 287.885 91.8579C288.154 91.7907 288.557 91.6562 289.028 91.3871C292.862 89.0333 296.628 86.8812 300.461 84.8636C304.295 82.846 308.128 80.9629 312.029 79.2816C311.423 79.7523 310.885 80.2904 310.415 80.8284C309.877 81.3664 309.339 81.9044 308.868 82.4425L307.388 84.1238L306.648 84.9981L305.976 85.8724L304.698 87.621C304.295 88.2263 303.958 88.8315 303.555 89.4368C302.815 90.6474 302.142 91.9252 301.537 93.1357C301.134 93.8755 300.932 95.0188 301.604 95.2878C301.941 95.4223 302.344 95.3551 302.68 95.2206C305.505 94.4135 308.061 93.0012 310.28 91.2526C309.944 91.9252 309.406 92.4632 308.935 93.0012C308.464 93.6065 307.993 94.1445 307.59 94.7498C307.186 95.3551 306.917 96.0949 306.783 96.8347C306.716 97.5745 306.85 98.247 307.254 98.785C307.724 99.3903 308.397 99.7266 309.07 99.9956C310.28 100.466 311.491 100.668 312.567 100.735C313.71 100.803 314.853 100.803 315.929 100.601C318.216 98.6505 320.839 96.9019 323.596 95.1533C326.354 93.4048 329.246 91.7234 332.205 89.9748C335.097 88.159 337.988 86.2759 340.544 83.922C341.822 82.7787 343.032 81.4337 344.108 79.9541C345.185 78.5418 346.126 76.8605 346.799 75.0446C348.278 71.4129 347.942 68.6556 346.462 66.5707C345.05 64.4859 342.494 63.208 340.073 62.5355Z" fill="#EBD9CD"/>
<path d="M166.963 248.894C166.963 248.894 152.638 259.386 155.126 266.178C157.615 272.971 160.91 270.214 160.91 270.214C160.91 270.214 161.717 277.275 166.963 275.997C172.276 274.719 172.276 274.719 172.276 274.719C172.276 274.719 170.998 277.813 177.791 276.132C184.583 274.45 186.13 265.708 187.542 258.377C189.022 251.114 177.32 244.456 166.963 248.894Z" fill="#E6CFC0"/>
<path d="M141.608 241.429C141.608 241.429 148.131 247.213 142.617 255.619C137.102 264.093 131.251 269.474 126.745 265.976L125.736 263.824C125.736 263.824 123.718 267.12 119.078 265.102C115.917 263.69 117.598 260.663 117.598 260.663C117.598 260.663 109.932 261.605 110.873 256.09C112.218 247.952 132.058 235.376 141.608 241.429Z" fill="#E6CFC0"/>
<path d="M166.56 186.281C166.56 186.281 161.583 182.851 160.44 182.784C154.387 182.246 131.924 185.878 121.971 200.674C110.134 218.294 122.845 244.052 122.845 244.052C122.845 244.052 134.278 249.298 143.559 244.052L147.863 225.894C147.863 225.894 172.478 225.894 177.724 212.577C182.97 199.261 166.56 186.281 166.56 186.281Z" fill="#E2A659"/>
<path d="M205.701 115.464C205.701 115.464 209.198 138.532 216.058 154.74C222.918 170.948 228.096 188.299 222.111 208.273C216.125 228.315 185.189 229.794 165.484 214.662C145.778 199.53 185.861 115.8 185.861 115.8L205.701 115.464Z" fill="#CB9035"/>
<path d="M185.592 121.449C185.592 121.449 160.17 145.862 151.024 175.319C141.878 204.776 155.799 225.557 187.072 221.051C205.701 218.361 201.128 185.205 198.908 164.962C195.68 135.505 196.42 116.069 196.42 116.069L185.592 121.449Z" fill="#E6CFC0"/>
<path d="M206.442 135.842C206.442 135.842 211.284 133.42 215.924 139.002C222.784 147.207 224.398 151.108 232.738 169.872C237.311 180.161 248.071 197.916 248.071 197.916L234.352 207.13C234.352 207.13 216.53 196.168 208.997 178.077C201.465 159.985 196.152 138.599 206.442 135.842Z" fill="#E2A659"/>
<path d="M234.687 201.481C234.687 201.481 237.983 195.899 248.004 197.311C248.004 197.311 261.32 197.177 265.355 202.96C269.39 208.744 267.104 215.066 261.589 214.528C261.589 214.528 256.141 220.85 251.03 216.814C251.03 216.814 246.188 221.791 240.942 218.16C235.696 214.528 229.442 207.399 234.687 201.481Z" fill="#EBD9CD"/>
<path d="M208.796 194.217C208.796 194.217 189.36 188.904 174.564 200.203C159.768 211.501 165.485 250.508 165.485 250.508C165.485 250.508 169.52 260.865 185.661 253.804L196.152 237.663C196.152 237.663 219.153 232.283 221.843 216.276C224.466 200.337 208.796 194.217 208.796 194.217Z" fill="#E2A659"/>
<path d="M135.488 58.2985C135.488 58.2985 135.623 2.61285 148.603 2.00757C158.287 1.5368 176.849 23.1251 180.144 35.2307C180.077 35.1634 148.872 51.6405 135.488 58.2985Z" fill="#BB7942"/>
<path d="M171.133 32.137C171.133 32.137 157.414 33.8855 143.021 44.108C143.021 44.108 142.685 13.6423 151.159 10.5487C155.934 8.80008 168.847 24.4028 171.133 32.137Z" fill="#EBD9CD"/>
<path d="M278.133 84.1911C278.133 84.1911 297.502 32.0026 285.666 26.8914C276.721 22.9907 251.77 36.7103 244.439 46.8656C244.439 46.8656 267.911 73.2288 278.133 84.1911Z" fill="#BB7942"/>
<path d="M253.855 47.8744C253.855 47.8744 264.683 56.281 274.569 70.875C274.569 70.875 287.146 39.804 280.286 33.953C276.318 30.6576 258.698 41.4853 253.855 47.8744Z" fill="#EBD9CD"/>
<path fill-rule="evenodd" clip-rule="evenodd" d="M213.773 33.8187C260.379 42.2926 281.901 69.3957 278.134 84.1914C278.134 84.1914 269.122 107.595 257.488 118.356C241.347 133.353 221.036 139.474 191.714 133.286C164.476 127.57 147.999 114.119 139.525 95.7589C132.329 80.0889 135.423 58.2989 135.423 58.2989C136.835 38.5937 167.166 25.3448 213.773 33.8187Z" fill="#EBD9CD"/>
<path d="M145.442 50.43C166.425 36.1051 185.928 56.4828 185.928 56.4828C185.928 56.4828 183.843 43.1667 187.61 31.2629C156.068 30.9939 136.564 42.6287 135.488 58.2987C135.488 58.2987 133.605 71.6821 136.228 84.9982L138.985 86.007C138.985 86.007 129.301 61.3923 145.442 50.43Z" fill="#E2A659"/>
<path d="M213.772 33.8181C213.503 33.7508 213.234 33.7508 212.898 33.6836C208.459 43.9061 205.5 60.0469 205.5 60.0469C205.5 60.0469 230.922 47.8068 245.516 68.588C256.747 84.527 239.059 104.232 239.059 104.232C239.059 104.232 254.46 105.981 267.507 105.51C273.964 95.0858 278.134 84.1908 278.134 84.1908C281.9 69.3951 260.379 42.292 213.772 33.8181Z" fill="#E2A659"/>
<path d="M228.904 82.4425C228.837 84.3256 227.29 85.8051 225.407 85.8051C223.524 85.7379 222.044 84.1911 222.112 82.308C222.179 80.4249 223.726 78.9453 225.609 78.9453C227.492 78.9453 228.971 80.5594 228.904 82.4425Z" fill="white"/>
<path d="M243.634 83.384C243.903 72.8925 235.631 64.0823 225.14 63.8133C214.648 63.5443 205.838 71.8164 205.569 82.3079C205.3 92.7994 213.572 101.61 224.064 101.879C234.555 102.148 243.298 93.8755 243.634 83.384Z" fill="#7EAA00"/>
<path d="M179.675 71.7492C179.944 61.2577 171.672 52.4475 161.181 52.1785C150.689 51.9095 141.879 60.1816 141.61 70.6731C141.341 81.1646 149.613 89.9748 160.105 90.2438C170.596 90.5801 179.339 82.308 179.675 71.7492Z" fill="#7EAA00"/>
<path d="M219.691 72.0854C226.215 72.2871 231.326 77.6674 231.124 84.1237C230.923 90.58 225.542 95.6912 219.086 95.5567C212.63 95.355 207.518 89.9747 207.653 83.5184C207.855 77.0621 213.235 71.9509 219.691 72.0854Z" fill="#0B1411"/>
<path d="M214.848 92.7324C216.732 92.7996 218.346 91.3201 218.346 89.3697C218.413 87.4866 216.933 85.8726 215.05 85.8726C213.167 85.8053 211.553 87.2849 211.553 89.2352C211.419 91.1183 212.965 92.6651 214.848 92.7324Z" fill="white"/>
<path d="M153.85 73.7669C154.052 67.3106 159.432 62.1994 165.889 62.3339C172.345 62.5357 177.456 67.9159 177.322 74.3722C177.12 80.8285 171.74 85.9398 165.283 85.8053C158.76 85.6708 153.716 80.2905 153.85 73.7669Z" fill="#0B1411"/>
<path d="M160.24 74.3049C158.357 74.2377 156.742 75.7173 156.742 77.6676C156.675 79.5507 158.155 81.1648 160.038 81.1648C161.921 81.232 163.535 79.7524 163.535 77.8021C163.67 75.919 162.123 74.3722 160.24 74.3049Z" fill="white"/>
<path d="M189.427 88.1592C189.427 88.1592 167.3 83.5187 158.087 95.4898C149.949 106.049 161.853 119.768 183.374 123.669C204.895 127.57 216.664 119.566 217.673 107.663C218.413 98.8524 199.246 89.975 189.427 88.1592Z" fill="white"/>
<path d="M187.073 101.139C187.746 102.08 192.924 108.738 200.389 107.124C200.389 107.124 200.389 109.613 195.951 112.572C195.951 112.572 193.866 107.864 187.208 106.25C180.55 104.636 175.237 107.999 175.237 107.999C172.815 104.031 173.421 102.618 173.421 102.618C173.421 102.618 181.357 105.443 187.073 101.072C187.006 101.072 187.073 101.072 187.073 101.139Z" fill="#0A1311"/>
<path d="M187.207 106.25C193.865 107.864 195.95 112.572 195.95 112.572C193.664 114.119 190.301 114.926 185.526 114.051C179.81 112.975 176.783 110.554 175.236 107.998C175.236 107.998 180.549 104.636 187.207 106.25Z" fill="#CB542F"/>
<path fill-rule="evenodd" clip-rule="evenodd" d="M188.473 93.9694C189.015 94.0739 189.37 94.5982 189.266 95.1405L187.853 102.471C187.749 103.013 187.224 103.368 186.682 103.264C186.14 103.159 185.785 102.635 185.889 102.093L187.302 94.7622C187.406 94.2199 187.93 93.8649 188.473 93.9694Z" fill="#0B1411"/>
<path fill-rule="evenodd" clip-rule="evenodd" d="M171.535 92.4806C171.535 92.4806 171.535 92.4807 171.403 93.4719C171.271 94.4631 171.271 94.4631 171.271 94.463L171.187 94.4519L170.937 94.4191C170.718 94.3905 170.394 94.3485 169.978 94.2954C169.146 94.1893 167.944 94.0388 166.468 93.8615C163.515 93.507 159.464 93.0455 155.073 92.6177C146.25 91.7581 136.179 91.0485 130.813 91.5752C130.263 91.6291 129.774 91.2273 129.72 90.6777C129.666 90.128 130.068 89.6387 130.617 89.5847C136.214 89.0354 146.487 89.7717 155.267 90.6271C159.677 91.0568 163.743 91.52 166.706 91.8758C168.188 92.0537 169.395 92.2048 170.231 92.3115C170.649 92.3648 170.975 92.4071 171.196 92.436L171.448 92.4691L171.535 92.4806ZM172.394 93.6042C172.321 94.1516 171.818 94.5361 171.271 94.463L171.403 93.4719L171.535 92.4806C172.082 92.5537 172.467 93.0567 172.394 93.6042Z" fill="#0B1411"/>
<path fill-rule="evenodd" clip-rule="evenodd" d="M167.09 94.8947C167.091 94.8947 167.091 94.8947 167.031 95.8929L167.09 94.8947C167.641 94.9277 168.062 95.4014 168.029 95.9527C167.996 96.504 167.523 96.9241 166.971 96.8911C166.971 96.8911 166.971 96.8911 166.971 96.8911L166.969 96.891L166.958 96.8903L166.912 96.8878C166.871 96.8856 166.808 96.8823 166.725 96.8783C166.56 96.8703 166.312 96.8593 165.988 96.8477C165.341 96.8245 164.389 96.7988 163.179 96.7889C160.758 96.769 157.306 96.8128 153.188 97.0675C144.946 97.5775 134.072 98.9308 123.485 102.294C122.958 102.461 122.396 102.17 122.229 101.643C122.062 101.117 122.353 100.555 122.879 100.387C133.678 96.9575 144.729 95.5871 153.065 95.0714C157.236 94.8133 160.736 94.7688 163.195 94.7889C164.425 94.799 165.395 94.8252 166.06 94.849C166.392 94.8609 166.648 94.8722 166.822 94.8806C166.909 94.8848 166.975 94.8883 167.02 94.8907L167.072 94.8936L167.085 94.8944L167.09 94.8947Z" fill="#0B1411"/>
<path fill-rule="evenodd" clip-rule="evenodd" d="M172.196 98.8969C172.246 99.447 171.84 99.933 171.29 99.9824C160.147 100.983 150.586 103.386 143.812 105.538C140.425 106.614 137.738 107.627 135.901 108.369C134.983 108.74 134.277 109.043 133.803 109.252C133.566 109.357 133.387 109.438 133.268 109.493C133.209 109.52 133.164 109.541 133.135 109.554L133.103 109.569L133.096 109.573L133.095 109.573L133.095 109.573L133.095 109.574C132.596 109.811 131.999 109.6 131.762 109.101C131.524 108.603 131.735 108.006 132.234 107.768L132.664 108.671C132.234 107.768 132.234 107.768 132.234 107.768L132.235 107.768L132.238 107.766L132.249 107.761L132.287 107.743C132.32 107.728 132.369 107.705 132.433 107.676C132.56 107.617 132.748 107.532 132.995 107.423C133.487 107.205 134.213 106.894 135.152 106.514C137.031 105.755 139.766 104.725 143.206 103.632C150.084 101.447 159.791 99.0072 171.111 97.9904C171.661 97.941 172.147 98.3469 172.196 98.8969Z" fill="#0B1411"/>
<path fill-rule="evenodd" clip-rule="evenodd" d="M205.467 99.5699C205.591 99.0316 206.127 98.6956 206.666 98.8193L206.442 99.7939L206.218 100.769C205.679 100.645 205.343 100.108 205.467 99.5699ZM206.442 99.7939C206.218 100.769 206.217 100.768 206.218 100.769L206.3 100.788L206.546 100.845C206.761 100.895 207.079 100.969 207.488 101.066C208.305 101.259 209.484 101.54 210.929 101.893C213.82 102.599 217.776 103.591 222.037 104.736C230.6 107.037 240.266 109.922 245.069 112.323C245.563 112.57 246.163 112.37 246.41 111.876C246.657 111.382 246.457 110.781 245.963 110.534C240.947 108.026 231.075 105.094 222.556 102.805C218.276 101.654 214.305 100.658 211.403 99.95C209.953 99.5957 208.769 99.3133 207.948 99.1193C207.537 99.0223 207.217 98.9474 206.999 98.8967L206.751 98.8391L206.666 98.8193C206.665 98.8193 206.666 98.8193 206.442 99.7939Z" fill="#0B1411"/>
<path fill-rule="evenodd" clip-rule="evenodd" d="M208.713 103.402C208.875 102.874 209.434 102.577 209.962 102.738L209.669 103.695C209.962 102.738 209.962 102.738 209.962 102.738L209.967 102.74L209.98 102.744L210.03 102.759C210.073 102.773 210.136 102.793 210.219 102.819C210.385 102.872 210.629 102.951 210.944 103.056C211.575 103.266 212.494 103.581 213.649 104.002C215.961 104.844 219.224 106.112 223.04 107.817C230.666 111.224 240.532 116.392 249.43 123.422C249.864 123.765 249.937 124.393 249.595 124.827C249.253 125.26 248.624 125.334 248.19 124.991C239.468 118.1 229.764 113.012 222.224 109.643C218.458 107.96 215.239 106.71 212.965 105.882C211.828 105.467 210.927 105.158 210.312 104.954C210.005 104.851 209.769 104.775 209.611 104.725C209.532 104.699 209.472 104.681 209.433 104.668L209.389 104.655L209.379 104.652L209.377 104.651" fill="#0B1411"/>
<path fill-rule="evenodd" clip-rule="evenodd" d="M203.725 104.672C203.965 104.174 204.563 103.966 205.06 104.207C215.295 109.154 223.527 114.846 229.202 119.301C232.04 121.529 234.24 123.45 235.734 124.816C236.481 125.499 237.052 126.044 237.437 126.42C237.63 126.608 237.776 126.753 237.875 126.852C237.924 126.902 237.962 126.94 237.988 126.966L238.017 126.997L238.025 127.005L238.028 127.008C238.028 127.008 238.029 127.008 237.31 127.704L238.028 127.008C238.412 127.405 238.403 128.038 238.006 128.422C237.609 128.807 236.976 128.796 236.592 128.4L236.591 128.399L236.585 128.393L236.561 128.368C236.538 128.345 236.504 128.31 236.458 128.264C236.366 128.171 236.226 128.033 236.041 127.852C235.67 127.49 235.115 126.96 234.384 126.292C232.923 124.956 230.761 123.068 227.967 120.874C222.376 116.485 214.266 110.878 204.19 106.007C203.693 105.767 203.485 105.169 203.725 104.672Z" fill="#0B1411"/>
<path d="M191.511 83.384C198.035 84.7963 202.81 88.2935 202.137 91.1854C201.532 94.0773 188.283 94.9515 188.283 94.9515C188.283 94.9515 177.926 88.8988 178.531 86.0069C179.204 83.1822 184.988 81.9717 191.511 83.384Z" fill="#CB542F"/>
<path d="M54.1793 99.0539L69.1767 142.701C69.7148 144.652 71.5306 145.929 73.5482 145.728L127.149 143.777C133 143.508 135.287 137.926 134.547 135.371L120.962 90.2437C120.424 88.3606 118.541 87.0828 116.59 87.2846L60.5011 92.8666C57.9454 93.1356 52.767 95.086 54.1793 99.0539Z" fill="#6973BD"/>
<path d="M53.1707 101.206L65.4108 145.795C65.9488 147.745 67.7646 149.023 69.7822 148.821L127.149 143.777C129.772 143.575 131.521 140.953 130.781 138.464L117.263 93.3372C116.725 91.4542 114.842 90.1763 112.892 90.3781L56.8024 95.9601C54.1795 96.2291 52.4309 98.7175 53.1707 101.206Z" fill="#828FC4"/>
<path d="M117.399 146.4C117.399 146.4 111.279 161.666 101.729 158.169C92.1786 154.672 86.0586 145.929 86.0586 137.321C86.0586 128.78 93.1202 133.017 93.1202 133.017C93.1202 133.017 94.5998 125.484 99.173 127.704C103.746 129.99 104.217 132.008 104.217 132.008C104.217 132.008 104.486 126.224 109.53 130.528C114.507 134.832 117.399 146.4 117.399 146.4Z" fill="#E6CFC0"/>
</svg>
