<svg width="400" height="281" viewBox="0 0 400 281" fill="none" xmlns="http://www.w3.org/2000/svg">
<path fill-rule="evenodd" clip-rule="evenodd" d="M86.6968 21.4075C121.931 -1.88081 164.754 26.3131 206.635 31.5883C251.143 37.1944 303.405 18.5816 332.838 52.411C366.314 90.8867 372.215 150.677 350.394 196.821C329.749 240.478 278.382 254.52 231.601 266.492C188.576 277.502 143.065 282.705 105.189 259.573C64.9926 235.024 37.5531 192.728 33.906 145.755C30.2402 98.5421 47.1685 47.534 86.6968 21.4075Z" fill="#D0ECB3"/>
<path d="M95.5273 232.152L135.312 226.015L156.121 258.534L136.722 277.368L95.5273 232.152Z" fill="#CB542F"/>
<path d="M95.6016 211.907C95.6016 211.907 101.597 220.725 97.5767 232.082L136.232 269.82L154.925 259.239L95.6016 211.907Z" fill="#EDEDF7"/>
<path d="M98.6347 220.16L126.568 248.94C126.568 248.94 134.187 255.994 135.315 268.833C135.315 268.833 146.178 256.911 133.904 242.451C121.56 228.061 95.6016 211.907 95.6016 211.907L98.6347 220.16Z" fill="#D0D2EA"/>
<path fill-rule="evenodd" clip-rule="evenodd" d="M98.0218 228.314C98.2715 228.054 98.6848 228.045 98.9448 228.295L118.414 246.988C118.674 247.238 118.682 247.651 118.432 247.911C118.183 248.171 117.769 248.18 117.509 247.93L98.0405 229.237C97.7805 228.987 97.7721 228.574 98.0218 228.314Z" fill="#D0D2EA"/>
<path fill-rule="evenodd" clip-rule="evenodd" d="M98.5167 223.938C98.7679 223.679 99.1812 223.673 99.4398 223.925L109.386 233.588C109.644 233.84 109.65 234.253 109.399 234.512C109.148 234.77 108.735 234.776 108.476 234.525L98.5299 224.861C98.2713 224.61 98.2654 224.196 98.5167 223.938Z" fill="#D0D2EA"/>
<path d="M94.4023 206.758H203.033L264.685 246.683L251.635 257.828L134.046 250.21L94.4023 206.758Z" fill="#CB542F"/>
<path d="M136.654 280.189L93.9774 235.256C93.6247 236.314 93.4131 235.82 93.4131 235.256V232.999C93.4131 231.87 94.8239 231.376 95.5293 232.152L133.903 270.949C133.903 270.949 136.724 264.248 130.728 250.492L93.131 211.766C92.7077 211.343 92.4961 210.779 92.4961 210.214V207.463C92.4961 206.476 93.6953 206.053 94.3301 206.687L133.832 246.683L145.33 256.629V280.119H136.654V280.189Z" fill="#8E381E"/>
<path d="M133.902 246.683C133.902 246.683 143.848 258.816 136.653 280.119H262.496C262.496 280.119 276.463 264.106 264.753 246.683H133.902Z" fill="#AF381E"/>
<path d="M168.535 205.488L207.543 200.621L227.929 226.297L206.344 242.662L168.535 205.488Z" fill="#E3AE4B"/>
<path d="M168.535 189.476C168.535 189.476 174.46 196.459 170.51 205.418L208.46 238.571L226.801 226.862L168.535 189.476Z" fill="#EDEDF7"/>
<path d="M171.568 195.965L199.008 218.679C199.008 218.679 206.485 227.567 207.614 237.725C207.614 237.725 218.336 224.957 206.203 213.6C194.07 202.243 168.535 189.476 168.535 189.476L171.568 195.965Z" fill="#D0D2EA"/>
<path fill-rule="evenodd" clip-rule="evenodd" d="M170.989 202.44C171.192 202.196 171.554 202.163 171.798 202.366L190.844 218.238C191.088 218.441 191.121 218.803 190.918 219.047C190.714 219.291 190.352 219.324 190.108 219.121L171.062 203.249C170.818 203.046 170.785 202.684 170.989 202.44Z" fill="#D0D2EA"/>
<path fill-rule="evenodd" clip-rule="evenodd" d="M171.398 198.999C171.593 198.748 171.954 198.703 172.205 198.897L182.01 206.516C182.261 206.71 182.306 207.071 182.111 207.322C181.916 207.573 181.555 207.618 181.304 207.423L171.5 199.805C171.249 199.61 171.203 199.249 171.398 198.999Z" fill="#D0D2EA"/>
<path d="M167.406 185.385H261.859L330.423 216.986L321.747 233.069L206.344 219.737L167.406 185.385Z" fill="#E3AE4B"/>
<path d="M208.885 246.683L166.985 208.945C166.632 208.662 166.491 208.239 166.491 207.816V206.052C166.491 205.135 167.831 204.783 168.607 205.418L206.275 239.347C206.275 239.347 209.026 230.741 203.172 219.878L166.279 189.264C165.856 188.911 165.645 188.488 165.645 188.065V185.949C165.645 185.173 166.773 184.82 167.479 185.384L206.275 216.986L217.562 225.945V242.31L208.885 246.683Z" fill="#F0D763"/>
<path d="M206.203 216.986C206.203 216.986 215.938 229.895 208.884 246.754H332.398C332.398 246.754 343.684 229.119 330.423 216.986H206.203Z" fill="#D18B4B"/>
<path d="M239.781 180.235L274.346 175.932L292.404 195.824L273.217 213.106L239.781 180.235Z" fill="#609682"/>
<path d="M239.781 163.235C239.781 163.235 245.001 172.194 241.545 180.165L275.192 209.509L291.416 196.318L239.781 163.235Z" fill="#EDEDF7"/>
<path d="M242.391 169.019L266.657 189.123C266.657 189.123 273.287 199.845 274.275 208.804C274.275 208.804 283.727 194.696 273.005 184.609C262.354 174.521 239.781 163.235 239.781 163.235L242.391 169.019Z" fill="#D0D2EA"/>
<path fill-rule="evenodd" clip-rule="evenodd" d="M241.82 176.007C242.052 175.731 242.463 175.694 242.74 175.925L259.599 190.033C259.875 190.265 259.912 190.676 259.68 190.953C259.449 191.229 259.037 191.266 258.761 191.035L241.902 176.927C241.625 176.695 241.589 176.284 241.82 176.007Z" fill="#D0D2EA"/>
<path fill-rule="evenodd" clip-rule="evenodd" d="M242.232 171.581C242.453 171.296 242.863 171.245 243.148 171.467L251.754 178.168C252.038 178.39 252.089 178.8 251.868 179.084C251.646 179.369 251.236 179.42 250.951 179.198L242.346 172.497C242.061 172.276 242.01 171.865 242.232 171.581Z" fill="#D0D2EA"/>
<path d="M238.723 159.637H353.138L394.262 187.571L386.644 201.82L273.216 190.04L238.723 159.637Z" fill="#609682"/>
<path d="M275.475 216.774L238.371 183.339C238.089 183.057 237.877 182.704 237.877 182.351V180.729C237.877 179.953 239.077 179.6 239.712 180.165L273.077 210.214C273.077 210.214 275.546 199.774 270.326 190.111L237.666 163.094C237.313 162.812 237.102 162.459 237.102 162.036V160.131C237.102 159.426 238.089 159.144 238.724 159.567L273.077 187.501L283.093 195.401V212.683L275.475 216.774Z" fill="#427763"/>
<path d="M273.078 187.571C273.078 187.571 281.684 201.82 275.476 216.704H396.028C396.028 216.704 406.045 198.293 394.265 187.571H273.078Z" fill="#428B75"/>
<path d="M8.69588 161.26C8.06103 161.331 7.35563 161.26 6.5797 161.19C5.87431 161.119 5.09837 160.907 4.32243 160.555C2.77057 159.849 1.2187 158.439 0.442766 155.758C-0.121549 153.924 -0.121547 152.09 0.301689 150.185C0.513308 149.268 0.936544 148.351 1.35978 147.505C1.5714 147.082 1.85356 146.588 2.13571 146.165C2.41787 145.741 2.77057 145.318 3.12327 144.895C5.94484 141.509 10.6004 138.688 15.9614 137.065C21.3224 135.443 27.3183 135.019 32.8204 135.584C38.3224 136.148 43.1897 137.629 46.8577 139.04C46.8577 139.04 47.0693 139.111 47.422 139.181C47.7747 139.322 48.2685 139.534 48.9739 139.746C49.6087 140.028 50.4552 140.31 51.3722 140.733C52.2892 141.156 53.3473 141.65 54.476 142.215C56.8038 143.343 59.2726 144.895 61.8826 146.658C64.4926 148.422 67.1025 150.397 69.7125 152.443C70.9822 153.43 72.2519 154.418 73.5921 155.405C74.8619 156.393 76.1316 157.31 77.4013 158.227C80.0112 160.061 82.6917 161.824 85.3017 163.376C87.9822 164.999 90.5921 166.41 93.1316 167.609C94.4013 168.244 95.6005 168.737 96.7996 169.302C97.9988 169.795 99.1274 170.289 100.186 170.642C102.161 171.418 105.617 172.688 109.779 173.675C113.941 174.663 118.808 175.509 123.675 175.509C128.542 175.58 133.41 174.874 137.36 173.887C141.31 172.899 144.414 171.488 146.107 170.571C146.389 170.43 146.742 170.219 147.094 170.078C147.447 169.937 147.8 169.725 148.152 169.584C148.858 169.302 149.704 169.09 150.48 168.878C152.103 168.526 153.725 168.526 155.347 169.302C156.758 170.078 158.451 171.912 159.509 174.028C160.003 175.086 160.356 176.215 160.497 177.343C160.567 178.401 160.426 179.53 159.791 180.376C159.015 181.505 157.746 182.351 156.476 183.057C155.982 183.339 155.418 183.692 154.783 183.974C154.219 184.256 153.584 184.609 152.949 184.891C151.679 185.596 150.269 186.161 148.787 186.795C145.825 187.995 142.439 189.123 138.771 189.97C131.434 191.733 122.97 192.297 114.576 191.451C110.414 191.028 106.322 190.252 102.372 189.264C98.422 188.277 94.754 187.007 91.2975 185.667C87.8411 184.327 84.7374 182.916 81.9863 181.505C80.5756 180.8 79.3058 180.094 78.1067 179.459C76.9075 178.824 75.8494 178.19 74.7913 177.555C71.9697 175.862 69.1482 174.098 66.4677 172.264C63.7166 170.43 61.1067 168.455 58.6378 166.692C53.6295 163.094 48.9034 159.92 44.1067 158.227C34.5133 154.629 23.3681 155.194 14.4801 159.215C13.2809 159.849 12.1523 160.273 11.2353 160.625C10.7415 160.837 10.3183 160.978 9.89505 161.049C9.40127 161.119 9.04858 161.26 8.69588 161.26Z" fill="#735190"/>
<path d="M8.69755 161.26C9.05025 161.26 9.47348 161.119 9.89672 161.049C10.32 160.978 10.7432 160.837 11.237 160.625C12.154 160.202 13.2826 159.779 14.4818 159.215C21.7473 155.97 30.4237 154.912 38.6063 156.605C38.5357 156.393 38.4652 156.252 38.2536 155.97C34.8677 152.372 29.5772 150.045 24.0751 149.903C27.8843 148.634 31.905 147.787 36.1374 147.364C36.7722 147.293 37.6187 147.082 37.5482 146.518C37.5482 146.235 37.266 146.024 37.0544 145.812C35.2909 144.331 32.7515 143.343 30.2121 143.202C30.4942 143.132 30.8469 143.061 31.1996 142.991C31.5523 142.991 31.8345 142.991 32.1872 142.991C32.8926 142.991 33.5274 142.991 34.2328 142.991C35.5731 142.92 37.0544 142.638 37.5482 141.65C37.7598 141.157 37.6892 140.592 37.4776 140.028C37.1249 139.111 36.4901 138.194 35.6436 137.418C34.7971 136.713 33.739 136.078 32.5399 135.513C28.4486 135.161 24.0751 135.231 19.9133 136.078C15.7515 136.924 11.8013 138.335 8.55647 140.31C5.31165 142.356 2.77224 144.754 1.43199 147.505C0.726592 148.845 0.232819 150.186 0.16228 151.596C0.0212009 153.007 0.162279 154.347 0.585515 155.688C1.43199 158.368 2.98386 159.708 4.46518 160.484C5.24112 160.837 6.01705 161.049 6.72244 161.119C7.28676 161.26 8.06269 161.331 8.69755 161.26Z" fill="#E2DBE8"/>
<path d="M145.967 227.356C145.826 227.285 145.755 227.215 145.614 227.144C144.556 226.368 143.569 225.522 142.863 224.393C142.511 223.829 142.299 223.194 142.087 222.629C141.241 219.808 141.594 216.563 143.004 214.024C143.71 212.824 144.768 211.907 146.038 211.273C146.672 210.99 147.307 210.708 148.013 210.567C148.718 210.426 149.282 210.567 149.988 210.426C151.469 210.073 152.95 210.426 154.361 210.849C158.664 212.049 162.896 214.094 165.506 217.762C166.071 218.609 166.565 219.526 166.776 220.513C166.988 221.501 166.776 222.629 166.141 223.405C165.506 224.181 164.378 224.605 163.39 224.181C163.39 224.816 163.249 225.451 163.038 226.086C162.755 226.65 162.332 227.214 161.697 227.426C161.062 227.638 160.357 227.497 159.652 227.285C159.158 227.144 158.523 226.932 158.453 226.439C158.029 228.766 155.984 229.613 153.867 229.754C151.187 229.613 148.365 228.837 145.967 227.356Z" fill="#E2DBE8"/>
<path d="M193.861 116.045C193.861 117.173 194.002 118.302 194.285 119.431C194.496 120.489 194.92 121.547 195.837 122.04C196.26 122.252 196.754 122.393 197.177 122.393C201.691 122.957 206.982 121.123 210.72 118.655C212.061 117.808 213.119 116.327 213.119 114.634C213.119 113.576 212.413 112.518 211.355 112.306C212.413 111.46 212.837 109.908 212.272 108.638C211.708 107.368 210.085 106.733 208.886 107.227C209.098 106.804 209.239 106.31 209.31 105.816C209.38 105.323 209.239 104.829 208.886 104.476C208.675 104.265 208.322 104.123 207.969 104.123C206.276 103.841 204.583 104.688 203.032 105.534C202.326 105.957 201.691 106.381 201.198 107.016C200.845 106.24 200.069 105.675 199.222 105.605C198.305 105.534 197.388 105.957 196.683 106.663C196.048 107.298 195.554 108.215 195.202 109.061C194.355 111.46 193.791 113.646 193.861 116.045Z" fill="#E2DBE8"/>
<path d="M161.273 134.949C160.779 134.667 160.356 134.385 159.862 134.032C157.393 132.269 154.995 129.659 154.712 126.485C154.36 122.534 157.816 119.713 161.625 119.501C166.845 119.29 172.629 120.489 177.92 120.982C179.331 121.124 180.741 121.194 182.152 120.912C185.75 120.207 187.936 117.808 191.181 116.115C192.31 115.551 193.932 114.211 193.932 114.211C194.849 114.422 196.895 115.41 197.671 116.045C199.505 117.667 200.986 119.642 202.044 121.829C199.646 125.568 197.107 127.754 193.509 130.364C188.077 134.314 181.799 137.418 175.098 137.982C170.302 138.406 165.364 137.489 161.273 134.949Z" fill="#8B6FA3"/>
<path d="M156.333 166.692C156.333 166.692 157.321 187.219 155.134 193.638C152.947 199.987 143.848 212.754 143.848 212.754C143.848 212.754 148.997 218.327 157.532 214.447C157.532 214.447 165.926 212.26 175.52 200.692C185.113 189.123 185.466 168.385 185.466 168.385L156.333 166.692Z" fill="#735190"/>
<path d="M126.496 113.575C126.496 113.575 134.255 121.899 136.372 129.588C138.488 137.277 141.168 159.144 148.928 171.841C156.687 184.538 171.712 184.256 182.928 179.741C194.143 175.227 191.675 152.866 181.658 144.401C171.712 135.936 158.239 124.862 153.019 117.596C147.799 110.331 144.977 106.804 144.977 106.804L126.496 113.575Z" fill="#735190"/>
<path d="M150.903 105.323C150.903 105.323 156.758 115.269 166.14 121.758C175.451 128.248 194.567 140.098 192.028 163.447C192.028 163.447 192.028 173.393 181.941 174.804C175.239 175.721 165.505 168.103 160.285 157.381C155.065 146.659 154.148 135.231 150.268 128.248C146.389 121.264 138.488 111.671 138.488 111.671L150.903 105.323Z" fill="#E2DBE8"/>
<path fill-rule="evenodd" clip-rule="evenodd" d="M130.939 46.8453C130.939 46.8453 121.84 7.0611 132.421 2.40549C144.695 -3.02604 163.105 47.9034 163.105 47.9034L130.939 46.8453Z" fill="#735190"/>
<path d="M139.123 9.17721C148.504 12.7747 158.168 42.4718 158.168 42.4718C147.305 34.2187 136.16 30.9739 136.16 30.9739C136.16 30.9739 129.811 5.5797 139.123 9.17721Z" fill="#E29FB2"/>
<path fill-rule="evenodd" clip-rule="evenodd" d="M168.611 49.3142C183.071 64.3391 183.353 103.982 154.432 116.75C118.598 132.551 82.6937 121.688 78.9551 94.5299C72.9592 50.6544 95.0381 39.7913 106.465 34.7125C115.495 30.7623 143.922 23.7083 168.611 49.3142Z" fill="#8B6FA3"/>
<path fill-rule="evenodd" clip-rule="evenodd" d="M88.2644 85.9242C88.2644 85.9242 65.0569 31.6088 76.2727 20.1109C86.2893 9.81214 107.874 41.3433 107.874 41.3433L88.2644 85.9242Z" fill="#8B6FA3"/>
<path d="M102.584 40.5673C102.584 40.5673 92.3561 51.5714 90.522 66.3142C90.522 66.3142 76.5553 38.31 80.2233 28.2934C83.4681 19.5465 95.1071 29.0694 102.584 40.5673Z" fill="#E29FB2"/>
<path d="M148.432 78.0943C148.432 78.0943 146.669 80.4221 144.976 83.6669C143.283 86.9117 140.179 88.8163 138.063 90.7914C135.947 92.837 132.913 97.0694 138.627 101.584C144.059 105.816 154.639 112.094 164.162 106.31C176.507 98.7624 171.992 86.6296 170.581 81.1275C169.171 75.6254 164.938 76.7541 162.399 77.2478C159.859 77.7416 155.274 76.2603 152.947 76.3308C150.548 76.4719 148.432 78.0943 148.432 78.0943Z" fill="#E2DBE8"/>
<path d="M170.088 51.783C165.362 43.0362 158.167 38.7332 154.005 42.2602C149.843 45.7167 150.337 55.6627 155.063 64.4096C159.789 73.1565 166.984 77.4594 171.146 73.9324C175.237 70.476 174.814 60.5299 170.088 51.783Z" fill="white"/>
<path d="M169.452 55.7332C166.489 50.3722 161.622 47.9033 158.588 50.3016C155.555 52.6294 155.555 58.9075 158.518 64.2685C161.481 69.6294 166.348 72.0983 169.381 69.7C172.414 67.3722 172.414 61.0942 169.452 55.7332Z" fill="#0B1411"/>
<path d="M167.336 54.4636C168.183 56.0155 168.183 57.8495 167.336 58.5549C166.49 59.2603 165.009 58.5549 164.162 56.9325C163.316 55.3806 163.316 53.5466 164.162 52.8412C165.009 52.2064 166.49 52.9118 167.336 54.4636Z" fill="white"/>
<path d="M137.782 64.5506C132.915 55.8743 125.014 51.8535 120.147 55.7332C115.209 59.5423 115.209 69.7 120.006 78.4469C124.873 87.1232 132.773 91.144 137.641 87.2643C142.578 83.3846 142.578 73.227 137.782 64.5506Z" fill="white"/>
<path d="M137.709 68.9241C134.747 63.5631 129.879 61.0942 126.846 63.4926C123.813 65.8204 123.813 72.0984 126.776 77.4594C129.738 82.8204 134.606 85.2892 137.639 82.8909C140.672 80.5631 140.672 74.2851 137.709 68.9241Z" fill="#0B1411"/>
<path d="M133.973 67.4426C134.82 68.9945 134.82 70.8285 133.973 71.5339C133.056 72.2393 131.645 71.5339 130.799 69.9115C129.952 68.3596 129.952 66.5256 130.799 65.8202C131.716 65.1854 133.127 65.8908 133.973 67.4426Z" fill="white"/>
<path fill-rule="evenodd" clip-rule="evenodd" d="M144.235 86.0684C144.506 85.931 144.837 86.0392 144.974 86.3102C145.112 86.5812 145.003 86.9123 144.732 87.0498L144.484 86.5591L144.235 86.0684ZM144.235 86.0684C144.235 86.0684 144.235 86.0684 144.484 86.5591C144.732 87.0498 144.733 87.0497 144.732 87.0498L144.732 87.0501L144.567 87.1336C144.459 87.1889 144.298 87.2708 144.088 87.3775C143.669 87.5909 143.058 87.9032 142.285 88.2987C140.741 89.0897 138.555 90.2135 135.99 91.5444C130.86 94.2065 124.215 97.6961 118.154 101.009C117.887 101.154 117.553 101.056 117.407 100.79C117.262 100.523 117.36 100.189 117.626 100.043C123.698 96.725 130.35 93.2313 135.483 90.5676C138.05 89.2357 140.238 88.111 141.784 87.3193C142.557 86.9234 143.169 86.6108 143.589 86.3971C143.798 86.2902 143.96 86.2081 144.069 86.1527L144.235 86.0684Z" fill="#0B1411"/>
<path fill-rule="evenodd" clip-rule="evenodd" d="M143.43 90.035C143.692 89.881 144.029 89.9685 144.183 90.2304C144.337 90.4924 144.25 90.8296 143.988 90.9836L143.709 90.5093L143.43 90.035ZM143.43 90.035C143.43 90.0349 143.43 90.035 143.709 90.5093L143.988 90.9836L143.986 90.9847L143.98 90.9885L143.953 91.0043C143.929 91.0185 143.893 91.04 143.845 91.0686C143.75 91.1258 143.608 91.2115 143.424 91.3248C143.054 91.5515 142.513 91.8886 141.828 92.3289C140.458 93.2095 138.515 94.5025 136.227 96.1493C131.649 99.4444 125.698 104.15 120.19 109.798C119.978 110.016 119.63 110.02 119.412 109.808C119.195 109.596 119.19 109.247 119.402 109.03C124.969 103.321 130.974 98.5742 135.584 95.2562C137.89 93.5965 139.849 92.2927 141.233 91.4033C141.924 90.9585 142.472 90.6172 142.848 90.3868C143.036 90.2715 143.181 90.184 143.279 90.125C143.328 90.0956 143.366 90.0733 143.391 90.0582L143.42 90.0411L143.43 90.035Z" fill="#0B1411"/>
<path fill-rule="evenodd" clip-rule="evenodd" d="M147.313 90.7271C147.543 90.9253 147.57 91.2727 147.371 91.5031C142.162 97.5569 137.48 103.595 134.098 108.121C132.408 110.383 131.044 112.267 130.102 113.585C129.631 114.244 129.266 114.761 129.019 115.113C128.896 115.289 128.802 115.424 128.739 115.515L128.667 115.618L128.644 115.651C128.644 115.651 128.644 115.652 128.191 115.339C127.738 115.027 127.738 115.027 127.738 115.027L127.763 114.991L127.835 114.887C127.899 114.795 127.994 114.659 128.118 114.481C128.367 114.127 128.734 113.607 129.207 112.945C130.152 111.622 131.521 109.732 133.217 107.462C136.607 102.924 141.306 96.8643 146.537 90.7853C146.735 90.555 147.083 90.529 147.313 90.7271ZM127.878 115.792C127.628 115.62 127.565 115.277 127.738 115.027L128.191 115.339L128.644 115.651C128.471 115.901 128.128 115.965 127.878 115.792Z" fill="#0B1411"/>
<path fill-rule="evenodd" clip-rule="evenodd" d="M164.47 83.0063C164.523 82.7071 164.809 82.5078 165.108 82.5611L165.011 83.1028C165.108 82.5611 165.108 82.5611 165.108 82.5611L165.11 82.5615L165.115 82.5624L165.132 82.5656C165.147 82.5683 165.169 82.5724 165.197 82.5779C165.255 82.5889 165.339 82.6054 165.449 82.6281C165.669 82.6735 165.994 82.7435 166.416 82.8428C167.259 83.0414 168.492 83.3573 170.055 83.828C173.181 84.7695 177.632 86.3305 182.949 88.8117C183.225 88.9402 183.344 89.2676 183.215 89.5429C183.087 89.8183 182.759 89.9374 182.484 89.8089C177.22 87.3523 172.819 85.8095 169.737 84.8817C168.197 84.4178 166.987 84.1077 166.164 83.9139C165.752 83.817 165.438 83.7492 165.227 83.7059C165.122 83.6842 165.043 83.6687 164.99 83.6586C164.964 83.6536 164.945 83.6499 164.932 83.6476L164.918 83.6451L164.915 83.6445C164.616 83.5912 164.416 83.3054 164.47 83.0063Z" fill="#0B1411"/>
<path fill-rule="evenodd" clip-rule="evenodd" d="M167.015 81.1832L167.015 81.1832L167.02 81.1829L167.04 81.1819C167.058 81.181 167.086 81.1798 167.123 81.1782C167.196 81.1751 167.307 81.171 167.451 81.1671C167.74 81.1592 168.166 81.1522 168.708 81.1554C169.791 81.162 171.339 81.2099 173.186 81.3759C176.885 81.7081 181.766 82.5117 186.533 84.3906C186.816 84.502 187.135 84.3632 187.247 84.0805C187.358 83.7978 187.219 83.4782 186.937 83.3668C182.039 81.4366 177.046 80.6177 173.285 80.2799C171.402 80.1108 169.824 80.0617 168.714 80.055C168.159 80.0517 167.722 80.0589 167.421 80.0671C167.271 80.0711 167.155 80.0754 167.076 80.0788C167.037 80.0804 167.007 80.0818 166.986 80.0828L166.962 80.084L166.956 80.0844L166.954 80.0845C166.954 80.0845 166.953 80.0845 166.984 80.6339L166.953 80.0845C166.65 80.1015 166.417 80.3612 166.434 80.6646C166.451 80.968 166.711 81.2001 167.015 81.1832Z" fill="#0B1411"/>
<path fill-rule="evenodd" clip-rule="evenodd" d="M164.25 79.2566L164.251 79.2563L164.256 79.2548L164.277 79.2487C164.296 79.2432 164.325 79.2349 164.363 79.2241C164.439 79.2025 164.553 79.1707 164.701 79.1307C164.998 79.0508 165.433 78.9381 165.981 78.8084C167.078 78.5488 168.628 78.2214 170.435 77.9508C174.06 77.4078 178.673 77.1012 182.738 77.9968C183.035 78.0622 183.329 77.8747 183.394 77.5779C183.459 77.2812 183.272 76.9876 182.975 76.9222C178.716 75.9838 173.948 76.312 170.272 76.8625C168.429 77.1385 166.848 77.4724 165.728 77.7375C165.168 77.8701 164.722 77.9856 164.415 78.0682C164.262 78.1095 164.143 78.1426 164.062 78.1655C164.022 78.177 163.991 78.1859 163.97 78.192L163.946 78.1991L163.939 78.201L163.937 78.2016C163.937 78.2016 163.937 78.2018 164.093 78.7291L163.937 78.2018C163.645 78.2884 163.479 78.5947 163.566 78.886C163.653 79.1773 163.959 79.3432 164.25 79.2566Z" fill="#0B1411"/>
<path d="M156.545 86.2063C157.321 86.7001 161.483 90.7208 164.163 86.559C164.163 86.559 166.491 91.2146 165.856 95.3059C165.856 95.3059 162.682 92.2727 158.873 93.4718C155.064 94.7415 154.288 99.5382 154.288 99.5382C151.325 97.2104 149.773 93.2602 149.773 93.2602C149.773 93.2602 155.981 91.92 156.475 86.1357C156.404 86.1357 156.475 86.2063 156.545 86.2063Z" fill="#0A1311"/>
<path d="M158.874 93.4719C162.683 92.2021 165.858 95.3059 165.858 95.3059C165.505 97.4221 164.447 99.3972 161.837 100.526C158.733 101.866 156.194 101.02 154.289 99.5383C154.219 99.5383 155.065 94.7416 158.874 93.4719Z" fill="#CB542F"/>
<path fill-rule="evenodd" clip-rule="evenodd" d="M153.929 80.1996C154.207 80.0784 154.531 80.2061 154.653 80.4848L157.474 86.9744C157.595 87.2531 157.468 87.5772 157.189 87.6984C156.91 87.8195 156.586 87.6918 156.465 87.4132L153.643 80.9235C153.522 80.6449 153.65 80.3207 153.929 80.1996Z" fill="#0B1411"/>
<path d="M150.127 70.0528C153.725 68.7126 157.604 69.7001 158.663 72.3101C159.721 74.9201 154.148 80.7043 154.148 80.7043C154.148 80.7043 146.6 79.7873 145.542 77.1773C144.484 74.5674 146.459 71.3931 150.127 70.0528Z" fill="#CB542F"/>
<path fill-rule="evenodd" clip-rule="evenodd" d="M213.12 190.393C219.539 191.451 228.145 186.655 229.909 180.306C230.05 179.742 230.12 179.177 229.909 178.613C229.697 178.119 229.133 177.696 228.569 177.767C229.203 176.708 229.909 175.368 229.344 174.31C229.133 173.887 228.71 173.605 228.216 173.393C226.946 172.829 225.253 172.899 224.054 173.675C224.336 172.688 223.772 171.7 222.925 171.206C222.079 170.713 220.95 170.642 219.963 170.783C214.602 171.559 205.432 178.543 206.066 184.256C206.349 187.572 209.735 189.829 213.12 190.393Z" fill="#E2DBE8"/>
<path d="M156.337 158.65C156.337 158.65 145.826 166.198 153.233 177.132C162.544 190.957 185.681 182.704 196.826 176.638C199.648 180.165 203.175 183.057 207.125 185.314C211.781 184.468 215.943 181.011 217.706 176.638C214.743 172.476 211.499 168.385 207.69 165.069C201.129 159.285 192.241 155.335 183.495 154.912C174.677 154.277 164.308 154.63 156.337 158.65Z" fill="#8B6FA3"/>
<path d="M140.818 162.53C139.689 162.177 138.56 161.966 137.432 161.895C136.374 161.825 135.245 161.825 134.469 162.601C134.116 162.953 133.905 163.376 133.693 163.8C131.788 167.891 132 173.534 133.129 177.837C133.411 178.825 133.764 179.812 134.398 180.659C135.033 181.435 136.091 181.999 137.079 181.928C138.137 181.858 139.054 180.941 138.983 179.883C139.477 181.152 140.888 181.999 142.228 181.858C143.569 181.717 144.768 180.518 144.979 179.177C146.178 179.53 147.871 179.671 148.365 178.472C148.577 178.049 148.506 177.555 148.436 177.132C148.154 175.086 147.66 173.111 146.884 171.206C147.801 170.571 147.801 169.231 147.519 168.173C147.166 166.833 146.813 165.845 145.614 165.069C144.274 163.87 142.581 163.094 140.818 162.53Z" fill="#E2DBE8"/>
<path d="M131.999 125.497C132.422 125.144 132.845 124.791 133.269 124.439C135.737 122.675 138.912 121.123 142.015 121.829C145.895 122.675 147.588 126.837 146.6 130.505C145.26 135.513 142.298 140.733 140.252 145.6C139.688 146.941 139.194 148.21 138.982 149.621C138.559 153.289 140.816 156.746 141.451 160.343C141.663 161.542 141.663 162.883 141.028 163.941C140.534 164.787 139.758 165.351 138.912 165.845C136.796 167.115 134.468 167.961 132.069 168.244C129.177 164.858 127.908 161.754 126.497 157.522C124.381 151.103 123.322 144.19 124.804 137.629C125.932 133.115 128.401 128.671 131.999 125.497Z" fill="#8B6FA3"/>
</svg>
