<svg width="400" height="280" viewBox="0 0 400 280" fill="none" xmlns="http://www.w3.org/2000/svg">
<path fill-rule="evenodd" clip-rule="evenodd" d="M86.6968 21.4075C121.931 -1.88081 164.754 26.3131 206.635 31.5883C251.143 37.1944 303.405 18.5816 332.838 52.411C366.314 90.8867 372.215 150.677 350.394 196.821C329.749 240.478 278.382 254.52 231.601 266.492C188.576 277.502 143.065 282.705 105.189 259.573C64.9926 235.024 37.5531 192.728 33.906 145.755C30.2402 98.5421 47.1685 47.534 86.6968 21.4075Z" fill="#D0ECB3"/>
<path d="M141.536 245.861L103.879 242.764L90.5059 274.086L124.362 277.887L141.536 245.861Z" fill="#6973BD"/>
<path d="M121.828 275.986L139.425 246.424C139.425 246.424 138.862 242.975 139.425 239.104L122.673 262.894C122.673 262.894 118.802 270.355 121.828 275.986Z" fill="#D0D2EA"/>
<path d="M124.361 276.268L141.536 245.931C141.536 245.931 143.436 245.65 142.31 248.325L124.995 279.365L124.361 276.268Z" fill="#6269A1"/>
<path d="M139.847 236.64C139.847 236.64 141.888 237.696 140.551 240.089C140.551 240.089 129.078 261.346 126.544 263.458L125.91 260.642L139.847 236.64Z" fill="#6269A1"/>
<path d="M65.0254 255.504L88.6753 232.206L139.846 236.64L125.98 260.642L65.0254 255.504Z" fill="#6973BD"/>
<path d="M124.994 261.487C124.502 261.98 118.941 267.681 122.249 277.394L68.6145 271.763C68.6145 271.763 62.6317 269.159 64.2505 262.05C65.7991 254.941 72.5562 255.363 72.5562 255.363L124.994 261.487Z" fill="#EDEDF7"/>
<path d="M124.431 262.19C124.431 262.19 72.4857 253.885 67.5586 257.545C62.6315 261.135 66.6436 267.117 66.6436 267.117C65.5174 257.967 72.908 259.234 72.908 259.234L122.671 265.076C123.234 263.739 123.938 262.754 124.431 262.19Z" fill="#D0D2EA"/>
<path d="M127.317 262.331C127.388 261.487 126.824 260.783 125.98 260.642L70.4448 253.603C70.4448 253.603 63.5469 253.111 62.1391 261.064C60.7314 269.018 66.3623 272.96 68.4739 273.664C70.3744 274.297 116.126 278.802 124.079 279.506C124.924 279.576 125.628 278.943 125.769 278.098V277.816C125.839 276.972 125.206 276.198 124.361 276.127L71.7117 270.567C71.7117 270.567 66.0808 270.496 66.7143 262.261C66.7143 262.261 67.0662 256.067 73.0491 256.841C78.3281 257.545 118.167 262.613 125.558 263.528C126.402 263.809 127.176 263.176 127.317 262.331Z" fill="#828FC4"/>
<path fill-rule="evenodd" clip-rule="evenodd" d="M77.1128 263.395C77.1473 263.074 77.4358 262.841 77.7571 262.875L121.678 267.591C122 267.626 122.232 267.914 122.198 268.236C122.163 268.557 121.875 268.79 121.553 268.755L77.6322 264.039C77.3108 264.005 77.0783 263.716 77.1128 263.395Z" fill="#D0D2EA"/>
<path fill-rule="evenodd" clip-rule="evenodd" d="M89.0777 268.743C89.1128 268.422 89.4017 268.19 89.723 268.225L121.327 271.674C121.648 271.709 121.88 271.998 121.845 272.319C121.81 272.641 121.521 272.873 121.2 272.838L89.596 269.389C89.2747 269.354 89.0427 269.065 89.0777 268.743Z" fill="#D0D2EA"/>
<path d="M147.307 228.757L100.64 225.238L82.4102 253.955L115.21 257.334L147.307 228.757Z" fill="#AF381E"/>
<path d="M113.028 255.011L145.125 228.968C145.125 228.968 145.125 225.519 146.321 221.718L115.985 242.271C115.985 242.201 110.917 248.958 113.028 255.011Z" fill="#D0D2EA"/>
<path d="M115.492 255.715L147.307 228.757C147.307 228.757 149.207 228.757 147.659 231.291L115.563 258.882L115.492 255.715Z" fill="#8E381E"/>
<path d="M147.166 219.396C147.166 219.396 148.996 220.803 147.306 222.915C147.306 222.915 122.53 241.849 119.785 243.468L119.645 240.582L147.166 219.396Z" fill="#8E381E"/>
<path d="M60.9434 232.135L96.9813 212.357L147.167 219.395L119.575 240.511L60.9434 232.135Z" fill="#AF381E"/>
<path d="M118.52 241.215C117.957 241.638 111.551 246.283 113.241 256.419L61.225 248.043C61.225 248.043 55.8053 244.453 58.4799 237.766C61.1546 231.08 67.771 232.487 67.771 232.487L118.52 241.215Z" fill="#EDEDF7"/>
<path d="M117.815 241.778C117.815 241.778 67.911 231.08 62.4208 233.825C56.9307 236.57 59.9573 243.116 59.9573 243.116C60.3092 233.895 67.4183 236.359 67.4183 236.359L115.563 244.312C116.407 243.116 117.252 242.342 117.815 241.778Z" fill="#D0D2EA"/>
<path d="M120.63 242.412C120.841 241.638 120.349 240.793 119.574 240.511L66.5733 231.15C66.5733 231.15 59.8162 229.531 57.1415 237.203C54.4668 244.805 58.69 248.958 60.6608 250.014C62.4205 250.929 106.834 256.911 114.577 258.953C115.422 259.164 116.196 258.671 116.407 257.897L116.477 257.615C116.689 256.771 116.196 255.926 115.422 255.715L64.3913 247.55C64.3913 247.55 58.8308 246.565 60.8016 238.541C60.8016 238.541 62.139 232.487 67.9107 234.247C72.9785 235.795 111.55 241.356 118.659 243.468C119.504 243.749 120.419 243.256 120.63 242.412Z" fill="#CB542F"/>
<path fill-rule="evenodd" clip-rule="evenodd" d="M84.7185 242.529C84.7701 242.21 85.0706 241.994 85.3897 242.045L114.107 246.691C114.427 246.742 114.643 247.043 114.592 247.362C114.54 247.681 114.24 247.898 113.921 247.846L85.2028 243.201C84.8837 243.149 84.6669 242.849 84.7185 242.529Z" fill="#D0D2EA"/>
<path fill-rule="evenodd" clip-rule="evenodd" d="M73.3156 245.138C73.365 244.818 73.6639 244.599 73.9834 244.649L113.118 250.702C113.438 250.751 113.657 251.05 113.607 251.37C113.558 251.689 113.259 251.908 112.939 251.859L73.8044 245.806C73.485 245.756 73.2661 245.457 73.3156 245.138Z" fill="#D0D2EA"/>
<path d="M64.9544 203.277C64.9544 203.277 59.8866 209.26 63.7578 216.861L82.8326 243.045V226.856L64.9544 203.277Z" fill="#427763"/>
<path d="M81.7775 227.842L64.9551 203.277L115.774 199.335L140.339 219.325L81.7775 227.842Z" fill="#428B75"/>
<path d="M139.494 220.24C139.071 220.803 134.285 227.067 138.72 236.359L86.4927 243.045C86.4927 243.045 80.2283 241.145 80.9321 233.965C81.636 226.716 88.3931 226.293 88.3931 226.293L139.494 220.24Z" fill="#EDEDF7"/>
<path d="M139.001 221.014C139.001 221.014 88.1117 224.885 83.6773 229.038C79.1726 233.261 83.8885 238.611 83.8885 238.611C81.6361 229.672 89.0971 230.024 89.0971 230.024L137.523 224.041C138.016 222.703 138.579 221.648 139.001 221.014Z" fill="#D0D2EA"/>
<path d="M141.886 220.803C141.886 219.958 141.183 219.325 140.338 219.325L86.8441 225.378C86.8441 225.378 79.9462 225.73 79.5239 233.825C79.1016 241.919 84.3806 244.664 86.5626 245.086C88.5334 245.438 132.807 238.681 140.831 238.329C141.675 238.329 142.309 237.625 142.309 236.781V236.499C142.309 235.655 141.605 234.951 140.76 235.021L89.5188 241.708C89.5188 241.708 83.8879 242.341 83.536 234.106C83.536 234.106 83.1136 227.912 89.1669 227.983C94.5163 228.053 133.018 222.492 140.408 222.422C141.183 222.422 141.886 221.648 141.886 220.803Z" fill="#609682"/>
<path fill-rule="evenodd" clip-rule="evenodd" d="M137.54 227.275C137.581 227.596 137.354 227.889 137.033 227.93L108.175 231.59C107.854 231.63 107.561 231.403 107.52 231.083C107.48 230.762 107.707 230.469 108.027 230.428L136.886 226.768C137.206 226.728 137.499 226.955 137.54 227.275Z" fill="#D0D2EA"/>
<path fill-rule="evenodd" clip-rule="evenodd" d="M137.681 231.352C137.725 231.672 137.501 231.967 137.18 232.011L97.975 237.36C97.6547 237.404 97.3597 237.18 97.316 236.86C97.2723 236.54 97.4965 236.244 97.8167 236.201L137.022 230.851C137.342 230.808 137.637 231.032 137.681 231.352Z" fill="#D0D2EA"/>
<path d="M56.7188 198.491L103.315 192.367L130.836 215.383L95.6426 222.422L56.7188 198.491Z" fill="#E3AE4B"/>
<path d="M97.7537 220.099L60.2376 197.998C60.2376 197.998 61.9269 194.69 59.041 188.777L94.7974 207.289C94.7974 207.359 99.9357 214.046 97.7537 220.099Z" fill="#D0D2EA"/>
<path d="M95.3615 220.803L56.7192 198.491C56.7192 198.491 54.8188 198.491 56.3673 201.025L95.2207 223.971L95.3615 220.803Z" fill="#D18B4B"/>
<path d="M58.1966 186.525C58.1966 186.525 56.3665 187.933 58.0558 190.044C58.0558 190.044 88.2517 206.937 91.0671 208.626L91.2079 205.74L58.1966 186.525Z" fill="#D18B4B"/>
<path d="M144.21 197.646L107.046 182.161L58.1973 186.525L91.2086 205.67L144.21 197.646Z" fill="#E3AE4B"/>
<path d="M92.2637 206.304C92.8268 206.726 99.2319 211.372 97.5427 221.507L143.857 213.483C143.857 213.483 149.277 209.893 146.602 203.207C143.927 196.45 137.311 197.928 137.311 197.928L92.2637 206.304Z" fill="#EDEDF7"/>
<path d="M92.9688 206.937C92.9688 206.937 137.242 196.59 142.662 199.406C148.152 202.151 145.125 208.697 145.125 208.697C144.773 199.476 137.664 201.94 137.664 201.94L95.1507 209.541C94.3765 208.274 93.6022 207.43 92.9688 206.937Z" fill="#D0D2EA"/>
<path d="M90.2229 207.5C90.0117 206.726 90.5044 205.881 91.2787 205.6L138.649 196.59C138.649 196.59 145.406 194.971 148.081 202.643C150.755 210.245 146.532 214.398 144.561 215.454C142.802 216.369 104.019 222 96.2761 223.97C95.4315 224.182 94.6572 223.689 94.4461 222.915L94.3757 222.633C94.1645 221.789 94.6572 220.944 95.4315 220.733L140.831 212.99C140.831 212.99 146.391 212.005 144.421 203.981C144.421 203.981 143.083 197.927 137.312 199.687C132.244 201.236 99.3731 206.444 92.2641 208.485C91.2787 208.837 90.434 208.345 90.2229 207.5Z" fill="#F0D763"/>
<path fill-rule="evenodd" clip-rule="evenodd" d="M126.064 207.618C126.116 207.937 125.899 208.237 125.58 208.289L96.8624 212.935C96.5433 212.986 96.2428 212.769 96.1912 212.45C96.1396 212.131 96.3564 211.831 96.6755 211.779L125.393 207.134C125.712 207.082 126.013 207.299 126.064 207.618Z" fill="#D0D2EA"/>
<path fill-rule="evenodd" clip-rule="evenodd" d="M137.467 210.297C137.516 210.617 137.296 210.916 136.977 210.964L97.8417 216.947C97.5222 216.996 97.2236 216.777 97.1748 216.457C97.1259 216.138 97.3453 215.839 97.6648 215.79L136.8 209.807C137.119 209.758 137.418 209.978 137.467 210.297Z" fill="#D0D2EA"/>
<path d="M136.256 184.554L95.221 179.486L81.918 196.309L115.774 200.11L136.256 184.554Z" fill="#6973BD"/>
<path d="M113.24 198.209L134.074 185.187C134.074 185.187 133.511 177.797 134.074 173.855L114.084 185.117C114.084 185.117 110.143 192.508 113.24 198.209Z" fill="#D0D2EA"/>
<path d="M115.773 198.42L136.256 184.554C136.256 184.554 138.156 184.272 137.03 186.947L116.407 201.517L115.773 198.42Z" fill="#6269A1"/>
<path d="M134.565 171.392C134.565 171.392 136.606 172.448 135.269 174.841C135.269 174.841 120.488 183.569 117.954 185.68L117.32 182.865L134.565 171.392Z" fill="#6269A1"/>
<path d="M56.4375 177.727L80.0874 168.928L134.567 171.392L117.322 182.865L56.4375 177.727Z" fill="#6973BD"/>
<path d="M116.406 183.709C115.914 184.202 110.353 189.903 113.661 199.617L60.0266 193.986C60.0266 193.986 54.0438 191.382 55.6627 184.273C57.2112 177.163 63.9683 177.586 63.9683 177.586L116.406 183.709Z" fill="#EDEDF7"/>
<path d="M115.773 184.343C115.773 184.343 63.8275 176.037 58.9004 179.697C53.9733 183.287 57.9854 189.27 57.9854 189.27C56.8592 180.12 64.2498 181.387 64.2498 181.387L114.013 187.229C114.647 185.891 115.35 184.976 115.773 184.343Z" fill="#D0D2EA"/>
<path d="M118.659 184.484C118.729 183.639 118.166 182.935 117.322 182.794L61.7866 175.756C61.7866 175.756 54.8887 175.263 53.4809 183.217C52.0732 191.17 57.7041 195.112 59.8157 195.816C61.7162 196.449 107.467 200.954 115.421 201.658C116.266 201.728 116.97 201.095 117.11 200.25V199.969C117.181 199.124 116.547 198.35 115.703 198.279L63.0535 192.719C63.0535 192.719 57.4226 192.649 58.0561 184.413C58.0561 184.413 58.408 178.219 64.3909 178.994C69.6699 179.697 109.509 184.765 116.899 185.68C117.814 185.962 118.589 185.399 118.659 184.484Z" fill="#828FC4"/>
<path fill-rule="evenodd" clip-rule="evenodd" d="M68.4546 185.618C68.4891 185.296 68.7776 185.064 69.0989 185.098L113.02 189.814C113.342 189.849 113.574 190.137 113.54 190.459C113.505 190.78 113.217 191.013 112.895 190.978L68.974 186.262C68.6526 186.228 68.4201 185.939 68.4546 185.618Z" fill="#D0D2EA"/>
<path fill-rule="evenodd" clip-rule="evenodd" d="M80.4918 190.966C80.5269 190.645 80.8157 190.413 81.1371 190.448L112.741 193.897C113.062 193.932 113.294 194.221 113.259 194.542C113.224 194.863 112.935 195.095 112.614 195.06L81.0101 191.611C80.6888 191.576 80.4567 191.287 80.4918 190.966Z" fill="#D0D2EA"/>
<path d="M138.085 163.086L91.4895 156.259L75.5117 173.715L109.297 179.768L138.085 163.086Z" fill="#E3AE4B"/>
<path d="M107.116 177.445L135.904 163.227C135.904 163.227 135.904 157.103 137.101 153.302L110.073 164.635C110.073 164.705 105.005 171.392 107.116 177.445Z" fill="#D0D2EA"/>
<path d="M109.578 178.149L138.085 163.086C138.085 163.086 139.985 163.086 138.437 165.62L109.719 181.246L109.578 178.149Z" fill="#D18B4B"/>
<path d="M137.945 151.05C137.945 151.05 139.776 152.458 138.086 154.569C138.086 154.569 116.618 164.212 113.803 165.902L113.662 163.016L137.945 151.05Z" fill="#D18B4B"/>
<path d="M55.7324 153.936L87.7583 143.378L137.944 151.05L113.661 163.016L55.7324 153.936Z" fill="#E3AE4B"/>
<path d="M112.605 163.649C112.042 164.072 105.637 168.717 107.326 178.853L55.9438 169.843C55.9438 169.843 50.524 166.254 53.1987 159.567C55.8734 152.81 62.4897 154.288 62.4897 154.288L112.605 163.649Z" fill="#EDEDF7"/>
<path d="M111.902 164.283C111.902 164.283 62.702 152.88 57.2118 155.696C51.7217 158.441 54.7483 164.987 54.7483 164.987C55.1002 155.766 62.2093 158.23 62.2093 158.23L109.72 166.887C110.495 165.62 111.339 164.776 111.902 164.283Z" fill="#D0D2EA"/>
<path d="M114.717 164.846C114.929 164.072 114.436 163.227 113.662 162.946L61.294 152.951C61.294 152.951 54.5369 151.332 51.8622 159.004C49.1875 166.676 53.4107 170.759 55.3815 171.814C57.1412 172.729 100.851 179.416 108.664 181.387C109.509 181.598 110.283 181.105 110.494 180.331L110.565 180.05C110.776 179.205 110.283 178.36 109.509 178.149L59.112 169.351C59.112 169.351 53.5515 168.365 55.5223 160.341C55.5223 160.341 56.8597 154.288 62.6314 156.048C67.6992 157.596 105.567 163.861 112.676 165.902C113.591 166.183 114.506 165.691 114.717 164.846Z" fill="#F0D763"/>
<path fill-rule="evenodd" clip-rule="evenodd" d="M78.8093 163.601C78.8752 163.284 79.1852 163.081 79.5016 163.147L108.219 169.13C108.536 169.196 108.739 169.506 108.673 169.822C108.607 170.139 108.297 170.342 107.981 170.276L79.2629 164.293C78.9464 164.227 78.7434 163.917 78.8093 163.601Z" fill="#D0D2EA"/>
<path fill-rule="evenodd" clip-rule="evenodd" d="M67.4046 166.287C67.464 165.969 67.7698 165.76 68.0875 165.819L107.222 173.139C107.54 173.199 107.75 173.505 107.69 173.822C107.631 174.14 107.325 174.349 107.007 174.29L67.8723 166.97C67.5546 166.91 67.3452 166.605 67.4046 166.287Z" fill="#D0D2EA"/>
<path d="M64.9544 132.609C64.9544 132.609 59.8866 138.592 63.7578 146.193L82.8326 166.113V149.924L64.9544 132.609Z" fill="#427763"/>
<path d="M81.7775 150.839L64.9551 132.609L115.774 128.667L140.339 142.322L81.7775 150.839Z" fill="#428B75"/>
<path d="M139.494 143.237C139.071 143.8 134.285 150.065 138.72 159.356L86.4927 166.042C86.4927 166.042 80.2283 164.142 80.9321 156.962C81.636 149.713 88.3931 149.29 88.3931 149.29L139.494 143.237Z" fill="#EDEDF7"/>
<path d="M139.001 144.011C139.001 144.011 88.1117 147.882 83.6773 152.035C79.1726 156.259 83.8885 161.608 83.8885 161.608C81.6361 152.669 89.0971 153.021 89.0971 153.021L137.523 147.038C138.016 145.701 138.579 144.715 139.001 144.011Z" fill="#D0D2EA"/>
<path d="M141.886 143.8C141.886 142.956 141.183 142.322 140.338 142.322L86.8441 148.375C86.8441 148.375 79.9462 148.727 79.5239 156.822C79.1016 164.916 84.3806 167.661 86.5626 168.084C88.5334 168.435 132.807 161.678 140.831 161.326C141.675 161.326 142.309 160.623 142.309 159.778V159.496C142.309 158.652 141.605 157.948 140.76 158.018L89.5188 164.705C89.5188 164.705 83.8879 165.338 83.536 157.103C83.536 157.103 83.1136 150.909 89.1669 150.98C94.5163 151.05 133.018 145.489 140.408 145.419C141.183 145.419 141.886 144.645 141.886 143.8Z" fill="#609682"/>
<path fill-rule="evenodd" clip-rule="evenodd" d="M137.54 150.273C137.581 150.593 137.354 150.886 137.033 150.927L108.175 154.587C107.854 154.628 107.561 154.401 107.52 154.08C107.48 153.759 107.707 153.466 108.027 153.426L136.886 149.766C137.206 149.725 137.499 149.952 137.54 150.273Z" fill="#D0D2EA"/>
<path fill-rule="evenodd" clip-rule="evenodd" d="M137.681 154.349C137.725 154.67 137.501 154.965 137.18 155.008L97.975 160.358C97.6547 160.401 97.3597 160.177 97.316 159.857C97.2723 159.537 97.4965 159.242 97.8167 159.198L137.022 153.849C137.342 153.805 137.637 154.029 137.681 154.349Z" fill="#D0D2EA"/>
<path d="M56.7188 128.737L103.315 119.376L130.836 138.38L95.6426 145.419L56.7188 128.737Z" fill="#AF381E"/>
<path d="M97.7537 143.096L60.2376 128.315C60.2376 128.315 61.9269 121.699 59.041 115.786L94.7974 130.356C94.7974 130.356 99.9357 137.043 97.7537 143.096Z" fill="#D0D2EA"/>
<path d="M95.3615 143.8L56.7192 128.738C56.7192 128.738 54.8188 128.738 56.3673 131.271L95.2207 146.968L95.3615 143.8Z" fill="#8E381E"/>
<path d="M58.1966 113.464C58.1966 113.464 56.3665 114.871 58.0558 116.983C58.0558 116.983 88.2517 129.934 91.0671 131.553L91.2079 128.667L58.1966 113.464Z" fill="#8E381E"/>
<path d="M144.21 120.643L107.046 109.1L58.1973 113.464L91.2086 128.667L144.21 120.643Z" fill="#AF381E"/>
<path d="M92.2637 129.301C92.8268 129.723 99.2319 134.368 97.5427 144.504L143.857 136.48C143.857 136.48 149.277 132.89 146.602 126.204C143.927 119.446 137.311 120.925 137.311 120.925L92.2637 129.301Z" fill="#EDEDF7"/>
<path d="M92.9688 129.934C92.9688 129.934 137.242 119.587 142.662 122.403C148.152 125.148 145.125 131.694 145.125 131.694C144.773 122.473 137.664 124.937 137.664 124.937L95.1507 132.538C94.3765 131.272 93.6022 130.427 92.9688 129.934Z" fill="#D0D2EA"/>
<path d="M90.2229 130.497C90.0117 129.723 90.5044 128.878 91.2787 128.597L138.649 119.587C138.649 119.587 145.406 117.969 148.081 125.641C150.755 133.242 146.532 137.395 144.561 138.451C142.802 139.366 104.019 144.997 96.2761 146.968C95.4315 147.179 94.6572 146.686 94.4461 145.912L94.3757 145.63C94.1645 144.786 94.6572 143.941 95.4315 143.73L140.831 135.987C140.831 135.987 146.391 135.002 144.421 126.978C144.421 126.978 143.083 120.925 137.312 122.684C132.244 124.233 99.3731 129.442 92.2641 131.483C91.2787 131.835 90.434 131.342 90.2229 130.497Z" fill="#CB542F"/>
<path fill-rule="evenodd" clip-rule="evenodd" d="M126.064 130.615C126.116 130.934 125.899 131.234 125.58 131.286L96.8624 135.932C96.5433 135.983 96.2428 135.766 96.1912 135.447C96.1396 135.128 96.3564 134.828 96.6755 134.776L125.393 130.131C125.712 130.079 126.013 130.296 126.064 130.615Z" fill="#D0D2EA"/>
<path fill-rule="evenodd" clip-rule="evenodd" d="M137.467 133.294C137.516 133.614 137.296 133.913 136.977 133.961L97.8417 139.944C97.5222 139.993 97.2236 139.774 97.1748 139.454C97.1259 139.135 97.3453 138.836 97.6648 138.787L136.8 132.804C137.119 132.756 137.418 132.975 137.467 133.294Z" fill="#D0D2EA"/>
<path d="M193.761 250.858C193.761 250.858 186.019 254.307 184.47 260.36C182.922 266.484 186.793 270.003 190.312 266.413C190.312 266.413 190.031 270.425 193.831 271.059C197.632 271.692 200.448 268.947 200.448 268.947C200.448 268.947 201.644 271.622 205.023 271.622C208.965 271.552 214.103 269.722 215.722 264.091C217.27 258.46 215.862 252.407 212.414 250.506C208.965 248.465 199.462 248.746 193.761 250.858Z" fill="#E8B79F"/>
<path d="M180.739 184.765C180.739 184.765 172.715 191.663 179.191 221.296C182.218 235.162 193.057 252.266 193.057 252.266C193.057 252.266 196.576 260.642 212.484 250.365L209.035 224.393C209.035 224.393 208.753 199.406 205.727 191.804C198.829 174.418 187.989 174.77 180.739 184.765Z" fill="#AF673F"/>
<path d="M195.661 147.812C195.661 147.812 177.501 145.982 167.225 140.633C152.584 132.961 148.502 129.864 148.502 129.864L153.147 116.349C153.147 116.349 177.501 123.67 200.87 122.825C224.308 122.051 214.173 138.521 214.173 138.521C214.173 138.521 210.583 150.346 195.661 147.812Z" fill="#DD915F"/>
<path d="M152.866 116.772C152.866 116.772 148.08 109.663 138.93 107.974C129.78 106.284 122.6 113.393 125.064 117.335C127.527 121.277 130.131 120.784 130.131 120.784C130.131 120.784 129.428 121.206 132.454 123.388C135.41 125.57 141.464 123.388 141.464 123.388L148.502 129.793C148.502 129.864 154.696 126.556 152.866 116.772Z" fill="#FFC4A4"/>
<path d="M372.12 135.917C373.739 137.254 375.288 139.225 375.78 141.618C376.273 144.011 375.569 146.827 373.176 149.994C369.938 154.288 366.067 156.751 362.055 158.3C358.043 159.848 353.89 160.482 349.667 160.834C348.611 160.904 347.555 161.045 346.499 161.045C345.444 161.115 344.388 161.186 343.332 161.256C342.276 161.256 341.291 161.397 340.235 161.397C339.25 161.467 338.194 161.467 337.208 161.538C335.238 161.608 333.337 161.749 331.648 161.96C329.959 162.101 328.48 162.312 327.213 162.523C327.213 162.523 326.721 162.664 325.876 162.945C325.031 163.227 323.835 163.649 322.498 164.283C321.16 164.916 319.752 165.761 318.486 166.746C317.289 167.732 316.092 168.928 314.896 170.758C314.333 171.603 313.699 172.659 313.136 173.785C312.573 174.982 312.01 176.249 311.447 177.656C310.321 180.542 309.265 183.85 308.139 187.44C306.942 191.03 305.746 194.901 304.127 198.772C303.352 200.673 302.367 202.644 301.452 204.474C300.396 206.374 299.34 208.134 298.144 209.823C297.088 211.371 295.399 213.483 293.076 215.806C292.513 216.369 291.879 217.002 291.175 217.565C290.472 218.129 289.768 218.762 289.064 219.325C288.29 219.888 287.515 220.451 286.741 221.014C285.897 221.578 285.052 222.07 284.137 222.633C280.547 224.675 276.113 226.434 271.467 227.279C266.822 228.194 261.965 228.194 257.39 227.56C252.885 226.927 248.662 225.66 244.861 224.182C241.131 222.633 237.752 220.874 234.866 219.044C229.094 215.383 224.942 211.653 222.549 209.401C220.859 207.782 219.029 205.529 218.044 202.995C217.058 200.532 216.918 197.857 218.185 195.605C219.311 193.634 222.267 191.663 225.294 190.255C226.842 189.552 228.391 188.988 229.728 188.707C231.136 188.425 232.332 188.355 233.247 188.637C234.514 189.059 235.289 189.974 236.063 190.889C237.4 192.437 239.16 194.197 241.271 195.886C243.383 197.646 245.917 199.335 248.732 200.813C251.548 202.292 254.574 203.488 257.671 204.051C259.22 204.403 260.768 204.544 262.247 204.544C263.725 204.544 265.203 204.403 266.54 204.051C267.878 203.699 269.215 203.277 270.482 202.644C271.678 202.01 272.875 201.236 274.001 200.321C275.057 199.406 275.972 198.491 276.817 197.365C277.661 196.309 278.436 195.112 279.069 193.845C280.406 191.311 281.533 188.496 282.377 185.751C283.292 183.006 284.066 180.331 284.77 178.008C285.756 174.7 286.812 171.181 288.149 167.521C289.486 163.86 291.176 160.06 293.569 156.259C295.891 152.528 298.988 148.868 302.578 145.841C306.097 142.885 309.969 140.562 313.91 138.732C317.852 136.902 321.864 135.565 325.806 134.509C329.818 133.453 333.689 132.82 337.701 132.327C345.725 131.342 353.89 131.412 362.055 132.468C366.912 133.172 370.22 134.298 372.12 135.917Z" fill="#AF673F"/>
<path d="M372.12 135.917C370.22 134.368 366.911 133.242 362.336 132.608C355.72 131.693 349.104 131.553 342.487 131.975C339.179 132.257 335.941 132.608 332.704 133.172C329.466 133.735 326.298 134.509 323.061 135.424C323.272 135.635 323.553 135.776 324.046 135.917C327.706 136.972 331.155 137.958 334.674 138.803C338.123 139.647 341.572 140.281 345.021 140.773C340.094 142.04 335.449 143.8 331.225 146.123C330.592 146.475 329.818 147.108 330.099 147.812C330.24 148.164 330.592 148.375 330.873 148.516C333.196 149.783 335.73 150.416 338.264 150.276C337.701 150.557 337.067 150.768 336.434 150.909C335.801 151.05 335.167 151.191 334.534 151.402C333.9 151.613 333.337 152.035 332.844 152.528C332.422 153.021 332.07 153.654 332.07 154.358C332.07 155.132 332.352 155.836 332.704 156.54C333.267 157.666 334.041 158.652 334.886 159.496C335.73 160.27 336.575 160.974 337.56 161.537C340.516 161.397 343.684 161.185 346.781 161.045C349.878 160.834 353.045 160.552 356.142 159.989C359.239 159.355 362.266 158.44 365.152 156.892C366.63 156.118 368.038 155.203 369.375 154.076C370.712 152.95 372.05 151.613 373.246 149.994C375.639 146.827 376.343 144.011 375.851 141.618C375.287 139.154 373.739 137.254 372.12 135.917Z" fill="#FFC4A4"/>
<path d="M224.309 112.197C216.637 118.531 205.797 133.453 201.926 139.014C193.55 150.98 182.147 157.174 176.868 170.829C170.533 187.158 183.414 202.784 198.336 208.415C226.35 219.043 236.837 203.699 242.328 192.156C255.912 163.297 246.48 145.771 245.143 128.315C244.58 121.276 243.383 113.534 238.104 108.818C230.714 102.131 231.207 106.425 224.309 112.197Z" fill="#AF673F"/>
<path d="M232.192 119.517C232.192 119.517 233.389 147.883 224.943 175.896C216.496 203.91 195.591 209.33 181.936 198.561C174.405 192.648 171.167 171.673 180.247 156.118C194.747 131.13 221.212 108.536 221.212 108.536L232.192 119.517Z" fill="#FFC4A4"/>
<path d="M218.185 257.756C218.185 257.756 210.442 261.205 208.894 267.258C207.345 273.382 211.217 276.901 214.736 273.311C214.736 273.311 214.454 277.323 218.255 277.957C222.056 278.59 224.872 275.845 224.872 275.845C224.872 275.845 226.068 278.52 229.447 278.52C233.388 278.45 238.527 276.62 240.146 270.989C241.694 265.358 240.286 259.304 236.837 257.404C233.388 255.504 223.816 255.644 218.185 257.756Z" fill="#FFC4A4"/>
<path d="M212.344 200.743C212.344 200.743 203.475 213.342 206.854 229.39C209.739 243.256 215.23 259.375 215.23 259.375C215.23 259.375 220.931 267.54 236.838 257.263L236.416 231.15C236.416 231.15 242.751 207.922 239.724 200.25C232.756 182.935 220.86 186.384 212.344 200.743Z" fill="#DD915F"/>
<path d="M246.198 132.257C246.198 132.257 232.332 132.538 236.414 142.463C240.497 152.317 247.535 155.484 246.902 160.13C246.268 164.775 234.303 175.052 234.303 175.052C234.303 175.052 247.887 177.515 247.676 186.525C247.676 186.525 260.627 182.302 268.511 171.321C276.394 160.341 263.865 131.835 246.198 132.257Z" fill="#DD915F"/>
<path d="M237.892 173.292C233.669 174.418 231.206 177.867 228.953 181.457C227.264 184.132 225.223 189.059 227.616 191.945C228.742 193.282 230.854 193.704 232.262 192.648C232.05 194.338 233.106 196.097 234.655 196.801C236.203 197.505 238.174 197.012 239.3 195.675C239.793 197.153 241.201 198.209 242.749 198.35C244.298 198.491 245.846 197.857 246.972 196.801C247.887 195.957 248.521 194.76 248.38 193.564C248.169 192.367 246.902 191.311 245.776 191.663C250.21 187.721 252.322 181.387 248.099 176.46C245.776 173.785 241.904 172.518 238.456 173.292C238.174 173.222 238.033 173.222 237.892 173.292Z" fill="#FFC4A4"/>
<path d="M166.732 52.7199C166.732 52.7199 170.111 -0.140493 182.429 0.000280673C191.72 0.0706673 208.049 21.6794 210.443 33.3635C210.443 33.3635 179.824 47.2297 166.732 52.7199Z" fill="#AF673F"/>
<path d="M202.066 29.9146C202.066 29.9146 188.904 30.7593 174.686 39.628C174.686 39.628 176.093 10.6991 184.329 8.23556C189.044 6.9686 200.377 22.524 202.066 29.9146Z" fill="#F7AF7F"/>
<path d="M300.748 85.5905C300.748 85.5905 322.216 37.1645 311.236 31.604C303.001 27.3808 278.506 38.9946 270.904 48.2152C270.904 48.2152 291.668 74.6102 300.748 85.5905Z" fill="#AF673F"/>
<path d="M279.703 49.6933C279.703 49.6933 289.487 58.2804 298.004 72.7801C298.004 72.7801 311.729 43.992 305.605 38.0795C302.086 34.6305 284.701 43.9216 279.703 49.6933Z" fill="#F7AF7F"/>
<path fill-rule="evenodd" clip-rule="evenodd" d="M242.468 33.9971C286.249 44.6958 305.112 71.7947 300.678 85.5905C300.678 85.5905 290.754 107.27 279.14 116.842C262.951 130.145 243.313 134.791 215.792 127.189C190.241 120.15 175.39 106.425 168.422 88.4763C162.439 73.2024 166.662 52.6495 166.662 52.6495C169.125 34.1378 198.688 23.2983 242.468 33.9971Z" fill="#DD915F"/>
<mask id="mask0_715_22801" style="mask-type:luminance" maskUnits="userSpaceOnUse" x="165" y="29" width="137" height="102">
<path d="M242.468 33.9971C286.249 44.6958 305.112 71.7947 300.678 85.5905C300.678 85.5905 290.754 107.27 279.14 116.842C262.951 130.145 243.313 134.791 215.792 127.189C190.241 120.15 175.39 106.425 168.422 88.4763C162.439 73.2024 166.662 52.6495 166.662 52.6495C169.125 34.1378 198.688 23.2983 242.468 33.9971Z" fill="white"/>
</mask>
<g mask="url(#mask0_715_22801)">
<path d="M227.266 20.9054C227.266 20.9054 232.193 37.7278 228.04 61.7297C223.254 89.2508 187.92 91.2217 155.19 69.4018C155.19 69.4018 148.433 48.5674 161.455 28.7183C174.546 8.79891 227.266 20.9054 227.266 20.9054Z" fill="#875844"/>
</g>
<mask id="mask1_715_22801" style="mask-type:luminance" maskUnits="userSpaceOnUse" x="165" y="29" width="137" height="102">
<path d="M242.468 33.9971C286.249 44.6958 305.112 71.7947 300.678 85.5905C300.678 85.5905 290.754 107.27 279.14 116.842C262.951 130.145 243.313 134.791 215.792 127.189C190.241 120.15 175.39 106.425 168.422 88.4763C162.439 73.2024 166.662 52.6495 166.662 52.6495C169.125 34.1378 198.688 23.2983 242.468 33.9971Z" fill="white"/>
</mask>
<g mask="url(#mask1_715_22801)">
<path d="M255.7 27.8735C255.7 27.8735 243.594 40.5431 236.133 63.7707C227.616 90.3769 258.093 108.537 297.158 104.243C297.158 104.243 312.784 88.8988 310.391 65.2488C307.998 41.5989 255.7 27.8735 255.7 27.8735Z" fill="#875844"/>
</g>
<path d="M265.837 80.3818C265.697 82.2119 264.078 83.4788 262.318 83.3381C260.558 83.1973 259.221 81.5784 259.362 79.8187C259.503 77.9887 261.121 76.7217 262.881 76.8625C264.641 77.0032 265.978 78.5518 265.837 80.3818Z" fill="white"/>
<path d="M280.619 78.6923C281.534 68.6974 274.143 59.8991 264.148 58.9841C254.153 58.069 245.355 65.4596 244.44 75.4545C243.525 85.4494 250.915 94.2478 260.91 95.1628C270.905 96.0074 279.704 88.6168 280.619 78.6923Z" fill="white"/>
<path d="M220.507 63.9113C221.422 53.9164 214.032 45.1181 204.037 44.2031C194.042 43.288 185.244 50.6786 184.329 60.6735C183.414 70.6684 190.804 79.4668 200.799 80.3818C210.794 81.2968 219.592 73.9062 220.507 63.9113Z" fill="white"/>
<path d="M205.867 60.3921C205.726 62.2221 204.107 63.4891 202.348 63.3483C200.518 63.2075 199.251 61.5886 199.392 59.829C199.532 57.9989 201.151 56.732 202.911 56.8727C204.741 57.0135 206.078 58.562 205.867 60.3921Z" fill="white"/>
<path d="M258.517 66.586C264.64 67.149 269.215 72.5688 268.652 78.6925C268.089 84.8161 262.669 89.3912 256.546 88.8281C250.422 88.265 245.847 82.8453 246.41 76.7216C246.973 70.598 252.393 66.0229 258.517 66.586Z" fill="#0B1411"/>
<path d="M263.513 78.3405C265.343 78.4813 266.892 77.1439 267.033 75.3842C267.173 73.6246 265.906 72.0057 264.076 71.8649C262.246 71.7241 260.698 73.0615 260.557 74.8211C260.416 76.5808 261.754 78.1997 263.513 78.3405Z" fill="white"/>
<path d="M195.873 64.3334C196.436 58.2098 201.856 53.6347 207.979 54.1978C214.103 54.7609 218.678 60.1806 218.115 66.3043C217.552 72.4279 212.132 77.003 206.008 76.44C199.885 75.9472 195.38 70.5275 195.873 64.3334ZM202.911 56.8725C201.152 56.7317 199.533 58.069 199.392 59.8287C199.251 61.5884 200.518 63.2073 202.348 63.348C204.108 63.4888 205.727 62.1515 205.868 60.3918C206.079 58.5617 204.742 57.0132 202.911 56.8725Z" fill="#0B1411"/>
<path d="M227.968 83.4789C227.968 83.4789 207.204 77.7776 197.772 88.6171C189.466 98.1897 199.954 111.915 220.155 116.842C240.356 121.769 251.97 114.871 253.659 103.68C254.926 95.3038 237.188 85.8016 227.968 83.4789Z" fill="#FFC4A4"/>
<path d="M225.011 95.7262C225.575 96.6413 230.079 103.258 237.329 102.202C237.329 102.202 236.485 107.34 232.121 109.874C232.121 109.874 230.431 105.228 224.167 103.328C217.902 101.428 212.694 104.313 212.694 104.313C210.582 100.372 211.92 96.3597 211.92 96.3597C211.92 96.3597 219.31 99.4567 224.941 95.6559C224.941 95.5855 225.011 95.6559 225.011 95.7262Z" fill="#0A1311"/>
<path d="M224.166 103.328C230.431 105.228 232.12 109.874 232.12 109.874C229.868 111.211 226.63 111.774 222.125 110.648C216.776 109.311 214.031 106.777 212.693 104.313C212.693 104.243 217.972 101.357 224.166 103.328Z" fill="#CB542F"/>
<path fill-rule="evenodd" clip-rule="evenodd" d="M226.66 89.2009C227.037 89.2943 227.268 89.6759 227.174 90.0533L225.485 96.8808C225.392 97.2581 225.01 97.4883 224.633 97.395C224.255 97.3016 224.025 96.92 224.118 96.5427L225.808 89.7152C225.901 89.3378 226.283 89.1076 226.66 89.2009Z" fill="#0B1411"/>
<path fill-rule="evenodd" clip-rule="evenodd" d="M214.401 85.5203C214.401 85.5203 214.401 85.5203 214.383 86.224C214.364 86.9276 214.364 86.9276 214.364 86.9276L214.21 86.9237C214.107 86.9211 213.953 86.9174 213.751 86.9127C213.346 86.9032 212.747 86.8897 211.967 86.8738C210.406 86.8419 208.125 86.8002 205.241 86.7606C199.472 86.6815 191.294 86.6111 181.656 86.6463C181.267 86.6477 180.951 86.3337 180.949 85.945C180.948 85.5563 181.262 85.24 181.651 85.2386C191.298 85.2033 199.485 85.2738 205.26 85.353C208.147 85.3926 210.432 85.4344 211.995 85.4664C212.777 85.4823 213.378 85.4958 213.784 85.5053C213.987 85.5101 214.141 85.5138 214.245 85.5164L214.401 85.5203ZM215.086 86.2424C215.076 86.631 214.753 86.9378 214.364 86.9276L214.383 86.224L214.401 85.5203C214.79 85.5305 215.097 85.8538 215.086 86.2424Z" fill="#0B1411"/>
<path fill-rule="evenodd" clip-rule="evenodd" d="M210.454 88.8987C210.454 88.8987 210.454 88.8987 210.442 89.6024L210.454 88.8987C210.843 88.9056 211.152 89.2262 211.146 89.6149C211.139 90.0036 210.818 90.3131 210.429 90.3062L210.419 90.306L210.386 90.3056C210.357 90.3052 210.312 90.3046 210.253 90.3041C210.134 90.303 209.957 90.3018 209.725 90.3018C209.261 90.3016 208.578 90.3057 207.704 90.3227C205.956 90.3566 203.447 90.4419 200.407 90.6478C194.324 91.0598 186.127 91.9535 177.657 93.8785C177.278 93.9647 176.901 93.7272 176.815 93.3482C176.728 92.9691 176.966 92.592 177.345 92.5058C185.908 90.5596 194.182 89.6584 200.311 89.2433C203.377 89.0357 205.909 88.9495 207.677 88.9152C208.56 88.8981 209.253 88.8939 209.725 88.894C209.962 88.8941 210.143 88.8953 210.266 88.8964C210.327 88.897 210.374 88.8975 210.405 88.898L210.441 88.8985L210.454 88.8987Z" fill="#0B1411"/>
<path fill-rule="evenodd" clip-rule="evenodd" d="M214.311 92.1526C214.341 92.5401 214.051 92.8786 213.663 92.9086C206.911 93.4307 199.823 95.2264 194.408 96.9001C191.704 97.7359 189.424 98.5388 187.822 99.1324C187.02 99.4291 186.389 99.6734 185.958 99.8432C185.743 99.9281 185.578 99.9944 185.467 100.039C185.412 100.062 185.37 100.079 185.343 100.09L185.312 100.103L185.302 100.107C184.943 100.256 184.531 100.086 184.382 99.7265C184.233 99.3675 184.403 98.9556 184.762 98.8066L185.032 99.4567C184.762 98.8066 184.762 98.8067 184.762 98.8066L184.775 98.8015L184.808 98.7876C184.838 98.7755 184.882 98.7577 184.939 98.7345C185.053 98.6881 185.222 98.6202 185.442 98.5337C185.881 98.3606 186.521 98.1127 187.333 97.8123C188.955 97.2115 191.259 96.3999 193.992 95.5552C199.451 93.868 206.652 92.0388 213.555 91.5051C213.942 91.4751 214.281 91.765 214.311 92.1526Z" fill="#0B1411"/>
<path fill-rule="evenodd" clip-rule="evenodd" d="M242.257 92.8834C242.428 92.5341 242.849 92.3892 243.198 92.5598L242.89 93.1923L242.581 93.8248C242.231 93.6542 242.087 93.2327 242.257 92.8834ZM242.89 93.1923C242.581 93.8248 242.581 93.8247 242.581 93.8248L242.72 93.8929C242.812 93.9383 242.95 94.006 243.132 94.0955C243.496 94.2744 244.035 94.5403 244.735 94.8874C246.134 95.5818 248.178 96.6017 250.755 97.903C255.907 100.506 263.188 104.234 271.701 108.736C272.044 108.918 272.47 108.787 272.652 108.443C272.834 108.1 272.702 107.674 272.359 107.492C263.837 102.985 256.548 99.2524 251.389 96.6465C248.81 95.3435 246.763 94.3221 245.36 93.6264C244.659 93.2785 244.119 93.012 243.754 92.8324C243.571 92.7426 243.433 92.6745 243.34 92.6289L243.198 92.5598C243.198 92.5598 243.198 92.5598 242.89 93.1923Z" fill="#0B1411"/>
<path fill-rule="evenodd" clip-rule="evenodd" d="M244.16 97.7342C244.334 97.3865 244.757 97.2456 245.105 97.4194L244.79 98.049L244.475 98.6785C244.127 98.5047 243.987 98.0819 244.16 97.7342ZM244.79 98.049L244.475 98.6785L244.484 98.6831L244.514 98.698C244.54 98.7113 244.58 98.7315 244.633 98.7585C244.738 98.8124 244.896 98.8933 245.101 99.0005C245.512 99.2149 246.116 99.5344 246.882 99.9533C248.414 100.791 250.597 102.026 253.195 103.612C258.393 106.785 265.241 111.357 271.856 116.957C272.153 117.208 272.597 117.171 272.848 116.875C273.1 116.578 273.063 116.134 272.766 115.883C266.078 110.221 259.166 105.607 253.929 102.41C251.309 100.811 249.106 99.5652 247.557 98.7182C246.782 98.2946 246.171 97.9708 245.752 97.7524C245.543 97.6432 245.382 97.5604 245.273 97.5047C245.218 97.4768 245.177 97.4557 245.149 97.4415L245.116 97.4253L245.105 97.4194C245.105 97.4193 245.105 97.4194 244.79 98.049Z" fill="#0B1411"/>
<path fill-rule="evenodd" clip-rule="evenodd" d="M240.11 98.5226C240.315 98.1922 240.749 98.0906 241.079 98.2956C246.985 101.96 252.536 106.911 256.6 110.931C258.635 112.943 260.302 114.728 261.462 116.011C262.042 116.652 262.495 117.168 262.803 117.524C262.958 117.702 263.076 117.841 263.156 117.935C263.196 117.982 263.227 118.018 263.247 118.042L263.271 118.07L263.277 118.078L263.278 118.079L263.279 118.08C263.279 118.08 263.279 118.08 262.739 118.532L263.279 118.08C263.528 118.379 263.488 118.823 263.19 119.072C262.892 119.321 262.448 119.281 262.199 118.983L262.198 118.982L262.197 118.981L262.192 118.975L262.171 118.949C262.151 118.926 262.122 118.892 262.084 118.847C262.006 118.756 261.891 118.621 261.739 118.446C261.437 118.097 260.99 117.588 260.418 116.955C259.272 115.688 257.623 113.922 255.61 111.932C251.579 107.945 246.114 103.077 240.337 99.4917C240.006 99.2868 239.905 98.8529 240.11 98.5226Z" fill="#0B1411"/>
<path d="M230.22 79.115C236.344 80.8747 240.637 84.4644 239.863 87.1391C239.089 89.8138 226.49 89.8841 226.49 89.8841C226.49 89.8841 216.987 83.5494 217.762 80.8747C218.536 78.2 224.167 77.3553 230.22 79.115Z" fill="#CB542F"/>
</svg>
