<svg width="400" height="280" viewBox="0 0 400 280" fill="none" xmlns="http://www.w3.org/2000/svg">
<path d="M298.174 222.128L259.033 200.136L125.199 199.127L85.1157 219.975L298.174 222.128Z" fill="#6973BD"/>
<path d="M87.6714 222.8C88.9492 224.414 104.417 243.581 91.3703 272.567H290.44C290.44 272.567 309.54 270.146 306.917 247.953C304.294 225.759 283.311 224.818 283.311 224.818L87.6714 222.8Z" fill="#EDEDF7"/>
<path d="M89.353 225.154C89.353 225.154 283.984 220.446 298.174 233.023C312.365 245.599 298.174 262.749 298.174 262.749C304.496 234.973 281.294 236.587 281.294 236.587L93.9262 234.502C92.4467 230.265 90.6308 227.104 89.353 225.154Z" fill="#D0D2EA"/>
<path d="M80.4756 224.75C80.4756 222.195 82.5604 220.043 85.1161 220.043L290.44 220.312C290.44 220.312 311.827 220.917 313.71 245.868C315.66 270.752 297.166 277.275 290.44 278.822C284.455 280.167 109.933 279.091 85.1833 278.889C82.5604 278.889 80.4756 276.737 80.4756 274.114V273.307C80.4756 270.684 82.6277 268.532 85.2506 268.532H281.294C281.294 268.532 299.519 267.12 299.183 248.424C299.183 248.424 299.923 229.256 281.294 229.929C264.884 230.467 108.251 228.987 85.3178 229.525C82.6277 229.525 80.4756 227.373 80.4756 224.75Z" fill="#828FC4"/>
<path d="M96.2129 244.456H265.086" stroke="#D0D2EA" stroke-width="5.3817" stroke-miterlimit="10" stroke-linecap="round" stroke-linejoin="round"/>
<path d="M95.9434 257.234H226.549" stroke="#D0D2EA" stroke-width="5.3817" stroke-miterlimit="10" stroke-linecap="round" stroke-linejoin="round"/>
<path d="M177.387 127.704C177.387 127.704 145.576 145.391 135.959 147.409C126.342 149.427 113.833 145.19 113.833 145.19L102.871 153.395C102.871 153.395 112.152 166.711 126.006 170.679C140.196 174.714 151.898 173.1 165.618 161.734C179.338 150.368 195.747 127.233 177.387 127.704Z" fill="#E2A659"/>
<path d="M340.073 62.5355C342.427 63.2081 344.982 64.4859 346.462 66.638C347.941 68.7228 348.278 71.4802 346.798 75.1119C344.848 80.0214 341.485 83.384 337.786 86.2087C334.087 89.0333 330.052 91.2527 326.219 93.5393C325.748 93.8083 325.277 94.1446 324.806 94.4136C324.336 94.7498 323.865 95.0188 323.394 95.2879C322.923 95.5569 322.452 95.8931 322.049 96.1622C321.578 96.4984 321.107 96.7002 320.704 97.0364C318.955 98.1798 317.341 99.5248 315.727 100.803C314.987 101.475 314.18 102.08 313.508 102.82C313.172 103.156 312.835 103.493 312.499 103.829C312.163 104.165 311.894 104.502 311.557 104.838C310.347 106.183 309.271 107.393 308.531 108.604C308.531 108.604 308.195 109.075 307.791 110.016C307.321 110.958 306.715 112.303 306.043 114.119C305.437 115.935 304.832 118.288 304.361 121.046C303.891 123.87 303.622 127.166 303.554 130.798C303.487 134.093 303.756 137.926 304.092 142.298C304.429 146.669 304.899 151.444 304.967 156.623C305.034 159.178 304.899 161.869 304.698 164.559C304.563 165.904 304.429 167.249 304.227 168.594C304.092 169.266 304.025 169.939 303.891 170.611C303.756 171.284 303.622 171.957 303.42 172.629C302.209 178.009 300.057 183.053 297.502 187.156C297.233 187.627 296.896 188.165 296.56 188.703C296.156 189.241 295.753 189.846 295.282 190.451C294.811 191.056 294.408 191.729 293.803 192.334C293.265 192.94 292.659 193.612 292.054 194.285C289.566 196.908 286.405 199.732 282.706 202.153C279.007 204.574 274.703 206.592 270.264 208.072C265.825 209.551 261.05 210.56 256.477 211.031C251.904 211.501 247.331 211.569 243.094 211.367C238.857 211.098 234.889 210.56 231.257 209.955C223.994 208.677 218.277 206.928 214.847 205.852C212.426 205.112 209.602 203.835 207.382 202.086C206.239 201.212 205.297 200.203 204.625 199.06C203.952 197.916 203.482 196.706 203.414 195.495C203.28 193.209 204.759 190.115 206.71 187.492C208.727 184.869 211.216 182.852 213.502 182.65C215.049 182.583 216.529 183.121 217.941 183.726C222.783 185.609 229.778 187.761 237.848 188.635C245.851 189.644 254.93 189.308 262.597 186.483L264.009 185.945C264.48 185.743 264.951 185.542 265.354 185.34C266.296 184.936 267.103 184.466 267.977 183.995C268.381 183.726 268.784 183.457 269.188 183.255C269.591 182.986 269.995 182.717 270.331 182.448L271.475 181.641C271.811 181.372 272.147 181.036 272.483 180.767L273.021 180.296C273.156 180.161 273.358 179.96 273.492 179.825C273.828 179.489 274.097 179.22 274.434 178.884C274.703 178.547 274.972 178.211 275.241 177.875L275.644 177.404C275.779 177.27 275.913 177.068 275.98 176.866C276.25 176.53 276.451 176.194 276.72 175.857C276.922 175.521 277.124 175.117 277.326 174.781C277.796 174.109 278.065 173.302 278.402 172.629C281.024 166.778 280.957 160.12 280.688 155.009C280.486 151.31 280.016 147.476 279.612 143.374C279.141 139.271 278.738 134.9 278.671 130.192C278.603 125.754 278.805 121.248 279.41 116.54C280.016 111.832 281.092 107.057 282.773 102.282C284.522 97.5745 286.876 92.934 289.767 88.7643C290.507 87.7555 291.247 86.6794 292.054 85.6706C292.861 84.6618 293.668 83.7203 294.542 82.7787L297.165 80.0214C298.107 79.1471 299.048 78.2728 299.99 77.3985C303.891 74.0358 308.195 71.1439 312.835 68.7901C317.408 66.4362 322.251 64.6876 327.227 63.4098C333.011 61.7957 337.315 61.7285 340.073 62.5355Z" fill="#DB9A46"/>
<path d="M340.073 62.5355C337.248 61.7285 333.011 61.863 327.429 63.2753C326.42 63.5443 325.412 63.8133 324.403 64.0823L321.444 65.0239C319.493 65.7637 317.543 66.5035 315.66 67.3777C311.826 69.1263 308.195 71.2112 304.765 73.6323C301.402 76.1207 298.174 78.8108 295.349 81.9044C294.61 82.6442 293.937 83.4513 293.332 84.2583C292.659 85.0653 291.987 85.8051 291.381 86.6794C290.104 88.2935 288.96 90.0421 287.884 91.8579C288.153 91.7907 288.557 91.6562 289.028 91.3871C292.861 89.0333 296.627 86.8812 300.461 84.8636C304.294 82.846 308.128 80.9629 312.028 79.2816C311.423 79.7523 310.885 80.2904 310.414 80.8284C309.876 81.3664 309.338 81.9044 308.867 82.4425L307.388 84.1238L306.648 84.9981L305.975 85.8724L304.698 87.621C304.294 88.2263 303.958 88.8315 303.554 89.4368C302.814 90.6474 302.142 91.9252 301.537 93.1357C301.133 93.8755 300.931 95.0188 301.604 95.2878C301.94 95.4223 302.344 95.3551 302.68 95.2206C305.505 94.4135 308.06 93.0012 310.28 91.2526C309.943 91.9252 309.405 92.4632 308.935 93.0012C308.464 93.6065 307.993 94.1445 307.589 94.7498C307.186 95.3551 306.917 96.0949 306.782 96.8347C306.715 97.5745 306.85 98.247 307.253 98.785C307.724 99.3903 308.397 99.7266 309.069 99.9956C310.28 100.466 311.49 100.668 312.566 100.735C313.71 100.803 314.853 100.803 315.929 100.601C318.216 98.6505 320.838 96.9019 323.596 95.1533C326.353 93.4048 329.245 91.7234 332.204 89.9748C335.096 88.159 337.988 86.2759 340.544 83.922C341.821 82.7787 343.032 81.4337 344.108 79.9541C345.184 78.5418 346.126 76.8605 346.798 75.0446C348.278 71.4129 347.941 68.6556 346.462 66.5707C345.05 64.4859 342.494 63.208 340.073 62.5355Z" fill="#EBD9CD"/>
<path d="M166.963 248.894C166.963 248.894 152.638 259.386 155.126 266.178C157.615 272.971 160.91 270.214 160.91 270.214C160.91 270.214 161.717 277.275 166.963 275.997C172.276 274.719 172.276 274.719 172.276 274.719C172.276 274.719 170.998 277.813 177.791 276.132C184.583 274.45 186.13 265.708 187.542 258.377C189.022 251.114 177.32 244.456 166.963 248.894Z" fill="#E6CFC0"/>
<path d="M141.609 241.429C141.609 241.429 148.132 247.213 142.618 255.619C137.103 264.093 131.252 269.474 126.746 265.976L125.737 263.824C125.737 263.824 123.719 267.12 119.079 265.102C115.918 263.69 117.599 260.663 117.599 260.663C117.599 260.663 109.933 261.605 110.874 256.09C112.219 247.952 132.059 235.376 141.609 241.429Z" fill="#E6CFC0"/>
<path d="M166.56 186.281C166.56 186.281 161.583 182.851 160.44 182.784C154.387 182.246 131.924 185.878 121.971 200.674C110.134 218.294 122.845 244.052 122.845 244.052C122.845 244.052 134.278 249.298 143.559 244.052L147.863 225.894C147.863 225.894 172.478 225.894 177.724 212.577C182.97 199.261 166.56 186.281 166.56 186.281Z" fill="#E2A659"/>
<path d="M205.701 115.464C205.701 115.464 209.198 138.532 216.058 154.74C222.918 170.948 228.096 188.299 222.111 208.273C216.125 228.315 185.189 229.794 165.484 214.662C145.778 199.53 185.861 115.8 185.861 115.8L205.701 115.464Z" fill="#CB9035"/>
<path d="M185.592 121.449C185.592 121.449 160.17 145.862 151.024 175.319C141.878 204.776 155.799 225.557 187.072 221.051C205.701 218.361 201.128 185.205 198.908 164.962C195.68 135.505 196.42 116.069 196.42 116.069L185.592 121.449Z" fill="#E6CFC0"/>
<path d="M206.441 135.842C206.441 135.842 211.283 133.42 215.923 139.002C222.783 147.207 224.397 151.108 232.737 169.872C237.31 180.161 248.07 197.916 248.07 197.916L234.351 207.13C234.351 207.13 216.529 196.168 208.996 178.077C201.464 159.985 196.151 138.599 206.441 135.842Z" fill="#E2A659"/>
<path d="M234.687 201.481C234.687 201.481 237.982 195.899 248.003 197.311C248.003 197.311 261.319 197.177 265.354 202.96C269.39 208.744 267.103 215.066 261.588 214.528C261.588 214.528 256.141 220.85 251.03 216.814C251.03 216.814 246.187 221.791 240.942 218.16C235.696 214.528 229.441 207.399 234.687 201.481Z" fill="#EBD9CD"/>
<path d="M208.795 194.217C208.795 194.217 189.359 188.904 174.563 200.203C159.767 211.501 165.484 250.508 165.484 250.508C165.484 250.508 169.519 260.865 185.66 253.804L196.151 237.663C196.151 237.663 219.152 232.283 221.842 216.276C224.465 200.337 208.795 194.217 208.795 194.217Z" fill="#E2A659"/>
<path d="M135.488 58.2985C135.488 58.2985 135.623 2.61285 148.603 2.00757C158.287 1.5368 176.849 23.1251 180.144 35.2307C180.077 35.1634 148.872 51.6405 135.488 58.2985Z" fill="#BB7942"/>
<path d="M171.133 32.137C171.133 32.137 157.413 33.8855 143.021 44.108C143.021 44.108 142.685 13.6423 151.159 10.5487C155.933 8.80008 168.846 24.4028 171.133 32.137Z" fill="#EBD9CD"/>
<path d="M278.133 84.1911C278.133 84.1911 297.502 32.0026 285.665 26.8914C276.721 22.9907 251.77 36.7103 244.439 46.8656C244.439 46.8656 267.91 73.2288 278.133 84.1911Z" fill="#BB7942"/>
<path d="M253.854 47.8744C253.854 47.8744 264.682 56.281 274.569 70.875C274.569 70.875 287.145 39.804 280.285 33.953C276.317 30.6576 258.697 41.4853 253.854 47.8744Z" fill="#EBD9CD"/>
<path fill-rule="evenodd" clip-rule="evenodd" d="M213.772 33.8187C260.378 42.2926 281.9 69.3957 278.133 84.1914C278.133 84.1914 269.121 107.595 257.487 118.356C241.346 133.353 221.035 139.474 191.713 133.286C164.475 127.57 147.998 114.119 139.524 95.7589C132.328 80.0889 135.422 58.2989 135.422 58.2989C136.834 38.5937 167.165 25.3448 213.772 33.8187Z" fill="#EBD9CD"/>
<path d="M145.442 50.43C166.425 36.1051 185.929 56.4828 185.929 56.4828C185.929 56.4828 183.844 43.1667 187.61 31.2629C156.068 30.9939 136.565 42.6287 135.489 58.2987C135.489 58.2987 133.606 71.6821 136.229 84.9982L138.986 86.007C138.986 86.007 129.302 61.3923 145.442 50.43Z" fill="#E2A659"/>
<path d="M213.772 33.8181C213.503 33.7508 213.234 33.7508 212.897 33.6836C208.459 43.9061 205.5 60.0469 205.5 60.0469C205.5 60.0469 230.921 47.8068 245.515 68.588C256.746 84.527 239.059 104.232 239.059 104.232C239.059 104.232 254.46 105.981 267.507 105.51C273.963 95.0858 278.133 84.1908 278.133 84.1908C281.899 69.3951 260.378 42.292 213.772 33.8181Z" fill="#E2A659"/>
<path d="M228.904 82.4425C228.836 84.3256 227.29 85.8051 225.406 85.8051C223.523 85.7379 222.044 84.1911 222.111 82.308C222.178 80.4249 223.725 78.9453 225.608 78.9453C227.491 78.9453 228.971 80.5594 228.904 82.4425Z" fill="white"/>
<path d="M243.632 83.384C243.901 72.8925 235.629 64.0823 225.138 63.8133C214.646 63.5443 205.836 71.8164 205.567 82.3079C205.298 92.7994 213.57 101.61 224.062 101.879C234.553 102.148 243.296 93.8755 243.632 83.384Z" fill="#7EAA00"/>
<path d="M179.674 71.7492C179.943 61.2577 171.671 52.4475 161.18 52.1785C150.688 51.9095 141.878 60.1816 141.609 70.6731C141.34 81.1646 149.612 89.9748 160.104 90.2438C170.595 90.5801 179.338 82.308 179.674 71.7492Z" fill="#7EAA00"/>
<path d="M219.69 72.0854C226.213 72.2871 231.325 77.6674 231.123 84.1237C230.921 90.58 225.541 95.6912 219.085 95.5567C212.628 95.355 207.517 89.9747 207.652 83.5184C207.853 77.0621 213.234 71.9509 219.69 72.0854Z" fill="#0B1411"/>
<path d="M214.848 92.7324C216.731 92.7996 218.345 91.3201 218.345 89.3697C218.412 87.4866 216.932 85.8726 215.049 85.8726C213.166 85.8053 211.552 87.2849 211.552 89.2352C211.418 91.1183 212.964 92.6651 214.848 92.7324Z" fill="white"/>
<path d="M153.849 73.7669C154.051 67.3106 159.431 62.1994 165.887 62.3339C172.343 62.5357 177.455 67.9159 177.32 74.3722C177.118 80.8285 171.738 85.9398 165.282 85.8053C158.758 85.6708 153.714 80.2905 153.849 73.7669Z" fill="#0B1411"/>
<path d="M160.238 74.3049C158.355 74.2377 156.741 75.7173 156.741 77.6676C156.674 79.5507 158.153 81.1648 160.036 81.1648C161.919 81.232 163.534 79.7524 163.534 77.8021C163.668 75.919 162.121 74.3722 160.238 74.3049Z" fill="white"/>
<path d="M189.426 88.1592C189.426 88.1592 167.3 83.5187 158.086 95.4898C149.948 106.049 161.852 119.768 183.373 123.669C204.894 127.57 216.663 119.566 217.672 107.663C218.412 98.8524 199.245 89.975 189.426 88.1592Z" fill="white"/>
<path d="M187.072 101.139C187.745 102.08 192.923 108.738 200.388 107.124C200.388 107.124 200.388 109.613 195.95 112.572C195.95 112.572 193.865 107.864 187.207 106.25C180.549 104.636 175.236 107.999 175.236 107.999C172.815 104.031 173.42 102.618 173.42 102.618C173.42 102.618 181.356 105.443 187.072 101.072C187.005 101.072 187.072 101.072 187.072 101.139Z" fill="#0A1311"/>
<path d="M187.207 106.25C193.865 107.864 195.95 112.572 195.95 112.572C193.663 114.119 190.301 114.926 185.526 114.051C179.809 112.975 176.783 110.554 175.236 107.998C175.236 107.998 180.549 104.636 187.207 106.25Z" fill="#CB542F"/>
<path fill-rule="evenodd" clip-rule="evenodd" d="M188.471 93.9695C189.014 94.074 189.369 94.5983 189.264 95.1406L187.852 102.471C187.747 103.014 187.223 103.368 186.681 103.264C186.138 103.159 185.783 102.635 185.888 102.093L187.3 94.7622C187.405 94.2199 187.929 93.865 188.471 93.9695Z" fill="#0B1411"/>
<path fill-rule="evenodd" clip-rule="evenodd" d="M171.534 92.4807C171.534 92.4808 171.534 92.4808 171.402 93.472C171.269 94.4632 171.269 94.4632 171.269 94.4632L171.185 94.452L170.936 94.4193C170.716 94.3906 170.392 94.3486 169.976 94.2955C169.144 94.1894 167.943 94.0389 166.466 93.8617C163.513 93.5071 159.463 93.0456 155.071 92.6178C146.248 91.7582 136.177 91.0486 130.811 91.5753C130.261 91.6293 129.772 91.2274 129.718 90.6778C129.664 90.1281 130.066 89.6388 130.616 89.5849C136.212 89.0355 146.485 89.7719 155.265 90.6272C159.676 91.0569 163.742 91.5201 166.705 91.8759C168.187 92.0539 169.393 92.205 170.229 92.3116C170.648 92.365 170.973 92.4072 171.195 92.4361L171.447 92.4692L171.534 92.4807ZM172.393 93.6043C172.32 94.1517 171.817 94.5362 171.269 94.4632L171.402 93.472L171.534 92.4807C172.081 92.5538 172.466 93.0569 172.393 93.6043Z" fill="#0B1411"/>
<path fill-rule="evenodd" clip-rule="evenodd" d="M167.09 94.8947C167.09 94.8947 167.09 94.8947 167.031 95.8929L167.09 94.8947C167.641 94.9277 168.062 95.4014 168.029 95.9527C167.996 96.504 167.522 96.9241 166.971 96.8911C166.971 96.8911 166.971 96.8911 166.971 96.8911L166.968 96.891L166.957 96.8903L166.911 96.8878C166.87 96.8856 166.808 96.8823 166.725 96.8783C166.559 96.8703 166.311 96.8593 165.988 96.8477C165.34 96.8245 164.389 96.7988 163.178 96.7889C160.758 96.769 157.305 96.8128 153.188 97.0675C144.945 97.5775 134.072 98.9308 123.484 102.294C122.958 102.461 122.396 102.17 122.228 101.643C122.061 101.117 122.352 100.555 122.879 100.387C133.678 96.9575 144.729 95.5871 153.064 95.0714C157.236 94.8133 160.735 94.7688 163.195 94.7889C164.425 94.799 165.395 94.8252 166.059 94.849C166.392 94.8609 166.648 94.8722 166.821 94.8806C166.908 94.8848 166.974 94.8883 167.02 94.8907L167.071 94.8936L167.085 94.8944L167.09 94.8947Z" fill="#0B1411"/>
<path fill-rule="evenodd" clip-rule="evenodd" d="M172.196 98.8971C172.246 99.4472 171.84 99.9332 171.29 99.9826C160.147 100.983 150.586 103.386 143.812 105.538C140.425 106.614 137.738 107.627 135.901 108.369C134.983 108.74 134.277 109.043 133.803 109.252C133.566 109.357 133.387 109.438 133.268 109.493C133.209 109.52 133.164 109.541 133.135 109.555L133.103 109.57L133.096 109.573L133.095 109.574L133.095 109.574L133.095 109.574C132.596 109.811 131.999 109.6 131.762 109.102C131.524 108.603 131.735 108.006 132.234 107.768L132.664 108.671C132.234 107.768 132.234 107.768 132.234 107.768L132.235 107.768L132.238 107.766L132.249 107.761L132.287 107.743C132.32 107.728 132.369 107.705 132.433 107.676C132.56 107.617 132.748 107.532 132.995 107.423C133.487 107.205 134.213 106.894 135.152 106.514C137.031 105.756 139.766 104.725 143.206 103.632C150.084 101.447 159.791 99.0074 171.111 97.9906C171.661 97.9412 172.147 98.347 172.196 98.8971Z" fill="#0B1411"/>
<path fill-rule="evenodd" clip-rule="evenodd" d="M205.467 99.5699C205.59 99.0317 206.127 98.6956 206.665 98.8194L206.441 99.794L206.217 100.769C205.679 100.645 205.343 100.108 205.467 99.5699ZM206.441 99.794C206.217 100.769 206.217 100.768 206.217 100.769L206.3 100.788L206.545 100.845C206.761 100.895 207.079 100.969 207.487 101.066C208.304 101.259 209.483 101.54 210.928 101.893C213.819 102.599 217.775 103.591 222.037 104.736C230.6 107.037 240.265 109.922 245.068 112.323C245.562 112.57 246.163 112.37 246.41 111.876C246.657 111.382 246.456 110.781 245.962 110.534C240.946 108.026 231.075 105.094 222.556 102.805C218.276 101.655 214.304 100.658 211.403 99.95C209.952 99.5958 208.769 99.3133 207.947 99.1193C207.537 99.0223 207.217 98.9474 206.999 98.8967L206.751 98.8391L206.665 98.8194C206.665 98.8193 206.665 98.8194 206.441 99.794Z" fill="#0B1411"/>
<path fill-rule="evenodd" clip-rule="evenodd" d="M208.713 103.402C208.875 102.874 209.434 102.577 209.962 102.738L209.67 103.695C209.962 102.738 209.962 102.738 209.962 102.738L209.968 102.74L209.981 102.744L210.03 102.759C210.073 102.773 210.137 102.793 210.22 102.819C210.385 102.872 210.629 102.951 210.945 103.056C211.576 103.266 212.494 103.581 213.65 104.002C215.961 104.844 219.224 106.112 223.041 107.817C230.667 111.224 240.533 116.392 249.431 123.422C249.864 123.765 249.938 124.393 249.596 124.827C249.253 125.26 248.624 125.334 248.191 124.991C239.469 118.1 229.764 113.012 222.225 109.643C218.458 107.96 215.24 106.71 212.965 105.882C211.828 105.467 210.927 105.158 210.313 104.954C210.005 104.851 209.77 104.775 209.612 104.725C209.532 104.699 209.473 104.681 209.433 104.668L209.39 104.655L209.379 104.652L209.377 104.651" fill="#0B1411"/>
<path fill-rule="evenodd" clip-rule="evenodd" d="M203.725 104.672C203.965 104.174 204.563 103.966 205.06 104.207C215.295 109.154 223.527 114.846 229.202 119.301C232.04 121.529 234.24 123.45 235.734 124.816C236.481 125.499 237.052 126.044 237.437 126.42C237.63 126.608 237.776 126.753 237.875 126.852C237.924 126.902 237.962 126.94 237.988 126.966L238.017 126.997L238.025 127.005L238.028 127.008C238.028 127.008 238.029 127.008 237.31 127.704L238.028 127.008C238.412 127.405 238.403 128.038 238.006 128.422C237.609 128.807 236.976 128.796 236.592 128.4L236.591 128.399L236.585 128.393L236.561 128.368C236.538 128.345 236.504 128.31 236.458 128.264C236.366 128.171 236.226 128.033 236.041 127.852C235.67 127.49 235.115 126.96 234.384 126.292C232.923 124.956 230.761 123.068 227.967 120.874C222.376 116.485 214.266 110.878 204.19 106.007C203.693 105.767 203.485 105.169 203.725 104.672Z" fill="#0B1411"/>
<path d="M191.511 83.384C198.034 84.7963 202.809 88.2935 202.137 91.1854C201.532 94.0773 188.283 94.9515 188.283 94.9515C188.283 94.9515 177.926 88.8988 178.531 86.0069C179.203 83.1822 184.987 81.9717 191.511 83.384Z" fill="#CB542F"/>
<path d="M54.1798 99.0539L69.1772 142.701C69.7153 144.652 71.5311 145.929 73.5487 145.728L127.15 143.777C133.001 143.508 135.287 137.926 134.547 135.371L120.962 90.2437C120.424 88.3606 118.541 87.0828 116.591 87.2846L60.5016 92.8666C57.9459 93.1356 52.7674 95.086 54.1798 99.0539Z" fill="#6973BD"/>
<path d="M53.1707 101.206L65.4108 145.795C65.9488 147.745 67.7646 149.023 69.7822 148.821L127.149 143.777C129.772 143.575 131.521 140.953 130.781 138.464L117.263 93.3372C116.725 91.4542 114.842 90.1763 112.892 90.3781L56.8024 95.9601C54.1795 96.2291 52.4309 98.7175 53.1707 101.206Z" fill="#828FC4"/>
<path d="M117.398 146.4C117.398 146.4 111.278 161.666 101.728 158.169C92.1777 154.672 86.0576 145.929 86.0576 137.321C86.0576 128.78 93.1192 133.017 93.1192 133.017C93.1192 133.017 94.5988 125.484 99.172 127.704C103.745 129.99 104.216 132.008 104.216 132.008C104.216 132.008 104.485 126.224 109.529 130.528C114.506 134.832 117.398 146.4 117.398 146.4Z" fill="#E6CFC0"/>
</svg>
