<svg width="400" height="280" viewBox="0 0 400 280" fill="none" xmlns="http://www.w3.org/2000/svg">
<path fill-rule="evenodd" clip-rule="evenodd" d="M86.6968 21.4075C121.931 -1.88081 164.754 26.3131 206.635 31.5883C251.143 37.1944 303.405 18.5816 332.838 52.411C366.314 90.8867 372.215 150.677 350.394 196.821C329.749 240.478 278.382 254.52 231.601 266.492C188.576 277.502 143.065 282.705 105.189 259.573C64.9926 235.024 37.5531 192.728 33.906 145.755C30.2402 98.5421 47.1685 47.534 86.6968 21.4075Z" fill="#DDE5FF"/>
<path d="M345.326 79.6351C346.294 80.6027 347.197 81.6994 347.842 82.9896C348.165 83.6347 348.423 84.2798 348.616 84.8604C348.81 85.5055 348.874 86.2151 348.939 86.8602C349.003 88.1504 348.616 89.4406 347.842 90.6018C347.068 91.763 345.842 92.8596 344.229 93.8918C342.036 95.311 339.843 96.2787 337.778 97.1818C335.779 98.0205 333.843 98.7301 332.037 99.3107C330.231 99.9558 328.553 100.472 326.876 100.923C325.328 101.375 323.715 101.891 322.038 102.343C320.49 102.794 319.006 103.31 317.587 103.826C317.264 103.955 316.877 104.149 316.555 104.278C316.232 104.407 315.909 104.601 315.587 104.73C314.942 105.052 314.232 105.375 313.587 105.762C312.232 106.471 310.942 107.245 309.781 108.149C308.62 109.052 307.523 109.89 306.685 110.793C306.685 110.793 306.62 110.858 306.426 111.052C306.297 111.245 306.104 111.503 305.781 111.89C305.201 112.6 304.491 113.696 303.717 115.116C302.878 116.535 302.104 118.341 301.395 120.47C301.266 120.986 301.072 121.502 300.943 122.083C300.814 122.663 300.685 123.179 300.556 123.76C300.363 124.341 300.363 124.921 300.298 125.566C300.234 125.889 300.234 126.211 300.169 126.469C300.169 126.792 300.104 127.115 300.104 127.437C299.911 130.082 299.975 132.985 300.427 136.275C300.814 139.5 301.524 143.049 302.298 146.726C303.072 150.403 303.975 154.209 304.749 158.079C304.943 159.047 305.136 159.95 305.33 160.918C305.523 161.886 305.652 162.853 305.846 163.756C305.975 164.659 306.104 165.627 306.233 166.53C306.233 166.788 306.297 166.982 306.297 167.24L306.362 167.562C306.362 167.691 306.362 167.756 306.426 167.949C306.491 168.53 306.556 169.111 306.556 169.691C306.749 171.82 306.749 174.594 306.426 177.691C306.104 180.787 305.459 184.206 304.491 187.69C303.524 191.238 302.169 194.85 300.427 198.527C298.685 202.14 296.621 205.817 294.041 209.365C293.395 210.268 292.686 211.171 291.976 212.01L291.718 212.332L291.396 212.655L290.751 213.365L289.46 214.719L288.815 215.364L288.106 216.01C287.654 216.397 287.138 216.848 286.686 217.235C285.783 218.074 284.751 218.783 283.719 219.493C279.655 222.332 275.333 224.267 271.397 225.428C267.462 226.654 263.979 227.041 261.076 227.363C259.657 227.492 258.302 227.621 257.141 227.621C255.98 227.686 254.947 227.686 254.109 227.686C253.528 227.686 252.883 227.686 252.238 227.621C251.593 227.557 250.948 227.492 250.303 227.363C248.948 227.17 247.722 226.783 246.497 226.331C245.335 225.815 244.239 225.17 243.4 224.331C242.561 223.493 241.916 222.525 241.529 221.299C240.175 217.106 242.884 207.688 246.755 206.01C247.4 205.752 248.109 205.623 248.819 205.559C249.529 205.494 250.238 205.623 250.883 205.623C253.206 205.817 255.851 205.817 258.689 205.559C261.527 205.301 264.43 204.72 267.075 203.559C269.72 202.398 272.043 200.721 273.978 198.334C274.107 198.205 274.236 198.076 274.365 197.882L274.752 197.366C275.01 196.979 275.268 196.657 275.526 196.269L276.3 195.173L277.01 194.012C277.913 192.399 278.816 190.722 279.59 188.98C279.977 188.141 280.3 187.238 280.622 186.335C280.945 185.432 281.268 184.529 281.526 183.625C282.106 181.819 282.429 180.013 282.751 178.336C283.074 176.594 283.138 174.917 283.138 173.368C283.074 172.594 283.074 171.82 283.009 171.175L282.945 170.659V170.401L282.88 170.078C282.816 169.627 282.751 169.175 282.687 168.724C282.106 165.176 281.268 161.692 280.493 158.531C279.719 155.305 278.945 152.338 278.365 149.758C277.526 146.081 276.687 142.21 276.171 138.146C275.591 134.082 275.333 129.824 275.462 125.373L275.526 123.696L275.72 122.018C275.849 120.922 275.913 119.76 276.171 118.664C276.365 117.567 276.558 116.406 276.816 115.309C277.074 114.213 277.332 113.116 277.655 112.019C278.945 107.697 280.687 103.504 282.945 99.5042C285.203 95.5046 288.041 91.763 291.331 88.3439C294.621 84.9249 298.556 81.9574 302.943 79.506C304.04 78.8609 305.201 78.3449 306.362 77.8288C307.523 77.3127 308.749 76.8611 309.91 76.4096C312.297 75.6354 314.813 74.9258 317.329 74.5388C322.36 73.7001 327.586 73.5066 332.811 74.2807C338.811 75.2484 343.133 77.3772 345.326 79.6351Z" fill="#637C83"/>
<path d="M345.326 79.6352C343.068 77.4418 338.811 75.2485 332.876 74.4098C324.36 73.1841 315.91 74.2163 308.168 77.2483C300.363 80.3448 293.912 85.312 288.944 91.118C289.202 91.118 289.589 91.0535 290.106 90.8599C297.911 87.957 305.782 85.6346 313.652 84.4734C312.362 85.1185 311.2 85.8926 310.039 86.6668L308.362 87.8925C307.846 88.2795 307.33 88.7956 306.814 89.2472C304.814 91.0535 303.072 93.0533 301.717 95.1176C301.266 95.7627 300.943 96.7304 301.524 97.1819C301.782 97.3755 302.233 97.3754 302.556 97.3754C305.265 97.1819 307.717 96.6013 309.91 95.5047C309.459 95.9562 309.007 96.4078 308.491 96.7949C307.975 97.1819 307.459 97.569 307.072 98.0851C306.878 98.3431 306.685 98.6011 306.491 98.8592C306.362 99.1817 306.233 99.4398 306.169 99.7623C306.04 100.407 306.04 101.053 306.427 101.698C306.814 102.343 307.394 102.794 307.975 103.246C309.007 103.955 310.039 104.472 311.007 104.859C311.974 105.246 312.942 105.504 313.845 105.697C314.361 105.375 314.877 105.181 315.329 104.923C315.587 104.794 315.845 104.73 316.039 104.601C316.297 104.472 316.49 104.343 316.748 104.278C317.006 104.214 317.264 104.085 317.522 103.955C317.78 103.826 318.038 103.762 318.296 103.697C318.813 103.439 319.393 103.31 319.909 103.117C322.167 102.407 324.489 101.698 326.941 100.988C329.392 100.278 331.973 99.5043 334.811 98.4076C337.65 97.3109 340.811 96.0852 344.165 94.0209C345.778 92.9888 347.003 91.8921 347.778 90.7309C348.552 89.5697 348.874 88.2795 348.874 86.9893C348.874 86.3442 348.745 85.6346 348.552 84.9895C348.358 84.3444 348.1 83.6993 347.778 83.1187C347.262 81.6995 346.294 80.6028 345.326 79.6352Z" fill="#C6CFD1"/>
<path d="M175.405 140.984C175.405 140.984 137.086 150.209 119.797 173.433C106.766 190.979 108.83 208.655 108.83 208.655L119.797 205.236C119.797 205.236 130.119 201.043 139.344 191.625C152.891 177.69 165.922 178.4 173.599 176.787C181.211 175.11 201.983 134.662 175.405 140.984Z" fill="#637C83"/>
<path d="M215.596 125.566C215.596 125.566 235.078 146.726 255.786 180.142C268.688 200.979 268.301 238.137 229.014 248.587C199.21 256.522 189.986 203.688 185.47 172.981C181.019 142.275 182.438 128.792 182.438 128.792L215.596 125.566Z" fill="#5B757C"/>
<path d="M183.277 125.566C183.277 125.566 161.15 177.562 163.02 217.106C164.956 256.651 204.372 265.682 233.143 246.91C261.915 228.073 206.952 129.76 197.791 126.534L183.277 125.566Z" fill="#9EACAF"/>
<path d="M356 213.262H40V257.262H356V213.262Z" fill="white"/>
<path d="M40 213.262H375" stroke="#B3B3B4" stroke-width="2.1195" stroke-miterlimit="10" stroke-linecap="round" stroke-linejoin="round"/>
<path d="M264.237 217.622V221.106L263.85 218.267L264.237 217.622Z" fill="white"/>
<path d="M127.604 257.167L180.115 208.655C180.115 208.655 208.306 200.011 227.53 201.882C246.754 203.753 263.075 212.203 263.075 212.203L231.916 270.134C217.273 253.038 174.115 253.619 158.697 257.102C143.344 260.651 127.604 257.167 127.604 257.167Z" fill="white"/>
<path d="M127.604 257.167C127.604 257.167 143.28 260.715 158.762 257.167C174.18 253.619 217.338 253.103 231.981 270.198L263.14 212.268L263.849 218.332L233.272 274.778C211.532 260.07 175.535 260.199 163.084 261.812C151.537 263.295 130.313 260.844 127.217 260.521L127.604 257.167Z" fill="#EDEDF7"/>
<path d="M127.217 260.457L126.83 263.618L28.71 259.683V256.393C28.71 256.393 49.0307 257.36 59.0943 256.715L74.2541 255.296C74.2541 255.296 80.7697 253.941 94.5748 253.103C108.38 252.264 126.83 260.457 126.83 260.457C126.83 260.457 126.959 260.392 127.217 260.457Z" fill="#EDEDF7"/>
<path d="M233.271 274.714L126.829 263.618L127.216 260.457C130.313 260.844 151.601 263.295 163.084 261.747C175.534 260.134 211.595 260.005 233.271 274.714Z" fill="#EDEDF7"/>
<path d="M28.7094 259.618L126.829 263.618L233.271 274.714L263.849 218.267L264.236 221.106L235.722 278.778L126.829 267.102L27.1611 262.586V259.554L28.7094 259.618Z" fill="#9BA5F1"/>
<path d="M127.604 257.167L127.217 260.457C126.959 260.457 126.83 260.393 126.83 260.393C126.83 260.393 108.38 252.2 94.5748 253.038C80.7697 253.877 74.2541 255.232 74.2541 255.232L59.0943 256.651C49.0952 257.296 28.71 256.328 28.71 256.328V253.038V252.974C35.0965 253.232 51.5466 253.554 65.2872 250.393C91.0268 244.394 106.509 245.233 127.604 257.167Z" fill="#EDEDF7"/>
<path d="M180.179 208.655L127.604 257.167C106.509 245.233 91.0262 244.394 65.2867 250.393C51.546 253.619 35.0959 253.296 28.7094 252.974C26.9677 252.909 26 252.845 26 252.845L109.992 195.947C158.246 185.109 180.179 208.655 180.179 208.655Z" fill="white"/>
<path d="M109.992 195.947L26 252.845C26 252.845 47.8689 254.458 65.2867 250.393C91.0262 244.394 106.444 245.233 127.604 257.167L180.179 208.655C180.179 208.655 158.246 185.109 109.992 195.947Z" stroke="#B3B3B4" stroke-width="2" stroke-miterlimit="10" stroke-linecap="round" stroke-linejoin="round"/>
<path d="M127.604 257.167C127.604 257.167 143.344 260.715 158.762 257.167C174.18 253.619 217.337 253.103 231.981 270.198L263.139 212.268C263.139 212.268 246.818 203.882 227.594 201.946C208.37 200.075 180.179 208.72 180.179 208.72L127.604 257.167Z" stroke="#B3B3B4" stroke-width="2" stroke-miterlimit="10" stroke-linecap="round" stroke-linejoin="round"/>
<path d="M27.1611 259.554V262.586L126.829 267.102L235.722 278.778L264.236 221.106V217.622L233.271 274.714L126.829 263.618L27.1611 259.554Z" stroke="#B3B3B4" stroke-width="2" stroke-miterlimit="10" stroke-linecap="round" stroke-linejoin="round"/>
<path d="M157.407 246.329C157.407 246.329 196.823 236.395 230.626 250.135" stroke="#B3B3B4" stroke-width="2" stroke-miterlimit="10" stroke-linecap="round" stroke-linejoin="round"/>
<path d="M164.697 235.878C164.697 235.878 211.661 225.105 234.11 238.717" stroke="#B3B3B4" stroke-width="2" stroke-miterlimit="10" stroke-linecap="round" stroke-linejoin="round"/>
<path d="M175.276 225.105C175.276 225.105 217.337 214.977 240.883 226.783" stroke="#B3B3B4" stroke-width="2" stroke-miterlimit="10" stroke-linecap="round" stroke-linejoin="round"/>
<path d="M184.243 214.913C184.243 214.913 222.498 205.946 244.754 214.913" stroke="#B3B3B4" stroke-width="2" stroke-miterlimit="10" stroke-linecap="round" stroke-linejoin="round"/>
<path d="M59.0938 240.33C59.0938 240.33 75.6084 235.75 91.8649 235.879C108.121 236.008 124.894 244.394 124.894 244.394" stroke="#B3B3B4" stroke-width="2" stroke-miterlimit="10" stroke-linecap="round" stroke-linejoin="round"/>
<path d="M71.2861 229.815C71.2861 229.815 107.605 220.977 134.635 236.395" stroke="#B3B3B4" stroke-width="2" stroke-miterlimit="10" stroke-linecap="round" stroke-linejoin="round"/>
<path d="M127.603 257.167L126.829 263.618" stroke="#B3B3B4" stroke-width="2" stroke-miterlimit="10" stroke-linecap="round" stroke-linejoin="round"/>
<path d="M28.71 253.038V259.618" stroke="#B3B3B4" stroke-width="2" stroke-miterlimit="10" stroke-linecap="round" stroke-linejoin="round"/>
<path d="M233.272 274.714C211.532 260.006 175.535 260.135 163.085 261.747C150.634 263.36 126.83 260.393 126.83 260.393C126.83 260.393 108.38 252.2 94.5748 253.039C80.7697 253.877 74.2541 255.232 74.2541 255.232L59.0943 256.651C49.0952 257.232 28.71 256.329 28.71 256.329" stroke="#B3B3B4" stroke-width="2" stroke-miterlimit="10" stroke-linecap="round" stroke-linejoin="round"/>
<path d="M263.14 212.203L264.236 221.106" stroke="#B3B3B4" stroke-width="2" stroke-miterlimit="10" stroke-linecap="round" stroke-linejoin="round"/>
<path d="M228.174 140.21C228.174 140.21 208.821 138.081 214.627 152.338C216.498 156.983 222.885 168.208 218.82 180.013C216.627 186.529 200.951 198.85 200.951 198.85L219.982 214.913C219.982 214.913 230.11 215.365 241.98 198.527C256.817 177.497 243.528 146.726 228.174 140.21Z" fill="#637C83"/>
<path d="M206.822 197.366C206.822 197.366 190.113 192.786 179.018 212.397C173.212 222.525 179.985 224.46 185.275 221.299C185.275 221.299 183.533 229.105 192.5 226.46C192.5 226.46 195.984 232.847 203.596 228.46C211.273 224.138 212.176 222.203 212.176 222.203C212.176 222.203 220.691 222.074 224.175 215.752C227.658 209.43 222.82 196.398 206.822 197.366Z" fill="#C6CFD1"/>
<path fill-rule="evenodd" clip-rule="evenodd" d="M191.467 29.5753C241.979 22.9308 275.847 44.0901 276.814 60.4757C277.653 74.7325 276.492 93.6985 268.106 108.536C256.494 129.179 233.528 134.598 201.467 137.888C171.727 140.92 148.31 140.92 133.602 124.921C121.087 111.245 119.926 93.0534 117.087 81.506C112.055 60.8628 140.956 36.2199 191.467 29.5753Z" fill="#637C83"/>
<path d="M187.791 91.3759C187.791 91.3759 159.729 94.2144 153.536 113.309C148.052 130.211 167.599 143.113 194.629 139.501C221.659 135.888 232.432 120.922 228.948 105.181C226.368 93.5693 200.177 89.7632 187.791 91.3759Z" fill="#C6CFD1"/>
<path d="M189.146 103.633C190.178 104.343 197.597 109.503 204.757 105.375C204.757 105.375 205.983 111.116 202.435 115.567C202.435 115.567 198.758 111.439 191.404 111.955C184.049 112.471 179.663 117.696 179.663 117.696C175.857 114.406 175.599 109.632 175.599 109.632C175.599 109.632 184.63 109.89 189.017 103.568C189.017 103.504 189.017 103.568 189.146 103.633Z" fill="#0A1311"/>
<path d="M191.339 111.955C198.694 111.438 202.371 115.567 202.371 115.567C200.5 117.889 197.403 119.825 192.178 120.534C185.985 121.309 182.05 119.825 179.663 117.696C179.663 117.696 183.985 112.535 191.339 111.955Z" fill="#CB542F"/>
<path d="M225.788 70.7324C226.369 72.6677 225.207 74.7321 223.272 75.3126C221.337 75.8932 219.273 74.7321 218.692 72.7968C218.111 70.8614 219.273 68.7971 221.208 68.2165C223.208 67.6359 225.207 68.7326 225.788 70.7324Z" fill="white"/>
<path d="M241.142 66.862C237.981 55.9597 226.627 49.7023 215.725 52.8633C204.823 56.0243 198.565 67.378 201.726 78.2803C204.887 89.1825 216.241 95.44 227.143 92.279C238.045 89.0535 244.303 77.6997 241.142 66.862Z" fill="#EAC652"/>
<path d="M171.857 75.9579C168.696 65.1202 157.342 58.7982 146.44 61.9592C135.602 65.1202 129.345 76.474 132.441 87.3762C135.602 98.2784 146.956 104.536 157.858 101.375C168.761 98.2139 175.018 86.7956 171.857 75.9579Z" fill="#EAC652"/>
<path d="M213.015 63.185C219.724 61.2497 226.756 65.1204 228.691 71.8294C230.626 78.5385 226.756 85.5701 220.047 87.5054C213.338 89.4407 206.306 85.5701 204.371 78.861C202.435 72.152 206.306 65.1204 213.015 63.185Z" fill="#0B1411"/>
<path d="M214.757 85.8926C216.692 85.312 217.853 83.3122 217.272 81.3123C216.692 79.377 214.692 78.2159 212.692 78.7965C210.757 79.377 209.596 81.3769 210.176 83.3767C210.757 85.312 212.821 86.4732 214.757 85.8926Z" fill="white"/>
<path d="M146.118 86.4731C144.182 79.764 148.053 72.7324 154.762 70.7971C161.471 68.8618 168.503 72.7324 170.438 79.4415C172.373 86.1505 168.503 93.1821 161.794 95.1174C155.02 97.0527 148.053 93.1821 146.118 86.4731Z" fill="#0B1411"/>
<path d="M154.763 86.4085C152.827 86.9891 151.666 88.9889 152.247 90.9887C152.827 92.924 154.827 94.0852 156.827 93.5046C158.762 92.924 159.923 90.9242 159.343 88.9244C158.762 86.9891 156.762 85.8924 154.763 86.4085Z" fill="white"/>
<path d="M276.815 60.4756C276.815 60.4756 278.879 8.54487 262.042 1.38424C245.14 -5.77639 229.142 16.3506 225.4 33.1878C225.4 33.1878 262.752 52.6053 276.815 60.4756Z" fill="#637C83"/>
<path d="M235.271 30.3492C235.271 30.3492 254.624 33.0586 269.525 44.7995C269.525 44.7995 269.332 13.6411 258.172 8.73831C250.624 5.38378 237.27 15.5764 235.271 30.3492Z" fill="#9EACAF"/>
<path d="M117.152 81.4414C117.152 81.4414 101.734 31.8331 116.185 20.5438C130.635 9.25454 151.859 26.5433 159.794 41.7677C159.729 41.7677 128.7 70.2812 117.152 81.4414Z" fill="#637C83"/>
<path d="M149.536 41.574C149.536 41.574 131.538 49.1862 120.184 64.4106C120.184 64.4106 112.378 34.2844 121.861 26.6077C128.183 21.4468 143.795 27.8334 149.536 41.574Z" fill="#9EACAF"/>
<path fill-rule="evenodd" clip-rule="evenodd" d="M188.185 95.9312C188.733 95.8638 189.232 96.2535 189.299 96.8017L190.267 104.672C190.334 105.22 189.945 105.719 189.396 105.786C188.848 105.854 188.349 105.464 188.282 104.916L187.314 97.0457C187.247 96.4976 187.637 95.9986 188.185 95.9312Z" fill="#0B1411"/>
<path fill-rule="evenodd" clip-rule="evenodd" d="M170.792 101.88C170.792 101.88 170.793 101.88 170.792 101.88L170.788 101.882L170.769 101.888C170.751 101.893 170.724 101.902 170.687 101.913C170.614 101.936 170.503 101.972 170.358 102.02C170.067 102.117 169.637 102.263 169.086 102.463C167.984 102.863 166.403 103.473 164.494 104.314C160.675 105.996 155.56 108.594 150.371 112.256C149.919 112.574 149.295 112.466 148.977 112.015C148.659 111.564 148.766 110.94 149.218 110.621C154.543 106.864 159.782 104.204 163.688 102.484C165.642 101.623 167.266 100.996 168.404 100.583C168.973 100.377 169.421 100.224 169.729 100.122C169.883 100.071 170.001 100.032 170.082 100.007C170.123 99.9939 170.154 99.9841 170.176 99.9774L170.201 99.9697L170.208 99.9675L170.21 99.9669C170.21 99.9668 170.211 99.9665 170.502 100.923L170.211 99.9665C170.74 99.806 171.298 100.104 171.459 100.633C171.619 101.161 171.321 101.72 170.792 101.88Z" fill="#0B1411"/>
<path fill-rule="evenodd" clip-rule="evenodd" d="M167.369 107.343C167.369 107.343 167.37 107.343 167.369 107.343L167.356 107.348C167.343 107.353 167.322 107.362 167.293 107.374C167.234 107.397 167.143 107.435 167.021 107.488C166.776 107.595 166.409 107.764 165.931 108.005C164.975 108.488 163.579 109.262 161.848 110.416C158.386 112.724 153.583 116.553 148.289 122.612C147.926 123.028 147.294 123.07 146.878 122.707C146.462 122.343 146.42 121.712 146.783 121.296C152.198 115.098 157.136 111.153 160.738 108.752C162.539 107.551 164.005 106.737 165.029 106.22C165.541 105.961 165.943 105.777 166.22 105.656C166.359 105.595 166.467 105.55 166.542 105.52C166.579 105.505 166.609 105.493 166.629 105.485L166.655 105.475L166.662 105.472L166.666 105.471C166.667 105.471 166.667 105.47 167.018 106.407L166.666 105.471C167.183 105.277 167.761 105.538 167.955 106.056C168.148 106.572 167.887 107.148 167.371 107.343C167.371 107.343 167.371 107.343 167.371 107.343C167.37 107.343 167.369 107.343 167.369 107.343Z" fill="#0B1411"/>
<path fill-rule="evenodd" clip-rule="evenodd" d="M172.998 106.025C173.315 106.477 173.206 107.101 172.754 107.419C167.105 111.385 162.946 115.767 160.199 119.156C158.827 120.85 157.809 122.293 157.138 123.309C156.802 123.816 156.553 124.217 156.388 124.488C156.306 124.624 156.246 124.727 156.206 124.795C156.187 124.829 156.172 124.854 156.163 124.871L156.153 124.888L156.151 124.891C155.883 125.373 155.274 125.547 154.791 125.279C154.309 125.01 154.135 124.401 154.404 123.919L155.278 124.405C154.404 123.919 154.403 123.919 154.404 123.919L154.406 123.915L154.41 123.908L154.424 123.883C154.436 123.862 154.453 123.831 154.476 123.792C154.522 123.714 154.588 123.6 154.677 123.453C154.854 123.16 155.118 122.737 155.47 122.205C156.173 121.142 157.228 119.646 158.645 117.897C161.479 114.4 165.77 109.879 171.605 105.782C172.056 105.464 172.68 105.574 172.998 106.025Z" fill="#0B1411"/>
<path fill-rule="evenodd" clip-rule="evenodd" d="M207.428 101.424C207.614 100.905 208.187 100.634 208.707 100.821L208.369 101.762C208.707 100.821 208.707 100.821 208.707 100.821L208.711 100.822L208.719 100.825L208.744 100.834C208.765 100.842 208.795 100.853 208.834 100.868C208.912 100.898 209.025 100.942 209.17 101.001C209.462 101.12 209.886 101.299 210.429 101.549C211.514 102.047 213.073 102.824 214.994 103.947C218.836 106.191 224.125 109.817 229.959 115.358C230.36 115.738 230.376 116.371 229.996 116.772C229.615 117.172 228.982 117.189 228.582 116.808C222.869 111.383 217.707 107.848 213.985 105.674C212.124 104.586 210.623 103.839 209.594 103.366C209.079 103.13 208.682 102.962 208.417 102.854C208.285 102.8 208.185 102.761 208.12 102.737C208.088 102.724 208.064 102.715 208.049 102.71L208.034 102.704L208.032 102.703C207.512 102.517 207.242 101.944 207.428 101.424Z" fill="#0B1411"/>
<path fill-rule="evenodd" clip-rule="evenodd" d="M213.403 100.662C213.548 100.129 214.097 99.8137 214.63 99.9581L214.368 100.923C214.63 99.9581 214.63 99.9581 214.63 99.9581L214.642 99.9614L214.673 99.9699C214.699 99.9772 214.738 99.9881 214.789 100.002C214.891 100.031 215.039 100.074 215.231 100.13C215.614 100.243 216.169 100.411 216.862 100.634C218.248 101.08 220.188 101.746 222.414 102.631C226.854 104.395 232.482 107.048 237.103 110.579C237.541 110.915 237.625 111.542 237.29 111.981C236.955 112.42 236.327 112.504 235.888 112.169C231.477 108.798 226.042 106.225 221.676 104.489C219.499 103.624 217.601 102.973 216.249 102.538C215.574 102.32 215.035 102.157 214.667 102.049C214.482 101.994 214.341 101.954 214.246 101.927C214.199 101.914 214.163 101.904 214.14 101.898L214.114 101.89L214.107 101.889C213.574 101.744 213.259 101.195 213.403 100.662Z" fill="#0B1411"/>
<path fill-rule="evenodd" clip-rule="evenodd" d="M208.404 96.535C208.44 95.9839 208.916 95.5668 209.468 95.6033L209.401 96.6011C209.468 95.6033 209.467 95.6033 209.468 95.6033L209.479 95.604L209.506 95.606C209.531 95.6077 209.566 95.6103 209.612 95.6138C209.704 95.6209 209.838 95.6317 210.013 95.647C210.363 95.6777 210.873 95.7263 211.52 95.7988C212.814 95.9439 214.658 96.1844 216.87 96.5673C221.289 97.3323 227.196 98.669 233.115 100.958C233.63 101.157 233.886 101.737 233.687 102.252C233.488 102.767 232.908 103.023 232.393 102.824C226.636 100.597 220.867 99.289 216.529 98.538C214.362 98.1629 212.557 97.9277 211.297 97.7864C210.667 97.7158 210.173 97.6687 209.839 97.6394C209.671 97.6247 209.544 97.6145 209.459 97.608L209.364 97.6009L209.341 97.5993L209.336 97.599L209.335 97.5989C208.784 97.5623 208.367 97.086 208.404 96.535Z" fill="#0B1411"/>
<path d="M187.791 84.022C194.952 83.3769 200.951 85.3767 201.274 88.5377C201.596 91.6987 188.307 96.924 188.307 96.924C188.307 96.924 175.728 94.1501 175.405 90.9891C175.147 87.8281 180.631 84.6671 187.791 84.022Z" fill="#CB542F"/>
<path d="M135.474 224.073C135.474 224.073 137.28 227.557 137.861 227.299C138.441 227.041 137.861 223.17 137.861 223.17L135.474 224.073Z" fill="#26224B"/>
<path d="M112.572 148.661L119.991 150.596C121.023 150.854 121.797 151.628 122.12 152.596L128.571 170.594C128.829 171.368 128.442 172.207 127.668 172.465C126.894 172.723 126.055 172.336 125.797 171.562L120.313 156.144L114.701 154.467L112.572 148.661Z" fill="#AF381E"/>
<path d="M128.894 214.139C131.538 218.074 132.893 220.074 135.409 224.073C135.409 224.073 137.344 224.073 137.796 223.235C137.215 218.525 136.957 216.139 136.57 211.429C136.57 211.429 133.99 208.462 133.345 208.655C131.99 209.107 130.764 208.204 129.41 208.72C128.829 208.849 129.603 213.881 128.894 214.139Z" fill="#AF381E"/>
<path d="M114.959 178.916C119.475 190.722 124.119 202.462 128.893 214.139C128.893 214.139 130.506 210.913 136.505 211.429C132.764 199.366 128.958 187.303 124.958 175.304C120.958 176.723 118.959 177.433 114.959 178.916Z" fill="#CB542F"/>
<path d="M126.248 177.368C126.248 177.368 120.83 175.304 115.282 181.303C111.734 171.046 108.25 160.789 104.895 150.467C103.928 147.371 105.218 144.081 107.798 143.177C110.379 142.274 113.475 143.952 114.637 146.984C118.636 157.047 122.507 167.175 126.248 177.368Z" fill="#AF381E"/>
<path d="M130.441 187.238C130.441 187.238 126.699 199.947 129.989 204.14C133.279 208.333 139.859 205.559 141.214 195.431C142.504 185.303 135.086 179.045 130.441 187.238Z" fill="#C6CFD1"/>
<path d="M116.056 180.658C116.056 180.658 106.315 182.013 109.153 191.625C111.992 201.237 124.313 204.527 126.119 199.817C127.926 195.108 121.346 187.883 116.056 180.658Z" fill="#C6CFD1"/>
<path d="M112.507 193.108C112.507 193.108 101.734 196.269 107.669 204.269C111.475 209.3 123.409 214.719 127.99 211.107C132.57 207.494 124.893 201.495 121.41 199.237C117.926 196.914 112.507 193.108 112.507 193.108Z" fill="#C6CFD1"/>
<path d="M117.668 201.495C117.668 201.495 111.024 201.946 113.346 209.429C115.668 216.913 123.99 220.267 127.474 217.493C130.957 214.655 127.538 206.784 117.668 201.495Z" fill="#C6CFD1"/>
</svg>
