<svg width="400" height="280" viewBox="0 0 400 280" fill="none" xmlns="http://www.w3.org/2000/svg">
<path d="M218.944 237.33C218.944 237.33 211.445 228.796 198.385 231.9C198.385 231.9 165.089 231.77 163.731 252.459C163.667 252.976 163.667 253.493 163.667 254.011H216.552C217.974 244.895 218.944 237.33 218.944 237.33Z" fill="#91755D"/>
<path d="M355.361 58.3081C357.43 58.4374 359.563 58.7606 361.567 59.4718C363.507 60.183 365.252 61.2174 366.416 62.5105C367.645 63.8035 368.291 65.3552 368.356 66.9715C368.42 68.6524 367.774 70.4627 366.675 72.5316C365.188 75.3116 363.442 77.7684 361.891 79.9666C360.274 82.2294 358.787 84.2983 357.494 86.3025C356.136 88.3067 354.908 90.2463 353.874 92.1212C352.775 93.9962 351.869 95.9357 351.288 97.6813C350.706 99.4269 350.382 100.914 350.382 102.207C350.382 102.53 350.382 102.789 350.382 103.241C350.382 103.435 350.382 103.629 350.382 103.888C350.382 104.082 350.447 104.276 350.447 104.534C350.447 104.728 350.447 104.922 350.447 105.181C350.512 105.375 350.512 105.634 350.512 105.828C350.512 106.021 350.512 106.28 350.576 106.474C350.641 106.733 350.641 106.927 350.706 107.185C351.029 108.995 351.675 111.064 352.516 113.133C353.356 115.202 354.456 117.206 355.49 118.952C355.49 118.952 355.619 119.146 355.878 119.469C356.136 119.792 356.46 120.245 356.912 120.892C357.882 122.12 359.304 123.866 361.373 126.064C361.891 126.581 362.408 127.163 362.99 127.745C363.636 128.391 364.283 129.038 364.929 129.684C366.352 131.107 367.903 132.594 369.52 134.21C371.201 135.826 373.075 137.636 375.015 139.576C376.955 141.516 379.023 143.649 381.092 145.977C383.226 148.369 385.359 150.955 387.428 153.8C389.497 156.709 391.501 159.877 393.247 163.368C393.7 164.273 394.087 165.114 394.54 166.019C394.928 166.924 395.316 167.894 395.704 168.799C396.415 170.674 397.061 172.549 397.643 174.488C398.742 178.303 399.454 182.247 399.777 186.126C400.423 193.884 399.648 201.578 397.708 208.495C396.738 211.987 395.445 215.284 394.023 218.323C392.536 221.361 390.919 224.077 389.239 226.598C387.622 228.926 385.359 231.9 382.191 235.068C379.023 238.236 375.015 241.597 370.101 244.507C368.873 245.283 367.58 245.929 366.287 246.64C365.64 246.964 364.929 247.287 364.218 247.61C363.895 247.739 363.507 247.933 363.184 248.063C362.796 248.192 362.472 248.386 362.085 248.515C361.373 248.774 360.662 249.097 359.951 249.356C359.24 249.614 358.529 249.873 357.817 250.132C357.106 250.39 356.395 250.584 355.619 250.778C354.908 250.972 354.132 251.231 353.421 251.425C347.602 252.912 341.719 253.752 336.224 254.14C330.663 254.528 325.427 254.593 320.513 254.528C318.121 254.528 315.793 254.463 313.595 254.463C312.432 254.463 311.268 254.463 310.169 254.399C309.005 254.399 307.841 254.334 306.742 254.334C297.755 254.075 290.32 253.3 285.924 252.782C282.756 252.459 279.006 251.619 275.774 250.067C272.541 248.515 269.955 246.317 269.05 243.408C268.274 240.822 268.985 236.813 270.666 233.322C272.347 229.831 274.868 226.857 277.843 226.146C279.847 225.693 281.916 226.081 283.92 226.404C290.773 227.568 300.406 228.538 311.462 228.408C314.306 228.408 317.28 228.344 320.319 228.344C323.293 228.279 326.267 228.214 329.241 228.02C335.125 227.633 340.943 226.986 346.115 225.434C347.408 225.046 348.637 224.659 349.865 224.141C351.094 223.689 352.128 223.172 353.292 222.59C355.49 221.426 357.559 220.068 359.434 218.517C363.184 215.413 366.158 211.599 368.162 207.655C370.166 203.776 371.201 199.832 371.588 196.082C371.782 194.207 371.782 192.462 371.782 190.845C371.718 190.005 371.718 189.229 371.588 188.518C371.524 188.13 371.524 187.742 371.459 187.419C371.394 187.031 371.33 186.708 371.265 186.384C370.942 184.445 370.425 182.505 369.778 180.695L369.261 179.337L368.679 178.044C368.485 177.592 368.227 177.139 368.033 176.751L367.709 176.105L367.321 175.458C365.317 171.967 362.537 168.605 359.369 165.243C357.753 163.562 356.007 161.881 354.197 160.2C352.387 158.519 350.447 156.838 348.508 155.093C346.568 153.347 344.499 151.537 342.43 149.662L341.654 148.951L340.879 148.175L339.262 146.623C338.228 145.589 337.193 144.554 336.159 143.391C332.021 138.994 328.077 134.145 324.715 128.327C323.035 125.417 321.483 122.314 320.254 118.887C319.026 115.461 318.056 111.84 317.539 107.961C317.41 106.991 317.345 106.021 317.28 105.052L317.151 103.565C317.151 103.047 317.151 102.595 317.151 102.078C317.151 101.108 317.151 100.073 317.216 99.1037C317.28 98.0692 317.41 96.9702 317.539 95.9357C317.798 93.8022 318.315 91.798 318.897 89.7291C319.543 87.7249 320.254 85.7853 321.095 83.9104C324.586 76.4107 329.823 70.1394 336.224 65.2905C339.844 62.5751 343.465 60.7002 346.762 59.6011C349.995 58.5667 352.969 58.1788 355.361 58.3081Z" fill="#6A5847"/>
<path d="M355.361 58.308C352.969 58.2434 349.995 58.6313 346.697 59.7304C343.4 60.8295 339.78 62.7044 336.159 65.4198C330.922 69.3636 326.526 74.2125 323.164 79.9666C319.802 85.656 317.604 92.3152 317.087 99.233C316.699 105.763 317.733 112.163 319.673 117.788C321.548 123.413 324.263 128.327 327.237 132.658C327.302 132.335 327.302 131.818 327.237 131.107C326.397 125.546 325.556 119.728 325.427 113.78C325.427 113.004 325.427 112.293 325.427 111.517V110.418L325.491 109.254C325.556 108.478 325.556 107.767 325.621 106.991C325.685 106.215 325.815 105.504 325.879 104.728L326.009 103.629L326.203 102.53C326.332 101.819 326.461 101.043 326.59 100.332C326.914 98.8451 327.302 97.3581 327.819 95.8711C327.366 104.664 330.599 112.163 334.931 117.917C335.577 118.823 336.676 119.728 337.323 119.146C337.646 118.887 337.711 118.37 337.775 117.853C338.163 114.168 338.099 110.547 337.711 107.185C337.905 107.573 338.099 107.961 338.228 108.414C338.422 108.802 338.551 109.254 338.68 109.642C338.939 110.482 339.327 111.323 339.715 112.099C340.103 112.875 340.814 113.65 341.461 114.103C342.172 114.62 343.012 114.814 343.853 114.685C344.693 114.491 345.404 113.909 346.051 113.327C348.184 111.194 349.477 108.802 350.577 106.927C350.383 105.569 350.189 104.341 350.253 103.112V102.854C350.253 102.789 350.253 102.724 350.253 102.66C350.253 102.53 350.253 102.466 350.253 102.336C350.253 102.078 350.253 101.884 350.318 101.625C350.383 101.108 350.447 100.591 350.577 100.009C351.029 97.746 352.257 94.9013 353.874 92.0566C355.49 89.2119 357.43 86.3025 359.628 83.1992C360.921 81.3889 362.085 79.7726 363.119 78.2856C363.442 77.833 363.766 77.3805 364.024 76.9279C364.347 76.4754 364.606 76.0228 364.929 75.5702C365.511 74.6004 366.093 73.6307 366.675 72.5962C367.774 70.5273 368.356 68.7171 368.356 67.0361C368.291 65.3551 367.645 63.8035 366.416 62.5751C365.188 61.2821 363.507 60.2476 361.567 59.5364C359.628 58.7606 357.43 58.3727 355.361 58.308Z" fill="#EBD9CD"/>
<path d="M354.455 156.903C354.714 151.666 356.33 146.946 359.175 143.197C361.955 139.447 365.899 136.667 370.619 135.18C372.752 137.313 374.95 139.447 377.084 141.58C379.217 143.778 381.286 146.041 383.161 148.304C379.993 149.209 377.472 150.179 376.825 150.502C374.045 151.989 371.459 153.67 369.067 155.481C365.252 158.261 361.438 160.653 357.688 163.756C357.688 163.756 357.494 163.627 357.235 163.303C356.977 163.045 356.589 162.657 356.201 162.334C355.425 161.622 354.714 160.911 354.714 160.911C354.455 159.618 354.391 158.196 354.455 156.903Z" fill="#91755D"/>
<path d="M395.639 207.72C394.411 207.914 393.312 207.526 392.213 207.138C390.208 206.491 388.269 206.168 386.329 205.909C384.39 205.715 382.45 205.651 380.511 205.586C379.541 205.586 378.571 205.586 377.666 205.651C376.696 205.651 375.791 205.715 374.756 205.715C372.882 205.78 370.942 205.78 369.002 205.715C370.942 201.19 371.847 196.082 371.589 191.104C376.179 190.199 381.028 189.488 385.683 190.328C388.01 190.716 390.273 191.557 392.407 192.914C393.441 193.625 394.411 194.466 395.381 195.436C396.35 196.47 397.126 197.634 397.902 198.992C398.484 200.026 398.936 201.254 399.066 202.612C398.936 203.582 398.678 204.552 398.484 205.586C397.773 206.75 396.674 207.526 395.639 207.72Z" fill="#91755D"/>
<path d="M334.931 227.503C334.931 227.503 335.512 227.439 336.353 227.309C337.193 227.245 338.292 227.051 339.392 226.857C340.491 226.663 341.59 226.469 342.366 226.339C343.141 226.146 343.659 226.016 343.659 226.016C347.344 229.314 350.706 232.999 352.839 237.136C353.874 239.205 354.585 241.403 354.779 243.796C354.973 246.123 354.585 248.645 353.486 251.166C350.253 252.006 347.085 252.653 343.917 253.17C340.814 253.623 337.775 253.946 334.801 254.14C335.706 252.524 336.482 250.907 337.129 249.226C337.775 247.545 338.293 245.864 338.616 244.248C339.327 240.886 339.262 237.46 338.551 233.968C338.228 232.805 336.288 230.089 334.931 227.503Z" fill="#91755D"/>
<path d="M219.785 155.739C219.785 155.739 202.135 168.605 191.596 177.398C180.993 186.126 152.288 186.384 152.288 186.384C152.288 186.384 137.741 189.423 138.258 196.729C138.775 204.034 159.981 214.896 180.67 216.124C201.359 217.353 216.552 208.043 222.371 193.949C228.19 179.79 219.785 155.739 219.785 155.739Z" fill="#91755D"/>
<path d="M141.684 202.741C148.02 201.836 152.029 192.009 152.029 192.009C152.029 192.009 153.581 178.497 148.473 173.648C143.365 168.799 141.167 174.1 141.167 174.1C141.167 174.1 139.422 165.178 132.439 166.083C125.457 166.989 126.621 173.648 126.621 173.648C126.621 173.648 118.992 173.066 119.379 178.949L119.767 181.665C119.767 181.665 115.888 182.376 117.957 186.643C120.026 190.91 120.285 192.656 129.982 198.668C134.249 201.254 141.684 202.741 141.684 202.741Z" fill="#EBD9CD"/>
<path d="M136.448 182.505C135.607 182.828 134.896 183.346 134.314 184.057C132.245 186.449 129.465 190.522 132.439 194.401C134.638 197.246 138.323 197.181 140.779 195.888C143.172 194.66 145.241 192.397 145.241 189.229C145.305 182.764 140.133 180.889 136.448 182.505Z" fill="#CB542F"/>
<path d="M126.556 190.975C127.526 189.682 127.396 187.419 125.198 185.479C121.836 182.505 117.504 185.608 120.931 189.746C123.259 192.462 125.521 192.332 126.556 190.975Z" fill="#CB542F"/>
<path d="M130.5 183.41C131.469 182.117 131.34 179.854 129.142 177.915C125.78 174.941 121.448 178.044 124.875 182.182C127.202 184.962 129.465 184.768 130.5 183.41Z" fill="#CB542F"/>
<path d="M135.995 178.238C136.965 176.945 136.836 174.682 134.638 172.743C131.276 169.769 126.944 172.872 130.37 177.01C132.698 179.79 134.961 179.596 135.995 178.238Z" fill="#CB542F"/>
<path d="M146.727 181.212C148.925 180.307 148.538 176.169 146.986 175.006C144.077 172.807 142.913 178.303 144.206 180.242C144.723 181.018 145.822 181.535 146.727 181.212Z" fill="#CB542F"/>
<path d="M296.721 228.15C284.825 197.957 271.959 182.57 264.33 173.583C256.765 164.596 247.003 145.071 247.003 145.071L218.103 152.959C218.103 152.959 206.854 178.044 207.565 212.569C207.888 226.986 210.668 242.05 216.487 254.075H299.565C302.087 247.739 301.182 239.529 296.721 228.15Z" fill="#6A5847"/>
<path d="M266.076 253.041C267.692 230.93 254.826 205.134 249.719 186.643C244.611 168.152 243.383 155.028 243.383 155.028L210.863 145.977C210.863 145.977 212.867 174.488 204.203 201.966C202.393 207.784 190.885 234.421 197.415 254.011H266.076C266.076 253.623 266.076 253.3 266.076 253.041Z" fill="#EBD9CD"/>
<path d="M132.957 98.845C132.957 98.845 125.069 28.0507 139.292 25.3353C149.96 23.3311 175.886 53.6531 181.381 66.5835C181.446 66.5835 146.792 89.4705 132.957 98.845Z" fill="#6A5847"/>
<path d="M170.132 64.5146C170.132 64.5146 153.516 68.4584 139.099 81.9708C139.099 81.9708 134.508 39.1709 143.43 34.4513C148.538 31.8006 166.447 56.3038 170.132 64.5146Z" fill="#CEB8A3"/>
<path d="M294.199 79.32C294.199 79.32 283.402 8.91365 268.985 10.0127C258.123 10.8532 240.99 46.8646 239.051 60.7648C238.986 60.7648 278.36 73.8246 294.199 79.32Z" fill="#6A5847"/>
<path d="M249.589 56.5624C249.589 56.5624 266.27 58.6959 283.661 68.0059C283.661 68.0059 277.131 22.0381 267.304 19.8399C261.679 18.6115 251.012 47.705 249.589 56.5624Z" fill="#CEB8A3"/>
<path fill-rule="evenodd" clip-rule="evenodd" d="M208.535 45.0543C261.162 38.7184 293.811 66.3896 294.652 83.4578C294.652 83.4578 294.005 122.249 285.148 137.572C272.799 158.907 252.111 163.821 218.75 166.859C187.782 169.704 166.705 169.122 151.576 152.248C138.71 137.895 133.538 102.789 133.538 102.789C128.56 81.2596 155.908 51.3903 208.535 45.0543Z" fill="#91755D"/>
<path d="M145.435 120.245C145.435 120.245 156.749 136.214 191.726 128.391C191.726 128.391 204.785 119.404 197.027 96.3236C189.269 73.2427 168.58 74.7944 156.749 79.4494C144.917 84.1043 135.607 102.272 145.435 120.245Z" fill="#6A5847"/>
<path d="M274.351 104.728C274.351 104.728 267.11 122.96 231.293 123.542C231.293 123.542 216.487 117.917 218.556 93.6728C220.625 69.4282 241.12 66.0663 253.662 67.8119C266.205 69.5575 279.653 85.0094 274.351 104.728Z" fill="#6A5847"/>
<path d="M192.954 78.9968C193.794 79.5787 194.958 78.8675 194.764 77.833C193.73 72.7255 193.859 56.9503 194.7 47.3171C188.945 48.5455 183.579 50.0972 178.601 51.9075C178.86 60.183 182.48 71.4325 192.954 78.9968Z" fill="#6A5847"/>
<path d="M220.043 75.7642C230.646 65.937 236.594 53.4591 237.823 44.9897C232.586 44.3431 227.026 44.0199 221.142 44.1492C222.241 55.5927 217.91 69.8808 218.039 75.053C218.104 76.0874 219.332 76.4754 220.043 75.7642Z" fill="#6A5847"/>
<path d="M207.565 77.1219C208.47 71.5618 214.806 57.015 215 44.4725C212.867 44.6018 210.669 44.7957 208.47 45.0543C205.626 45.3776 202.91 45.8302 200.195 46.2827C200.195 46.2827 197.738 60.183 205.302 77.3805C205.82 78.4149 207.371 78.221 207.565 77.1219Z" fill="#6A5847"/>
<path d="M249.266 95.1599C249.848 97.2288 248.62 99.2976 246.616 99.8795C244.611 100.461 242.478 99.233 241.896 97.2288C241.314 95.1599 242.542 93.091 244.547 92.5092C246.615 91.9273 248.684 93.1557 249.266 95.1599Z" fill="white"/>
<path d="M265.3 91.3454C262.132 79.9666 250.43 73.372 239.051 76.4754C227.673 79.6433 221.078 91.3454 224.181 102.724C227.285 114.103 239.051 120.698 250.43 117.594C261.809 114.426 268.468 102.66 265.3 91.3454Z" fill="#EAC652"/>
<path d="M193.083 100.009C189.915 88.6947 178.213 82.0355 166.834 85.1388C155.52 88.3067 148.861 100.073 151.964 111.388C155.132 122.766 166.899 129.361 178.213 126.258C189.592 123.09 196.251 111.323 193.083 100.009Z" fill="#EAC652"/>
<path d="M236.077 87.2076C243.06 85.2681 250.301 89.3412 252.24 96.3236C254.18 103.306 250.107 110.547 243.124 112.487C236.142 114.426 228.901 110.353 226.961 103.371C224.957 96.3883 229.03 89.1472 236.077 87.2076Z" fill="#0B1411"/>
<path d="M240.603 109.836C242.672 109.254 243.835 107.185 243.253 105.116C242.672 103.047 240.603 101.884 238.534 102.466C236.465 103.047 235.301 105.116 235.883 107.185C236.465 109.189 238.534 110.418 240.603 109.836Z" fill="white"/>
<path d="M191.532 103.629C189.592 96.6469 182.351 92.5091 175.368 94.5134C168.386 96.4529 164.248 103.694 166.252 110.676C168.192 117.659 175.433 121.797 182.416 119.857C189.398 117.853 193.471 110.612 191.532 103.629Z" fill="#0B1411"/>
<path d="M178.149 111.969C178.73 114.038 177.502 116.107 175.498 116.689C173.429 117.271 171.36 116.043 170.778 114.038C170.196 111.969 171.425 109.901 173.429 109.319C175.498 108.737 177.631 109.901 178.149 111.969Z" fill="white"/>
<path d="M208.923 114.297C208.923 114.297 181.705 116.754 175.369 133.887C169.744 148.951 189.01 165.76 215.194 162.592C241.379 159.424 251.464 140.869 248.426 126.775C246.163 116.366 220.884 112.939 208.923 114.297Z" fill="#EBD9CD"/>
<path d="M210.734 128.973C211.768 129.749 221.919 134.856 229.418 130.719C229.418 130.719 228.448 139.447 224.699 144.037C224.699 144.037 220.884 139.641 213.255 140.158C205.561 140.61 201.036 145.977 201.036 145.977C197.092 142.485 194.958 135.244 194.958 135.244C194.958 135.244 206.014 135.438 210.669 128.908C210.604 128.908 210.669 128.908 210.734 128.973Z" fill="#0A1311"/>
<path d="M213.255 140.158C220.949 139.705 224.699 144.037 224.699 144.037C222.759 146.429 219.591 149.274 214.096 149.856C207.63 150.567 203.493 148.175 200.971 145.912C200.971 145.977 205.562 140.61 213.255 140.158Z" fill="#CB542F"/>
<path d="M209.958 121.991L210.863 130.201" stroke="#0B1411" stroke-width="2" stroke-miterlimit="10" stroke-linecap="round" stroke-linejoin="round"/>
<path d="M191.208 124.253C191.208 124.253 163.085 127.357 149.766 131.818" stroke="#0B1411" stroke-width="2" stroke-miterlimit="10" stroke-linecap="round" stroke-linejoin="round"/>
<path d="M187.459 129.361C187.459 129.361 161.21 133.887 148.926 140.61" stroke="#0B1411" stroke-width="2" stroke-miterlimit="10" stroke-linecap="round" stroke-linejoin="round"/>
<path d="M157.331 146.688C157.331 146.688 167.158 138.865 191.661 132.529" stroke="#0B1411" stroke-width="2" stroke-miterlimit="10" stroke-linecap="round" stroke-linejoin="round"/>
<path d="M233.426 119.146C233.426 119.146 260.645 115.59 274.674 116.818" stroke="#0B1411" stroke-width="2" stroke-miterlimit="10" stroke-linecap="round" stroke-linejoin="round"/>
<path d="M238.275 123.284C238.275 123.284 264.072 121.603 277.519 125.159" stroke="#0B1411" stroke-width="2" stroke-miterlimit="10" stroke-linecap="round" stroke-linejoin="round"/>
<path d="M270.86 133.111C270.86 133.111 260.257 127.745 234.978 127.357" stroke="#0B1411" stroke-width="2" stroke-miterlimit="10" stroke-linecap="round" stroke-linejoin="round"/>
<path d="M209.57 108.543C217.005 107.896 223.276 110.095 223.535 113.392C223.793 116.689 209.958 121.926 209.958 121.926C209.958 121.926 196.898 118.887 196.639 115.59C196.381 112.293 202.135 109.189 209.57 108.543Z" fill="#CB542F"/>
<path d="M260.58 162.98C260.58 162.98 249.007 158.39 243.447 177.656C239.697 190.587 233.103 190.522 213.836 192.72C213.836 192.72 201.229 193.367 201.035 201.966C200.97 205.392 207.565 212.569 207.565 212.569C207.565 212.569 229.999 227.309 254.115 213.215C278.23 199.121 272.735 166.795 260.58 162.98Z" fill="#91755D"/>
<path d="M237.305 187.613C235.172 189.1 232.586 190.07 229.159 190.716C231.81 193.949 235.366 199.573 234.913 206.297C234.978 206.297 241.314 197.052 237.305 187.613Z" fill="#6A5847"/>
<path d="M249.396 190.91C254.115 197.957 253.986 207.849 253.339 213.538C253.533 213.409 253.792 213.28 253.986 213.15C257.412 211.146 260.257 208.754 262.585 206.103C259.417 194.272 249.396 190.91 249.396 190.91Z" fill="#6A5847"/>
<path d="M259.158 183.928C259.158 183.928 256.895 173.648 246.809 169.51C245.516 171.579 244.353 174.23 243.383 177.656C243.383 177.786 243.318 177.85 243.253 177.98C247.585 177.786 254.05 178.626 259.158 183.928Z" fill="#6A5847"/>
<path d="M296.721 238.3C294.135 234.098 281.657 224.4 272.929 225.434C250.365 228.15 242.219 240.434 240.861 254.011H303.057C302.798 247.287 300.665 242.955 296.721 238.3Z" fill="#91755D"/>
<path d="M216.681 194.724C218.685 199.897 213.966 210.629 208.47 212.31C206.337 212.956 204.138 212.698 201.94 212.375C198.126 211.857 194.117 211.017 191.273 208.366C187.006 208.948 182.221 209.788 180.217 204.875C177.502 198.345 183.902 196.082 183.902 196.082C183.902 196.082 179.571 189.746 184.937 187.225L187.523 186.19C187.523 186.19 186.23 182.44 190.949 182.182C195.669 181.923 197.35 181.212 207.371 186.708C211.767 189.035 216.681 194.724 216.681 194.724Z" fill="#EBD9CD"/>
<path d="M24.793 254.011H395.703" stroke="#B3B3B4" stroke-width="2.4485" stroke-miterlimit="10" stroke-linecap="round" stroke-linejoin="round"/>
<path d="M237.758 245.864L146.145 224.141L63.3257 239.787L142.46 260.476L237.758 245.864Z" fill="#D0D0F3"/>
<path d="M137.999 250.519L192.695 241.597" stroke="#E6E6F9" stroke-miterlimit="10" stroke-linecap="round" stroke-linejoin="round"/>
<path d="M166.123 240.628L130.047 246.058" stroke="#E6E6F9" stroke-miterlimit="10" stroke-linecap="round" stroke-linejoin="round"/>
<path d="M156.037 237.589L128.301 241.921" stroke="#E6E6F9" stroke-miterlimit="10" stroke-linecap="round" stroke-linejoin="round"/>
<path d="M145.887 234.615L124.875 237.977" stroke="#E6E6F9" stroke-miterlimit="10" stroke-linecap="round" stroke-linejoin="round"/>
<path d="M148.731 230.607L121.9 234.938" stroke="#E6E6F9" stroke-miterlimit="10" stroke-linecap="round" stroke-linejoin="round"/>
<path d="M187.911 247.028L132.31 230.607" stroke="#E6E6F9" stroke-miterlimit="10" stroke-linecap="round" stroke-linejoin="round"/>
<path d="M177.631 248.838L124.875 232.74" stroke="#E6E6F9" stroke-miterlimit="10" stroke-linecap="round" stroke-linejoin="round"/>
<path d="M162.825 251.425L116.146 234.227" stroke="#E6E6F9" stroke-miterlimit="10" stroke-linecap="round" stroke-linejoin="round"/>
<path d="M126.361 231.188L141.167 228.732L203.556 244.248L141.749 255.174L126.361 231.188Z" stroke="#E6E6F9" stroke-miterlimit="10" stroke-linecap="round" stroke-linejoin="round"/>
<path d="M90.7382 145.459L8.56512 140.934C2.81106 139.77 -1.77926 145.653 0.677532 150.955L58.0888 253.17L143.882 272.501L90.7382 145.459Z" fill="#9B9BE5"/>
<path d="M237.176 257.954L150.93 273.665C146.081 274.57 141.296 271.984 139.357 267.458L81.0404 155.222C79.4241 151.407 81.3636 147.011 85.2428 145.718C88.7987 144.49 92.6778 146.3 94.1002 149.726L148.667 259.7L233.749 245.153C238.081 244.442 242.025 247.739 242.025 252.136C242.089 254.98 240.02 257.437 237.176 257.954Z" fill="#B1B1EB"/>
<path d="M48.6497 60.2475L48.4557 61.4759C47.9385 61.5406 47.486 61.5406 47.098 61.5406C46.5162 61.5406 45.8696 61.4759 45.0292 61.4113C43.6715 61.282 42.7663 61.2173 42.4431 61.2173C41.8612 61.2173 40.8914 61.282 39.5984 61.4759C40.0509 60.3122 40.4388 59.1484 40.7621 57.92C40.9561 57.0149 41.2147 55.5279 41.4733 53.3297C39.7923 53.3297 37.1416 53.3297 33.5857 53.459C29.9005 59.0838 27.1851 62.6397 25.4395 64.1267C23.6939 65.549 22.0776 66.3248 20.5259 66.3248C19.6854 66.3248 19.1036 66.1955 18.7157 65.8723C18.3277 65.549 18.1338 65.1611 18.1338 64.6439C18.1338 64.256 18.2631 63.9327 18.4571 63.6741C18.7157 63.4155 18.9743 63.2862 19.3622 63.2862C19.5561 63.2862 19.8148 63.3508 20.2027 63.4155C21.1078 63.6094 21.6897 63.7388 21.9483 63.7388C22.9181 63.7388 24.0172 63.1569 25.1809 62.0578C27.1205 60.2475 29.9652 56.4977 33.715 50.679C37.9821 44.1491 41.4086 39.4295 44.0594 36.4555C40.4389 36.7787 38.2407 37.102 37.3355 37.3606C36.1071 37.7485 35.202 38.3304 34.5555 39.1062C33.9736 39.882 33.6504 40.6579 33.6504 41.4337C33.6504 41.6923 33.715 42.0802 33.909 42.5328C34.1029 43.05 34.2322 43.4379 34.2322 43.6965C34.2322 44.0198 34.1029 44.2784 33.8443 44.537C33.5857 44.7956 33.3271 44.9249 32.9392 44.9249C32.422 44.9249 32.034 44.731 31.7754 44.3431C31.4522 43.9551 31.3229 43.4379 31.3229 42.6621C31.3229 41.6277 31.5815 40.5932 32.1634 39.6234C32.6806 38.6536 33.521 37.8132 34.4908 37.1666C35.5253 36.5201 36.7537 36.0029 38.3053 35.6796C39.0812 35.4857 40.5035 35.2917 42.4431 35.1624C44.1887 35.0331 45.2231 34.9038 45.6757 34.7745C46.3869 34.5805 47.0334 34.1926 47.6153 33.6754C47.1627 35.4857 46.8394 37.0373 46.6455 38.395L44.8352 51.0022L43.8654 60.0536C44.9645 60.3122 45.9343 60.4415 46.7748 60.4415C47.3566 60.4415 47.9385 60.3768 48.6497 60.2475ZM41.6026 51.7134C42.3138 45.8301 43.0249 41.4983 43.6715 38.783C41.7965 41.2397 40.6975 42.7914 40.2449 43.4379L34.6201 51.7781C35.8485 51.8427 37.5295 51.8427 39.7923 51.8427C40.3742 51.7781 40.9561 51.7781 41.6026 51.7134Z" fill="#5392BB"/>
<path d="M66.6876 42.4682L68.11 42.1449L66.4937 47.6403C65.8472 49.8385 65.2006 52.36 64.6188 55.2693C64.2955 56.821 64.1662 57.8554 64.1662 58.308C64.1662 58.7606 64.3602 58.9545 64.6834 58.9545C64.942 58.9545 65.2653 58.8252 65.7825 58.5019C66.6876 57.9847 67.5281 57.2736 68.3686 56.4977L69.0798 57.3382C67.3988 58.8252 66.3644 59.795 65.9118 60.1183C65.0067 60.7648 64.1015 61.2173 63.2611 61.5406C62.6792 61.7346 62.162 61.8639 61.6448 61.8639C61.2568 61.8639 60.9982 61.7992 60.8043 61.6053C60.6103 61.4113 60.5457 61.1527 60.5457 60.8294C60.5457 60.6355 60.6103 60.3122 60.7396 59.9243L61.6448 56.9503C60.4164 58.4373 58.9294 59.7303 57.1838 60.8294C56.1493 61.476 55.1149 61.8639 54.2744 61.8639C53.4339 61.8639 52.7874 61.5406 52.3348 60.9587C51.753 60.1829 51.4297 59.0838 51.4297 57.7908C51.4297 56.2391 51.8176 54.5582 52.6581 52.6186C53.4986 50.7437 54.5977 48.998 55.9554 47.4464C57.3131 45.8947 58.8001 44.7956 60.3517 44.0198C61.5155 43.4379 63.0671 43.1793 64.8774 43.1793C65.3299 43.1793 65.8472 43.1793 66.2997 43.244L66.6876 42.4682ZM63.9722 45.8301C63.1964 45.7008 62.5499 45.5715 61.968 45.5715C60.675 45.5715 59.5112 45.9594 58.5414 46.6706C57.5717 47.3817 56.6665 48.6748 55.826 50.5497C54.9856 52.4246 54.5977 54.2995 54.5977 56.1745C54.5977 57.1442 54.7916 57.8554 55.1149 58.308C55.4381 58.7606 55.8907 58.9545 56.4079 58.9545C57.4424 58.9545 58.4768 58.4373 59.6405 57.3382C60.8043 56.2391 61.6448 54.6875 62.162 52.6832L63.9722 45.8301Z" fill="#5392BB"/>
<path d="M79.3597 85.462C79.2304 86.0438 78.7779 87.7248 77.9374 90.5049C77.3555 92.5737 76.8383 94.5133 76.4504 96.2589C78.4546 96.065 79.9416 96.0003 80.9114 96.0003C82.9803 96.0003 84.7259 96.5175 86.1482 97.552C87.5706 98.5864 88.2817 100.073 88.2817 102.142C88.2817 105.052 86.9887 107.508 84.4673 109.513C81.9458 111.517 79.1011 112.551 75.9978 112.551C75.3513 112.551 73.9936 112.487 71.9894 112.357C71.0196 112.293 69.9205 112.293 68.886 112.293C67.1404 112.293 65.6534 112.422 64.4897 112.681L64.8776 111.323C66.7525 111.258 68.0456 110.741 68.6921 109.771C69.3386 108.866 69.9205 107.379 70.4377 105.31L75.5452 85.5266C72.4419 85.5266 69.8558 86.5611 67.7223 88.5653C65.5888 90.5695 64.5543 92.8323 64.5543 95.2245C64.5543 96.3882 64.8776 97.6166 65.4595 98.7804C65.912 99.6208 66.1706 100.203 66.1706 100.526C66.1706 101.366 65.6534 101.819 64.6836 101.819C63.9725 101.819 63.3259 101.366 62.938 100.461C62.5501 99.5562 62.2915 98.3924 62.2915 96.9701C62.2915 93.8668 63.5199 90.9574 65.9767 88.1774C68.4335 85.3973 71.7954 83.975 76.1271 83.975H85.437C87.5059 83.975 89.4455 83.7164 91.2558 83.2638C90.4153 86.6904 89.8981 88.8885 89.7688 89.729H88.4757C88.7343 88.436 88.8636 87.5308 88.8636 87.1429C88.8636 86.4318 88.605 85.9792 88.0878 85.8499C87.5706 85.6559 86.2775 85.5913 84.144 85.5913H79.3597V85.462ZM76.1271 97.6813L74.9634 102.53C73.8643 106.927 72.8298 109.513 71.7954 110.418C73.1531 110.741 74.4461 110.935 75.5452 110.935C78.2606 110.935 80.3942 110.095 81.8812 108.349C83.3682 106.668 84.0793 104.664 84.0793 102.466C84.0793 101.302 83.7561 100.267 83.1096 99.5562C82.463 98.7804 81.7519 98.2631 80.8467 98.0692C79.9416 97.8752 78.3899 97.6813 76.1271 97.6813Z" fill="#D37AAB"/>
<path d="M97.7211 96.065C100.242 93.2849 102.635 91.9272 104.897 91.9272C106.126 91.9272 107.096 92.4445 107.742 93.4142C108.389 94.384 108.647 95.7417 108.647 97.358C108.647 101.173 107.419 104.728 104.962 107.961C102.505 111.194 99.7899 112.81 96.8159 112.81C95.2643 112.81 94.0359 112.357 93.1954 111.452C92.3549 110.547 91.9023 109.448 91.9023 108.155C91.9023 107.056 92.0963 105.504 92.5489 103.565L95.3936 90.7635C96.4927 85.7206 98.2383 82.4233 100.566 80.7424C102.893 79.0614 105.027 78.2209 106.902 78.2209C107.419 78.2209 108.13 78.2856 109.035 78.4795C112.268 79.0614 114.272 79.32 115.048 79.32C115.63 79.32 116.341 78.8675 117.246 78.027L117.957 78.5442C116.987 80.2252 116.082 81.2596 115.306 81.6475C114.531 82.1001 113.626 82.294 112.591 82.294C111.298 82.294 108.906 81.9708 105.415 81.3243C104.316 81.1303 103.54 81.0656 103.087 81.0656C102.311 81.0656 101.665 81.4536 101.212 82.2294C100.76 83.0052 100.242 84.7508 99.596 87.5309L97.7211 96.065ZM95.135 108.22C95.135 109.06 95.3936 109.771 95.9754 110.353C96.5573 110.935 97.2038 111.194 97.8504 111.194C99.7253 111.194 101.342 109.707 102.699 106.797C104.057 103.888 104.768 101.108 104.768 98.5218C104.768 97.552 104.574 96.6469 104.186 95.8064C103.798 94.9659 103.217 94.578 102.441 94.578C101.6 94.578 100.63 95.0952 99.4667 96.1943C98.3029 97.2934 97.2685 99.039 96.428 101.496C95.5875 103.953 95.135 106.215 95.135 108.22Z" fill="#D37AAB"/>
<path d="M327.624 18.2236L327.883 17.0598C329.693 16.9305 331.697 16.6073 333.831 16.09C333.249 17.771 332.861 19.064 332.602 20.0985L331.309 25.5293C334.154 25.5293 336.288 24.8181 337.775 23.3957C339.197 21.9734 339.908 20.2924 339.908 18.2882C339.908 16.9305 339.391 15.8314 338.357 14.9909C337.322 14.1505 335.77 13.7625 333.702 13.7625C330.792 13.7625 328.012 14.4737 325.361 15.8314C322.711 17.1891 320.642 19.064 319.155 21.2622C317.668 23.5251 316.957 25.7232 316.957 27.9861C316.957 28.5679 317.021 29.1498 317.215 29.667C317.409 30.1842 317.603 30.7015 317.926 31.0894C318.12 31.348 318.573 31.6712 319.219 32.1238C319.931 32.641 320.448 33.0289 320.577 33.2876C320.706 33.5462 320.836 33.8048 320.836 34.1927C320.836 34.516 320.706 34.8392 320.448 35.0978C320.189 35.3564 319.866 35.4857 319.543 35.4857C318.638 35.4857 317.668 34.8392 316.763 33.4815C315.858 32.1238 315.34 30.5075 315.34 28.5033C315.34 25.7879 316.181 23.1371 317.797 20.6157C319.413 18.0943 321.741 16.0254 324.65 14.4737C327.624 12.9221 330.857 12.1462 334.477 12.1462C337.387 12.1462 339.585 12.7281 341.072 13.8919C342.559 15.0556 343.335 16.4133 343.335 18.0943C343.335 19.6459 342.818 21.0683 341.783 22.3613C340.749 23.6544 339.197 24.6241 337.193 25.3353C338.615 25.5293 339.714 25.9172 340.555 26.4991C341.395 27.0163 342.042 27.7275 342.43 28.5679C342.882 29.4084 343.076 30.3135 343.076 31.4126C343.076 33.1583 342.559 34.7746 341.525 36.3262C340.49 37.8779 339.003 39.1709 336.999 40.2054C334.995 41.2398 332.926 41.757 330.792 41.757C330.146 41.757 328.788 41.6924 326.784 41.5631C325.814 41.4984 324.78 41.4984 323.68 41.4984C322.064 41.4984 320.577 41.6277 319.284 41.8863L319.672 40.5286C321.353 40.464 322.581 40.0114 323.293 39.3002C324.004 38.5891 324.715 37.0374 325.297 34.5806L328.853 20.551C328.982 19.9692 329.047 19.5166 329.047 19.1933C329.047 18.9347 328.917 18.7408 328.723 18.5468C328.529 18.3529 328.271 18.2882 327.948 18.2882C328.012 18.0943 327.818 18.1589 327.624 18.2236ZM330.986 26.887L329.758 31.7359C329.111 34.2573 328.529 36.1969 327.948 37.5546C327.624 38.3304 327.172 39.0416 326.654 39.6235C328.077 39.9467 329.37 40.1407 330.404 40.1407C333.249 40.1407 335.383 39.3002 336.805 37.5546C338.227 35.809 338.938 33.8694 338.938 31.7359C338.938 30.7015 338.68 29.7317 338.098 28.9558C337.516 28.18 336.87 27.6628 335.964 27.3395C335.059 27.0163 333.443 26.887 330.986 26.887Z" fill="#5392BB"/>
<path d="M357.041 29.861H358.269C360.403 29.861 361.502 30.8954 361.502 33.029C361.502 35.2271 360.274 37.2314 357.752 39.1709C355.231 41.1105 352.774 42.0156 350.382 42.0156C347.408 42.0156 345.921 40.3993 345.921 37.2314C345.921 33.4815 347.085 29.7963 349.412 26.2405C351.74 22.6846 354.455 20.939 357.558 20.939C359.886 20.939 361.114 22.0381 361.114 24.1716C360.985 26.3051 359.627 28.18 357.041 29.861ZM350.123 33.5462C349.994 34.4513 349.929 35.3564 349.929 36.1969C349.929 37.6193 350.123 38.6537 350.447 39.2356C350.77 39.8174 351.352 40.0761 352.128 40.0761C353.291 40.0761 354.455 39.4295 355.683 38.2011C356.912 36.9727 357.494 35.4857 357.494 33.8694C357.494 32.1885 356.847 31.348 355.554 31.348C354.52 31.348 352.709 32.0592 350.123 33.5462ZM350.317 31.8006C355.102 29.7317 357.494 27.4689 357.494 25.0767C357.494 23.5251 356.847 22.7492 355.619 22.7492C353.097 22.7492 351.352 25.7879 350.317 31.8006Z" fill="#5392BB"/>
</svg>
