<svg width="400" height="280" viewBox="0 0 400 280" fill="none" xmlns="http://www.w3.org/2000/svg">
<path d="M345.326 79.6351C346.293 80.6027 347.196 81.6994 347.842 82.9896C348.164 83.6347 348.422 84.2798 348.616 84.8604C348.809 85.5055 348.874 86.2151 348.938 86.8602C349.003 88.1504 348.616 89.4406 347.842 90.6018C347.067 91.763 345.842 92.8596 344.229 93.8918C342.036 95.311 339.842 96.2787 337.778 97.1818C335.778 98.0205 333.843 98.7301 332.037 99.3107C330.23 99.9558 328.553 100.472 326.876 100.923C325.327 101.375 323.715 101.891 322.037 102.343C320.489 102.794 319.005 103.31 317.586 103.826C317.264 103.955 316.877 104.149 316.554 104.278C316.232 104.407 315.909 104.601 315.586 104.73C314.941 105.052 314.232 105.375 313.587 105.762C312.232 106.471 310.942 107.245 309.781 108.149C308.619 109.052 307.523 109.89 306.684 110.793C306.684 110.793 306.62 110.858 306.426 111.052C306.297 111.245 306.103 111.503 305.781 111.89C305.2 112.6 304.491 113.696 303.717 115.116C302.878 116.535 302.104 118.341 301.394 120.47C301.265 120.986 301.072 121.502 300.943 122.083C300.814 122.663 300.685 123.179 300.556 123.76C300.362 124.341 300.362 124.921 300.298 125.566C300.233 125.889 300.233 126.211 300.169 126.469C300.169 126.792 300.104 127.115 300.104 127.437C299.91 130.082 299.975 132.985 300.427 136.275C300.814 139.5 301.523 143.049 302.297 146.726C303.071 150.403 303.975 154.209 304.749 158.079C304.942 159.047 305.136 159.95 305.329 160.918C305.523 161.886 305.652 162.853 305.845 163.756C305.974 164.659 306.103 165.627 306.232 166.53C306.232 166.788 306.297 166.982 306.297 167.24L306.361 167.562C306.361 167.691 306.361 167.756 306.426 167.949C306.491 168.53 306.555 169.111 306.555 169.691C306.749 171.82 306.749 174.594 306.426 177.691C306.103 180.787 305.458 184.206 304.491 187.69C303.523 191.238 302.168 194.85 300.427 198.527C298.685 202.14 296.62 205.817 294.04 209.365C293.395 210.268 292.685 211.171 291.976 212.01L291.718 212.332L291.395 212.655L290.75 213.365L289.46 214.719L288.815 215.364L288.105 216.01C287.654 216.397 287.137 216.848 286.686 217.235C285.783 218.074 284.751 218.783 283.718 219.493C279.654 222.332 275.332 224.267 271.397 225.428C267.462 226.654 263.978 227.041 261.075 227.363C259.656 227.492 258.301 227.621 257.14 227.621C255.979 227.686 254.947 227.686 254.108 227.686C253.528 227.686 252.883 227.686 252.237 227.621C251.592 227.557 250.947 227.492 250.302 227.363C248.947 227.17 247.722 226.783 246.496 226.331C245.335 225.815 244.238 225.17 243.4 224.331C242.561 223.493 241.916 222.525 241.529 221.299C240.174 217.106 242.883 207.688 246.754 206.01C247.399 205.752 248.109 205.623 248.818 205.559C249.528 205.494 250.238 205.623 250.883 205.623C253.205 205.817 255.85 205.817 258.688 205.559C261.527 205.301 264.43 204.72 267.075 203.559C269.72 202.398 272.042 200.721 273.977 198.334C274.106 198.205 274.235 198.076 274.364 197.882L274.752 197.366C275.01 196.979 275.268 196.657 275.526 196.269L276.3 195.173L277.009 194.012C277.913 192.399 278.816 190.722 279.59 188.98C279.977 188.141 280.299 187.238 280.622 186.335C280.944 185.432 281.267 184.529 281.525 183.625C282.106 181.819 282.428 180.013 282.751 178.336C283.073 176.594 283.138 174.917 283.138 173.368C283.073 172.594 283.073 171.82 283.009 171.175L282.944 170.659V170.401L282.88 170.078C282.815 169.627 282.751 169.175 282.686 168.724C282.106 165.176 281.267 161.692 280.493 158.531C279.719 155.305 278.945 152.338 278.364 149.758C277.525 146.081 276.687 142.21 276.171 138.146C275.59 134.082 275.332 129.824 275.461 125.373L275.526 123.696L275.719 122.018C275.848 120.922 275.913 119.76 276.171 118.664C276.364 117.567 276.558 116.406 276.816 115.309C277.074 114.213 277.332 113.116 277.654 112.019C278.945 107.697 280.686 103.504 282.944 99.5042C285.202 95.5046 288.041 91.763 291.331 88.3439C294.621 84.9249 298.556 81.9574 302.942 79.506C304.039 78.8609 305.2 78.3449 306.361 77.8288C307.523 77.3127 308.748 76.8611 309.91 76.4096C312.296 75.6354 314.812 74.9258 317.328 74.5388C322.36 73.7001 327.585 73.5066 332.811 74.2807C338.81 75.2484 343.132 77.3772 345.326 79.6351Z" fill="#637C83"/>
<path d="M345.326 79.635C343.068 77.4417 338.81 75.2484 332.875 74.4097C324.36 73.184 315.909 74.2162 308.168 77.2482C300.362 80.3447 293.911 85.3119 288.944 91.1179C289.202 91.1179 289.589 91.0534 290.105 90.8598C297.911 87.9569 305.781 85.6345 313.651 84.4733C312.361 85.1184 311.2 85.8925 310.039 86.6667L308.361 87.8923C307.845 88.2794 307.329 88.7955 306.813 89.2471C304.813 91.0534 303.072 93.0532 301.717 95.1175C301.265 95.7626 300.943 96.7302 301.523 97.1818C301.781 97.3753 302.233 97.3753 302.555 97.3753C305.265 97.1818 307.716 96.6012 309.91 95.5046C309.458 95.9561 309.007 96.4077 308.49 96.7948C307.974 97.1818 307.458 97.5689 307.071 98.085C306.878 98.343 306.684 98.601 306.491 98.8591C306.362 99.1816 306.233 99.4397 306.168 99.7622C306.039 100.407 306.039 101.052 306.426 101.698C306.813 102.343 307.394 102.794 307.974 103.246C309.006 103.955 310.039 104.471 311.006 104.859C311.974 105.246 312.942 105.504 313.845 105.697C314.361 105.375 314.877 105.181 315.329 104.923C315.587 104.794 315.845 104.73 316.038 104.6C316.296 104.471 316.49 104.342 316.748 104.278C317.006 104.213 317.264 104.084 317.522 103.955C317.78 103.826 318.038 103.762 318.296 103.697C318.812 103.439 319.393 103.31 319.909 103.117C322.167 102.407 324.489 101.698 326.94 100.988C329.392 100.278 331.972 99.5042 334.811 98.4075C337.649 97.3108 340.81 96.0851 344.165 94.0208C345.777 92.9887 347.003 91.892 347.777 90.7308C348.551 89.5696 348.874 88.2794 348.874 86.9892C348.874 86.3441 348.745 85.6345 348.551 84.9894C348.358 84.3443 348.1 83.6992 347.777 83.1186C347.261 81.6994 346.293 80.6027 345.326 79.635Z" fill="#C6CFD1"/>
<path d="M175.405 140.984C175.405 140.984 137.086 150.209 119.798 173.433C106.767 190.979 108.831 208.655 108.831 208.655L119.798 205.236C119.798 205.236 130.119 201.043 139.344 191.625C152.891 177.69 165.922 178.4 173.599 176.787C181.211 175.11 201.984 134.662 175.405 140.984Z" fill="#637C83"/>
<path d="M215.596 125.566C215.596 125.566 235.078 146.726 255.786 180.142C268.688 200.979 268.301 238.137 229.014 248.587C199.21 256.522 189.986 203.688 185.47 172.981C181.019 142.275 182.438 128.792 182.438 128.792L215.596 125.566Z" fill="#5B757C"/>
<path d="M183.276 125.566C183.276 125.566 161.149 177.562 163.02 217.106C164.955 256.651 204.371 265.682 233.143 246.91C261.914 228.073 206.951 129.76 197.791 126.534L183.276 125.566Z" fill="#9EACAF"/>
<path d="M356 213.262H40V257.262H356V213.262Z" fill="white"/>
<path d="M40 213.262H375" stroke="#B3B3B4" stroke-width="2.1195" stroke-miterlimit="10" stroke-linecap="round" stroke-linejoin="round"/>
<path d="M264.236 217.622V221.106L263.849 218.267L264.236 217.622Z" fill="white"/>
<path d="M127.604 257.167L180.115 208.655C180.115 208.655 208.306 200.011 227.53 201.882C246.754 203.753 263.075 212.203 263.075 212.203L231.916 270.134C217.273 253.038 174.115 253.619 158.697 257.103C143.344 260.651 127.604 257.167 127.604 257.167Z" fill="white"/>
<path d="M127.603 257.167C127.603 257.167 143.279 260.715 158.762 257.167C174.18 253.619 217.337 253.103 231.981 270.198L263.139 212.268L263.849 218.332L233.271 274.778C211.531 260.07 175.534 260.199 163.084 261.812C151.537 263.295 130.313 260.844 127.216 260.521L127.603 257.167Z" fill="#EDEDF7"/>
<path d="M127.216 260.457L126.829 263.618L28.7095 259.683V256.393C28.7095 256.393 49.0302 257.36 59.0938 256.715L74.2537 255.296C74.2537 255.296 80.7692 253.941 94.5744 253.103C108.38 252.264 126.829 260.457 126.829 260.457C126.829 260.457 126.958 260.392 127.216 260.457Z" fill="#EDEDF7"/>
<path d="M233.271 274.714L126.83 263.618L127.217 260.457C130.313 260.844 151.601 263.295 163.084 261.747C175.535 260.134 211.596 260.005 233.271 274.714Z" fill="#EDEDF7"/>
<path d="M28.7094 259.618L126.829 263.618L233.271 274.714L263.849 218.267L264.236 221.106L235.722 278.778L126.829 267.102L27.1611 262.586V259.554L28.7094 259.618Z" fill="#9BA5F1"/>
<path d="M127.604 257.167L127.216 260.457C126.958 260.457 126.829 260.393 126.829 260.393C126.829 260.393 108.38 252.2 94.5744 253.038C80.7692 253.877 74.2537 255.232 74.2537 255.232L59.0938 256.651C49.0947 257.296 28.7095 256.328 28.7095 256.328V253.038V252.974C35.096 253.232 51.5461 253.554 65.2867 250.393C91.0263 244.394 106.509 245.233 127.604 257.167Z" fill="#EDEDF7"/>
<path d="M180.179 208.655L127.604 257.167C106.509 245.233 91.0262 244.394 65.2867 250.393C51.546 253.619 35.0959 253.296 28.7094 252.974C26.9677 252.909 26 252.845 26 252.845L109.992 195.947C158.246 185.109 180.179 208.655 180.179 208.655Z" fill="white"/>
<path d="M109.992 195.947L26 252.845C26 252.845 47.8689 254.458 65.2867 250.393C91.0262 244.394 106.444 245.233 127.604 257.167L180.179 208.655C180.179 208.655 158.246 185.109 109.992 195.947Z" stroke="#B3B3B4" stroke-width="2" stroke-miterlimit="10" stroke-linecap="round" stroke-linejoin="round"/>
<path d="M127.604 257.167C127.604 257.167 143.344 260.715 158.762 257.167C174.18 253.619 217.337 253.103 231.981 270.198L263.139 212.268C263.139 212.268 246.818 203.881 227.594 201.946C208.37 200.075 180.179 208.72 180.179 208.72L127.604 257.167Z" stroke="#B3B3B4" stroke-width="2" stroke-miterlimit="10" stroke-linecap="round" stroke-linejoin="round"/>
<path d="M27.1611 259.554V262.586L126.829 267.102L235.722 278.778L264.236 221.106V217.622L233.271 274.714L126.829 263.618L27.1611 259.554Z" stroke="#B3B3B4" stroke-width="2" stroke-miterlimit="10" stroke-linecap="round" stroke-linejoin="round"/>
<path d="M157.407 246.329C157.407 246.329 196.823 236.395 230.626 250.135" stroke="#B3B3B4" stroke-width="2" stroke-miterlimit="10" stroke-linecap="round" stroke-linejoin="round"/>
<path d="M164.697 235.879C164.697 235.879 211.66 225.105 234.11 238.717" stroke="#B3B3B4" stroke-width="2" stroke-miterlimit="10" stroke-linecap="round" stroke-linejoin="round"/>
<path d="M175.276 225.105C175.276 225.105 217.337 214.977 240.883 226.783" stroke="#B3B3B4" stroke-width="2" stroke-miterlimit="10" stroke-linecap="round" stroke-linejoin="round"/>
<path d="M184.243 214.913C184.243 214.913 222.498 205.946 244.754 214.913" stroke="#B3B3B4" stroke-width="2" stroke-miterlimit="10" stroke-linecap="round" stroke-linejoin="round"/>
<path d="M59.0938 240.33C59.0938 240.33 75.6084 235.75 91.8649 235.879C108.121 236.008 124.894 244.394 124.894 244.394" stroke="#B3B3B4" stroke-width="2" stroke-miterlimit="10" stroke-linecap="round" stroke-linejoin="round"/>
<path d="M71.2861 229.815C71.2861 229.815 107.605 220.977 134.635 236.395" stroke="#B3B3B4" stroke-width="2" stroke-miterlimit="10" stroke-linecap="round" stroke-linejoin="round"/>
<path d="M127.604 257.167L126.83 263.618" stroke="#B3B3B4" stroke-width="2" stroke-miterlimit="10" stroke-linecap="round" stroke-linejoin="round"/>
<path d="M28.7095 253.038V259.618" stroke="#B3B3B4" stroke-width="2" stroke-miterlimit="10" stroke-linecap="round" stroke-linejoin="round"/>
<path d="M233.271 274.714C211.531 260.005 175.535 260.135 163.084 261.747C150.634 263.36 126.829 260.393 126.829 260.393C126.829 260.393 108.38 252.2 94.5744 253.038C80.7692 253.877 74.2537 255.232 74.2537 255.232L59.0938 256.651C49.0947 257.232 28.7095 256.328 28.7095 256.328" stroke="#B3B3B4" stroke-width="2" stroke-miterlimit="10" stroke-linecap="round" stroke-linejoin="round"/>
<path d="M263.139 212.203L264.236 221.106" stroke="#B3B3B4" stroke-width="2" stroke-miterlimit="10" stroke-linecap="round" stroke-linejoin="round"/>
<path d="M228.175 140.21C228.175 140.21 208.822 138.081 214.628 152.338C216.499 156.983 222.885 168.208 218.821 180.013C216.628 186.529 200.952 198.85 200.952 198.85L219.982 214.913C219.982 214.913 230.11 215.365 241.98 198.527C256.817 177.497 243.528 146.726 228.175 140.21Z" fill="#637C83"/>
<path d="M206.822 197.366C206.822 197.366 190.114 192.786 179.018 212.397C173.212 222.525 179.986 224.461 185.276 221.3C185.276 221.3 183.534 229.105 192.501 226.46C192.501 226.46 195.984 232.847 203.597 228.46C211.273 224.138 212.176 222.203 212.176 222.203C212.176 222.203 220.692 222.074 224.175 215.752C227.659 209.43 222.821 196.399 206.822 197.366Z" fill="#C6CFD1"/>
<path fill-rule="evenodd" clip-rule="evenodd" d="M191.468 29.5753C241.98 22.9307 275.848 44.0901 276.815 60.4756C277.654 74.7324 276.493 93.6984 268.106 108.536C256.495 129.179 233.529 134.598 201.467 137.888C171.728 140.92 148.311 140.92 133.603 124.921C121.088 111.245 119.927 93.0533 117.088 81.506C112.056 60.8627 140.957 36.2198 191.468 29.5753Z" fill="#637C83"/>
<path d="M187.792 91.376C187.792 91.376 159.73 94.2145 153.537 113.309C148.053 130.211 167.6 143.113 194.63 139.501C221.659 135.888 232.433 120.922 228.949 105.181C226.369 93.5694 200.178 89.7633 187.792 91.376Z" fill="#C6CFD1"/>
<path d="M189.146 103.633C190.178 104.343 197.597 109.503 204.758 105.375C204.758 105.375 205.983 111.116 202.435 115.567C202.435 115.567 198.758 111.439 191.404 111.955C184.05 112.471 179.663 117.696 179.663 117.696C175.857 114.406 175.599 109.632 175.599 109.632C175.599 109.632 184.631 109.89 189.017 103.568C189.017 103.504 189.017 103.568 189.146 103.633Z" fill="#0A1311"/>
<path d="M191.34 111.955C198.694 111.438 202.371 115.567 202.371 115.567C200.5 117.889 197.404 119.825 192.179 120.534C185.986 121.309 182.05 119.825 179.664 117.696C179.664 117.696 183.986 112.535 191.34 111.955Z" fill="#CB542F"/>
<path d="M225.788 70.7325C226.369 72.6679 225.207 74.7322 223.272 75.3128C221.337 75.8934 219.273 74.7322 218.692 72.7969C218.111 70.8616 219.273 68.7972 221.208 68.2167C223.208 67.6361 225.207 68.7327 225.788 70.7325Z" fill="white"/>
<path d="M241.142 66.862C237.981 55.9598 226.627 49.7023 215.725 52.8633C204.823 56.0243 198.565 67.3781 201.726 78.2803C204.887 89.1825 216.241 95.44 227.143 92.279C238.045 89.0535 244.303 77.6997 241.142 66.862Z" fill="#EAC652"/>
<path d="M171.858 75.9579C168.697 65.1202 157.343 58.7982 146.441 61.9592C135.603 65.1202 129.345 76.474 132.442 87.3762C135.603 98.2784 146.957 104.536 157.859 101.375C168.761 98.2139 175.019 86.7956 171.858 75.9579Z" fill="#EAC652"/>
<path d="M213.015 63.185C219.724 61.2497 226.756 65.1203 228.691 71.8294C230.627 78.5384 226.756 85.57 220.047 87.5053C213.338 89.4406 206.306 85.57 204.371 78.861C202.436 72.1519 206.306 65.1203 213.015 63.185Z" fill="#0B1411"/>
<path d="M214.757 85.8925C216.692 85.312 217.854 83.3121 217.273 81.3123C216.692 79.377 214.693 78.2158 212.693 78.7964C210.757 79.377 209.596 81.3768 210.177 83.3766C210.757 85.3119 212.822 86.4731 214.757 85.8925Z" fill="white"/>
<path d="M146.118 86.4732C144.183 79.7641 148.053 72.7325 154.763 70.7972C161.472 68.8619 168.503 72.7325 170.438 79.4416C172.374 86.1506 168.503 93.1822 161.794 95.1176C155.021 97.0529 148.053 93.1823 146.118 86.4732Z" fill="#0B1411"/>
<path d="M154.763 86.4085C152.827 86.9891 151.666 88.9889 152.247 90.9887C152.827 92.924 154.827 94.0852 156.827 93.5046C158.762 92.924 159.923 90.9242 159.343 88.9244C158.762 86.9891 156.762 85.8924 154.763 86.4085Z" fill="white"/>
<path d="M276.816 60.4756C276.816 60.4756 278.88 8.5449 262.043 1.38427C245.141 -5.77636 229.143 16.3506 225.401 33.1878C225.401 33.1878 262.753 52.6053 276.816 60.4756Z" fill="#637C83"/>
<path d="M235.271 30.3493C235.271 30.3493 254.625 33.0588 269.526 44.7996C269.526 44.7996 269.333 13.6412 258.173 8.73844C250.625 5.38391 237.271 15.5765 235.271 30.3493Z" fill="#9EACAF"/>
<path d="M117.153 81.4413C117.153 81.4413 101.735 31.833 116.185 20.5437C130.635 9.25447 151.859 26.5432 159.794 41.7676C159.729 41.7676 128.7 70.2811 117.153 81.4413Z" fill="#637C83"/>
<path d="M149.537 41.5741C149.537 41.5741 131.539 49.1863 120.185 64.4107C120.185 64.4107 112.379 34.2844 121.862 26.6077C128.184 21.4469 143.796 27.8334 149.537 41.5741Z" fill="#9EACAF"/>
<path fill-rule="evenodd" clip-rule="evenodd" d="M188.186 95.9312C188.734 95.8638 189.233 96.2535 189.3 96.8017L190.268 104.672C190.335 105.22 189.946 105.719 189.397 105.786C188.849 105.854 188.35 105.464 188.283 104.916L187.315 97.0457C187.248 96.4976 187.638 95.9986 188.186 95.9312Z" fill="#0B1411"/>
<path fill-rule="evenodd" clip-rule="evenodd" d="M170.793 101.88C170.793 101.88 170.794 101.88 170.793 101.88L170.789 101.882L170.77 101.888C170.752 101.893 170.725 101.902 170.688 101.913C170.615 101.936 170.504 101.972 170.359 102.02C170.068 102.117 169.638 102.264 169.087 102.463C167.985 102.863 166.404 103.474 164.495 104.314C160.676 105.997 155.561 108.594 150.371 112.256C149.92 112.574 149.296 112.466 148.978 112.015C148.66 111.564 148.767 110.94 149.219 110.622C154.544 106.864 159.783 104.204 163.689 102.484C165.643 101.623 167.267 100.996 168.405 100.583C168.974 100.377 169.422 100.224 169.73 100.122C169.884 100.071 170.002 100.033 170.083 100.007C170.124 99.994 170.155 99.9842 170.177 99.9775L170.202 99.9698L170.209 99.9676L170.211 99.967C170.211 99.9669 170.212 99.9666 170.503 100.923L170.212 99.9666C170.741 99.8061 171.299 100.104 171.46 100.633C171.62 101.161 171.322 101.72 170.793 101.88Z" fill="#0B1411"/>
<path fill-rule="evenodd" clip-rule="evenodd" d="M167.37 107.343C167.37 107.343 167.371 107.343 167.37 107.343L167.357 107.348C167.344 107.353 167.323 107.362 167.294 107.374C167.235 107.397 167.144 107.435 167.022 107.489C166.777 107.595 166.41 107.764 165.932 108.005C164.976 108.488 163.58 109.262 161.849 110.416C158.387 112.724 153.584 116.553 148.29 122.612C147.927 123.028 147.295 123.07 146.879 122.707C146.463 122.343 146.421 121.712 146.784 121.296C152.199 115.098 157.137 111.153 160.739 108.752C162.54 107.551 164.006 106.737 165.03 106.22C165.542 105.961 165.944 105.777 166.221 105.656C166.36 105.595 166.468 105.55 166.543 105.52C166.58 105.505 166.609 105.493 166.63 105.485L166.656 105.475L166.663 105.472L166.667 105.471C166.668 105.471 166.668 105.471 167.019 106.407L166.667 105.471C167.184 105.277 167.762 105.539 167.956 106.056C168.149 106.572 167.888 107.148 167.372 107.343C167.372 107.343 167.372 107.343 167.372 107.343C167.371 107.343 167.37 107.343 167.37 107.343Z" fill="#0B1411"/>
<path fill-rule="evenodd" clip-rule="evenodd" d="M172.999 106.026C173.316 106.478 173.207 107.101 172.755 107.419C167.106 111.385 162.947 115.767 160.2 119.156C158.828 120.85 157.81 122.293 157.139 123.309C156.803 123.816 156.553 124.217 156.389 124.488C156.307 124.624 156.247 124.727 156.207 124.795C156.188 124.829 156.173 124.854 156.164 124.871L156.154 124.888L156.152 124.891C155.884 125.374 155.275 125.547 154.792 125.279C154.31 125.01 154.136 124.402 154.405 123.919L155.279 124.405C154.405 123.919 154.404 123.919 154.405 123.919L154.407 123.915L154.411 123.908L154.425 123.883C154.437 123.862 154.454 123.832 154.477 123.792C154.522 123.714 154.589 123.6 154.678 123.453C154.855 123.16 155.119 122.737 155.471 122.205C156.174 121.142 157.229 119.646 158.646 117.897C161.48 114.4 165.771 109.879 171.605 105.782C172.057 105.464 172.681 105.574 172.999 106.026Z" fill="#0B1411"/>
<path fill-rule="evenodd" clip-rule="evenodd" d="M207.429 101.425C207.615 100.905 208.188 100.634 208.708 100.821L208.37 101.762C208.708 100.821 208.708 100.821 208.708 100.821L208.712 100.822L208.719 100.825L208.745 100.834C208.766 100.842 208.796 100.853 208.835 100.868C208.913 100.898 209.026 100.942 209.171 101.001C209.463 101.12 209.887 101.3 210.43 101.549C211.515 102.048 213.074 102.825 214.995 103.947C218.837 106.191 224.125 109.817 229.96 115.358C230.361 115.739 230.377 116.372 229.997 116.772C229.616 117.172 228.983 117.189 228.583 116.808C222.87 111.383 217.708 107.848 213.986 105.674C212.125 104.586 210.624 103.839 209.595 103.366C209.08 103.13 208.683 102.962 208.418 102.854C208.286 102.8 208.186 102.761 208.121 102.737C208.089 102.724 208.065 102.715 208.05 102.71L208.035 102.704L208.033 102.703C207.513 102.517 207.243 101.944 207.429 101.425Z" fill="#0B1411"/>
<path fill-rule="evenodd" clip-rule="evenodd" d="M213.405 100.662C213.549 100.129 214.098 99.8138 214.631 99.9583L214.37 100.923C214.631 99.9583 214.631 99.9582 214.631 99.9583L214.643 99.9615L214.674 99.97C214.701 99.9774 214.74 99.9882 214.791 100.003C214.892 100.031 215.041 100.074 215.232 100.13C215.615 100.243 216.17 100.411 216.863 100.634C218.249 101.08 220.19 101.746 222.416 102.631C226.855 104.395 232.483 107.048 237.104 110.58C237.543 110.915 237.627 111.543 237.291 111.981C236.956 112.42 236.328 112.504 235.89 112.169C231.479 108.798 226.044 106.225 221.677 104.49C219.5 103.624 217.603 102.973 216.251 102.538C215.575 102.32 215.036 102.157 214.668 102.049C214.484 101.995 214.342 101.954 214.248 101.927C214.2 101.914 214.165 101.904 214.141 101.898L214.115 101.891L214.108 101.889C213.575 101.744 213.26 101.195 213.405 100.662Z" fill="#0B1411"/>
<path fill-rule="evenodd" clip-rule="evenodd" d="M208.405 96.5351C208.441 95.984 208.917 95.5669 209.469 95.6034L209.402 96.6012C209.469 95.6034 209.468 95.6034 209.469 95.6034L209.48 95.6042L209.507 95.6061C209.532 95.6078 209.567 95.6104 209.613 95.6139C209.705 95.621 209.839 95.6318 210.014 95.6471C210.364 95.6778 210.874 95.7264 211.521 95.799C212.815 95.944 214.659 96.1845 216.871 96.5674C221.29 97.3324 227.196 98.6691 233.116 100.958C233.631 101.158 233.887 101.737 233.688 102.252C233.489 102.767 232.909 103.023 232.394 102.824C226.637 100.597 220.868 99.2891 216.53 98.5381C214.363 98.163 212.558 97.9278 211.298 97.7865C210.668 97.7159 210.174 97.6688 209.84 97.6395C209.672 97.6248 209.545 97.6146 209.46 97.6081L209.365 97.601L209.342 97.5994L209.337 97.5991L209.336 97.599C208.785 97.5624 208.368 97.0861 208.405 96.5351Z" fill="#0B1411"/>
<path d="M187.792 84.0219C194.952 83.3768 200.952 85.3766 201.274 88.5376C201.597 91.6986 188.308 96.9239 188.308 96.9239C188.308 96.9239 175.728 94.15 175.406 90.989C175.148 87.828 180.631 84.667 187.792 84.0219Z" fill="#CB542F"/>
<path d="M135.474 224.073C135.474 224.073 137.28 227.557 137.861 227.299C138.442 227.041 137.861 223.17 137.861 223.17L135.474 224.073Z" fill="#26224B"/>
<path d="M112.573 148.661L119.991 150.596C121.024 150.854 121.798 151.628 122.12 152.596L128.571 170.594C128.829 171.369 128.442 172.207 127.668 172.465C126.894 172.723 126.055 172.336 125.797 171.562L120.314 156.144L114.702 154.467L112.573 148.661Z" fill="#AF381E"/>
<path d="M128.894 214.139C131.539 218.074 132.894 220.074 135.41 224.073C135.41 224.073 137.345 224.073 137.796 223.235C137.216 218.525 136.958 216.139 136.571 211.429C136.571 211.429 133.99 208.462 133.345 208.655C131.991 209.107 130.765 208.204 129.41 208.72C128.83 208.849 129.604 213.881 128.894 214.139Z" fill="#AF381E"/>
<path d="M114.959 178.916C119.475 190.722 124.12 202.462 128.894 214.139C128.894 214.139 130.506 210.913 136.506 211.429C132.764 199.366 128.958 187.303 124.959 175.304C120.959 176.723 118.959 177.433 114.959 178.916Z" fill="#CB542F"/>
<path d="M126.249 177.368C126.249 177.368 120.83 175.304 115.282 181.303C111.734 171.046 108.251 160.789 104.896 150.467C103.928 147.371 105.219 144.081 107.799 143.177C110.379 142.274 113.476 143.952 114.637 146.984C118.637 157.047 122.507 167.175 126.249 177.368Z" fill="#AF381E"/>
<path d="M130.442 187.238C130.442 187.238 126.7 199.946 129.99 204.14C133.28 208.333 139.86 205.559 141.215 195.431C142.505 185.303 135.087 179.045 130.442 187.238Z" fill="#C6CFD1"/>
<path d="M116.056 180.658C116.056 180.658 106.315 182.013 109.154 191.625C111.992 201.237 124.314 204.527 126.12 199.817C127.926 195.108 121.346 187.883 116.056 180.658Z" fill="#C6CFD1"/>
<path d="M112.508 193.108C112.508 193.108 101.735 196.269 107.67 204.269C111.476 209.3 123.41 214.719 127.991 211.107C132.571 207.494 124.894 201.495 121.411 199.237C117.927 196.914 112.508 193.108 112.508 193.108Z" fill="#C6CFD1"/>
<path d="M117.669 201.495C117.669 201.495 111.024 201.946 113.347 209.429C115.669 216.913 123.991 220.267 127.474 217.493C130.958 214.655 127.539 206.784 117.669 201.495Z" fill="#C6CFD1"/>
</svg>
