<svg width="401" height="280" viewBox="0 0 401 280" fill="none" xmlns="http://www.w3.org/2000/svg">
<path fill-rule="evenodd" clip-rule="evenodd" d="M87.6304 21.4075C122.865 -1.88081 165.688 26.3131 207.569 31.5883C252.076 37.1944 304.339 18.5816 333.772 52.411C367.247 90.8867 373.149 150.677 351.328 196.821C330.683 240.478 279.315 254.52 232.534 266.492C189.51 277.502 143.999 282.705 106.123 259.573C65.9262 235.024 38.4867 192.728 34.8395 145.755C31.1738 98.5421 48.1021 47.534 87.6304 21.4075Z" fill="#DDE5FF"/>
<path d="M185.468 248.832C187.555 246.946 188.767 244.118 189.306 241.29C191.326 230.987 187.286 219.404 174.559 222.165C170.249 223.108 166.411 225.734 163.246 228.764C160.148 231.795 159.946 234.354 159.34 238.529C159.273 239.135 159.138 239.741 159.407 240.28C159.744 241.02 160.485 241.357 161.225 241.626C163.111 242.3 165.064 242.636 167.084 242.502C165.804 244.32 166.815 247.148 168.767 248.158C170.72 249.168 173.279 248.764 175.097 247.552C176.512 250.717 181.023 251.525 184.054 249.842C184.525 249.572 184.996 249.236 185.468 248.832Z" fill="#FFBA94"/>
<path d="M191.325 181.021C191.325 181.021 145.13 176.644 139.271 199.876C133.413 223.108 161.359 233.478 187.082 233.209L191.325 181.021Z" fill="#DD915F"/>
<path d="M392.536 48.227C394.287 49.1697 396.038 50.3818 397.452 51.8633C397.789 52.2 398.126 52.604 398.462 52.9407C398.799 53.3448 399.068 53.7488 399.338 54.1528C399.877 54.9609 400.281 55.7017 400.55 56.5771C401.089 58.1932 401.021 59.8094 400.415 61.2235C399.742 62.6376 398.462 63.9171 396.644 65.1966C394.153 66.88 391.661 68.0922 389.237 69.3043C386.88 70.449 384.59 71.5265 382.368 72.6039C380.079 73.6813 377.789 74.6914 375.298 75.7689C372.806 76.8463 370.112 77.9237 367.351 79.2032C366.611 79.5399 365.937 79.8093 365.197 80.146C364.456 80.4827 363.782 80.8194 363.042 81.156C361.628 81.8294 360.281 82.5028 359.001 83.1762C356.442 84.523 354.153 85.9372 352.267 87.3513C352.065 87.5533 351.796 87.688 351.594 87.89C351.392 88.092 351.123 88.2267 350.921 88.4287C350.449 88.8328 350.045 89.2368 349.574 89.6408C349.372 89.8429 349.102 90.0449 348.9 90.2469C348.698 90.4489 348.496 90.6509 348.294 90.9203C347.89 91.3243 347.486 91.7957 347.082 92.1998C346.88 92.4018 346.678 92.6038 346.543 92.8732C346.341 93.0752 346.207 93.3445 346.005 93.5466C345.668 93.9506 345.264 94.422 344.927 94.826C344.321 95.7014 343.715 96.5095 343.176 97.3176C343.176 97.3176 342.84 97.991 342.166 99.2704C342.099 99.4051 342.032 99.6071 341.897 99.7418C341.83 99.9438 341.762 100.146 341.628 100.348C341.493 100.752 341.291 101.223 341.089 101.695C340.618 102.637 340.348 103.782 339.877 104.994C339.136 107.486 338.328 110.583 337.924 114.152C337.52 117.721 337.453 121.762 337.924 125.937C338.059 126.947 338.126 128.024 338.328 129.102C338.53 130.179 338.665 131.257 338.934 132.267C339.405 134.354 340.012 136.442 340.82 138.799C342.436 143.445 344.658 148.63 346.948 154.152C349.17 159.674 351.459 165.465 353.075 171.661C354.692 177.788 355.634 184.32 355.5 190.516C355.432 193.411 355.096 197.384 353.816 202.098C352.537 206.745 350.449 211.795 347.284 216.711C344.119 221.627 340.012 226.34 335.163 230.313C330.315 234.354 324.725 237.586 318.8 240.01C315.837 241.222 312.806 242.165 309.709 242.973C308.901 243.108 308.16 243.31 307.352 243.445L306.207 243.714C306.005 243.781 305.803 243.781 305.601 243.849L304.928 243.916C303.985 244.051 303.042 244.118 302.167 244.253C301.695 244.32 301.224 244.387 300.82 244.387H299.54C298.665 244.387 297.79 244.387 296.914 244.387H296.241L295.635 244.32C295.231 244.32 294.827 244.253 294.423 244.253C293.615 244.185 292.806 244.118 291.998 244.051C291.19 243.983 290.517 243.849 289.776 243.714C289.035 243.579 288.295 243.445 287.621 243.377C286.881 243.243 286.274 243.108 285.601 242.906C284.254 242.569 282.908 242.3 281.695 241.896C281.089 241.694 280.483 241.559 279.877 241.357C279.608 241.29 279.271 241.155 279.002 241.088C278.732 241.02 278.463 240.886 278.126 240.818C276.982 240.414 275.904 240.078 274.827 239.674C272.807 238.866 270.854 238.125 269.17 237.384C267.419 236.643 265.938 235.97 264.524 235.297C263.11 234.69 261.965 234.084 260.955 233.613C259.473 232.94 257.992 232.064 256.51 231.054C255.029 230.044 253.615 228.967 252.403 227.754C249.911 225.33 248.228 222.569 248.295 219.674C248.295 214.556 255.5 206.273 261.561 207.149C263.581 207.418 265.467 208.495 267.285 209.505C270.382 211.189 274.019 213.142 278.194 214.893C282.369 216.643 287.015 218.327 291.662 219.202C292.268 219.337 292.806 219.337 293.412 219.472C294.019 219.539 294.557 219.674 295.163 219.674C295.702 219.741 296.308 219.741 296.847 219.808C297.386 219.808 297.924 219.741 298.463 219.741C298.732 219.741 299.002 219.741 299.271 219.741L300.012 219.606L300.753 219.472L301.157 219.404C301.291 219.404 301.426 219.337 301.628 219.27C302.234 219.135 302.84 219 303.446 218.866C304.052 218.731 304.658 218.529 305.264 218.327C307.688 217.519 310.113 216.576 312.402 215.297C314.692 214.017 316.847 212.536 318.8 210.852C322.705 207.485 325.803 203.378 327.486 199.068C327.958 197.99 328.227 196.913 328.631 195.835C328.901 194.758 329.102 193.681 329.237 192.603C329.507 190.448 329.507 188.226 329.237 186.004C328.766 181.559 327.419 177.048 325.938 172.873C324.389 168.698 322.705 164.792 321.291 161.492C319.204 156.711 316.981 151.728 315.029 146.206C314.759 145.533 314.557 144.792 314.288 144.119C314.018 143.445 313.816 142.705 313.614 141.964C313.143 140.55 312.806 139.001 312.402 137.519C311.662 134.556 311.123 131.526 310.719 128.496C309.17 116.375 310.113 103.782 314.22 91.7284C316.308 85.7351 319.204 79.8093 323.042 74.3547C323.985 73.008 325.062 71.7285 326.072 70.3817C326.544 69.7083 327.15 69.1023 327.756 68.4962L329.507 66.678C329.776 66.3413 330.045 66.072 330.382 65.7353L331.325 64.8599C331.931 64.2538 332.604 63.7151 333.278 63.109C334.624 61.9642 335.971 60.8868 337.318 59.9441C342.84 55.971 348.766 53.0081 354.624 50.7185C357.52 49.5738 360.617 48.5637 363.782 47.6882C366.947 46.8128 370.314 46.1394 373.816 45.7354C377.789 45.264 381.425 45.3314 384.658 45.8701C387.755 46.1394 390.449 47.1495 392.536 48.227Z" fill="#D38150"/>
<path d="M392.537 48.227C390.517 47.1496 387.756 46.2068 384.591 45.7354C381.426 45.264 377.722 45.1967 373.749 45.6007C370.921 45.9374 368.16 46.4762 365.534 47.0822C362.907 47.7556 360.348 48.4964 357.857 49.3044C353.076 50.9879 348.295 53.0081 343.648 55.6344C339.002 58.2606 334.423 61.5602 330.315 65.5333C326.409 69.439 323.11 73.7487 320.281 78.3278C320.618 78.2605 321.089 78.0585 321.695 77.6544C322.84 76.8464 323.985 76.0383 325.197 75.2302C326.409 74.4895 327.621 73.7487 328.766 72.9407L329.641 72.4019L330.584 71.8632C331.19 71.5265 331.796 71.1898 332.402 70.7858C333.008 70.4491 333.615 70.1124 334.221 69.7083C334.894 69.3716 335.5 69.0349 336.106 68.6983C341.224 66.072 346.342 64.0518 351.527 62.301C348.362 64.4559 345.332 66.9474 342.773 69.7083C341.493 71.0551 340.281 72.5366 339.204 74.0181C338.665 74.7588 338.194 75.5669 337.655 76.3076C337.183 77.1157 336.712 77.8564 336.241 78.5972C335.769 79.6073 335.298 80.9541 336.106 81.2908C336.51 81.4254 336.981 81.2908 337.453 81.1561C337.857 81.0214 338.261 80.8194 338.732 80.6174C339.136 80.4827 339.608 80.2807 340.012 80.0787C340.887 79.742 341.695 79.2706 342.436 78.8665C344.052 78.0585 345.601 77.1157 347.15 76.1056C346.005 77.5871 344.456 78.7319 343.379 80.2133C342.84 81.0214 342.369 81.8968 342.167 82.7049C342.099 83.1089 342.032 83.513 342.099 83.917C342.167 84.3211 342.301 84.7251 342.503 84.9944C342.975 85.6678 343.783 86.0045 344.524 86.2739C345.938 86.7453 347.284 86.9473 348.631 87.0146C349.978 87.0146 351.19 87.0146 352.47 86.88C355.298 84.7924 359.002 82.7049 363.244 80.7521C364.254 80.2807 365.399 79.742 366.476 79.2706C367.486 78.7992 368.564 78.3278 369.574 77.9238C371.594 77.0484 373.547 76.2403 375.432 75.4322C377.318 74.6241 379.069 73.8834 380.752 73.0753C382.436 72.3346 384.119 71.5265 385.803 70.7184C386.611 70.3144 387.554 69.9104 388.429 69.5063C389.304 69.1023 390.247 68.6309 391.123 68.1595C391.998 67.6882 392.941 67.2168 393.883 66.6781C394.826 66.1393 395.702 65.6006 396.644 64.9946C398.463 63.7151 399.742 62.4357 400.415 61.0215C401.089 59.6074 401.089 58.0586 400.55 56.3751C400.281 55.567 399.877 54.7589 399.338 53.9509C399.069 53.5468 398.799 53.1428 398.463 52.7388C398.126 52.3347 397.789 51.998 397.453 51.6613C395.971 50.3819 394.22 49.1698 392.537 48.227Z" fill="#FFC4A4"/>
<path d="M312.47 116.712C314.49 114.759 316.51 113.412 318.665 112.536C320.887 111.661 323.042 111.257 325.264 111.324C329.641 111.324 333.884 112.873 337.789 115.028C337.385 119.54 337.52 123.917 338.059 127.755C335.163 127.284 332.739 126.812 332.065 126.745C329.103 126.476 326.274 126.408 323.446 126.341C319.002 126.274 314.827 125.668 310.247 125.6C310.247 125.6 310.247 125.533 310.18 125.398C310.18 125.264 310.113 125.062 310.113 124.792C310.045 124.321 310.045 123.648 309.978 123.041C309.911 122.368 309.843 121.762 309.911 121.291C309.911 120.819 309.911 120.483 309.911 120.483C310.651 118.934 311.527 117.722 312.47 116.712Z" fill="#875844"/>
<path d="M351.054 171.661C350.178 172.401 349.101 172.536 348.023 172.805C340.414 174.556 335.027 179.405 328.899 183.58C328.023 178.327 326.003 172.738 323.512 166.88C327.148 164.321 331.256 162.233 335.633 161.492C340.01 160.752 344.656 161.156 349.168 164.051C350.044 164.59 350.919 165.331 351.592 166.341C351.862 167.149 352.064 167.957 352.333 168.832C352.333 169.977 351.794 171.055 351.054 171.661Z" fill="#875844"/>
<path d="M309.91 216.307C309.91 216.307 310.045 216.239 310.247 216.172C310.449 216.105 310.718 215.97 311.055 215.768C311.728 215.431 312.671 214.96 313.546 214.421C314.018 214.152 314.422 213.882 314.826 213.68C315.23 213.411 315.567 213.142 315.903 212.94C316.24 212.738 316.509 212.536 316.644 212.401C316.846 212.266 316.913 212.199 316.913 212.199C317.991 212.536 319.136 212.94 320.213 213.344C321.358 213.748 322.368 214.152 323.445 214.623C325.533 215.566 327.553 216.643 329.237 217.923C330.987 219.27 332.469 220.818 333.479 222.839C334.556 224.792 335.095 227.081 335.095 229.842C329.708 234.354 323.647 237.788 317.25 240.347C318.328 236.778 318.799 233.344 318.395 230.111C318.058 226.879 316.913 223.916 315.095 221.088C314.759 220.549 313.951 219.876 312.94 219.068C311.998 218.192 310.853 217.249 309.91 216.307Z" fill="#875844"/>
<path d="M252.737 117.385C252.737 117.385 250.784 129.641 265.531 150.449C280.346 171.189 292.871 197.99 288.427 224.253C283.982 250.515 225.397 239.808 225.397 239.808C225.397 239.808 219.134 141.156 225.397 121.762L252.737 117.385Z" fill="#D38150"/>
<path d="M260.483 165.331C263.445 164.725 267.553 162.502 271.526 159.405C269.573 156.307 267.621 153.344 265.533 150.449C264.927 149.573 264.321 148.698 263.782 147.89C262.301 150.853 260.348 153.95 257.722 156.778C248.765 166.745 254.893 166.543 260.483 165.331Z" fill="#875844"/>
<path d="M261.828 183.58C267.619 185.533 275.43 184.927 282.972 181.829C281.222 177.317 279.134 172.873 276.912 168.63C272.939 171.661 267.215 175.297 259.202 178.529C259.202 178.529 254.084 180.954 261.828 183.58Z" fill="#875844"/>
<path d="M286.611 192.94C282.032 195.229 274.355 198.058 263.177 199.203C263.177 199.203 257.588 200.078 264.321 204.792C270.18 208.899 279.675 210.314 289.237 208.293C288.833 203.108 287.958 197.99 286.611 192.94Z" fill="#875844"/>
<path d="M229.776 118.395C229.776 118.395 222.436 115.23 216.578 120.28C210.652 125.331 193.143 138.26 185.736 140.146C178.329 142.031 142.504 156.981 142.504 156.981C142.504 156.981 151.258 164.523 153.346 168.698C153.346 168.698 178.194 168.159 197.588 164.321C216.982 160.415 229.439 151.189 237.722 141.358C245.87 131.459 229.776 118.395 229.776 118.395Z" fill="#D38150"/>
<path d="M218.058 116.307C218.058 116.307 193.344 140.617 189.573 185.061C185.735 229.438 207.418 240.684 229.977 241.896C252.536 243.108 231.997 189.169 231.256 159.068C230.515 128.967 235.229 119.068 235.229 119.068L218.058 116.307Z" fill="#FFC4A4"/>
<path d="M193.142 235.566C187.957 237.316 183.243 240.212 181.29 244.454C178.933 249.505 183.041 252.872 187.822 252.737C187.822 252.737 188.361 260.279 196.576 258.259L198.933 256.508C198.933 256.508 200.482 259.269 206.071 256.508C211.189 254.017 217.721 250.448 218.529 244.185C219.404 237.653 213.613 234.286 207.822 233.747C203.782 233.276 198.192 233.882 193.142 235.566Z" fill="#FFC4A4"/>
<path d="M288.629 229.707C288.427 228.967 288.225 228.293 287.956 227.62C286.946 225.061 285.195 222.906 283.444 220.818C280.145 217.047 276.441 213.546 271.862 211.526C266.879 209.303 261.155 209.169 255.768 209.909C248.024 210.987 242.232 214.017 236.172 218.596C230.919 222.569 226.542 229.236 220.549 231.93C216.374 233.815 210.919 233.478 208.024 236.98C205.734 239.808 206.004 243.849 206.408 247.418C206.744 250.179 207.216 253.276 209.505 254.96C210.381 255.633 211.458 255.97 212.536 256.239C222.839 259.471 233.344 262.704 244.118 263.242C250.38 263.579 256.71 262.973 262.771 261.559C268.764 260.145 274.623 257.788 279.336 253.815C285.532 248.562 290.65 237.923 288.629 229.707Z" fill="#DD915F"/>
<path d="M258.797 209.573C261.288 213.411 266.541 222.839 265.261 233.613C265.261 233.613 267.618 239.337 271.591 230.717C274.352 224.792 275.093 218.462 274.622 213.007C273.746 212.468 272.804 211.93 271.861 211.526C267.753 209.707 263.241 209.303 258.797 209.573Z" fill="#875844"/>
<path d="M248.361 237.249C248.361 237.249 251.997 242.973 252.805 235.431C253.479 229.236 252.603 219.674 249.371 211.323C244.927 212.738 240.954 215.027 236.98 217.923C240.011 221.559 246.206 229.573 248.361 237.249Z" fill="#875844"/>
<path fill-rule="evenodd" clip-rule="evenodd" d="M197.857 31.392C197.857 31.392 212.469 23.5133 233.412 25.0621C254.355 26.6109 262.974 32.9408 262.974 32.9408C262.974 32.9408 282.166 6.00496 294.018 10.1127C301.088 12.5369 311.997 26.4089 308.024 58.1259C303.984 89.8428 268.429 131.055 216.577 129.573C164.726 128.092 154.692 80.752 151.998 56.577C149.372 32.4021 154.961 11.6615 163.177 9.16993C169.439 7.35176 189.507 20.483 197.857 31.392Z" fill="#DD915F"/>
<path d="M190.044 33.8162C190.044 33.8162 170.919 41.1562 158.529 53.8834C158.529 53.8834 156.441 19.1361 166.138 16.5099C170.717 15.2978 186.475 26.4761 190.044 33.8162Z" fill="#F7AF7F"/>
<path d="M292.333 15.7018C308.091 19.9442 300.818 56.0383 300.818 56.0383C286.811 43.4457 268.023 35.567 268.023 35.567C268.023 35.567 284.858 13.6816 292.333 15.7018Z" fill="#F7AF7F"/>
<path d="M289.907 74.3548C288.156 76.6443 294.486 83.715 297.112 86.4759C298.661 84.0517 300.075 81.5601 301.287 79.1359C298.998 77.3177 291.793 71.9305 289.907 74.3548Z" fill="#875844"/>
<path d="M282.435 83.5804C280.886 85.6679 287.62 92.2672 290.852 95.2301C292.603 93.1426 294.152 90.9204 295.634 88.7655C292.267 86.678 283.782 81.8295 282.435 83.5804Z" fill="#875844"/>
<path d="M273.478 94.4892C272.468 96.3074 277.923 102.301 281.088 105.533C283.714 103.109 286.206 100.617 288.495 97.9909C283.647 95.7014 274.69 92.4017 273.478 94.4892Z" fill="#875844"/>
<path d="M176.172 97.1154C174.758 95.6339 168.899 97.3174 164.32 98.9336C165.869 101.695 167.62 104.388 169.573 106.947C173.142 103.58 177.654 98.7316 176.172 97.1154Z" fill="#875844"/>
<path d="M171.996 84.725C170.11 83.3108 163.242 86.8798 159.605 88.9C160.616 91.4589 161.76 93.9505 163.04 96.4421C166.407 93.4791 174.016 86.2738 171.996 84.725Z" fill="#875844"/>
<path d="M164.589 74.7586C162.973 73.6139 158.798 75.9707 155.902 77.9236C156.576 80.5498 157.451 83.1761 158.394 85.8697C162.367 81.8966 166.744 76.3074 164.589 74.7586Z" fill="#875844"/>
<path d="M235.093 42.5703C238.595 42.2336 240.009 35.8364 243.309 27.3516V26.2741C240.413 25.8027 237.181 25.3314 233.612 25.062C232.4 35.163 232.938 42.7723 235.093 42.5703Z" fill="#875844"/>
<path d="M221.896 49.035C226.879 49.237 227.149 36.9812 231.189 24.9274C227.082 24.7254 223.243 24.9274 219.741 25.3314C217.317 35.163 217.115 48.833 221.896 49.035Z" fill="#875844"/>
<path d="M208.898 40.8868C211.995 41.2908 214.352 31.7959 218.662 25.3987C214.958 25.8701 211.726 26.5435 208.898 27.2842C207.551 31.7959 206.272 40.5501 208.898 40.8868Z" fill="#875844"/>
<path d="M270.921 67.7553C269.305 57.2503 259.541 50.0449 249.036 51.6611C238.531 53.2772 231.325 63.0415 232.941 73.5465C234.558 84.0515 244.322 91.2568 254.827 89.6406C265.332 88.0245 272.537 78.1929 270.921 67.7553Z" fill="white"/>
<path d="M205.397 66.2738C203.781 55.7688 194.017 48.5635 183.512 50.1796C173.007 51.7958 165.802 61.56 167.418 72.065C169.034 82.57 178.798 89.7754 189.303 88.1592C199.808 86.6104 207.014 76.7788 205.397 66.2738Z" fill="white"/>
<path d="M245.194 60.2132C251.659 59.2031 257.72 63.6475 258.662 70.1121C259.672 76.5768 255.228 82.6373 248.763 83.5801C242.299 84.5902 236.238 80.1458 235.295 73.6811C234.285 67.2839 238.73 61.2233 245.194 60.2132Z" fill="#0B1411"/>
<path d="M180.213 72.9404C179.203 66.4758 183.648 60.4152 190.112 59.4725C196.577 58.4624 202.638 62.9068 203.58 69.3714C204.59 75.836 200.146 81.8966 193.681 82.8393C187.284 83.8494 181.224 79.405 180.213 72.9404Z" fill="#0B1411"/>
<path d="M253.277 71.9303C255.163 71.661 256.442 69.9102 256.173 68.0246C255.904 66.1391 254.153 64.8597 252.267 65.129C250.382 65.3984 249.102 67.1492 249.372 69.0347C249.641 70.9876 251.392 72.267 253.277 71.9303Z" fill="white"/>
<path d="M185.533 63.4454C183.647 63.7148 182.368 65.4656 182.637 67.3511C182.907 69.2367 184.658 70.5161 186.543 70.2468C188.429 69.9774 189.708 68.2266 189.439 66.341C189.237 64.4555 187.418 63.1761 185.533 63.4454Z" fill="white"/>
<path d="M218.056 122.368C235.684 122.368 249.975 112.72 249.975 100.819C249.975 88.9182 235.684 79.2705 218.056 79.2705C200.427 79.2705 186.137 88.9182 186.137 100.819C186.137 112.72 200.427 122.368 218.056 122.368Z" fill="#FFC4A4"/>
<path d="M218.125 94.0851C219.001 94.8932 225.263 100.55 232.401 97.6541C232.401 97.6541 232.873 103.109 228.967 106.812C228.967 106.812 226.071 102.503 219.135 102.099C212.267 101.695 207.553 106.004 207.553 106.004C204.455 102.503 204.792 97.9908 204.792 97.9908C204.792 97.9908 213.142 99.3376 217.991 93.9504C217.991 94.0178 218.058 94.0178 218.125 94.0851Z" fill="#0A1311"/>
<path d="M219.133 102.166C226.002 102.57 228.965 106.88 228.965 106.88C226.945 108.833 223.847 110.247 218.864 110.247C213.005 110.179 209.571 108.361 207.551 106.072C207.551 106.004 212.265 101.762 219.133 102.166Z" fill="#CB542F"/>
<path fill-rule="evenodd" clip-rule="evenodd" d="M218.132 87.01C218.543 87.0137 218.874 87.3504 218.87 87.762L218.803 95.2367C218.799 95.6484 218.463 95.979 218.051 95.9753C217.639 95.9716 217.309 95.6349 217.313 95.2233L217.38 87.7486C217.384 87.337 217.72 87.0063 218.132 87.01Z" fill="#0B1411"/>
<path fill-rule="evenodd" clip-rule="evenodd" d="M201.891 89.1839C201.957 89.5901 201.682 89.9732 201.275 90.0396L201.27 90.0404L201.251 90.0437C201.233 90.0466 201.207 90.0513 201.171 90.0576C201.099 90.0703 200.99 90.0898 200.848 90.1168C200.563 90.1708 200.142 90.2546 199.602 90.373C198.522 90.6097 196.969 90.9844 195.085 91.5346C191.314 92.6356 186.23 94.4365 180.966 97.2348C180.603 97.428 180.152 97.29 179.958 96.9266C179.765 96.5631 179.903 96.1118 180.267 95.9186C185.643 93.0604 190.828 91.2249 194.667 90.1037C196.587 89.5429 198.174 89.16 199.283 88.9169C199.837 88.7954 200.272 88.7087 200.57 88.6522C200.719 88.624 200.834 88.6033 200.912 88.5895C200.951 88.5826 200.981 88.5775 201.002 88.574L201.026 88.57L201.032 88.5689L201.034 88.5686C201.034 88.5686 201.035 88.5684 201.155 89.304L201.035 88.5684C201.441 88.5021 201.824 88.7777 201.891 89.1839Z" fill="#0B1411"/>
<path fill-rule="evenodd" clip-rule="evenodd" d="M197.416 94.7444C197.415 94.7445 197.415 94.7445 197.415 94.7446L197.414 94.7449L197.4 94.7482C197.386 94.7515 197.365 94.7568 197.335 94.7643C197.276 94.7794 197.185 94.8036 197.064 94.8383C196.821 94.9076 196.455 95.0192 195.979 95.1849C195.025 95.5163 193.627 96.0646 191.87 96.9261C188.358 98.6489 183.414 101.626 177.742 106.631C177.434 106.903 176.963 106.874 176.69 106.565C176.418 106.256 176.447 105.785 176.756 105.513C182.532 100.417 187.588 97.3667 191.214 95.5878C193.027 94.6986 194.481 94.1273 195.489 93.7769C195.993 93.6017 196.385 93.4818 196.655 93.4049C196.789 93.3664 196.893 93.3388 196.965 93.3204C197.001 93.3111 197.029 93.3042 197.049 93.2995L197.072 93.2939L197.079 93.2922L197.082 93.2917L197.083 93.2915C197.083 93.2914 197.083 93.2913 197.249 94.0179L197.083 93.2913C197.484 93.1997 197.884 93.4507 197.976 93.852C198.067 94.2531 197.817 94.6524 197.416 94.7444L197.416 94.7444L197.416 94.7444Z" fill="#0B1411"/>
<path fill-rule="evenodd" clip-rule="evenodd" d="M202.691 94.4836C202.88 94.8492 202.737 95.2989 202.371 95.488C196.589 98.4789 192.167 102.053 189.192 104.878C187.705 106.29 186.581 107.514 185.831 108.382C185.457 108.815 185.175 109.16 184.989 109.394C184.896 109.511 184.827 109.601 184.781 109.661C184.758 109.69 184.742 109.712 184.731 109.727L184.719 109.742L184.717 109.746C184.717 109.746 184.717 109.746 184.717 109.746C184.717 109.746 184.717 109.746 184.116 109.304L183.516 108.862C183.272 109.194 183.343 109.66 183.675 109.904C184.006 110.148 184.473 110.077 184.717 109.746M184.116 109.304C183.516 108.862 183.516 108.862 183.516 108.862L183.518 108.859L183.523 108.854L183.538 108.833C183.552 108.815 183.571 108.789 183.597 108.756C183.648 108.689 183.723 108.592 183.822 108.467C184.02 108.217 184.315 107.857 184.704 107.407C185.482 106.507 186.639 105.247 188.165 103.797C191.217 100.899 195.752 97.2337 201.686 94.164C202.052 93.9749 202.502 94.118 202.691 94.4836" fill="#0B1411"/>
<path fill-rule="evenodd" clip-rule="evenodd" d="M235.508 94.3515C235.696 93.9851 236.145 93.8403 236.511 94.0279L236.171 94.6913C236.511 94.0279 236.511 94.028 236.512 94.0282L236.512 94.0285L236.514 94.0296L236.52 94.0328L236.542 94.044C236.56 94.0535 236.586 94.0674 236.62 94.0856C236.688 94.122 236.786 94.1758 236.913 94.2479C237.167 94.3919 237.537 94.6089 238.009 94.9049C238.952 95.4969 240.302 96.4052 241.948 97.6795C245.238 100.228 249.708 104.241 254.461 110.115C254.72 110.435 254.67 110.904 254.35 111.163C254.03 111.422 253.561 111.372 253.302 111.052C248.628 105.276 244.243 101.343 241.035 98.8579C239.431 97.6154 238.121 96.735 237.217 96.1675C236.764 95.8837 236.414 95.6782 236.178 95.5448C236.06 95.4781 235.971 95.4294 235.913 95.3979C235.884 95.3822 235.862 95.3708 235.849 95.3636L235.834 95.356L235.831 95.3546L235.831 95.3545C235.831 95.3544 235.831 95.3544 235.831 95.3544L235.831 95.3545C235.465 95.1667 235.32 94.7178 235.508 94.3515Z" fill="#0B1411"/>
<path fill-rule="evenodd" clip-rule="evenodd" d="M241.207 94.4063C241.364 94.026 241.8 93.8452 242.181 94.0026L241.896 94.6913C242.181 94.0026 242.18 94.0025 242.181 94.0026L242.191 94.0069L242.218 94.0182C242.242 94.0281 242.276 94.0427 242.321 94.0619C242.411 94.1004 242.544 94.1572 242.714 94.2321C243.054 94.3817 243.547 94.6032 244.162 94.8924C245.39 95.4705 247.106 96.3199 249.059 97.407C252.958 99.5765 257.84 102.713 261.682 106.555C261.973 106.846 261.973 107.318 261.682 107.609C261.391 107.9 260.919 107.9 260.628 107.609C256.927 103.908 252.18 100.85 248.335 98.7095C246.416 97.6418 244.731 96.8078 243.527 96.2411C242.925 95.9579 242.444 95.7416 242.114 95.5967C241.949 95.5242 241.822 95.4696 241.737 95.4333C241.694 95.4151 241.662 95.4016 241.641 95.3927L241.618 95.3828L241.611 95.38" fill="#0B1411"/>
<path fill-rule="evenodd" clip-rule="evenodd" d="M237.059 89.966C237.139 89.5624 237.532 89.3006 237.936 89.3813L237.789 90.1122C237.936 89.3813 237.935 89.3813 237.936 89.3813L237.945 89.3833L237.971 89.3884C237.993 89.3929 238.025 89.3996 238.067 89.4084C238.151 89.4262 238.274 89.4526 238.434 89.4882C238.754 89.5594 239.222 89.6671 239.813 89.8138C240.997 90.1073 242.68 90.5574 244.687 91.1854C248.698 92.4403 254.017 94.4106 259.225 97.2702C259.586 97.4683 259.718 97.9214 259.52 98.2823C259.322 98.6431 258.869 98.775 258.508 98.5769C253.414 95.78 248.194 93.8446 244.242 92.608C242.267 91.9902 240.613 91.548 239.455 91.2606C238.875 91.117 238.42 91.0121 238.111 90.9434C237.956 90.909 237.838 90.8836 237.759 90.867C237.72 90.8587 237.69 90.8526 237.671 90.8486L237.649 90.8442L237.643 90.843" fill="#0B1411"/>
<path d="M219.27 75.7015C226.004 75.9708 231.323 78.5971 231.256 81.56C231.121 84.523 218.192 87.7553 218.192 87.7553C218.192 87.7553 206.812 83.6475 206.946 80.6846C207.081 77.7217 212.536 75.4995 219.27 75.7015Z" fill="#CB542F"/>
<path d="M243.645 270.852L238.864 266.61L232.602 239.135L242.635 240.819L243.645 270.852Z" fill="#6A5847"/>
<path d="M17.7891 209.977L24.3884 209.169L27.89 186.004L17.7891 178.664V209.977Z" fill="#91755D"/>
<path d="M12.6719 205.465V170.247L116.442 235.162L118.664 270.852L111.998 265.936L111.459 240.482L19.0018 183.58L17.7897 209.977L12.6719 205.465Z" fill="#6A5847"/>
<path d="M116.441 235.162H250.919L250.582 270.852H243.646L239.808 243.782L128.63 242.974L124.724 270.852H118.664L116.441 235.162Z" fill="#91755D"/>
<path d="M12.6719 170.247L133.21 172.065L250.92 235.162H116.442L12.6719 170.247Z" fill="#A7907D"/>
<path d="M238.865 218.125L139.674 170.044C137.519 168.63 134.96 167.89 132.401 167.89L23.9844 167.822L119.809 221.492L238.865 218.125Z" fill="#D0D0F3"/>
<path fill-rule="evenodd" clip-rule="evenodd" d="M103.862 170.781L171.953 208.198C172.182 208.314 172.349 208.489 172.433 208.705C172.517 208.92 172.507 209.148 172.429 209.349C172.273 209.753 171.853 210.044 171.324 210.044H119.308L59.9297 172.719L103.862 170.781ZM62.1141 173.296L119.502 209.371H171.324C171.603 209.371 171.756 209.225 171.801 209.106C171.825 209.047 171.823 208.993 171.806 208.949C171.79 208.908 171.749 208.849 171.645 208.797L171.639 208.794L103.703 171.463L62.1141 173.296Z" fill="white"/>
<path fill-rule="evenodd" clip-rule="evenodd" d="M148.077 179.931L179.097 195.878L179.107 195.884C179.405 196.063 179.526 196.395 179.419 196.697C179.313 196.997 179.017 197.182 178.664 197.182H159.674C159.667 197.182 159.659 197.183 159.651 197.183C159.547 197.184 159.368 197.185 159.209 197.055L130.617 181.11L130.612 181.108C130.314 180.929 130.193 180.596 130.3 180.294C130.406 179.994 130.702 179.809 131.055 179.809L147.624 179.809C147.658 179.809 147.732 179.809 147.811 179.822C147.873 179.832 147.98 179.857 148.077 179.931ZM147.666 180.483C147.652 180.482 147.638 180.482 147.621 180.482H131.055C130.994 180.482 130.962 180.497 130.949 180.506C130.944 180.509 130.94 180.512 130.938 180.514C130.941 180.518 130.947 180.523 130.956 180.528L159.61 196.507L159.611 196.509C159.617 196.509 159.623 196.509 159.63 196.509C159.643 196.509 159.657 196.509 159.674 196.509H178.664C178.725 196.509 178.757 196.494 178.77 196.486C178.776 196.482 178.779 196.479 178.781 196.477C178.778 196.474 178.774 196.47 178.767 196.465L147.689 180.488L147.685 180.484C147.68 180.484 147.673 180.483 147.666 180.483Z" fill="white"/>
<path fill-rule="evenodd" clip-rule="evenodd" d="M165.332 205.263H111.797V204.59H165.332V205.263Z" fill="white"/>
<path fill-rule="evenodd" clip-rule="evenodd" d="M104.254 199.809H156.644V200.482H104.254V199.809Z" fill="white"/>
<path fill-rule="evenodd" clip-rule="evenodd" d="M95.9727 194.624H147.218V195.297H95.9727V194.624Z" fill="white"/>
<path fill-rule="evenodd" clip-rule="evenodd" d="M87.3516 189.169H137.318V189.842H87.3516V189.169Z" fill="white"/>
<path fill-rule="evenodd" clip-rule="evenodd" d="M79.4062 184.253H128.295V184.927H79.4062V184.253Z" fill="white"/>
<path fill-rule="evenodd" clip-rule="evenodd" d="M73.7383 180.752L118.721 179.27L118.743 179.943L73.7604 181.425L73.7383 180.752Z" fill="white"/>
<path fill-rule="evenodd" clip-rule="evenodd" d="M162.269 210L95.8047 171.885L96.1397 171.301L162.604 209.416L162.269 210Z" fill="white"/>
<path fill-rule="evenodd" clip-rule="evenodd" d="M88.1992 171.508L150.152 209.421L149.8 209.995L87.8477 172.083L88.1992 171.508Z" fill="white"/>
<path fill-rule="evenodd" clip-rule="evenodd" d="M79.5812 171.913L140.12 209.422L139.765 209.994L79.2266 172.486L79.5812 171.913Z" fill="white"/>
<path fill-rule="evenodd" clip-rule="evenodd" d="M69.9541 172.318L129.415 209.422L129.059 209.993L69.5977 172.889L69.9541 172.318Z" fill="white"/>
<path d="M27.9588 172.603L111.729 225.33C116.645 227.351 121.426 225.196 121.224 223.512L100.888 75.9036C100.82 75.2976 100.416 74.7588 99.8102 74.4221L10.1811 46.4088C8.767 45.7354 7.21819 46.8802 7.42021 48.429L27.2181 171.324C27.3527 171.863 27.6221 172.267 27.9588 172.603Z" fill="#B1B1EB"/>
<path d="M1.76172 46.611C1.76172 46.611 4.32063 42.84 10.3812 45.8703L98.8655 74.0856L93.1416 75.2303L1.76172 46.611Z" fill="#D0D0F3"/>
<path d="M21.5613 172.603L111.729 225.33C113.076 226.34 115.029 225.196 114.759 223.512L94.2208 76.6444C94.1535 76.0383 93.7494 75.4996 93.1434 75.1629L3.71629 46.4088C2.30216 45.7354 0.753343 46.8802 0.955362 48.429L20.7532 171.324C20.8879 171.863 21.1573 172.267 21.5613 172.603Z" fill="#9193DA"/>
<path d="M237.45 227.351H123.579C121.558 227.351 119.875 225.667 119.875 223.647V221.56C119.875 219.539 121.558 217.856 123.579 217.856H237.45C239.47 217.856 241.154 219.539 241.154 221.56V223.647C241.154 225.667 239.47 227.351 237.45 227.351Z" fill="#B1B1EB"/>
<path d="M142.437 166.654C140.754 166.789 139.07 167.26 137.925 167.866C132.471 170.762 130.316 174.869 128.431 180.324C127.959 181.671 128.094 183.556 129.441 184.162C130.383 184.566 131.393 184.162 132.336 183.826C131.326 185.24 131.663 187.462 133.144 188.472C134.626 189.482 136.848 189.011 137.791 187.529C137.521 188.943 138.868 190.223 140.282 190.425C141.696 190.627 143.111 190.088 144.39 189.415C151.932 185.711 155.366 175.341 149.171 168.876C148.363 168.001 147.42 167.26 146.276 166.923C145.265 166.587 143.851 166.519 142.437 166.654Z" fill="#FFBA94"/>
<path d="M246.614 139.381C246.614 139.381 239.139 136.553 233.483 141.873C227.826 147.193 210.924 160.863 203.584 163.085C196.244 165.307 161.16 181.873 161.16 181.873C161.16 181.873 170.251 189.011 172.541 193.051C172.541 193.051 197.322 191.435 216.513 186.654C235.705 181.873 247.759 172.109 255.57 161.873C263.382 151.637 246.614 139.381 246.614 139.381Z" fill="#DD915F"/>
<path d="M189.441 182.277C194.289 189.348 196.781 177.765 192 167.799C188.094 169.482 183.784 171.435 179.609 173.321C182.236 174.735 186.074 177.361 189.441 182.277Z" fill="#875844"/>
<path d="M213.82 157.496C209.847 160.189 206.143 162.344 203.584 163.152C203.247 163.287 202.776 163.422 202.305 163.556C205.402 166.183 209.577 170.223 211.598 174.129C214.695 180.189 220.89 172.109 213.82 157.496Z" fill="#875844"/>
<path d="M230.924 165.779C233.685 173.051 239.207 161.671 230.655 144.432C227.961 146.789 224.392 149.684 220.621 152.58C224.055 155.61 229.039 160.795 230.924 165.779Z" fill="#875844"/>
<path d="M161.158 181.873C161.158 181.873 143.65 188.54 144.727 195.88C145.805 203.22 150.249 200.189 150.249 200.189C150.249 200.189 150.653 206.991 155.973 204.634C155.973 204.634 157.926 208.674 163.313 205.307C168.7 201.94 169.172 200.122 172.606 193.051C175.906 186.048 161.158 181.873 161.158 181.873Z" fill="#FFC4A4"/>
</svg>
