<svg width="400" height="280" viewBox="0 0 400 280" fill="none" xmlns="http://www.w3.org/2000/svg">
<path d="M243.165 191.61C243.165 191.61 217.82 191.54 216.764 207.31C215.99 218.785 222.045 227.515 235.773 233.147C240.067 234.907 249.712 235.541 252.106 232.091C254.499 228.641 258.794 195.694 258.794 195.694C258.794 195.694 253.091 189.217 243.165 191.61Z" fill="#636363"/>
<path d="M377.701 67.4229C380.799 67.9157 384.108 69.3237 385.727 71.5765C386.501 72.7029 386.924 73.8294 386.783 75.0966C386.642 76.3638 386.079 77.7014 385.023 79.1798C384.319 80.1655 383.615 81.0807 382.911 81.9255C382.207 82.7703 381.433 83.6151 380.728 84.3895C380.376 84.7415 380.024 85.1639 379.672 85.5159C379.32 85.8679 378.968 86.2903 378.687 86.572C378.405 86.924 378.053 87.276 377.701 87.6984C377.56 87.8392 377.42 88.0504 377.208 88.1912C377.068 88.4024 376.927 88.5432 376.786 88.7544C375.589 90.092 374.463 91.5 373.548 92.8376C372.562 94.1753 371.717 95.5129 371.154 96.7801C370.52 98.0473 370.239 99.1737 370.098 100.089C370.098 100.23 370.028 100.3 370.028 100.441C369.957 100.511 370.028 100.723 369.957 100.863C369.957 101.004 369.887 101.145 369.887 101.356V101.849C369.887 101.99 369.816 102.131 369.816 102.342C369.816 102.483 369.816 102.694 369.816 102.835C369.816 103.187 369.816 103.539 369.816 103.891C369.887 105.299 370.168 106.918 370.661 108.607C371.154 110.227 371.788 111.846 372.421 113.324C372.421 113.324 372.773 113.888 373.336 114.873C373.97 115.859 374.885 117.337 376.293 119.168C376.645 119.66 376.997 120.083 377.42 120.576C377.842 121.139 378.264 121.632 378.757 122.265C379.743 123.462 380.799 124.729 381.855 126.067C384.108 128.813 386.853 132.121 389.599 136.064C391.007 138.035 392.345 140.218 393.682 142.611C395.02 145.005 396.217 147.61 397.202 150.426L397.906 152.538L398.54 154.791L399.033 157.043C399.174 157.818 399.314 158.522 399.455 159.296C399.948 162.323 400.089 165.351 399.948 168.308C399.737 174.221 398.399 179.994 396.287 185.063C395.724 186.33 395.161 187.597 394.527 188.724C394.386 189.005 394.246 189.287 394.034 189.639C393.894 189.921 393.682 190.202 393.541 190.484C393.189 191.047 392.908 191.61 392.556 192.103C391.922 193.159 391.148 194.145 390.444 195.13C389.74 196.116 388.965 197.031 388.191 197.876C387.839 198.298 387.487 198.721 386.994 199.214C386.572 199.636 386.079 200.129 385.516 200.622C384.53 201.678 383.263 202.663 381.925 203.719C379.18 205.831 375.8 207.943 371.999 209.703C368.197 211.463 363.903 212.731 359.538 213.646C355.173 214.491 350.738 214.913 346.373 214.983C337.643 215.124 329.406 213.927 322.577 212.519C315.748 211.111 310.398 209.492 307.23 208.647C302.654 207.38 296.74 204.423 295.966 199.847C295.262 195.764 299.627 188.02 304.273 187.668C305.822 187.527 307.441 188.09 308.99 188.583C314.129 190.273 321.38 192.385 329.547 193.722C333.63 194.356 337.925 194.778 342.29 194.849C346.654 194.919 351.019 194.497 355.173 193.582C359.256 192.596 363.128 191.188 366.296 189.076C369.464 187.105 371.928 184.5 373.829 181.754C377.701 176.192 378.476 170.068 378.264 165.914C378.194 164.436 377.983 162.887 377.701 161.479C377.349 160 376.856 158.663 376.293 157.255C375.73 155.847 374.956 154.439 374.111 153.031C373.266 151.623 372.28 150.214 371.224 148.806C369.042 145.99 366.578 143.174 363.903 140.147C362.565 138.669 361.227 137.12 359.819 135.501C358.411 133.881 356.933 132.121 355.595 130.291C352.85 126.63 350.315 122.547 348.203 117.9C347.218 115.577 346.302 113.043 345.598 110.368C344.965 107.692 344.472 104.806 344.472 101.849C344.402 101.145 344.472 100.371 344.542 99.5961C344.542 98.8217 344.613 98.1177 344.683 97.3433C344.754 96.5689 344.894 95.8649 344.965 95.0905C345.106 94.3161 345.317 93.5417 345.528 92.6968L345.81 91.5C345.95 91.148 346.091 90.7256 346.232 90.3736C346.514 89.5992 346.795 88.8952 347.077 88.1208C347.429 87.4168 347.781 86.7128 348.133 86.0087L348.696 84.9527C348.907 84.6007 349.118 84.2487 349.33 83.9671C349.752 83.3335 350.174 82.6295 350.597 81.9959C351.019 81.3623 351.512 80.7287 352.005 80.1655C352.92 78.8982 354.047 77.8422 355.103 76.7158C357.355 74.6038 359.749 72.7029 362.424 71.1541C363.903 70.2389 365.381 69.6053 366.789 68.9717C367.493 68.6901 368.197 68.4789 368.901 68.2677C369.605 68.0565 370.239 67.8453 370.872 67.7045C372.21 67.4933 373.407 67.2821 374.533 67.2117C375.8 67.2821 376.786 67.2821 377.701 67.4229Z" fill="#636363"/>
<path d="M377.701 67.4228C376.786 67.282 375.8 67.282 374.674 67.282C373.548 67.282 372.351 67.4932 371.013 67.7749C370.38 67.9157 369.676 68.1269 369.042 68.3381C368.338 68.5493 367.634 68.7605 366.93 69.0421C365.522 69.6757 364.043 70.3093 362.565 71.2245C358.271 73.7589 354.469 77.0678 351.442 81.1511C348.414 85.1639 346.162 90.0216 345.176 95.2313C344.331 100.159 344.613 105.087 345.528 109.452C346.514 113.888 348.133 117.83 350.034 121.35C350.104 121.068 350.174 120.716 350.174 120.153C349.963 115.859 349.893 111.353 350.315 106.847C350.597 104.595 350.878 102.342 351.442 100.089C351.653 98.9625 352.075 97.9065 352.357 96.7801L352.99 95.1609C353.202 94.5976 353.413 94.0344 353.694 93.5416C352.568 100.159 354.399 106.143 357.215 110.86C357.426 111.212 357.707 111.635 357.989 111.846C358.271 112.057 358.623 112.198 358.904 111.987C359.186 111.776 359.256 111.423 359.397 111.071C359.96 108.326 360.242 105.58 360.242 102.975C360.664 104.243 360.875 105.651 361.368 106.918C361.65 107.551 362.072 108.185 362.565 108.607C363.058 109.03 363.691 109.311 364.325 109.241C364.959 109.171 365.592 108.819 366.085 108.396C367.915 106.988 369.042 105.228 370.028 103.891C369.957 102.835 369.957 101.849 370.098 100.934C370.098 100.652 370.168 100.511 370.168 100.371C370.239 100.23 370.168 100.019 370.239 99.8073C370.309 99.5961 370.309 99.4553 370.38 99.2441C370.45 99.0329 370.52 98.8217 370.591 98.6105C370.872 97.7657 371.224 96.7801 371.788 95.8649L371.999 95.5129L372.21 95.1609C372.351 94.9496 372.492 94.6681 372.632 94.3864C372.984 93.964 373.266 93.3304 373.688 92.908C375.167 90.8664 376.856 88.8248 378.828 86.6423C379.32 86.1495 379.813 85.5863 380.306 84.9527C380.799 84.3895 381.362 83.8263 381.855 83.1927C382.418 82.5591 382.911 81.9255 383.474 81.2919C384.037 80.6582 384.53 79.9542 385.023 79.1798C386.009 77.7014 386.642 76.3638 386.783 75.0966C386.924 73.8293 386.501 72.6325 385.727 71.5765C384.178 69.3941 380.869 67.9861 377.701 67.4228Z" fill="#A8A8A8"/>
<path d="M256.4 135.923C256.4 135.923 244.643 147.75 237.744 155.565C230.845 163.379 209.302 167.04 209.302 167.04C209.302 167.04 198.742 171.053 199.939 176.474C201.206 181.895 218.454 187.527 234.154 185.978C249.853 184.429 260.202 175.629 262.877 164.365C265.623 153.03 256.4 135.923 256.4 135.923Z" fill="#636363"/>
<path d="M203.318 180.628C207.965 179.149 209.795 171.335 209.795 171.335C209.795 171.335 209.373 160.986 204.937 157.959C200.502 154.931 199.516 159.155 199.516 159.155C199.516 159.155 197.193 152.678 191.984 154.157C186.844 155.635 188.534 160.563 188.534 160.563C188.534 160.563 182.691 161.056 183.747 165.421L184.38 167.392C184.38 167.392 181.564 168.378 183.606 171.335C185.647 174.292 186.07 175.559 194.096 178.938C197.545 180.346 203.318 180.628 203.318 180.628Z" fill="#A8A8A8"/>
<path d="M196.982 165.984C196.419 166.336 195.926 166.829 195.574 167.392C194.307 169.434 192.688 172.884 195.363 175.418C197.334 177.248 200.15 176.826 201.84 175.559C203.529 174.362 204.797 172.391 204.374 169.997C203.67 165.139 199.517 164.365 196.982 165.984Z" fill="#CB542F"/>
<path d="M190.575 173.517C191.139 172.461 190.787 170.772 188.886 169.575C185.999 167.744 183.113 170.56 186.211 173.306C188.252 175.066 189.942 174.714 190.575 173.517Z" fill="#CB542F"/>
<path d="M192.617 167.392C193.18 166.336 192.828 164.647 190.927 163.45C188.041 161.619 185.154 164.435 188.252 167.181C190.294 168.941 191.983 168.519 192.617 167.392Z" fill="#CB542F"/>
<path d="M196.137 162.887C196.7 161.831 196.348 160.141 194.447 158.944C191.561 157.114 188.674 159.93 191.772 162.675C193.814 164.435 195.503 164.013 196.137 162.887Z" fill="#CB542F"/>
<path d="M204.515 163.802C206.064 162.887 205.289 159.789 203.952 159.085C201.488 157.747 201.276 162.042 202.473 163.379C203.036 163.872 203.881 164.154 204.515 163.802Z" fill="#CB542F"/>
<path d="M318.002 188.724C308.92 165.773 299.134 154.016 293.361 147.187C287.588 140.358 280.126 125.504 280.126 125.504L258.09 131.488C258.09 131.488 249.501 150.566 250.065 176.896C250.205 185.204 251.543 193.793 254.077 201.466L318.002 212.097C322.226 206.817 322.366 199.706 318.002 188.724Z" fill="#494949"/>
<path d="M294.699 207.662C295.966 190.836 286.11 171.194 282.238 157.114C278.366 143.034 277.45 133.037 277.45 133.037L252.669 126.137C252.669 126.137 254.148 147.821 247.6 168.8C246.474 172.32 240.631 186.189 240.912 199.284L294.699 208.225C294.699 208.014 294.699 207.803 294.699 207.662Z" fill="#A8A8A8"/>
<path d="M288.715 141.555C288.715 141.555 279.492 139.302 277.31 154.368C275.831 164.506 270.833 165.21 256.612 168.871C256.612 168.871 247.178 170.631 247.952 177.178C248.234 179.783 253.937 184.5 253.937 184.5C253.937 184.5 272.382 193.229 289.067 180.064C305.752 166.97 298.289 143.174 288.715 141.555Z" fill="#636363"/>
<path d="M318.001 196.468C316.03 193.23 306.526 185.837 299.908 186.682C284.631 188.513 278.014 196.116 276.042 205.057L322.648 212.801C323.352 204.986 321.803 200.903 318.001 196.468Z" fill="#636363"/>
<path d="M259.005 170.068C261.047 173.728 258.583 182.388 254.64 184.148C253.092 184.852 251.402 184.922 249.712 184.852C246.756 184.852 243.658 184.641 241.264 182.951C238.096 183.796 234.576 184.922 232.535 181.472C229.789 176.826 234.365 174.432 234.365 174.432C234.365 174.432 230.423 170.068 234.154 167.604L235.984 166.547C235.984 166.547 234.647 163.872 238.167 163.168C241.687 162.464 242.883 161.76 251.05 164.858C254.64 166.336 259.005 170.068 259.005 170.068Z" fill="#A8A8A8"/>
<path d="M204.022 81.2919C204.022 81.2919 200.15 34.5456 211.203 27.8575C217.751 23.915 240.913 40.9521 245.841 55.3843C245.841 55.3843 215.568 73.0549 204.022 81.2919Z" fill="#494949"/>
<path d="M237.252 55.3138C237.252 55.3138 225.776 54.9618 209.443 70.2389C209.443 70.2389 206.909 41.9377 214.09 36.5168C215.991 35.0384 231.408 42.9233 237.252 55.3138Z" fill="#A8A8A8"/>
<path d="M318.776 81.2919C318.776 81.2919 322.648 34.5456 311.595 27.8575C305.048 23.915 281.886 40.9521 276.958 55.3843C276.958 55.3843 307.23 73.0549 318.776 81.2919Z" fill="#494949"/>
<path d="M285.547 55.3138C285.547 55.3138 297.022 54.9618 313.355 70.2389C313.355 70.2389 315.89 41.9377 308.709 36.5168C306.808 35.0384 291.32 42.9233 285.547 55.3138Z" fill="#A8A8A8"/>
<path d="M322.93 85.1639C315.115 69.3237 306.667 49.4002 267.806 47.2177C266.046 47.0769 264.215 47.0065 262.244 47.0065C261.962 47.0065 261.681 47.0065 261.399 47.0065C261.117 47.0065 260.836 47.0065 260.554 47.0065C258.865 47.0065 257.245 47.0769 255.767 47.1473C216.342 49.1186 207.824 69.1124 199.939 85.0935C190.857 103.468 187.126 116.07 187.126 116.07C196.912 130.009 224.579 139.865 249.149 142.47C253.866 143.034 258.935 143.315 264.286 143.104C290.756 142.33 324.69 131.769 335.743 116C335.743 116.14 331.941 103.539 322.93 85.1639Z" fill="#636363"/>
<path d="M255.274 101.638C255.274 101.638 230.352 100.934 222.678 115.648C215.92 128.672 231.549 141.133 255.696 141.133C279.844 141.133 291.038 130.221 289.771 117.126C288.926 107.481 266.327 101.638 255.274 101.638Z" fill="#A8A8A8"/>
<path d="M255.063 112.55C255.837 113.324 261.821 118.675 268.58 115.929C268.58 115.929 269.002 121.139 265.342 124.588C265.342 124.588 262.596 120.505 256.049 120.153C249.501 119.801 245.136 123.814 245.136 123.814C242.18 120.505 242.532 116.281 242.532 116.281C242.532 116.281 250.416 117.548 254.993 112.479C254.993 112.479 254.993 112.479 255.063 112.55Z" fill="#0A1311"/>
<path d="M256.048 120.153C262.596 120.505 265.341 124.588 265.341 124.588C263.44 126.419 260.484 127.757 255.837 127.757C250.275 127.757 247.037 125.926 245.136 123.814C245.136 123.814 249.501 119.731 256.048 120.153Z" fill="#CB542F"/>
<path d="M291.038 87.9096C291.319 89.6696 290.052 91.3592 288.292 91.6408C286.532 91.9224 284.843 90.6552 284.561 88.8952C284.279 87.1352 285.476 85.4455 287.307 85.1639C289.137 84.8823 290.756 86.1495 291.038 87.9096Z" fill="white"/>
<path d="M304.977 86.2903C303.428 76.3638 294.206 69.6053 284.279 71.0837C274.353 72.6325 267.594 81.8551 269.072 91.7816C270.551 101.708 279.844 108.467 289.77 106.988C299.697 105.439 306.455 96.2169 304.977 86.2903Z" fill="white"/>
<path d="M243.095 86.2903C241.546 76.3638 232.323 69.6053 222.397 71.0837C212.47 72.5621 205.712 81.8551 207.19 91.7816C208.739 101.708 217.962 108.467 227.888 106.988C237.815 105.439 244.573 96.2169 243.095 86.2903Z" fill="white"/>
<path d="M228.029 86.2903C228.31 88.0504 227.043 89.74 225.283 90.0216C223.523 90.3032 221.833 89.1064 221.552 87.276C221.27 85.5159 222.467 83.8263 224.297 83.5447C226.128 83.3335 227.747 84.5303 228.029 86.2903Z" fill="white"/>
<path d="M280.689 79.8134C286.814 78.8982 292.516 83.0519 293.431 89.1768C294.347 95.3017 290.193 101.004 284.068 101.919C277.943 102.835 272.241 98.6809 271.326 92.556C270.41 86.4311 274.564 80.7287 280.689 79.8134Z" fill="#0B1411"/>
<path d="M288.292 90.0216C290.052 89.74 291.319 88.0503 291.038 86.2903C290.756 84.5303 289.137 83.2631 287.306 83.5447C285.546 83.8263 284.279 85.5159 284.561 87.2759C284.842 89.1063 286.532 90.3032 288.292 90.0216Z" fill="white"/>
<path d="M219.299 92.556C218.384 86.4311 222.538 80.7287 228.662 79.8134C234.787 78.8982 240.49 83.0519 241.405 89.1768C242.32 95.3017 238.167 101.004 232.042 101.919C225.917 102.835 220.214 98.6809 219.299 92.556ZM224.298 83.6151C222.538 83.8967 221.27 85.5863 221.552 87.3464C221.834 89.1064 223.453 90.3736 225.283 90.092C227.043 89.8104 228.31 88.1208 228.029 86.3607C227.747 84.5303 226.128 83.3335 224.298 83.6151Z" fill="#0B1411"/>
<path fill-rule="evenodd" clip-rule="evenodd" d="M255.143 105.566C255.696 105.571 256.139 106.024 256.133 106.576L256.063 113.616C256.057 114.168 255.605 114.611 255.053 114.606C254.501 114.6 254.058 114.148 254.063 113.596L254.133 106.556C254.139 106.004 254.591 105.56 255.143 105.566Z" fill="#0B1411"/>
<path fill-rule="evenodd" clip-rule="evenodd" d="M238.979 107.045C239.531 107.027 239.993 107.459 240.011 108.011C240.029 108.563 239.596 109.026 239.044 109.044L239.012 108.044L238.979 107.045ZM238.979 107.045C238.979 107.045 238.979 107.045 239.012 108.044C239.044 109.044 239.045 109.044 239.044 109.044L237.909 109.082C237.176 109.106 236.112 109.143 234.788 109.189C232.141 109.281 228.457 109.413 224.309 109.571C216.012 109.888 205.864 110.31 198.447 110.732C197.896 110.764 197.423 110.342 197.392 109.791C197.36 109.239 197.782 108.767 198.333 108.735C205.771 108.312 215.934 107.89 224.233 107.573C228.384 107.414 232.07 107.282 234.719 107.19C236.043 107.144 237.108 107.107 237.842 107.083L238.979 107.045Z" fill="#0B1411"/>
<path fill-rule="evenodd" clip-rule="evenodd" d="M235.859 110.361C236.407 110.292 236.907 110.68 236.976 111.228C237.045 111.776 236.657 112.276 236.109 112.345L235.984 111.353L235.859 110.361ZM235.859 110.361C235.86 110.361 235.859 110.361 235.984 111.353C236.109 112.345 236.109 112.345 236.109 112.345L236.041 112.354L235.837 112.38C235.657 112.403 235.39 112.438 235.043 112.484C234.35 112.575 233.337 112.711 232.062 112.888C229.511 113.243 225.912 113.763 221.717 114.426C213.323 115.754 202.564 117.65 193.062 119.929C192.525 120.058 191.985 119.727 191.856 119.19C191.727 118.653 192.058 118.113 192.595 117.984C202.172 115.687 212.99 113.781 221.405 112.451C225.614 111.785 229.226 111.263 231.786 110.907C233.067 110.729 234.084 110.593 234.782 110.501C235.131 110.455 235.4 110.42 235.582 110.396L235.788 110.37L235.859 110.361Z" fill="#0B1411"/>
<path fill-rule="evenodd" clip-rule="evenodd" d="M240.755 113.009C240.891 113.544 240.567 114.088 240.031 114.223C228.514 117.138 219.105 120.069 212.579 122.271C209.316 123.372 206.773 124.29 205.049 124.933C204.187 125.254 203.529 125.506 203.088 125.677C202.867 125.763 202.7 125.829 202.59 125.873L202.465 125.922L202.435 125.934L202.426 125.938C202.426 125.938 202.426 125.938 202.426 125.938" fill="#0B1411"/>
<path fill-rule="evenodd" clip-rule="evenodd" d="M272.86 108.011C272.879 107.459 273.341 107.027 273.893 107.045L273.86 108.044L273.827 109.044C273.275 109.026 272.842 108.563 272.86 108.011ZM273.86 108.044C273.827 109.044 273.827 109.044 273.827 109.044L274.962 109.082C275.696 109.106 276.76 109.143 278.083 109.189C280.73 109.281 284.414 109.413 288.562 109.571C296.86 109.888 307.007 110.31 314.424 110.732C314.976 110.764 315.448 110.342 315.48 109.791C315.511 109.239 315.089 108.767 314.538 108.735C307.101 108.312 296.937 107.89 288.638 107.573C284.488 107.414 280.801 107.282 278.153 107.19C276.829 107.144 275.764 107.107 275.03 107.083L273.894 107.045C273.894 107.045 273.893 107.045 273.86 108.044Z" fill="#0B1411"/>
<path fill-rule="evenodd" clip-rule="evenodd" d="M275.965 111.228C276.034 110.68 276.534 110.292 277.082 110.361L276.958 111.353L276.833 112.345C276.285 112.276 275.897 111.776 275.965 111.228ZM276.958 111.353C276.833 112.345 276.833 112.345 276.833 112.345L276.901 112.354L277.105 112.38C277.285 112.403 277.552 112.438 277.899 112.484C278.592 112.575 279.605 112.711 280.88 112.888C283.43 113.243 287.03 113.763 291.225 114.426C299.619 115.754 310.378 117.65 319.88 119.929C320.417 120.058 320.957 119.727 321.086 119.19C321.215 118.653 320.884 118.113 320.347 117.984C310.77 115.687 299.951 113.781 291.537 112.451C287.328 111.785 283.716 111.263 281.156 110.907C279.875 110.729 278.858 110.593 278.16 110.501C277.811 110.455 277.542 110.42 277.36 110.396L277.153 110.37L277.084 110.361C277.083 110.361 277.082 110.361 276.958 111.353Z" fill="#0B1411"/>
<path fill-rule="evenodd" clip-rule="evenodd" d="M272.116 113.009C272.252 112.473 272.796 112.149 273.331 112.284C284.905 115.213 294.364 118.16 300.932 120.376C304.216 121.484 306.778 122.409 308.521 123.058C309.392 123.383 310.059 123.639 310.509 123.813C310.733 123.901 310.904 123.968 311.019 124.013L311.149 124.065L311.183 124.079L311.194 124.083C311.194 124.083 311.195 124.084 310.821 125.011L311.195 124.084C311.707 124.29 311.955 124.873 311.748 125.385C311.541 125.897 310.958 126.145 310.446 125.938L310.437 125.934L310.406 125.922L310.282 125.873C310.171 125.829 310.005 125.763 309.784 125.677C309.343 125.506 308.685 125.254 307.823 124.933C306.098 124.29 303.556 123.372 300.293 122.271C293.766 120.069 284.357 117.138 272.84 114.223C272.305 114.088 271.981 113.544 272.116 113.009Z" fill="#0B1411"/>
<path d="M256.189 95.1609C262.525 95.3721 267.594 97.8361 267.524 100.652C267.383 103.468 255.204 106.495 255.204 106.495C255.204 106.495 244.503 102.623 244.573 99.8073C244.573 97.0617 249.853 94.9497 256.189 95.1609Z" fill="#CB542F"/>
<path d="M295.895 208.014L133.621 174.08L94.478 202.663L247.389 235.54L295.895 208.014Z" fill="#D0D0F3"/>
<path d="M247.389 235.54L246.544 244.904L295.896 208.014C295.896 208.014 290.334 206.394 279.703 210.689C269.143 214.913 247.389 235.54 247.389 235.54Z" fill="#B1B1EB"/>
<path d="M247.389 235.54L94.478 202.663L90.2539 212.519L246.615 244.904L247.389 235.54Z" fill="#9898DA"/>
<path d="M208.176 217.518L247.389 226.036L266.749 209.07L146.434 185.978L208.176 217.518Z" stroke="white" stroke-width="1.1058" stroke-miterlimit="10"/>
<path d="M236.477 223.643L254.218 206.676" stroke="white" stroke-width="1.1058" stroke-miterlimit="10"/>
<path d="M226.479 221.46L244.573 204.846" stroke="white" stroke-width="1.1058" stroke-miterlimit="10"/>
<path d="M261.187 213.927L126.51 185.978" stroke="white" stroke-width="1.1058" stroke-miterlimit="10"/>
<path d="M255.907 218.574L175.861 201.607" stroke="white" stroke-width="1.1058" stroke-miterlimit="10"/>
<path d="M251.543 222.375L176.917 206.676" stroke="white" stroke-width="1.1058" stroke-miterlimit="10"/>
<path d="M217.398 219.559L228.662 207.239" stroke="white" stroke-width="1.1058" stroke-miterlimit="10"/>
<path d="M206.626 216.743L218.031 204.986" stroke="white" stroke-width="1.1058" stroke-miterlimit="10"/>
<path d="M97.576 211.463L48.0137 240.257L124.328 257.576L165.935 226.036L97.576 211.463Z" fill="#D0D0F3"/>
<path d="M163.964 90.6552L0 67.2116L38.1574 184.57L206.557 221.179L163.964 90.6552Z" fill="#9193DA"/>
<path d="M0 67.2116L6.5473 63.1987L168.962 86.0791L163.964 90.6551L0 67.2116Z" fill="#D0D0F3"/>
<path d="M163.964 90.6551L168.962 86.079L211.625 216.603L206.556 221.179L163.964 90.6551Z" fill="#B1B1EB"/>
<path d="M73.71 230.331L86.875 162.957L134.536 171.264L122.146 240.257L73.71 230.331Z" fill="#9B9BE5"/>
<path d="M134.537 171.264L139.465 183.092L128.834 235.54L122.146 240.257L134.537 171.264Z" fill="#B1B1EB"/>
<path d="M124.328 257.576L126.511 264.827L173.679 229.768L165.935 226.036L124.328 257.576Z" fill="#B1B1EB"/>
<path d="M48.0135 240.257L42.7334 246.241L126.511 264.827L124.328 257.576L48.0135 240.257Z" fill="#9898DA"/>
</svg>
