<svg width="400" height="280" viewBox="0 0 400 280" fill="none" xmlns="http://www.w3.org/2000/svg">
<path d="M175.134 138.387C175.134 138.387 140.791 155.416 126.327 173.442C111.864 191.469 134.806 196.456 142.145 193.962C149.484 191.469 175.134 138.387 175.134 138.387Z" fill="#8F6A55"/>
<path d="M218.597 138.387C218.597 138.387 252.726 154.846 267.189 172.872C281.653 190.899 257.001 196.456 249.662 193.962C242.323 191.469 218.597 138.387 218.597 138.387Z" fill="#8F6A55"/>
<path d="M182.187 128.554C182.187 128.554 150.766 167.885 142.073 198.237C133.452 228.59 156.537 240.988 204.774 232.865C253.01 224.743 255.433 213.343 254.578 197.739C253.723 182.064 211.97 126.773 211.97 126.773L182.187 128.554Z" fill="#D3B18E"/>
<path d="M185.607 131.974C185.607 131.974 157.962 177.219 159.102 209.709C159.815 229.801 184.61 242.342 223.513 228.02C262.415 213.699 212.041 131.974 212.041 131.974H185.607Z" fill="#EBD9CD"/>
<path d="M125.116 71.6253C125.116 71.6253 107.446 16.8337 123.264 4.15107C139.081 -8.53152 162.879 10.3499 171.856 27.165C171.928 27.165 137.799 59.0852 125.116 71.6253Z" fill="#9A7966"/>
<path d="M160.599 27.0938C160.599 27.0938 140.72 35.7863 128.323 52.7439C128.323 52.7439 119.274 19.3987 129.676 10.8487C136.73 5.00612 154.044 11.9174 160.599 27.0938Z" fill="#D3B18E"/>
<path d="M280.228 71.6253C280.228 71.6253 297.898 16.8337 282.081 4.15107C266.263 -8.53152 242.465 10.3499 233.488 27.165C233.488 27.165 267.617 59.0852 280.228 71.6253Z" fill="#9A7966"/>
<path d="M244.816 27.0938C244.816 27.0938 264.695 35.7863 277.093 52.7439C277.093 52.7439 286.142 19.3987 275.739 10.8487C268.685 5.00612 251.371 11.9174 244.816 27.0938Z" fill="#D3B18E"/>
<path d="M202.708 142.021C248.158 142.021 285.002 114.268 285.002 80.0327C285.002 45.7977 248.158 18.0448 202.708 18.0448C157.258 18.0448 120.414 45.7977 120.414 80.0327C120.414 114.268 157.258 142.021 202.708 142.021Z" fill="#E6CAAB"/>
<path d="M270.396 75.1167C270.467 61.2941 261.917 47.329 248.166 41.0589C234.414 34.7889 218.312 35.9289 203.777 40.2752C201.853 40.8452 199.786 41.4864 197.791 41.3439C195.939 41.2014 194.229 40.4177 192.519 39.7052C167.368 29.8014 133.737 47.1152 131.244 75.1167C128.821 103.118 177.913 118.152 177.913 118.152H200.641H201.283H224.012C237.122 114.162 250.944 107.393 260.777 97.7031C267.403 91.2905 270.396 83.2392 270.396 75.1167Z" fill="#9A7966"/>
<path d="M200.143 91.2192C200.143 91.2192 168.864 90.293 159.316 110.386C150.909 128.127 170.431 145.156 200.713 145.156C230.994 145.156 244.959 130.265 243.392 112.452C242.252 99.1993 213.894 91.2192 200.143 91.2192Z" fill="white"/>
<path d="M199.787 110.172C200.784 111.098 208.266 117.796 216.673 114.376C216.673 114.376 217.172 120.859 212.612 125.277C212.612 125.277 209.121 120.147 200.998 119.719C192.804 119.221 187.318 124.351 187.318 124.351C183.613 120.147 184.04 114.874 184.04 114.874C184.04 114.874 193.944 116.442 199.716 110.101C199.716 110.029 199.716 110.101 199.787 110.172Z" fill="#0A1311"/>
<path d="M201.069 119.648C209.263 120.147 212.683 125.206 212.683 125.206C210.332 127.486 206.627 129.196 200.713 129.124C193.73 129.053 189.669 126.844 187.318 124.208C187.318 124.279 192.875 119.149 201.069 119.648Z" fill="#CB542F"/>
<path d="M244.888 73.9766C245.245 76.1853 243.677 78.3228 241.468 78.6078C239.26 78.9641 237.122 77.3966 236.837 75.1878C236.481 72.979 238.048 70.8415 240.257 70.5565C242.466 70.2003 244.532 71.7678 244.888 73.9766Z" fill="white"/>
<path d="M262.345 71.9815C260.421 59.5839 248.878 51.0339 236.481 52.9576C224.083 54.8814 215.533 66.424 217.457 78.8216C219.381 91.2192 230.923 99.7692 243.321 97.8454C255.718 95.9217 264.197 84.3791 262.345 71.9815Z" fill="white"/>
<path d="M184.824 71.9815C182.9 59.5839 171.358 51.0339 158.96 52.9576C146.563 54.8814 138.013 66.424 139.936 78.8216C141.86 91.2192 153.403 99.7692 165.8 97.8454C178.198 95.9217 186.677 84.3791 184.824 71.9815Z" fill="white"/>
<path d="M231.921 66.4952C239.545 65.3552 246.741 70.5565 247.881 78.2516C249.021 85.8754 243.82 93.0717 236.125 94.2117C228.501 95.3517 221.304 90.1504 220.164 82.4554C219.024 74.8316 224.226 67.6353 231.921 66.4952Z" fill="#0B1411"/>
<path d="M235.056 91.8605C237.265 91.5043 238.832 89.438 238.476 87.2292C238.12 85.0205 236.053 83.453 233.845 83.8092C231.636 84.1655 230.068 86.2317 230.425 88.4405C230.71 90.6493 232.847 92.2168 235.056 91.8605Z" fill="white"/>
<path d="M154.97 82.4554C153.83 74.8316 159.031 67.6353 166.726 66.4952C174.35 65.3552 181.547 70.5565 182.687 78.2516C183.827 85.8754 178.625 93.0717 170.93 94.2117C163.306 95.3517 156.181 90.0792 154.97 82.4554Z" fill="#0B1411"/>
<path d="M165.729 82.8828C163.521 83.239 161.953 85.3053 162.309 87.5141C162.666 89.7228 164.732 91.2903 166.941 90.9341C169.149 90.5778 170.717 88.5116 170.361 86.3028C170.004 84.0941 167.938 82.5978 165.729 82.8828Z" fill="white"/>
<path fill-rule="evenodd" clip-rule="evenodd" d="M199.867 101.381C200.551 101.387 201.101 101.946 201.095 102.629L201.024 111.464C201.018 112.148 200.46 112.698 199.776 112.692C199.093 112.687 198.543 112.128 198.548 111.444L198.62 102.609C198.625 101.926 199.184 101.376 199.867 101.381Z" fill="#0B1411"/>
<path fill-rule="evenodd" clip-rule="evenodd" d="M179.678 103.237C180.36 103.189 180.952 103.703 181 104.385C181.048 105.067 180.534 105.659 179.852 105.707L179.786 104.762C179.852 105.707 179.852 105.707 179.852 105.707L179.533 105.73C179.323 105.745 179.013 105.768 178.613 105.798C177.813 105.858 176.654 105.947 175.22 106.064C172.352 106.297 168.385 106.64 163.989 107.075C155.179 107.948 144.717 109.19 137.919 110.669C137.251 110.814 136.592 110.391 136.447 109.723C136.301 109.055 136.725 108.395 137.393 108.25C144.347 106.737 154.939 105.484 163.745 104.612C168.158 104.174 172.14 103.831 175.019 103.596C176.458 103.479 177.622 103.39 178.427 103.329C178.829 103.299 179.141 103.276 179.354 103.26L179.678 103.237C179.678 103.237 179.678 103.237 179.75 104.264L179.678 103.237Z" fill="#0B1411"/>
<path fill-rule="evenodd" clip-rule="evenodd" d="M174.897 107.532C175.568 107.401 176.218 107.84 176.349 108.511C176.479 109.182 176.041 109.831 175.37 109.962L175.134 108.747L174.897 107.532ZM174.897 107.532C174.898 107.532 174.897 107.532 175.134 108.747C175.37 109.962 175.37 109.962 175.37 109.962L175.283 109.979L175.025 110.03C174.798 110.075 174.462 110.141 174.032 110.227C173.17 110.4 171.925 110.652 170.394 110.97C167.333 111.605 163.132 112.503 158.569 113.551C149.405 115.657 138.91 118.344 133.216 120.719C132.585 120.983 131.86 120.684 131.597 120.054C131.334 119.423 131.632 118.698 132.263 118.435C138.183 115.965 148.885 113.237 158.015 111.139C162.599 110.085 166.818 109.184 169.891 108.546C171.428 108.227 172.678 107.973 173.545 107.8C173.979 107.713 174.316 107.646 174.546 107.601L174.807 107.549L174.897 107.532Z" fill="#0B1411"/>
<path fill-rule="evenodd" clip-rule="evenodd" d="M181.937 110.634C182.153 111.283 181.804 111.984 181.155 112.201C170.335 115.819 161.628 119.437 155.631 122.148C152.633 123.503 150.313 124.631 148.745 125.419C147.961 125.813 147.365 126.121 146.967 126.331C146.768 126.436 146.618 126.516 146.519 126.569C146.469 126.596 146.432 126.616 146.408 126.629L146.381 126.643L146.374 126.647C146.374 126.647 146.374 126.647 146.374 126.647M181.937 110.634C181.72 109.986 181.018 109.636 180.37 109.853L181.937 110.634ZM180.37 109.853C169.459 113.502 160.674 117.152 154.611 119.892L180.37 109.853ZM154.611 119.892C151.58 121.262 149.229 122.405 147.633 123.207L154.611 119.892ZM147.633 123.207C146.835 123.608 146.226 123.923 145.814 124.14L147.633 123.207ZM145.814 124.14C145.609 124.248 145.452 124.331 145.347 124.388L145.814 124.14ZM145.347 124.388C145.294 124.416 145.254 124.438 145.227 124.453L145.347 124.388ZM145.227 124.453L145.195 124.47L145.227 124.453ZM145.195 124.47L145.187 124.475L145.195 124.47ZM145.187 124.475L145.185 124.476L145.187 124.475ZM145.185 124.476C145.184 124.476 145.183 124.476 145.779 125.562L145.185 124.476Z" fill="#0B1411"/>
<path fill-rule="evenodd" clip-rule="evenodd" d="M218.288 104.385C218.336 103.703 218.927 103.189 219.609 103.237L219.523 104.472L219.436 105.707C218.754 105.659 218.24 105.067 218.288 104.385ZM219.523 104.472C219.436 105.707 219.436 105.707 219.436 105.707L219.755 105.73C219.965 105.745 220.275 105.768 220.675 105.798C221.475 105.858 222.634 105.947 224.068 106.064C226.936 106.297 230.903 106.64 235.298 107.075C244.109 107.948 254.571 109.19 261.368 110.669C262.036 110.814 262.696 110.391 262.841 109.723C262.987 109.055 262.563 108.395 261.895 108.25C254.941 106.737 244.348 105.484 235.542 104.612C231.129 104.174 227.147 103.831 224.269 103.596C222.829 103.479 221.665 103.39 220.861 103.329C220.459 103.299 220.146 103.276 219.934 103.26L219.609 103.237C219.609 103.237 219.609 103.237 219.523 104.472Z" fill="#0B1411"/>
<path fill-rule="evenodd" clip-rule="evenodd" d="M222.868 108.511C222.998 107.84 223.648 107.401 224.319 107.532L224.083 108.747L223.847 109.962C223.175 109.831 222.737 109.182 222.868 108.511ZM224.083 108.747C223.847 109.962 223.846 109.962 223.847 109.962L223.934 109.979L224.192 110.03C224.419 110.075 224.754 110.141 225.185 110.227C226.047 110.4 227.292 110.652 228.822 110.97C231.883 111.605 236.085 112.503 240.647 113.551C249.811 115.657 260.306 118.344 266 120.719C266.631 120.983 267.356 120.684 267.619 120.054C267.882 119.423 267.584 118.698 266.953 118.435C261.034 115.965 250.332 113.237 241.202 111.139C236.618 110.085 232.398 109.184 229.325 108.546C227.789 108.227 226.538 107.973 225.671 107.8C225.238 107.713 224.9 107.646 224.671 107.601L224.409 107.549L224.319 107.532C224.319 107.532 224.319 107.532 224.083 108.747Z" fill="#0B1411"/>
<path fill-rule="evenodd" clip-rule="evenodd" d="M217.28 110.634C217.497 109.986 218.198 109.636 218.847 109.853C229.758 113.502 238.543 117.152 244.605 119.892C247.636 121.262 249.987 122.405 251.583 123.207C252.382 123.608 252.991 123.923 253.402 124.14C253.608 124.248 253.764 124.331 253.87 124.388C253.923 124.416 253.963 124.438 253.99 124.453L254.021 124.47L254.032 124.476C254.032 124.476 254.033 124.476 253.438 125.562L254.033 124.476C254.633 124.805 254.852 125.558 254.523 126.157C254.195 126.756 253.442 126.976 252.843 126.647L252.835 126.643L252.809 126.629C252.785 126.616 252.748 126.596 252.698 126.569C252.599 126.516 252.449 126.436 252.25 126.331C251.852 126.121 251.256 125.813 250.472 125.419C248.904 124.631 246.584 123.503 243.585 122.148C237.588 119.437 228.882 115.819 218.061 112.201C217.413 111.984 217.063 111.283 217.28 110.634Z" fill="#0B1411"/>
<path d="M201.211 88.4404C209.192 88.7254 215.462 91.8605 215.39 95.3517C215.248 98.9143 199.929 102.691 199.929 102.691C199.929 102.691 186.463 97.8455 186.605 94.283C186.676 90.7204 193.231 88.1554 201.211 88.4404Z" fill="#CB542F"/>
<path d="M148.985 139.456L152.619 141.593C152.619 141.593 138.44 187.265 127.253 194.96C116.138 202.655 97.8982 199.449 94.4069 187.906C90.9157 176.364 120.556 139.171 135.162 136.891L148.985 139.456Z" fill="#9A7966"/>
<path d="M123.62 136.392C126.398 139.385 129.462 141.736 132.17 143.161C136.801 145.512 142.216 146.153 147.275 145.013C151.692 144.016 153.972 140.738 154.827 136.463C155.469 133.186 155.112 129.552 153.046 126.916C152.049 125.704 150.766 124.707 149.769 123.496C147.916 121.216 147.346 118.152 146.562 115.373C145.779 112.523 144.567 109.531 142.002 108.106C139.437 106.609 135.376 107.749 134.949 110.671C133.951 107.892 131.315 105.612 128.394 105.683C125.472 105.754 122.765 108.818 123.62 111.597C122.765 110.314 120.912 109.958 119.487 110.528C118.062 111.098 116.993 112.381 116.352 113.806C112.932 120.717 117.563 129.908 123.62 136.392Z" fill="#EBD9CD"/>
<path d="M250.588 138.601L246.954 140.738C246.954 140.738 261.133 186.41 272.319 194.105C283.434 201.8 301.674 198.594 305.166 187.051C308.657 175.509 279.017 138.316 264.41 136.036L250.588 138.601Z" fill="#9A7966"/>
<path d="M275.953 135.537C273.174 138.53 270.111 140.881 267.403 142.306C262.772 144.657 257.357 145.298 252.298 144.158C247.88 143.161 245.6 139.883 244.745 135.608C244.104 132.331 244.46 128.697 246.527 126.061C247.524 124.849 248.807 123.852 249.804 122.641C251.657 120.361 252.227 117.297 253.01 114.518C253.794 111.739 255.005 108.676 257.57 107.251C260.135 105.754 264.197 106.894 264.624 109.816C265.622 107.037 268.258 104.757 271.179 104.828C274.101 104.899 276.808 107.963 275.953 110.742C276.808 109.459 278.661 109.103 280.086 109.673C281.511 110.243 282.579 111.526 283.221 112.951C286.641 119.862 282.009 129.053 275.953 135.537Z" fill="#EBD9CD"/>
<path d="M175.063 221.251C175.989 226.453 169.22 241.914 191.807 248.184C204.062 251.604 211.828 251.533 217.243 242.84C222.658 234.148 220.592 216.406 220.592 216.406L175.063 221.251Z" fill="#963723"/>
<path d="M384.681 250.179L365.586 223.033L202.779 220.325L215.675 228.448L384.681 250.179Z" fill="#AF381E"/>
<path d="M6.55518 256.235L34.9841 234.433L185.109 220.325L178.981 229.303L6.55518 256.235Z" fill="#AF381E"/>
<path d="M1.78125 261.935C1.78125 265.498 5.05877 268.206 8.55005 267.564L181.546 238.922L178.981 229.303L6.55503 256.235C3.77626 256.734 1.78125 259.157 1.78125 261.935Z" fill="#CB542F"/>
<path d="M171.927 239.206C171.927 239.206 178.197 247.329 182.544 250.393C186.89 253.457 203.135 254.597 210.616 251.889C218.098 249.182 222.301 236.214 222.301 236.214H214.82C214.82 236.214 211.828 242.555 205.557 243.909C199.287 245.263 192.519 245.405 190.096 244.764C186.035 243.695 181.617 238.85 181.617 238.85L171.927 239.206Z" fill="#CB542F"/>
<path d="M387.603 255.452C387.104 257.945 384.753 259.727 382.188 259.513L214.749 236.214L215.675 228.376L382.9 249.253C386.035 249.467 388.244 252.388 387.603 255.452Z" fill="#CB542F"/>
<path d="M23.5129 246.616C23.5129 246.616 30.9942 210.136 8.479 180.069C8.479 180.069 46.028 171.376 85.6433 170.735C125.259 170.093 175.918 189.046 194.657 211.561L195.797 223.033C195.797 223.033 150.267 219.541 23.5129 246.616Z" fill="#EDEDF7"/>
<path fill-rule="evenodd" clip-rule="evenodd" d="M17.0026 199.833C15.6888 200.211 14.3167 199.454 13.9379 198.14C13.5591 196.826 14.317 195.454 15.6307 195.075L16.3167 197.454C15.6307 195.075 15.6315 195.075 15.6325 195.075L15.6468 195.07L15.6866 195.059C15.7211 195.049 15.7712 195.035 15.8369 195.017C15.9681 194.98 16.1612 194.926 16.4137 194.857C16.9188 194.719 17.6621 194.52 18.6252 194.273C20.5514 193.779 23.3579 193.092 26.8988 192.315C33.979 190.761 44.0047 188.845 55.8074 187.391C79.3727 184.488 110.203 183.403 138.849 190.854C140.173 191.198 140.966 192.55 140.622 193.873C140.278 195.196 138.926 195.99 137.603 195.646C109.819 188.419 79.6946 189.437 56.4128 192.305C44.7919 193.737 34.9209 195.623 27.9602 197.151C24.4808 197.915 21.7308 198.588 19.8557 199.069C18.9182 199.31 18.1995 199.502 17.7179 199.634C17.4771 199.699 17.2956 199.75 17.1756 199.784L17.0421 199.821L17.0105 199.83L17.0026 199.833Z" fill="#D0D2EA"/>
<path fill-rule="evenodd" clip-rule="evenodd" d="M108.23 202.584L108.106 200.111C106.741 200.179 105.689 201.342 105.757 202.707C105.825 204.073 106.987 205.124 108.353 205.056L108.357 205.056L108.375 205.055L108.453 205.052C108.525 205.049 108.634 205.044 108.779 205.039C109.069 205.028 109.504 205.014 110.072 205C111.209 204.974 112.879 204.951 114.993 204.967C119.223 204.999 125.226 205.186 132.291 205.807C146.449 207.051 164.755 210.029 181.607 216.917C182.873 217.434 184.318 216.827 184.836 215.562C185.353 214.296 184.746 212.851 183.481 212.333C165.99 205.185 147.139 202.142 132.725 200.875C125.505 200.24 119.368 200.048 115.03 200.016C112.861 199.999 111.14 200.023 109.956 200.05C109.365 200.064 108.907 200.079 108.595 200.091C108.439 200.097 108.319 200.101 108.237 200.105L108.143 200.109L108.117 200.111L108.108 200.111C108.107 200.111 108.106 200.111 108.23 202.584Z" fill="#D0D2EA"/>
<path fill-rule="evenodd" clip-rule="evenodd" d="M25.4758 234.084L25.4817 234.082L25.5054 234.075L25.6056 234.043C25.6957 234.015 25.8322 233.972 26.0138 233.917C26.3771 233.805 26.9208 233.64 27.6344 233.43C29.0617 233.009 31.1684 232.407 33.8708 231.683C39.2762 230.236 47.0613 228.306 56.5562 226.385C75.5573 222.541 101.35 218.741 128.594 218.882C129.962 218.889 131.076 217.786 131.083 216.419C131.09 215.052 129.987 213.938 128.62 213.931C100.93 213.787 74.7812 217.646 55.5743 221.532C45.9651 223.477 38.0795 225.43 32.5903 226.9C29.8454 227.635 27.6988 228.249 26.2346 228.681C25.5025 228.896 24.9409 229.067 24.5603 229.183C24.37 229.242 24.2249 229.287 24.1265 229.318L24.0138 229.353L23.984 229.363L23.9733 229.366C23.9726 229.366 23.972 229.366 24.7239 231.725L23.972 229.366C22.6693 229.782 21.9499 231.174 22.3652 232.477C22.7804 233.78 24.1732 234.499 25.4758 234.084Z" fill="#D0D2EA"/>
<path fill-rule="evenodd" clip-rule="evenodd" d="M79.1368 204.567C79.2218 205.932 78.1845 207.107 76.8199 207.192C65.0027 207.929 51.7521 210.373 41.4039 212.652C36.2412 213.789 31.8238 214.879 28.699 215.685C27.137 216.088 25.8988 216.419 25.0531 216.65C24.6303 216.765 24.3056 216.855 24.0876 216.915C23.9787 216.946 23.8964 216.969 23.8418 216.984L23.781 217.001L23.7632 217.006C23.7632 217.006 23.7632 217.006 23.7632 217.006" fill="#D0D2EA"/>
<path d="M369.861 235.359C369.861 235.359 359.245 196.741 379.337 165.035C379.337 165.035 341.218 159.335 301.674 161.9C262.13 164.465 213.181 187.336 196.295 211.276L196.081 222.748C196.01 222.676 241.396 218.473 369.861 235.359Z" fill="#D0D2EA"/>
<path fill-rule="evenodd" clip-rule="evenodd" d="M373.42 180.564C373.421 180.564 373.422 180.564 372.925 182.99L373.422 180.564C374.761 180.839 375.625 182.147 375.35 183.487C375.076 184.826 373.768 185.689 372.428 185.415C372.428 185.415 372.428 185.415 372.428 185.415L372.427 185.415L372.42 185.413L372.388 185.407L372.252 185.38C372.13 185.356 371.945 185.32 371.699 185.273C371.209 185.18 370.477 185.044 369.524 184.878C367.617 184.546 364.822 184.091 361.293 183.604C354.233 182.63 344.243 181.527 332.543 181.019C309.103 180.001 278.98 181.378 251.828 190.815C250.537 191.263 249.126 190.58 248.677 189.289C248.228 187.997 248.911 186.586 250.203 186.138C278.198 176.408 309.031 175.042 332.758 176.072C344.642 176.588 354.789 177.708 361.97 178.699C365.562 179.195 368.414 179.659 370.373 180C371.353 180.171 372.11 180.311 372.624 180.409C372.881 180.458 373.078 180.496 373.212 180.522C373.279 180.536 373.33 180.546 373.365 180.553L373.406 180.561L373.42 180.564Z" fill="#EDEDF7"/>
<path fill-rule="evenodd" clip-rule="evenodd" d="M281.8 197.791C283.166 197.749 284.24 196.608 284.199 195.241L281.8 197.791ZM284.199 195.241C284.157 193.874 283.016 192.8 281.649 192.841L284.199 195.241ZM281.649 192.841L281.724 195.316L281.649 192.841ZM281.724 195.316C281.649 192.841 281.649 192.842 281.648 192.842L281.724 195.316ZM281.8 197.791L281.796 197.791L281.778 197.791L281.699 197.794C281.628 197.797 281.519 197.801 281.374 197.807C281.084 197.82 280.649 197.84 280.082 197.872C278.948 197.937 277.283 198.047 275.177 198.232C270.966 198.601 265 199.266 258.009 200.447C244.001 202.812 225.993 207.229 209.734 215.411C208.513 216.026 207.024 215.534 206.41 214.313C205.795 213.091 206.287 211.603 207.508 210.988C224.381 202.498 242.924 197.973 257.185 195.565C264.328 194.358 270.426 193.678 274.745 193.3C276.905 193.11 278.621 192.996 279.802 192.929C280.392 192.895 280.849 192.874 281.161 192.86C281.317 192.854 281.436 192.849 281.518 192.846L281.613 192.843L281.638 192.842L281.648 192.842" fill="#EDEDF7"/>
<path fill-rule="evenodd" clip-rule="evenodd" d="M367.787 215.349C367.787 215.349 367.788 215.349 367.225 217.76L367.788 215.349C369.119 215.66 369.947 216.992 369.636 218.323C369.325 219.655 367.993 220.482 366.662 220.171M366.662 220.171L366.631 220.164L366.529 220.14C366.437 220.119 366.298 220.088 366.112 220.047C365.741 219.964 365.187 219.843 364.459 219.69C363.003 219.383 360.856 218.949 358.105 218.442C352.602 217.428 344.689 216.123 335.071 214.963C315.822 212.642 289.8 210.912 262.627 213.244C261.265 213.361 260.066 212.351 259.949 210.989C259.832 209.627 260.841 208.428 262.204 208.311C289.822 205.94 316.205 207.701 335.663 210.047C345.398 211.221 353.414 212.543 359.002 213.573C361.796 214.088 363.985 214.53 365.478 214.844C366.225 215.002 366.798 215.127 367.187 215.213C367.381 215.256 367.529 215.29 367.63 215.313L367.745 215.339L367.776 215.346L367.787 215.349" fill="#EDEDF7"/>
<path fill-rule="evenodd" clip-rule="evenodd" d="M368.068 198.161C368.069 198.162 368.069 198.162 367.591 200.539L368.068 198.161C369.409 198.431 370.278 199.736 370.008 201.076C369.739 202.417 368.434 203.285 367.093 203.016C367.093 203.016 367.093 203.016 367.093 203.016L367.075 203.012L367.013 203C366.957 202.989 366.873 202.972 366.762 202.951C366.54 202.907 366.21 202.843 365.779 202.762C364.918 202.599 363.657 202.366 362.068 202.088C358.889 201.531 354.399 200.792 349.162 200.066C338.663 198.612 325.255 197.225 313.403 197.435C312.036 197.46 310.908 196.371 310.884 195.004C310.86 193.637 311.948 192.509 313.316 192.485C325.547 192.268 339.249 193.695 349.841 195.162C355.148 195.897 359.698 196.645 362.923 197.211C364.536 197.493 365.818 197.73 366.699 197.897C367.14 197.98 367.48 198.046 367.711 198.091C367.827 198.114 367.915 198.131 367.975 198.143L368.044 198.157L368.068 198.161Z" fill="#EDEDF7"/>
<path fill-rule="evenodd" clip-rule="evenodd" d="M194.41 209.169C195.77 209.033 196.983 210.026 197.119 211.386L198.259 222.786C198.396 224.147 197.403 225.36 196.042 225.496C194.682 225.632 193.469 224.64 193.333 223.279L192.193 211.879C192.057 210.518 193.049 209.305 194.41 209.169Z" fill="#D0D2EA"/>
<path d="M189.099 205.861C189.099 205.861 118.632 155.915 6.48379 170.735L0 161.187C0 161.187 126.113 141.38 189.099 205.861Z" fill="#EDEDF7"/>
<path d="M197.934 210.136C197.934 210.136 267.332 149.787 377.343 158.337L381.333 147.792C381.333 147.721 272.106 132.331 197.934 210.136Z" fill="#D0D2EA"/>
</svg>
