<svg width="400" height="281" viewBox="0 0 400 281" fill="none" xmlns="http://www.w3.org/2000/svg">
<path fill-rule="evenodd" clip-rule="evenodd" d="M86.6968 22.0193C121.931 -1.269 164.754 26.9249 206.635 32.2002C251.143 37.8062 303.405 19.1934 332.838 53.0228C366.314 91.4985 372.215 151.289 350.394 197.432C329.749 241.09 278.382 255.131 231.601 267.103C188.576 278.114 143.065 283.317 105.189 260.185C64.9926 235.636 37.5531 193.339 33.906 146.367C30.2402 99.1539 47.1685 48.1458 86.6968 22.0193Z" fill="#FFF1CB"/>
<path d="M218.944 237.942C218.944 237.942 211.444 229.408 198.384 232.511C198.384 232.511 165.088 232.382 163.731 253.071C163.666 253.588 163.666 254.105 163.666 254.623H216.552C217.974 245.507 218.944 237.942 218.944 237.942Z" fill="#91755D"/>
<path d="M355.361 58.9197C357.43 59.0491 359.563 59.3723 361.567 60.0835C363.507 60.7947 365.252 61.8291 366.416 63.1222C367.645 64.4152 368.291 65.9669 368.356 67.5832C368.42 69.2641 367.774 71.0744 366.675 73.1433C365.188 75.9233 363.442 78.3801 361.891 80.5783C360.274 82.8411 358.787 84.91 357.494 86.9142C356.136 88.9184 354.908 90.858 353.874 92.7329C352.775 94.6078 351.869 96.5474 351.288 98.293C350.706 100.039 350.382 101.526 350.382 102.819C350.382 103.142 350.382 103.401 350.382 103.853C350.382 104.047 350.382 104.241 350.382 104.5C350.382 104.694 350.447 104.888 350.447 105.146C350.447 105.34 350.447 105.534 350.447 105.793C350.512 105.987 350.512 106.245 350.512 106.439C350.512 106.633 350.512 106.892 350.576 107.086C350.641 107.344 350.641 107.538 350.706 107.797C351.029 109.607 351.676 111.676 352.516 113.745C353.356 115.814 354.456 117.818 355.49 119.564C355.49 119.564 355.619 119.758 355.878 120.081C356.136 120.404 356.46 120.857 356.912 121.503C357.882 122.732 359.304 124.477 361.373 126.675C361.891 127.193 362.408 127.774 362.99 128.356C363.636 129.003 364.283 129.649 364.929 130.296C366.352 131.718 367.903 133.205 369.52 134.822C371.2 136.438 373.075 138.248 375.015 140.188C376.955 142.127 379.023 144.261 381.092 146.588C383.226 148.98 385.359 151.567 387.428 154.411C389.497 157.321 391.501 160.489 393.247 163.98C393.7 164.885 394.087 165.725 394.54 166.631C394.928 167.536 395.316 168.505 395.704 169.411C396.415 171.286 397.061 173.16 397.643 175.1C398.742 178.914 399.454 182.858 399.777 186.737C400.423 194.496 399.648 202.189 397.708 209.107C396.738 212.598 395.445 215.896 394.023 218.934C392.536 221.973 390.919 224.688 389.239 227.21C387.622 229.537 385.359 232.511 382.191 235.679C379.023 238.847 375.015 242.209 370.101 245.119C368.873 245.894 367.58 246.541 366.287 247.252C365.64 247.575 364.929 247.899 364.218 248.222C363.895 248.351 363.507 248.545 363.184 248.674C362.796 248.804 362.472 248.998 362.085 249.127C361.373 249.386 360.662 249.709 359.951 249.967C359.24 250.226 358.529 250.485 357.817 250.743C357.106 251.002 356.395 251.196 355.619 251.39C354.908 251.584 354.132 251.842 353.421 252.036C347.602 253.523 341.719 254.364 336.224 254.752C330.663 255.14 325.427 255.204 320.513 255.14C318.121 255.14 315.793 255.075 313.595 255.075C312.432 255.075 311.268 255.075 310.169 255.01C309.005 255.01 307.841 254.946 306.742 254.946C297.755 254.687 290.32 253.911 285.924 253.394C282.756 253.071 279.006 252.23 275.774 250.679C272.541 249.127 269.955 246.929 269.05 244.019C268.274 241.433 268.985 237.425 270.666 233.934C272.347 230.442 274.868 227.468 277.843 226.757C279.847 226.305 281.916 226.693 283.92 227.016C290.773 228.18 300.406 229.149 311.462 229.02C314.306 229.02 317.28 228.955 320.319 228.955C323.293 228.891 326.267 228.826 329.241 228.632C335.125 228.244 340.943 227.598 346.115 226.046C347.408 225.658 348.637 225.27 349.865 224.753C351.094 224.3 352.128 223.783 353.292 223.201C355.49 222.038 357.559 220.68 359.434 219.128C363.184 216.025 366.158 212.21 368.162 208.267C370.166 204.388 371.201 200.444 371.588 196.694C371.782 194.819 371.782 193.073 371.782 191.457C371.718 190.617 371.718 189.841 371.588 189.13C371.524 188.742 371.524 188.354 371.459 188.03C371.394 187.643 371.33 187.319 371.265 186.996C370.942 185.056 370.425 183.117 369.778 181.307L369.261 179.949L368.679 178.656C368.485 178.203 368.226 177.751 368.033 177.363L367.709 176.716L367.321 176.07C365.317 172.579 362.537 169.217 359.369 165.855C357.753 164.174 356.007 162.493 354.197 160.812C352.387 159.131 350.447 157.45 348.508 155.704C346.568 153.959 344.499 152.148 342.43 150.274L341.654 149.562L340.879 148.787L339.262 147.235C338.228 146.2 337.193 145.166 336.159 144.002C332.021 139.606 328.077 134.757 324.715 128.938C323.035 126.029 321.483 122.926 320.254 119.499C319.026 116.072 318.056 112.452 317.539 108.573C317.41 107.603 317.345 106.633 317.28 105.663L317.151 104.176C317.151 103.659 317.151 103.207 317.151 102.689C317.151 101.72 317.151 100.685 317.216 99.7154C317.28 98.6809 317.41 97.5818 317.539 96.5474C317.798 94.4139 318.315 92.4097 318.897 90.3408C319.543 88.3366 320.254 86.397 321.095 84.5221C324.586 77.0224 329.823 70.7511 336.224 65.9022C339.844 63.1868 343.465 61.3119 346.762 60.2128C349.995 59.1784 352.969 58.7904 355.361 58.9197Z" fill="#6A5847"/>
<path d="M355.361 58.9197C352.969 58.855 349.995 59.2429 346.697 60.342C343.4 61.4411 339.78 63.316 336.159 66.0314C330.922 69.9752 326.526 74.8242 323.164 80.5782C319.802 86.2676 317.604 92.9268 317.087 99.8446C316.699 106.374 317.733 112.775 319.673 118.4C321.548 124.025 324.263 128.938 327.237 133.27C327.302 132.947 327.302 132.429 327.237 131.718C326.397 126.158 325.556 120.339 325.427 114.391C325.427 113.616 325.427 112.904 325.427 112.129V111.029L325.491 109.866C325.556 109.09 325.556 108.379 325.621 107.603C325.685 106.827 325.815 106.116 325.879 105.34L326.009 104.241L326.203 103.142C326.332 102.431 326.461 101.655 326.59 100.944C326.914 99.4567 327.302 97.9697 327.819 96.4827C327.366 105.275 330.599 112.775 334.931 118.529C335.577 119.434 336.676 120.339 337.323 119.758C337.646 119.499 337.711 118.982 337.775 118.464C338.163 114.779 338.099 111.159 337.711 107.797C337.905 108.185 338.099 108.573 338.228 109.025C338.422 109.413 338.551 109.866 338.68 110.254C338.939 111.094 339.327 111.935 339.715 112.71C340.103 113.486 340.814 114.262 341.461 114.715C342.172 115.232 343.012 115.426 343.853 115.297C344.693 115.103 345.404 114.521 346.051 113.939C348.184 111.805 349.477 109.413 350.577 107.538C350.383 106.181 350.189 104.952 350.253 103.724V103.465C350.253 103.4 350.253 103.336 350.253 103.271C350.253 103.142 350.253 103.077 350.253 102.948C350.253 102.689 350.253 102.495 350.318 102.237C350.383 101.72 350.447 101.202 350.577 100.62C351.029 98.3576 352.257 95.5129 353.874 92.6682C355.49 89.8235 357.43 86.9141 359.628 83.8108C360.921 82.0006 362.085 80.3843 363.119 78.8972C363.442 78.4447 363.766 77.9921 364.024 77.5396C364.347 77.087 364.606 76.6344 364.929 76.1819C365.511 75.2121 366.093 74.2423 366.675 73.2078C367.774 71.139 368.356 69.3287 368.356 67.6477C368.291 65.9668 367.645 64.4151 366.416 63.1867C365.188 61.8937 363.507 60.8592 361.567 60.1481C359.628 59.3722 357.43 58.9843 355.361 58.9197Z" fill="#EBD9CD"/>
<path d="M354.456 157.514C354.715 152.278 356.331 147.558 359.176 143.808C361.956 140.058 365.899 137.278 370.619 135.791C372.753 137.925 374.951 140.058 377.084 142.192C379.218 144.39 381.287 146.653 383.162 148.916C379.994 149.821 377.472 150.791 376.826 151.114C374.046 152.601 371.459 154.282 369.067 156.092C365.253 158.872 361.438 161.264 357.689 164.368C357.689 164.368 357.495 164.238 357.236 163.915C356.977 163.656 356.589 163.269 356.202 162.945C355.426 162.234 354.715 161.523 354.715 161.523C354.456 160.23 354.391 158.807 354.456 157.514Z" fill="#91755D"/>
<path d="M395.639 208.331C394.41 208.525 393.311 208.137 392.212 207.749C390.208 207.103 388.268 206.78 386.329 206.521C384.389 206.327 382.45 206.262 380.51 206.198C379.54 206.198 378.57 206.198 377.665 206.262C376.696 206.262 375.79 206.327 374.756 206.327C372.881 206.392 370.942 206.392 369.002 206.327C370.942 201.801 371.847 196.694 371.588 191.716C376.178 190.81 381.027 190.099 385.682 190.94C388.01 191.328 390.273 192.168 392.406 193.526C393.441 194.237 394.41 195.077 395.38 196.047C396.35 197.082 397.126 198.245 397.902 199.603C398.483 200.638 398.936 201.866 399.065 203.224C398.936 204.193 398.677 205.163 398.483 206.198C397.772 207.361 396.673 208.137 395.639 208.331Z" fill="#91755D"/>
<path d="M334.931 228.115C334.931 228.115 335.513 228.05 336.353 227.921C337.194 227.856 338.293 227.662 339.392 227.468C340.491 227.274 341.59 227.08 342.366 226.951C343.142 226.757 343.659 226.628 343.659 226.628C347.344 229.925 350.706 233.61 352.84 237.748C353.874 239.817 354.585 242.015 354.779 244.407C354.973 246.735 354.585 249.256 353.486 251.778C350.254 252.618 347.086 253.265 343.918 253.782C340.814 254.234 337.776 254.558 334.802 254.752C335.707 253.135 336.483 251.519 337.129 249.838C337.776 248.157 338.293 246.476 338.616 244.86C339.327 241.498 339.263 238.071 338.552 234.58C338.228 233.416 336.289 230.701 334.931 228.115Z" fill="#91755D"/>
<path d="M219.784 156.351C219.784 156.351 202.134 169.217 191.596 178.009C180.993 186.737 152.287 186.996 152.287 186.996C152.287 186.996 137.74 190.035 138.258 197.34C138.775 204.646 159.981 215.508 180.67 216.736C201.358 217.965 216.552 208.655 222.37 194.56C228.189 180.402 219.784 156.351 219.784 156.351Z" fill="#91755D"/>
<path d="M141.684 203.353C148.02 202.448 152.029 192.621 152.029 192.621C152.029 192.621 153.581 179.109 148.473 174.26C143.365 169.411 141.167 174.712 141.167 174.712C141.167 174.712 139.422 165.79 132.439 166.695C125.457 167.6 126.621 174.26 126.621 174.26C126.621 174.26 118.992 173.678 119.379 179.561L119.767 182.277C119.767 182.277 115.888 182.988 117.957 187.255C120.026 191.522 120.285 193.267 129.982 199.28C134.249 201.866 141.684 203.353 141.684 203.353Z" fill="#EBD9CD"/>
<path d="M136.448 183.117C135.607 183.44 134.896 183.957 134.314 184.669C132.245 187.061 129.465 191.134 132.439 195.013C134.638 197.858 138.323 197.793 140.779 196.5C143.172 195.272 145.241 193.009 145.241 189.841C145.305 183.376 140.133 181.501 136.448 183.117Z" fill="#CB542F"/>
<path d="M126.556 191.586C127.526 190.293 127.397 188.031 125.199 186.091C121.837 183.117 117.505 186.22 120.932 190.358C123.259 193.074 125.522 192.944 126.556 191.586Z" fill="#CB542F"/>
<path d="M130.5 184.022C131.469 182.729 131.34 180.466 129.142 178.527C125.78 175.553 121.448 178.656 124.875 182.794C127.202 185.574 129.465 185.38 130.5 184.022Z" fill="#CB542F"/>
<path d="M135.996 178.85C136.966 177.557 136.836 175.294 134.638 173.354C131.276 170.38 126.944 173.484 130.371 177.622C132.698 180.402 134.961 180.208 135.996 178.85Z" fill="#CB542F"/>
<path d="M146.728 181.824C148.926 180.919 148.538 176.781 146.987 175.617C144.077 173.419 142.914 178.915 144.207 180.854C144.724 181.63 145.823 182.147 146.728 181.824Z" fill="#CB542F"/>
<path d="M296.721 228.762C284.825 198.569 271.959 183.182 264.33 174.195C256.766 165.208 247.003 145.683 247.003 145.683L218.104 153.571C218.104 153.571 206.854 178.656 207.566 213.18C207.889 227.598 210.669 242.662 216.488 254.687H299.566C302.087 248.351 301.182 240.14 296.721 228.762Z" fill="#6A5847"/>
<path d="M266.076 253.653C267.692 231.542 254.826 205.745 249.719 187.255C244.611 168.764 243.383 155.64 243.383 155.64L210.863 146.588C210.863 146.588 212.867 175.1 204.203 202.577C202.393 208.396 190.885 235.033 197.415 254.622H266.076C266.076 254.235 266.076 253.911 266.076 253.653Z" fill="#EBD9CD"/>
<path d="M132.957 99.457C132.957 99.457 125.069 28.6627 139.292 25.9473C149.96 23.943 175.886 54.265 181.381 67.1955C181.446 67.1955 146.792 90.0824 132.957 99.457Z" fill="#6A5847"/>
<path d="M170.132 65.1266C170.132 65.1266 153.516 69.0704 139.099 82.5827C139.099 82.5827 134.508 39.7828 143.43 35.0632C148.538 32.4125 166.447 56.9157 170.132 65.1266Z" fill="#CEB8A3"/>
<path d="M294.199 79.9319C294.199 79.9319 283.402 9.52546 268.985 10.6246C258.123 11.465 240.99 47.4764 239.051 61.3766C238.986 61.3766 278.359 74.4364 294.199 79.9319Z" fill="#6A5847"/>
<path d="M249.59 57.1743C249.59 57.1743 266.27 59.3079 283.662 68.6178C283.662 68.6178 277.132 22.65 267.305 20.4518C261.68 19.2234 251.012 48.317 249.59 57.1743Z" fill="#CEB8A3"/>
<path fill-rule="evenodd" clip-rule="evenodd" d="M208.535 45.6662C261.162 39.3302 293.811 67.0014 294.652 84.0696C294.652 84.0696 294.005 122.861 285.148 138.184C272.799 159.519 252.111 164.432 218.75 167.471C187.782 170.316 166.705 169.734 151.576 152.86C138.71 138.507 133.538 103.401 133.538 103.401C128.56 81.8715 155.908 52.0021 208.535 45.6662Z" fill="#91755D"/>
<path d="M145.434 120.857C145.434 120.857 156.748 136.826 191.725 129.003C191.725 129.003 204.785 120.016 197.027 96.9355C189.268 73.8546 168.58 75.4063 156.748 80.0612C144.917 84.7162 135.607 102.884 145.434 120.857Z" fill="#6A5847"/>
<path d="M274.352 105.34C274.352 105.34 267.111 123.572 231.293 124.154C231.293 124.154 216.488 118.529 218.557 94.2847C220.626 70.04 241.12 66.6781 253.663 68.4237C266.205 70.1693 279.653 85.6213 274.352 105.34Z" fill="#6A5847"/>
<path d="M192.954 79.6086C193.795 80.1905 194.959 79.4793 194.765 78.4449C193.73 73.3373 193.86 57.5622 194.7 47.929C188.946 49.1573 183.58 50.709 178.602 52.5193C178.86 60.7948 182.481 72.0443 192.954 79.6086Z" fill="#6A5847"/>
<path d="M220.044 76.376C230.647 66.5488 236.595 54.0709 237.824 45.6015C232.587 44.955 227.027 44.6317 221.143 44.761C222.242 56.2045 217.911 70.4926 218.04 75.6648C218.105 76.6993 219.333 77.0872 220.044 76.376Z" fill="#6A5847"/>
<path d="M207.566 77.7337C208.471 72.1736 214.807 57.6268 215.001 45.0842C212.867 45.2135 210.669 45.4075 208.471 45.6661C205.626 45.9894 202.911 46.4419 200.195 46.8945C200.195 46.8945 197.739 60.7947 205.303 77.9923C205.82 79.0267 207.372 78.8328 207.566 77.7337Z" fill="#6A5847"/>
<path d="M249.265 95.7715C249.847 97.8403 248.619 99.9092 246.615 100.491C244.61 101.073 242.477 99.8446 241.895 97.8403C241.313 95.7715 242.541 93.7026 244.546 93.1207C246.615 92.5389 248.683 93.7672 249.265 95.7715Z" fill="white"/>
<path d="M265.299 91.9571C262.131 80.5783 250.429 73.9837 239.05 77.0871C227.672 80.255 221.077 91.9571 224.18 103.336C227.284 114.715 239.05 121.309 250.429 118.206C261.808 115.038 268.467 103.271 265.299 91.9571Z" fill="#EAC652"/>
<path d="M193.083 100.621C189.915 89.3064 178.213 82.6472 166.834 85.7505C155.52 88.9185 148.861 100.685 151.964 111.999C155.132 123.378 166.899 129.973 178.213 126.869C189.592 123.701 196.251 111.935 193.083 100.621Z" fill="#EAC652"/>
<path d="M236.077 87.8193C243.059 85.8798 250.3 89.9529 252.24 96.9353C254.179 103.918 250.106 111.159 243.124 113.098C236.141 115.038 228.9 110.965 226.961 103.982C224.957 97 229.03 89.7589 236.077 87.8193Z" fill="#0B1411"/>
<path d="M240.603 110.448C242.672 109.866 243.835 107.797 243.253 105.728C242.672 103.659 240.603 102.495 238.534 103.077C236.465 103.659 235.301 105.728 235.883 107.797C236.465 109.801 238.534 111.03 240.603 110.448Z" fill="white"/>
<path d="M191.531 104.241C189.591 97.2585 182.35 93.1208 175.368 95.125C168.385 97.0646 164.248 104.306 166.252 111.288C168.192 118.271 175.433 122.408 182.415 120.469C189.397 118.464 193.471 111.223 191.531 104.241Z" fill="#0B1411"/>
<path d="M178.148 112.581C178.73 114.65 177.502 116.719 175.497 117.301C173.428 117.883 171.36 116.654 170.778 114.65C170.196 112.581 171.424 110.512 173.428 109.93C175.497 109.349 177.631 110.512 178.148 112.581Z" fill="white"/>
<path d="M208.923 114.909C208.923 114.909 181.705 117.366 175.369 134.498C169.744 149.562 189.01 166.372 215.194 163.204C241.379 160.036 251.464 141.481 248.426 127.387C246.163 116.978 220.884 113.551 208.923 114.909Z" fill="#EBD9CD"/>
<path d="M210.733 129.585C211.768 130.361 221.918 135.468 229.418 131.33C229.418 131.33 228.448 140.058 224.698 144.649C224.698 144.649 220.884 140.252 213.255 140.77C205.561 141.222 201.035 146.588 201.035 146.588C197.092 143.097 194.958 135.856 194.958 135.856C194.958 135.856 206.014 136.05 210.669 129.52C210.604 129.52 210.669 129.52 210.733 129.585Z" fill="#0A1311"/>
<path d="M213.255 140.769C220.948 140.317 224.698 144.649 224.698 144.649C222.759 147.041 219.591 149.885 214.095 150.467C207.63 151.178 203.492 148.786 200.971 146.524C200.971 146.588 205.561 141.222 213.255 140.769Z" fill="#CB542F"/>
<path d="M209.958 122.602L210.863 130.813" stroke="#0B1411" stroke-width="2" stroke-miterlimit="10" stroke-linecap="round" stroke-linejoin="round"/>
<path d="M191.209 124.865C191.209 124.865 163.085 127.969 149.767 132.43" stroke="#0B1411" stroke-width="2" stroke-miterlimit="10" stroke-linecap="round" stroke-linejoin="round"/>
<path d="M187.459 129.973C187.459 129.973 161.21 134.498 148.926 141.222" stroke="#0B1411" stroke-width="2" stroke-miterlimit="10" stroke-linecap="round" stroke-linejoin="round"/>
<path d="M157.331 147.299C157.331 147.299 167.158 139.477 191.661 133.141" stroke="#0B1411" stroke-width="2" stroke-miterlimit="10" stroke-linecap="round" stroke-linejoin="round"/>
<path d="M233.427 119.758C233.427 119.758 260.645 116.202 274.675 117.43" stroke="#0B1411" stroke-width="2" stroke-miterlimit="10" stroke-linecap="round" stroke-linejoin="round"/>
<path d="M238.275 123.896C238.275 123.896 264.072 122.215 277.519 125.77" stroke="#0B1411" stroke-width="2" stroke-miterlimit="10" stroke-linecap="round" stroke-linejoin="round"/>
<path d="M270.861 133.723C270.861 133.723 260.258 128.356 234.979 127.969" stroke="#0B1411" stroke-width="2" stroke-miterlimit="10" stroke-linecap="round" stroke-linejoin="round"/>
<path d="M209.57 109.155C217.005 108.508 223.276 110.706 223.535 114.004C223.793 117.301 209.958 122.538 209.958 122.538C209.958 122.538 196.898 119.499 196.639 116.202C196.381 112.904 202.135 109.801 209.57 109.155Z" fill="#CB542F"/>
<path d="M260.58 163.592C260.58 163.592 249.008 159.002 243.448 178.268C239.698 191.198 233.103 191.134 213.837 193.332C213.837 193.332 201.23 193.978 201.036 202.577C200.971 206.004 207.566 213.18 207.566 213.18C207.566 213.18 230 227.921 254.115 213.827C278.231 199.733 272.735 167.406 260.58 163.592Z" fill="#91755D"/>
<path d="M237.305 188.225C235.172 189.712 232.586 190.681 229.159 191.328C231.81 194.561 235.366 200.185 234.913 206.909C234.978 206.909 241.314 197.664 237.305 188.225Z" fill="#6A5847"/>
<path d="M249.396 191.522C254.115 198.569 253.986 208.461 253.339 214.15C253.533 214.021 253.792 213.891 253.986 213.762C257.412 211.758 260.257 209.366 262.585 206.715C259.417 194.884 249.396 191.522 249.396 191.522Z" fill="#6A5847"/>
<path d="M259.157 184.539C259.157 184.539 256.895 174.26 246.809 170.122C245.516 172.191 244.352 174.841 243.382 178.268C243.382 178.397 243.318 178.462 243.253 178.591C247.585 178.397 254.05 179.238 259.157 184.539Z" fill="#6A5847"/>
<path d="M296.721 238.912C294.135 234.71 281.657 225.012 272.929 226.046C250.365 228.762 242.219 241.046 240.861 254.622H303.057C302.798 247.899 300.665 243.567 296.721 238.912Z" fill="#91755D"/>
<path d="M216.681 195.336C218.685 200.509 213.966 211.241 208.47 212.922C206.337 213.568 204.138 213.31 201.94 212.986C198.126 212.469 194.117 211.629 191.273 208.978C187.006 209.56 182.221 210.4 180.217 205.487C177.502 198.957 183.902 196.694 183.902 196.694C183.902 196.694 179.571 190.358 184.937 187.837L187.523 186.802C187.523 186.802 186.23 183.052 190.949 182.794C195.669 182.535 197.35 181.824 207.371 187.319C211.767 189.647 216.681 195.336 216.681 195.336Z" fill="#EBD9CD"/>
<path d="M24.793 254.623H395.703" stroke="#B3B3B4" stroke-width="2.4485" stroke-miterlimit="10" stroke-linecap="round" stroke-linejoin="round"/>
<path d="M237.757 246.476L146.145 224.753L63.3252 240.399L142.46 261.088L237.757 246.476Z" fill="#D0D0F3"/>
<path d="M137.999 251.131L192.695 242.209" stroke="#E6E6F9" stroke-miterlimit="10" stroke-linecap="round" stroke-linejoin="round"/>
<path d="M166.123 241.239L130.047 246.67" stroke="#E6E6F9" stroke-miterlimit="10" stroke-linecap="round" stroke-linejoin="round"/>
<path d="M156.037 238.201L128.301 242.532" stroke="#E6E6F9" stroke-miterlimit="10" stroke-linecap="round" stroke-linejoin="round"/>
<path d="M145.887 235.227L124.875 238.589" stroke="#E6E6F9" stroke-miterlimit="10" stroke-linecap="round" stroke-linejoin="round"/>
<path d="M148.731 231.218L121.9 235.55" stroke="#E6E6F9" stroke-miterlimit="10" stroke-linecap="round" stroke-linejoin="round"/>
<path d="M187.911 247.64L132.31 231.218" stroke="#E6E6F9" stroke-miterlimit="10" stroke-linecap="round" stroke-linejoin="round"/>
<path d="M177.631 249.45L124.875 233.352" stroke="#E6E6F9" stroke-miterlimit="10" stroke-linecap="round" stroke-linejoin="round"/>
<path d="M162.825 252.036L116.146 234.839" stroke="#E6E6F9" stroke-miterlimit="10" stroke-linecap="round" stroke-linejoin="round"/>
<path d="M126.361 231.8L141.167 229.343L203.556 244.86L141.749 255.786L126.361 231.8Z" stroke="#E6E6F9" stroke-miterlimit="10" stroke-linecap="round" stroke-linejoin="round"/>
<path d="M90.7382 146.071L8.56512 141.545C2.81106 140.382 -1.77926 146.265 0.677532 151.567L58.0888 253.782L143.882 273.113L90.7382 146.071Z" fill="#9B9BE5"/>
<path d="M237.176 258.566L150.93 274.277C146.081 275.182 141.296 272.596 139.357 268.07L81.0404 155.834C79.4241 152.019 81.3636 147.623 85.2428 146.33C88.7987 145.101 92.6778 146.912 94.1002 150.338L148.667 260.312L233.749 245.765C238.081 245.054 242.025 248.351 242.025 252.747C242.089 255.592 240.02 258.049 237.176 258.566Z" fill="#B1B1EB"/>
<path d="M48.6497 60.8592L48.4557 62.0876C47.9385 62.1523 47.486 62.1523 47.098 62.1523C46.5162 62.1523 45.8696 62.0876 45.0292 62.023C43.6715 61.8937 42.7663 61.829 42.4431 61.829C41.8612 61.829 40.8914 61.8937 39.5984 62.0876C40.0509 60.9239 40.4388 59.7601 40.7621 58.5317C40.9561 57.6266 41.2147 56.1396 41.4733 53.9414C39.7923 53.9414 37.1416 53.9414 33.5857 54.0707C29.9005 59.6955 27.1851 63.2514 25.4395 64.7384C23.6939 66.1607 22.0776 66.9365 20.5259 66.9365C19.6854 66.9365 19.1036 66.8072 18.7157 66.484C18.3277 66.1607 18.1338 65.7728 18.1338 65.2556C18.1338 64.8677 18.2631 64.5444 18.4571 64.2858C18.7157 64.0272 18.9743 63.8979 19.3622 63.8979C19.5561 63.8979 19.8148 63.9625 20.2027 64.0272C21.1078 64.2211 21.6897 64.3504 21.9483 64.3504C22.9181 64.3504 24.0172 63.7686 25.1809 62.6695C27.1205 60.8592 29.9652 57.1094 33.715 51.2907C37.9821 44.7608 41.4086 40.0412 44.0594 37.0672C40.4389 37.3904 38.2407 37.7137 37.3355 37.9723C36.1071 38.3602 35.202 38.9421 34.5555 39.7179C33.9736 40.4937 33.6504 41.2696 33.6504 42.0454C33.6504 42.304 33.715 42.6919 33.909 43.1445C34.1029 43.6617 34.2322 44.0496 34.2322 44.3082C34.2322 44.6315 34.1029 44.8901 33.8443 45.1487C33.5857 45.4073 33.3271 45.5366 32.9392 45.5366C32.422 45.5366 32.034 45.3427 31.7754 44.9547C31.4522 44.5668 31.3229 44.0496 31.3229 43.2738C31.3229 42.2393 31.5815 41.2049 32.1634 40.2351C32.6806 39.2653 33.521 38.4249 34.4908 37.7783C35.5253 37.1318 36.7537 36.6146 38.3053 36.2913C39.0812 36.0974 40.5035 35.9034 42.4431 35.7741C44.1887 35.6448 45.2231 35.5155 45.6757 35.3862C46.3869 35.1922 47.0334 34.8043 47.6153 34.2871C47.1627 36.0974 46.8394 37.649 46.6455 39.0067L44.8352 51.6139L43.8654 60.6653C44.9645 60.9239 45.9343 61.0532 46.7748 61.0532C47.3566 61.0532 47.9385 60.9885 48.6497 60.8592ZM41.6026 52.3251C42.3138 46.4418 43.0249 42.11 43.6715 39.3946C41.7965 41.8514 40.6975 43.4031 40.2449 44.0496L34.6201 52.3898C35.8485 52.4544 37.5295 52.4544 39.7923 52.4544C40.3742 52.3898 40.9561 52.3898 41.6026 52.3251Z" fill="#5392BB"/>
<path d="M66.6876 43.0799L68.11 42.7566L66.4937 48.252C65.8472 50.4502 65.2006 52.9717 64.6188 55.881C64.2955 57.4327 64.1662 58.4671 64.1662 58.9197C64.1662 59.3722 64.3602 59.5662 64.6834 59.5662C64.942 59.5662 65.2653 59.4369 65.7825 59.1136C66.6876 58.5964 67.5281 57.8852 68.3686 57.1094L69.0798 57.9499C67.3988 59.4369 66.3644 60.4067 65.9118 60.7299C65.0067 61.3765 64.1015 61.829 63.2611 62.1523C62.6792 62.3463 62.162 62.4756 61.6448 62.4756C61.2568 62.4756 60.9982 62.4109 60.8043 62.217C60.6103 62.023 60.5457 61.7644 60.5457 61.4411C60.5457 61.2472 60.6103 60.9239 60.7396 60.536L61.6448 57.562C60.4164 59.049 58.9294 60.342 57.1838 61.4411C56.1493 62.0876 55.1149 62.4756 54.2744 62.4756C53.4339 62.4756 52.7874 62.1523 52.3348 61.5704C51.753 60.7946 51.4297 59.6955 51.4297 58.4025C51.4297 56.8508 51.8176 55.1698 52.6581 53.2303C53.4986 51.3554 54.5977 49.6097 55.9554 48.0581C57.3131 46.5064 58.8001 45.4073 60.3517 44.6315C61.5155 44.0496 63.0671 43.791 64.8774 43.791C65.3299 43.791 65.8472 43.791 66.2997 43.8557L66.6876 43.0799ZM63.9722 46.4418C63.1964 46.3125 62.5499 46.1832 61.968 46.1832C60.675 46.1832 59.5112 46.5711 58.5414 47.2823C57.5717 47.9934 56.6665 49.2865 55.826 51.1614C54.9856 53.0363 54.5977 54.9112 54.5977 56.7862C54.5977 57.7559 54.7916 58.4671 55.1149 58.9197C55.4381 59.3722 55.8907 59.5662 56.4079 59.5662C57.4424 59.5662 58.4768 59.049 59.6405 57.9499C60.8043 56.8508 61.6448 55.2991 62.162 53.2949L63.9722 46.4418Z" fill="#5392BB"/>
<path d="M79.3592 86.0737C79.2299 86.6555 78.7774 88.3365 77.9369 91.1165C77.355 93.1854 76.8378 95.125 76.4499 96.8706C78.4541 96.6766 79.9411 96.612 80.9109 96.612C82.9798 96.612 84.7254 97.1292 86.1477 98.1636C87.5701 99.1981 88.2813 100.685 88.2813 102.754C88.2813 105.663 86.9882 108.12 84.4668 110.124C81.9453 112.129 79.1006 113.163 75.9973 113.163C75.3508 113.163 73.9931 113.098 71.9889 112.969C71.0191 112.904 69.92 112.904 68.8856 112.904C67.1399 112.904 65.6529 113.034 64.4892 113.292L64.8771 111.935C66.752 111.87 68.0451 111.353 68.6916 110.383C69.3381 109.478 69.92 107.991 70.4372 105.922L75.5447 86.1383C72.4414 86.1383 69.8553 87.1728 67.7218 89.177C65.5883 91.1812 64.5538 93.444 64.5538 95.8362C64.5538 96.9999 64.8771 98.2283 65.459 99.3921C65.9115 100.233 66.1702 100.814 66.1702 101.138C66.1702 101.978 65.6529 102.431 64.6832 102.431C63.972 102.431 63.3255 101.978 62.9375 101.073C62.5496 100.168 62.291 99.0041 62.291 97.5818C62.291 94.4785 63.5194 91.5691 65.9762 88.7891C68.433 86.009 71.7949 84.5867 76.1266 84.5867H85.4366C87.5054 84.5867 89.445 84.3281 91.2553 83.8755C90.4148 87.3021 89.8976 89.5002 89.7683 90.3407H88.4752C88.7338 89.0477 88.8631 88.1425 88.8631 87.7546C88.8631 87.0435 88.6045 86.5909 88.0873 86.4616C87.5701 86.2676 86.277 86.203 84.1435 86.203H79.3592V86.0737ZM76.1266 98.293L74.9629 103.142C73.8638 107.538 72.8293 110.124 71.7949 111.029C73.1526 111.353 74.4457 111.547 75.5447 111.547C78.2601 111.547 80.3937 110.706 81.8807 108.961C83.3677 107.28 84.0789 105.275 84.0789 103.077C84.0789 101.913 83.7556 100.879 83.1091 100.168C82.4625 99.392 81.7514 98.8748 80.8462 98.6809C79.9411 98.4869 78.3894 98.293 76.1266 98.293Z" fill="#D37AAB"/>
<path d="M97.7201 96.6767C100.242 93.8966 102.634 92.5389 104.896 92.5389C106.125 92.5389 107.095 93.0561 107.741 94.0259C108.388 94.9957 108.646 96.3534 108.646 97.9697C108.646 101.784 107.418 105.34 104.961 108.573C102.504 111.805 99.7889 113.422 96.8149 113.422C95.2633 113.422 94.0349 112.969 93.1944 112.064C92.3539 111.159 91.9014 110.06 91.9014 108.767C91.9014 107.668 92.0953 106.116 92.5479 104.176L95.3926 91.3752C96.4917 86.3323 98.2373 83.035 100.565 81.3541C102.892 79.6731 105.026 78.8326 106.901 78.8326C107.418 78.8326 108.129 78.8973 109.034 79.0912C112.267 79.6731 114.271 79.9317 115.047 79.9317C115.629 79.9317 116.34 79.4792 117.245 78.6387L117.956 79.1559C116.986 80.8369 116.081 81.8713 115.306 82.2592C114.53 82.7118 113.625 82.9057 112.59 82.9057C111.297 82.9057 108.905 82.5825 105.414 81.9359C104.315 81.742 103.539 81.6773 103.086 81.6773C102.31 81.6773 101.664 82.0652 101.211 82.8411C100.759 83.6169 100.242 85.3625 99.595 88.1426L97.7201 96.6767ZM95.134 108.831C95.134 109.672 95.3926 110.383 95.9745 110.965C96.5563 111.547 97.2029 111.805 97.8494 111.805C99.7243 111.805 101.341 110.318 102.698 107.409C104.056 104.5 104.767 101.72 104.767 99.1335C104.767 98.1637 104.573 97.2585 104.185 96.4181C103.797 95.5776 103.216 95.1897 102.44 95.1897C101.599 95.1897 100.629 95.7069 99.4657 96.806C98.3019 97.9051 97.2675 99.6507 96.427 102.107C95.5866 104.564 95.134 106.827 95.134 108.831Z" fill="#D37AAB"/>
<path d="M327.624 18.8354L327.882 17.6716C329.693 17.5423 331.697 17.2191 333.83 16.7018C333.249 18.3828 332.861 19.6759 332.602 20.7103L331.309 26.1411C334.154 26.1411 336.287 25.4299 337.774 24.0076C339.197 22.5852 339.908 20.9043 339.908 18.9C339.908 17.5423 339.39 16.4432 338.356 15.6028C337.322 14.7623 335.77 14.3744 333.701 14.3744C330.792 14.3744 328.012 15.0855 325.361 16.4432C322.71 17.8009 320.641 19.6759 319.154 21.874C317.667 24.1369 316.956 26.335 316.956 28.5979C316.956 29.1798 317.021 29.7616 317.215 30.2788C317.409 30.7961 317.603 31.3133 317.926 31.7012C318.12 31.9598 318.572 32.2831 319.219 32.7356C319.93 33.2528 320.447 33.6408 320.577 33.8994C320.706 34.158 320.835 34.4166 320.835 34.8045C320.835 35.1278 320.706 35.451 320.447 35.7096C320.189 35.9682 319.866 36.0976 319.542 36.0976C318.637 36.0976 317.667 35.451 316.762 34.0933C315.857 32.7356 315.34 31.1193 315.34 29.1151C315.34 26.3997 316.18 23.749 317.797 21.2275C319.413 18.7061 321.74 16.6372 324.65 15.0855C327.624 13.5339 330.856 12.7581 334.477 12.7581C337.386 12.7581 339.584 13.3399 341.071 14.5037C342.558 15.6674 343.334 17.0251 343.334 18.7061C343.334 20.2577 342.817 21.6801 341.783 22.9731C340.748 24.2662 339.197 25.236 337.192 25.9471C338.615 26.1411 339.714 26.529 340.554 27.1109C341.395 27.6281 342.041 28.3393 342.429 29.1798C342.882 30.0202 343.076 30.9254 343.076 32.0245C343.076 33.7701 342.558 35.3864 341.524 36.938C340.49 38.4897 339.003 39.7827 336.998 40.8172C334.994 41.8516 332.925 42.3688 330.792 42.3688C330.145 42.3688 328.787 42.3042 326.783 42.1749C325.813 42.1102 324.779 42.1102 323.68 42.1102C322.064 42.1102 320.577 42.2395 319.284 42.4981L319.672 41.1404C321.352 41.0758 322.581 40.6232 323.292 39.912C324.003 39.2009 324.714 37.6492 325.296 35.1924L328.852 21.1629C328.981 20.581 329.046 20.1284 329.046 19.8052C329.046 19.5466 328.917 19.3526 328.723 19.1586C328.529 18.9647 328.27 18.9 327.947 18.9C328.012 18.7061 327.818 18.7707 327.624 18.8354ZM330.986 27.4988L329.757 32.3477C329.111 34.8692 328.529 36.8087 327.947 38.1664C327.624 38.9423 327.171 39.6534 326.654 40.2353C328.076 40.5586 329.369 40.7525 330.404 40.7525C333.249 40.7525 335.382 39.912 336.804 38.1664C338.227 36.4208 338.938 34.4812 338.938 32.3477C338.938 31.3133 338.679 30.3435 338.097 29.5677C337.516 28.7918 336.869 28.2746 335.964 27.9514C335.059 27.6281 333.442 27.4988 330.986 27.4988Z" fill="#5392BB"/>
<path d="M357.04 30.4728H358.269C360.402 30.4728 361.501 31.5072 361.501 33.6408C361.501 35.8389 360.273 37.8432 357.751 39.7827C355.23 41.7223 352.773 42.6274 350.381 42.6274C347.407 42.6274 345.92 41.0111 345.92 37.8432C345.92 34.0933 347.084 30.4082 349.411 26.8523C351.739 23.2964 354.454 21.5508 357.557 21.5508C359.885 21.5508 361.113 22.6499 361.113 24.7834C360.984 26.9169 359.626 28.7918 357.04 30.4728ZM350.122 34.158C349.993 35.0631 349.928 35.9683 349.928 36.8087C349.928 38.2311 350.122 39.2655 350.446 39.8474C350.769 40.4293 351.351 40.6879 352.127 40.6879C353.29 40.6879 354.454 40.0414 355.682 38.813C356.911 37.5846 357.493 36.0976 357.493 34.4813C357.493 32.8003 356.846 31.9598 355.553 31.9598C354.519 31.9598 352.708 32.671 350.122 34.158ZM350.316 32.4124C355.101 30.3435 357.493 28.0807 357.493 25.6885C357.493 24.1369 356.846 23.361 355.618 23.361C353.096 23.361 351.351 26.3997 350.316 32.4124Z" fill="#5392BB"/>
</svg>
