<svg width="400" height="280" viewBox="0 0 400 280" fill="none" xmlns="http://www.w3.org/2000/svg">
<path d="M184.529 248.832C186.616 246.946 187.828 244.118 188.367 241.29C190.387 230.987 186.347 219.404 173.62 222.165C169.31 223.108 165.472 225.734 162.307 228.764C159.209 231.795 159.007 234.354 158.401 238.529C158.334 239.135 158.199 239.741 158.468 240.28C158.805 241.02 159.546 241.357 160.286 241.626C162.172 242.3 164.125 242.636 166.145 242.502C164.866 244.32 165.876 247.148 167.828 248.158C169.781 249.168 172.34 248.764 174.158 247.552C175.573 250.717 180.084 251.525 183.115 249.842C183.586 249.572 184.057 249.236 184.529 248.832Z" fill="#FFBA94"/>
<path d="M190.387 181.021C190.387 181.021 144.192 176.644 138.334 199.876C132.475 223.108 160.421 233.478 186.145 233.209L190.387 181.021Z" fill="#DD915F"/>
<path d="M391.598 48.227C393.349 49.1697 395.1 50.3818 396.514 51.8633C396.851 52.2 397.187 52.604 397.524 52.9407C397.861 53.3448 398.13 53.7488 398.399 54.1528C398.938 54.9609 399.342 55.7017 399.611 56.5771C400.15 58.1932 400.083 59.8094 399.477 61.2235C398.803 62.6376 397.524 63.9171 395.706 65.1966C393.214 66.88 390.723 68.0922 388.298 69.3043C385.941 70.449 383.652 71.5265 381.43 72.6039C379.14 73.6813 376.851 74.6914 374.359 75.7689C371.867 76.8463 369.174 77.9237 366.413 79.2032C365.672 79.5399 364.999 79.8093 364.258 80.146C363.517 80.4827 362.844 80.8194 362.103 81.156C360.689 81.8294 359.342 82.5028 358.063 83.1762C355.504 84.523 353.214 85.9372 351.329 87.3513C351.127 87.5533 350.857 87.688 350.655 87.89C350.453 88.092 350.184 88.2267 349.982 88.4287C349.511 88.8328 349.107 89.2368 348.635 89.6409C348.433 89.8429 348.164 90.0449 347.962 90.2469C347.76 90.4489 347.558 90.6509 347.356 90.9203C346.952 91.3243 346.548 91.7957 346.144 92.1998C345.942 92.4018 345.74 92.6038 345.605 92.8732C345.403 93.0752 345.268 93.3445 345.066 93.5466C344.73 93.9506 344.326 94.422 343.989 94.826C343.383 95.7014 342.777 96.5095 342.238 97.3176C342.238 97.3176 341.901 97.991 341.228 99.2704C341.161 99.4051 341.093 99.6071 340.959 99.7418C340.891 99.9438 340.824 100.146 340.689 100.348C340.555 100.752 340.353 101.223 340.151 101.695C339.679 102.637 339.41 103.782 338.938 104.994C338.198 107.486 337.39 110.583 336.986 114.152C336.581 117.721 336.514 121.762 336.986 125.937C337.12 126.947 337.188 128.024 337.39 129.102C337.592 130.179 337.726 131.257 337.996 132.267C338.467 134.354 339.073 136.442 339.881 138.799C341.497 143.445 343.72 148.63 346.009 154.152C348.231 159.674 350.521 165.465 352.137 171.661C353.753 177.788 354.696 184.32 354.561 190.516C354.494 193.411 354.157 197.384 352.878 202.098C351.598 206.745 349.511 211.795 346.346 216.711C343.181 221.627 339.073 226.34 334.225 230.313C329.376 234.354 323.787 237.586 317.861 240.01C314.898 241.222 311.868 242.165 308.77 242.973C307.962 243.108 307.221 243.31 306.413 243.445L305.269 243.714C305.067 243.781 304.865 243.781 304.662 243.849L303.989 243.916C303.046 244.051 302.104 244.118 301.228 244.253C300.757 244.32 300.285 244.387 299.881 244.387H298.602C297.727 244.387 296.851 244.387 295.976 244.387H295.302L294.696 244.32C294.292 244.32 293.888 244.253 293.484 244.253C292.676 244.185 291.868 244.118 291.06 244.051C290.252 243.983 289.578 243.849 288.838 243.714C288.097 243.579 287.356 243.445 286.683 243.377C285.942 243.243 285.336 243.108 284.663 242.906C283.316 242.569 281.969 242.3 280.757 241.896C280.151 241.694 279.545 241.559 278.939 241.357C278.669 241.29 278.333 241.155 278.063 241.088C277.794 241.02 277.525 240.886 277.188 240.818C276.043 240.414 274.966 240.078 273.888 239.674C271.868 238.866 269.915 238.125 268.232 237.384C266.481 236.643 264.999 235.97 263.585 235.297C262.171 234.69 261.026 234.084 260.016 233.613C258.535 232.94 257.053 232.064 255.572 231.054C254.09 230.044 252.676 228.967 251.464 227.754C248.973 225.33 247.289 222.569 247.356 219.674C247.356 214.556 254.562 206.273 260.622 207.149C262.643 207.418 264.528 208.495 266.346 209.505C269.444 211.189 273.08 213.142 277.255 214.893C281.43 216.643 286.077 218.327 290.723 219.202C291.329 219.337 291.868 219.337 292.474 219.472C293.08 219.539 293.619 219.674 294.225 219.674C294.764 219.741 295.37 219.741 295.908 219.808C296.447 219.808 296.986 219.741 297.524 219.741C297.794 219.741 298.063 219.741 298.333 219.741L299.073 219.606L299.814 219.472L300.218 219.404C300.353 219.404 300.487 219.337 300.689 219.27C301.296 219.135 301.902 219 302.508 218.866C303.114 218.731 303.72 218.529 304.326 218.327C306.75 217.519 309.174 216.576 311.464 215.297C313.753 214.017 315.908 212.536 317.861 210.852C321.767 207.485 324.864 203.378 326.548 199.068C327.019 197.99 327.289 196.913 327.693 195.835C327.962 194.758 328.164 193.681 328.299 192.603C328.568 190.448 328.568 188.226 328.299 186.004C327.827 181.559 326.481 177.048 324.999 172.873C323.45 168.698 321.767 164.792 320.353 161.492C318.265 156.711 316.043 151.728 314.09 146.206C313.821 145.533 313.619 144.792 313.349 144.119C313.08 143.445 312.878 142.705 312.676 141.964C312.205 140.55 311.868 139.001 311.464 137.519C310.723 134.556 310.184 131.526 309.78 128.496C308.231 116.375 309.174 103.782 313.282 91.7284C315.369 85.7351 318.265 79.8093 322.103 74.3547C323.046 73.008 324.124 71.7285 325.134 70.3817C325.605 69.7083 326.211 69.1023 326.817 68.4962L328.568 66.678C328.837 66.3413 329.107 66.072 329.443 65.7353L330.386 64.8599C330.992 64.2538 331.666 63.7151 332.339 63.109C333.686 61.9643 335.033 60.8868 336.379 59.9441C341.901 55.971 347.827 53.0081 353.686 50.7185C356.581 49.5738 359.679 48.5637 362.844 47.6882C366.009 46.8128 369.376 46.1394 372.878 45.7354C376.851 45.264 380.487 45.3314 383.719 45.8701C386.817 46.1394 389.51 47.1495 391.598 48.227Z" fill="#D38150"/>
<path d="M391.598 48.227C389.578 47.1496 386.817 46.2068 383.652 45.7354C380.487 45.264 376.783 45.1967 372.81 45.6007C369.982 45.9374 367.221 46.4762 364.595 47.0822C361.968 47.7556 359.409 48.4964 356.918 49.3044C352.137 50.9879 347.356 53.0081 342.709 55.6344C338.063 58.2606 333.484 61.5602 329.376 65.5333C325.47 69.439 322.171 73.7487 319.342 78.3278C319.679 78.2605 320.15 78.0585 320.756 77.6544C321.901 76.8463 323.046 76.0383 324.258 75.2302C325.47 74.4895 326.682 73.7487 327.827 72.9407L328.703 72.4019L329.645 71.8632C330.251 71.5265 330.857 71.1898 331.463 70.7858C332.069 70.4491 332.676 70.1124 333.282 69.7083C333.955 69.3716 334.561 69.0349 335.167 68.6982C340.285 66.072 345.403 64.0518 350.588 62.301C347.423 64.4559 344.393 66.9474 341.834 69.7083C340.554 71.0551 339.342 72.5366 338.265 74.0181C337.726 74.7588 337.255 75.5669 336.716 76.3076C336.245 77.1157 335.773 77.8564 335.302 78.5972C334.83 79.6073 334.359 80.9541 335.167 81.2908C335.571 81.4254 336.043 81.2908 336.514 81.1561C336.918 81.0214 337.322 80.8194 337.793 80.6174C338.197 80.4827 338.669 80.2807 339.073 80.0787C339.948 79.742 340.756 79.2706 341.497 78.8665C343.113 78.0585 344.662 77.1157 346.211 76.1056C345.066 77.5871 343.517 78.7319 342.44 80.2133C341.901 81.0214 341.43 81.8968 341.228 82.7049C341.16 83.1089 341.093 83.513 341.16 83.917C341.228 84.3211 341.362 84.7251 341.564 84.9944C342.036 85.6678 342.844 86.0045 343.585 86.2739C344.999 86.7453 346.346 86.9473 347.692 87.0146C349.039 87.0146 350.251 87.0146 351.531 86.88C354.359 84.7924 358.063 82.7049 362.305 80.7521C363.315 80.2807 364.46 79.742 365.537 79.2706C366.547 78.7992 367.625 78.3278 368.635 77.9238C370.655 77.0484 372.608 76.2403 374.493 75.4322C376.379 74.6241 378.13 73.8834 379.813 73.0753C381.497 72.3346 383.18 71.5265 384.864 70.7184C385.672 70.3144 386.615 69.9104 387.49 69.5063C388.365 69.1023 389.308 68.6309 390.184 68.1595C391.059 67.6882 392.002 67.2168 392.945 66.6781C393.887 66.1393 394.763 65.6006 395.705 64.9946C397.524 63.7151 398.803 62.4357 399.476 61.0215C400.15 59.6074 400.15 58.0586 399.611 56.3751C399.342 55.567 398.938 54.7589 398.399 53.9509C398.13 53.5468 397.86 53.1428 397.524 52.7388C397.187 52.3347 396.85 51.998 396.514 51.6613C395.032 50.3819 393.281 49.1698 391.598 48.227Z" fill="#FFC4A4"/>
<path d="M311.531 116.712C313.551 114.759 315.572 113.412 317.726 112.536C319.949 111.661 322.103 111.257 324.326 111.324C328.703 111.324 332.945 112.873 336.851 115.028C336.447 119.54 336.582 123.917 337.12 127.755C334.225 127.284 331.8 126.812 331.127 126.745C328.164 126.476 325.336 126.408 322.508 126.341C318.063 126.274 313.888 125.668 309.309 125.6C309.309 125.6 309.309 125.533 309.242 125.398C309.242 125.264 309.174 125.062 309.174 124.792C309.107 124.321 309.107 123.648 309.04 123.041C308.972 122.368 308.905 121.762 308.972 121.291C308.972 120.819 308.972 120.483 308.972 120.483C309.713 118.934 310.588 117.722 311.531 116.712Z" fill="#875844"/>
<path d="M350.117 171.661C349.241 172.401 348.164 172.536 347.086 172.805C339.477 174.556 334.09 179.405 327.962 183.58C327.086 178.327 325.066 172.738 322.575 166.88C326.211 164.321 330.319 162.233 334.696 161.492C339.073 160.752 343.719 161.156 348.231 164.051C349.107 164.59 349.982 165.331 350.655 166.341C350.925 167.149 351.127 167.957 351.396 168.832C351.396 169.977 350.857 171.055 350.117 171.661Z" fill="#875844"/>
<path d="M308.972 216.307C308.972 216.307 309.107 216.239 309.309 216.172C309.511 216.105 309.78 215.97 310.117 215.768C310.79 215.431 311.733 214.96 312.609 214.421C313.08 214.152 313.484 213.882 313.888 213.68C314.292 213.411 314.629 213.142 314.965 212.94C315.302 212.738 315.571 212.536 315.706 212.401C315.908 212.266 315.975 212.199 315.975 212.199C317.053 212.536 318.198 212.94 319.275 213.344C320.42 213.748 321.43 214.152 322.507 214.623C324.595 215.566 326.615 216.643 328.299 217.923C330.049 219.27 331.531 220.818 332.541 222.839C333.619 224.792 334.157 227.081 334.157 229.842C328.77 234.354 322.709 237.788 316.312 240.347C317.39 236.778 317.861 233.344 317.457 230.111C317.12 226.879 315.975 223.916 314.157 221.088C313.821 220.549 313.013 219.876 312.002 219.068C311.06 218.192 309.915 217.249 308.972 216.307Z" fill="#875844"/>
<path d="M251.801 117.385C251.801 117.385 249.848 129.641 264.596 150.449C279.41 171.189 291.935 197.99 287.491 224.253C283.047 250.515 224.461 239.808 224.461 239.808C224.461 239.808 218.199 141.156 224.461 121.762L251.801 117.385Z" fill="#D38150"/>
<path d="M259.545 165.331C262.508 164.725 266.616 162.502 270.589 159.405C268.636 156.307 266.683 153.344 264.596 150.449C263.989 149.573 263.383 148.698 262.845 147.89C261.363 150.853 259.41 153.95 256.784 156.778C247.828 166.745 253.956 166.543 259.545 165.331Z" fill="#875844"/>
<path d="M260.892 183.58C266.683 185.533 274.494 184.927 282.036 181.829C280.286 177.317 278.198 172.873 275.976 168.63C272.003 171.661 266.279 175.297 258.266 178.529C258.266 178.529 253.148 180.954 260.892 183.58Z" fill="#875844"/>
<path d="M285.673 192.94C281.094 195.229 273.417 198.058 262.239 199.203C262.239 199.203 256.65 200.078 263.384 204.792C269.242 208.899 278.737 210.314 288.299 208.293C287.895 203.108 287.02 197.99 285.673 192.94Z" fill="#875844"/>
<path d="M228.838 118.395C228.838 118.395 221.498 115.23 215.64 120.28C209.714 125.331 192.205 138.26 184.798 140.146C177.391 142.031 141.566 156.981 141.566 156.981C141.566 156.981 150.32 164.523 152.408 168.698C152.408 168.698 177.256 168.159 196.65 164.321C216.044 160.415 228.501 151.189 236.784 141.358C244.932 131.459 228.838 118.395 228.838 118.395Z" fill="#D38150"/>
<path d="M217.121 116.307C217.121 116.307 192.407 140.617 188.636 185.061C184.798 229.438 206.481 240.684 229.04 241.896C251.599 243.108 231.06 189.169 230.32 159.068C229.579 128.967 234.293 119.068 234.293 119.068L217.121 116.307Z" fill="#FFC4A4"/>
<path d="M192.205 235.566C187.02 237.316 182.307 240.212 180.354 244.454C177.997 249.505 182.104 252.872 186.886 252.737C186.886 252.737 187.424 260.279 195.64 258.259L197.997 256.508C197.997 256.508 199.545 259.269 205.135 256.508C210.252 254.017 216.784 250.448 217.592 244.185C218.468 237.653 212.677 234.286 206.885 233.747C202.845 233.276 197.256 233.882 192.205 235.566Z" fill="#FFC4A4"/>
<path d="M287.693 229.707C287.491 228.967 287.289 228.293 287.019 227.62C286.009 225.061 284.259 222.906 282.508 220.818C279.208 217.047 275.504 213.546 270.925 211.526C265.942 209.303 260.218 209.169 254.831 209.909C247.087 210.987 241.296 214.017 235.235 218.596C229.983 222.569 225.606 229.236 219.612 231.93C215.437 233.815 209.983 233.478 207.087 236.98C204.798 239.808 205.067 243.849 205.471 247.418C205.808 250.179 206.279 253.276 208.569 254.96C209.444 255.633 210.522 255.97 211.599 256.239C221.902 259.471 232.407 262.704 243.181 263.242C249.444 263.579 255.774 262.973 261.834 261.559C267.828 260.145 273.686 257.788 278.4 253.815C284.595 248.562 289.713 237.923 287.693 229.707Z" fill="#DD915F"/>
<path d="M257.861 209.573C260.353 213.411 265.605 222.839 264.326 233.613C264.326 233.613 266.683 239.337 270.656 230.717C273.417 224.792 274.158 218.462 273.686 213.007C272.811 212.468 271.868 211.93 270.925 211.526C266.817 209.707 262.306 209.303 257.861 209.573Z" fill="#875844"/>
<path d="M247.424 237.249C247.424 237.249 251.06 242.973 251.868 235.431C252.542 229.236 251.666 219.674 248.434 211.323C243.99 212.738 240.016 215.027 236.043 217.923C239.074 221.559 245.269 229.573 247.424 237.249Z" fill="#875844"/>
<path fill-rule="evenodd" clip-rule="evenodd" d="M196.919 31.392C196.919 31.392 211.532 23.5133 232.474 25.0621C253.417 26.6109 262.037 32.9408 262.037 32.9408C262.037 32.9408 281.228 6.00496 293.08 10.1127C300.151 12.5369 311.06 26.4089 307.087 58.1259C303.046 89.8428 267.491 131.055 215.64 129.573C163.788 128.092 153.754 80.752 151.061 56.577C148.435 32.4021 154.024 11.6615 162.239 9.16993C168.502 7.35176 188.569 20.483 196.919 31.392Z" fill="#DD915F"/>
<path d="M189.107 33.8162C189.107 33.8162 169.983 41.1562 157.592 53.8834C157.592 53.8834 155.505 19.1361 165.202 16.5099C169.781 15.2978 185.538 26.4761 189.107 33.8162Z" fill="#F7AF7F"/>
<path d="M291.397 15.7018C307.154 19.9442 299.881 56.0382 299.881 56.0382C285.875 43.4457 267.087 35.567 267.087 35.567C267.087 35.567 283.922 13.6816 291.397 15.7018Z" fill="#F7AF7F"/>
<path d="M288.972 74.3548C287.221 76.6443 293.551 83.715 296.177 86.4759C297.726 84.0517 299.14 81.5601 300.352 79.1359C298.063 77.3177 290.858 71.9305 288.972 74.3548Z" fill="#875844"/>
<path d="M281.497 83.5804C279.949 85.6679 286.683 92.2672 289.915 95.2301C291.666 93.1426 293.215 90.9204 294.696 88.7655C291.329 86.678 282.844 81.8295 281.497 83.5804Z" fill="#875844"/>
<path d="M272.541 94.4892C271.531 96.3074 276.986 102.301 280.151 105.533C282.777 103.109 285.269 100.617 287.558 97.9909C282.71 95.7014 273.753 92.4017 272.541 94.4892Z" fill="#875844"/>
<path d="M175.236 97.1154C173.821 95.6339 167.963 97.3174 163.384 98.9336C164.933 101.695 166.683 104.388 168.636 106.947C172.205 103.58 176.717 98.7316 175.236 97.1154Z" fill="#875844"/>
<path d="M171.06 84.725C169.175 83.3108 162.306 86.8798 158.67 88.9C159.68 91.4589 160.825 93.9505 162.104 96.4421C165.471 93.4791 173.081 86.2738 171.06 84.725Z" fill="#875844"/>
<path d="M163.653 74.7586C162.037 73.6139 157.862 75.9707 154.966 77.9236C155.64 80.5498 156.515 83.1761 157.458 85.8697C161.431 81.8966 165.808 76.3074 163.653 74.7586Z" fill="#875844"/>
<path d="M234.158 42.5703C237.659 42.2336 239.073 35.8364 242.373 27.3516V26.2741C239.477 25.8027 236.245 25.3314 232.676 25.062C231.464 35.163 232.003 42.7723 234.158 42.5703Z" fill="#875844"/>
<path d="M220.959 49.035C225.942 49.237 226.212 36.9812 230.252 24.9274C226.144 24.7254 222.306 24.9274 218.804 25.3314C216.38 35.163 216.178 48.833 220.959 49.035Z" fill="#875844"/>
<path d="M207.963 40.8868C211.06 41.2908 213.417 31.7959 217.727 25.3987C214.023 25.8701 210.791 26.5435 207.963 27.2842C206.616 31.7959 205.337 40.5501 207.963 40.8868Z" fill="#875844"/>
<path d="M269.982 67.7553C268.366 57.2503 258.602 50.0449 248.097 51.6611C237.592 53.2772 230.387 63.0415 232.003 73.5465C233.619 84.0515 243.383 91.2568 253.888 89.6406C264.393 88.0245 271.599 78.1929 269.982 67.7553Z" fill="white"/>
<path d="M204.461 66.2738C202.845 55.7688 193.081 48.5635 182.576 50.1796C172.071 51.7958 164.865 61.56 166.481 72.065C168.098 82.57 177.862 89.7754 188.367 88.1592C198.872 86.6104 206.077 76.7788 204.461 66.2738Z" fill="white"/>
<path d="M244.259 60.2132C250.723 59.2031 256.784 63.6475 257.727 70.1121C258.737 76.5768 254.292 82.6373 247.828 83.5801C241.363 84.5902 235.303 80.1458 234.36 73.6811C233.35 67.2839 237.794 61.2233 244.259 60.2132Z" fill="#0B1411"/>
<path d="M179.276 72.9404C178.266 66.4758 182.71 60.4152 189.175 59.4725C195.64 58.4624 201.7 62.9068 202.643 69.3714C203.653 75.836 199.208 81.8966 192.744 82.8393C186.347 83.8494 180.286 79.405 179.276 72.9404Z" fill="#0B1411"/>
<path d="M252.339 71.9303C254.225 71.661 255.504 69.9102 255.235 68.0246C254.966 66.1391 253.215 64.8597 251.329 65.129C249.444 65.3984 248.164 67.1492 248.434 69.0347C248.703 70.9876 250.454 72.267 252.339 71.9303Z" fill="white"/>
<path d="M184.596 63.4454C182.71 63.7148 181.431 65.4656 181.7 67.3511C181.97 69.2367 183.721 70.5161 185.606 70.2468C187.492 69.9774 188.771 68.2266 188.502 66.341C188.3 64.4555 186.481 63.1761 184.596 63.4454Z" fill="white"/>
<path d="M217.121 122.368C234.75 122.368 249.04 112.72 249.04 100.819C249.04 88.9182 234.75 79.2705 217.121 79.2705C199.493 79.2705 185.202 88.9182 185.202 100.819C185.202 112.72 199.493 122.368 217.121 122.368Z" fill="#FFC4A4"/>
<path d="M217.188 94.0851C218.064 94.8932 224.326 100.55 231.464 97.6541C231.464 97.6541 231.936 103.109 228.03 106.812C228.03 106.812 225.134 102.503 218.198 102.099C211.33 101.695 206.616 106.004 206.616 106.004C203.518 102.503 203.855 97.9908 203.855 97.9908C203.855 97.9908 212.205 99.3376 217.054 93.9504C217.054 94.0178 217.121 94.0178 217.188 94.0851Z" fill="#0A1311"/>
<path d="M218.199 102.166C225.067 102.57 228.03 106.88 228.03 106.88C226.01 108.833 222.912 110.247 217.929 110.247C212.071 110.179 208.636 108.361 206.616 106.072C206.616 106.004 211.33 101.762 218.199 102.166Z" fill="#CB542F"/>
<path fill-rule="evenodd" clip-rule="evenodd" d="M217.195 87.01C217.606 87.0137 217.937 87.3504 217.933 87.762L217.866 95.2367C217.862 95.6484 217.526 95.979 217.114 95.9753C216.702 95.9716 216.372 95.6349 216.376 95.2233L216.443 87.7486C216.447 87.337 216.783 87.0063 217.195 87.01Z" fill="#0B1411"/>
<path fill-rule="evenodd" clip-rule="evenodd" d="M200.954 89.1839C201.021 89.5901 200.745 89.9732 200.339 90.0396L200.334 90.0404L200.314 90.0437C200.297 90.0466 200.27 90.0513 200.234 90.0576C200.162 90.0703 200.054 90.0898 199.911 90.1168C199.626 90.1708 199.205 90.2546 198.665 90.373C197.585 90.6097 196.032 90.9844 194.148 91.5346C190.378 92.6356 185.293 94.4365 180.03 97.2348C179.666 97.428 179.215 97.29 179.022 96.9266C178.829 96.5631 178.967 96.1118 179.33 95.9186C184.706 93.0604 189.891 91.2249 193.73 90.1037C195.651 89.5429 197.237 89.16 198.346 88.9169C198.901 88.7954 199.336 88.7087 199.634 88.6522C199.783 88.624 199.897 88.6033 199.976 88.5895C200.015 88.5826 200.045 88.5775 200.065 88.574L200.089 88.57L200.096 88.5689L200.098 88.5686C200.098 88.5686 200.099 88.5684 200.219 89.304L200.099 88.5684C200.505 88.5021 200.888 88.7777 200.954 89.1839Z" fill="#0B1411"/>
<path fill-rule="evenodd" clip-rule="evenodd" d="M196.479 94.7444C196.479 94.7445 196.479 94.7445 196.479 94.7446L196.477 94.7449L196.464 94.7482C196.45 94.7515 196.429 94.7568 196.399 94.7643C196.34 94.7794 196.249 94.8036 196.128 94.8383C195.885 94.9076 195.519 95.0192 195.043 95.1849C194.089 95.5163 192.691 96.0646 190.934 96.9261C187.422 98.6489 182.478 101.626 176.806 106.631C176.498 106.903 176.027 106.874 175.754 106.565C175.482 106.256 175.511 105.785 175.82 105.513C181.596 100.417 186.652 97.3667 190.278 95.5878C192.091 94.6986 193.545 94.1273 194.553 93.7769C195.057 93.6017 195.449 93.4818 195.719 93.4049C195.853 93.3664 195.957 93.3388 196.029 93.3204C196.065 93.3111 196.093 93.3042 196.113 93.2995L196.136 93.2939L196.143 93.2922L196.146 93.2917L196.146 93.2915C196.147 93.2914 196.147 93.2913 196.313 94.0179L196.147 93.2913C196.548 93.1997 196.948 93.4507 197.04 93.852C197.131 94.2531 196.881 94.6524 196.48 94.7444L196.48 94.7444L196.479 94.7444Z" fill="#0B1411"/>
<path fill-rule="evenodd" clip-rule="evenodd" d="M201.756 94.4836C201.945 94.8492 201.802 95.2989 201.437 95.488C195.654 98.4789 191.233 102.053 188.257 104.878C186.77 106.29 185.647 107.514 184.897 108.382C184.522 108.815 184.241 109.16 184.055 109.394C183.961 109.511 183.892 109.601 183.847 109.661C183.824 109.69 183.807 109.712 183.796 109.727L183.785 109.742L183.782 109.746C183.782 109.746 183.782 109.746 183.782 109.746C183.782 109.746 183.782 109.746 183.182 109.304L182.582 108.862C182.338 109.194 182.409 109.66 182.74 109.904C183.072 110.148 183.538 110.077 183.782 109.746M183.182 109.304C182.582 108.862 182.581 108.862 182.582 108.862L182.584 108.859L182.588 108.854L182.604 108.833C182.617 108.815 182.637 108.789 182.662 108.756C182.713 108.689 182.788 108.592 182.887 108.467C183.086 108.217 183.38 107.857 183.769 107.407C184.547 106.507 185.704 105.247 187.231 103.797C190.283 100.899 194.817 97.2337 200.752 94.164C201.117 93.9749 201.567 94.118 201.756 94.4836" fill="#0B1411"/>
<path fill-rule="evenodd" clip-rule="evenodd" d="M234.572 94.3515C234.76 93.9851 235.209 93.8403 235.575 94.0279L235.235 94.6913C235.575 94.0279 235.575 94.028 235.576 94.0282L235.576 94.0285L235.578 94.0296L235.584 94.0328L235.606 94.044C235.624 94.0535 235.65 94.0674 235.684 94.0856C235.752 94.122 235.85 94.1758 235.977 94.2479C236.231 94.3919 236.601 94.6089 237.073 94.9049C238.016 95.4969 239.366 96.4052 241.011 97.6795C244.302 100.228 248.772 104.241 253.525 110.115C253.784 110.435 253.734 110.904 253.414 111.163C253.094 111.422 252.625 111.372 252.366 111.052C247.692 105.276 243.307 101.343 240.099 98.8579C238.495 97.6154 237.185 96.735 236.281 96.1675C235.828 95.8837 235.478 95.6782 235.242 95.5448C235.124 95.4781 235.035 95.4294 234.977 95.3979C234.948 95.3822 234.926 95.3708 234.913 95.3636L234.898 95.356L234.895 95.3546L234.895 95.3545C234.895 95.3544 234.895 95.3544 234.895 95.3544L234.895 95.3545C234.529 95.1667 234.384 94.7178 234.572 94.3515Z" fill="#0B1411"/>
<path fill-rule="evenodd" clip-rule="evenodd" d="M240.271 94.4063C240.428 94.026 240.864 93.8452 241.244 94.0026L240.959 94.6913C241.244 94.0026 241.244 94.0025 241.244 94.0026L241.254 94.0069L241.282 94.0182C241.305 94.0281 241.34 94.0427 241.385 94.0619C241.475 94.1004 241.607 94.1572 241.777 94.2321C242.118 94.3817 242.611 94.6032 243.225 94.8924C244.454 95.4705 246.169 96.3199 248.123 97.407C252.021 99.5765 256.904 102.713 260.745 106.555C261.036 106.846 261.036 107.318 260.745 107.609C260.454 107.9 259.982 107.9 259.691 107.609C255.991 103.908 251.244 100.85 247.398 98.7095C245.48 97.6418 243.795 96.8078 242.59 96.2411C241.989 95.9579 241.507 95.7416 241.177 95.5967C241.013 95.5242 240.886 95.4696 240.8 95.4333C240.758 95.4151 240.726 95.4016 240.705 95.3927L240.681 95.3828L240.674 95.38" fill="#0B1411"/>
<path fill-rule="evenodd" clip-rule="evenodd" d="M236.121 89.966C236.201 89.5624 236.594 89.3006 236.998 89.3813L236.851 90.1122C236.998 89.3813 236.997 89.3813 236.998 89.3813L237.007 89.3833L237.033 89.3884C237.055 89.3929 237.087 89.3996 237.129 89.4084C237.213 89.4262 237.336 89.4526 237.496 89.4882C237.817 89.5594 238.284 89.6671 238.875 89.8138C240.059 90.1073 241.742 90.5574 243.749 91.1854C247.76 92.4403 253.079 94.4106 258.287 97.2702C258.648 97.4683 258.78 97.9214 258.582 98.2823C258.384 98.6431 257.931 98.775 257.57 98.5769C252.476 95.78 247.256 93.8446 243.304 92.608C241.329 91.9902 239.675 91.548 238.517 91.2606C237.937 91.117 237.482 91.0121 237.173 90.9434C237.018 90.909 236.9 90.8836 236.821 90.867C236.782 90.8587 236.752 90.8526 236.733 90.8486L236.711 90.8442L236.705 90.843" fill="#0B1411"/>
<path d="M218.333 75.7015C225.067 75.9708 230.387 78.5971 230.32 81.56C230.185 84.523 217.256 87.7553 217.256 87.7553C217.256 87.7553 205.875 83.6475 206.01 80.6846C206.145 77.7217 211.599 75.4995 218.333 75.7015Z" fill="#CB542F"/>
<path d="M242.71 270.852L237.929 266.61L231.666 239.135L241.7 240.819L242.71 270.852Z" fill="#6A5847"/>
<path d="M16.8525 209.977L23.4518 209.169L26.9535 186.004L16.8525 178.664V209.977Z" fill="#91755D"/>
<path d="M11.7349 205.465V170.247L115.505 235.162L117.727 270.852L111.061 265.936L110.522 240.482L18.0648 183.58L16.8527 209.977L11.7349 205.465Z" fill="#6A5847"/>
<path d="M115.505 235.162H249.983L249.646 270.852H242.71L238.872 243.782L127.694 242.974L123.788 270.852H117.728L115.505 235.162Z" fill="#91755D"/>
<path d="M11.7349 170.247L132.273 172.065L249.983 235.162H115.505L11.7349 170.247Z" fill="#A7907D"/>
<path d="M237.929 218.125L138.737 170.044C136.583 168.63 134.024 167.89 131.465 167.89L23.0479 167.822L118.872 221.492L237.929 218.125Z" fill="#D0D0F3"/>
<path fill-rule="evenodd" clip-rule="evenodd" d="M102.925 170.781L171.016 208.198C171.245 208.314 171.412 208.489 171.496 208.705C171.58 208.92 171.57 209.148 171.492 209.349C171.336 209.753 170.916 210.044 170.387 210.044H118.371L58.9927 172.719L102.925 170.781ZM61.1771 173.296L118.565 209.371H170.387C170.666 209.371 170.819 209.225 170.864 209.106C170.888 209.047 170.886 208.993 170.869 208.949C170.853 208.908 170.812 208.849 170.708 208.797L170.702 208.794L102.766 171.463L61.1771 173.296Z" fill="white"/>
<path fill-rule="evenodd" clip-rule="evenodd" d="M147.14 179.931L178.16 195.878L178.17 195.884C178.468 196.063 178.589 196.395 178.482 196.697C178.376 196.997 178.08 197.182 177.727 197.182H158.737C158.73 197.182 158.722 197.183 158.714 197.183C158.61 197.184 158.431 197.185 158.272 197.055L129.68 181.11L129.675 181.108C129.377 180.929 129.256 180.596 129.363 180.294C129.469 179.994 129.765 179.809 130.118 179.809L146.687 179.809C146.721 179.809 146.795 179.809 146.874 179.822C146.936 179.832 147.043 179.857 147.14 179.931ZM146.729 180.483C146.715 180.482 146.701 180.482 146.684 180.482H130.118C130.057 180.482 130.025 180.497 130.012 180.506C130.007 180.509 130.003 180.512 130.001 180.514C130.004 180.518 130.01 180.523 130.019 180.528L158.673 196.507L158.674 196.509C158.68 196.509 158.686 196.509 158.693 196.509C158.706 196.509 158.72 196.509 158.737 196.509H177.727C177.788 196.509 177.82 196.494 177.833 196.486C177.839 196.482 177.842 196.479 177.844 196.477C177.841 196.474 177.837 196.47 177.83 196.465L146.752 180.488L146.748 180.484C146.743 180.484 146.736 180.483 146.729 180.483Z" fill="white"/>
<path fill-rule="evenodd" clip-rule="evenodd" d="M164.394 205.263H110.859V204.59H164.394V205.263Z" fill="white"/>
<path fill-rule="evenodd" clip-rule="evenodd" d="M103.317 199.809H155.707V200.482H103.317V199.809Z" fill="white"/>
<path fill-rule="evenodd" clip-rule="evenodd" d="M95.0342 194.624H146.28V195.297H95.0342V194.624Z" fill="white"/>
<path fill-rule="evenodd" clip-rule="evenodd" d="M86.4146 189.169H136.381V189.842H86.4146V189.169Z" fill="white"/>
<path fill-rule="evenodd" clip-rule="evenodd" d="M78.4688 184.253H127.357V184.927H78.4688V184.253Z" fill="white"/>
<path fill-rule="evenodd" clip-rule="evenodd" d="M72.8008 180.752L117.784 179.27L117.806 179.943L72.8229 181.425L72.8008 180.752Z" fill="white"/>
<path fill-rule="evenodd" clip-rule="evenodd" d="M161.331 210L94.8667 171.885L95.2017 171.301L161.666 209.416L161.331 210Z" fill="white"/>
<path fill-rule="evenodd" clip-rule="evenodd" d="M87.2636 171.508L149.216 209.421L148.865 209.995L86.9121 172.083L87.2636 171.508Z" fill="white"/>
<path fill-rule="evenodd" clip-rule="evenodd" d="M78.6462 171.913L139.185 209.422L138.83 209.994L78.2915 172.486L78.6462 171.913Z" fill="white"/>
<path fill-rule="evenodd" clip-rule="evenodd" d="M69.0171 172.318L128.478 209.422L128.122 209.993L68.6606 172.889L69.0171 172.318Z" fill="white"/>
<path d="M27.0213 172.603L110.792 225.33C115.708 227.351 120.489 225.196 120.287 223.512L99.9501 75.9036C99.8828 75.2976 99.4788 74.7588 98.8727 74.4221L9.24363 46.4088C7.8295 45.7354 6.28069 46.8802 6.48271 48.429L26.2806 171.324C26.4152 171.863 26.6846 172.267 27.0213 172.603Z" fill="#B1B1EB"/>
<path d="M0.826172 46.611C0.826172 46.611 3.38508 42.84 9.44565 45.8702L97.93 74.0856L92.2061 75.2303L0.826172 46.611Z" fill="#D0D0F3"/>
<path d="M20.6238 172.603L110.792 225.33C112.138 226.34 114.091 225.196 113.822 223.512L93.2833 76.6444C93.216 76.0383 92.8119 75.4996 92.2059 75.1629L2.77879 46.4088C1.36466 45.7354 -0.184157 46.8802 0.0178625 48.429L19.8157 171.324C19.9504 171.863 20.2198 172.267 20.6238 172.603Z" fill="#9193DA"/>
<path d="M236.514 227.351H122.643C120.623 227.351 118.939 225.667 118.939 223.647V221.56C118.939 219.539 120.623 217.856 122.643 217.856H236.514C238.535 217.856 240.218 219.539 240.218 221.56V223.647C240.218 225.667 238.535 227.351 236.514 227.351Z" fill="#B1B1EB"/>
<path d="M141.499 166.654C139.815 166.789 138.132 167.26 136.987 167.866C131.532 170.762 129.378 174.869 127.492 180.324C127.021 181.671 127.155 183.556 128.502 184.162C129.445 184.566 130.455 184.162 131.398 183.826C130.388 185.24 130.724 187.462 132.206 188.472C133.687 189.482 135.909 189.011 136.852 187.529C136.583 188.943 137.93 190.223 139.344 190.425C140.758 190.627 142.172 190.088 143.452 189.415C150.994 185.711 154.428 175.341 148.233 168.876C147.425 168.001 146.482 167.26 145.337 166.923C144.327 166.587 142.913 166.519 141.499 166.654Z" fill="#FFBA94"/>
<path d="M245.673 139.381C245.673 139.381 238.198 136.553 232.542 141.873C226.885 147.193 209.983 160.863 202.643 163.085C195.303 165.307 160.219 181.873 160.219 181.873C160.219 181.873 169.31 189.011 171.599 193.051C171.599 193.051 196.38 191.435 215.572 186.654C234.764 181.873 246.818 172.109 254.629 161.873C262.44 151.637 245.673 139.381 245.673 139.381Z" fill="#DD915F"/>
<path d="M188.502 182.277C193.35 189.348 195.842 177.765 191.06 167.799C187.155 169.482 182.845 171.435 178.67 173.321C181.296 174.735 185.135 177.361 188.502 182.277Z" fill="#875844"/>
<path d="M212.878 157.496C208.905 160.189 205.202 162.344 202.643 163.152C202.306 163.287 201.835 163.422 201.363 163.556C204.461 166.183 208.636 170.223 210.656 174.129C213.754 180.189 219.949 172.109 212.878 157.496Z" fill="#875844"/>
<path d="M229.983 165.779C232.744 173.051 238.265 161.671 229.713 144.432C227.02 146.789 223.451 149.684 219.68 152.58C223.114 155.61 228.097 160.795 229.983 165.779Z" fill="#875844"/>
<path d="M160.219 181.873C160.219 181.873 142.711 188.54 143.788 195.88C144.865 203.22 149.31 200.189 149.31 200.189C149.31 200.189 149.714 206.991 155.034 204.634C155.034 204.634 156.987 208.674 162.374 205.307C167.761 201.94 168.232 200.122 171.667 193.051C174.966 186.048 160.219 181.873 160.219 181.873Z" fill="#FFC4A4"/>
</svg>
