<svg width="400" height="280" viewBox="0 0 400 280" fill="none" xmlns="http://www.w3.org/2000/svg">
<path fill-rule="evenodd" clip-rule="evenodd" d="M86.6968 21.4075C121.931 -1.88081 164.754 26.3131 206.635 31.5883C251.143 37.1944 303.405 18.5816 332.838 52.411C366.314 90.8867 372.215 150.677 350.394 196.821C329.749 240.478 278.382 254.52 231.601 266.492C188.576 277.502 143.065 282.705 105.189 259.573C64.9926 235.024 37.5531 192.728 33.906 145.755C30.2402 98.5421 47.1685 47.534 86.6968 21.4075Z" fill="#DDE5FF"/>
<path d="M106.609 260.99C106.609 260.99 100.619 265.365 100.417 270.951C100.216 276.47 104.254 278.758 106.609 275.057C106.609 275.057 107.148 278.556 110.513 278.355C113.878 278.22 115.762 275.259 115.762 275.259C115.762 275.259 117.31 277.345 120.204 276.672C123.57 275.864 127.675 273.307 127.944 268.192C128.214 263.077 125.858 258.164 122.493 257.154C119.262 256.077 111.119 258.096 106.609 260.99Z" fill="#E6CFC0"/>
<path d="M85.4083 205.398C85.4083 205.398 79.8221 212.869 90.9944 237.098C96.244 248.405 106.272 262.337 106.272 262.337C106.272 262.337 111.118 267.519 123.569 259.644L114.752 234.137C114.752 234.137 112.262 212.734 108.224 206.744C99.0034 193.149 89.7156 195.438 85.4083 205.398Z" fill="#CB9035"/>
<path d="M89.4447 166.228C87.7621 166.969 86.0795 167.709 84.3297 168.449C82.849 169.055 81.301 169.795 80.4934 171.141C79.955 172.016 79.7531 173.093 79.7531 174.17C79.8204 177.266 81.6376 180.025 82.5125 183.054C83.3874 186.015 82.7817 190.053 79.8204 191.063C78.1378 191.669 76.2533 190.996 74.638 190.121C66.9655 185.813 63.062 175.785 65.8887 167.44C67.5713 162.459 71.2056 158.421 75.1765 155.056C78.7435 152.027 82.7817 149.403 87.0218 147.451C90.7234 145.768 95.8384 143.345 100.011 144.355C103.04 145.095 105.059 147.787 105.934 150.614C106.876 153.777 106.27 156.739 103.847 159.094C102.03 160.844 99.6074 161.854 97.3191 162.863C94.7616 163.94 92.0695 165.084 89.4447 166.228Z" fill="#E2A659"/>
<path d="M87.4913 199.745C88.5009 200.351 89.9142 199.745 90.52 198.735C93.414 193.957 90.2507 186.957 85.7415 184.333C85.203 183.996 84.5973 183.727 83.9243 183.592C80.088 182.919 74.5692 185.477 73.4251 189.313C72.6174 192.14 73.4251 195.37 75.7133 197.255C74.6365 197.322 73.4924 197.524 72.8193 198.399C72.2809 199.139 72.4155 200.283 72.9539 201.024C74.3 202.908 76.9921 205.062 79.4823 204.524C80.8284 204.254 81.8379 203.245 82.7128 202.235C83.5878 202.774 84.7992 202.841 85.7415 202.37C86.8183 201.831 87.424 200.822 87.4913 199.745Z" fill="#EBD9CD"/>
<path d="M236.367 144.893C237.174 145.297 237.915 145.836 238.588 146.509C239.261 147.114 239.799 147.922 240.068 148.797C240.674 150.479 240.27 152.364 238.588 154.518C237.444 155.998 236.299 157.075 235.155 158.152C234.55 158.69 234.011 159.094 233.405 159.565C232.8 159.969 232.261 160.373 231.723 160.777C230.579 161.517 229.502 162.19 228.358 162.796C227.214 163.402 226.069 164.007 224.925 164.613C222.57 165.824 220.147 167.036 217.926 168.315C217.657 168.449 217.387 168.651 217.118 168.786C216.849 168.988 216.58 169.122 216.31 169.324C215.772 169.661 215.234 170.065 214.695 170.401C213.686 171.141 212.743 171.814 211.936 172.487C211.936 172.487 211.868 172.555 211.734 172.689C211.599 172.824 211.397 173.026 211.128 173.295C210.59 173.834 209.782 174.641 208.84 175.785C206.955 177.939 204.465 181.304 201.706 185.342C198.946 189.38 195.85 194.361 192.216 199.207C190.399 201.63 188.38 203.985 186.293 206.072C184.207 208.225 181.986 210.11 179.832 211.658C177.813 213.138 174.179 215.359 169.535 217.109C164.891 218.859 159.238 220.071 153.382 220.205C147.527 220.34 141.537 219.263 136.557 217.109C131.576 215.09 127.875 212.129 125.923 210.244C124.509 208.898 123.029 207.014 122.288 204.995C121.885 203.985 121.75 202.976 121.75 202.033C121.817 201.091 122.087 200.216 122.558 199.476C123.433 198.197 125.586 197.12 127.74 196.515C129.961 195.909 132.047 195.64 133.259 196.111C133.663 196.313 133.999 196.515 134.268 196.784C134.538 197.053 134.807 197.389 135.009 197.659C135.816 198.668 136.96 199.812 138.441 200.822C139.922 201.831 141.739 202.706 143.825 203.379C145.912 204.052 148.335 204.389 150.825 204.456C153.315 204.456 155.94 204.254 158.497 203.581C159.776 203.312 160.988 202.908 162.266 202.505C163.478 202.033 164.689 201.562 165.766 200.957C166.304 200.687 166.843 200.351 167.381 200.082C167.92 199.745 168.391 199.476 168.929 199.139C169.939 198.466 170.814 197.793 171.689 197.053C175.188 194.024 177.813 190.525 179.63 187.9C182.323 184.131 184.745 179.891 187.438 175.516C190.13 171.141 193.024 166.632 196.591 162.325C198.341 160.171 200.292 158.017 202.446 155.998C203.523 154.989 204.667 154.046 205.811 153.104C207.023 152.162 208.301 151.22 209.58 150.412C214.83 147.047 220.82 144.557 227.617 143.682C231.454 143.413 234.55 143.884 236.367 144.893Z" fill="#DB9A46"/>
<path d="M236.368 144.893C234.551 143.884 231.455 143.413 227.619 143.884C222.1 144.557 217.052 146.307 212.543 148.797C210.322 150.008 208.168 151.422 206.216 152.97C204.264 154.45 202.515 156.133 200.832 157.748C201.034 157.815 201.236 157.748 201.572 157.681C204.13 157.075 206.687 156.335 209.245 155.594C211.735 154.854 214.293 154.114 216.783 153.373C213.754 155.594 211.264 158.287 209.312 161.181C209.043 161.652 208.774 162.257 209.178 162.594C209.379 162.729 209.649 162.729 209.918 162.729C210.86 162.661 211.802 162.527 212.677 162.257C213.552 162.055 214.36 161.652 215.168 161.248C214.629 161.988 213.821 162.459 213.216 163.132C212.61 163.805 212.206 164.882 212.61 165.757C212.812 166.228 213.283 166.565 213.687 166.834C215.168 167.776 216.783 168.113 218.129 168.18C219.744 167.171 221.561 166.296 223.378 165.353C225.128 164.478 226.878 163.603 228.561 162.661C230.243 161.719 231.859 160.709 233.609 159.431L234.282 158.892C234.483 158.758 234.685 158.556 234.955 158.354C235.358 158.017 235.829 157.614 236.233 157.21C237.108 156.402 237.983 155.46 238.791 154.383C240.473 152.229 240.877 150.345 240.271 148.662C240.002 147.855 239.464 147.047 238.791 146.374C237.916 145.836 237.176 145.23 236.368 144.893Z" fill="#EBD9CD"/>
<path d="M106.067 131.769C100.682 138.634 93.8176 150.345 91.5293 155.796C86.6162 167.642 81.3665 181.371 79.4148 194.092C77.0592 209.369 89.0391 224.041 102.971 226.128C129.017 229.964 137.161 211.052 139.718 200.014C145.91 172.622 134.536 159.363 130.026 144.624C128.209 138.634 125.719 132.308 120.268 129.212C112.73 124.972 110.912 125.577 106.067 131.769Z" fill="#CB9035"/>
<path d="M121.75 138.836C121.75 138.836 128.682 162.863 129.691 188.573C130.768 214.282 115.221 223.839 100.482 219.801C86.2138 215.898 82.5122 202.437 85.5408 186.89C90.3866 161.921 104.453 137.625 104.453 137.625L121.75 138.836Z" fill="#E6CFC0"/>
<path d="M125.789 262.27C125.789 262.27 119.799 266.644 119.597 272.23C119.395 277.749 123.433 280.038 125.789 276.336C125.789 276.336 126.327 279.836 129.693 279.634C133.058 279.432 134.942 276.538 134.942 276.538C134.942 276.538 136.49 278.624 139.384 277.951C142.749 277.144 144.97 274.586 145.24 269.471C145.509 264.356 144.365 261.26 141.067 260.251C137.836 259.241 130.298 259.376 125.789 262.27Z" fill="#EBD9CD"/>
<path d="M110.309 220.744C110.309 220.744 112.866 233.8 115.962 242.011C120.337 253.655 123.635 264.288 123.635 264.288C123.635 264.288 131.778 269.673 141.201 260.25L138.98 234.81C138.98 234.81 143.893 211.321 138.778 206.139C126.057 193.351 130.634 215.898 110.309 220.744Z" fill="#E2A659"/>
<path d="M130.096 147.855C126.125 149.806 126.933 155.258 129.894 158.421C136.624 165.757 143.22 176.256 136.961 186.15C142.48 187.025 148.941 190.457 151.768 195.303C154.796 191.4 157.354 188.236 158.902 183.592C160.517 178.881 159.709 172.622 158.498 167.844C157.623 164.411 155.2 161.584 152.912 158.96C150.287 155.998 147.056 153.575 143.624 151.624C140.528 149.874 135.48 146.71 131.846 147.383C131.173 147.383 130.567 147.585 130.096 147.855Z" fill="#E2A659"/>
<path d="M136.961 186.083C136.961 186.083 128.75 194.765 129.895 200.216C131.106 205.668 134.135 204.322 134.135 204.322C134.135 204.322 134.538 207.35 137.702 208.023C140.932 208.764 141.201 207.889 141.201 207.889C141.201 207.889 144.499 211.658 146.653 209.706C148.807 207.754 147.797 204.928 144.499 204.053C144.499 204.053 154.191 197.524 151.633 192.477C146.855 182.852 136.961 186.083 136.961 186.083Z" fill="#EBD9CD"/>
<path d="M103.512 149.267L105.867 155.055C105.867 155.055 109.434 156.603 113.54 155.796L117.645 150.95C117.645 150.95 114.953 143.21 109.838 143.21C104.79 143.143 103.512 149.267 103.512 149.267Z" fill="#CB542F"/>
<path d="M105.932 155.055C105.932 155.055 99.4711 177.063 98.125 182.784C98.125 182.784 99.4711 189.514 104.788 196.447C104.788 196.447 114.48 189.38 115.489 185.005C116.499 180.63 113.537 155.863 113.537 155.863C113.537 155.863 110.374 153.844 105.932 155.055Z" fill="#CB542F"/>
<path d="M95.6367 144.489L102.434 152.969L109.838 143.21L99.3384 137.691L95.6367 144.489Z" fill="white"/>
<path d="M128.277 136.682L109.836 143.21L117.643 155.055L132.382 145.902L128.277 136.682Z" fill="white"/>
<path d="M67.3047 30.6804L131.175 27.7864L192.219 48.5829L128.348 51.8808L67.3047 30.6804Z" fill="#533270"/>
<path d="M131.175 27.7861L131.713 23.2095L68.3142 26.7765L67.3047 30.6801L131.175 27.7861Z" fill="#66487F"/>
<path d="M131.714 23.2095L192.623 45.4194L192.219 48.5826L131.176 27.7861L131.714 23.2095Z" fill="#785D8E"/>
<path d="M95.6406 58.3414L99.275 37.7468C99.275 37.7468 111.928 33.6413 127.946 35.9296C143.964 38.2179 152.108 45.7558 152.108 45.7558L151.771 65.6774C151.771 65.6774 116.437 56.9954 95.6406 58.3414Z" fill="#66487F"/>
<path d="M62.1876 82.0322C62.1876 82.0322 60.5723 35.7278 71.3408 34.7856C79.4171 34.1126 95.5025 51.4767 98.5984 61.4375C98.5984 61.4375 73.1579 76.1095 62.1876 82.0322Z" fill="#BB7942"/>
<path d="M91.0598 59.1491C91.0598 59.1491 79.6856 61.0336 68.0422 69.9848C68.0422 69.9848 66.8307 44.679 73.7629 41.8523C77.7338 40.237 88.9061 52.8226 91.0598 59.1491Z" fill="#EBD9CD"/>
<path d="M181.716 99.1271C181.716 99.1271 196.254 55.111 186.226 51.2075C178.688 48.2461 158.362 60.4279 152.574 69.11C152.507 69.1773 172.833 90.3777 181.716 99.1271Z" fill="#BB7942"/>
<path d="M160.383 69.7156C160.383 69.7156 169.671 76.3786 178.353 88.2239C178.353 88.2239 187.842 61.9758 181.987 57.3319C178.555 54.7071 164.219 64.1968 160.383 69.7156Z" fill="#EBD9CD"/>
<path fill-rule="evenodd" clip-rule="evenodd" d="M126.597 59.2166C165.633 64.8027 184.41 86.7435 181.718 99.1272C181.718 99.1272 174.921 118.847 165.633 128.202C152.643 141.191 135.952 146.912 111.387 142.672C88.5712 138.769 74.4376 128.067 66.8324 113.059C60.3713 100.271 62.2558 82.0323 62.2558 82.0323C62.7269 65.6104 87.5617 53.6305 126.597 59.2166Z" fill="#EBD9CD"/>
<mask id="mask0_715_24997" style="mask-type:luminance" maskUnits="userSpaceOnUse" x="62" y="57" width="120" height="88">
<path d="M126.597 59.2166C165.633 64.8027 184.41 86.7435 181.718 99.1272C181.718 99.1272 174.921 118.847 165.633 128.202C152.643 141.191 135.952 146.912 111.387 142.672C88.5712 138.769 74.4376 128.067 66.8324 113.059C60.3713 100.271 62.2558 82.0323 62.2558 82.0323C62.7269 65.6104 87.5617 53.6305 126.597 59.2166Z" fill="white"/>
</mask>
<g mask="url(#mask0_715_24997)">
<path d="M115.83 55.313C117.714 66.9564 113.878 80.3497 113.878 80.3497C113.878 80.3497 97.0521 63.9951 80.0245 76.5807C66.9677 86.205 75.7844 106.396 75.7844 106.396L44.7578 96.0985L49.5363 38.0835C49.469 38.0835 113.878 43.6023 115.83 55.313Z" fill="#E2A659"/>
</g>
<mask id="mask1_715_24997" style="mask-type:luminance" maskUnits="userSpaceOnUse" x="62" y="57" width="120" height="88">
<path d="M126.597 59.2166C165.633 64.8027 184.41 86.7435 181.718 99.1272C181.718 99.1272 174.921 118.847 165.633 128.202C152.643 141.191 135.952 146.912 111.387 142.672C88.5712 138.769 74.4376 128.067 66.8324 113.059C60.3713 100.271 62.2558 82.0323 62.2558 82.0323C62.7269 65.6104 87.5617 53.6305 126.597 59.2166Z" fill="white"/>
</mask>
<g mask="url(#mask1_715_24997)">
<path d="M135.685 60.3605C132.253 69.0426 130.301 82.6378 130.301 82.6378C130.301 82.6378 151.03 71.6674 163.885 88.4931C173.711 101.415 159.645 118.308 159.645 118.308C159.645 118.308 181.518 119.991 192.354 117.164C203.122 114.337 203.997 60.0913 203.997 60.0913C203.997 60.0913 139.117 51.7458 135.685 60.3605Z" fill="#E2A659"/>
</g>
<path d="M150.424 100.608C150.424 102.156 149.145 103.502 147.597 103.502C146.049 103.502 144.703 102.223 144.703 100.675C144.703 99.1271 145.982 97.781 147.53 97.781C149.145 97.781 150.424 99.0598 150.424 100.608Z" fill="white"/>
<path d="M162.74 100.944C162.673 92.195 155.471 85.1282 146.722 85.1955C137.973 85.2628 130.906 92.4642 130.973 101.214C131.04 109.963 138.242 117.03 146.991 116.962C155.741 116.895 162.807 109.694 162.74 100.944Z" fill="#7EAA00"/>
<path d="M109.166 93.2718C109.099 84.5224 101.897 77.4556 93.1478 77.5229C84.3984 77.5902 77.3316 84.7916 77.3989 93.541C77.4662 102.29 84.6676 109.357 93.417 109.29C102.166 109.223 109.233 102.021 109.166 93.2718Z" fill="#7EAA00"/>
<path d="M96.1075 91.4545C96.1075 93.0025 94.8287 94.3485 93.2807 94.3485C91.7328 94.3485 90.3867 93.0698 90.3867 91.5218C90.3867 89.9738 91.6655 88.6278 93.2134 88.6278C94.8287 88.5605 96.1075 89.8392 96.1075 91.4545Z" fill="white"/>
<path d="M142.481 92.3296C147.866 92.2623 152.308 96.637 152.375 102.021C152.442 107.405 148.068 111.847 142.683 111.915C137.299 111.982 132.857 107.607 132.79 102.223C132.723 96.7716 137.097 92.3969 142.481 92.3296Z" fill="#0B1411"/>
<path d="M147.796 102.088C149.344 102.088 150.623 100.81 150.623 99.1944C150.623 97.6464 149.344 96.3677 147.729 96.3677C146.181 96.3677 144.902 97.6464 144.902 99.2617C144.97 100.877 146.248 102.156 147.796 102.088Z" fill="white"/>
<path d="M87.7625 95.762C87.6952 90.3777 92.0699 85.9357 97.4541 85.8684C102.838 85.8011 107.28 90.1758 107.348 95.56C107.415 100.944 103.04 105.386 97.656 105.454C92.2045 105.454 87.8298 101.146 87.7625 95.762ZM93.214 88.6279C91.6661 88.6279 90.3873 89.9066 90.3873 91.5219C90.3873 93.0698 91.6661 94.3486 93.2813 94.3486C94.8293 94.3486 96.108 93.0698 96.108 91.4546C96.108 89.8393 94.8293 88.5605 93.214 88.6279Z" fill="#0B1411"/>
<path d="M117.781 106.597C117.781 106.597 99.2052 103.434 91.9365 113.664C85.5427 122.683 95.84 133.72 113.877 136.278C131.914 138.835 141.404 131.836 141.875 121.942C142.212 114.606 125.992 107.809 117.781 106.597Z" fill="white"/>
<path d="M116.233 117.5C116.838 118.241 121.348 123.625 127.539 122.077C127.539 122.077 127.27 126.586 123.636 129.211C123.636 129.211 121.751 125.308 116.165 124.231C110.579 123.154 106.272 126.048 106.272 126.048C104.118 122.817 104.926 119.183 104.926 119.183C104.926 119.183 111.589 121.269 116.233 117.433C116.165 117.366 116.233 117.433 116.233 117.5Z" fill="#0A1311"/>
<path d="M116.164 124.164C121.75 125.308 123.635 129.144 123.635 129.144C121.75 130.49 119.058 131.298 114.952 130.692C110.174 129.952 107.549 128.067 106.203 125.981C106.27 125.981 110.578 123.019 116.164 124.164Z" fill="#CB542F"/>
<path fill-rule="evenodd" clip-rule="evenodd" d="M117.136 111.71C117.472 111.761 117.703 112.076 117.651 112.412L116.709 118.536C116.657 118.873 116.343 119.103 116.007 119.051C115.67 119 115.44 118.685 115.492 118.349L116.434 112.225C116.486 111.888 116.8 111.658 117.136 111.71Z" fill="#0B1411"/>
<path fill-rule="evenodd" clip-rule="evenodd" d="M102.965 110.965C102.966 110.965 102.966 110.965 102.908 111.572L102.965 110.965C103.304 110.997 103.553 111.298 103.521 111.636C103.488 111.975 103.188 112.223 102.849 112.191L102.908 111.578C102.849 112.191 102.85 112.191 102.849 112.191L102.779 112.185L102.57 112.165C102.386 112.148 102.116 112.124 101.768 112.093C101.073 112.031 100.068 111.944 98.835 111.843C96.3679 111.641 92.9843 111.385 89.3178 111.166C81.9603 110.728 73.5417 110.448 69.0683 111.044C68.7312 111.089 68.4215 110.852 68.3766 110.515C68.3316 110.178 68.5685 109.869 68.9056 109.824C73.5181 109.209 82.0598 109.5 89.3911 109.937C93.069 110.156 96.462 110.413 98.9353 110.615C100.172 110.716 101.179 110.804 101.877 110.866C102.226 110.897 102.498 110.922 102.683 110.939L102.893 110.958L102.965 110.965Z" fill="#0B1411"/>
<path fill-rule="evenodd" clip-rule="evenodd" d="M99.4216 113.116C99.4218 113.116 99.422 113.116 99.4087 113.732L99.4216 113.116C99.7616 113.123 100.032 113.405 100.024 113.745C100.017 114.085 99.7354 114.355 99.3954 114.347L99.3928 114.347L99.3835 114.347L99.3447 114.346C99.3099 114.346 99.2575 114.345 99.188 114.344C99.0491 114.343 98.842 114.342 98.5716 114.342C98.0308 114.343 97.2367 114.352 96.2279 114.382C94.2101 114.441 91.3347 114.586 87.9101 114.925C81.0568 115.604 72.0243 117.06 63.2712 120.167C62.9507 120.281 62.5986 120.113 62.4849 119.793C62.3711 119.472 62.5387 119.12 62.8592 119.007C71.7393 115.855 80.8787 114.384 87.7888 113.699C91.2459 113.357 94.1501 113.211 96.1915 113.151C97.2123 113.121 98.0177 113.112 98.569 113.111C98.8446 113.11 99.0567 113.111 99.2005 113.113C99.2724 113.114 99.3272 113.114 99.3643 113.115L99.4066 113.116L99.4177 113.116L99.4216 113.116Z" fill="#0B1411"/>
<path fill-rule="evenodd" clip-rule="evenodd" d="M103.587 116.075C103.631 116.412 103.393 116.721 103.056 116.765C93.8224 117.97 85.9244 120.279 80.3355 122.287C77.5417 123.29 75.3266 124.218 73.812 124.894C73.0548 125.232 72.4729 125.507 72.0814 125.697C71.8857 125.792 71.7376 125.865 71.639 125.915C71.5898 125.94 71.5529 125.958 71.5286 125.971L71.5017 125.985L71.4954 125.988L71.4941 125.989L71.494 125.989C71.4939 125.989 71.4939 125.989 71.4939 125.989M103.587 116.075C103.543 115.738 103.234 115.5 102.897 115.544ZM102.897 115.544C93.5553 116.763 85.5697 119.097 79.9191 121.128ZM79.9191 121.128C77.0931 122.143 74.8494 123.083 73.3101 123.77ZM73.3101 123.77C72.5404 124.113 71.9467 124.394 71.5442 124.589ZM71.5442 124.589C71.3429 124.686 71.1894 124.762 71.0857 124.815ZM71.0857 124.815C71.0338 124.841 70.9944 124.861 70.9676 124.875ZM70.9676 124.875L70.9369 124.89ZM70.9369 124.89L70.9287 124.894ZM70.9287 124.894L70.9265 124.896ZM70.9265 124.896L70.9258 124.896ZM70.9258 124.896C70.9256 124.896 70.9254 124.896 71.2097 125.442Z" fill="#0B1411"/>
<path fill-rule="evenodd" clip-rule="evenodd" d="M131.714 115.634C131.779 115.3 132.101 115.082 132.435 115.146L132.319 115.751L132.203 116.355C131.869 116.291 131.65 115.968 131.714 115.634ZM132.319 115.751C132.203 116.355 132.203 116.355 132.203 116.355L132.272 116.369L132.478 116.409C132.659 116.444 132.926 116.496 133.268 116.564C133.953 116.7 134.941 116.898 136.153 117.148C138.577 117.647 141.896 118.35 145.474 119.169C152.655 120.813 160.805 122.904 164.913 124.726C165.224 124.864 165.588 124.724 165.726 124.413C165.864 124.102 165.723 123.739 165.412 123.601C161.175 121.721 152.903 119.606 145.749 117.969C142.159 117.147 138.832 116.442 136.401 115.941C135.186 115.691 134.195 115.493 133.508 115.356C133.164 115.288 132.896 115.236 132.714 115.2L132.507 115.16L132.435 115.146C132.435 115.146 132.435 115.146 132.319 115.751Z" fill="#0B1411"/>
<path fill-rule="evenodd" clip-rule="evenodd" d="M134.548 118.687C134.636 118.359 134.974 118.164 135.302 118.252L135.143 118.847C135.302 118.252 135.302 118.252 135.302 118.252L135.307 118.253L135.317 118.256L135.358 118.267C135.394 118.277 135.447 118.291 135.516 118.311C135.655 118.35 135.859 118.408 136.124 118.485C136.654 118.641 137.425 118.875 138.397 119.189C140.341 119.819 143.089 120.772 146.31 122.07C152.747 124.663 161.093 128.639 168.686 134.165C168.961 134.365 169.022 134.75 168.821 135.025C168.621 135.3 168.236 135.361 167.961 135.161C160.479 129.716 152.234 125.784 145.85 123.212C142.66 121.927 139.939 120.983 138.018 120.361C137.057 120.05 136.297 119.82 135.777 119.667C135.517 119.591 135.318 119.534 135.184 119.497C135.117 119.478 135.067 119.464 135.033 119.455L134.996 119.445L134.987 119.442L134.984 119.442C134.984 119.442 134.984 119.442 134.984 119.442M134.548 118.687C134.46 119.016 134.656 119.354 134.984 119.442Z" fill="#0B1411"/>
<path fill-rule="evenodd" clip-rule="evenodd" d="M130.34 120.015C130.475 119.703 130.838 119.56 131.15 119.695C139.815 123.452 146.837 127.919 151.693 131.447C154.122 133.212 156.01 134.742 157.293 135.833C157.935 136.379 158.425 136.815 158.756 137.115C158.922 137.265 159.047 137.381 159.132 137.461C159.174 137.5 159.206 137.531 159.228 137.551L159.253 137.575L159.26 137.582L159.262 137.584C159.263 137.584 159.263 137.584 158.836 138.028L159.262 137.584C159.507 137.82 159.515 138.21 159.279 138.455C159.044 138.7 158.654 138.707 158.409 138.472M158.409 138.472L158.408 138.471L158.402 138.466L158.381 138.445C158.361 138.426 158.331 138.398 158.291 138.36C158.21 138.285 158.089 138.173 157.928 138.027C157.607 137.735 157.126 137.308 156.495 136.771C155.234 135.698 153.37 134.187 150.969 132.444C146.168 128.955 139.224 124.538 130.66 120.825C130.348 120.69 130.205 120.327 130.34 120.015" fill="#0B1411"/>
<path d="M119.329 102.627C124.78 103.636 128.886 106.396 128.415 108.818C127.944 111.241 116.973 112.385 116.973 112.385C116.973 112.385 108.156 107.674 108.628 105.251C109.099 102.828 113.877 101.617 119.329 102.627Z" fill="#CB542F"/>
<path d="M240.405 259.375C240.405 259.375 233.877 264.154 233.675 270.144C233.473 276.133 237.847 278.624 240.405 274.585C240.405 274.585 240.943 278.354 244.645 278.22C248.347 278.018 250.366 274.855 250.366 274.855C250.366 274.855 252.048 277.143 255.212 276.403C258.846 275.528 263.355 272.768 263.624 267.182C263.894 261.596 261.336 256.279 257.702 255.135C254.135 254.058 245.318 256.279 240.405 259.375Z" fill="#B4C0C3"/>
<path d="M217.387 199.004C217.387 199.004 211.263 207.148 223.444 233.463C229.098 245.78 240.068 260.923 240.068 260.923C240.068 260.923 245.385 266.576 258.913 257.962L249.221 230.3C249.221 230.3 246.529 207.081 242.155 200.552C232.127 185.678 222.031 188.169 217.387 199.004Z" fill="#506C74"/>
<path d="M223.446 160.305C217.456 161.517 211.668 162.391 205.274 162.661C202.447 162.795 199.62 162.93 196.726 162.997C194.842 163.065 194.169 166.093 192.554 165.151C183.535 159.969 195.717 146.239 200.091 143.749C208.168 139.037 216.917 135.47 226.003 133.115C228.426 132.509 230.916 131.971 233.339 132.576C236.637 133.384 238.858 136.278 239.733 139.374C240.81 143.008 239.262 145.431 238.993 148.931C238.589 154.517 234.887 157.882 229.839 158.959C227.686 159.43 225.532 159.901 223.446 160.305Z" fill="#637C83"/>
<path d="M372.049 115.683C372.79 116.491 373.463 117.501 374.001 118.51C374.472 119.587 374.809 120.664 374.809 121.808C374.809 124.029 373.597 126.115 370.771 127.933C369.828 128.538 368.886 129.077 367.944 129.548C367.002 130.019 366.059 130.355 365.117 130.692C363.233 131.365 361.415 131.769 359.666 132.105C356.166 132.778 352.868 133.048 349.772 133.451C348.964 133.519 348.224 133.653 347.484 133.788C347.08 133.855 346.743 133.922 346.34 133.99C345.936 134.057 345.599 134.124 345.263 134.192C344.926 134.259 344.522 134.326 344.186 134.394C343.849 134.461 343.446 134.596 343.109 134.663L342.571 134.797L342.032 134.999C341.696 135.134 341.359 135.201 340.955 135.269C338.196 136.211 335.773 137.355 334.09 138.499C334.09 138.499 334.023 138.566 333.889 138.701C333.754 138.836 333.552 139.037 333.283 139.307C333.014 139.576 332.677 139.845 332.408 140.249C332.139 140.653 331.668 141.057 331.398 141.595C331.196 141.864 331.062 142.133 330.86 142.403C330.725 142.672 330.523 143.008 330.389 143.278C330.187 143.547 330.052 143.883 329.918 144.22C329.783 144.556 329.581 144.893 329.514 145.297C329.447 145.7 329.245 146.037 329.177 146.441C329.11 146.845 329.043 147.248 328.908 147.652C328.774 148.527 328.639 149.537 328.639 150.614C328.572 152.835 328.908 155.594 329.447 158.69C329.716 160.238 330.052 161.92 330.389 163.738C330.725 165.555 331.062 167.439 331.398 169.391C332.004 173.295 332.475 177.333 332.475 181.438C332.475 185.544 332.071 189.717 330.995 193.62C330.523 195.437 329.648 197.927 328.101 200.821C327.697 201.562 327.226 202.235 326.754 203.042C326.485 203.446 326.283 203.783 326.014 204.187C325.745 204.59 325.408 204.927 325.139 205.331C324.533 206.071 323.928 206.811 323.255 207.552C322.514 208.225 321.774 208.965 321.034 209.638L320.428 210.177C320.226 210.311 320.024 210.513 319.822 210.648C319.418 210.984 319.015 211.253 318.543 211.59C318.14 211.926 317.669 212.196 317.265 212.532C316.794 212.869 316.39 213.071 315.986 213.34C314.236 214.417 312.352 215.292 310.4 216.099C306.496 217.58 302.324 218.589 298.285 218.859C296.266 219.061 294.18 219.061 292.228 218.993C290.209 218.859 288.257 218.724 286.373 218.388C282.604 217.782 279.037 216.705 275.941 215.426C269.614 212.936 264.903 209.504 262.278 207.148C260.394 205.533 258.375 203.177 257.231 200.552C256.154 197.927 255.952 195.235 257.163 193.351C258.24 191.668 260.932 190.322 263.624 189.582C264.97 189.178 266.384 188.909 267.528 188.842C268.739 188.707 269.749 188.774 270.557 189.043C271.095 189.245 271.432 189.582 271.835 189.918C272.172 190.255 272.508 190.659 272.845 191.063C273.989 192.341 275.537 193.822 277.623 195.101C279.642 196.447 282.133 197.591 284.959 198.399C287.719 199.206 290.815 199.677 293.911 199.61C297.007 199.543 300.103 198.937 302.795 197.793C303.468 197.524 304.141 197.187 304.746 196.783C305.083 196.649 305.352 196.447 305.689 196.245L306.16 195.976L306.564 195.639C307.035 195.235 307.64 194.832 307.977 194.428L308.65 193.755C308.852 193.485 308.987 193.284 309.188 193.014C309.592 192.611 309.794 192.005 310.131 191.534L310.265 191.332L310.333 191.13L310.534 190.726C310.669 190.457 310.804 190.188 310.871 189.918C311.275 188.774 311.611 187.563 311.746 186.217C312.082 183.592 312.015 180.833 311.746 178.208C311.477 175.583 311.073 173.16 310.669 171.074C309.525 165.151 307.506 158.286 307.371 150.142C307.371 148.123 307.439 146.037 307.775 143.883C307.977 142.806 308.179 141.73 308.381 140.653C308.65 139.576 308.987 138.566 309.256 137.49C310.669 133.317 312.755 129.413 315.448 125.981C320.832 119.116 328.168 114.135 336.379 111.376C340.484 110.03 344.859 109.222 349.301 109.088C351.522 109.02 353.743 109.088 355.964 109.357C358.185 109.626 360.339 110.03 362.492 110.568C367.002 111.78 370.367 113.732 372.049 115.683Z" fill="#637C83"/>
<path d="M372.048 115.683C370.298 113.731 367 111.78 362.087 110.501C358.587 109.559 354.953 109.088 351.386 109.02C349.569 109.02 347.751 109.02 346.002 109.222L343.309 109.559C342.434 109.693 341.56 109.895 340.685 110.097C337.252 110.905 333.887 111.982 330.724 113.53C327.561 115.078 324.599 116.827 321.84 119.048C322.109 119.116 322.446 119.116 322.917 118.981C330.32 117.568 337.387 117.029 344.386 117.029C339.608 118.645 335.502 121.269 332.272 124.433C331.733 124.904 331.262 125.711 331.733 126.182C331.935 126.452 332.272 126.452 332.608 126.519C333.214 126.586 333.82 126.654 334.358 126.654C334.627 126.654 334.964 126.654 335.233 126.654C335.502 126.654 335.839 126.654 336.108 126.654C336.714 126.586 337.252 126.519 337.791 126.452C338.329 126.384 338.935 126.25 339.406 126.115C338.935 126.519 338.464 126.788 337.925 126.99C337.454 127.259 336.916 127.529 336.445 127.865C335.973 128.202 335.57 128.673 335.3 129.211C335.031 129.75 334.964 130.288 335.166 130.894C335.368 131.499 335.772 132.038 336.243 132.442C337.05 133.249 337.858 133.788 338.666 134.259C339.473 134.797 340.281 135.066 341.088 135.336C343.175 134.663 345.396 134.192 347.617 133.855C349.838 133.451 352.193 133.249 354.684 132.913C355.895 132.778 357.174 132.576 358.453 132.374C359.731 132.172 361.077 131.903 362.423 131.567C365.116 130.894 367.942 129.884 370.836 128C373.663 126.182 374.942 124.096 374.874 121.875C374.874 120.731 374.538 119.654 374.067 118.577C373.461 117.5 372.788 116.491 372.048 115.683Z" fill="#C6CFD1"/>
<path d="M239.802 118.981C233.947 126.452 226.476 139.172 223.986 145.095C218.602 157.95 212.948 172.891 210.795 186.688C208.237 203.245 221.294 219.263 236.37 221.484C264.704 225.656 273.588 205.062 276.28 193.149C283.078 163.401 270.627 148.999 265.781 132.98C263.829 126.519 261.07 119.587 255.215 116.222C247.071 111.578 245.119 112.251 239.802 118.981Z" fill="#506C74"/>
<path d="M256.894 126.721C256.894 126.721 264.432 152.835 265.576 180.766C266.72 208.696 249.894 219.128 233.809 214.686C218.262 210.446 214.224 195.774 217.522 178.948C222.771 151.825 238.049 125.443 238.049 125.443L256.894 126.721Z" fill="#B4C0C3"/>
<path d="M261.268 260.788C261.268 260.788 254.74 265.567 254.538 271.557C254.336 277.547 258.711 280.037 261.268 275.999C261.268 275.999 261.807 279.768 265.508 279.633C269.21 279.431 271.229 276.268 271.229 276.268C271.229 276.268 272.912 278.556 276.075 277.816C279.709 276.941 282.199 274.182 282.469 268.596C282.738 263.009 281.526 259.712 277.892 258.567C274.325 257.491 266.114 257.692 261.268 260.788Z" fill="#C6CFD1"/>
<path d="M244.375 215.696C244.375 215.696 247.134 229.896 250.5 238.78C255.278 251.433 258.778 263.009 258.778 263.009C258.778 263.009 267.662 268.865 277.892 258.635L275.469 230.973C275.469 230.973 280.786 205.398 275.267 199.812C261.537 185.88 266.518 210.379 244.375 215.696Z" fill="#637C83"/>
<path d="M265.913 136.48C265.913 136.48 258.645 140.317 265.644 147.922C272.576 155.46 274.192 158.421 275.201 162.796C276.143 167.17 271.163 179.218 271.163 179.218C271.163 179.218 284.152 176.997 286.979 185.14C286.979 185.14 292.565 177.872 295.998 165.421C299.43 152.97 277.153 133.115 265.913 136.48Z" fill="#637C83"/>
<path d="M273.788 176.458C270.355 178.881 269.279 182.785 268.471 186.688C267.798 189.65 267.596 194.698 270.692 196.515C272.105 197.322 274.192 197.053 275.067 195.64C275.47 197.255 276.951 198.466 278.566 198.534C280.182 198.601 281.797 197.524 282.335 195.976C283.21 197.12 284.893 197.592 286.306 197.188C287.72 196.851 288.931 195.707 289.537 194.428C290.075 193.351 290.277 192.073 289.671 191.063C289.133 190.054 287.652 189.515 286.71 190.256C289.402 185.275 289.2 178.881 283.749 175.853C280.787 174.17 276.884 174.305 274.057 176.189C274.057 176.257 273.922 176.391 273.788 176.458Z" fill="#C6CFD1"/>
<path d="M237.105 138.029L239.663 144.288C239.663 144.288 243.499 145.971 248.009 145.096L252.451 139.846C252.451 139.846 249.489 131.5 243.97 131.433C238.384 131.366 237.105 138.029 237.105 138.029Z" fill="#CB542F"/>
<path d="M239.664 144.288C239.664 144.288 232.664 168.247 231.184 174.439C231.184 174.439 232.664 181.708 238.452 189.246C238.452 189.246 249.019 181.573 250.096 176.795C251.173 172.016 248.009 145.095 248.009 145.095C248.009 145.095 244.51 143.009 239.664 144.288Z" fill="#CB542F"/>
<path d="M228.492 132.779L235.895 141.999L243.972 131.433L232.53 125.375L228.492 132.779Z" fill="white"/>
<path d="M263.962 124.299L243.973 131.433L252.453 144.288L268.404 134.327L263.962 124.299Z" fill="white"/>
<path d="M197.734 9.14321L267.124 5.97998L333.417 28.5937L264.028 32.1608L197.734 9.14321Z" fill="#533270"/>
<path d="M267.124 5.98016L267.729 0.999756L198.811 4.90332L197.734 9.14339L267.124 5.98016Z" fill="#66487F"/>
<path d="M267.731 0.999512L333.822 25.0939L333.418 28.5937L267.125 5.97992L267.731 0.999512Z" fill="#785D8E"/>
<path d="M228.492 39.1601L232.396 16.7482C232.396 16.7482 246.193 12.3062 263.557 14.7964C280.988 17.2866 289.805 25.4976 289.805 25.4976L289.401 47.1691C289.469 47.1691 251.039 37.7467 228.492 39.1601Z" fill="#66487F"/>
<path d="M197.598 41.4487C197.598 41.4487 203.049 46.4291 206.684 54.5728L217.519 46.9676L203.655 37.1414L197.598 41.4487Z" fill="#506C74"/>
<path d="M210.59 49.6597C210.59 49.6597 206.484 43.8717 198.879 40.3046C198.879 40.3046 210.724 27.3825 221.695 39.2951L210.59 49.6597Z" fill="#9EACAF"/>
<path d="M234.279 38.6892C234.279 38.6892 219.405 26.5747 212.204 27.1131C205.002 27.6516 194.234 38.6892 193.359 44.1407C192.484 49.5923 213.281 36.1317 213.281 36.1317L220.28 42.7947L234.279 38.6892Z" fill="#506C74"/>
<path d="M320.091 55.7845C320.091 55.7845 313.63 59.3515 308.245 66.4856L299.496 56.5921L315.245 50.2656L320.091 55.7845Z" fill="#506C74"/>
<path d="M305.553 60.7651C305.553 60.7651 310.87 56.0539 319.149 54.3713C319.149 54.3713 310.668 39.0935 297.141 48.1121L305.553 60.7651Z" fill="#9EACAF"/>
<path d="M285.027 44.6121C285.027 44.6121 302.257 36.2665 309.189 38.4875C316.121 40.7085 323.996 53.8998 323.592 59.4187C323.188 64.9375 306.093 47.035 306.093 47.035L297.748 51.8808L285.027 44.6121Z" fill="#506C74"/>
<path d="M317.735 104.041C319.148 94.4162 316.927 83.3785 313.697 74.36C313.159 72.6774 312.485 70.8602 311.611 68.9757C303.534 49.6598 294.919 42.0546 266.383 37.7472C264.97 37.478 263.489 37.2761 262.008 37.1415C261.403 37.0742 260.797 37.0069 260.191 36.9396C259.585 36.8723 258.98 36.805 258.374 36.7377C256.893 36.5358 255.413 36.4685 253.932 36.3339C225.194 33.911 215.098 39.3625 202.715 56.2555C201.436 57.8708 200.359 59.4861 199.417 61.034C194.234 69.0431 189.523 79.3404 188.648 89.032C187.706 95.2238 188.177 101.214 191.138 106.262C200.965 123.222 229.77 129.414 248.077 131.567C266.383 133.721 297.679 134.596 311.207 120.328C315.379 115.953 317.197 110.232 317.735 104.041Z" fill="#637C83"/>
<mask id="mask2_715_24997" style="mask-type:luminance" maskUnits="userSpaceOnUse" x="188" y="35" width="131" height="98">
<path d="M317.735 104.041C319.148 94.4162 316.927 83.3785 313.697 74.36C313.159 72.6774 312.485 70.8602 311.611 68.9757C303.534 49.6598 294.919 42.0546 266.383 37.7472C264.97 37.478 263.489 37.2761 262.008 37.1415C261.403 37.0742 260.797 37.0069 260.191 36.9396C259.585 36.8723 258.98 36.805 258.374 36.7377C256.893 36.5358 255.413 36.4685 253.932 36.3339C225.194 33.911 215.098 39.3625 202.715 56.2555C201.436 57.8708 200.359 59.4861 199.417 61.034C194.234 69.0431 189.523 79.3404 188.648 89.032C187.706 95.2238 188.177 101.214 191.138 106.262C200.965 123.222 229.77 129.414 248.077 131.567C266.383 133.721 297.679 134.596 311.207 120.328C315.379 115.953 317.197 110.232 317.735 104.041Z" fill="white"/>
</mask>
<g mask="url(#mask2_715_24997)">
<path d="M254.201 85.6667C254.201 85.6667 224.318 81.2247 212.81 100.002C202.647 116.626 219.473 135.673 248.48 139.038C277.488 142.47 292.698 129.279 293.236 111.444C293.708 98.3196 267.459 87.2819 254.201 85.6667Z" fill="#C6CFD1"/>
</g>
<mask id="mask3_715_24997" style="mask-type:luminance" maskUnits="userSpaceOnUse" x="188" y="35" width="131" height="98">
<path d="M317.735 104.041C319.148 94.4162 316.927 83.3785 313.697 74.36C313.159 72.6774 312.485 70.8602 311.611 68.9757C303.534 49.6598 294.919 42.0546 266.383 37.7472C264.97 37.478 263.489 37.2761 262.008 37.1415C261.403 37.0742 260.797 37.0069 260.191 36.9396C259.585 36.8723 258.98 36.805 258.374 36.7377C256.893 36.5358 255.413 36.4685 253.932 36.3339C225.194 33.911 215.098 39.3625 202.715 56.2555C201.436 57.8708 200.359 59.4861 199.417 61.034C194.234 69.0431 189.523 79.3404 188.648 89.032C187.706 95.2238 188.177 101.214 191.138 106.262C200.965 123.222 229.77 129.414 248.077 131.567C266.383 133.721 297.679 134.596 311.207 120.328C315.379 115.953 317.197 110.232 317.735 104.041Z" fill="white"/>
</mask>
<g mask="url(#mask3_715_24997)">
<path d="M234.281 87.6857C234.281 87.6857 250.232 76.1096 255.616 58.5435C256.087 56.9283 257.703 55.8514 259.385 56.0533C261.068 56.2552 262.347 57.6013 262.481 59.2166C263.154 66.5526 266.654 86.0031 276.817 93.8775C276.817 93.8775 269.211 97.8484 253.261 95.9639C237.31 94.1467 234.281 87.6857 234.281 87.6857Z" fill="#C6CFD1"/>
</g>
<path d="M252.79 97.6463C253.463 98.454 259.857 104.377 266.587 102.492C266.587 102.492 265.443 110.03 261.54 112.991C261.54 112.991 258.713 108.751 252.521 107.674C246.396 106.598 241.079 109.895 241.079 109.895C238.657 106.396 239.06 99.6654 239.06 99.6654C239.06 99.6654 247.742 101.886 252.656 97.6463C252.723 97.5117 252.723 97.579 252.79 97.6463Z" fill="#0A1311"/>
<path d="M252.52 107.607C258.644 108.684 261.538 112.924 261.538 112.924C259.788 115.145 255.75 116.693 251.308 116.087C246.059 115.414 242.424 112.722 241.078 109.761C241.078 109.828 246.395 106.53 252.52 107.607Z" fill="#CB542F"/>
<path d="M289.672 78.263C289.739 80.0129 288.393 81.4262 286.643 81.4935C284.961 81.5608 283.48 80.2148 283.413 78.4649C283.345 76.715 284.691 75.3017 286.441 75.2344C288.191 75.167 289.604 76.5131 289.672 78.263Z" fill="white"/>
<path d="M303.063 78.263C302.726 68.706 294.717 61.2354 285.16 61.5046C275.603 61.8411 268.132 69.8502 268.402 79.4072C268.738 88.9642 276.747 96.4348 286.304 96.1656C295.928 95.829 303.399 87.82 303.063 78.263Z" fill="#EAC652"/>
<path d="M244.309 71.3309C243.972 61.7739 235.963 54.3033 226.406 54.5725C216.849 54.909 209.378 62.918 209.648 72.475C209.984 82.032 217.993 89.5699 227.55 89.2334C237.175 88.9642 244.645 80.9552 244.309 71.3309Z" fill="#EAC652"/>
<path d="M230.039 69.7156C230.106 71.4655 228.76 72.8788 227.01 72.9462C225.26 73.0135 223.847 71.6674 223.78 69.9175C223.712 68.1677 225.059 66.7543 226.808 66.687C228.558 66.6197 229.972 67.9657 230.039 69.7156Z" fill="white"/>
<path d="M280.718 69.3791C286.64 69.1772 291.553 73.8211 291.755 79.6765C291.957 85.5991 287.313 90.5122 281.458 90.7141C275.535 90.916 270.622 86.2721 270.42 80.4168C270.218 74.5615 274.862 69.5811 280.718 69.3791Z" fill="#0B1411"/>
<path d="M286.842 79.9459C288.592 79.8786 289.938 78.4652 289.871 76.7154C289.804 74.9655 288.39 73.6194 286.64 73.6867C284.891 73.754 283.544 75.1674 283.612 76.9173C283.679 78.6672 285.092 80.0132 286.842 79.9459Z" fill="white"/>
<path d="M221.022 74.6961C220.82 68.7735 225.464 63.8604 231.319 63.6584C237.242 63.4565 242.155 68.1004 242.357 73.9558C242.559 79.8784 237.915 84.7915 232.06 84.9934C226.204 85.1953 221.224 80.5514 221.022 74.6961ZM226.81 66.6871C225.127 66.7544 223.714 68.1677 223.781 69.9176C223.849 71.6675 225.262 73.0135 227.012 72.9462C228.762 72.8789 230.108 71.4656 230.041 69.7157C229.973 67.9658 228.56 66.6198 226.81 66.6871Z" fill="#0B1411"/>
<path fill-rule="evenodd" clip-rule="evenodd" d="M253.541 91.2578C253.91 91.3021 254.174 91.6372 254.129 92.0062L253.322 98.7365C253.278 99.1055 252.942 99.3688 252.573 99.3245C252.204 99.2803 251.941 98.9452 251.985 98.5761L252.793 91.8458C252.837 91.4768 253.172 91.2135 253.541 91.2578Z" fill="#0B1411"/>
<path fill-rule="evenodd" clip-rule="evenodd" d="M238.068 90.8495C238.069 90.8495 238.069 90.8495 238.048 91.5222C238.027 92.1949 238.027 92.1949 238.027 92.1949L237.681 92.1847C237.454 92.1782 237.12 92.1688 236.689 92.1573C235.829 92.1343 234.588 92.103 233.063 92.07C230.012 92.0037 225.828 91.9302 221.294 91.9008C212.207 91.8418 201.77 91.961 196.202 92.6611C195.834 92.7075 195.497 92.4461 195.451 92.0773C195.404 91.7085 195.666 91.3719 196.034 91.3256C201.706 90.6123 212.235 90.4959 221.302 90.5548C225.846 90.5842 230.037 90.6579 233.092 90.7242C234.619 90.7574 235.863 90.7887 236.725 90.8117C237.156 90.8232 237.492 90.8327 237.72 90.8392L238.068 90.8495ZM238.721 91.5429C238.709 91.9144 238.399 92.2063 238.027 92.1949L238.048 91.5222L238.068 90.8495C238.44 90.8609 238.732 91.1713 238.721 91.5429Z" fill="#0B1411"/>
<path fill-rule="evenodd" clip-rule="evenodd" d="M234.044 94.6862C234.415 94.6675 234.731 94.9533 234.75 95.3245C234.769 95.6958 234.483 96.0119 234.112 96.0305L234.078 95.3583L234.044 94.6862ZM234.044 94.6862C234.044 94.6862 234.044 94.6862 234.078 95.3583C234.112 96.0305 234.112 96.0305 234.112 96.0305L234.013 96.0356C233.947 96.039 233.849 96.0442 233.72 96.0512C233.463 96.065 233.083 96.086 232.595 96.1142C231.619 96.1708 230.21 96.2566 228.476 96.3737C225.008 96.6079 220.245 96.9671 215.062 97.4669C204.669 98.4692 192.681 100.029 186.035 102.256C185.683 102.374 185.302 102.184 185.183 101.831C185.065 101.479 185.255 101.097 185.608 100.979C192.423 98.6964 204.563 97.127 214.933 96.127C220.132 95.6257 224.908 95.2655 228.385 95.0307C230.124 94.9133 231.538 94.8272 232.517 94.7704C233.007 94.7421 233.388 94.721 233.647 94.707C233.777 94.7001 233.876 94.6949 233.943 94.6914L234.044 94.6862Z" fill="#0B1411"/>
<path fill-rule="evenodd" clip-rule="evenodd" d="M238.913 96.4489C238.979 96.8146 238.737 97.165 238.371 97.2317C227.326 99.2462 217.975 101.63 211.388 103.51C208.095 104.449 205.492 105.263 203.715 105.841C202.826 106.13 202.144 106.361 201.684 106.518C201.454 106.597 201.28 106.658 201.164 106.699C201.106 106.719 201.062 106.735 201.033 106.745L201.001 106.756L200.991 106.76L200.763 106.127C200.535 105.493 200.535 105.493 200.536 105.493L200.548 105.489L200.582 105.477C200.613 105.466 200.658 105.45 200.718 105.429C200.837 105.387 201.014 105.325 201.247 105.245C201.713 105.085 202.403 104.853 203.298 104.561C205.09 103.978 207.708 103.16 211.019 102.215C217.639 100.326 227.033 97.9313 238.13 95.9075C238.496 95.8408 238.846 96.0832 238.913 96.4489ZM200.13 106.354C200.004 106.005 200.186 105.619 200.536 105.493L200.763 106.127L200.991 106.76C200.641 106.886 200.255 106.704 200.13 106.354Z" fill="#0B1411"/>
<path fill-rule="evenodd" clip-rule="evenodd" d="M269.76 95.2225C269.835 94.8585 270.191 94.6241 270.555 94.699L270.419 95.3582L270.284 96.0174C269.92 95.9425 269.685 95.5866 269.76 95.2225ZM270.419 95.3582C270.284 96.0174 270.283 96.0174 270.284 96.0174L270.623 96.0877C270.845 96.1339 271.173 96.2023 271.594 96.2907C272.437 96.4676 273.652 96.7247 275.143 97.0457C278.127 97.6877 282.214 98.5851 286.631 99.6062C295.482 101.653 305.6 104.184 310.833 106.151C311.181 106.282 311.569 106.106 311.7 105.758C311.831 105.41 311.655 105.022 311.307 104.891C305.974 102.887 295.766 100.337 286.934 98.2948C282.509 97.2716 278.414 96.3728 275.427 95.7298C273.933 95.4083 272.715 95.1506 271.871 94.9734C271.449 94.8847 271.12 94.8162 270.897 94.7698L270.555 94.699C270.555 94.699 270.555 94.699 270.419 95.3582Z" fill="#0B1411"/>
<path fill-rule="evenodd" clip-rule="evenodd" d="M272.804 99.8138C272.909 99.457 273.282 99.2521 273.639 99.3562L273.451 100.002L273.262 100.648C272.905 100.544 272.7 100.171 272.804 99.8138ZM273.451 100.002C273.262 100.648 273.262 100.648 273.262 100.648L273.357 100.676C273.421 100.695 273.515 100.723 273.638 100.759C273.885 100.832 274.25 100.94 274.718 101.081C275.654 101.362 277.006 101.772 278.666 102.287C281.986 103.317 286.537 104.768 291.463 106.452C301.343 109.83 312.644 114.115 318.593 117.804C318.908 118 319.323 117.902 319.519 117.587C319.715 117.271 319.618 116.856 319.302 116.66C313.203 112.878 301.756 108.548 291.899 105.179C286.957 103.489 282.393 102.034 279.065 101.001C277.4 100.485 276.045 100.074 275.105 99.7916C274.635 99.6506 274.269 99.5419 274.02 99.4683C273.896 99.4315 273.801 99.4036 273.736 99.3848L273.639 99.3562C273.639 99.3561 273.639 99.3562 273.451 100.002Z" fill="#0B1411"/>
<path fill-rule="evenodd" clip-rule="evenodd" d="M268.525 99.934C268.675 99.5935 269.071 99.4384 269.412 99.5875C279.734 104.107 288.318 108.61 294.323 111.984C297.326 113.671 299.685 115.076 301.294 116.06C302.098 116.552 302.715 116.939 303.132 117.203C303.341 117.335 303.499 117.437 303.605 117.505C303.659 117.54 303.699 117.566 303.726 117.584L303.757 117.604L303.765 117.609L303.767 117.61L303.768 117.611C303.768 117.611 303.768 117.611 303.399 118.174L303.768 117.611C304.079 117.814 304.166 118.232 303.962 118.543C303.758 118.854 303.341 118.94 303.03 118.737L303.078 118.664C303.03 118.737 303.03 118.737 303.03 118.737L303.021 118.731L302.992 118.712C302.967 118.695 302.928 118.67 302.876 118.637C302.772 118.57 302.617 118.47 302.411 118.34C302.001 118.079 301.389 117.696 300.591 117.208C298.995 116.232 296.651 114.836 293.664 113.158C287.689 109.801 279.145 105.319 268.872 100.82C268.531 100.671 268.376 100.274 268.525 99.934Z" fill="#0B1411"/>
<path d="M255.749 81.2921C261.739 82.2343 266.249 85.1283 265.845 87.7532C265.441 90.4453 253.461 91.9259 253.461 91.9259C253.461 91.9259 243.702 87.0128 244.106 84.388C244.577 81.7632 249.759 80.3498 255.749 81.2921Z" fill="#CB542F"/>
<path d="M227.684 193.823L197.734 178.41L199.888 172.084L229.03 188.775L227.684 193.823Z" fill="#428B75"/>
<path d="M213.89 134.192L239.667 149.403L228.764 192.409L200.766 174.776L207.832 135.808L213.89 134.192Z" fill="#D0D2EA"/>
<path d="M229.905 153.374L218.868 196.851L193.898 181.506L205.205 137.827L229.905 153.374Z" fill="#3B76DB"/>
<path d="M215.03 136.817L238.654 150.412L230.241 153.104L210.117 137.827C210.117 137.827 212.742 136.346 215.03 136.817Z" fill="white"/>
<path d="M238.655 150.412L227.887 192.88C227.887 192.88 222.637 192.948 218.801 196.851L230.175 153.104C234.213 151.085 234.079 151.153 238.655 150.412Z" fill="#EDEDF7"/>
<path d="M229.905 153.374L205.205 137.827C205.205 137.827 202.648 136.01 208.166 134.192C213.685 132.375 215.772 133.99 215.772 133.99L241.279 149.605L239.328 149.941C237.174 149.47 217.589 135.875 214.358 135.135C212.743 134.798 212.406 134.865 210.858 135.404C209.916 135.74 207.897 136.144 208.57 137.086C209.647 138.769 231.117 152.095 231.588 152.23L229.905 153.374Z" fill="#6094E4"/>
<path d="M241.279 149.604L229.03 193.149L227.684 193.822L239.327 149.941L241.279 149.604Z" fill="#3B6DC3"/>
<path d="M231.587 152.162L229.905 153.374L218.867 196.851L220.55 196.448L231.587 152.162Z" fill="#3B6DC3"/>
<path fill-rule="evenodd" clip-rule="evenodd" d="M215.961 139.164C216.078 138.97 216.329 138.907 216.523 139.024L235.973 150.735C236.13 150.829 236.205 151.015 236.158 151.192L232.725 163.979C232.667 164.197 232.442 164.327 232.224 164.268C232.005 164.21 231.876 163.985 231.934 163.767L235.287 151.277L216.101 139.725C215.907 139.609 215.844 139.357 215.961 139.164Z" fill="#D0D2EA"/>
<path fill-rule="evenodd" clip-rule="evenodd" d="M229.204 173.101C229.423 173.159 229.553 173.384 229.495 173.602L224.043 194.13C223.985 194.348 223.761 194.478 223.543 194.42C223.324 194.362 223.194 194.138 223.252 193.919L228.704 173.392C228.762 173.174 228.986 173.043 229.204 173.101Z" fill="#D0D2EA"/>
<path d="M205.61 137.894L193.899 181.506C193.899 181.506 193.024 181.237 193.159 179.487L204.735 137.086C204.802 137.086 205.004 137.288 205.61 137.894Z" fill="#3B6DC3"/>
<path fill-rule="evenodd" clip-rule="evenodd" d="M229.203 179.966C229.421 180.023 229.552 180.247 229.495 180.466L226.13 193.321C226.072 193.539 225.849 193.67 225.63 193.613C225.411 193.556 225.28 193.332 225.338 193.113L228.703 180.258C228.76 180.04 228.984 179.909 229.203 179.966Z" fill="#D0D2EA"/>
<path d="M189.926 155.729C190.33 154.652 190.801 153.643 191.542 152.633C192.686 151.018 194.368 149.604 196.32 149.604C197.935 149.604 199.483 150.614 200.56 151.825C201.637 153.037 202.445 154.518 203.387 155.864C205.406 158.69 206.146 161.988 209.242 163.738C205.473 165.555 203.252 170.065 203.993 174.17C202.377 174.439 200.762 174.372 199.147 174.103C190.801 172.757 186.898 164.277 189.926 155.729Z" fill="#637C83"/>
<path d="M206.281 162.055C206.281 162.055 213.415 160.305 218.665 162.863C223.914 165.353 218.597 169.795 218.597 169.795C218.597 169.795 221.895 174.372 215.838 175.583C215.838 175.583 216.847 179.285 211.732 179.015C206.617 178.746 200.089 174.237 200.089 174.237C200.089 174.237 196.926 165.622 206.281 162.055Z" fill="#C6CFD1"/>
</svg>
