<svg width="400" height="280" viewBox="0 0 400 280" fill="none" xmlns="http://www.w3.org/2000/svg">
<path d="M141.535 245.861L103.878 242.764L90.5049 274.086L124.361 277.887L141.535 245.861Z" fill="#6973BD"/>
<path d="M121.827 275.986L139.423 246.424C139.423 246.424 138.86 242.975 139.423 239.104L122.671 262.894C122.671 262.894 118.8 270.355 121.827 275.986Z" fill="#D0D2EA"/>
<path d="M124.361 276.268L141.535 245.931C141.535 245.931 143.436 245.65 142.309 248.325L124.994 279.365L124.361 276.268Z" fill="#6269A1"/>
<path d="M139.846 236.64C139.846 236.64 141.887 237.696 140.55 240.089C140.55 240.089 129.077 261.346 126.543 263.458L125.909 260.642L139.846 236.64Z" fill="#6269A1"/>
<path d="M65.0249 255.504L88.6748 232.206L139.846 236.64L125.98 260.642L65.0249 255.504Z" fill="#6973BD"/>
<path d="M124.994 261.487C124.501 261.98 118.94 267.681 122.249 277.394L68.614 271.763C68.614 271.763 62.6312 269.159 64.2501 262.05C65.7986 254.941 72.5557 255.363 72.5557 255.363L124.994 261.487Z" fill="#EDEDF7"/>
<path d="M124.431 262.19C124.431 262.19 72.4857 253.885 67.5586 257.545C62.6315 261.135 66.6436 267.117 66.6436 267.117C65.5174 257.967 72.908 259.234 72.908 259.234L122.671 265.076C123.234 263.739 123.938 262.754 124.431 262.19Z" fill="#D0D2EA"/>
<path d="M127.317 262.331C127.387 261.487 126.824 260.783 125.979 260.642L70.4443 253.603C70.4443 253.603 63.5464 253.111 62.1386 261.064C60.7309 269.018 66.3618 272.96 68.4734 273.664C70.3739 274.297 116.125 278.802 124.079 279.506C124.924 279.576 125.627 278.943 125.768 278.098V277.816C125.839 276.972 125.205 276.198 124.36 276.127L71.7112 270.567C71.7112 270.567 66.0803 270.496 66.7138 262.261C66.7138 262.261 67.0657 256.067 73.0486 256.841C78.3276 257.545 118.166 262.613 125.557 263.528C126.402 263.809 127.176 263.176 127.317 262.331Z" fill="#828FC4"/>
<path fill-rule="evenodd" clip-rule="evenodd" d="M77.1123 263.395C77.1468 263.074 77.4353 262.841 77.7566 262.875L121.678 267.591C121.999 267.626 122.232 267.914 122.197 268.236C122.163 268.557 121.874 268.79 121.553 268.755L77.6317 264.039C77.3103 264.005 77.0778 263.716 77.1123 263.395Z" fill="#D0D2EA"/>
<path fill-rule="evenodd" clip-rule="evenodd" d="M89.0777 268.743C89.1128 268.422 89.4017 268.19 89.723 268.225L121.327 271.674C121.648 271.709 121.88 271.998 121.845 272.319C121.81 272.641 121.521 272.873 121.2 272.838L89.596 269.389C89.2747 269.354 89.0427 269.065 89.0777 268.743Z" fill="#D0D2EA"/>
<path d="M147.306 228.757L100.64 225.238L82.4097 253.955L115.21 257.334L147.306 228.757Z" fill="#AF381E"/>
<path d="M113.028 255.011L145.124 228.968C145.124 228.968 145.124 225.519 146.321 221.718L115.984 242.271C115.984 242.201 110.916 248.958 113.028 255.011Z" fill="#D0D2EA"/>
<path d="M115.492 255.715L147.306 228.757C147.306 228.757 149.207 228.757 147.658 231.291L115.562 258.882L115.492 255.715Z" fill="#8E381E"/>
<path d="M147.166 219.396C147.166 219.396 148.996 220.803 147.306 222.915C147.306 222.915 122.53 241.849 119.785 243.468L119.645 240.582L147.166 219.396Z" fill="#8E381E"/>
<path d="M60.9419 232.135L96.9799 212.357L147.166 219.395L119.574 240.511L60.9419 232.135Z" fill="#AF381E"/>
<path d="M118.518 241.215C117.955 241.638 111.55 246.283 113.239 256.419L61.2236 248.043C61.2236 248.043 55.8038 244.453 58.4785 237.766C61.1532 231.08 67.7695 232.487 67.7695 232.487L118.518 241.215Z" fill="#EDEDF7"/>
<path d="M117.814 241.778C117.814 241.778 67.91 231.08 62.4198 233.825C56.9297 236.57 59.9563 243.116 59.9563 243.116C60.3082 233.895 67.4173 236.359 67.4173 236.359L115.562 244.312C116.406 243.116 117.251 242.342 117.814 241.778Z" fill="#D0D2EA"/>
<path d="M120.63 242.412C120.841 241.638 120.348 240.793 119.574 240.511L66.5728 231.15C66.5728 231.15 59.8157 229.531 57.141 237.203C54.4663 244.805 58.6895 248.958 60.6603 250.014C62.42 250.929 106.834 256.911 114.576 258.953C115.421 259.164 116.195 258.671 116.407 257.897L116.477 257.615C116.688 256.771 116.195 255.926 115.421 255.715L64.3908 247.55C64.3908 247.55 58.8303 246.565 60.8011 238.541C60.8011 238.541 62.1385 232.487 67.9102 234.247C72.978 235.795 111.55 241.356 118.659 243.468C119.504 243.749 120.419 243.256 120.63 242.412Z" fill="#CB542F"/>
<path fill-rule="evenodd" clip-rule="evenodd" d="M84.718 242.529C84.7697 242.21 85.0702 241.994 85.3892 242.045L114.107 246.691C114.426 246.742 114.643 247.043 114.591 247.362C114.54 247.681 114.239 247.898 113.92 247.846L85.2023 243.201C84.8832 243.149 84.6664 242.849 84.718 242.529Z" fill="#D0D2EA"/>
<path fill-rule="evenodd" clip-rule="evenodd" d="M73.3146 245.138C73.364 244.818 73.663 244.599 73.9824 244.649L113.117 250.702C113.437 250.751 113.656 251.05 113.606 251.37C113.557 251.689 113.258 251.908 112.938 251.859L73.8035 245.806C73.4841 245.756 73.2652 245.457 73.3146 245.138Z" fill="#D0D2EA"/>
<path d="M64.9539 203.277C64.9539 203.277 59.8861 209.26 63.7574 216.861L82.8321 243.045V226.856L64.9539 203.277Z" fill="#427763"/>
<path d="M81.7765 227.842L64.9541 203.277L115.773 199.335L140.338 219.325L81.7765 227.842Z" fill="#428B75"/>
<path d="M139.494 220.24C139.071 220.803 134.285 227.067 138.72 236.359L86.4927 243.045C86.4927 243.045 80.2283 241.145 80.9321 233.965C81.636 226.716 88.3931 226.293 88.3931 226.293L139.494 220.24Z" fill="#EDEDF7"/>
<path d="M139.001 221.014C139.001 221.014 88.1112 224.885 83.6768 229.038C79.1721 233.261 83.888 238.611 83.888 238.611C81.6356 229.672 89.0966 230.024 89.0966 230.024L137.523 224.041C138.015 222.703 138.578 221.648 139.001 221.014Z" fill="#D0D2EA"/>
<path d="M141.886 220.803C141.886 219.958 141.183 219.325 140.338 219.325L86.8441 225.378C86.8441 225.378 79.9462 225.73 79.5239 233.825C79.1016 241.919 84.3806 244.664 86.5626 245.086C88.5334 245.438 132.807 238.681 140.831 238.329C141.675 238.329 142.309 237.625 142.309 236.781V236.499C142.309 235.655 141.605 234.951 140.76 235.021L89.5188 241.708C89.5188 241.708 83.8879 242.341 83.536 234.106C83.536 234.106 83.1136 227.912 89.1669 227.983C94.5163 228.053 133.018 222.492 140.408 222.422C141.183 222.422 141.886 221.648 141.886 220.803Z" fill="#609682"/>
<path fill-rule="evenodd" clip-rule="evenodd" d="M137.541 227.275C137.581 227.596 137.354 227.889 137.034 227.93L108.175 231.59C107.854 231.63 107.561 231.403 107.521 231.083C107.48 230.762 107.707 230.469 108.028 230.428L136.886 226.768C137.207 226.728 137.5 226.955 137.541 227.275Z" fill="#D0D2EA"/>
<path fill-rule="evenodd" clip-rule="evenodd" d="M137.68 231.352C137.724 231.672 137.5 231.967 137.179 232.011L97.974 237.36C97.6537 237.404 97.3587 237.18 97.315 236.86C97.2713 236.54 97.4955 236.244 97.8158 236.201L137.021 230.851C137.341 230.808 137.636 231.032 137.68 231.352Z" fill="#D0D2EA"/>
<path d="M56.7188 198.491L103.315 192.367L130.836 215.383L95.6426 222.422L56.7188 198.491Z" fill="#E3AE4B"/>
<path d="M97.7542 220.099L60.2381 197.998C60.2381 197.998 61.9274 194.69 59.0415 188.777L94.7979 207.289C94.7979 207.359 99.9361 214.046 97.7542 220.099Z" fill="#D0D2EA"/>
<path d="M95.3615 220.803L56.7192 198.491C56.7192 198.491 54.8188 198.491 56.3673 201.025L95.2207 223.971L95.3615 220.803Z" fill="#D18B4B"/>
<path d="M58.1971 186.525C58.1971 186.525 56.367 187.933 58.0563 190.044C58.0563 190.044 88.2522 206.937 91.0676 208.626L91.2084 205.74L58.1971 186.525Z" fill="#D18B4B"/>
<path d="M144.21 197.646L107.046 182.161L58.1973 186.525L91.2086 205.67L144.21 197.646Z" fill="#E3AE4B"/>
<path d="M92.2642 206.304C92.8273 206.726 99.2324 211.372 97.5432 221.507L143.858 213.483C143.858 213.483 149.277 209.893 146.603 203.207C143.928 196.45 137.312 197.928 137.312 197.928L92.2642 206.304Z" fill="#EDEDF7"/>
<path d="M92.9678 206.937C92.9678 206.937 137.241 196.59 142.661 199.406C148.151 202.151 145.124 208.697 145.124 208.697C144.772 199.476 137.663 201.94 137.663 201.94L95.1498 209.541C94.3755 208.274 93.6013 207.43 92.9678 206.937Z" fill="#D0D2EA"/>
<path d="M90.2234 207.5C90.0122 206.726 90.5049 205.881 91.2792 205.6L138.649 196.59C138.649 196.59 145.406 194.971 148.081 202.643C150.756 210.245 146.533 214.398 144.562 215.454C142.802 216.369 104.019 222 96.2766 223.97C95.432 224.182 94.6577 223.689 94.4466 222.915L94.3762 222.633C94.165 221.789 94.6577 220.944 95.432 220.733L140.831 212.99C140.831 212.99 146.392 212.005 144.421 203.981C144.421 203.981 143.084 197.927 137.312 199.687C132.244 201.236 99.3736 206.444 92.2646 208.485C91.2792 208.837 90.4345 208.345 90.2234 207.5Z" fill="#F0D763"/>
<path fill-rule="evenodd" clip-rule="evenodd" d="M126.064 207.618C126.116 207.937 125.899 208.237 125.58 208.289L96.8624 212.935C96.5433 212.986 96.2428 212.769 96.1912 212.45C96.1396 212.131 96.3564 211.831 96.6755 211.779L125.393 207.134C125.712 207.082 126.013 207.299 126.064 207.618Z" fill="#D0D2EA"/>
<path fill-rule="evenodd" clip-rule="evenodd" d="M137.468 210.297C137.517 210.617 137.297 210.916 136.978 210.964L97.8427 216.947C97.5232 216.996 97.2246 216.777 97.1757 216.457C97.1269 216.138 97.3463 215.839 97.6658 215.79L136.801 209.807C137.12 209.758 137.419 209.978 137.468 210.297Z" fill="#D0D2EA"/>
<path d="M136.255 184.554L95.2201 179.486L81.917 196.309L115.773 200.11L136.255 184.554Z" fill="#6973BD"/>
<path d="M113.239 198.209L134.074 185.187C134.074 185.187 133.511 177.797 134.074 173.855L114.084 185.117C114.084 185.117 110.142 192.508 113.239 198.209Z" fill="#D0D2EA"/>
<path d="M115.773 198.42L136.255 184.554C136.255 184.554 138.156 184.272 137.03 186.947L116.406 201.517L115.773 198.42Z" fill="#6269A1"/>
<path d="M134.566 171.392C134.566 171.392 136.607 172.448 135.27 174.841C135.27 174.841 120.489 183.569 117.955 185.68L117.321 182.865L134.566 171.392Z" fill="#6269A1"/>
<path d="M56.437 177.727L80.0869 168.928L134.566 171.392L117.321 182.865L56.437 177.727Z" fill="#6973BD"/>
<path d="M116.407 183.709C115.914 184.202 110.354 189.903 113.662 199.617L60.0271 193.986C60.0271 193.986 54.0443 191.382 55.6631 184.273C57.2117 177.163 63.9688 177.586 63.9688 177.586L116.407 183.709Z" fill="#EDEDF7"/>
<path d="M115.773 184.343C115.773 184.343 63.8275 176.037 58.9004 179.697C53.9733 183.287 57.9854 189.27 57.9854 189.27C56.8592 180.12 64.2498 181.387 64.2498 181.387L114.013 187.229C114.647 185.891 115.35 184.976 115.773 184.343Z" fill="#D0D2EA"/>
<path d="M118.659 184.484C118.729 183.639 118.166 182.935 117.322 182.794L61.7866 175.756C61.7866 175.756 54.8887 175.263 53.4809 183.217C52.0732 191.17 57.7041 195.112 59.8157 195.816C61.7162 196.449 107.467 200.954 115.421 201.658C116.266 201.728 116.97 201.095 117.11 200.25V199.969C117.181 199.124 116.547 198.35 115.703 198.279L63.0535 192.719C63.0535 192.719 57.4226 192.649 58.0561 184.413C58.0561 184.413 58.408 178.219 64.3909 178.994C69.6699 179.697 109.509 184.765 116.899 185.68C117.814 185.962 118.589 185.399 118.659 184.484Z" fill="#828FC4"/>
<path fill-rule="evenodd" clip-rule="evenodd" d="M68.4541 185.618C68.4886 185.296 68.7771 185.064 69.0984 185.098L113.02 189.814C113.341 189.849 113.574 190.137 113.539 190.459C113.505 190.78 113.216 191.013 112.895 190.978L68.9735 186.262C68.6521 186.228 68.4196 185.939 68.4541 185.618Z" fill="#D0D2EA"/>
<path fill-rule="evenodd" clip-rule="evenodd" d="M80.4908 190.966C80.5259 190.645 80.8148 190.413 81.1361 190.448L112.74 193.897C113.061 193.932 113.293 194.221 113.258 194.542C113.223 194.863 112.934 195.095 112.613 195.06L81.0091 191.611C80.6878 191.576 80.4557 191.287 80.4908 190.966Z" fill="#D0D2EA"/>
<path d="M138.086 163.086L91.49 156.259L75.5122 173.715L109.298 179.768L138.086 163.086Z" fill="#E3AE4B"/>
<path d="M107.116 177.445L135.904 163.227C135.904 163.227 135.904 157.103 137.1 153.302L110.072 164.635C110.072 164.705 105.004 171.392 107.116 177.445Z" fill="#D0D2EA"/>
<path d="M109.579 178.149L138.086 163.086C138.086 163.086 139.986 163.086 138.438 165.62L109.72 181.246L109.579 178.149Z" fill="#D18B4B"/>
<path d="M137.945 151.05C137.945 151.05 139.775 152.458 138.086 154.569C138.086 154.569 116.618 164.212 113.802 165.902L113.662 163.016L137.945 151.05Z" fill="#D18B4B"/>
<path d="M55.7334 153.936L87.7593 143.378L137.945 151.05L113.662 163.016L55.7334 153.936Z" fill="#E3AE4B"/>
<path d="M112.606 163.649C112.043 164.072 105.638 168.717 107.327 178.853L55.9448 169.843C55.9448 169.843 50.525 166.254 53.1997 159.567C55.8744 152.81 62.4907 154.288 62.4907 154.288L112.606 163.649Z" fill="#EDEDF7"/>
<path d="M111.902 164.283C111.902 164.283 62.702 152.88 57.2118 155.696C51.7217 158.441 54.7483 164.987 54.7483 164.987C55.1002 155.766 62.2093 158.23 62.2093 158.23L109.72 166.887C110.495 165.62 111.339 164.776 111.902 164.283Z" fill="#D0D2EA"/>
<path d="M114.717 164.846C114.929 164.072 114.436 163.227 113.662 162.946L61.294 152.951C61.294 152.951 54.5369 151.332 51.8622 159.004C49.1875 166.676 53.4107 170.759 55.3815 171.814C57.1412 172.729 100.851 179.416 108.664 181.387C109.509 181.598 110.283 181.105 110.494 180.331L110.565 180.05C110.776 179.205 110.283 178.36 109.509 178.149L59.112 169.351C59.112 169.351 53.5515 168.365 55.5223 160.341C55.5223 160.341 56.8597 154.288 62.6314 156.048C67.6992 157.596 105.567 163.861 112.676 165.902C113.591 166.183 114.506 165.691 114.717 164.846Z" fill="#F0D763"/>
<path fill-rule="evenodd" clip-rule="evenodd" d="M78.8103 163.601C78.8762 163.284 79.1861 163.081 79.5026 163.147L108.22 169.13C108.537 169.196 108.74 169.506 108.674 169.822C108.608 170.139 108.298 170.342 107.982 170.276L79.2638 164.293C78.9474 164.227 78.7443 163.917 78.8103 163.601Z" fill="#D0D2EA"/>
<path fill-rule="evenodd" clip-rule="evenodd" d="M67.4056 166.287C67.465 165.969 67.7707 165.76 68.0884 165.819L107.223 173.139C107.541 173.199 107.75 173.505 107.691 173.822C107.632 174.14 107.326 174.349 107.008 174.29L67.8732 166.97C67.5555 166.91 67.3462 166.605 67.4056 166.287Z" fill="#D0D2EA"/>
<path d="M64.9539 132.609C64.9539 132.609 59.8861 138.592 63.7574 146.193L82.8321 166.113V149.924L64.9539 132.609Z" fill="#427763"/>
<path d="M81.7765 150.839L64.9541 132.609L115.773 128.667L140.338 142.322L81.7765 150.839Z" fill="#428B75"/>
<path d="M139.494 143.237C139.071 143.8 134.285 150.065 138.72 159.356L86.4927 166.042C86.4927 166.042 80.2283 164.142 80.9321 156.962C81.636 149.713 88.3931 149.29 88.3931 149.29L139.494 143.237Z" fill="#EDEDF7"/>
<path d="M139.001 144.011C139.001 144.011 88.1112 147.882 83.6768 152.035C79.1721 156.259 83.888 161.608 83.888 161.608C81.6356 152.669 89.0966 153.021 89.0966 153.021L137.523 147.038C138.015 145.701 138.578 144.715 139.001 144.011Z" fill="#D0D2EA"/>
<path d="M141.886 143.8C141.886 142.956 141.183 142.322 140.338 142.322L86.8441 148.375C86.8441 148.375 79.9462 148.727 79.5239 156.822C79.1016 164.916 84.3806 167.661 86.5626 168.084C88.5334 168.435 132.807 161.678 140.831 161.326C141.675 161.326 142.309 160.623 142.309 159.778V159.496C142.309 158.652 141.605 157.948 140.76 158.018L89.5188 164.705C89.5188 164.705 83.8879 165.338 83.536 157.103C83.536 157.103 83.1136 150.909 89.1669 150.98C94.5163 151.05 133.018 145.489 140.408 145.419C141.183 145.419 141.886 144.645 141.886 143.8Z" fill="#609682"/>
<path fill-rule="evenodd" clip-rule="evenodd" d="M137.541 150.273C137.581 150.593 137.354 150.886 137.034 150.927L108.175 154.587C107.854 154.628 107.561 154.401 107.521 154.08C107.48 153.759 107.707 153.466 108.028 153.426L136.886 149.766C137.207 149.725 137.5 149.952 137.541 150.273Z" fill="#D0D2EA"/>
<path fill-rule="evenodd" clip-rule="evenodd" d="M137.68 154.349C137.724 154.67 137.5 154.965 137.179 155.008L97.974 160.358C97.6537 160.401 97.3587 160.177 97.315 159.857C97.2713 159.537 97.4955 159.242 97.8158 159.198L137.021 153.849C137.341 153.805 137.636 154.029 137.68 154.349Z" fill="#D0D2EA"/>
<path d="M56.7188 128.737L103.315 119.376L130.836 138.38L95.6426 145.419L56.7188 128.737Z" fill="#AF381E"/>
<path d="M97.7542 143.096L60.2381 128.315C60.2381 128.315 61.9274 121.699 59.0415 115.786L94.7979 130.356C94.7979 130.356 99.9361 137.043 97.7542 143.096Z" fill="#D0D2EA"/>
<path d="M95.3615 143.8L56.7192 128.738C56.7192 128.738 54.8188 128.738 56.3673 131.271L95.2207 146.968L95.3615 143.8Z" fill="#8E381E"/>
<path d="M58.1971 113.464C58.1971 113.464 56.367 114.871 58.0563 116.983C58.0563 116.983 88.2522 129.934 91.0676 131.553L91.2084 128.667L58.1971 113.464Z" fill="#8E381E"/>
<path d="M144.21 120.643L107.046 109.1L58.1973 113.464L91.2086 128.667L144.21 120.643Z" fill="#AF381E"/>
<path d="M92.2642 129.301C92.8273 129.723 99.2324 134.368 97.5432 144.504L143.858 136.48C143.858 136.48 149.277 132.89 146.603 126.204C143.928 119.446 137.312 120.925 137.312 120.925L92.2642 129.301Z" fill="#EDEDF7"/>
<path d="M92.9678 129.934C92.9678 129.934 137.241 119.587 142.661 122.403C148.151 125.148 145.124 131.694 145.124 131.694C144.772 122.473 137.663 124.937 137.663 124.937L95.1498 132.538C94.3755 131.272 93.6013 130.427 92.9678 129.934Z" fill="#D0D2EA"/>
<path d="M90.2234 130.497C90.0122 129.723 90.5049 128.878 91.2792 128.597L138.649 119.587C138.649 119.587 145.406 117.969 148.081 125.641C150.756 133.242 146.533 137.395 144.562 138.451C142.802 139.366 104.019 144.997 96.2766 146.968C95.432 147.179 94.6577 146.686 94.4466 145.912L94.3762 145.63C94.165 144.786 94.6577 143.941 95.432 143.73L140.831 135.987C140.831 135.987 146.392 135.002 144.421 126.978C144.421 126.978 143.084 120.925 137.312 122.684C132.244 124.233 99.3736 129.442 92.2646 131.483C91.2792 131.835 90.4345 131.342 90.2234 130.497Z" fill="#CB542F"/>
<path fill-rule="evenodd" clip-rule="evenodd" d="M126.064 130.615C126.116 130.934 125.899 131.234 125.58 131.286L96.8624 135.932C96.5433 135.983 96.2428 135.766 96.1912 135.447C96.1396 135.128 96.3564 134.828 96.6755 134.776L125.393 130.131C125.712 130.079 126.013 130.296 126.064 130.615Z" fill="#D0D2EA"/>
<path fill-rule="evenodd" clip-rule="evenodd" d="M137.468 133.294C137.517 133.614 137.297 133.913 136.978 133.961L97.8427 139.944C97.5232 139.993 97.2246 139.774 97.1757 139.454C97.1269 139.135 97.3463 138.836 97.6658 138.787L136.801 132.804C137.12 132.756 137.419 132.975 137.468 133.294Z" fill="#D0D2EA"/>
<path d="M193.762 250.858C193.762 250.858 186.019 254.307 184.471 260.36C182.922 266.484 186.793 270.003 190.313 266.413C190.313 266.413 190.031 270.425 193.832 271.059C197.633 271.692 200.448 268.947 200.448 268.947C200.448 268.947 201.645 271.622 205.023 271.622C208.965 271.552 214.103 269.722 215.722 264.091C217.271 258.46 215.863 252.407 212.414 250.506C208.965 248.465 199.463 248.746 193.762 250.858Z" fill="#E8B79F"/>
<path d="M180.74 184.765C180.74 184.765 172.716 191.663 179.191 221.296C182.218 235.162 193.058 252.266 193.058 252.266C193.058 252.266 196.577 260.642 212.484 250.365L209.035 224.393C209.035 224.393 208.754 199.406 205.727 191.804C198.829 174.418 187.99 174.77 180.74 184.765Z" fill="#AF673F"/>
<path d="M195.662 147.812C195.662 147.812 177.502 145.982 167.226 140.633C152.585 132.961 148.503 129.864 148.503 129.864L153.148 116.349C153.148 116.349 177.502 123.67 200.871 122.825C224.309 122.051 214.174 138.521 214.174 138.521C214.174 138.521 210.584 150.346 195.662 147.812Z" fill="#DD915F"/>
<path d="M152.867 116.772C152.867 116.772 148.081 109.663 138.93 107.974C129.78 106.284 122.601 113.393 125.064 117.335C127.528 121.277 130.132 120.784 130.132 120.784C130.132 120.784 129.428 121.206 132.455 123.388C135.411 125.57 141.464 123.388 141.464 123.388L148.503 129.793C148.503 129.864 154.697 126.556 152.867 116.772Z" fill="#FFC4A4"/>
<path d="M372.122 135.917C373.74 137.254 375.289 139.225 375.782 141.618C376.274 144.011 375.571 146.827 373.177 149.994C369.94 154.288 366.068 156.751 362.056 158.3C358.044 159.848 353.891 160.482 349.668 160.834C348.612 160.904 347.557 161.045 346.501 161.045C345.445 161.115 344.389 161.186 343.333 161.256C342.278 161.256 341.292 161.397 340.236 161.397C339.251 161.467 338.195 161.467 337.21 161.538C335.239 161.608 333.339 161.749 331.649 161.96C329.96 162.101 328.482 162.312 327.215 162.523C327.215 162.523 326.722 162.664 325.878 162.945C325.033 163.227 323.836 163.649 322.499 164.283C321.162 164.916 319.754 165.761 318.487 166.746C317.29 167.732 316.094 168.928 314.897 170.758C314.334 171.603 313.701 172.659 313.138 173.785C312.575 174.982 312.011 176.249 311.448 177.656C310.322 180.542 309.266 183.85 308.14 187.44C306.944 191.03 305.747 194.901 304.128 198.772C303.354 200.673 302.368 202.644 301.453 204.474C300.398 206.374 299.342 208.134 298.145 209.823C297.089 211.371 295.4 213.483 293.077 215.806C292.514 216.369 291.881 217.002 291.177 217.565C290.473 218.129 289.769 218.762 289.065 219.325C288.291 219.888 287.517 220.451 286.743 221.014C285.898 221.578 285.053 222.07 284.138 222.633C280.549 224.675 276.114 226.434 271.469 227.279C266.823 228.194 261.967 228.194 257.391 227.56C252.887 226.927 248.663 225.66 244.863 224.182C241.132 222.633 237.754 220.874 234.868 219.044C229.096 215.383 224.943 211.653 222.55 209.401C220.861 207.782 219.031 205.529 218.045 202.995C217.06 200.532 216.919 197.857 218.186 195.605C219.312 193.634 222.268 191.663 225.295 190.255C226.844 189.552 228.392 188.988 229.729 188.707C231.137 188.425 232.334 188.355 233.249 188.637C234.516 189.059 235.29 189.974 236.064 190.889C237.402 192.437 239.161 194.197 241.273 195.886C243.384 197.646 245.918 199.335 248.734 200.813C251.549 202.292 254.576 203.488 257.673 204.051C259.221 204.403 260.77 204.544 262.248 204.544C263.726 204.544 265.204 204.403 266.542 204.051C267.879 203.699 269.216 203.277 270.483 202.644C271.68 202.01 272.876 201.236 274.003 200.321C275.058 199.406 275.973 198.491 276.818 197.365C277.663 196.309 278.437 195.112 279.07 193.845C280.408 191.311 281.534 188.496 282.379 185.751C283.294 183.006 284.068 180.331 284.772 178.008C285.757 174.7 286.813 171.181 288.15 167.521C289.488 163.86 291.177 160.06 293.57 156.259C295.893 152.528 298.99 148.868 302.58 145.841C306.099 142.885 309.97 140.562 313.912 138.732C317.853 136.902 321.866 135.565 325.807 134.509C329.819 133.453 333.691 132.82 337.703 132.327C345.727 131.342 353.891 131.412 362.056 132.468C366.913 133.172 370.221 134.298 372.122 135.917Z" fill="#AF673F"/>
<path d="M372.122 135.917C370.221 134.368 366.913 133.242 362.338 132.608C355.721 131.693 349.105 131.553 342.489 131.975C339.181 132.257 335.943 132.608 332.705 133.172C329.467 133.735 326.3 134.509 323.062 135.424C323.273 135.635 323.555 135.776 324.047 135.917C327.708 136.972 331.156 137.958 334.676 138.803C338.125 139.647 341.574 140.281 345.023 140.773C340.096 142.04 335.45 143.8 331.227 146.123C330.593 146.475 329.819 147.108 330.101 147.812C330.241 148.164 330.593 148.375 330.875 148.516C333.198 149.783 335.732 150.416 338.266 150.276C337.702 150.557 337.069 150.768 336.435 150.909C335.802 151.05 335.169 151.191 334.535 151.402C333.902 151.613 333.338 152.035 332.846 152.528C332.423 153.021 332.072 153.654 332.072 154.358C332.072 155.132 332.353 155.836 332.705 156.54C333.268 157.666 334.042 158.652 334.887 159.496C335.732 160.27 336.576 160.974 337.562 161.537C340.518 161.397 343.685 161.185 346.782 161.045C349.879 160.834 353.047 160.552 356.144 159.989C359.241 159.355 362.267 158.44 365.153 156.892C366.631 156.118 368.039 155.203 369.376 154.076C370.714 152.95 372.051 151.613 373.248 149.994C375.641 146.827 376.345 144.011 375.852 141.618C375.289 139.154 373.74 137.254 372.122 135.917Z" fill="#FFC4A4"/>
<path d="M224.31 112.197C216.638 118.531 205.798 133.453 201.927 139.014C193.551 150.98 182.148 157.174 176.869 170.829C170.534 187.158 183.415 202.784 198.337 208.415C226.351 219.043 236.838 203.699 242.329 192.156C255.913 163.297 246.481 145.771 245.144 128.315C244.581 121.276 243.384 113.534 238.105 108.818C230.715 102.131 231.208 106.425 224.31 112.197Z" fill="#AF673F"/>
<path d="M232.193 119.517C232.193 119.517 233.389 147.883 224.943 175.896C216.497 203.91 195.592 209.33 181.937 198.561C174.405 192.648 171.168 171.673 180.247 156.118C194.747 131.13 221.212 108.536 221.212 108.536L232.193 119.517Z" fill="#FFC4A4"/>
<path d="M218.185 257.756C218.185 257.756 210.443 261.205 208.894 267.258C207.346 273.382 211.217 276.901 214.736 273.311C214.736 273.311 214.455 277.323 218.256 277.957C222.057 278.59 224.872 275.845 224.872 275.845C224.872 275.845 226.069 278.52 229.447 278.52C233.389 278.45 238.527 276.62 240.146 270.989C241.695 265.358 240.287 259.304 236.838 257.404C233.389 255.504 223.816 255.644 218.185 257.756Z" fill="#FFC4A4"/>
<path d="M212.344 200.743C212.344 200.743 203.475 213.342 206.854 229.39C209.739 243.256 215.23 259.375 215.23 259.375C215.23 259.375 220.931 267.54 236.838 257.263L236.416 231.15C236.416 231.15 242.751 207.922 239.724 200.25C232.756 182.935 220.86 186.384 212.344 200.743Z" fill="#DD915F"/>
<path d="M246.2 132.257C246.2 132.257 232.334 132.538 236.416 142.463C240.499 152.317 247.537 155.484 246.904 160.13C246.27 164.775 234.305 175.052 234.305 175.052C234.305 175.052 247.889 177.515 247.678 186.525C247.678 186.525 260.629 182.302 268.513 171.321C276.396 160.341 263.867 131.835 246.2 132.257Z" fill="#DD915F"/>
<path d="M237.894 173.292C233.671 174.418 231.207 177.867 228.955 181.457C227.266 184.132 225.224 189.059 227.617 191.945C228.744 193.282 230.855 193.704 232.263 192.648C232.052 194.338 233.108 196.097 234.656 196.801C236.205 197.505 238.175 197.012 239.302 195.675C239.794 197.153 241.202 198.209 242.751 198.35C244.299 198.491 245.848 197.857 246.974 196.801C247.889 195.957 248.522 194.76 248.382 193.564C248.17 192.367 246.903 191.311 245.777 191.663C250.212 187.721 252.323 181.387 248.1 176.46C245.777 173.785 241.906 172.518 238.457 173.292C238.175 173.222 238.035 173.222 237.894 173.292Z" fill="#FFC4A4"/>
<path d="M166.733 52.72C166.733 52.72 170.112 -0.140371 182.43 0.000402744C191.721 0.0707894 208.05 21.6795 210.444 33.3637C210.444 33.3637 179.825 47.2298 166.733 52.72Z" fill="#AF673F"/>
<path d="M202.067 29.9148C202.067 29.9148 188.905 30.7594 174.687 39.6281C174.687 39.6281 176.095 10.6992 184.33 8.23568C189.046 6.96872 200.378 22.5242 202.067 29.9148Z" fill="#F7AF7F"/>
<path d="M300.749 85.5906C300.749 85.5906 322.217 37.1646 311.237 31.6041C303.002 27.3809 278.507 38.9947 270.905 48.2153C270.905 48.2153 291.669 74.6103 300.749 85.5906Z" fill="#AF673F"/>
<path d="M279.704 49.6934C279.704 49.6934 289.487 58.2806 298.004 72.7802C298.004 72.7802 311.73 43.9921 305.606 38.0796C302.087 34.6307 284.701 43.9217 279.704 49.6934Z" fill="#F7AF7F"/>
<path fill-rule="evenodd" clip-rule="evenodd" d="M242.469 33.9971C286.25 44.6958 305.113 71.7947 300.679 85.5905C300.679 85.5905 290.755 107.27 279.141 116.842C262.952 130.145 243.314 134.791 215.793 127.189C190.242 120.15 175.391 106.425 168.423 88.4763C162.44 73.2024 166.663 52.6495 166.663 52.6495C169.126 34.1378 198.689 23.2983 242.469 33.9971Z" fill="#DD915F"/>
<mask id="mask0_448_40892" style="mask-type:luminance" maskUnits="userSpaceOnUse" x="165" y="29" width="137" height="102">
<path d="M242.469 33.9971C286.25 44.6958 305.113 71.7947 300.679 85.5905C300.679 85.5905 290.755 107.27 279.141 116.842C262.952 130.145 243.314 134.791 215.793 127.189C190.242 120.15 175.391 106.425 168.423 88.4763C162.44 73.2024 166.663 52.6495 166.663 52.6495C169.126 34.1378 198.689 23.2983 242.469 33.9971Z" fill="white"/>
</mask>
<g mask="url(#mask0_448_40892)">
<path d="M227.266 20.9054C227.266 20.9054 232.193 37.7278 228.04 61.7297C223.254 89.2508 187.92 91.2217 155.19 69.4018C155.19 69.4018 148.433 48.5674 161.455 28.7183C174.546 8.79891 227.266 20.9054 227.266 20.9054Z" fill="#875844"/>
</g>
<mask id="mask1_448_40892" style="mask-type:luminance" maskUnits="userSpaceOnUse" x="165" y="29" width="137" height="102">
<path d="M242.469 33.9971C286.25 44.6958 305.113 71.7947 300.679 85.5905C300.679 85.5905 290.755 107.27 279.141 116.842C262.952 130.145 243.314 134.791 215.793 127.189C190.242 120.15 175.391 106.425 168.423 88.4763C162.44 73.2024 166.663 52.6495 166.663 52.6495C169.126 34.1378 198.689 23.2983 242.469 33.9971Z" fill="white"/>
</mask>
<g mask="url(#mask1_448_40892)">
<path d="M255.702 27.8735C255.702 27.8735 243.595 40.5431 236.134 63.7707C227.617 90.3769 258.095 108.537 297.159 104.243C297.159 104.243 312.785 88.8988 310.392 65.2488C307.999 41.5989 255.702 27.8735 255.702 27.8735Z" fill="#875844"/>
</g>
<path d="M265.838 80.3818C265.697 82.2119 264.078 83.4788 262.318 83.3381C260.559 83.1973 259.221 81.5784 259.362 79.8187C259.503 77.9887 261.122 76.7217 262.882 76.8625C264.641 77.0032 265.979 78.5518 265.838 80.3818Z" fill="white"/>
<path d="M280.619 78.6923C281.534 68.6974 274.144 59.8991 264.149 58.9841C254.154 58.069 245.355 65.4596 244.44 75.4545C243.525 85.4494 250.916 94.2478 260.911 95.1628C270.906 96.0074 279.704 88.6168 280.619 78.6923Z" fill="white"/>
<path d="M220.509 63.9113C221.424 53.9164 214.033 45.1181 204.038 44.2031C194.043 43.288 185.245 50.6786 184.33 60.6735C183.415 70.6684 190.806 79.4668 200.8 80.3818C210.795 81.2968 219.594 73.9062 220.509 63.9113Z" fill="white"/>
<path d="M205.868 60.3921C205.727 62.2221 204.108 63.4891 202.349 63.3483C200.519 63.2075 199.252 61.5886 199.393 59.829C199.533 57.9989 201.152 56.732 202.912 56.8727C204.742 57.0135 206.079 58.562 205.868 60.3921Z" fill="white"/>
<path d="M258.518 66.586C264.641 67.149 269.216 72.5688 268.653 78.6925C268.09 84.8161 262.67 89.3912 256.547 88.8281C250.423 88.265 245.848 82.8453 246.411 76.7216C246.974 70.598 252.394 66.0229 258.518 66.586Z" fill="#0B1411"/>
<path d="M263.515 78.3405C265.345 78.4813 266.894 77.1439 267.035 75.3842C267.175 73.6246 265.908 72.0057 264.078 71.8649C262.248 71.7241 260.7 73.0615 260.559 74.8211C260.418 76.5808 261.756 78.1997 263.515 78.3405Z" fill="white"/>
<path d="M195.874 64.3334C196.437 58.2098 201.857 53.6347 207.98 54.1978C214.104 54.7609 218.679 60.1806 218.116 66.3043C217.553 72.4279 212.133 77.003 206.009 76.44C199.886 75.9472 195.381 70.5275 195.874 64.3334ZM202.912 56.8725C201.153 56.7317 199.534 58.069 199.393 59.8287C199.252 61.5884 200.519 63.2073 202.349 63.348C204.109 63.4888 205.728 62.1515 205.869 60.3918C206.08 58.5617 204.742 57.0132 202.912 56.8725Z" fill="#0B1411"/>
<path d="M227.97 83.4789C227.97 83.4789 207.206 77.7776 197.774 88.6171C189.468 98.1897 199.956 111.915 220.157 116.842C240.358 121.769 251.972 114.871 253.661 103.68C254.928 95.3038 237.19 85.8016 227.97 83.4789Z" fill="#FFC4A4"/>
<path d="M225.013 95.7262C225.576 96.6413 230.081 103.258 237.331 102.202C237.331 102.202 236.486 107.34 232.122 109.874C232.122 109.874 230.433 105.228 224.168 103.328C217.904 101.428 212.695 104.313 212.695 104.313C210.584 100.372 211.921 96.3597 211.921 96.3597C211.921 96.3597 219.312 99.4567 224.943 95.6559C224.943 95.5855 225.013 95.6559 225.013 95.7262Z" fill="#0A1311"/>
<path d="M224.168 103.328C230.433 105.228 232.122 109.874 232.122 109.874C229.87 111.211 226.632 111.774 222.127 110.648C216.778 109.311 214.033 106.777 212.695 104.313C212.695 104.243 217.974 101.357 224.168 103.328Z" fill="#CB542F"/>
<path fill-rule="evenodd" clip-rule="evenodd" d="M226.661 89.2009C227.038 89.2943 227.268 89.6759 227.175 90.0533L225.485 96.8808C225.392 97.2581 225.01 97.4883 224.633 97.395C224.256 97.3016 224.026 96.92 224.119 96.5427L225.808 89.7152C225.902 89.3378 226.283 89.1076 226.661 89.2009Z" fill="#0B1411"/>
<path fill-rule="evenodd" clip-rule="evenodd" d="M214.403 85.5203C214.403 85.5203 214.403 85.5203 214.385 86.224C214.366 86.9276 214.366 86.9276 214.366 86.9276L214.212 86.9237C214.109 86.9211 213.955 86.9174 213.753 86.9127C213.348 86.9032 212.749 86.8897 211.969 86.8738C210.408 86.8419 208.127 86.8002 205.243 86.7606C199.474 86.6815 191.296 86.6111 181.658 86.6463C181.269 86.6477 180.953 86.3337 180.951 85.945C180.95 85.5563 181.264 85.24 181.652 85.2386C191.3 85.2033 199.487 85.2738 205.262 85.353C208.149 85.3926 210.434 85.4344 211.997 85.4664C212.779 85.4823 213.38 85.4958 213.786 85.5053C213.989 85.5101 214.143 85.5138 214.247 85.5164L214.403 85.5203ZM215.088 86.2424C215.078 86.631 214.755 86.9378 214.366 86.9276L214.385 86.224L214.403 85.5203C214.792 85.5305 215.099 85.8538 215.088 86.2424Z" fill="#0B1411"/>
<path fill-rule="evenodd" clip-rule="evenodd" d="M210.455 88.8987C210.456 88.8987 210.456 88.8987 210.443 89.6024L210.455 88.8987C210.844 88.9056 211.154 89.2262 211.147 89.6149C211.14 90.0036 210.82 90.3131 210.431 90.3062L210.421 90.306L210.388 90.3056C210.358 90.3052 210.313 90.3046 210.254 90.3041C210.135 90.303 209.958 90.3018 209.726 90.3018C209.262 90.3016 208.579 90.3057 207.705 90.3227C205.958 90.3566 203.448 90.4419 200.408 90.6478C194.325 91.0598 186.128 91.9535 177.658 93.8785C177.279 93.9647 176.902 93.7272 176.816 93.3482C176.73 92.9691 176.967 92.592 177.346 92.5058C185.91 90.5596 194.184 89.6584 200.313 89.2433C203.379 89.0357 205.911 88.9495 207.678 88.9152C208.562 88.8981 209.254 88.8939 209.727 88.894C209.963 88.8941 210.144 88.8953 210.267 88.8964C210.328 88.897 210.375 88.8975 210.407 88.898L210.443 88.8985L210.455 88.8987Z" fill="#0B1411"/>
<path fill-rule="evenodd" clip-rule="evenodd" d="M214.312 92.1526C214.342 92.5401 214.052 92.8786 213.665 92.9086C206.912 93.4307 199.825 95.2264 194.409 96.9001C191.705 97.7359 189.426 98.5388 187.823 99.1324C187.022 99.4291 186.39 99.6734 185.96 99.8432C185.744 99.9281 185.58 99.9944 185.469 100.039C185.413 100.062 185.372 100.079 185.344 100.09L185.313 100.103L185.304 100.107C184.945 100.256 184.533 100.086 184.384 99.7265C184.235 99.3675 184.405 98.9556 184.764 98.8066L185.034 99.4567C184.764 98.8066 184.764 98.8067 184.764 98.8066L184.776 98.8015L184.81 98.7876C184.839 98.7755 184.883 98.7577 184.94 98.7345C185.055 98.6881 185.224 98.6202 185.443 98.5337C185.882 98.3606 186.523 98.1127 187.334 97.8123C188.956 97.2115 191.26 96.3999 193.994 95.5552C199.453 93.868 206.654 92.0388 213.556 91.5051C213.944 91.4751 214.282 91.765 214.312 92.1526Z" fill="#0B1411"/>
<path fill-rule="evenodd" clip-rule="evenodd" d="M242.259 92.8833C242.43 92.534 242.851 92.3891 243.2 92.5597L242.892 93.1922L242.583 93.8247C242.233 93.6541 242.088 93.2326 242.259 92.8833ZM242.892 93.1922C242.583 93.8247 242.583 93.8246 242.583 93.8247L242.722 93.8928C242.814 93.9382 242.952 94.0059 243.134 94.0954C243.498 94.2743 244.037 94.5401 244.737 94.8873C246.136 95.5817 248.18 96.6015 250.757 97.9029C255.909 100.506 263.19 104.234 271.702 108.736C272.046 108.918 272.472 108.787 272.654 108.443C272.836 108.1 272.704 107.674 272.361 107.492C263.839 102.985 256.55 99.2523 251.391 96.6463C248.812 95.3434 246.765 94.322 245.362 93.6262C244.661 93.2784 244.121 93.0119 243.756 92.8323C243.573 92.7425 243.435 92.6744 243.341 92.6288L243.2 92.5597C243.2 92.5597 243.2 92.5597 242.892 93.1922Z" fill="#0B1411"/>
<path fill-rule="evenodd" clip-rule="evenodd" d="M244.162 97.7342C244.336 97.3865 244.759 97.2456 245.107 97.4194L244.792 98.049L244.477 98.6785C244.129 98.5047 243.989 98.0819 244.162 97.7342ZM244.792 98.049L244.477 98.6785L244.486 98.6831L244.516 98.698C244.542 98.7113 244.582 98.7315 244.635 98.7585C244.74 98.8124 244.898 98.8933 245.103 99.0005C245.514 99.2149 246.118 99.5344 246.884 99.9533C248.416 100.791 250.599 102.026 253.197 103.612C258.395 106.785 265.243 111.357 271.858 116.957C272.155 117.208 272.599 117.171 272.85 116.875C273.101 116.578 273.065 116.134 272.768 115.883C266.08 110.221 259.168 105.607 253.931 102.41C251.311 100.811 249.108 99.5652 247.559 98.7182C246.784 98.2946 246.173 97.9708 245.754 97.7524C245.545 97.6432 245.384 97.5604 245.275 97.5047C245.22 97.4768 245.179 97.4557 245.15 97.4415L245.118 97.4253L245.107 97.4194C245.107 97.4193 245.107 97.4194 244.792 98.049Z" fill="#0B1411"/>
<path fill-rule="evenodd" clip-rule="evenodd" d="M240.111 98.5226C240.316 98.1922 240.75 98.0906 241.08 98.2956C246.987 101.96 252.538 106.911 256.601 110.931C258.636 112.943 260.304 114.728 261.463 116.011C262.043 116.652 262.496 117.168 262.805 117.524C262.959 117.702 263.078 117.841 263.158 117.935C263.198 117.982 263.228 118.018 263.249 118.042L263.272 118.07L263.278 118.078L263.28 118.079L263.28 118.08C263.28 118.08 263.281 118.08 262.74 118.532L263.281 118.08C263.53 118.379 263.49 118.823 263.192 119.072C262.893 119.321 262.449 119.281 262.2 118.983L262.2 118.982L262.199 118.981L262.194 118.975L262.172 118.949C262.153 118.926 262.124 118.892 262.085 118.847C262.008 118.756 261.892 118.621 261.741 118.446C261.438 118.097 260.992 117.588 260.419 116.955C259.273 115.688 257.624 113.922 255.611 111.932C251.581 107.945 246.116 103.077 240.338 99.4917C240.008 99.2868 239.906 98.8529 240.111 98.5226Z" fill="#0B1411"/>
<path d="M230.222 79.115C236.345 80.8747 240.639 84.4644 239.865 87.1391C239.09 89.8138 226.491 89.8841 226.491 89.8841C226.491 89.8841 216.989 83.5494 217.763 80.8747C218.537 78.2 224.168 77.3553 230.222 79.115Z" fill="#CB542F"/>
</svg>
