<svg width="400" height="281" viewBox="0 0 400 281" fill="none" xmlns="http://www.w3.org/2000/svg">
<path fill-rule="evenodd" clip-rule="evenodd" d="M86.6968 21.4075C121.931 -1.88081 164.754 26.3131 206.635 31.5883C251.143 37.1944 303.405 18.5816 332.838 52.411C366.314 90.8867 372.215 150.677 350.394 196.821C329.749 240.478 278.382 254.52 231.601 266.492C188.576 277.502 143.065 282.705 105.189 259.573C64.9926 235.024 37.5531 192.728 33.906 145.755C30.2402 98.5421 47.1685 47.534 86.6968 21.4075Z" fill="#FFF1CB"/>
<path d="M355.322 197.683C355.322 197.683 359.687 191.512 369.697 195.802C379.708 200.092 385.88 227.94 378.88 231.478C371.88 235.015 370.3 231.628 370.3 231.628C370.3 231.628 368.418 235.692 362.773 232.908C362.773 232.908 361.117 237.574 354.945 232.08C348.774 226.585 348.924 212.586 355.322 197.683Z" fill="#CCB9AB"/>
<path d="M336.431 3.3482C337.936 3.87505 339.366 4.62771 340.721 5.5309C342 6.43408 343.205 7.4878 343.957 8.69205C345.538 11.1005 345.613 14.0359 343.205 17.3476C340.043 21.8635 335.226 24.5731 330.108 26.9063C324.915 29.2395 319.345 31.1964 314.453 33.7555C313.851 34.0565 313.249 34.3576 312.647 34.7339L311.744 35.1855L310.916 35.7124C309.787 36.3898 308.808 37.0672 307.755 37.8198C305.722 39.3251 303.841 41.0562 302.26 42.8626C300.68 44.669 299.325 46.4754 298.346 48.2065C297.368 49.9376 296.766 51.5934 296.314 53.0235C296.314 53.0235 296.314 53.174 296.239 53.475C296.239 53.6256 296.164 53.7761 296.164 54.0019C296.164 54.2277 296.164 54.4535 296.088 54.6793C296.013 55.2062 296.013 55.9588 296.013 56.7115C296.088 57.5394 296.088 58.3673 296.239 59.2705C296.389 60.1737 296.615 61.0016 296.916 61.8295C297.217 62.6574 297.669 63.4854 298.271 64.238C299.475 65.8939 301.583 67.7002 304.894 69.2808C308.131 70.8614 312.421 72.2162 317.087 73.1194C318.292 73.3452 319.421 73.5709 320.625 73.7215C321.829 73.872 322.958 74.0225 324.539 74.1731C327.399 74.4741 330.485 74.8505 333.721 75.3773C336.958 75.9042 340.269 76.5816 343.731 77.56C347.194 78.5385 350.656 79.8932 354.043 81.6996C357.43 83.506 360.591 85.6887 363.376 88.3983C364.053 89.0756 364.655 89.753 365.333 90.4304C365.634 90.8068 365.935 91.1078 366.236 91.4841C366.537 91.8605 366.763 92.1615 367.064 92.5379C367.591 93.2153 368.118 93.9679 368.644 94.6453C369.096 95.3227 369.548 96.0753 369.999 96.7527C371.655 99.387 373.537 103.15 374.741 107.741C376.02 112.333 376.773 117.827 376.397 123.698C376.321 124.45 376.246 125.203 376.246 125.956C376.171 126.708 376.02 127.461 375.945 128.214C375.719 129.719 375.343 131.3 374.967 132.88C374.816 133.633 374.515 134.461 374.289 135.213C374.063 135.966 373.838 136.794 373.461 137.547C373.16 138.299 372.784 139.127 372.483 139.88C372.182 140.633 371.73 141.385 371.429 142.138C370.752 143.643 369.849 144.998 368.945 146.428C368.042 147.783 367.139 149.213 366.085 150.492C364.053 153.127 361.72 155.46 359.311 157.643C354.419 161.933 349 165.244 343.506 167.653C340.721 168.782 338.011 169.836 335.226 170.588C333.872 171.04 332.442 171.266 331.162 171.642C329.807 171.868 328.528 172.169 327.248 172.319C322.13 173.072 317.464 173.223 313.55 173.147C309.636 172.997 306.4 172.696 303.991 172.395C300.604 171.943 296.615 170.889 293.304 169.233C290.067 167.502 287.508 165.244 286.831 162.535C286.153 160.126 287.207 156.815 289.164 154.03C291.046 151.245 293.755 148.987 296.54 148.686C298.422 148.535 300.454 148.987 302.335 149.439C305.572 150.116 309.41 150.718 313.701 150.869C317.991 151.019 322.732 150.718 327.399 149.514C329.732 148.912 332.065 148.084 334.323 147.105C336.581 146.052 338.839 144.772 340.871 143.267C345.011 140.256 348.473 136.342 350.581 131.977C351.107 130.848 351.559 129.794 351.86 128.741C352.236 127.612 352.462 126.483 352.613 125.354C352.989 123.02 352.989 120.687 352.688 118.354C352.086 113.763 350.204 109.774 347.721 107.064C342.979 101.72 334.173 100.29 327.474 99.5376C325.066 99.2365 322.582 99.0107 319.797 98.7849C316.937 98.4838 314.077 98.1075 311.141 97.5807C305.346 96.5269 299.475 94.8711 293.605 92.1615C290.669 90.8068 287.734 89.0756 284.949 86.9682C282.164 84.8608 279.53 82.3017 277.272 79.2911C275.014 76.2805 273.208 72.8936 271.928 69.3561C270.649 65.8186 269.971 62.2058 269.745 58.6684L269.67 57.3136V56.0341C269.67 55.2062 269.595 54.303 269.67 53.3998C269.745 52.4966 269.745 51.5934 269.821 50.6902L270.197 48.0559C270.799 44.5184 271.702 41.0562 272.982 37.8198C274.337 34.5834 275.917 31.4975 277.799 28.5622C279.68 25.7021 281.863 22.9925 284.196 20.5087C286.605 18.025 289.164 15.767 292.024 13.7348L294.207 12.2295C294.959 11.7779 295.712 11.3263 296.465 10.8747C297.217 10.4232 297.97 9.97156 298.723 9.59523C299.475 9.21891 300.228 8.76731 300.981 8.46625C307.152 5.5309 313.701 3.64926 320.249 2.74607C323.937 2.21921 327.173 2.06868 329.883 2.29448C330.56 2.36975 331.237 2.36974 331.839 2.44501C332.442 2.52027 333.044 2.59554 333.571 2.74607C334.624 2.74607 335.603 2.97187 336.431 3.3482Z" fill="#875845"/>
<path d="M336.429 3.34825C335.601 3.04718 334.547 2.74612 333.494 2.52033C332.967 2.44506 332.365 2.29453 331.762 2.21926C331.16 2.144 330.483 2.06873 329.806 2.06873C327.096 1.9182 323.86 1.99347 320.172 2.52033C314.828 3.27298 309.559 4.70303 304.441 6.73519C303.162 7.18679 301.882 7.86418 300.678 8.39104C299.398 8.99316 298.194 9.67055 296.99 10.3479C295.786 11.1006 294.506 11.778 293.377 12.6059L291.646 13.8102L289.99 15.0897C285.549 18.5519 281.711 22.6915 278.55 27.2827C275.389 31.8739 272.905 37.0672 271.324 42.6369C271.625 42.4111 272.002 42.11 272.453 41.5079C279.679 32.0997 288.635 25.0247 298.495 19.9819C292.549 25.1753 288.259 31.7234 286.076 38.5725C285.926 39.0994 285.775 39.7015 285.775 40.1531C285.775 40.6047 286.001 41.0563 286.377 41.0563C286.754 41.1315 287.13 40.8305 287.582 40.6047C290.517 38.5725 293.302 36.2393 295.861 33.6803C295.409 34.5082 294.882 35.2608 294.355 36.0135C293.829 36.7661 293.302 37.5941 292.85 38.3467C292.399 39.1746 292.173 40.0778 292.173 40.9057C292.173 41.7337 292.399 42.4863 292.925 43.0132C293.452 43.54 294.28 43.6906 295.033 43.7658C297.667 43.9916 300.151 43.3895 302.484 42.6369C303.688 41.2821 305.043 40.0026 306.548 38.8736C306.925 38.5725 307.301 38.2715 307.677 37.9704L308.806 37.1425C309.183 36.8414 309.559 36.6156 310.011 36.3898C310.387 36.0888 310.839 35.863 311.29 35.6372C313.021 34.5834 314.828 33.6803 316.709 32.7771C318.591 31.8739 320.548 31.046 322.58 30.218C330.483 26.9064 338.687 24.1968 343.429 17.4229C345.762 14.036 345.762 11.1759 344.181 8.76736C343.429 7.56312 342.224 6.5094 340.945 5.60621C339.44 4.62776 337.934 3.8751 336.429 3.34825Z" fill="#EBD9CD"/>
<path d="M182.739 140.03C182.739 140.03 211.641 146.654 232.264 146.277C252.887 145.976 261.693 136.869 294.659 146.202C327.625 155.535 325.443 190.308 310.54 206.716C295.637 223.123 256.8 224.629 218.942 208.371C181.083 192.114 167.234 153.503 167.234 153.503L182.739 140.03Z" fill="#CCB9AB"/>
<path d="M136.297 156.739C136.297 156.739 141.49 193.469 188.531 212.887C254.012 239.907 306.924 213.414 307.677 204.533C308.429 195.651 251.303 208.07 216.304 195.501C181.306 182.931 172.725 153.804 172.725 153.804L136.297 156.739Z" fill="#EBD9CD"/>
<path d="M255.444 178.115C255.444 178.115 263.422 205.737 289.313 217.027C309.183 225.683 338.537 221.468 338.537 221.468L352.762 219.059C363.224 204.684 361.267 194.448 361.267 194.448L331.387 186.996C331.387 186.996 319.42 160.653 297.216 153.503C275.013 146.353 249.648 154.256 255.444 178.115Z" fill="#875845"/>
<path d="M248.595 237.048C248.595 237.048 253.562 241.79 248.595 246.08L184.017 280.476L166.781 253.983L248.595 237.048Z" fill="#D0704D"/>
<path d="M19.11 245.477C19.11 245.477 15.7983 250.294 20.6153 252.703L88.0533 263.24C88.0533 263.24 89.4833 269.713 99.3431 271.971C113.418 275.282 118.31 267.455 118.31 267.455L184.092 280.476C184.092 280.476 187.253 275.884 183.565 273.1L84.9674 222.822L19.11 245.477Z" fill="#CB542F"/>
<path d="M31.1529 239.757L19.0352 245.477L91.5911 257.219C91.5911 257.219 94.376 264.219 101.903 265.724C109.429 267.229 113.343 261.133 113.343 261.133L183.415 273.025L248.52 236.972L89.4837 214.167L31.1529 239.757Z" fill="#AF381E"/>
<path d="M24.2266 219.812C24.2266 219.812 30.2478 233.435 26.0329 243.972L102.277 254.584L101.976 243.37L93.9225 209.124L24.2266 219.812Z" fill="#D0D2EA"/>
<path d="M242.122 214.167C242.122 214.167 235.423 223.425 242.122 236.972L182.812 269.939L170.469 261.208L175.888 232.833L242.122 214.167Z" fill="#EDEDF7"/>
<path d="M101.977 243.37L149.018 212.963C149.018 212.963 169.64 202.577 185.597 203.781C201.628 204.985 224.509 215.522 242.046 214.167L181.683 250.37L101.977 243.37Z" fill="white"/>
<path d="M101.976 243.37C91.3634 222.22 72.6223 224.629 52.978 228.994C33.3337 233.36 24.2266 219.812 24.2266 219.812C24.2266 219.812 65.2463 207.92 80.751 184.362C80.751 184.362 93.0945 193.243 104.61 193.093C116.126 192.942 136.899 187.598 149.017 212.963L101.976 243.37Z" fill="#EDEDF7"/>
<path d="M101.977 243.37C101.977 243.37 113.718 236.746 135.169 237.048C156.619 237.349 162.415 247.961 181.758 250.37C181.758 250.37 176.941 262.412 182.812 269.939L102.278 254.509L101.977 243.37Z" fill="#D0D2EA"/>
<path fill-rule="evenodd" clip-rule="evenodd" d="M25.8092 229.628C26.1657 229.13 26.8579 229.015 27.3561 229.371C27.3561 229.371 27.3562 229.371 27.3563 229.371L27.3629 229.375C27.37 229.38 27.3824 229.389 27.4001 229.401C27.4355 229.425 27.4921 229.463 27.5694 229.512C27.7241 229.612 27.9618 229.758 28.2797 229.938C28.9157 230.298 29.8719 230.789 31.126 231.296C33.6337 232.31 37.3301 233.387 42.0416 233.606M25.8092 229.628C25.4523 230.126 25.5669 230.819 26.0652 231.176ZM26.0652 231.176L26.7115 230.274ZM26.7115 230.274C26.0652 231.176 26.0656 231.177 26.066 231.177ZM26.066 231.177L26.0669 231.177ZM26.0669 231.177L26.069 231.179ZM26.069 231.179L26.0748 231.183ZM26.0748 231.183L26.0926 231.196ZM26.0926 231.196C26.1072 231.206 26.1272 231.22 26.1527 231.237ZM26.1527 231.237C26.2036 231.271 26.2762 231.32 26.3701 231.38ZM26.3701 231.38C26.558 231.501 26.8313 231.669 27.1872 231.87ZM27.1872 231.87C27.8989 232.273 28.9419 232.807 30.2939 233.354ZM30.2939 233.354C32.9982 234.447 36.9412 235.591 41.9388 235.823ZM55.5273 235.339C50.8246 235.691 46.338 236.026 41.9392 235.823L41.9388 235.823M55.5273 235.339C56.1436 235.293 56.7636 235.246 57.3876 235.201ZM57.3876 235.201C62.7966 234.806 68.5649 234.473 75.0309 234.919ZM57.2262 232.987C62.6555 232.591 68.5534 232.247 75.1836 232.704C75.7951 232.746 76.2566 233.276 76.2144 233.888C76.1722 234.499 75.6424 234.961 75.0309 234.919M57.2262 232.987C56.5979 233.033 55.9766 233.079 55.3618 233.125ZM55.3618 233.125C50.6407 233.478 46.2969 233.802 42.0419 233.606Z" fill="#C3C6E4"/>
<path fill-rule="evenodd" clip-rule="evenodd" d="M63.0308 240.846C62.4264 240.948 62.0191 241.52 62.1211 242.125C62.2231 242.729 62.7954 243.136 63.3997 243.034" fill="#C3C6E4"/>
<path fill-rule="evenodd" clip-rule="evenodd" d="M109.675 247.819L109.677 247.818L109.683 247.816L109.71 247.808C109.735 247.801 109.773 247.79 109.823 247.775C109.924 247.745 110.075 247.701 110.273 247.646C110.669 247.534 111.252 247.375 111.994 247.187C113.478 246.809 115.595 246.314 118.117 245.844C123.171 244.902 129.806 244.072 136.224 244.477C148.278 245.305 156.173 249.977 166.198 255.909C166.871 256.308 167.554 256.712 168.249 257.121C168.777 257.432 169.457 257.256 169.768 256.728C170.079 256.2 169.903 255.52 169.375 255.209C168.659 254.787 167.953 254.369 167.255 253.955C157.288 248.053 148.969 243.126 136.373 242.263L136.367 242.262C129.691 241.84 122.854 242.703 117.71 243.662C115.133 244.142 112.969 244.649 111.447 245.036C110.686 245.229 110.085 245.393 109.673 245.509C109.466 245.567 109.307 245.613 109.199 245.645C109.145 245.661 109.103 245.673 109.075 245.681L109.042 245.691L109.03 245.695C109.029 245.695 109.029 245.695 109.352 246.757L109.03 245.695C108.443 245.873 108.112 246.494 108.291 247.08C108.469 247.666 109.089 247.997 109.675 247.819Z" fill="#C3C6E4"/>
<path fill-rule="evenodd" clip-rule="evenodd" d="M133.825 252.759L133.83 252.759L133.854 252.759C133.877 252.759 133.913 252.759 133.962 252.76C134.059 252.761 134.207 252.763 134.402 252.769C134.792 252.78 135.37 252.806 136.111 252.863C137.592 252.977 139.718 253.214 142.277 253.708C147.399 254.698 154.231 256.712 161.092 260.807C161.619 261.121 162.3 260.949 162.614 260.422C162.928 259.896 162.756 259.215 162.23 258.9C155.092 254.641 148 252.553 142.698 251.529C140.045 251.017 137.834 250.769 136.281 250.65C135.504 250.59 134.891 250.563 134.469 250.55C134.258 250.544 134.094 250.541 133.982 250.54C133.926 250.54 133.882 250.54 133.852 250.54L133.816 250.54L133.806 250.54L133.802 250.54C133.801 250.54 133.801 250.54 133.813 251.65L133.801 250.54C133.188 250.546 132.697 251.049 132.703 251.662C132.71 252.275 133.212 252.766 133.825 252.759Z" fill="#C3C6E4"/>
<path fill-rule="evenodd" clip-rule="evenodd" d="M101.947 242.261C102.56 242.244 103.07 242.728 103.086 243.34L103.388 254.555C103.404 255.168 102.921 255.678 102.308 255.694C101.695 255.711 101.185 255.227 101.169 254.614L100.868 243.4C100.851 242.787 101.335 242.277 101.947 242.261Z" fill="#C3C6E4"/>
<path fill-rule="evenodd" clip-rule="evenodd" d="M241.724 222.257C242.036 222.785 241.862 223.465 241.334 223.778L206.863 244.175C206.335 244.487 205.654 244.312 205.342 243.785C205.03 243.257 205.205 242.576 205.732 242.264L240.204 221.867C240.731 221.555 241.412 221.73 241.724 222.257Z" fill="#D0D2EA"/>
<path fill-rule="evenodd" clip-rule="evenodd" d="M229.47 238.769C229.767 239.305 229.572 239.98 229.036 240.277L194.339 259.47C193.802 259.766 193.127 259.572 192.83 259.036C192.534 258.499 192.728 257.824 193.264 257.527L227.962 238.335C228.498 238.038 229.173 238.232 229.47 238.769Z" fill="#D0D2EA"/>
<path fill-rule="evenodd" clip-rule="evenodd" d="M68.9458 218.655C64.404 219.237 59.6452 219.777 54.7597 218.635C54.1628 218.495 53.7922 217.898 53.9318 217.301C54.0713 216.705 54.6683 216.334 55.2652 216.473C59.7125 217.514 64.0985 217.038 68.6638 216.453C68.9078 216.422 69.1524 216.39 69.3976 216.359C73.6817 215.805 78.1438 215.229 82.6726 216.009L82.6729 216.009C91.6374 217.554 99.9119 221.96 106.102 228.615C106.52 229.064 106.495 229.766 106.046 230.183C105.597 230.601 104.895 230.576 104.477 230.127C98.6253 223.836 90.7928 219.661 82.2958 218.196C78.1069 217.475 73.9529 218.01 69.5893 218.572C69.3753 218.6 69.1609 218.627 68.9458 218.655Z" fill="#C3C6E4"/>
<path fill-rule="evenodd" clip-rule="evenodd" d="M105.864 216.753C100.815 213.353 94.0196 210.048 86.7789 210.084C79.2156 210.121 73.3268 210.159 69.3291 210.187C67.3302 210.201 65.804 210.213 64.7777 210.221C64.2646 210.225 63.8764 210.229 63.6165 210.231L63.2256 210.234C63.2255 210.234 63.2252 210.234 63.2153 209.124C63.2054 208.015 63.2054 208.015 63.2055 208.015L63.5976 208.011C63.8579 208.009 64.2464 208.006 64.7599 208.002C65.7869 207.993 67.3138 207.982 69.3134 207.968C73.3126 207.939 79.2029 207.902 86.7679 207.864C94.6556 207.825 101.898 211.406 107.103 214.912C109.718 216.673 111.85 218.435 113.328 219.758C114.068 220.42 114.646 220.973 115.041 221.363C115.239 221.558 115.391 221.712 115.494 221.819C115.546 221.872 115.586 221.914 115.613 221.942L115.645 221.976L115.654 221.985L115.658 221.989C115.658 221.989 115.658 221.99 114.847 222.747L115.658 221.99C116.077 222.437 116.053 223.14 115.605 223.558C115.158 223.977 114.455 223.953 114.037 223.505L114.036 223.505L114.031 223.499L114.006 223.473C113.984 223.45 113.949 223.413 113.902 223.365C113.809 223.269 113.668 223.126 113.482 222.942C113.11 222.575 112.559 222.047 111.848 221.412C110.427 220.14 108.376 218.445 105.864 216.753ZM62.1055 209.134C62.1 208.521 62.5926 208.02 63.2055 208.015L63.2153 209.124L63.2256 210.234C62.6127 210.24 62.111 209.747 62.1055 209.134Z" fill="#C3C6E4"/>
<path fill-rule="evenodd" clip-rule="evenodd" d="M80.149 198.813L80.0258 197.71C79.4167 197.778 78.978 198.327 79.046 198.936C79.114 199.545 79.6627 199.983 80.2717 199.916L80.272 199.916L80.2721 199.916L80.2746 199.915L80.2883 199.914L80.3487 199.908C80.4034 199.902 80.4869 199.894 80.5978 199.885C80.8195 199.865 81.1505 199.839 81.5797 199.813C82.4382 199.761 83.6882 199.709 85.2403 199.712C88.3465 199.718 92.6507 199.943 97.4395 200.817C107.036 202.569 118.446 206.904 126.152 217.166C126.52 217.657 127.216 217.756 127.706 217.388C128.196 217.019 128.295 216.324 127.927 215.834C119.752 204.947 107.717 200.437 97.8382 198.633C92.8895 197.73 88.4488 197.498 85.2444 197.492C83.6412 197.489 82.3446 197.543 81.4452 197.597C80.9954 197.625 80.6447 197.652 80.4045 197.673C80.2843 197.684 80.1918 197.693 80.1282 197.699C80.0964 197.702 80.0719 197.705 80.0547 197.707L80.0347 197.709L80.0288 197.709L80.027 197.71C80.0264 197.71 80.0258 197.71 80.149 198.813Z" fill="#C3C6E4"/>
<path fill-rule="evenodd" clip-rule="evenodd" d="M92.6758 188.943C92.7647 188.336 93.3285 187.917 93.9349 188.006L93.7739 189.104C93.9349 188.006 93.9353 188.006 93.9358 188.006L93.9424 188.007L93.9611 188.009L94.0312 188.02C94.0925 188.03 94.1824 188.044 94.2994 188.062C94.5334 188.1 94.8762 188.157 95.3157 188.235C96.1946 188.391 97.4611 188.631 99.0199 188.967C102.136 189.638 106.428 190.697 111.131 192.246C120.488 195.327 131.674 200.411 138.355 208.413C138.748 208.883 138.685 209.583 138.214 209.976C137.744 210.369 137.044 210.306 136.651 209.836C130.387 202.333 119.708 197.407 110.437 194.354C105.826 192.835 101.612 191.796 98.5522 191.136C97.0228 190.807 95.7832 190.572 94.9281 190.421C94.5006 190.345 94.1693 190.29 93.9461 190.254C93.8345 190.236 93.7499 190.223 93.6939 190.214L93.6314 190.204L93.6165 190.202L93.6132 190.202" fill="#C3C6E4"/>
<path fill-rule="evenodd" clip-rule="evenodd" d="M131.447 229.75L131.452 229.748L131.475 229.741C131.497 229.734 131.53 229.724 131.575 229.71C131.665 229.683 131.803 229.642 131.984 229.591C132.347 229.489 132.886 229.346 133.579 229.184C134.965 228.86 136.966 228.464 139.402 228.177C144.281 227.605 150.873 227.479 157.777 229.242L157.778 229.242C164.289 230.896 168.57 233.007 172.494 234.942C172.781 235.083 173.065 235.224 173.349 235.363C177.537 237.419 181.484 239.223 187.37 239.808C187.98 239.869 188.524 239.423 188.585 238.813C188.645 238.204 188.2 237.66 187.59 237.599C182.111 237.055 178.456 235.397 174.327 233.37C174.042 233.23 173.754 233.088 173.464 232.945C169.529 231.004 165.066 228.803 158.326 227.091C151.08 225.241 144.199 225.379 139.143 225.973C136.612 226.27 134.529 226.683 133.074 227.022C132.347 227.192 131.776 227.344 131.383 227.454C131.187 227.509 131.036 227.554 130.932 227.586C130.88 227.601 130.839 227.614 130.811 227.623L130.779 227.633L130.769 227.636L130.765 227.637C130.765 227.637 130.765 227.638 131.106 228.693L130.765 227.638C130.181 227.826 129.862 228.452 130.05 229.035C130.239 229.618 130.864 229.938 131.447 229.75Z" fill="#C3C6E4"/>
<path fill-rule="evenodd" clip-rule="evenodd" d="M143.825 220.489L143.483 219.433C142.9 219.622 142.58 220.248 142.769 220.831C142.958 221.414 143.583 221.734 144.166 221.545L144.171 221.544L144.194 221.537C144.215 221.53 144.249 221.52 144.294 221.506C144.384 221.479 144.521 221.438 144.703 221.387C145.066 221.285 145.605 221.142 146.298 220.98C147.684 220.656 149.684 220.259 152.121 219.973C157 219.4 163.591 219.275 170.495 221.038L170.497 221.038C177.007 222.692 181.289 224.803 185.213 226.738C185.499 226.879 185.784 227.019 186.068 227.159C190.256 229.215 194.203 231.019 200.089 231.604C200.699 231.665 201.243 231.219 201.303 230.609C201.364 229.999 200.919 229.456 200.309 229.395C194.83 228.851 191.175 227.193 187.046 225.166C186.761 225.026 186.473 224.884 186.183 224.741C182.248 222.8 177.785 220.599 171.044 218.887C163.799 217.037 156.918 217.175 151.862 217.769C149.331 218.066 147.248 218.479 145.793 218.818C145.065 218.988 144.494 219.14 144.102 219.25C143.906 219.305 143.754 219.35 143.65 219.382C143.598 219.397 143.558 219.41 143.53 219.419L143.497 219.429L143.488 219.432L143.484 219.433C143.484 219.433 143.483 219.433 143.825 220.489Z" fill="#C3C6E4"/>
<path fill-rule="evenodd" clip-rule="evenodd" d="M157.149 212.812L156.808 211.756C156.224 211.945 155.905 212.571 156.093 213.154C156.282 213.737 156.907 214.057 157.49 213.868L157.495 213.867L157.518 213.859C157.54 213.853 157.573 213.842 157.618 213.829C157.708 213.801 157.846 213.761 158.027 213.71C158.39 213.608 158.929 213.464 159.622 213.302C161.008 212.979 163.009 212.582 165.445 212.296C170.324 211.723 176.916 211.598 183.82 213.361L183.821 213.361C190.331 215.014 194.613 217.126 198.537 219.06C198.824 219.202 199.108 219.342 199.392 219.481C203.58 221.538 207.527 223.342 213.413 223.927C214.023 223.987 214.567 223.542 214.627 222.932C214.688 222.322 214.243 221.779 213.633 221.718C208.154 221.174 204.499 219.516 200.37 217.489C200.085 217.349 199.797 217.207 199.507 217.064C195.572 215.123 191.109 212.922 184.369 211.21C177.123 209.36 170.242 209.498 165.186 210.092C162.655 210.389 160.572 210.801 159.117 211.141C158.39 211.311 157.818 211.463 157.426 211.573C157.23 211.628 157.079 211.673 156.975 211.704C156.923 211.72 156.882 211.733 156.854 211.741L156.822 211.752L156.812 211.755L156.808 211.756C156.808 211.756 156.808 211.756 157.149 212.812Z" fill="#C3C6E4"/>
<path d="M99.0426 175.104C99.0426 175.104 69.5385 199.415 89.5592 206.565C104.462 211.834 137.428 197.082 153.535 189.179C138.557 172.771 136.374 156.814 136.374 156.814L99.0426 175.104Z" fill="#7A5545"/>
<path d="M62.0092 95.2472C62.0092 95.2472 51.0957 32.0242 65.2456 24.7987C77.7397 18.4011 108.824 46.1741 112.964 54.9049C112.964 54.9049 75.8581 83.8821 62.0092 95.2472Z" fill="#875845"/>
<path d="M101.6 53.7757C101.6 53.7757 80.9021 60.7001 66.9027 76.5812C66.9027 76.5812 62.462 38.271 70.2144 33.0024C74.2787 30.2929 94.0736 43.9159 101.6 53.7757Z" fill="#CCB9AB"/>
<path d="M238.883 86.1397C238.883 86.1397 243.249 22.0887 228.421 16.3685C215.325 11.3257 187.326 42.1093 184.09 51.2165C184.09 51.2165 223.981 76.2046 238.883 86.1397Z" fill="#875845"/>
<path d="M195.305 48.9581C195.305 48.9581 216.605 53.6999 232.185 68.0756C232.185 68.0756 232.712 29.5396 224.432 25.0989C220.067 22.7657 201.702 38.3457 195.305 48.9581Z" fill="#CCB9AB"/>
<path fill-rule="evenodd" clip-rule="evenodd" d="M149.317 44.1415C206.068 41.2061 241.894 67.6996 241.593 85.9891C241.292 101.945 234.367 115.267 223.755 130.998C209.003 152.975 186.95 164.642 150.973 165.47C117.555 166.222 94.7498 156.137 79.772 137.019C67.0521 120.762 64.2673 108.418 62.0846 95.2468C58.2461 71.9145 92.5671 47.0768 149.317 44.1415Z" fill="#EBD9CD"/>
<path d="M210.585 69.5058C196.209 58.8934 160.985 63.334 149.243 75.9034L148.114 75.9786C130.502 59.646 99.7938 63.9361 86.6223 75.9034C73.3756 87.8706 72.1713 107.364 80.1495 125.202C90.3856 148.309 125.083 154.556 125.083 154.556C143.899 156.513 151.727 152.373 152.781 151.771C153.834 152.223 162.038 155.534 180.554 151.621C180.554 151.621 214.423 141.836 222.251 117.826C228.197 99.3109 224.96 80.043 210.585 69.5058Z" fill="#875845"/>
<path d="M194.405 92.4621C194.857 94.72 193.427 96.8275 191.244 97.3543C189.061 97.8059 186.879 96.3759 186.427 94.1932C185.976 91.9352 187.406 89.8278 189.588 89.3009C191.771 88.7741 193.954 90.2794 194.405 92.4621Z" fill="white"/>
<path d="M211.866 89.5266C209.307 77.1831 197.189 69.2049 184.846 71.7639C172.502 74.323 164.524 86.4407 167.083 98.7843C169.642 111.128 181.76 119.106 194.104 116.547C206.447 113.988 214.425 101.87 211.866 89.5266Z" fill="#71C2E3"/>
<path d="M133.89 93.5159C131.331 81.1723 119.213 73.1942 106.869 75.7532C94.5258 78.3122 86.5477 90.43 89.1067 102.774C91.6657 115.117 103.783 123.095 116.127 120.536C128.471 118.052 136.449 105.935 133.89 93.5159Z" fill="#71C2E3"/>
<path d="M132.01 97.2788C130.429 89.677 122.978 84.7094 115.376 86.29C107.774 87.8706 102.807 95.3219 104.387 102.924C105.968 110.526 113.419 115.493 121.021 113.912C128.623 112.407 133.515 104.956 132.01 97.2788Z" fill="#0B1411"/>
<path d="M180.856 82.9787C188.457 81.3981 195.984 86.2904 197.489 93.9674C199.07 101.569 194.178 109.021 186.501 110.601C178.899 112.182 171.447 107.289 169.867 99.6124C168.286 92.0105 173.179 84.5593 180.856 82.9787Z" fill="#0B1411"/>
<path d="M119.288 105.483C119.74 107.741 118.31 109.924 116.127 110.376C113.869 110.827 111.762 109.397 111.31 107.214C110.858 104.956 112.288 102.849 114.471 102.322C116.654 101.871 118.836 103.301 119.288 105.483Z" fill="white"/>
<path d="M180.704 107.967C182.962 107.515 184.392 105.333 183.865 103.075C183.413 100.817 181.231 99.3867 179.048 99.9135C176.79 100.365 175.36 102.548 175.887 104.806C176.338 107.064 178.446 108.419 180.704 107.967Z" fill="white"/>
<path d="M149.771 109.999C149.771 109.999 118.31 110.752 109.655 129.869C102.053 146.804 122.525 161.556 152.932 159.975C183.34 158.395 196.662 143.793 194.253 127.385C192.522 115.268 163.695 109.397 149.771 109.999Z" fill="white"/>
<path d="M150.675 125.88C151.729 126.783 159.556 133.105 167.911 129.267C167.911 129.267 168.739 135.74 164.373 140.406C164.373 140.406 160.61 135.439 152.406 135.363C144.202 135.288 138.858 140.707 138.858 140.707C134.944 136.718 135.02 131.374 135.02 131.374C135.02 131.374 145.03 132.428 150.524 125.805C150.6 125.729 150.6 125.805 150.675 125.88Z" fill="#0A1311"/>
<path d="M152.407 135.364C160.611 135.439 164.374 140.406 164.374 140.406C162.116 142.815 158.428 144.696 152.558 144.998C145.558 145.299 141.343 143.266 138.859 140.707C138.935 140.707 144.203 135.288 152.407 135.364Z" fill="#CB542F"/>
<path fill-rule="evenodd" clip-rule="evenodd" d="M150.335 117.467C150.825 117.446 151.239 117.826 151.259 118.316L151.636 127.197C151.656 127.687 151.276 128.101 150.786 128.122C150.296 128.143 149.882 127.763 149.862 127.273L149.485 118.391C149.464 117.901 149.845 117.487 150.335 117.467Z" fill="#0B1411"/>
<path fill-rule="evenodd" clip-rule="evenodd" d="M130.149 120.327C130.638 120.298 131.059 120.671 131.088 121.161C131.117 121.65 130.744 122.071 130.254 122.1L130.202 121.214L130.149 120.327ZM130.149 120.327C130.149 120.327 130.149 120.327 130.202 121.214C130.254 122.1 130.254 122.1 130.254 122.1L130.127 122.108C130.043 122.113 129.918 122.12 129.753 122.13C129.425 122.151 128.939 122.181 128.315 122.22C127.066 122.3 125.26 122.418 123.031 122.572C118.574 122.88 112.428 123.331 105.674 123.905C92.1498 125.053 76.2415 126.687 66.5511 128.632C66.0703 128.729 65.6023 128.417 65.5058 127.936C65.4093 127.456 65.7208 126.988 66.2016 126.891C76.0049 124.923 92.0093 123.283 105.524 122.135C112.29 121.561 118.445 121.109 122.909 120.801C125.141 120.646 126.95 120.528 128.202 120.448C128.828 120.408 129.314 120.378 129.644 120.358C129.809 120.348 129.935 120.34 130.02 120.335L130.149 120.327Z" fill="#0B1411"/>
<path fill-rule="evenodd" clip-rule="evenodd" d="M125.664 124.633C126.145 124.538 126.612 124.851 126.707 125.332C126.802 125.813 126.489 126.28 126.008 126.375L125.836 125.504L125.664 124.633ZM125.664 124.633C125.664 124.633 125.664 124.633 125.836 125.504C126.008 126.375 126.008 126.375 126.008 126.375L125.534 126.469C125.223 126.531 124.763 126.623 124.17 126.743C122.985 126.982 121.268 127.332 119.144 127.773C114.894 128.654 109.014 129.9 102.49 131.357C89.431 134.273 73.8331 138.028 63.5675 141.4C63.1017 141.553 62.5999 141.3 62.4469 140.834C62.2939 140.368 62.5475 139.866 63.0134 139.713C73.3706 136.311 89.0455 132.54 102.103 129.624C108.638 128.164 114.527 126.917 118.783 126.034C120.911 125.593 122.631 125.242 123.819 125.002C124.413 124.882 124.874 124.79 125.186 124.728L125.664 124.633Z" fill="#0B1411"/>
<path fill-rule="evenodd" clip-rule="evenodd" d="M130.667 128.385C130.821 128.85 130.569 129.353 130.104 129.508C117.105 133.828 104.723 138.563 95.5882 142.219C91.0214 144.046 87.2678 145.604 84.6566 146.704C83.351 147.254 82.331 147.69 81.6378 147.988C81.2912 148.137 81.0264 148.251 80.8484 148.328L80.6471 148.416L80.5809 148.445L80.5802 148.445C80.58 148.445 80.58 148.445 80.224 147.632C79.868 146.819 79.8681 146.818 79.8683 146.818L79.9376 146.788L80.1415 146.699C80.3212 146.621 80.5879 146.506 80.9364 146.356C81.6333 146.057 82.6572 145.619 83.9671 145.067C86.5868 143.964 90.3504 142.402 94.9284 140.57C104.083 136.906 116.501 132.158 129.544 127.822C130.009 127.668 130.512 127.92 130.667 128.385ZM79.4106 147.988C79.214 147.539 79.4191 147.015 79.8683 146.818L80.224 147.632L80.5802 148.445C80.131 148.642 79.6072 148.437 79.4106 147.988Z" fill="#0B1411"/>
<path fill-rule="evenodd" clip-rule="evenodd" d="M172.916 119.842C172.915 119.842 172.915 119.842 172.876 118.961L172.916 119.842C172.426 119.864 172.011 119.484 171.989 118.995C171.968 118.505 172.347 118.09 172.837 118.068L172.876 118.955C172.837 118.068 172.837 118.068 172.837 118.068L172.966 118.063C173.05 118.059 173.176 118.054 173.342 118.047C173.672 118.033 174.158 118.013 174.784 117.988C176.037 117.938 177.847 117.869 180.082 117.792C184.55 117.638 190.715 117.452 197.5 117.324C211.052 117.071 227.132 117.05 237.086 117.996C237.575 118.043 237.933 118.476 237.886 118.964C237.84 119.452 237.407 119.81 236.918 119.764C227.078 118.829 211.095 118.846 197.533 119.1C190.76 119.227 184.605 119.412 180.143 119.566C177.912 119.643 176.104 119.712 174.855 119.762C174.23 119.787 173.745 119.807 173.416 119.821C173.252 119.828 173.126 119.833 173.042 119.837L172.916 119.842Z" fill="#0B1411"/>
<path fill-rule="evenodd" clip-rule="evenodd" d="M176.808 122.787C176.853 122.299 177.286 121.94 177.774 121.985L177.693 122.869L177.611 123.753C177.123 123.708 176.764 123.276 176.808 122.787ZM177.693 122.869C177.611 123.753 177.611 123.753 177.611 123.753L178.092 123.798C178.408 123.827 178.875 123.872 179.476 123.93C180.679 124.045 182.422 124.216 184.579 124.435C188.894 124.874 194.869 125.506 201.505 126.281C214.79 127.834 230.689 129.956 241.255 132.241C241.734 132.345 242.207 132.041 242.31 131.561C242.414 131.082 242.11 130.61 241.63 130.506C230.971 128.2 214.995 126.07 201.711 124.518C195.064 123.741 189.08 123.108 184.759 122.669C182.598 122.449 180.852 122.278 179.646 122.162C179.044 122.104 178.576 122.06 178.259 122.03L177.774 121.985C177.774 121.984 177.774 121.985 177.693 122.869Z" fill="#0B1411"/>
<path fill-rule="evenodd" clip-rule="evenodd" d="M173.138 126.216C173.243 125.737 173.716 125.434 174.195 125.539C187.616 128.48 200.467 131.909 209.961 134.603C214.709 135.95 218.618 137.113 221.342 137.94C222.704 138.354 223.769 138.683 224.494 138.909C224.857 139.022 225.134 139.11 225.321 139.169L225.534 139.236L225.606 139.259C225.606 139.259 225.606 139.259 225.336 140.105C225.067 140.951 225.066 140.951 225.066 140.95L224.997 140.928L224.787 140.862C224.602 140.804 224.326 140.717 223.965 140.605C223.244 140.38 222.183 140.052 220.826 139.639C218.111 138.815 214.212 137.655 209.476 136.311C200.003 133.623 187.189 130.204 173.815 127.274C173.336 127.169 173.033 126.695 173.138 126.216ZM226.182 140.375C226.033 140.842 225.533 141.1 225.066 140.95L225.336 140.105L225.606 139.259C226.073 139.408 226.331 139.907 226.182 140.375Z" fill="#0B1411"/>
<path d="M150.974 103.903C158.952 103.752 165.5 106.537 165.576 110.074C165.651 113.612 150.447 118.278 150.447 118.278C150.447 118.278 136.674 114.063 136.598 110.526C136.523 107.064 142.921 104.053 150.974 103.903Z" fill="#CF7071"/>
<path d="M88.0548 157.567C88.0548 157.567 72.9264 188.125 73.9049 196.63C74.8833 205.135 97.6135 215.296 106.42 201.974C111.387 194.448 111.086 164.718 111.086 164.718C111.086 164.718 98.7425 164.341 88.0548 157.567Z" fill="#875845"/>
<path d="M88.958 164.341C91.8933 165.922 94.9792 166.975 97.463 167.352C101.678 167.954 106.119 167.051 109.807 164.793C112.968 162.836 113.871 159.599 113.419 156.062C113.043 153.277 111.763 150.567 109.43 149.062C108.301 148.385 107.097 147.933 105.968 147.256C103.936 145.976 102.656 143.718 101.302 141.686C99.9467 139.654 98.1404 137.697 95.7319 137.17C93.3234 136.719 90.4633 138.676 90.9149 141.084C89.4096 139.202 86.7 138.073 84.442 138.901C82.1841 139.729 80.9046 142.815 82.2593 144.847C81.2809 144.095 79.7003 144.32 78.7219 145.148C77.7434 145.976 77.2918 147.256 77.1413 148.535C76.3886 154.933 82.4851 160.804 88.958 164.341Z" fill="#CCB9AB"/>
<path d="M226.394 144.998C226.394 144.998 218.265 141.762 206.674 157.567C202.158 163.739 196.212 189.329 196.212 189.329L172.955 207.77C172.955 207.77 170.02 223.048 189.137 224.328C189.137 224.328 207.05 213.941 225.039 204.533C234.296 199.716 240.995 170.739 240.995 170.739C240.995 170.739 244.231 145.149 226.394 144.998Z" fill="#875845"/>
<path d="M174.007 206.189C174.007 206.189 160.836 205.737 153.685 213.489C146.61 221.242 154.212 224.026 154.212 224.026C154.212 224.026 151.051 230.876 157.825 231.929C164.599 233.058 164.599 233.058 164.599 233.058C164.599 233.058 163.47 237.8 171.824 237.273C180.179 236.822 187.555 232.381 190.415 222.145C190.415 222.22 187.63 206.113 174.007 206.189Z" fill="#CCB9AB"/>
</svg>
