<svg width="400" height="280" viewBox="0 0 400 280" fill="none" xmlns="http://www.w3.org/2000/svg">
<path fill-rule="evenodd" clip-rule="evenodd" d="M86.6968 21.4075C121.931 -1.88081 164.754 26.3131 206.635 31.5883C251.143 37.1944 303.405 18.5816 332.838 52.411C366.314 90.8867 372.215 150.677 350.394 196.821C329.749 240.478 278.382 254.52 231.601 266.492C188.576 277.502 143.065 282.705 105.189 259.573C64.9926 235.024 37.5531 192.728 33.906 145.755C30.2402 98.5421 47.1685 47.534 86.6968 21.4075Z" fill="#FFF1CB"/>
<path d="M243.165 191.61C243.165 191.61 217.821 191.54 216.765 207.31C215.991 218.785 222.045 227.515 235.773 233.147C240.068 234.907 249.713 235.54 252.106 232.091C254.5 228.641 258.794 195.693 258.794 195.693C258.794 195.693 253.092 189.217 243.165 191.61Z" fill="#636363"/>
<path d="M377.701 67.4229C380.799 67.9157 384.108 69.3237 385.727 71.5765C386.501 72.7029 386.924 73.8294 386.783 75.0966C386.642 76.3638 386.079 77.7014 385.023 79.1798C384.319 80.1655 383.615 81.0807 382.911 81.9255C382.207 82.7703 381.433 83.6151 380.728 84.3895C380.376 84.7415 380.024 85.1639 379.672 85.5159C379.32 85.8679 378.968 86.2904 378.687 86.572C378.405 86.924 378.053 87.276 377.701 87.6984C377.56 87.8392 377.42 88.0504 377.208 88.1912C377.068 88.4024 376.927 88.5432 376.786 88.7544C375.589 90.092 374.463 91.5 373.548 92.8376C372.562 94.1753 371.717 95.5129 371.154 96.7801C370.52 98.0473 370.239 99.1737 370.098 100.089C370.098 100.23 370.028 100.3 370.028 100.441C369.957 100.511 370.028 100.723 369.957 100.863C369.957 101.004 369.887 101.145 369.887 101.356V101.849C369.887 101.99 369.816 102.131 369.816 102.342C369.816 102.483 369.816 102.694 369.816 102.835C369.816 103.187 369.816 103.539 369.816 103.891C369.887 105.299 370.168 106.918 370.661 108.607C371.154 110.227 371.788 111.846 372.421 113.324C372.421 113.324 372.773 113.888 373.336 114.873C373.97 115.859 374.885 117.337 376.293 119.168C376.645 119.66 376.997 120.083 377.42 120.576C377.842 121.139 378.264 121.632 378.757 122.265C379.743 123.462 380.799 124.729 381.855 126.067C384.108 128.813 386.853 132.121 389.599 136.064C391.007 138.035 392.345 140.218 393.682 142.611C395.02 145.005 396.217 147.61 397.202 150.426L397.906 152.538L398.54 154.791L399.033 157.043C399.174 157.818 399.314 158.522 399.455 159.296C399.948 162.323 400.089 165.351 399.948 168.308C399.737 174.221 398.399 179.994 396.287 185.063C395.724 186.33 395.161 187.597 394.527 188.724C394.386 189.005 394.246 189.287 394.034 189.639C393.894 189.921 393.682 190.202 393.541 190.484C393.189 191.047 392.908 191.61 392.556 192.103C391.922 193.159 391.148 194.145 390.444 195.13C389.74 196.116 388.965 197.031 388.191 197.876C387.839 198.298 387.487 198.721 386.994 199.214C386.572 199.636 386.079 200.129 385.516 200.622C384.53 201.678 383.263 202.663 381.925 203.719C379.18 205.831 375.8 207.943 371.999 209.703C368.197 211.463 363.903 212.731 359.538 213.646C355.173 214.491 350.738 214.913 346.373 214.983C337.643 215.124 329.406 213.927 322.577 212.519C315.748 211.111 310.398 209.492 307.23 208.647C302.654 207.38 296.74 204.423 295.966 199.847C295.262 195.764 299.627 188.02 304.273 187.668C305.822 187.527 307.441 188.09 308.99 188.583C314.129 190.273 321.38 192.385 329.547 193.722C333.63 194.356 337.925 194.778 342.29 194.849C346.654 194.919 351.019 194.497 355.173 193.582C359.256 192.596 363.128 191.188 366.296 189.076C369.464 187.105 371.928 184.5 373.829 181.754C377.701 176.192 378.476 170.068 378.264 165.914C378.194 164.435 377.983 162.887 377.701 161.479C377.349 160 376.856 158.663 376.293 157.255C375.73 155.847 374.956 154.439 374.111 153.031C373.266 151.623 372.28 150.214 371.224 148.806C369.042 145.99 366.578 143.174 363.903 140.147C362.565 138.669 361.227 137.12 359.819 135.501C358.411 133.881 356.933 132.121 355.595 130.291C352.85 126.63 350.315 122.547 348.203 117.9C347.218 115.577 346.302 113.043 345.598 110.368C344.965 107.692 344.472 104.806 344.472 101.849C344.402 101.145 344.472 100.371 344.542 99.5961C344.542 98.8217 344.613 98.1177 344.683 97.3433C344.754 96.5689 344.894 95.8649 344.965 95.0905C345.106 94.3161 345.317 93.5417 345.528 92.6968L345.81 91.5C345.95 91.148 346.091 90.7256 346.232 90.3736C346.514 89.5992 346.795 88.8952 347.077 88.1208C347.429 87.4168 347.781 86.7128 348.133 86.0087L348.696 84.9527C348.907 84.6007 349.118 84.2487 349.33 83.9671C349.752 83.3335 350.174 82.6295 350.597 81.9959C351.019 81.3623 351.512 80.7287 352.005 80.1655C352.92 78.8982 354.047 77.8422 355.103 76.7158C357.355 74.6038 359.749 72.7029 362.424 71.1541C363.903 70.2389 365.381 69.6053 366.789 68.9717C367.493 68.6901 368.197 68.4789 368.901 68.2677C369.605 68.0565 370.239 67.8453 370.872 67.7045C372.21 67.4933 373.407 67.2821 374.533 67.2117C375.8 67.2821 376.786 67.2821 377.701 67.4229Z" fill="#636363"/>
<path d="M377.702 67.4228C376.787 67.282 375.801 67.282 374.675 67.282C373.549 67.282 372.352 67.4932 371.014 67.7748C370.38 67.9156 369.676 68.1268 369.043 68.338C368.339 68.5492 367.635 68.7604 366.931 69.042C365.523 69.6756 364.044 70.3092 362.566 71.2244C358.272 73.7589 354.47 77.0677 351.443 81.151C348.415 85.1638 346.163 90.0215 345.177 95.2312C344.332 100.159 344.614 105.087 345.529 109.452C346.515 113.887 348.134 117.83 350.035 121.35C350.105 121.068 350.175 120.716 350.175 120.153C349.964 115.859 349.894 111.353 350.316 106.847C350.598 104.595 350.879 102.342 351.443 100.089C351.654 98.9624 352.076 97.9064 352.358 96.78L352.991 95.1608C353.203 94.5976 353.414 94.0344 353.695 93.5416C352.569 100.159 354.399 106.143 357.216 110.86C357.427 111.212 357.708 111.635 357.99 111.846C358.272 112.057 358.624 112.198 358.905 111.987C359.187 111.775 359.257 111.423 359.398 111.071C359.961 108.326 360.243 105.58 360.243 102.975C360.665 104.243 360.876 105.651 361.369 106.918C361.651 107.551 362.073 108.185 362.566 108.607C363.059 109.03 363.692 109.311 364.326 109.241C364.96 109.171 365.593 108.819 366.086 108.396C367.916 106.988 369.043 105.228 370.028 103.891C369.958 102.835 369.958 101.849 370.099 100.934C370.099 100.652 370.169 100.511 370.169 100.37C370.24 100.23 370.169 100.018 370.24 99.8073C370.31 99.5961 370.31 99.4553 370.38 99.2441C370.451 99.0329 370.521 98.8217 370.592 98.6104C370.873 97.7656 371.225 96.78 371.789 95.8648L372 95.5128L372.211 95.1608C372.352 94.9496 372.493 94.668 372.633 94.3864C372.985 93.964 373.267 93.3304 373.689 92.908C375.168 90.8663 376.857 88.8247 378.829 86.6423C379.321 86.1495 379.814 85.5863 380.307 84.9526C380.8 84.3894 381.363 83.8262 381.856 83.1926C382.419 82.559 382.912 81.9254 383.475 81.2918C384.038 80.6582 384.531 79.9542 385.024 79.1798C386.01 77.7013 386.643 76.3637 386.784 75.0965C386.925 73.8293 386.502 72.6325 385.728 71.5764C384.179 69.394 380.87 67.986 377.702 67.4228Z" fill="#A8A8A8"/>
<path d="M256.4 135.923C256.4 135.923 244.643 147.75 237.744 155.565C230.844 163.379 209.302 167.04 209.302 167.04C209.302 167.04 198.741 171.053 199.938 176.474C201.206 181.895 218.454 187.527 234.153 185.978C249.853 184.429 260.202 175.629 262.877 164.365C265.622 153.031 256.4 135.923 256.4 135.923Z" fill="#636363"/>
<path d="M203.318 180.628C207.965 179.149 209.795 171.335 209.795 171.335C209.795 171.335 209.373 160.986 204.937 157.959C200.502 154.931 199.516 159.155 199.516 159.155C199.516 159.155 197.193 152.678 191.984 154.157C186.844 155.635 188.534 160.563 188.534 160.563C188.534 160.563 182.691 161.056 183.747 165.421L184.38 167.392C184.38 167.392 181.564 168.378 183.606 171.335C185.647 174.292 186.07 175.559 194.096 178.938C197.545 180.346 203.318 180.628 203.318 180.628Z" fill="#A8A8A8"/>
<path d="M196.982 165.984C196.418 166.336 195.926 166.829 195.574 167.392C194.306 169.434 192.687 172.884 195.362 175.418C197.334 177.249 200.15 176.826 201.839 175.559C203.529 174.362 204.796 172.391 204.374 169.997C203.67 165.14 199.516 164.365 196.982 165.984Z" fill="#CB542F"/>
<path d="M190.576 173.517C191.139 172.461 190.787 170.772 188.886 169.575C186 167.744 183.113 170.561 186.211 173.306C188.253 175.066 189.942 174.714 190.576 173.517Z" fill="#CB542F"/>
<path d="M192.617 167.392C193.18 166.336 192.828 164.647 190.927 163.45C188.041 161.619 185.154 164.436 188.252 167.181C190.294 168.941 191.983 168.519 192.617 167.392Z" fill="#CB542F"/>
<path d="M196.138 162.887C196.702 161.831 196.35 160.141 194.449 158.944C191.562 157.114 188.676 159.93 191.774 162.676C193.815 164.436 195.505 164.013 196.138 162.887Z" fill="#CB542F"/>
<path d="M204.515 163.802C206.064 162.887 205.29 159.789 203.952 159.085C201.488 157.748 201.277 162.042 202.474 163.38C203.037 163.872 203.882 164.154 204.515 163.802Z" fill="#CB542F"/>
<path d="M318.001 188.724C308.919 165.773 299.133 154.016 293.36 147.187C287.587 140.358 280.125 125.504 280.125 125.504L258.089 131.488C258.089 131.488 249.5 150.566 250.064 176.896C250.204 185.204 251.542 193.793 254.076 201.466L318.001 212.097C322.225 206.817 322.366 199.706 318.001 188.724Z" fill="#494949"/>
<path d="M294.699 207.662C295.966 190.836 286.11 171.194 282.238 157.114C278.366 143.033 277.45 133.037 277.45 133.037L252.669 126.137C252.669 126.137 254.148 147.821 247.6 168.8C246.474 172.32 240.631 186.189 240.912 199.284L294.699 208.225C294.699 208.014 294.699 207.802 294.699 207.662Z" fill="#A8A8A8"/>
<path d="M288.714 141.555C288.714 141.555 279.491 139.302 277.309 154.368C275.83 164.506 270.832 165.21 256.611 168.871C256.611 168.871 247.177 170.631 247.951 177.178C248.233 179.783 253.936 184.5 253.936 184.5C253.936 184.5 272.381 193.23 289.066 180.065C305.751 166.97 298.288 143.174 288.714 141.555Z" fill="#636363"/>
<path d="M318.002 196.468C316.031 193.23 306.527 185.837 299.909 186.682C284.632 188.513 278.014 196.116 276.043 205.057L322.648 212.801C323.352 204.986 321.804 200.903 318.002 196.468Z" fill="#636363"/>
<path d="M259.004 170.067C261.046 173.728 258.582 182.388 254.639 184.148C253.091 184.852 251.401 184.922 249.711 184.852C246.755 184.852 243.657 184.64 241.263 182.951C238.095 183.796 234.575 184.922 232.534 181.472C229.788 176.826 234.364 174.432 234.364 174.432C234.364 174.432 230.422 170.067 234.153 167.603L235.983 166.547C235.983 166.547 234.646 163.872 238.166 163.168C241.686 162.464 242.883 161.76 251.049 164.858C254.639 166.336 259.004 170.067 259.004 170.067Z" fill="#A8A8A8"/>
<path d="M204.02 81.2919C204.02 81.2919 200.148 34.5456 211.201 27.8575C217.749 23.915 240.911 40.9521 245.839 55.3843C245.839 55.3843 215.566 73.0549 204.02 81.2919Z" fill="#494949"/>
<path d="M237.25 55.314C237.25 55.314 225.775 54.962 209.442 70.239C209.442 70.239 206.907 41.9378 214.088 36.5169C215.989 35.0385 231.407 42.9234 237.25 55.314Z" fill="#A8A8A8"/>
<path d="M318.773 81.2919C318.773 81.2919 322.645 34.5456 311.592 27.8575C305.045 23.915 281.883 40.9521 276.955 55.3843C276.955 55.3843 307.228 73.0549 318.773 81.2919Z" fill="#494949"/>
<path d="M285.545 55.314C285.545 55.314 297.02 54.962 313.353 70.239C313.353 70.239 315.888 41.9378 308.707 36.5169C306.806 35.0385 291.318 42.9234 285.545 55.314Z" fill="#A8A8A8"/>
<path d="M322.929 85.164C315.114 69.3237 306.666 49.4002 267.805 47.2178C266.045 47.077 264.214 47.0066 262.243 47.0066C261.961 47.0066 261.68 47.0066 261.398 47.0066C261.116 47.0066 260.835 47.0066 260.553 47.0066C258.864 47.0066 257.244 47.077 255.766 47.1474C216.341 49.1186 207.823 69.1125 199.938 85.0935C190.856 103.468 187.125 116.07 187.125 116.07C196.911 130.009 224.578 139.866 249.148 142.47C253.865 143.034 258.934 143.315 264.285 143.104C290.755 142.33 324.689 131.769 335.742 116C335.742 116.14 331.94 103.539 322.929 85.164Z" fill="#636363"/>
<path d="M255.273 101.638C255.273 101.638 230.351 100.934 222.677 115.648C215.919 128.672 231.548 141.133 255.695 141.133C279.843 141.133 291.037 130.221 289.77 117.126C288.925 107.481 266.326 101.638 255.273 101.638Z" fill="#A8A8A8"/>
<path d="M255.062 112.55C255.836 113.324 261.82 118.675 268.579 115.929C268.579 115.929 269.001 121.139 265.341 124.588C265.341 124.588 262.595 120.505 256.048 120.153C249.5 119.801 245.135 123.814 245.135 123.814C242.179 120.505 242.531 116.281 242.531 116.281C242.531 116.281 250.416 117.548 254.992 112.479C254.992 112.479 254.992 112.479 255.062 112.55Z" fill="#0A1311"/>
<path d="M256.047 120.153C262.594 120.505 265.34 124.588 265.34 124.588C263.439 126.419 260.482 127.757 255.836 127.757C250.274 127.757 247.036 125.926 245.135 123.814C245.135 123.814 249.5 119.731 256.047 120.153Z" fill="#CB542F"/>
<path d="M291.037 87.9096C291.319 89.6697 290.052 91.3593 288.292 91.6409C286.532 91.9225 284.842 90.6553 284.561 88.8952C284.279 87.1352 285.476 85.4456 287.306 85.164C289.137 84.8824 290.756 86.1496 291.037 87.9096Z" fill="white"/>
<path d="M304.977 86.2903C303.428 76.3638 294.205 69.6053 284.279 71.0837C274.352 72.6325 267.594 81.8551 269.072 91.7816C270.55 101.708 279.843 108.467 289.77 106.988C299.696 105.439 306.455 96.2169 304.977 86.2903Z" fill="white"/>
<path d="M243.094 86.2903C241.545 76.3638 232.322 69.6053 222.396 71.0837C212.469 72.5621 205.711 81.8551 207.189 91.7816C208.738 101.708 217.961 108.467 227.887 106.988C237.814 105.439 244.572 96.2169 243.094 86.2903Z" fill="white"/>
<path d="M228.028 86.2903C228.309 88.0503 227.042 89.7399 225.282 90.0215C223.522 90.3031 221.832 89.1063 221.551 87.2759C221.269 85.5159 222.466 83.8262 224.296 83.5446C226.127 83.3334 227.746 84.5303 228.028 86.2903Z" fill="white"/>
<path d="M280.687 79.8133C286.812 78.8981 292.514 83.0518 293.43 89.1767C294.345 95.3016 290.191 101.004 284.066 101.919C277.941 102.834 272.239 98.6808 271.324 92.5559C270.408 86.431 274.562 80.7285 280.687 79.8133Z" fill="#0B1411"/>
<path d="M288.292 90.0215C290.052 89.7399 291.319 88.0503 291.038 86.2903C290.756 84.5302 289.137 83.263 287.306 83.5446C285.546 83.8262 284.279 85.5158 284.561 87.2759C284.842 89.1063 286.532 90.3031 288.292 90.0215Z" fill="white"/>
<path d="M219.298 92.5559C218.383 86.431 222.537 80.7285 228.662 79.8133C234.786 78.8981 240.489 83.0518 241.404 89.1767C242.319 95.3016 238.166 101.004 232.041 101.919C225.916 102.834 220.213 98.6808 219.298 92.5559ZM224.297 83.615C222.537 83.8966 221.269 85.5862 221.551 87.3462C221.833 89.1063 223.452 90.3735 225.282 90.0919C227.042 89.8103 228.31 88.1206 228.028 86.3606C227.746 84.5302 226.127 83.3334 224.297 83.615Z" fill="#0B1411"/>
<path fill-rule="evenodd" clip-rule="evenodd" d="M255.143 105.566C255.695 105.571 256.138 106.024 256.133 106.576L256.062 113.616C256.057 114.168 255.605 114.611 255.053 114.606C254.5 114.6 254.057 114.148 254.063 113.596L254.133 106.556C254.138 106.004 254.591 105.56 255.143 105.566Z" fill="#0B1411"/>
<path fill-rule="evenodd" clip-rule="evenodd" d="M238.979 107.045C239.531 107.027 239.993 107.46 240.012 108.012C240.03 108.564 239.597 109.026 239.045 109.044L239.012 108.044L238.979 107.045ZM238.979 107.045C238.979 107.045 238.979 107.045 239.012 108.044C239.045 109.044 239.045 109.044 239.045 109.044L237.91 109.082C237.176 109.107 236.112 109.143 234.789 109.189C232.142 109.281 228.458 109.413 224.31 109.572C216.012 109.889 205.865 110.311 198.447 110.732C197.896 110.764 197.424 110.342 197.392 109.791C197.361 109.239 197.782 108.767 198.334 108.736C205.771 108.313 215.935 107.89 224.234 107.573C228.384 107.415 232.07 107.283 234.719 107.19C236.043 107.144 237.108 107.108 237.842 107.083L238.979 107.045Z" fill="#0B1411"/>
<path fill-rule="evenodd" clip-rule="evenodd" d="M235.859 110.361C236.407 110.292 236.907 110.681 236.976 111.229C237.045 111.777 236.657 112.277 236.109 112.346L235.984 111.353L235.859 110.361ZM235.859 110.361C235.86 110.361 235.859 110.361 235.984 111.353C236.109 112.346 236.109 112.346 236.109 112.346L236.041 112.354L235.837 112.38C235.657 112.403 235.39 112.438 235.043 112.484C234.35 112.575 233.337 112.711 232.062 112.888C229.511 113.243 225.912 113.763 221.717 114.427C213.323 115.754 202.564 117.65 193.062 119.929C192.525 120.058 191.985 119.727 191.856 119.19C191.727 118.653 192.058 118.113 192.595 117.984C202.172 115.687 212.99 113.782 221.405 112.451C225.614 111.786 229.226 111.263 231.786 110.907C233.067 110.729 234.084 110.593 234.782 110.501C235.131 110.455 235.4 110.42 235.582 110.397L235.788 110.37L235.859 110.361Z" fill="#0B1411"/>
<path fill-rule="evenodd" clip-rule="evenodd" d="M240.755 113.009C240.891 113.544 240.567 114.088 240.031 114.224C228.514 117.138 219.105 120.07 212.579 122.271C209.316 123.372 206.773 124.291 205.049 124.933C204.187 125.254 203.529 125.506 203.088 125.678C202.867 125.763 202.7 125.829 202.59 125.873L202.465 125.922L202.435 125.935L202.426 125.938C202.426 125.938 202.426 125.938 202.426 125.938" fill="#0B1411"/>
<path fill-rule="evenodd" clip-rule="evenodd" d="M272.862 108.012C272.88 107.46 273.342 107.027 273.894 107.045L273.861 108.044L273.829 109.044C273.277 109.026 272.844 108.564 272.862 108.012ZM273.861 108.044C273.829 109.044 273.828 109.044 273.829 109.044L274.964 109.082C275.697 109.107 276.761 109.143 278.085 109.189C280.732 109.281 284.415 109.413 288.563 109.572C296.861 109.889 307.009 110.311 314.426 110.732C314.977 110.764 315.45 110.342 315.481 109.791C315.512 109.239 315.091 108.767 314.54 108.736C307.102 108.313 296.939 107.89 288.64 107.573C284.489 107.415 280.803 107.283 278.154 107.19C276.83 107.144 275.765 107.108 275.031 107.083L273.895 107.045C273.895 107.045 273.894 107.045 273.861 108.044Z" fill="#0B1411"/>
<path fill-rule="evenodd" clip-rule="evenodd" d="M275.967 111.229C276.036 110.681 276.536 110.292 277.084 110.361L276.959 111.353L276.834 112.346C276.286 112.277 275.898 111.777 275.967 111.229ZM276.959 111.353C276.834 112.346 276.834 112.346 276.834 112.346L276.903 112.354L277.107 112.38C277.287 112.403 277.553 112.438 277.9 112.484C278.594 112.575 279.606 112.711 280.882 112.888C283.432 113.243 287.032 113.763 291.226 114.427C299.62 115.754 310.38 117.65 319.882 119.929C320.419 120.058 320.959 119.727 321.087 119.19C321.216 118.653 320.885 118.113 320.348 117.984C310.771 115.687 299.953 113.782 291.539 112.451C287.329 111.786 283.717 111.263 281.157 110.907C279.877 110.729 278.859 110.593 278.162 110.501C277.813 110.455 277.544 110.42 277.362 110.397L277.155 110.37L277.085 110.361C277.085 110.361 277.084 110.361 276.959 111.353Z" fill="#0B1411"/>
<path fill-rule="evenodd" clip-rule="evenodd" d="M272.117 113.009C272.252 112.473 272.796 112.149 273.331 112.285C284.906 115.214 294.365 118.161 300.933 120.376C304.217 121.484 306.779 122.41 308.521 123.059C309.393 123.383 310.059 123.639 310.509 123.814C310.734 123.901 310.905 123.968 311.019 124.014L311.15 124.066L311.183 124.079L311.195 124.083C311.195 124.084 311.196 124.084 310.821 125.011L311.196 124.084C311.708 124.291 311.955 124.873 311.748 125.386C311.542 125.898 310.959 126.145 310.447 125.938L310.437 125.935L310.407 125.922L310.283 125.873C310.172 125.829 310.005 125.763 309.785 125.678C309.343 125.506 308.686 125.254 307.823 124.933C306.099 124.291 303.556 123.372 300.293 122.271C293.767 120.07 284.358 117.138 272.841 114.224C272.305 114.088 271.981 113.544 272.117 113.009Z" fill="#0B1411"/>
<path d="M256.189 95.1608C262.525 95.372 267.594 97.836 267.523 100.652C267.383 103.468 255.203 106.495 255.203 106.495C255.203 106.495 244.502 102.623 244.573 99.8073C244.573 97.0616 249.853 94.9496 256.189 95.1608Z" fill="#CB542F"/>
<path d="M295.896 208.014L133.621 174.08L94.4785 202.663L247.39 235.54L295.896 208.014Z" fill="#D0D0F3"/>
<path d="M247.39 235.54L246.545 244.904L295.896 208.014C295.896 208.014 290.334 206.394 279.704 210.689C269.144 214.913 247.39 235.54 247.39 235.54Z" fill="#B1B1EB"/>
<path d="M247.389 235.54L94.478 202.663L90.2539 212.519L246.615 244.904L247.389 235.54Z" fill="#9898DA"/>
<path d="M208.175 217.518L247.389 226.036L266.749 209.07L146.434 185.978L208.175 217.518Z" stroke="white" stroke-width="1.1058" stroke-miterlimit="10"/>
<path d="M236.477 223.643L254.218 206.676" stroke="white" stroke-width="1.1058" stroke-miterlimit="10"/>
<path d="M226.479 221.46L244.572 204.845" stroke="white" stroke-width="1.1058" stroke-miterlimit="10"/>
<path d="M261.187 213.927L126.51 185.978" stroke="white" stroke-width="1.1058" stroke-miterlimit="10"/>
<path d="M255.907 218.574L175.861 201.607" stroke="white" stroke-width="1.1058" stroke-miterlimit="10"/>
<path d="M251.541 222.375L176.916 206.676" stroke="white" stroke-width="1.1058" stroke-miterlimit="10"/>
<path d="M217.398 219.559L228.663 207.239" stroke="white" stroke-width="1.1058" stroke-miterlimit="10"/>
<path d="M206.627 216.743L218.032 204.986" stroke="white" stroke-width="1.1058" stroke-miterlimit="10"/>
<path d="M97.576 211.463L48.0137 240.257L124.328 257.576L165.935 226.036L97.576 211.463Z" fill="#D0D0F3"/>
<path d="M163.964 90.6552L0 67.2117L38.1574 184.57L206.557 221.179L163.964 90.6552Z" fill="#9193DA"/>
<path d="M0 67.2116L6.5473 63.1987L168.962 86.0791L163.964 90.6551L0 67.2116Z" fill="#D0D0F3"/>
<path d="M163.965 90.6552L168.963 86.0791L211.626 216.603L206.557 221.179L163.965 90.6552Z" fill="#B1B1EB"/>
<path d="M73.709 230.331L86.874 162.957L134.535 171.264L122.145 240.257L73.709 230.331Z" fill="#9B9BE5"/>
<path d="M134.537 171.264L139.465 183.092L128.835 235.541L122.146 240.257L134.537 171.264Z" fill="#B1B1EB"/>
<path d="M124.328 257.576L126.511 264.827L173.679 229.768L165.935 226.036L124.328 257.576Z" fill="#B1B1EB"/>
<path d="M48.0145 240.257L42.7344 246.241L126.512 264.827L124.329 257.576L48.0145 240.257Z" fill="#9898DA"/>
</svg>
