<svg width="400" height="281" viewBox="0 0 400 281" fill="none" xmlns="http://www.w3.org/2000/svg">
<path d="M355.321 197.683C355.321 197.683 359.687 191.512 369.697 195.802C379.707 200.092 385.879 227.94 378.879 231.478C371.88 235.015 370.299 231.628 370.299 231.628C370.299 231.628 368.417 235.692 362.773 232.908C362.773 232.908 361.117 237.574 354.945 232.08C348.773 226.585 348.924 212.586 355.321 197.683Z" fill="#CCB9AB"/>
<path d="M336.43 3.3482C337.935 3.87505 339.365 4.62771 340.72 5.5309C341.999 6.43408 343.204 7.4878 343.956 8.69205C345.537 11.1005 345.612 14.0359 343.204 17.3476C340.042 21.8635 335.225 24.5731 330.107 26.9063C324.914 29.2395 319.344 31.1964 314.452 33.7555C313.85 34.0565 313.248 34.3576 312.646 34.7339L311.743 35.1855L310.915 35.7124C309.786 36.3898 308.807 37.0672 307.754 37.8198C305.721 39.3251 303.84 41.0562 302.259 42.8626C300.679 44.669 299.324 46.4754 298.345 48.2065C297.367 49.9376 296.765 51.5934 296.313 53.0235C296.313 53.0235 296.313 53.174 296.238 53.475C296.238 53.6256 296.163 53.7761 296.163 54.0019C296.163 54.2277 296.163 54.4535 296.087 54.6793C296.012 55.2062 296.012 55.9588 296.012 56.7115C296.087 57.5394 296.087 58.3673 296.238 59.2705C296.388 60.1737 296.614 61.0016 296.915 61.8295C297.216 62.6574 297.668 63.4854 298.27 64.238C299.474 65.8939 301.582 67.7002 304.893 69.2808C308.13 70.8614 312.42 72.2162 317.086 73.1194C318.291 73.3452 319.42 73.571 320.624 73.7215C321.828 73.872 322.957 74.0225 324.538 74.1731C327.398 74.4741 330.484 74.8505 333.72 75.3773C336.957 75.9042 340.268 76.5816 343.731 77.56C347.193 78.5385 350.655 79.8932 354.042 81.6996C357.429 83.506 360.59 85.6887 363.375 88.3983C364.052 89.0757 364.654 89.753 365.332 90.4304C365.633 90.8068 365.934 91.1078 366.235 91.4841C366.536 91.8605 366.762 92.1615 367.063 92.5379C367.59 93.2153 368.117 93.9679 368.643 94.6453C369.095 95.3227 369.547 96.0753 369.998 96.7527C371.654 99.387 373.536 103.15 374.74 107.742C376.019 112.333 376.772 117.827 376.396 123.698C376.32 124.45 376.245 125.203 376.245 125.956C376.17 126.708 376.019 127.461 375.944 128.214C375.718 129.719 375.342 131.3 374.966 132.88C374.815 133.633 374.514 134.461 374.288 135.213C374.063 135.966 373.837 136.794 373.46 137.547C373.159 138.299 372.783 139.127 372.482 139.88C372.181 140.633 371.729 141.385 371.428 142.138C370.751 143.643 369.848 144.998 368.944 146.428C368.041 147.783 367.138 149.213 366.084 150.492C364.052 153.127 361.719 155.46 359.31 157.643C354.418 161.933 348.999 165.244 343.505 167.653C340.72 168.782 338.01 169.836 335.225 170.588C333.871 171.04 332.441 171.266 331.161 171.642C329.806 171.868 328.527 172.169 327.247 172.319C322.129 173.072 317.463 173.223 313.549 173.147C309.635 172.997 306.399 172.696 303.99 172.395C300.603 171.943 296.614 170.889 293.303 169.233C290.066 167.502 287.507 165.244 286.83 162.535C286.152 160.126 287.206 156.815 289.163 154.03C291.045 151.245 293.754 148.987 296.539 148.686C298.421 148.535 300.453 148.987 302.334 149.439C305.571 150.116 309.409 150.718 313.7 150.869C317.99 151.019 322.731 150.718 327.398 149.514C329.731 148.912 332.064 148.084 334.322 147.105C336.58 146.052 338.838 144.772 340.87 143.267C345.01 140.256 348.472 136.342 350.58 131.977C351.107 130.848 351.558 129.794 351.859 128.741C352.236 127.612 352.461 126.483 352.612 125.354C352.988 123.02 352.988 120.687 352.687 118.354C352.085 113.763 350.203 109.774 347.72 107.064C342.978 101.72 334.172 100.29 327.473 99.5376C325.065 99.2365 322.581 99.0107 319.796 98.7849C316.936 98.4838 314.076 98.1075 311.141 97.5807C305.345 96.5269 299.474 94.8711 293.604 92.1615C290.668 90.8068 287.733 89.0756 284.948 86.9682C282.163 84.8608 279.529 82.3017 277.271 79.2911C275.013 76.2805 273.207 72.8936 271.927 69.3561C270.648 65.8186 269.97 62.2058 269.744 58.6684L269.669 57.3136V56.0341C269.669 55.2062 269.594 54.303 269.669 53.3998C269.744 52.4966 269.744 51.5934 269.82 50.6902L270.196 48.0559C270.798 44.5184 271.701 41.0562 272.981 37.8198C274.336 34.5834 275.916 31.4975 277.798 28.5622C279.68 25.7021 281.862 22.9925 284.195 20.5087C286.604 18.025 289.163 15.767 292.023 13.7348L294.206 12.2295C294.958 11.7779 295.711 11.3263 296.464 10.8747C297.216 10.4232 297.969 9.97156 298.722 9.59523C299.474 9.21891 300.227 8.76731 300.98 8.46625C307.151 5.5309 313.7 3.64926 320.248 2.74607C323.936 2.21921 327.172 2.06868 329.882 2.29448C330.559 2.36975 331.236 2.36974 331.839 2.44501C332.441 2.52027 333.043 2.59554 333.57 2.74607C334.623 2.74607 335.602 2.97187 336.43 3.3482Z" fill="#875845"/>
<path d="M336.429 3.34825C335.601 3.04718 334.548 2.74612 333.494 2.52033C332.967 2.44506 332.365 2.29453 331.763 2.21926C331.161 2.144 330.483 2.06873 329.806 2.06873C327.096 1.9182 323.86 1.99347 320.172 2.52033C314.828 3.27298 309.56 4.70303 304.442 6.73519C303.162 7.18679 301.883 7.86418 300.678 8.39104C299.399 8.99316 298.194 9.67055 296.99 10.3479C295.786 11.1006 294.506 11.778 293.378 12.6059L291.646 13.8102L289.991 15.0897C285.55 18.5519 281.711 22.6915 278.55 27.2827C275.389 31.8739 272.905 37.0672 271.325 42.6369C271.626 42.4111 272.002 42.11 272.454 41.5079C279.679 32.0997 288.636 25.0247 298.496 19.9819C292.55 25.1753 288.259 31.7234 286.077 38.5725C285.926 39.0994 285.776 39.7015 285.776 40.1531C285.776 40.6047 286.001 41.0563 286.378 41.0563C286.754 41.1315 287.13 40.8305 287.582 40.6047C290.517 38.5725 293.302 36.2393 295.861 33.6803C295.41 34.5082 294.883 35.2608 294.356 36.0135C293.829 36.7661 293.302 37.5941 292.851 38.3467C292.399 39.1746 292.173 40.0778 292.173 40.9057C292.173 41.7337 292.399 42.4863 292.926 43.0132C293.453 43.54 294.281 43.6906 295.033 43.7658C297.668 43.9916 300.151 43.3895 302.485 42.6369C303.689 41.2821 305.044 40.0026 306.549 38.8736C306.925 38.5725 307.302 38.2715 307.678 37.9704L308.807 37.1425C309.183 36.8414 309.56 36.6156 310.011 36.3898C310.388 36.0888 310.839 35.863 311.291 35.6372C313.022 34.5834 314.828 33.6803 316.71 32.7771C318.591 31.8739 320.548 31.046 322.581 30.218C330.483 26.9064 338.687 24.1968 343.429 17.4229C345.762 14.036 345.762 11.1759 344.182 8.76736C343.429 7.56312 342.225 6.5094 340.945 5.60621C339.44 4.62776 337.935 3.8751 336.429 3.34825Z" fill="#EBD9CD"/>
<path d="M182.738 140.03C182.738 140.03 211.64 146.654 232.262 146.277C252.885 145.976 261.691 136.869 294.657 146.202C327.624 155.535 325.441 190.308 310.538 206.716C295.636 223.123 256.799 224.629 218.94 208.371C181.082 192.114 167.233 153.503 167.233 153.503L182.738 140.03Z" fill="#CCB9AB"/>
<path d="M136.298 156.739C136.298 156.739 141.492 193.469 188.533 212.887C254.014 239.908 306.925 213.414 307.678 204.533C308.431 195.651 251.304 208.07 216.306 195.501C181.307 182.931 172.727 153.804 172.727 153.804L136.298 156.739Z" fill="#EBD9CD"/>
<path d="M255.444 178.115C255.444 178.115 263.422 205.737 289.313 217.027C309.183 225.683 338.537 221.468 338.537 221.468L352.762 219.059C363.224 204.684 361.267 194.448 361.267 194.448L331.387 186.996C331.387 186.996 319.42 160.653 297.216 153.503C275.013 146.353 249.648 154.256 255.444 178.115Z" fill="#875845"/>
<path d="M248.594 237.048C248.594 237.048 253.562 241.79 248.594 246.08L184.017 280.476L166.781 253.983L248.594 237.048Z" fill="#D0704D"/>
<path d="M19.11 245.477C19.11 245.477 15.7983 250.294 20.6153 252.703L88.0533 263.24C88.0533 263.24 89.4833 269.713 99.3431 271.971C113.418 275.282 118.31 267.455 118.31 267.455L184.092 280.476C184.092 280.476 187.253 275.884 183.565 273.1L84.9674 222.822L19.11 245.477Z" fill="#CB542F"/>
<path d="M31.1529 239.757L19.0352 245.477L91.5911 257.219C91.5911 257.219 94.376 264.219 101.903 265.724C109.429 267.229 113.343 261.133 113.343 261.133L183.415 273.025L248.52 236.972L89.4837 214.167L31.1529 239.757Z" fill="#AF381E"/>
<path d="M24.228 219.812C24.228 219.812 30.2493 233.435 26.0344 243.972L102.278 254.584L101.977 243.37L93.9239 209.124L24.228 219.812Z" fill="#D0D2EA"/>
<path d="M242.122 214.167C242.122 214.167 235.423 223.425 242.122 236.972L182.813 269.939L170.469 261.208L175.888 232.833L242.122 214.167Z" fill="#EDEDF7"/>
<path d="M101.978 243.37L149.019 212.963C149.019 212.963 169.641 202.577 185.598 203.781C201.629 204.985 224.51 215.522 242.047 214.167L181.684 250.37L101.978 243.37Z" fill="white"/>
<path d="M101.977 243.37C91.3649 222.221 72.6238 224.629 52.9795 228.994C33.3352 233.36 24.228 219.812 24.228 219.812C24.228 219.812 65.2477 207.92 80.7524 184.362C80.7524 184.362 93.096 193.243 104.612 193.093C116.127 192.942 136.901 187.598 149.018 212.963L101.977 243.37Z" fill="#EDEDF7"/>
<path d="M101.978 243.37C101.978 243.37 113.719 236.746 135.17 237.048C156.62 237.349 162.416 247.961 181.759 250.37C181.759 250.37 176.942 262.412 182.813 269.939L102.279 254.509L101.978 243.37Z" fill="#D0D2EA"/>
<path fill-rule="evenodd" clip-rule="evenodd" d="M25.8092 229.628C26.1657 229.13 26.8579 229.015 27.3561 229.371C27.3561 229.371 27.3562 229.371 27.3563 229.371L27.3629 229.375C27.37 229.38 27.3824 229.389 27.4001 229.401C27.4355 229.425 27.4921 229.463 27.5694 229.512C27.7241 229.612 27.9618 229.758 28.2797 229.938C28.9157 230.298 29.8719 230.789 31.126 231.296C33.6337 232.31 37.3301 233.387 42.0416 233.606M25.8092 229.628C25.4523 230.126 25.5669 230.819 26.0652 231.176L25.8092 229.628ZM26.0652 231.176L26.7115 230.274L26.0652 231.176ZM26.7115 230.274C26.0652 231.176 26.0656 231.177 26.066 231.177L26.7115 230.274ZM26.066 231.177L26.0669 231.177L26.066 231.177ZM26.0669 231.177L26.069 231.179L26.0669 231.177ZM26.069 231.179L26.0748 231.183L26.069 231.179ZM26.0748 231.183L26.0926 231.196L26.0748 231.183ZM26.0926 231.196C26.1072 231.206 26.1272 231.22 26.1527 231.237L26.0926 231.196ZM26.1527 231.237C26.2036 231.271 26.2762 231.32 26.3701 231.38L26.1527 231.237ZM26.3701 231.38C26.558 231.501 26.8313 231.669 27.1872 231.87L26.3701 231.38ZM27.1872 231.87C27.8989 232.273 28.9419 232.807 30.2939 233.354L27.1872 231.87ZM30.2939 233.354C32.9982 234.447 36.9412 235.591 41.9388 235.823L30.2939 233.354ZM55.5273 235.339C50.8246 235.691 46.338 236.026 41.9392 235.823L41.9388 235.823M55.5273 235.339C56.1436 235.293 56.7636 235.246 57.3876 235.201L55.5273 235.339ZM57.3876 235.201C62.7966 234.806 68.5649 234.473 75.0309 234.919L57.3876 235.201ZM57.2262 232.987C62.6555 232.591 68.5534 232.247 75.1836 232.704C75.7951 232.746 76.2566 233.276 76.2144 233.888C76.1722 234.499 75.6424 234.961 75.0309 234.919M57.2262 232.987C56.5979 233.033 55.9766 233.079 55.3618 233.125L57.2262 232.987ZM55.3618 233.125C50.6407 233.478 46.2969 233.802 42.0419 233.606L55.3618 233.125Z" fill="#C3C6E4"/>
<path fill-rule="evenodd" clip-rule="evenodd" d="M63.0308 240.846C62.4264 240.948 62.0191 241.52 62.1211 242.125C62.2231 242.729 62.7954 243.136 63.3997 243.034" fill="#C3C6E4"/>
<path fill-rule="evenodd" clip-rule="evenodd" d="M109.676 247.819L109.678 247.818L109.684 247.816L109.711 247.808C109.736 247.801 109.774 247.79 109.824 247.775C109.925 247.745 110.076 247.701 110.274 247.646C110.67 247.534 111.253 247.375 111.995 247.187C113.479 246.809 115.596 246.314 118.118 245.844C123.172 244.902 129.807 244.072 136.225 244.477C148.279 245.305 156.174 249.977 166.199 255.909C166.872 256.308 167.555 256.712 168.25 257.121C168.778 257.432 169.458 257.256 169.769 256.728C170.08 256.2 169.904 255.52 169.376 255.209C168.66 254.787 167.954 254.369 167.256 253.955C157.289 248.053 148.97 243.126 136.374 242.263L136.368 242.262C129.692 241.84 122.855 242.703 117.711 243.662C115.134 244.142 112.97 244.649 111.448 245.036C110.687 245.229 110.086 245.393 109.674 245.509C109.467 245.567 109.308 245.613 109.2 245.645C109.146 245.661 109.104 245.673 109.076 245.681L109.043 245.691L109.031 245.695C109.03 245.695 109.03 245.695 109.353 246.757L109.031 245.695C108.444 245.873 108.113 246.494 108.291 247.08C108.47 247.666 109.09 247.997 109.676 247.819Z" fill="#C3C6E4"/>
<path fill-rule="evenodd" clip-rule="evenodd" d="M133.827 252.759L133.832 252.759L133.856 252.759C133.879 252.759 133.915 252.759 133.964 252.76C134.061 252.761 134.209 252.763 134.404 252.769C134.794 252.78 135.372 252.806 136.113 252.863C137.594 252.977 139.72 253.214 142.279 253.708C147.401 254.698 154.233 256.712 161.094 260.807C161.621 261.121 162.302 260.949 162.616 260.422C162.93 259.896 162.758 259.215 162.232 258.9C155.094 254.641 148.002 252.553 142.7 251.529C140.047 251.017 137.836 250.769 136.282 250.65C135.506 250.59 134.893 250.563 134.471 250.55C134.26 250.544 134.096 250.541 133.984 250.54C133.928 250.54 133.884 250.54 133.854 250.54L133.818 250.54L133.808 250.54L133.804 250.54C133.803 250.54 133.803 250.54 133.815 251.65L133.803 250.54C133.19 250.546 132.698 251.049 132.705 251.662C132.712 252.275 133.214 252.766 133.827 252.759Z" fill="#C3C6E4"/>
<path fill-rule="evenodd" clip-rule="evenodd" d="M101.948 242.261C102.56 242.244 103.07 242.728 103.087 243.34L103.388 254.555C103.404 255.168 102.921 255.678 102.308 255.694C101.696 255.711 101.186 255.227 101.169 254.614L100.868 243.4C100.852 242.787 101.335 242.277 101.948 242.261Z" fill="#C3C6E4"/>
<path fill-rule="evenodd" clip-rule="evenodd" d="M241.722 222.257C242.034 222.785 241.86 223.465 241.332 223.778L206.861 244.175C206.333 244.487 205.653 244.312 205.34 243.785C205.028 243.257 205.203 242.576 205.73 242.264L240.202 221.867C240.73 221.555 241.41 221.73 241.722 222.257Z" fill="#D0D2EA"/>
<path fill-rule="evenodd" clip-rule="evenodd" d="M229.47 238.769C229.766 239.305 229.572 239.98 229.036 240.277L194.338 259.47C193.802 259.766 193.126 259.572 192.83 259.036C192.533 258.499 192.727 257.824 193.264 257.527L227.961 238.335C228.498 238.038 229.173 238.232 229.47 238.769Z" fill="#D0D2EA"/>
<path fill-rule="evenodd" clip-rule="evenodd" d="M68.9449 218.655C64.403 219.237 59.6443 219.777 54.7587 218.635C54.1619 218.495 53.7912 217.898 53.9308 217.301C54.0704 216.705 54.6673 216.334 55.2642 216.473C59.7115 217.514 64.0976 217.038 68.6628 216.453C68.9068 216.422 69.1514 216.39 69.3966 216.359C73.6807 215.805 78.1428 215.229 82.6716 216.009L82.6719 216.009C91.6365 217.554 99.9109 221.96 106.101 228.615C106.519 229.064 106.494 229.766 106.045 230.183C105.596 230.601 104.894 230.576 104.476 230.127C98.6243 223.836 90.7919 219.661 82.2948 218.196C78.1059 217.475 73.9519 218.01 69.5883 218.572C69.3744 218.6 69.1599 218.627 68.9449 218.655Z" fill="#C3C6E4"/>
<path fill-rule="evenodd" clip-rule="evenodd" d="M105.864 216.753C100.815 213.353 94.0196 210.048 86.7789 210.084C79.2156 210.121 73.3268 210.159 69.3291 210.187C67.3302 210.201 65.804 210.213 64.7777 210.221C64.2646 210.225 63.8764 210.229 63.6165 210.231L63.2256 210.234C63.2255 210.234 63.2252 210.234 63.2153 209.124C63.2054 208.015 63.2054 208.015 63.2055 208.015L63.5976 208.011C63.8579 208.009 64.2464 208.006 64.7599 208.002C65.7869 207.993 67.3138 207.982 69.3134 207.968C73.3126 207.939 79.2029 207.902 86.7679 207.864C94.6556 207.825 101.898 211.406 107.103 214.912C109.718 216.673 111.85 218.435 113.328 219.758C114.068 220.42 114.646 220.973 115.041 221.363C115.239 221.558 115.391 221.712 115.494 221.819C115.546 221.872 115.586 221.914 115.613 221.942L115.645 221.976L115.654 221.985L115.658 221.989C115.658 221.989 115.658 221.99 114.847 222.747L115.658 221.99C116.077 222.437 116.053 223.14 115.605 223.558C115.158 223.977 114.455 223.953 114.037 223.505L114.036 223.505L114.031 223.499L114.006 223.473C113.984 223.45 113.949 223.413 113.902 223.365C113.809 223.269 113.668 223.126 113.482 222.942C113.11 222.575 112.559 222.047 111.848 221.412C110.427 220.14 108.376 218.445 105.864 216.753ZM62.1055 209.134C62.1 208.521 62.5926 208.02 63.2055 208.015L63.2153 209.124L63.2256 210.234C62.6127 210.24 62.111 209.747 62.1055 209.134Z" fill="#C3C6E4"/>
<path fill-rule="evenodd" clip-rule="evenodd" d="M80.1505 198.813L80.0273 197.71C79.4182 197.778 78.9795 198.327 79.0475 198.936C79.1155 199.545 79.6642 199.983 80.2732 199.916L80.2734 199.916L80.2736 199.916L80.2761 199.915L80.2898 199.914L80.3501 199.908C80.4049 199.902 80.4884 199.894 80.5992 199.885C80.821 199.865 81.152 199.839 81.5812 199.813C82.4396 199.761 83.6897 199.709 85.2417 199.712C88.3479 199.718 92.6522 199.943 97.4409 200.817C107.037 202.569 118.447 206.904 126.153 217.166C126.521 217.657 127.217 217.756 127.707 217.388C128.197 217.019 128.296 216.324 127.928 215.834C119.753 204.947 107.718 200.437 97.8397 198.633C92.8909 197.73 88.4503 197.498 85.2459 197.492C83.6426 197.489 82.3461 197.543 81.4467 197.597C80.9969 197.625 80.6462 197.652 80.4059 197.673C80.2858 197.684 80.1932 197.693 80.1297 197.699C80.0979 197.702 80.0733 197.705 80.0562 197.707L80.0361 197.709L80.0303 197.709L80.0284 197.71C80.0278 197.71 80.0273 197.71 80.1505 198.813Z" fill="#C3C6E4"/>
<path fill-rule="evenodd" clip-rule="evenodd" d="M92.6753 188.943C92.7643 188.336 93.328 187.917 93.9345 188.006L93.7734 189.104C93.9345 188.006 93.9348 188.006 93.9353 188.006L93.9419 188.007L93.9606 188.009L94.0308 188.02C94.092 188.03 94.1819 188.044 94.2989 188.062C94.533 188.1 94.8757 188.157 95.3152 188.235C96.1941 188.391 97.4606 188.631 99.0194 188.967C102.136 189.638 106.427 190.697 111.131 192.246C120.487 195.327 131.673 200.411 138.355 208.413C138.747 208.883 138.684 209.583 138.214 209.976C137.743 210.369 137.044 210.306 136.651 209.836C130.386 202.333 119.708 197.407 110.436 194.354C105.825 192.835 101.612 191.796 98.5517 191.136C97.0223 190.807 95.7827 190.572 94.9276 190.421C94.5001 190.345 94.1688 190.29 93.9456 190.254C93.834 190.236 93.7494 190.223 93.6934 190.214L93.6309 190.204L93.616 190.202L93.6128 190.202" fill="#C3C6E4"/>
<path fill-rule="evenodd" clip-rule="evenodd" d="M131.446 229.75L131.451 229.748L131.474 229.741C131.496 229.734 131.529 229.724 131.574 229.71C131.664 229.683 131.802 229.642 131.983 229.591C132.346 229.489 132.885 229.346 133.578 229.184C134.964 228.86 136.965 228.464 139.401 228.177C144.28 227.605 150.872 227.479 157.776 229.242L157.777 229.242C164.288 230.896 168.569 233.007 172.493 234.942C172.78 235.083 173.064 235.224 173.348 235.363C177.536 237.419 181.483 239.223 187.369 239.808C187.979 239.869 188.523 239.423 188.584 238.813C188.644 238.204 188.199 237.66 187.589 237.599C182.11 237.055 178.455 235.397 174.326 233.37C174.041 233.23 173.753 233.088 173.463 232.945C169.528 231.004 165.065 228.803 158.325 227.091C151.079 225.241 144.198 225.379 139.142 225.973C136.611 226.27 134.528 226.683 133.073 227.022C132.346 227.192 131.775 227.344 131.382 227.454C131.186 227.509 131.035 227.554 130.931 227.586C130.879 227.601 130.838 227.614 130.81 227.623L130.778 227.633L130.768 227.636L130.764 227.637C130.764 227.637 130.764 227.638 131.105 228.693L130.764 227.638C130.18 227.826 129.861 228.452 130.049 229.035C130.238 229.618 130.863 229.938 131.446 229.75Z" fill="#C3C6E4"/>
<path fill-rule="evenodd" clip-rule="evenodd" d="M143.825 220.489L143.483 219.433C142.9 219.622 142.58 220.248 142.769 220.831C142.958 221.414 143.583 221.734 144.166 221.545L144.171 221.544L144.194 221.537C144.215 221.53 144.249 221.52 144.294 221.506C144.384 221.479 144.521 221.438 144.703 221.387C145.066 221.285 145.605 221.142 146.298 220.98C147.684 220.656 149.684 220.259 152.121 219.973C157 219.4 163.591 219.275 170.495 221.038L170.497 221.038C177.007 222.692 181.289 224.803 185.213 226.738C185.499 226.879 185.784 227.019 186.068 227.159C190.256 229.215 194.203 231.019 200.089 231.604C200.699 231.665 201.243 231.219 201.303 230.609C201.364 229.999 200.919 229.456 200.309 229.395C194.83 228.851 191.175 227.193 187.046 225.166C186.761 225.026 186.473 224.884 186.183 224.741C182.248 222.8 177.785 220.599 171.044 218.887C163.799 217.037 156.918 217.175 151.862 217.769C149.331 218.066 147.248 218.479 145.793 218.818C145.065 218.988 144.494 219.14 144.102 219.25C143.906 219.305 143.754 219.35 143.65 219.382C143.598 219.397 143.558 219.41 143.53 219.419L143.497 219.429L143.488 219.432L143.484 219.433C143.484 219.433 143.483 219.433 143.825 220.489Z" fill="#C3C6E4"/>
<path fill-rule="evenodd" clip-rule="evenodd" d="M157.147 212.812L156.806 211.756C156.222 211.945 155.903 212.571 156.091 213.154C156.28 213.737 156.905 214.057 157.488 213.868L157.493 213.867L157.516 213.859C157.538 213.853 157.571 213.842 157.616 213.829C157.706 213.801 157.844 213.761 158.025 213.71C158.388 213.608 158.927 213.464 159.62 213.302C161.006 212.979 163.007 212.582 165.443 212.296C170.322 211.723 176.914 211.598 183.818 213.361L183.819 213.361C190.33 215.014 194.611 217.126 198.535 219.06C198.822 219.202 199.106 219.342 199.39 219.481C203.578 221.538 207.525 223.342 213.411 223.927C214.021 223.987 214.565 223.542 214.626 222.932C214.686 222.322 214.241 221.779 213.631 221.718C208.152 221.174 204.497 219.516 200.368 217.489C200.083 217.349 199.795 217.207 199.505 217.064C195.57 215.123 191.107 212.922 184.367 211.21C177.121 209.36 170.24 209.498 165.184 210.092C162.653 210.389 160.57 210.801 159.115 211.141C158.388 211.311 157.817 211.463 157.424 211.573C157.228 211.628 157.077 211.673 156.973 211.704C156.921 211.72 156.88 211.733 156.852 211.741L156.82 211.752L156.81 211.755L156.806 211.756C156.806 211.756 156.806 211.756 157.147 212.812Z" fill="#C3C6E4"/>
<path d="M99.0421 175.104C99.0421 175.104 69.538 199.415 89.5587 206.565C104.461 211.834 137.428 197.082 153.534 189.179C138.557 172.771 136.374 156.814 136.374 156.814L99.0421 175.104Z" fill="#7A5545"/>
<path d="M62.0112 95.2472C62.0112 95.2472 51.0977 32.0242 65.2476 24.7987C77.7417 18.4011 108.826 46.1741 112.966 54.9049C112.966 54.9049 75.86 83.8821 62.0112 95.2472Z" fill="#875845"/>
<path d="M101.601 53.7757C101.601 53.7757 80.9031 60.7001 66.9037 76.5812C66.9037 76.5812 62.463 38.271 70.2154 33.0024C74.2797 30.2929 94.0745 43.9159 101.601 53.7757Z" fill="#CCB9AB"/>
<path d="M238.886 86.1397C238.886 86.1397 243.251 22.0887 228.424 16.3685C215.328 11.3257 187.329 42.1093 184.092 51.2165C184.092 51.2165 223.983 76.2046 238.886 86.1397Z" fill="#875845"/>
<path d="M195.307 48.9581C195.307 48.9581 216.607 53.6999 232.187 68.0756C232.187 68.0756 232.714 29.5396 224.434 25.0989C220.069 22.7657 201.704 38.3457 195.307 48.9581Z" fill="#CCB9AB"/>
<path fill-rule="evenodd" clip-rule="evenodd" d="M149.319 44.1415C206.07 41.2061 241.896 67.6996 241.595 85.9891C241.294 101.945 234.369 115.267 223.757 130.998C209.005 152.975 186.952 164.642 150.975 165.47C117.557 166.222 94.7518 156.137 79.774 137.019C67.0541 120.762 64.2692 108.418 62.0865 95.2468C58.248 71.9145 92.5691 47.0768 149.319 44.1415Z" fill="#EBD9CD"/>
<path d="M210.586 69.5058C196.21 58.8934 160.986 63.334 149.244 75.9034L148.115 75.9786C130.503 59.646 99.7947 63.9361 86.6233 75.9034C73.3765 87.8706 72.1723 107.364 80.1504 125.202C90.3865 148.309 125.084 154.556 125.084 154.556C143.9 156.513 151.728 152.373 152.782 151.771C153.835 152.223 162.039 155.534 180.555 151.621C180.555 151.621 214.424 141.836 222.252 117.826C228.198 99.3109 224.961 80.043 210.586 69.5058Z" fill="#875845"/>
<path d="M194.404 92.4621C194.855 94.72 193.425 96.8275 191.243 97.3543C189.06 97.8059 186.877 96.3759 186.426 94.1932C185.974 91.9352 187.404 89.8278 189.587 89.3009C191.769 88.7741 193.952 90.2794 194.404 92.4621Z" fill="white"/>
<path d="M211.865 89.5266C209.306 77.1831 197.188 69.2049 184.845 71.7639C172.501 74.323 164.523 86.4407 167.082 98.7843C169.641 111.128 181.759 119.106 194.103 116.547C206.446 113.988 214.424 101.87 211.865 89.5266Z" fill="#71C2E3"/>
<path d="M133.89 93.5159C131.331 81.1723 119.213 73.1942 106.87 75.7532C94.5263 78.3122 86.5482 90.43 89.1072 102.774C91.6662 115.117 103.784 123.095 116.128 120.536C128.471 118.052 136.449 105.935 133.89 93.5159Z" fill="#71C2E3"/>
<path d="M132.009 97.2788C130.428 89.677 122.977 84.7094 115.375 86.29C107.773 87.8706 102.806 95.3219 104.386 102.924C105.967 110.526 113.418 115.493 121.02 113.912C128.622 112.407 133.514 104.956 132.009 97.2788Z" fill="#0B1411"/>
<path d="M180.856 82.9787C188.458 81.3981 195.985 86.2904 197.49 93.9674C199.07 101.569 194.178 109.021 186.501 110.601C178.899 112.182 171.448 107.289 169.867 99.6124C168.287 92.0105 173.179 84.5593 180.856 82.9787Z" fill="#0B1411"/>
<path d="M119.289 105.483C119.74 107.741 118.31 109.924 116.127 110.376C113.869 110.827 111.762 109.397 111.31 107.214C110.859 104.956 112.289 102.849 114.472 102.322C116.654 101.871 118.837 103.301 119.289 105.483Z" fill="white"/>
<path d="M180.706 107.967C182.964 107.515 184.394 105.333 183.867 103.075C183.415 100.817 181.232 99.3867 179.05 99.9135C176.792 100.365 175.362 102.548 175.889 104.806C176.34 107.064 178.448 108.419 180.706 107.967Z" fill="white"/>
<path d="M149.771 109.999C149.771 109.999 118.31 110.752 109.655 129.869C102.053 146.804 122.525 161.556 152.932 159.975C183.34 158.395 196.662 143.793 194.253 127.385C192.522 115.268 163.695 109.397 149.771 109.999Z" fill="white"/>
<path d="M150.674 125.88C151.728 126.783 159.555 133.105 167.91 129.267C167.91 129.267 168.738 135.74 164.372 140.406C164.372 140.406 160.609 135.439 152.405 135.363C144.201 135.288 138.857 140.707 138.857 140.707C134.943 136.718 135.019 131.374 135.019 131.374C135.019 131.374 145.029 132.428 150.523 125.805C150.599 125.729 150.599 125.805 150.674 125.88Z" fill="#0A1311"/>
<path d="M152.405 135.364C160.609 135.439 164.372 140.406 164.372 140.406C162.114 142.815 158.426 144.696 152.556 144.998C145.556 145.299 141.341 143.266 138.857 140.707C138.933 140.707 144.201 135.288 152.405 135.364Z" fill="#CB542F"/>
<path fill-rule="evenodd" clip-rule="evenodd" d="M150.336 117.467C150.826 117.446 151.24 117.826 151.26 118.316L151.637 127.197C151.657 127.687 151.277 128.101 150.787 128.122C150.297 128.143 149.883 127.763 149.862 127.273L149.486 118.391C149.465 117.901 149.846 117.487 150.336 117.467Z" fill="#0B1411"/>
<path fill-rule="evenodd" clip-rule="evenodd" d="M130.149 120.327C130.639 120.298 131.059 120.671 131.088 121.161C131.117 121.65 130.744 122.071 130.255 122.1L130.202 121.214L130.149 120.327ZM130.149 120.327C130.15 120.327 130.149 120.327 130.202 121.214C130.255 122.1 130.255 122.1 130.255 122.1L130.128 122.108C130.044 122.113 129.918 122.12 129.754 122.13C129.425 122.151 128.94 122.181 128.316 122.22C127.067 122.3 125.26 122.418 123.032 122.572C118.574 122.88 112.429 123.331 105.675 123.905C92.1503 125.053 76.242 126.687 66.5516 128.632C66.0708 128.729 65.6028 128.417 65.5063 127.936C65.4098 127.456 65.7213 126.988 66.202 126.891C76.0054 124.923 92.0097 123.283 105.524 122.135C112.29 121.561 118.446 121.109 122.909 120.801C125.142 120.646 126.951 120.528 128.203 120.448C128.828 120.408 129.315 120.378 129.645 120.358C129.81 120.348 129.936 120.34 130.021 120.335L130.149 120.327Z" fill="#0B1411"/>
<path fill-rule="evenodd" clip-rule="evenodd" d="M125.665 124.633C126.146 124.538 126.613 124.851 126.708 125.332C126.803 125.813 126.49 126.28 126.009 126.375L125.837 125.504L125.665 124.633ZM125.665 124.633C125.665 124.633 125.665 124.633 125.837 125.504C126.009 126.375 126.009 126.375 126.009 126.375L125.535 126.469C125.223 126.531 124.763 126.623 124.171 126.743C122.985 126.982 121.269 127.332 119.144 127.773C114.895 128.654 109.015 129.9 102.491 131.357C89.4315 134.273 73.8336 138.028 63.568 141.4C63.1021 141.553 62.6004 141.3 62.4474 140.834C62.2944 140.368 62.548 139.866 63.0139 139.713C73.371 136.311 89.0459 132.54 102.104 129.624C108.639 128.164 114.528 126.917 118.784 126.034C120.912 125.593 122.631 125.242 123.819 125.002C124.413 124.882 124.874 124.79 125.187 124.728L125.665 124.633Z" fill="#0B1411"/>
<path fill-rule="evenodd" clip-rule="evenodd" d="M130.668 128.385C130.823 128.85 130.571 129.353 130.106 129.508C117.107 133.828 104.725 138.563 95.5901 142.219C91.0234 144.046 87.2698 145.604 84.6585 146.704C83.3529 147.254 82.3329 147.69 81.6398 147.988C81.2932 148.137 81.0283 148.251 80.8503 148.328L80.6491 148.416L80.5829 148.445L80.5821 148.445C80.582 148.445 80.5819 148.445 80.2259 147.632C79.8699 146.819 79.87 146.818 79.8703 146.818L79.9396 146.788L80.1434 146.699C80.3232 146.621 80.5899 146.506 80.9383 146.356C81.6352 146.057 82.6592 145.619 83.9691 145.067C86.5887 143.964 90.3523 142.402 94.9303 140.57C104.085 136.906 116.503 132.158 129.546 127.822C130.011 127.668 130.514 127.92 130.668 128.385ZM79.4126 147.988C79.2159 147.539 79.4211 147.015 79.8703 146.818L80.2259 147.632L80.5821 148.445C80.1329 148.642 79.6092 148.437 79.4126 147.988Z" fill="#0B1411"/>
<path fill-rule="evenodd" clip-rule="evenodd" d="M172.917 119.843C172.916 119.843 172.916 119.843 172.877 118.961L172.917 119.843C172.427 119.864 172.012 119.485 171.99 118.995C171.969 118.505 172.348 118.09 172.838 118.069L172.877 118.956C172.838 118.069 172.838 118.069 172.838 118.069L172.967 118.063C173.051 118.059 173.177 118.054 173.342 118.047C173.673 118.033 174.159 118.013 174.785 117.988C176.038 117.938 177.848 117.869 180.083 117.792C184.551 117.638 190.716 117.452 197.501 117.325C211.053 117.071 227.133 117.05 237.087 117.996C237.576 118.043 237.934 118.476 237.887 118.964C237.841 119.452 237.408 119.811 236.919 119.764C227.079 118.829 211.096 118.846 197.534 119.1C190.761 119.227 184.606 119.413 180.144 119.567C177.913 119.643 176.105 119.713 174.856 119.762C174.231 119.787 173.746 119.807 173.417 119.821C173.253 119.828 173.127 119.833 173.043 119.837L172.917 119.843Z" fill="#0B1411"/>
<path fill-rule="evenodd" clip-rule="evenodd" d="M176.81 122.787C176.855 122.299 177.288 121.94 177.776 121.985L177.695 122.869L177.613 123.753C177.125 123.708 176.765 123.276 176.81 122.787ZM177.695 122.869C177.613 123.753 177.613 123.753 177.613 123.753L178.094 123.798C178.41 123.828 178.877 123.872 179.478 123.93C180.681 124.046 182.424 124.216 184.581 124.435C188.896 124.874 194.87 125.506 201.507 126.281C214.792 127.834 230.691 129.956 241.257 132.242C241.736 132.345 242.209 132.041 242.312 131.561C242.416 131.082 242.111 130.61 241.632 130.506C230.973 128.2 214.997 126.07 201.713 124.518C195.066 123.741 189.082 123.108 184.76 122.669C182.6 122.449 180.854 122.278 179.648 122.162C179.046 122.104 178.578 122.06 178.26 122.03L177.776 121.985C177.776 121.985 177.776 121.985 177.695 122.869Z" fill="#0B1411"/>
<path fill-rule="evenodd" clip-rule="evenodd" d="M173.139 126.216C173.244 125.737 173.717 125.434 174.196 125.539C187.617 128.48 200.468 131.909 209.962 134.603C214.71 135.95 218.619 137.114 221.343 137.94C222.705 138.354 223.77 138.683 224.495 138.909C224.858 139.022 225.135 139.11 225.322 139.169L225.535 139.236L225.607 139.259C225.607 139.259 225.607 139.259 225.337 140.105C225.067 140.951 225.067 140.951 225.067 140.951L224.998 140.928L224.788 140.862C224.603 140.804 224.327 140.717 223.966 140.605C223.245 140.38 222.184 140.052 220.827 139.64C218.112 138.815 214.213 137.655 209.477 136.311C200.004 133.624 187.19 130.204 173.816 127.274C173.337 127.169 173.034 126.695 173.139 126.216ZM226.183 140.375C226.034 140.842 225.534 141.1 225.067 140.951L225.337 140.105L225.607 139.259C226.074 139.408 226.332 139.908 226.183 140.375Z" fill="#0B1411"/>
<path d="M150.975 103.903C158.953 103.752 165.501 106.537 165.577 110.074C165.652 113.612 150.448 118.278 150.448 118.278C150.448 118.278 136.675 114.063 136.599 110.526C136.524 107.064 142.922 104.053 150.975 103.903Z" fill="#CF7071"/>
<path d="M88.0533 157.567C88.0533 157.567 72.925 188.125 73.9034 196.63C74.8819 205.135 97.6121 215.296 106.418 201.974C111.386 194.448 111.085 164.718 111.085 164.718C111.085 164.718 98.741 164.341 88.0533 157.567Z" fill="#875845"/>
<path d="M88.9565 164.341C91.8919 165.922 94.9777 166.975 97.4615 167.352C101.676 167.954 106.117 167.051 109.805 164.793C112.966 162.836 113.869 159.599 113.418 156.062C113.041 153.277 111.762 150.567 109.429 149.062C108.3 148.385 107.096 147.933 105.967 147.256C103.934 145.976 102.655 143.718 101.3 141.686C99.9453 139.654 98.1389 137.697 95.7304 137.17C93.3219 136.719 90.4618 138.676 90.9134 141.084C89.4081 139.202 86.6985 138.073 84.4406 138.901C82.1826 139.729 80.9031 142.815 82.2579 144.847C81.2794 144.095 79.6988 144.32 78.7204 145.148C77.7419 145.976 77.2903 147.256 77.1398 148.535C76.3872 154.933 82.4837 160.804 88.9565 164.341Z" fill="#CCB9AB"/>
<path d="M226.392 144.998C226.392 144.998 218.263 141.762 206.672 157.567C202.156 163.739 196.21 189.329 196.21 189.329L172.953 207.769C172.953 207.769 170.018 223.048 189.135 224.328C189.135 224.328 207.048 213.941 225.037 204.533C234.294 199.716 240.993 170.739 240.993 170.739C240.993 170.739 244.23 145.148 226.392 144.998Z" fill="#875845"/>
<path d="M174.006 206.189C174.006 206.189 160.835 205.737 153.685 213.489C146.61 221.242 154.212 224.026 154.212 224.026C154.212 224.026 151.051 230.876 157.824 231.929C164.598 233.058 164.598 233.058 164.598 233.058C164.598 233.058 163.469 237.8 171.824 237.273C180.178 236.822 187.554 232.381 190.414 222.145C190.414 222.22 187.63 206.113 174.006 206.189Z" fill="#CCB9AB"/>
</svg>
