<svg width="400" height="230" viewBox="0 0 400 230" fill="none" xmlns="http://www.w3.org/2000/svg">
<path fill-rule="evenodd" clip-rule="evenodd" d="M84.5 12.5C129.471 -6.57944 145.112 13.6483 197.5 21.5C246.276 28.8104 289.819 32.997 315.364 60.853C339.055 86.6875 336.795 118.293 324.859 147.324C314.173 173.315 289.42 195.842 254.052 209.98C221.043 223.175 221.225 205.065 182.5 203.5C137.212 201.67 48.9759 220.347 15.7581 200.351C-33.3882 170.767 48.5186 121.619 53.6118 87.5C58.9744 51.5767 59.5 26 84.5 12.5Z" fill="#FFF1CB"/>
<path d="M210.612 62.7502L171.534 79.906L165.727 75.0491C165.727 75.0491 160.705 72.229 159.528 76.3808V88.3664H212.652L210.612 62.7502Z" fill="white"/>
<path d="M210.769 65.3353L174.045 81.5511L168.552 77.0075C168.552 77.0075 163.844 74.3441 162.746 78.2609V89.6198H212.731L210.769 65.3353Z" fill="#8FA9FF"/>
<path fill-rule="evenodd" clip-rule="evenodd" d="M211.053 62.0125C211.293 62.1552 211.448 62.4047 211.47 62.6821L213.51 88.2983C213.529 88.5373 213.447 88.7734 213.285 88.9495C213.122 89.1256 212.892 89.2257 212.652 89.2257H159.528C159.053 89.2257 158.668 88.841 158.668 88.3664V76.3808C158.668 76.3017 158.678 76.223 158.7 76.1468C159.05 74.9123 159.724 74.0966 160.607 73.6535C161.456 73.2271 162.389 73.2009 163.183 73.3062C163.983 73.4124 164.723 73.6628 165.25 73.8778C165.517 73.9866 165.736 74.0894 165.891 74.1659C165.969 74.2043 166.031 74.2363 166.074 74.2594C166.096 74.271 166.113 74.2804 166.126 74.2873L166.141 74.2957L166.146 74.2984L166.148 74.2994L166.149 74.2998C166.149 74.3 166.149 74.3002 165.727 75.0491L166.149 74.3002C166.196 74.3262 166.239 74.3564 166.28 74.3904L171.677 78.9045L210.265 61.9636C210.521 61.8516 210.814 61.8698 211.053 62.0125ZM165.242 75.7644C165.213 75.7491 165.174 75.7294 165.127 75.7061C165.003 75.6447 164.821 75.5596 164.599 75.4688C164.148 75.2848 163.558 75.0897 162.956 75.0098C162.347 74.929 161.803 74.9764 161.38 75.1889C161.007 75.376 160.63 75.7395 160.389 76.5059V87.5071H211.72L209.85 64.0234L171.881 80.6926C171.581 80.8242 171.232 80.7746 170.981 80.5647L165.242 75.7644Z" fill="#B3B3B4"/>
<path d="M160.313 92.5966C163.823 92.5966 166.669 89.7557 166.669 86.2513C166.669 82.7469 163.823 79.906 160.313 79.906C156.803 79.906 153.957 82.7469 153.957 86.2513C153.957 89.7557 156.803 92.5966 160.313 92.5966Z" fill="white"/>
<path d="M161.569 93.38C164.819 93.38 167.454 90.7495 167.454 87.5047C167.454 84.2599 164.819 81.6294 161.569 81.6294C158.318 81.6294 155.683 84.2599 155.683 87.5047C155.683 90.7495 158.318 93.38 161.569 93.38Z" fill="#8081D3"/>
<path fill-rule="evenodd" clip-rule="evenodd" d="M160.313 80.7653C157.278 80.7653 154.818 83.2215 154.818 86.2513C154.818 89.2811 157.278 91.7373 160.313 91.7373C163.348 91.7373 165.808 89.2811 165.808 86.2513C165.808 83.2215 163.348 80.7653 160.313 80.7653ZM153.096 86.2513C153.096 82.2723 156.327 79.0467 160.313 79.0467C164.299 79.0467 167.53 82.2723 167.53 86.2513C167.53 90.2303 164.299 93.4559 160.313 93.4559C156.327 93.4559 153.096 90.2303 153.096 86.2513Z" fill="#B3B3B4"/>
<path d="M203.55 163.492C203.55 169.602 188.954 181.979 160.705 181.979C132.299 181.979 117.861 169.602 117.861 163.492C117.861 160.985 137.008 158.948 160.705 158.948C184.403 158.948 203.55 160.985 203.55 163.492Z" fill="white"/>
<path d="M123.903 167.644C126.414 174.146 139.597 184.094 163.373 184.094C188.248 184.094 201.745 173.049 203.157 166.625C198.214 168.897 181.578 170.542 161.961 170.542C145.325 170.464 130.965 169.289 123.903 167.644Z" fill="#8FA9FF"/>
<path d="M160.705 168.035C184.368 168.035 203.55 166.001 203.55 163.492C203.55 160.982 184.368 158.948 160.705 158.948C137.043 158.948 117.861 160.982 117.861 163.492C117.861 166.001 137.043 168.035 160.705 168.035Z" fill="white"/>
<path d="M163.373 168.819C185.432 168.819 203.314 166.82 203.314 164.354C203.314 161.887 185.432 159.888 163.373 159.888C141.314 159.888 123.432 161.887 123.432 164.354C123.432 166.82 141.314 168.819 163.373 168.819Z" fill="#D8E0F8"/>
<path fill-rule="evenodd" clip-rule="evenodd" d="M118.724 163.602C118.767 164.814 119.517 166.491 121.204 168.387C122.921 170.317 125.528 172.379 129.04 174.271C136.058 178.052 146.625 181.12 160.705 181.12C174.706 181.12 185.274 178.053 192.313 174.27C195.835 172.378 198.457 170.315 200.186 168.385C201.887 166.488 202.643 164.812 202.687 163.602C202.624 163.543 202.501 163.452 202.284 163.339C201.803 163.09 201.038 162.824 199.978 162.558C197.871 162.029 194.784 161.544 190.923 161.134C183.213 160.316 172.534 159.808 160.705 159.808C148.877 159.808 138.198 160.316 130.487 161.134C126.627 161.544 123.54 162.029 121.433 162.558C120.372 162.824 119.608 163.09 119.127 163.339C118.91 163.452 118.787 163.543 118.724 163.602ZM130.305 159.425C138.093 158.599 148.836 158.089 160.705 158.089C172.575 158.089 183.318 158.599 191.105 159.425C194.994 159.838 198.174 160.333 200.398 160.891C201.503 161.168 202.419 161.473 203.078 161.814C203.406 161.984 203.714 162.186 203.951 162.434C204.192 162.685 204.41 163.042 204.41 163.492C204.41 165.33 203.336 167.448 201.469 169.531C199.579 171.64 196.787 173.818 193.129 175.784C185.808 179.718 174.953 182.839 160.705 182.839C146.38 182.839 135.525 179.718 128.222 175.783C124.573 173.817 121.795 171.639 119.917 169.529C118.062 167.444 117 165.327 117 163.492C117 163.042 117.219 162.685 117.459 162.434C117.696 162.186 118.005 161.984 118.333 161.814C118.992 161.473 119.908 161.168 121.013 160.891C123.236 160.333 126.417 159.838 130.305 159.425Z" fill="#B3B3B4"/>
<path fill-rule="evenodd" clip-rule="evenodd" d="M118.866 163.492C118.932 163.536 119.018 163.588 119.128 163.645C119.61 163.895 120.376 164.161 121.438 164.427C123.547 164.956 126.638 165.44 130.501 165.85C138.215 166.668 148.895 167.176 160.705 167.176C172.516 167.176 183.195 166.668 190.91 165.85C194.773 165.44 197.863 164.956 199.973 164.427C201.035 164.161 201.801 163.895 202.283 163.645C202.393 163.588 202.479 163.536 202.545 163.492C202.479 163.447 202.393 163.396 202.283 163.339C201.801 163.089 201.035 162.823 199.973 162.557C197.863 162.028 194.773 161.543 190.91 161.133C183.195 160.315 172.516 159.808 160.705 159.808C148.895 159.808 138.215 160.315 130.501 161.133C126.638 161.543 123.547 162.028 121.438 162.557C120.376 162.823 119.61 163.089 119.128 163.339C119.018 163.396 118.932 163.447 118.866 163.492ZM130.319 159.425C138.111 158.598 148.854 158.089 160.705 158.089C172.557 158.089 183.3 158.598 191.092 159.425C194.982 159.837 198.166 160.332 200.392 160.89C201.499 161.167 202.417 161.472 203.076 161.813C203.404 161.984 203.713 162.186 203.951 162.433C204.191 162.685 204.41 163.041 204.41 163.492C204.41 163.942 204.191 164.299 203.951 164.55C203.713 164.798 203.404 165 203.076 165.17C202.417 165.512 201.499 165.816 200.392 166.094C198.166 166.652 194.982 167.146 191.092 167.559C183.3 168.385 172.557 168.895 160.705 168.895C148.854 168.895 138.111 168.385 130.319 167.559C126.428 167.146 123.244 166.652 121.018 166.094C119.912 165.816 118.994 165.512 118.335 165.17C118.006 165 117.697 164.798 117.46 164.55C117.219 164.299 117 163.942 117 163.492C117 163.041 117.219 162.685 117.46 162.433C117.697 162.186 118.006 161.984 118.335 161.813C118.994 161.472 119.912 161.167 121.018 160.89C123.244 160.332 126.428 159.837 130.319 159.425Z" fill="#B3B3B4"/>
<path fill-rule="evenodd" clip-rule="evenodd" d="M156.876 91.1349C157.295 91.3599 157.451 91.881 157.226 92.2989L118.619 163.899C118.394 164.317 117.872 164.473 117.453 164.248C117.034 164.023 116.878 163.502 117.103 163.084L155.71 91.4843C155.935 91.0664 156.457 90.91 156.876 91.1349Z" fill="#B3B3B4"/>
<path fill-rule="evenodd" clip-rule="evenodd" d="M162.715 91.1429C163.13 90.9099 163.654 91.0563 163.888 91.4697L204.3 163.07C204.533 163.483 204.386 164.007 203.972 164.24C203.558 164.473 203.033 164.327 202.8 163.914L162.388 92.3134C162.155 91.8999 162.301 91.3759 162.715 91.1429Z" fill="#B3B3B4"/>
<path d="M228.189 62.7502L267.267 79.906L273.074 75.0491C273.074 75.0491 278.096 72.229 279.273 76.3808V88.3664H226.149L228.189 62.7502Z" fill="white"/>
<path d="M228.032 65.3353L264.756 81.5511L270.249 77.0075C270.249 77.0075 274.957 74.3441 276.056 78.2609V89.6198H226.071L228.032 65.3353Z" fill="#8FA9FF"/>
<path fill-rule="evenodd" clip-rule="evenodd" d="M227.748 62.0125C227.987 61.8698 228.281 61.8516 228.536 61.9636L267.124 78.9045L272.521 74.3904C272.562 74.3564 272.606 74.3262 272.652 74.3002L273.074 75.0491C272.652 74.3002 272.652 74.3003 272.652 74.3002L272.655 74.2984L272.66 74.2957L272.675 74.2873C272.688 74.2804 272.705 74.271 272.727 74.2594C272.771 74.2363 272.832 74.2043 272.91 74.1659C273.065 74.0894 273.285 73.9866 273.551 73.8778C274.079 73.6628 274.818 73.4124 275.619 73.3062C276.412 73.2009 277.345 73.2271 278.194 73.6535C279.077 74.0966 279.751 74.9123 280.101 76.1468C280.123 76.223 280.134 76.3017 280.134 76.3808V88.3664C280.134 88.841 279.748 89.2257 279.273 89.2257H226.149C225.909 89.2257 225.68 89.1256 225.517 88.9495C225.354 88.7734 225.272 88.5373 225.291 88.2983L227.331 62.6821C227.353 62.4047 227.508 62.1552 227.748 62.0125ZM273.559 75.7644L267.82 80.5647C267.569 80.7746 267.22 80.8242 266.921 80.6926L228.951 64.0234L227.081 87.5071H278.412V76.5059C278.171 75.7395 277.794 75.376 277.421 75.1889C276.998 74.9764 276.454 74.929 275.845 75.0098C275.243 75.0897 274.654 75.2848 274.202 75.4688C273.98 75.5596 273.798 75.6447 273.674 75.7061C273.627 75.7294 273.588 75.7491 273.559 75.7644Z" fill="#B3B3B4"/>
<path d="M278.488 92.5966C281.999 92.5966 284.844 89.7557 284.844 86.2513C284.844 82.7469 281.999 79.906 278.488 79.906C274.978 79.906 272.132 82.7469 272.132 86.2513C272.132 89.7557 274.978 92.5966 278.488 92.5966Z" fill="white"/>
<path d="M277.233 93.38C280.483 93.38 283.118 90.7495 283.118 87.5047C283.118 84.2599 280.483 81.6294 277.233 81.6294C273.982 81.6294 271.348 84.2599 271.348 87.5047C271.348 90.7495 273.982 93.38 277.233 93.38Z" fill="#8081D3"/>
<path fill-rule="evenodd" clip-rule="evenodd" d="M278.488 80.7653C275.453 80.7653 272.993 83.2215 272.993 86.2513C272.993 89.2811 275.453 91.7373 278.488 91.7373C281.523 91.7373 283.984 89.2811 283.984 86.2513C283.984 83.2215 281.523 80.7653 278.488 80.7653ZM271.271 86.2513C271.271 82.2723 274.503 79.0467 278.488 79.0467C282.474 79.0467 285.705 82.2723 285.705 86.2513C285.705 90.2303 282.474 93.4559 278.488 93.4559C274.503 93.4559 271.271 90.2303 271.271 86.2513Z" fill="#B3B3B4"/>
<path d="M235.251 163.492C235.251 169.602 249.847 181.979 278.096 181.979C306.502 181.979 320.94 169.602 320.94 163.492C320.94 160.985 301.794 158.948 278.096 158.948C254.398 158.948 235.251 160.985 235.251 163.492Z" fill="white"/>
<path d="M314.898 167.644C312.387 174.146 299.204 184.094 275.428 184.094C250.553 184.094 237.056 173.049 235.644 166.625C240.587 168.897 257.223 170.542 276.84 170.542C293.476 170.464 307.836 169.289 314.898 167.644Z" fill="#8FA9FF"/>
<path d="M278.096 168.035C301.758 168.035 320.94 166.001 320.94 163.492C320.94 160.982 301.758 158.948 278.096 158.948C254.434 158.948 235.251 160.982 235.251 163.492C235.251 166.001 254.434 168.035 278.096 168.035Z" fill="white"/>
<path d="M275.428 168.819C297.487 168.819 315.369 166.82 315.369 164.354C315.369 161.887 297.487 159.888 275.428 159.888C253.369 159.888 235.487 161.887 235.487 164.354C235.487 166.82 253.369 168.819 275.428 168.819Z" fill="#D8E0F8"/>
<path fill-rule="evenodd" clip-rule="evenodd" d="M247.696 159.425C255.484 158.599 266.227 158.089 278.096 158.089C289.965 158.089 300.708 158.599 308.496 159.425C312.384 159.838 315.565 160.333 317.788 160.891C318.893 161.168 319.81 161.473 320.468 161.814C320.796 161.984 321.105 162.186 321.342 162.434C321.582 162.685 321.801 163.042 321.801 163.492C321.801 165.327 320.74 167.444 318.884 169.529C317.006 171.639 314.228 173.817 310.579 175.783C303.277 179.718 292.422 182.839 278.096 182.839C263.848 182.839 252.993 179.718 245.672 175.784C242.014 173.818 239.222 171.64 237.332 169.531C235.465 167.448 234.391 165.33 234.391 163.492C234.391 163.042 234.61 162.685 234.85 162.434C235.087 162.186 235.396 161.984 235.724 161.814C236.382 161.473 237.299 161.168 238.404 160.891C240.627 160.333 243.808 159.838 247.696 159.425ZM236.114 163.602C236.158 164.812 236.915 166.488 238.615 168.385C240.345 170.315 242.966 172.378 246.488 174.27C253.527 178.053 264.095 181.12 278.096 181.12C292.176 181.12 302.743 178.052 309.762 174.271C313.273 172.379 315.88 170.317 317.597 168.387C319.285 166.491 320.035 164.814 320.078 163.602C320.015 163.543 319.891 163.452 319.674 163.339C319.193 163.09 318.429 162.824 317.369 162.558C315.261 162.029 312.174 161.544 308.314 161.134C300.604 160.316 289.924 159.808 278.096 159.808C266.267 159.808 255.588 160.316 247.878 161.134C244.018 161.544 240.93 162.029 238.823 162.558C237.763 162.824 236.999 163.09 236.517 163.339C236.301 163.452 236.177 163.543 236.114 163.602Z" fill="#B3B3B4"/>
<path fill-rule="evenodd" clip-rule="evenodd" d="M236.256 163.492C236.323 163.536 236.409 163.588 236.519 163.645C237.001 163.895 237.766 164.161 238.828 164.427C240.938 164.956 244.029 165.44 247.891 165.85C255.606 166.668 266.285 167.176 278.096 167.176C289.907 167.176 300.586 166.668 308.301 165.85C312.163 165.44 315.254 164.956 317.364 164.427C318.426 164.161 319.191 163.895 319.673 163.645C319.783 163.588 319.869 163.536 319.935 163.492C319.869 163.447 319.783 163.396 319.673 163.339C319.191 163.089 318.426 162.823 317.364 162.557C315.254 162.028 312.163 161.543 308.301 161.133C300.586 160.315 289.907 159.808 278.096 159.808C266.285 159.808 255.606 160.315 247.891 161.133C244.029 161.543 240.938 162.028 238.828 162.557C237.766 162.823 237.001 163.089 236.519 163.339C236.409 163.396 236.323 163.447 236.256 163.492ZM247.709 159.425C255.501 158.598 266.244 158.089 278.096 158.089C289.948 158.089 300.69 158.598 308.482 159.425C312.373 159.837 315.557 160.332 317.783 160.89C318.889 161.167 319.807 161.472 320.466 161.813C320.795 161.984 321.104 162.186 321.341 162.433C321.582 162.685 321.801 163.041 321.801 163.492C321.801 163.942 321.582 164.299 321.341 164.55C321.104 164.798 320.795 165 320.466 165.17C319.807 165.512 318.889 165.816 317.783 166.094C315.557 166.652 312.373 167.146 308.482 167.559C300.69 168.385 289.948 168.895 278.096 168.895C266.244 168.895 255.501 168.385 247.709 167.559C243.819 167.146 240.635 166.652 238.409 166.094C237.303 165.816 236.385 165.512 235.725 165.17C235.397 165 235.088 164.798 234.851 164.55C234.61 164.299 234.391 163.942 234.391 163.492C234.391 163.041 234.61 162.685 234.851 162.433C235.088 162.186 235.397 161.984 235.725 161.813C236.385 161.472 237.303 161.167 238.409 160.89C240.635 160.332 243.819 159.837 247.709 159.425Z" fill="#B3B3B4"/>
<path fill-rule="evenodd" clip-rule="evenodd" d="M281.925 91.1349C282.344 90.91 282.866 91.0664 283.091 91.4843L321.698 163.084C321.924 163.502 321.767 164.023 321.348 164.248C320.93 164.473 320.408 164.317 320.182 163.899L281.575 92.2989C281.35 91.881 281.507 91.3599 281.925 91.1349Z" fill="#B3B3B4"/>
<path fill-rule="evenodd" clip-rule="evenodd" d="M276.007 91.1426C276.421 91.3752 276.568 91.8991 276.335 92.3128L236.002 163.913C235.769 164.327 235.244 164.473 234.83 164.241C234.415 164.008 234.268 163.484 234.501 163.071L274.835 91.4704C275.068 91.0567 275.592 90.91 276.007 91.1426Z" fill="#B3B3B4"/>
<path d="M209.592 49.2762L213.045 93.7717H226.071L228.111 49.2762H209.592Z" fill="white"/>
<path d="M212.181 51.2346L215.399 95.4168H227.326L229.209 51.2346H212.181Z" fill="#8081D3"/>
<path fill-rule="evenodd" clip-rule="evenodd" d="M208.96 48.6925C209.123 48.5168 209.352 48.4169 209.592 48.4169H228.111C228.346 48.4169 228.571 48.5129 228.733 48.6826C228.896 48.8523 228.981 49.081 228.971 49.3155L226.93 93.811C226.909 94.2698 226.531 94.631 226.071 94.631H213.045C212.595 94.631 212.221 94.2855 212.186 93.838L208.734 49.3425C208.715 49.1038 208.797 48.8682 208.96 48.6925ZM210.522 50.1355L213.841 92.9124H225.248L227.21 50.1355H210.522Z" fill="#B3B3B4"/>
<path d="M257.301 208.379C257.301 208.379 251.259 211.042 250.004 215.821C248.748 220.6 251.809 223.341 254.555 220.521C254.555 220.521 254.32 223.655 257.301 224.125C260.283 224.673 262.48 222.48 262.48 222.48C262.48 222.48 263.422 224.595 266.09 224.595C269.15 224.595 273.231 223.106 274.408 218.719C275.663 214.254 274.486 209.632 271.818 208.066C269.15 206.499 261.774 206.734 257.301 208.379Z" fill="#E5A26A"/>
<path d="M247.1 156.755C247.1 156.755 240.823 162.16 245.845 185.348C248.199 196.158 256.674 209.554 256.674 209.554C256.674 209.554 259.42 216.056 271.897 208.066L269.229 187.776C269.229 187.776 268.993 168.27 266.639 162.317C261.225 148.686 252.75 148.921 247.1 156.755Z" fill="#BB7942"/>
<path d="M260.911 121.738C260.911 121.738 250.396 120.25 242.628 115.471C230.857 108.264 224.423 101.527 224.423 101.527L230.308 93.85C230.308 93.85 250.082 100.744 262.245 101.84C280.528 103.486 275.036 113.904 275.036 113.904C275.036 113.904 272.681 123.226 260.911 121.738Z" fill="#D88943"/>
<path d="M227.012 104.112C227.012 104.112 220.656 106.306 214.143 103.094C207.63 99.882 206.453 92.1266 209.827 90.7165C213.202 89.3065 214.614 90.8732 214.614 90.8732C214.614 90.8732 214.379 90.3248 217.282 90.3248C220.185 90.3248 222.932 94.555 222.932 94.555L230.386 93.7717C230.386 93.85 232.74 98.7853 227.012 104.112Z" fill="#EEC39F"/>
<path d="M396.977 118.526C398.233 119.545 399.488 121.111 399.802 122.991C400.195 124.872 399.645 127.065 397.762 129.493C395.173 132.862 392.191 134.742 389.052 135.995C385.913 137.171 382.696 137.719 379.4 138.032C377.752 138.189 376.104 138.267 374.457 138.346C372.809 138.424 371.239 138.502 369.67 138.581C366.531 138.737 363.785 138.972 361.823 139.364C361.823 139.364 361.431 139.442 360.803 139.677C360.175 139.912 359.233 140.226 358.135 140.696C357.115 141.166 356.016 141.871 354.996 142.654C354.054 143.437 353.113 144.378 352.171 145.788C351.7 146.493 351.23 147.276 350.759 148.216C350.288 149.156 349.896 150.174 349.425 151.271C348.562 153.543 347.698 156.128 346.835 158.948C345.894 161.768 344.952 164.745 343.696 167.8C343.069 169.289 342.362 170.855 341.578 172.266C340.793 173.754 339.93 175.164 338.988 176.417C338.125 177.671 336.87 179.316 335.065 181.118C334.123 181.979 333.103 182.919 331.926 183.859C331.377 184.251 330.749 184.721 330.121 185.191C329.493 185.583 328.787 186.053 328.081 186.445C325.256 188.09 321.803 189.421 318.194 190.048C314.506 190.753 310.739 190.753 307.208 190.283C300.067 189.265 294.104 186.445 289.631 183.624C285.08 180.726 281.862 177.827 279.979 176.104C278.645 174.851 277.233 173.049 276.448 171.09C275.663 169.132 275.506 167.017 276.605 165.294C277.468 163.727 279.822 162.16 282.176 161.142C284.609 160.045 287.041 159.418 288.454 159.888C289.395 160.202 290.023 160.985 290.651 161.69C292.77 164.118 296.222 167.174 300.538 169.445C302.735 170.62 305.089 171.482 307.522 172.031C308.699 172.266 309.955 172.422 311.132 172.422C312.309 172.422 313.407 172.344 314.506 172.031C315.604 171.796 316.624 171.404 317.566 170.934C318.508 170.385 319.449 169.837 320.312 169.132C321.176 168.427 321.882 167.644 322.51 166.86C323.137 165.999 323.765 165.059 324.314 164.118C325.413 162.16 326.198 159.967 326.904 157.773C327.61 155.658 328.238 153.543 328.787 151.741C329.572 149.156 330.357 146.414 331.455 143.516C332.475 140.696 333.809 137.641 335.693 134.742C337.497 131.844 339.93 128.945 342.755 126.595C345.501 124.245 348.562 122.443 351.622 121.033C354.682 119.623 357.821 118.526 360.96 117.743C364.099 116.96 367.159 116.411 370.298 116.019C376.575 115.236 382.931 115.314 389.366 116.176C392.897 116.411 395.486 117.351 396.977 118.526Z" fill="#BB7942"/>
<path d="M396.977 118.526C395.486 117.273 392.897 116.411 389.287 115.941C384.108 115.236 378.929 115.079 373.75 115.471C368.571 115.863 363.628 116.724 358.527 118.213C358.684 118.37 358.92 118.448 359.312 118.605C362.137 119.466 364.883 120.25 367.63 120.876C370.376 121.503 373.044 122.051 375.712 122.443C371.867 123.461 368.257 124.793 364.883 126.595C364.334 126.83 363.785 127.378 364.02 127.927C364.099 128.162 364.412 128.318 364.648 128.475C366.453 129.493 368.493 129.963 370.455 129.807C369.513 130.277 368.493 130.355 367.551 130.668C366.61 131.06 365.668 131.844 365.668 132.94C365.668 133.567 365.903 134.115 366.139 134.664C367.08 136.465 368.414 137.64 369.905 138.502C374.535 138.189 379.635 138.189 384.422 137.249C386.855 136.779 389.209 136.074 391.484 134.82C392.583 134.194 393.76 133.489 394.78 132.627C395.879 131.765 396.899 130.668 397.84 129.415C399.724 126.908 400.273 124.793 399.881 122.913C399.488 121.111 398.233 119.623 396.977 118.526Z" fill="#EEC39F"/>
<path d="M281.235 100.039C275.271 104.974 266.718 116.646 263.736 120.955C257.144 130.277 248.199 135.134 244.118 145.788C239.175 158.557 249.219 170.777 260.911 175.164C282.804 183.468 291.043 171.482 295.359 162.473C306.031 139.912 298.655 126.203 297.556 112.573C297.085 107.089 296.144 101.057 292.063 97.2969C286.257 92.205 286.649 95.4951 281.235 100.039Z" fill="#BB7942"/>
<path d="M287.434 105.757C287.434 105.757 288.375 127.927 281.705 149.861C275.114 171.717 258.714 176.026 248.042 167.565C242.157 162.943 239.646 146.493 246.708 134.35C258.086 114.844 278.802 97.1402 278.802 97.1402L287.434 105.757Z" fill="#EEC39F"/>
<path d="M276.448 213.784C276.448 213.784 270.406 216.448 269.15 221.226C267.895 226.005 270.955 228.747 273.702 225.926C273.702 225.926 273.466 229.06 276.448 229.53C279.43 230.078 281.627 227.885 281.627 227.885C281.627 227.885 282.569 230 285.237 230C288.297 230 292.377 228.512 293.554 224.125C294.81 219.659 293.633 215.038 290.965 213.471C288.297 211.982 280.842 212.139 276.448 213.784Z" fill="#EEC39F"/>
<path d="M272.446 164.824C272.446 164.824 264.364 174.537 267.502 191.693C269.543 202.582 274.015 215.116 274.015 215.116C274.015 215.116 278.488 221.461 290.965 213.471L290.651 193.103C290.651 193.103 295.595 174.929 293.24 168.975C287.826 155.345 279.116 153.543 272.446 164.824Z" fill="#D88943"/>
<path d="M260.048 175.947L291.357 168.975L289.945 164.824L258.792 171.169L260.048 175.947Z" fill="#428B75"/>
<path d="M279.037 128.632L249.297 135.369L259.028 174.616L289.082 167.409L284.844 130.12L279.037 128.632Z" fill="#D0D2EA"/>
<path d="M255.967 139.834L265.933 179.551L298.89 171.874L287.434 132.079L255.967 139.834Z" fill="#428B75"/>
<path d="M277.782 130.198L250.239 136.309L255.732 139.521L282.726 132C282.647 132.079 279.979 129.728 277.782 130.198Z" fill="white"/>
<path d="M250.161 136.387L259.812 175.086C259.812 175.086 262.245 175.791 265.933 179.551L255.654 139.677C255.654 139.599 254.555 137.014 250.161 136.387Z" fill="#EDEDF7"/>
<path d="M255.967 139.834L287.355 132.079C287.355 132.079 289.474 130.668 284.138 128.945C278.802 127.222 275.271 128.397 275.271 128.397L248.277 134.899L249.533 135.839C251.573 135.369 273.545 130.198 276.683 129.493C278.253 129.18 280.45 129.258 281.941 129.728C282.883 130.042 284.295 131.295 283.275 131.53C277.547 133.019 254.79 138.502 254.398 138.581L255.967 139.834Z" fill="#609682"/>
<path d="M248.356 134.899L258.557 174.459L260.048 175.947L249.611 135.839L248.356 134.899Z" fill="#427E72"/>
<path d="M254.398 138.659L255.967 139.834L265.933 179.551L264.521 178.141L254.398 138.659Z" fill="#427E72"/>
<path fill-rule="evenodd" clip-rule="evenodd" d="M268.931 133.137C268.996 133.406 268.83 133.676 268.561 133.74L252.339 137.617L254.884 147.781C254.951 148.049 254.788 148.321 254.52 148.388C254.251 148.455 253.979 148.292 253.912 148.024L251.244 137.37C251.212 137.241 251.233 137.104 251.302 136.989C251.371 136.875 251.483 136.794 251.613 136.763L268.327 132.767C268.596 132.703 268.867 132.869 268.931 133.137Z" fill="#D0D2EA"/>
<path fill-rule="evenodd" clip-rule="evenodd" d="M258.827 160.735C259.095 160.668 259.368 160.83 259.435 161.098L263.358 176.687C263.426 176.955 263.263 177.227 262.995 177.294C262.726 177.361 262.454 177.199 262.387 176.931L258.463 161.342C258.396 161.074 258.559 160.802 258.827 160.735Z" fill="#D0D2EA"/>
<path d="M287.041 132.079L298.89 171.874C298.89 171.874 299.753 171.639 299.597 169.915L287.826 131.295C287.826 131.374 287.591 131.53 287.041 132.079Z" fill="#427E72"/>
<path fill-rule="evenodd" clip-rule="evenodd" d="M258.602 166.059C258.872 165.998 259.141 166.167 259.202 166.436L261.242 175.366C261.304 175.635 261.135 175.903 260.865 175.965C260.596 176.026 260.327 175.858 260.266 175.589L258.226 166.658C258.164 166.389 258.333 166.121 258.602 166.059Z" fill="#D0D2EA"/>
<path d="M298.106 118.056C298.106 118.056 290.886 116.019 288.925 124.245C286.963 132.392 292.299 137.327 291.043 140.774C289.788 144.221 275.428 149.469 275.428 149.469C275.428 149.469 281.078 154.326 279.43 161.22C279.43 161.22 298.027 160.75 305.953 153.621C313.8 146.493 311.681 120.798 298.106 118.056Z" fill="#D88943"/>
<path d="M275.428 149.469C275.428 149.469 268.601 147.824 263.579 150.253C258.557 152.681 263.657 156.911 263.657 156.911C263.657 156.911 260.519 161.298 266.325 162.395C266.325 162.395 265.384 165.999 270.249 165.685C275.114 165.372 281.392 161.142 281.392 161.142C281.392 161.142 284.373 152.838 275.428 149.469Z" fill="#EEC39F"/>
<path d="M249.847 41.2858C249.847 41.2858 261.617 -2.11301 271.818 0.0804292C279.508 1.72551 289.474 22.4065 289.552 32.5904C289.552 32.512 261.696 38.8573 249.847 41.2858Z" fill="#3B3B3B"/>
<path d="M283.118 28.2818C283.118 28.2818 271.975 26.7934 258.635 31.7287C258.635 31.7287 264.756 7.91416 271.975 7.28746C276.134 6.89577 282.961 21.7798 283.118 28.2818Z" fill="#5B5B5B"/>
<path d="M355.938 91.1865C355.938 91.1865 381.99 54.5247 373.829 48.0227C367.63 43.1658 345.266 48.6494 337.419 55.0731C337.419 55.0731 350.209 80.5327 355.938 91.1865Z" fill="#BB7942"/>
<path d="M344.481 57.8149C344.481 57.8149 351.23 66.5887 355.859 80.0627C355.859 80.0627 372.181 58.4416 368.022 52.488C365.668 49.0412 349.66 53.8197 344.481 57.8149Z" fill="#EEC39F"/>
<path fill-rule="evenodd" clip-rule="evenodd" d="M316.389 37.9173C351.073 54.2114 361.98 80.4544 355.938 91.1866C355.938 91.1866 346.051 103.251 334.751 109.204C318.979 117.508 294.574 118.84 272.917 107.872C252.829 97.6886 244.511 80.7677 244.354 65.6487C244.275 53.9764 249.768 41.1291 249.768 41.1291C255.026 26.1667 281.705 21.6232 316.389 37.9173Z" fill="#D88943"/>
<path d="M308.15 55.0731C315.055 49.7461 324.864 49.9812 331.377 55.8564C336.399 60.3217 341.028 67.137 339.851 76.3808C337.733 93.5366 320.783 101.449 304.854 93.6933C291.828 87.348 293.005 66.8236 308.15 55.0731Z" fill="#3B3B3B"/>
<path d="M321.333 76.2242C320.862 77.7126 319.371 78.4959 317.88 78.1043C316.389 77.6342 315.604 76.1458 315.997 74.6574C316.467 73.169 317.958 72.3857 319.449 72.7773C320.94 73.2474 321.725 74.8141 321.333 76.2242Z" fill="white"/>
<path d="M332.632 80.0627C335.065 71.9156 330.435 63.3769 322.274 60.9484C314.113 58.52 305.56 63.1419 303.128 71.2889C300.695 79.436 305.325 87.9748 313.486 90.4032C321.568 92.8317 330.2 88.2098 332.632 80.0627Z" fill="#8CC63F"/>
<path d="M285.001 57.6582C287.434 49.5112 282.804 40.9724 274.643 38.544C266.482 36.1155 257.929 40.7374 255.497 48.8845C253.064 57.0315 257.694 65.5703 265.855 67.9987C274.015 70.4272 282.569 65.8053 285.001 57.6582Z" fill="#8CC63F"/>
<path d="M273.466 52.253C272.995 53.7414 271.504 54.5248 270.013 54.1331C268.523 53.6631 267.738 52.1746 268.13 50.6862C268.601 49.1978 270.092 48.4145 271.583 48.8061C273.074 49.1978 273.858 50.7646 273.466 52.253Z" fill="white"/>
<path d="M315.997 66.8237C321.019 68.3121 323.922 73.6391 322.431 78.6526C320.94 83.6662 315.683 86.5647 310.582 85.0763C305.56 83.5879 302.657 78.3393 304.148 73.2474C305.717 68.2338 310.975 65.3353 315.997 66.8237Z" fill="#0B1411"/>
<path d="M317.88 78.1043C319.371 78.5743 320.862 77.7126 321.333 76.2242C321.803 74.7358 320.94 73.2474 319.449 72.7773C317.958 72.3073 316.467 73.169 315.997 74.6574C315.526 76.1458 316.389 77.7126 317.88 78.1043Z" fill="white"/>
<path d="M264.442 53.8197C265.933 48.8061 271.19 45.9077 276.291 47.3961C281.313 48.8845 284.216 54.1331 282.726 59.225C281.235 64.2386 275.977 67.137 270.877 65.6486C265.855 64.1602 262.951 58.9116 264.442 53.8197ZM271.583 48.8061C270.092 48.3361 268.601 49.1978 268.13 50.6862C267.659 52.1746 268.523 53.6631 270.013 54.1331C271.504 54.6031 272.995 53.7414 273.466 52.253C273.858 50.7646 273.074 49.1978 271.583 48.8061Z" fill="#0B1411"/>
<path d="M289.239 72.464C289.239 72.464 271.583 63.5336 261.146 71.6023C251.887 78.6526 258.871 92.91 276.134 101.057C293.397 109.204 305.089 105.131 308.621 95.3384C311.289 87.9747 297.086 76.2242 289.239 72.464Z" fill="white"/>
<path d="M284.687 82.1778C285.001 83.0395 287.669 89.3065 293.868 89.6198C293.868 89.6198 292.299 93.7717 288.218 95.1034C288.218 95.1034 287.591 90.9515 282.726 88.2881C277.86 85.6246 272.995 87.113 272.995 87.113C271.897 83.5095 273.702 80.376 273.702 80.376C273.702 80.376 279.351 84.2146 284.687 82.0211C284.687 82.0211 284.687 82.0995 284.687 82.1778Z" fill="#0A1311"/>
<path d="M282.726 88.2881C287.591 90.9516 288.218 95.1034 288.218 95.1034C286.1 95.8085 283.353 95.8085 279.744 94.085C275.506 92.0483 273.623 89.5415 272.995 87.1914C272.995 87.1914 277.86 85.703 282.726 88.2881Z" fill="#CB542F"/>
<path fill-rule="evenodd" clip-rule="evenodd" d="M287.214 76.8678C287.595 77.0496 287.756 77.5049 287.574 77.8849L284.984 83.2902C284.802 83.6702 284.346 83.8309 283.965 83.6492C283.585 83.4675 283.424 83.0121 283.606 82.6321L286.195 77.2268C286.377 76.8468 286.833 76.6861 287.214 76.8678Z" fill="#0B1411"/>
<path fill-rule="evenodd" clip-rule="evenodd" d="M251.595 67.3398C251.612 66.9189 251.969 66.5922 252.39 66.61C257.1 66.8093 262.851 68.0003 267.393 69.1289C269.67 69.6949 271.657 70.2485 273.074 70.6607C273.783 70.8668 274.35 71.0377 274.74 71.1572C274.935 71.217 275.086 71.2639 275.189 71.296L275.306 71.3328L275.336 71.3424L275.346 71.3455C275.346 71.3456 275.347 71.3458 275.146 71.9723L275.346 71.3455C275.748 71.4738 275.97 71.9034 275.842 72.3046C275.713 72.7058 275.283 72.927 274.881 72.7988L274.873 72.7959L274.844 72.787L274.732 72.7516C274.632 72.7204 274.484 72.6744 274.292 72.6155C273.908 72.4979 273.348 72.3291 272.647 72.1252C271.244 71.7173 269.278 71.1693 267.024 70.6092C262.502 69.4856 256.875 68.3265 252.326 68.1341C251.904 68.1162 251.577 67.7606 251.595 67.3398Z" fill="#0B1411"/>
<path fill-rule="evenodd" clip-rule="evenodd" d="M270.782 73.3594C270.782 73.3595 270.783 73.3595 270.641 74.109L270.5 74.8586L270.491 74.8568L270.46 74.8512L270.338 74.8289C270.231 74.8094 270.071 74.7808 269.865 74.7447C269.451 74.6724 268.85 74.5703 268.099 74.451C266.596 74.2124 264.499 73.9056 262.119 73.633C257.341 73.0857 251.492 72.6842 247.035 73.2212C246.616 73.2716 246.236 72.9735 246.185 72.5553C246.134 72.1372 246.433 71.7572 246.852 71.7068C251.497 71.147 257.497 71.5681 262.293 72.1175C264.7 72.3932 266.82 72.7033 268.339 72.9445C269.098 73.0652 269.708 73.1687 270.128 73.2421C270.338 73.2788 270.501 73.308 270.612 73.3281L270.738 73.3512L270.771 73.3573L270.782 73.3594ZM271.392 74.2501C271.314 74.664 270.915 74.9365 270.5 74.8586L270.641 74.109L270.782 73.3594C271.197 73.4373 271.47 73.8361 271.392 74.2501Z" fill="#0B1411"/>
<path fill-rule="evenodd" clip-rule="evenodd" d="M273.685 77.9171C273.685 77.9171 273.686 77.9171 273.544 78.6667L273.403 79.4162L273.394 79.4144L273.363 79.4088L273.241 79.3865C273.134 79.367 272.974 79.3384 272.768 79.3023C272.354 79.2301 271.753 79.1279 271.002 79.0086C269.499 78.77 267.402 78.4632 265.022 78.1906C260.244 77.6433 254.395 77.2418 249.938 77.7788C249.519 77.8293 249.139 77.5312 249.088 77.113C249.037 76.6948 249.336 76.3148 249.755 76.2644C254.401 75.7046 260.4 76.1257 265.196 76.6751C267.603 76.9508 269.723 77.261 271.242 77.5022C272.001 77.6228 272.611 77.7263 273.031 77.7997C273.241 77.8364 273.404 77.8656 273.515 77.8857L273.641 77.9089L273.674 77.9149L273.685 77.9171ZM274.295 78.8077C274.217 79.2217 273.818 79.4941 273.403 79.4162L273.544 78.6667L273.685 77.9171C274.1 77.995 274.373 78.3937 274.295 78.8077Z" fill="#0B1411"/>
<path fill-rule="evenodd" clip-rule="evenodd" d="M299.58 83.4126C299.807 83.0575 300.28 82.9533 300.635 83.1799L300.224 83.8229L299.813 84.4658C299.458 84.2392 299.353 83.7676 299.58 83.4126ZM300.224 83.8229L299.813 84.4658L299.821 84.4708L299.846 84.4866L299.945 84.5504C300.033 84.607 300.162 84.6911 300.33 84.8008C300.666 85.0202 301.153 85.3419 301.757 85.7497C302.966 86.5655 304.642 87.7248 306.51 89.0981C310.258 91.853 314.737 95.4384 317.782 98.8247C318.064 99.1382 318.547 99.1642 318.861 98.8828C319.175 98.6014 319.201 98.1192 318.919 97.8057C315.765 94.2984 311.181 90.6376 307.416 87.8697C305.527 86.4817 303.834 85.3105 302.613 84.486C302.002 84.0737 301.509 83.7479 301.168 83.5249C300.997 83.4133 300.865 83.3275 300.774 83.2693L300.671 83.2031L300.645 83.186L300.635 83.1799C300.635 83.1798 300.635 83.1799 300.224 83.8229Z" fill="#0B1411"/>
<path fill-rule="evenodd" clip-rule="evenodd" d="M300.815 88.1128C301.085 87.7894 301.567 87.746 301.891 88.0158L301.401 88.6014L300.912 89.187C300.588 88.9171 300.544 88.4362 300.815 88.1128ZM301.401 88.6014L300.912 89.187L300.919 89.1932L300.943 89.213L301.037 89.2923C301.121 89.3626 301.244 89.4671 301.403 89.6031C301.721 89.8751 302.182 90.273 302.75 90.775C303.888 91.7793 305.456 93.1988 307.178 94.8588C310.633 98.1912 314.658 102.448 317.079 106.245C317.305 106.6 317.777 106.705 318.133 106.479C318.489 106.253 318.594 105.782 318.368 105.426C315.845 101.468 311.709 97.1076 308.239 93.7617C306.498 92.0826 304.913 90.6477 303.763 89.6323C303.187 89.1245 302.72 88.7213 302.397 88.4447C302.235 88.3063 302.109 88.1996 302.023 88.1272L301.925 88.0447L301.9 88.0235L301.891 88.0158C301.891 88.0157 301.891 88.0158 301.401 88.6014Z" fill="#0B1411"/>
<path fill-rule="evenodd" clip-rule="evenodd" d="M297.249 88.3777C297.546 88.0786 298.03 88.0766 298.33 88.3732C303.154 93.1497 306.597 97.5536 308.836 100.768C309.956 102.376 310.775 103.687 311.316 104.599C311.586 105.055 311.787 105.411 311.921 105.655C311.988 105.777 312.039 105.871 312.073 105.935C312.09 105.968 312.103 105.992 312.112 106.009L312.122 106.029L312.125 106.035L312.126 106.037C312.126 106.037 312.126 106.038 311.482 106.365L312.126 106.038C312.318 106.413 312.168 106.872 311.792 107.063C311.417 107.255 310.957 107.106 310.765 106.731L310.763 106.727L310.755 106.712C310.751 106.703 310.744 106.691 310.736 106.675C310.732 106.667 310.727 106.658 310.722 106.648C310.692 106.591 310.645 106.504 310.582 106.389C310.455 106.159 310.263 105.817 310.001 105.376C309.478 104.494 308.678 103.214 307.581 101.639C305.387 98.4893 302.003 94.1586 297.254 89.4563C296.954 89.1597 296.952 88.6768 297.249 88.3777Z" fill="#0B1411"/>
<path d="M291.828 69.2521C296.615 71.7589 299.597 75.4408 298.498 77.5559C297.399 79.671 286.885 77.5559 286.885 77.5559C286.885 77.5559 280.058 70.6622 281.156 68.5471C282.255 66.432 287.041 66.7454 291.828 69.2521Z" fill="#CB542F"/>
</svg>
