<svg width="360" height="310" viewBox="0 0 360 310" fill="none" xmlns="http://www.w3.org/2000/svg">
<ellipse cx="176" cy="291" rx="156" ry="16" fill="#D3D9DC"/>
<path d="M31.4967 211.825C31.071 211.841 30.6384 211.868 30.1762 211.852C29.7185 211.845 29.2267 211.788 28.7463 211.731C27.7786 211.609 26.7403 211.322 25.7454 210.864C24.7435 210.395 23.744 209.705 22.8446 208.699C21.9475 207.69 21.1506 206.367 20.6087 204.587C20.2421 203.38 20.0418 202.169 20.0053 200.944C19.9757 199.73 20.1215 198.523 20.4197 197.303C21.0391 194.901 22.3118 192.49 24.1925 190.286C26.0641 188.068 28.5186 186.012 31.4011 184.263C34.2814 182.512 37.5874 181.069 41.1143 180.008C44.6411 178.944 48.3889 178.261 52.148 177.956C55.9094 177.649 59.6845 177.717 63.2842 178.086C66.8885 178.453 70.3175 179.118 73.43 179.939C76.5447 180.761 79.3453 181.718 81.7292 182.676C81.7292 182.676 81.9751 182.758 82.4418 182.915C82.9063 183.079 83.5894 183.339 84.4682 183.667C84.6868 183.751 84.9213 183.835 85.1627 183.931C85.404 184.031 85.6568 184.136 85.9232 184.245C86.4514 184.466 87.0275 184.707 87.6445 184.965C88.2547 185.245 88.9082 185.543 89.6003 185.859C90.2925 186.174 91.0074 186.554 91.7679 186.929C93.2798 187.695 94.8485 188.578 96.4993 189.555C98.134 190.538 99.8258 191.618 101.536 192.776C103.237 193.935 104.962 195.167 106.688 196.442C108.403 197.717 110.122 199.029 111.827 200.345C113.535 201.661 115.229 202.979 116.907 204.252C117.745 204.885 118.58 205.52 119.421 206.124C120.261 206.731 121.099 207.36 121.952 207.959C125.356 210.384 128.881 212.665 132.374 214.755C134.116 215.816 135.869 216.772 137.579 217.722C138.442 218.173 139.295 218.619 140.138 219.058C140.35 219.168 140.557 219.282 140.769 219.386C140.98 219.489 141.19 219.591 141.399 219.691C141.818 219.894 142.235 220.097 142.647 220.297C143.059 220.497 143.469 220.698 143.874 220.896C144.282 221.085 144.689 221.262 145.09 221.445C145.894 221.802 146.679 222.164 147.453 222.499C148.23 222.818 148.99 223.127 149.73 223.432C150.101 223.58 150.463 223.742 150.826 223.874C151.188 224.008 151.545 224.14 151.896 224.27C152.558 224.512 153.33 224.819 154.207 225.133C155.086 225.436 156.062 225.773 157.128 226.14C158.196 226.481 159.352 226.825 160.58 227.212C161.194 227.387 161.832 227.549 162.481 227.729C162.806 227.818 163.137 227.906 163.469 227.997C163.801 228.089 164.138 228.186 164.482 228.257C165.168 228.414 165.867 228.574 166.577 228.737C166.932 228.817 167.292 228.911 167.654 228.981C168.018 229.049 168.382 229.118 168.754 229.186C169.491 229.325 170.24 229.466 170.999 229.61C171.75 229.719 172.504 229.858 173.275 229.951C174.81 230.172 176.386 230.318 177.977 230.447C179.569 230.559 181.179 230.63 182.786 230.648C189.22 230.714 195.614 229.883 200.817 228.498C203.424 227.822 205.746 227.041 207.69 226.267C209.635 225.495 211.201 224.73 212.349 224.14C213.977 223.278 215.985 222.383 218.071 221.92C218.601 221.816 219.12 221.713 219.658 221.668C219.924 221.643 220.195 221.631 220.466 221.627C220.732 221.618 220.999 221.622 221.267 221.638C221.805 221.67 222.351 221.761 222.889 221.9C223.424 222.037 223.959 222.235 224.487 222.506C226.356 223.471 228.599 225.885 229.988 228.683C230.68 230.083 231.156 231.586 231.268 233.041C231.318 233.76 231.274 234.466 231.129 235.138C231.056 235.472 230.956 235.803 230.828 236.117C230.696 236.426 230.537 236.722 230.35 237.005C230.097 237.383 229.806 237.738 229.482 238.073C229.155 238.398 228.797 238.701 228.421 238.993C227.677 239.584 226.834 240.063 226.022 240.548C223.244 242.16 219.84 243.881 215.917 245.507C213.95 246.301 211.857 247.087 209.649 247.797C207.438 248.503 205.115 249.154 202.7 249.726C197.868 250.862 192.665 251.647 187.29 252C181.914 252.355 176.367 252.244 170.86 251.679C168.096 251.404 165.382 250.967 162.695 250.5C161.361 250.231 160.022 249.981 158.703 249.696C157.392 249.382 156.087 249.072 154.79 248.763C149.635 247.424 144.744 245.775 140.24 244.002C135.737 242.23 131.609 240.35 127.986 238.494C127.531 238.266 127.082 238.039 126.638 237.818C126.199 237.592 125.773 237.355 125.347 237.13C124.503 236.675 123.683 236.235 122.891 235.809C122.105 235.375 121.36 234.94 120.639 234.53C119.921 234.113 119.22 233.731 118.574 233.334C114.83 231.115 111.185 228.765 107.601 226.344L104.935 224.502C104.487 224.197 104.056 223.885 103.619 223.576L102.319 222.649L97.262 219.011C95.609 217.827 93.9833 216.677 92.3713 215.582C90.7615 214.489 89.1677 213.457 87.583 212.499C84.409 210.566 81.2897 208.99 78.175 207.818C71.868 205.443 65.0488 204.391 58.3366 204.653C51.6243 204.915 45.0259 206.463 39.1448 209.111C35.8319 210.634 33.4662 211.693 31.4967 211.825Z" fill="#A07A3C"/>
<path d="M31.4965 211.825C33.466 211.693 35.8339 210.634 39.1377 209.118C43.9168 206.964 49.1741 205.543 54.5772 204.937C59.9802 204.361 65.5358 204.589 70.9046 205.714C70.8386 205.472 70.6838 205.213 70.3992 204.919C68.1747 202.567 65.3468 200.593 62.1364 199.211C61.7357 199.045 61.3281 198.883 60.916 198.726C60.7111 198.649 60.5039 198.567 60.2944 198.496C60.0849 198.428 59.8755 198.362 59.6637 198.293C59.2425 198.161 58.8144 198.032 58.3841 197.909C57.9538 197.802 57.5189 197.697 57.0794 197.599L56.4192 197.455L55.7543 197.342C55.3103 197.269 54.8618 197.203 54.4132 197.139C53.9647 197.089 53.5116 197.05 53.0585 197.014L52.3777 196.964C52.15 196.95 51.9223 196.948 51.6946 196.943C56.6969 195.286 62.0225 194.127 67.5758 193.58C68.4228 193.507 69.5135 193.23 69.4725 192.512C69.4497 192.164 69.1355 191.861 68.8236 191.599C66.4829 189.625 63.1974 188.355 59.8185 188.177C60.2329 188.07 60.661 188 61.0959 187.95C61.5307 187.911 61.9725 187.897 62.4164 187.888C62.8604 187.884 63.309 187.872 63.7552 187.881C64.2015 187.888 64.6455 187.888 65.0895 187.868C65.9752 187.815 66.8996 187.701 67.6851 187.41C68.4707 187.116 69.1127 186.709 69.4156 186.085C69.7298 185.438 69.6023 184.684 69.3381 183.972C68.8759 182.715 68.0494 181.615 66.9429 180.6C65.834 179.625 64.4429 178.744 62.8604 178.05C57.4756 177.519 51.7151 177.71 46.2165 178.76C43.4683 179.295 40.7907 180.035 38.2611 180.969C35.7383 181.925 33.3658 183.063 31.2301 184.368C26.9587 187 23.6549 190.283 21.7947 193.792C20.8657 195.554 20.2806 197.348 20.0848 199.168C20.0347 199.619 20.0051 200.069 20.0005 200.52C19.996 200.971 20.021 201.431 20.0643 201.884C20.1531 202.792 20.3352 203.694 20.6085 204.593C21.1526 206.374 21.9495 207.697 22.8443 208.706C23.7437 209.712 24.741 210.402 25.7451 210.871C26.7401 211.328 27.7783 211.615 28.746 211.738C29.2264 211.795 29.7182 211.852 30.1759 211.859C30.6358 211.868 31.0684 211.841 31.4965 211.825Z" fill="#F4F3B6"/>
<path d="M212.223 298.813C212.062 298.708 211.9 298.604 211.741 298.494C210.322 297.52 209.027 296.32 208.152 294.838C207.715 294.098 207.387 293.296 207.137 292.474C205.987 288.729 206.449 284.519 208.385 281.113C209.291 279.517 210.741 278.321 212.376 277.522C213.205 277.117 214.088 276.803 214.985 276.584C215.882 276.368 216.672 276.564 217.588 276.359C219.493 275.935 221.477 276.381 223.351 276.921C228.981 278.542 234.607 281.227 238.014 285.992C238.792 287.08 239.45 288.285 239.683 289.601C239.917 290.917 239.68 292.361 238.833 293.394C237.986 294.428 236.47 294.94 235.236 294.423C235.195 295.27 235.088 296.129 234.742 296.903C234.393 297.677 233.776 298.36 232.97 298.624C232.114 298.907 231.183 298.69 230.309 298.474C229.646 298.31 228.851 298.005 228.769 297.326C228.246 300.371 225.534 301.548 222.754 301.664C219.063 301.816 215.334 300.803 212.223 298.813Z" fill="#F4F3B6"/>
<path d="M225.857 218.997C225.857 218.997 227.153 246.055 224.311 254.448C221.47 262.841 209.462 279.646 209.462 279.646C209.462 279.646 216.228 286.996 227.465 281.852C227.465 281.852 238.51 279.015 251.181 263.724C263.852 248.432 264.286 221.244 264.286 221.244L225.857 218.997Z" fill="#A07A3C"/>
<path d="M186.595 149.113C186.595 149.113 196.766 160.074 199.571 170.231C202.376 180.389 205.855 209.086 216.06 225.796C226.265 242.506 246.046 242.108 260.791 236.208C275.537 230.309 272.26 200.821 259.152 189.68C246.046 178.54 228.296 163.938 221.442 154.364C214.589 144.79 210.825 140.202 210.825 140.202L186.595 149.113Z" fill="#A07A3C"/>
<path d="M218.692 138.232C218.692 138.232 226.443 151.344 238.704 159.865C250.962 168.385 276.083 183.979 272.795 214.694C272.795 214.694 272.795 227.8 259.482 229.658C250.666 230.887 237.857 220.81 230.976 206.72C224.095 192.631 222.918 177.558 217.772 168.385C212.626 159.211 202.283 146.561 202.283 146.561L218.692 138.232Z" fill="#F4F3B6"/>
<path fill-rule="evenodd" clip-rule="evenodd" d="M175.67 65.2103C175.67 65.2103 159.357 14.0352 172.715 6.76289C188.259 -1.70253 217.947 63.0769 217.947 63.0769L175.67 65.2103Z" fill="#BE9A5C"/>
<path d="M182.244 14.8664C194.901 18.5663 210.921 56.4832 210.921 56.4832C195.727 46.8383 180.755 43.826 180.755 43.826C180.755 43.826 169.587 11.1665 182.244 14.8664Z" fill="#EBCBCC"/>
<path fill-rule="evenodd" clip-rule="evenodd" d="M225.313 64.3016C245.924 82.4118 250.653 134.404 214.111 154.3C168.874 178.929 120.55 168.667 112.685 133.478C99.9735 76.5944 127.758 59.9254 142.223 52.0429C153.642 45.8179 190.131 33.3839 225.313 64.3016Z" fill="#BE9A5C"/>
<path fill-rule="evenodd" clip-rule="evenodd" d="M123.942 121.089C123.942 121.089 87.5121 52.4413 100.966 36.1116C112.974 21.5373 144.753 60.4878 144.753 60.4878L123.942 121.089Z" fill="#BE9A5C"/>
<path d="M137.786 60.0465C137.786 60.0465 125.552 75.5861 124.819 95.099C124.819 95.099 103.466 59.9258 107.152 46.3397C110.342 34.5933 126.72 45.8501 137.786 60.0465Z" fill="#EBCBCC"/>
<path d="M201.984 104.293C201.984 104.293 199.969 107.53 198.068 111.995C196.167 116.46 192.328 119.249 189.798 122.125C187.269 125.001 183.749 130.907 191.745 136.189C199.304 141.183 213.901 148.257 225.716 139.591C241.049 128.346 233.838 112.963 231.347 105.875C228.856 98.7872 223.448 100.761 220.163 101.731C216.877 102.701 210.714 101.239 207.661 101.583C204.607 101.927 201.984 104.293 201.984 104.293Z" fill="#F4F3B6"/>
<path d="M227.494 67.3458C220.327 56.3758 210.409 51.5625 205.336 56.5989C200.263 61.6331 201.957 74.5999 209.125 85.5722C216.292 96.5444 226.21 101.355 231.283 96.319C236.356 91.2826 234.662 78.3158 227.494 67.3458Z" fill="white"/>
<path d="M227.123 72.61C222.62 65.8978 215.955 63.2247 212.239 66.6537C208.524 70.0713 209.172 78.2908 213.676 85.003C218.184 91.713 224.844 94.3769 228.56 90.9593C232.271 87.5349 231.632 79.32 227.123 72.61Z" fill="#0B1411"/>
<path d="M221.465 70.5751C222.781 72.5332 222.965 74.9262 221.884 75.9281C220.802 76.9185 218.858 76.1489 217.546 74.1885C216.23 72.2304 216.046 69.8374 217.128 68.8356C218.209 67.8338 220.153 68.6147 221.465 70.5751Z" fill="white"/>
<path d="M186.506 87.6217C179.197 76.7383 168.387 72.4031 162.362 77.9564C156.342 83.5074 157.387 96.8385 164.691 107.724C172.005 118.617 182.815 122.941 188.835 117.39C194.86 111.836 193.819 98.5143 186.506 87.6217Z" fill="white"/>
<path d="M186.911 93.4167C182.403 86.7067 175.739 84.0337 172.027 87.4604C168.312 90.878 168.951 99.0929 173.462 105.803C177.97 112.524 184.63 115.188 188.35 111.766C192.059 108.342 191.415 100.129 186.911 93.4167Z" fill="#0B1411"/>
<path d="M181.882 91.8525C183.198 93.8106 183.387 96.2127 182.301 97.2055C181.219 98.2073 179.275 97.4263 177.963 95.4659C176.647 93.5078 176.463 91.1148 177.54 90.1153C178.626 89.1225 180.57 89.8921 181.882 91.8525Z" fill="white"/>
<path fill-rule="evenodd" clip-rule="evenodd" d="M197.333 115.197C197.674 114.987 198.12 115.093 198.33 115.434C198.539 115.774 198.433 116.22 198.093 116.43L197.713 115.814L197.333 115.197ZM197.333 115.197C197.333 115.197 197.333 115.197 197.713 115.814C198.093 116.43 198.093 116.43 198.093 116.43L197.886 116.558C197.749 116.642 197.547 116.767 197.285 116.929C196.759 117.254 195.992 117.73 195.023 118.332C193.086 119.536 190.346 121.247 187.132 123.273C180.702 127.324 172.381 132.633 164.808 137.665C164.474 137.886 164.025 137.795 163.804 137.462C163.582 137.129 163.673 136.68 164.006 136.458C171.594 131.417 179.926 126.102 186.359 122.048C189.577 120.02 192.32 118.308 194.259 117.102C195.228 116.499 195.997 116.023 196.523 115.698C196.786 115.535 196.988 115.41 197.125 115.325L197.333 115.197Z" fill="#0B1411"/>
<path fill-rule="evenodd" clip-rule="evenodd" d="M197.792 120.623C198.023 120.95 197.945 121.402 197.618 121.633L197.612 121.623C197.618 121.633 197.619 121.632 197.618 121.633L197.618 121.633L197.616 121.634L197.608 121.64L197.575 121.664C197.545 121.685 197.5 121.717 197.441 121.759C197.323 121.845 197.146 121.973 196.917 122.141C196.458 122.479 195.786 122.98 194.937 123.632C193.239 124.936 190.835 126.844 188.016 129.256C182.375 134.081 175.081 140.914 168.451 148.952C168.197 149.26 167.741 149.304 167.432 149.05C167.123 148.795 167.08 148.339 167.334 148.03C174.034 139.907 181.394 133.015 187.074 128.155C189.916 125.725 192.34 123.801 194.055 122.483C194.912 121.824 195.592 121.317 196.059 120.974C196.293 120.803 196.473 120.672 196.595 120.584C196.656 120.54 196.702 120.507 196.734 120.484L196.77 120.459L196.783 120.45C196.783 120.45 196.783 120.45 197.201 121.041L196.783 120.45C197.109 120.219 197.561 120.297 197.792 120.623Z" fill="#0B1411"/>
<path fill-rule="evenodd" clip-rule="evenodd" d="M201.991 120.963C202.314 121.198 202.386 121.651 202.151 121.975C195.972 130.488 190.482 138.913 186.537 145.212C184.564 148.361 182.978 150.978 181.886 152.806C181.339 153.72 180.917 154.438 180.631 154.926C180.488 155.17 180.379 155.357 180.306 155.483C180.269 155.546 180.242 155.593 180.223 155.625L180.196 155.672C180.196 155.672 180.196 155.672 179.569 155.311C178.941 154.95 178.941 154.95 178.941 154.949L178.941 154.949L178.97 154.9C178.988 154.868 179.016 154.819 179.053 154.756C179.127 154.628 179.237 154.44 179.381 154.194C179.669 153.702 180.094 152.981 180.642 152.063C181.739 150.227 183.331 147.602 185.309 144.443C189.266 138.127 194.775 129.672 200.979 121.124C201.214 120.8 201.667 120.728 201.991 120.963ZM179.207 155.938C178.861 155.739 178.741 155.296 178.941 154.95L179.569 155.311L180.196 155.672C179.997 156.019 179.554 156.138 179.207 155.938Z" fill="#0B1411"/>
<path fill-rule="evenodd" clip-rule="evenodd" d="M223.551 108.959C223.587 108.561 223.939 108.267 224.337 108.303L224.273 109.024C224.337 108.303 224.337 108.303 224.338 108.303L224.34 108.303L224.346 108.304L224.37 108.306C224.389 108.308 224.418 108.311 224.456 108.314C224.532 108.322 224.644 108.334 224.79 108.351C225.083 108.386 225.515 108.44 226.077 108.522C227.202 108.687 228.848 108.961 230.946 109.402C235.142 110.283 241.148 111.832 248.411 114.501C248.787 114.639 248.979 115.055 248.841 115.43C248.703 115.806 248.287 115.998 247.912 115.86C240.721 113.218 234.783 111.688 230.648 110.819C228.581 110.385 226.964 110.116 225.868 109.955C225.32 109.875 224.902 109.823 224.622 109.79C224.482 109.774 224.377 109.762 224.308 109.755C224.273 109.751 224.247 109.749 224.231 109.747L224.213 109.746L224.208 109.745C223.81 109.709 223.516 109.358 223.551 108.959Z" fill="#0B1411"/>
<path fill-rule="evenodd" clip-rule="evenodd" d="M226.688 106.256L226.689 106.256L226.695 106.255L226.721 106.251C226.745 106.248 226.781 106.244 226.829 106.238C226.925 106.226 227.07 106.208 227.259 106.187C227.637 106.146 228.195 106.091 228.906 106.036C230.328 105.927 232.364 105.823 234.805 105.84C239.694 105.875 246.188 106.4 252.65 108.345C253.033 108.46 253.437 108.243 253.552 107.86C253.667 107.477 253.45 107.073 253.068 106.958C246.429 104.96 239.787 104.428 234.816 104.392C232.328 104.374 230.252 104.481 228.795 104.592C228.067 104.648 227.494 104.705 227.101 104.748C226.904 104.769 226.753 104.788 226.65 104.8C226.598 104.807 226.559 104.812 226.532 104.816L226.501 104.82L226.492 104.821L226.489 104.821C226.489 104.821 226.489 104.821 226.588 105.539L226.489 104.821C226.092 104.876 225.816 105.242 225.871 105.638C225.926 106.034 226.292 106.311 226.688 106.256Z" fill="#0B1411"/>
<path fill-rule="evenodd" clip-rule="evenodd" d="M222.851 104.06L222.852 104.06L222.859 104.057L222.885 104.047C222.91 104.038 222.946 104.024 222.995 104.005C223.092 103.968 223.238 103.914 223.427 103.844C223.807 103.706 224.363 103.509 225.067 103.278C226.474 102.814 228.466 102.211 230.802 101.656C235.488 100.542 241.494 99.6345 246.92 100.381C247.316 100.436 247.681 100.159 247.736 99.7629C247.79 99.3667 247.513 99.0013 247.117 98.9468C241.43 98.1637 235.219 99.1174 230.467 100.247C228.084 100.814 226.051 101.429 224.614 101.902C223.895 102.139 223.324 102.341 222.931 102.484C222.735 102.555 222.584 102.612 222.481 102.651C222.429 102.671 222.389 102.686 222.362 102.697L222.331 102.709L222.323 102.712L222.32 102.713C222.32 102.713 222.32 102.713 222.585 103.387L222.32 102.713C221.948 102.86 221.765 103.28 221.912 103.652C222.058 104.024 222.479 104.207 222.851 104.06C222.851 104.06 222.851 104.06 222.851 104.06Z" fill="#0B1411"/>
<path d="M213.489 114.029C214.525 114.596 220.466 119.396 223.492 113.626C223.492 113.626 227.048 119.46 226.689 124.92C226.689 124.92 222.169 121.261 217.335 123.321C212.501 125.382 211.948 131.771 211.948 131.771C207.765 129.048 205.325 124.025 205.325 124.025C205.325 124.025 213.321 121.575 213.367 113.959C213.369 113.959 213.405 113.982 213.489 114.029Z" fill="#0A1311"/>
<path d="M217.335 123.321C222.169 121.26 226.688 124.919 226.688 124.919C226.504 127.747 225.272 130.468 221.955 132.232C218.023 134.32 214.623 133.519 211.948 131.773C211.948 131.77 212.501 125.381 217.335 123.321Z" fill="#CB542F"/>
<path d="M209.758 107.08L214.156 115.268" stroke="#0B1411" stroke-width="6.3607" stroke-miterlimit="10" stroke-linecap="round" stroke-linejoin="round"/>
<path d="M203.321 93.5092C207.936 91.3439 213.057 92.2683 214.758 95.5584C216.458 98.8599 209.755 107.077 209.755 107.077C209.755 107.077 199.744 106.692 198.048 103.398C196.351 100.105 198.715 95.6791 203.321 93.5092Z" fill="#CB542F"/>
<path fill-rule="evenodd" clip-rule="evenodd" d="M216.237 54.7172C220.535 56.8019 224.981 60.9528 228.66 66.5843C232.346 72.2253 234.645 78.4057 235.36 83.8772C236.065 89.2711 235.265 94.3283 232.264 97.3075C229.136 100.413 224.666 100.28 220.382 98.202C216.084 96.1176 211.638 91.9666 207.959 86.334C204.273 80.6919 201.974 74.5109 201.259 69.0395C200.554 63.6458 201.354 58.589 204.355 55.6109M216.237 54.7172C211.953 52.6389 207.483 52.5051 204.355 55.6107L216.237 54.7172ZM215.022 57.2231C211.287 55.4114 208.262 55.6567 206.317 57.5874L206.317 57.5876C204.245 59.6436 203.355 63.5872 204.021 68.6784C204.676 73.692 206.809 79.4806 210.29 84.8108C213.779 90.1504 217.876 93.891 221.597 95.6961C225.332 97.5074 228.357 97.2618 230.302 95.331C232.374 93.2737 233.264 89.3293 232.598 84.2382C231.943 79.2246 229.81 73.4367 226.329 68.1077C222.84 62.7691 218.743 59.0284 215.022 57.2231Z" fill="#6973BD"/>
<path fill-rule="evenodd" clip-rule="evenodd" d="M174.47 75.3321C179.157 77.2092 183.89 81.2282 187.662 86.8449L187.662 86.845C191.441 92.4727 193.619 98.7536 194.061 104.399C194.499 110.002 193.233 115.23 189.779 118.413C186.256 121.662 181.428 121.896 176.731 120.016C172.044 118.14 167.309 114.121 163.535 108.5L163.535 108.5C159.761 102.875 157.584 96.594 157.142 90.948C156.703 85.3449 157.967 80.1148 161.418 76.9321L161.418 76.932C164.944 73.6818 169.773 73.4506 174.47 75.3321ZM163.306 78.9799C160.738 81.3483 159.514 85.5592 159.918 90.7306C160.32 95.8593 162.317 101.686 165.848 106.948C169.387 112.219 173.714 115.808 177.766 117.43C181.807 119.047 185.395 118.667 187.891 116.365L187.892 116.365C190.463 113.995 191.688 109.786 191.284 104.616C190.883 99.4888 188.885 93.6624 185.35 88.3975C181.813 83.1308 177.487 79.5405 173.435 77.9175C169.394 76.2989 165.805 76.6767 163.306 78.9797" fill="#6973BD"/>
<path fill-rule="evenodd" clip-rule="evenodd" d="M191.369 95.0038C191.369 95.0032 191.37 95.0026 190.131 94.366C188.892 93.7294 188.893 93.7287 188.893 93.7279L188.894 93.7263L188.896 93.7222L188.902 93.7111C188.906 93.7025 188.912 93.6913 188.92 93.6777C188.934 93.6505 188.954 93.6135 188.98 93.5674C189.032 93.4752 189.106 93.3467 189.204 93.1875C189.399 92.8693 189.688 92.4272 190.077 91.9075C190.854 90.87 192.038 89.5115 193.678 88.2118C196.981 85.5929 202.099 83.2469 209.308 84.1896L208.946 86.9512C202.591 86.1202 198.211 88.172 195.408 90.3944C193.994 91.5152 192.972 92.6882 192.306 93.577C191.974 94.0204 191.733 94.3903 191.578 94.6431C191.501 94.7694 191.445 94.8662 191.41 94.9281C191.393 94.959 191.381 94.9811 191.374 94.9937C191.371 95.0001 191.369 95.004 191.368 95.0055L191.368 95.0047L191.369 95.0038Z" fill="#6973BD"/>
<path d="M225.848 208.396C225.848 208.396 212.048 218.311 221.75 232.683C229.737 244.516 249.286 242.938 257.875 240.484C266.463 238.029 280.414 230.233 280.414 230.233L310.109 223.075L311.484 209.325C311.484 209.325 286.689 207.009 271.491 205.326C256.29 203.646 234.054 204.277 225.848 208.396Z" fill="#BE9A5C"/>
<path d="M204.534 165.855C204.534 165.855 209.785 157.897 223.697 166.422C234.482 173.029 249.491 179.562 249.491 179.562L267.613 183.995V193.25C267.613 193.25 242.132 197.148 225.937 193.25C209.742 189.352 199.976 179.339 204.534 165.855Z" fill="#BE9A5C"/>
<path fill-rule="evenodd" clip-rule="evenodd" d="M315.912 224.738C323.223 220.316 327.836 208.164 324.187 200.334C323.866 199.647 323.44 198.973 322.789 198.62C322.135 198.267 321.211 198.333 320.712 198.948C320.475 197.315 320.04 195.421 318.558 194.865C317.955 194.64 317.272 194.69 316.634 194.865C314.835 195.359 313.28 196.873 312.684 198.709C312.146 197.502 310.705 196.955 309.407 197.19C308.11 197.422 306.957 198.299 306.051 199.328C301.365 204.647 298.053 219.496 303.544 224.692C306.721 227.695 312.008 227.099 315.912 224.738Z" fill="#F4F3B6"/>
<path d="M317.146 213.65C316.869 213.24 316.495 212.944 316.042 212.807C314.437 212.327 311.743 212.028 309.676 215.505C308.155 218.062 308.492 220.521 309.453 221.705C310.384 222.853 311.923 223.344 313.838 222.138C317.723 219.683 318.396 215.498 317.146 213.65Z" fill="#CB542F"/>
<path d="M311.243 210.254C312.08 210.414 313.451 209.453 314.432 207.249C315.937 203.872 313.743 202.119 311.525 206.033C310.059 208.624 310.343 210.083 311.243 210.254Z" fill="#CB542F"/>
<path d="M316.097 210.01C316.935 210.17 318.305 209.209 319.287 207.005C320.792 203.628 318.597 201.875 316.379 205.789C314.913 208.383 315.197 209.842 316.097 210.01Z" fill="#CB542F"/>
<path d="M319.651 211.686C320.489 211.846 321.86 210.885 322.841 208.681C324.346 205.304 322.151 203.551 319.933 207.465C318.467 210.058 318.752 211.515 319.651 211.686Z" fill="#CB542F"/>
<path d="M264.252 183.337C262.508 184.275 261.527 186.47 261.226 188.364C260.675 191.825 263.332 193.323 266.29 194.225C271.652 195.86 278.483 196.447 283.752 194.35C288.745 192.365 293.788 185.215 289.667 180.195C289.271 179.712 288.74 179.257 288.116 179.266C287.492 179.275 286.907 180.008 287.249 180.53C286.229 178.881 284.073 178.027 282.201 178.533C281.577 178.701 280.88 179.291 281.176 179.865C280.5 177.995 278.453 176.725 276.477 176.946C273.264 177.306 272.959 180.657 270.593 181.807C270.129 182.032 269.598 182.066 269.082 182.112C267.419 182.253 265.721 182.547 264.252 183.337Z" fill="#F4F3B6"/>
<path d="M304.635 22.0366L293.23 32.5672L246.848 48.33C246.848 48.33 253.931 39.9397 263.014 36.1715C272.096 32.401 304.635 22.0366 304.635 22.0366Z" fill="#428B75"/>
<path d="M244.195 152.952L264.286 143.672L310.243 141.95L323.062 153.847L244.195 152.952Z" fill="#6973BD"/>
<path d="M321.737 155.311C321.081 156.149 313.162 165.981 319.851 180.833H248.164C248.164 180.833 238.362 177.615 239.724 166.197C241.085 154.778 251.836 154.325 251.836 154.325L321.737 155.311Z" fill="#EDEDF7"/>
<path d="M320.881 156.502C320.881 156.502 251.463 152.08 244.195 158.551C236.928 165.022 244.195 173.788 244.195 173.788C240.964 159.535 252.859 160.354 252.859 160.354L318.526 161.274C319.284 159.132 320.209 157.52 320.881 156.502Z" fill="#D0D2EA"/>
<path d="M310.377 37.0984H281.235L246.156 48.7059L247.019 53.4236L310.377 37.0984Z" fill="white"/>
<path d="M247.667 47.4165L307.354 25.686L301.318 32.8491L247.019 49.7685L247.667 47.4165Z" fill="#EDEDF7"/>
<path d="M315.621 51.9527C315.621 51.9527 310.161 47.1462 310.377 37.0984L247.016 49.7692C247.016 49.7692 244.667 60.0584 257.513 60.3111C270.361 60.5616 315.621 51.9527 315.621 51.9527Z" fill="#EDEDF7"/>
<path d="M327.784 73.0205L296.179 60.3087L264.068 58.5054L254.02 63.3119L327.784 73.0205Z" fill="#6973BD"/>
<path d="M246.217 91.012L267.615 85.9688L311.689 87.558L328.292 91.012H246.217Z" fill="#AF381E"/>
<path d="M334.439 123.601C334.439 123.601 322.716 136.925 332.492 151.998L252.856 148.489C252.856 148.489 245.459 146.447 247.016 134.764C248.574 123.082 254.673 122.103 258.168 122.196C261.663 122.289 334.439 123.601 334.439 123.601Z" fill="#EDEDF7"/>
<path d="M250.705 125.161C249.043 127.019 247.651 130.002 247.018 134.767C246.925 135.475 246.864 136.147 246.832 136.787C247.524 139.574 248.997 141.188 248.997 141.188C248.997 141.188 249.653 128.747 256.534 128.087C262.385 127.524 315.7 127.918 331.538 128.048C332.993 125.257 334.444 123.604 334.444 123.604C334.444 123.604 289.892 122.802 268.833 122.408L255.227 122.702C255.222 122.7 252.932 123.403 250.705 125.161Z" fill="#D0D2EA"/>
<path d="M338.449 120.903L314.747 113.257L261.229 117.485L251.162 121.55L338.449 120.903Z" fill="#E3AE4B"/>
<path d="M254.02 63.3118C254.02 63.3118 258.417 76.8546 251.837 84.0632L323.258 88.6511C323.258 88.6511 330.04 89.0883 330.915 81.4425C331.789 73.7968 323.258 73.0204 323.258 73.0204L254.02 63.3118Z" fill="#EDEDF7"/>
<path d="M326.816 75.1447C324.232 73.6761 308.959 71.1283 292.959 68.7718L270.088 65.5636C262.524 64.5459 256.525 63.7763 254.068 63.4644C254.25 64.0632 254.906 66.3674 255.247 69.3478L323.062 78.1092C323.062 78.1092 329.303 78.7513 329.209 85.9553C329.214 85.9508 329.216 85.9462 329.221 85.9417C329.417 85.484 332.365 78.2982 326.816 75.1447Z" fill="#D0D2EA"/>
<path d="M248.164 92.4516C248.164 92.4516 255.983 100.093 250.088 118.579L329.382 111.174C329.382 111.174 333.97 106.259 332.003 97.6725C330.038 89.0864 320.878 92.3378 320.878 92.3378L248.164 92.4516Z" fill="#EDEDF7"/>
<path d="M323.868 96.7889C323.868 96.7889 330.828 97.1281 332.322 104.193C332.584 102.347 332.577 100.172 332.005 97.6746C331.967 97.5061 331.921 97.3513 331.878 97.1919C331.06 95.6413 329.769 94.3503 327.786 93.665C325.906 93.0138 320.523 92.6017 313.385 92.3535L248.166 92.4537C248.166 92.4537 250.024 94.2775 251.247 98.2848L323.868 96.7889Z" fill="#D0D2EA"/>
<path d="M244.241 119.307L244.248 119.334C244.464 120.336 245.395 121.019 246.415 120.926L330.257 113.257C330.257 113.257 335.5 112.642 335.935 103.387C336.372 94.1314 330.878 89.992 325.434 89.8668C320.575 89.7552 259.337 90.7867 246.217 91.0098C244.938 91.0326 244.004 92.2165 244.275 93.4665C244.48 94.4137 245.327 95.0854 246.295 95.0672L324.141 93.6601C324.141 93.6601 330.038 93.1501 330.694 101.386C331.35 109.621 327.636 110.058 327.636 110.058L246.056 116.857C244.835 116.957 243.984 118.109 244.241 119.307Z" fill="#CB542F"/>
<path d="M340.304 122.797C340.304 123.844 339.455 124.694 338.408 124.694H255.329C255.329 124.694 250.304 125.003 249.651 133.478C248.995 141.952 252.709 145.882 254.457 146.538C256.044 147.135 323.465 149.532 335.769 149.967C336.825 150.003 337.643 150.901 337.588 151.957L337.559 152.526C337.506 153.567 336.627 154.368 335.587 154.325L252.859 150.907C252.859 150.907 243.758 150.636 242.442 143.671C239.723 129.282 243.474 122.701 252.859 121.089C261.383 119.625 326.566 120.693 338.449 120.9C339.483 120.921 340.304 121.763 340.304 122.797Z" fill="#F0D763"/>
<path d="M325.434 156.279C325.434 154.958 324.382 153.879 323.062 153.847L248.164 152C248.164 152 237.203 152.328 236.219 165.106C235.236 177.884 244.71 183.223 248.164 183.995C251.244 184.683 310.307 184.143 323.032 184.02C324.366 184.007 325.434 182.923 325.434 181.588V181.167C325.434 179.824 324.346 178.736 323.003 178.736H252.859C252.859 178.736 243.947 179.528 243.674 166.42C243.674 166.42 243.289 156.591 252.859 156.919C261.29 157.208 311.183 158.428 322.95 158.715C324.316 158.745 325.434 157.645 325.434 156.279Z" fill="#828FC4"/>
<path d="M248.182 86.0715L323.255 89.8694C323.255 89.8694 332.495 91.0124 333.745 85.9691C335.696 78.0957 333.064 74.6712 325.434 72.0506C318.613 69.7054 263.38 61.9458 251.782 60.3315C250.605 60.1675 249.528 60.9963 249.377 62.1757L249.264 63.0592C249.116 64.2227 249.933 65.2882 251.096 65.4453L323.255 75.1403C323.255 75.1403 330.038 77.2942 328.945 82.3193C327.852 87.3443 323.255 86.6886 323.255 86.6886L248.428 81.8115C247.196 81.7318 246.156 82.7086 246.156 83.9404C246.156 85.0766 247.046 86.0123 248.182 86.0715Z" fill="#828FC4"/>
<path d="M305.134 19.2338C305.73 20.5157 305.136 22.0389 303.829 22.5786L253.801 43.2139C253.801 43.2139 247.549 45.8346 248.164 51.2968C248.779 56.759 251.618 57.9589 260.138 57.3032C267.463 56.7408 307.094 51.4129 318.066 49.9307C319.558 49.7303 320.883 50.8892 320.883 52.392C320.883 53.6511 319.94 54.7121 318.69 54.8578L261.158 61.6452C261.158 61.6452 247.23 64.5323 244.198 58.5031C240.331 50.8118 243.676 43.1501 252.861 38.4074C257.961 35.7731 292.741 21.513 301.859 17.7835C303.087 17.2803 304.485 17.8358 305.045 19.038L305.134 19.2338Z" fill="#609682"/>
<path fill-rule="evenodd" clip-rule="evenodd" d="M293.051 101.338C293.077 101.85 292.683 102.287 292.171 102.313L252.906 104.314C252.394 104.34 251.958 103.946 251.932 103.434C251.905 102.922 252.299 102.486 252.811 102.46L292.076 100.458C292.588 100.432 293.025 100.826 293.051 101.338Z" fill="#D0D2EA"/>
<path fill-rule="evenodd" clip-rule="evenodd" d="M303.441 105.956C303.481 106.468 303.1 106.915 302.589 106.955L251.91 110.983C251.399 111.024 250.952 110.642 250.911 110.131C250.87 109.62 251.252 109.173 251.763 109.132L302.442 105.105C302.953 105.064 303.4 105.445 303.441 105.956Z" fill="#D0D2EA"/>
<path fill-rule="evenodd" clip-rule="evenodd" d="M275.241 134.767C275.241 134.255 275.657 133.839 276.169 133.839H329.102C329.615 133.839 330.031 134.255 330.031 134.767C330.031 135.28 329.615 135.696 329.102 135.696H276.169C275.657 135.696 275.241 135.28 275.241 134.767Z" fill="#D0D2EA"/>
<path fill-rule="evenodd" clip-rule="evenodd" d="M286.325 141.169C286.335 140.656 286.758 140.248 287.27 140.257L328.771 141.023C329.284 141.032 329.692 141.455 329.682 141.968C329.673 142.48 329.249 142.888 328.737 142.879L287.236 142.114C286.724 142.104 286.316 141.681 286.325 141.169Z" fill="#D0D2EA"/>
<path fill-rule="evenodd" clip-rule="evenodd" d="M260.227 166.413C260.227 165.901 260.643 165.485 261.156 165.485H317.342C317.855 165.485 318.271 165.901 318.271 166.413C318.271 166.926 317.855 167.342 317.342 167.342H261.156C260.643 167.342 260.227 166.926 260.227 166.413Z" fill="#D0D2EA"/>
<path fill-rule="evenodd" clip-rule="evenodd" d="M279.993 172.966C279.993 172.453 280.408 172.038 280.921 172.038H317.476C317.989 172.038 318.405 172.453 318.405 172.966C318.405 173.479 317.989 173.894 317.476 173.894H280.921C280.408 173.894 279.993 173.479 279.993 172.966Z" fill="#D0D2EA"/>
<path fill-rule="evenodd" clip-rule="evenodd" d="M255.456 72.6156C255.522 72.1072 255.988 71.7489 256.497 71.8153L286.736 75.7657C287.244 75.8321 287.603 76.2981 287.536 76.8065C287.47 77.3149 287.004 77.6732 286.495 77.6068L256.256 73.6564C255.748 73.59 255.39 73.124 255.456 72.6156Z" fill="#D0D2EA"/>
<path fill-rule="evenodd" clip-rule="evenodd" d="M311.77 42.4074C311.85 42.914 311.503 43.3889 310.997 43.4681L271.638 49.6225C271.132 49.7017 270.657 49.3552 270.578 48.8487C270.499 48.3421 270.845 47.8672 271.352 47.788L310.71 41.6336C311.216 41.5544 311.691 41.9008 311.77 42.4074Z" fill="#D0D2EA"/>
<path fill-rule="evenodd" clip-rule="evenodd" d="M254.533 76.8899C254.593 76.3808 255.055 76.0174 255.565 76.0782L270.685 77.8837C271.194 77.9445 271.558 78.4065 271.497 78.9156C271.436 79.4248 270.974 79.7882 270.465 79.7274L255.344 77.9218C254.835 77.8611 254.472 77.399 254.533 76.8899Z" fill="#D0D2EA"/>
<path fill-rule="evenodd" clip-rule="evenodd" d="M313.147 46.7657C313.213 47.2741 312.855 47.7403 312.347 47.807L290.38 50.6895C289.871 50.7562 289.405 50.3982 289.338 49.8898C289.272 49.3814 289.63 48.9152 290.138 48.8485L312.105 45.966C312.614 45.8993 313.08 46.2573 313.147 46.7657Z" fill="#D0D2EA"/>
</svg>
