<svg width="60" height="60" viewBox="0 0 60 60" fill="none" xmlns="http://www.w3.org/2000/svg">
<path d="M47.6356 24.5433V7.61355C47.6356 6.01085 46.3325 4.71152 44.7251 4.71152C43.1177 4.71152 41.8146 6.01085 41.8146 7.61355V3.90205C41.8146 2.29935 40.5115 1.00002 38.904 1.00002C37.2967 1.00002 35.9936 2.29935 35.9936 3.90205V7.61355C35.9936 6.01085 34.6905 4.71152 33.083 4.71152C31.4756 4.71152 30.1726 6.01085 30.1726 7.61355V15.0367C30.1726 13.4339 28.8695 12.1346 27.262 12.1346C25.6546 12.1346 24.3516 13.4339 24.3516 15.0367L24.3529 27.7354" stroke="#67676A" stroke-miterlimit="10" stroke-linecap="round" stroke-linejoin="round"/>
<path d="M41.8125 7.61338V22.6387" stroke="#67676A" stroke-miterlimit="10" stroke-linecap="round" stroke-linejoin="round"/>
<path d="M35.9922 7.61338V22.6387" stroke="#67676A" stroke-miterlimit="10" stroke-linecap="round" stroke-linejoin="round"/>
<path d="M30.1719 15.0365V25.9487" stroke="#67676A" stroke-miterlimit="10" stroke-linecap="round" stroke-linejoin="round"/>
<path d="M28.4609 47.0508C31.0931 49.7503 34.7714 51.4268 38.8416 51.4268C42.6734 51.4268 46.158 49.9408 48.7494 47.5141C52.5418 43.9626 53.3321 39.7275 53.3325 36.9511L53.3343 36.7425V21.2449C53.3343 19.675 52.0579 18.4022 50.4833 18.4022C48.9088 18.4022 47.6324 19.675 47.6324 21.2449V31.9018C43.9928 31.9018 41.048 34.8441 41.048 38.4803" stroke="#67676A" stroke-miterlimit="10" stroke-linecap="round" stroke-linejoin="round"/>
<path d="M18.5501 48.4617C16.4383 48.4617 14.4863 47.7782 12.9024 46.621L26.2943 33.2291C27.4514 34.813 28.1351 36.7649 28.1351 38.8767C28.1351 44.1704 23.8437 48.4617 18.5501 48.4617ZM8.96504 38.8767C8.96504 33.5831 13.2564 29.2917 18.5501 29.2917C20.6619 29.2917 22.6138 29.9753 24.1977 31.1324L10.8058 44.5244C9.6487 42.9404 8.96504 40.9885 8.96504 38.8767ZM11.6315 28.4113C7.15678 31.8412 6 35.9485 6 38.8767C6 45.7969 11.63 51.4268 18.5501 51.4268C25.4702 51.4268 31.1001 45.7969 31.1001 38.8767C31.1001 31.9565 25.4702 26.3266 18.5501 26.3266C15.995 26.3266 13.6163 27.0949 11.6315 28.4113Z" stroke="#67676A" stroke-miterlimit="10" stroke-linecap="round" stroke-linejoin="round"/>
</svg>
