<svg width="60" height="60" viewBox="0 0 60 60" fill="none" xmlns="http://www.w3.org/2000/svg">
<path d="M40.455 39.9879V6.58668C40.455 4.89145 39.0806 3.51707 37.3854 3.51707H6.82475C5.12952 3.51707 3.75526 4.89145 3.75526 6.58668V55.7585C3.75526 57.4538 5.12952 58.8281 6.82475 58.8281H37.3854C39.0806 58.8281 40.455 57.4538 40.455 55.7585V39.9879Z" stroke="#67676A" stroke-miterlimit="10" stroke-linecap="round" stroke-linejoin="round"/>
<path d="M47.5795 52.6545V52.7169L51.9134 58.8281L56.2446 52.7209V52.6585" stroke="#67676A" stroke-miterlimit="10" stroke-linecap="round" stroke-linejoin="round"/>
<path d="M56.2358 10.8611L47.5707 10.8571L47.5693 6.30192C47.5688 4.82735 48.7644 3.63181 50.2389 3.63216L53.5664 3.6345C55.0396 3.63497 56.2339 4.82923 56.2344 6.30262L56.2358 10.8611Z" stroke="#67676A" stroke-miterlimit="10" stroke-linecap="round" stroke-linejoin="round"/>
<path d="M47.572 17.0538L47.5707 10.8571L56.2358 10.8611L56.2372 17.0538" stroke="#67676A" stroke-miterlimit="10" stroke-linecap="round" stroke-linejoin="round"/>
<path d="M47.5721 17.0538L47.5795 52.6545L50.1501 49.7912L51.9119 51.992L53.672 49.7931L56.2447 52.6584L56.2372 17.0538" stroke="#67676A" stroke-miterlimit="10" stroke-linecap="round" stroke-linejoin="round"/>
<path d="M18.3875 1.17207V6.09253" stroke="#67676A" stroke-miterlimit="10" stroke-linecap="round" stroke-linejoin="round"/>
<path d="M10.9523 1.17207V6.09253" stroke="#67676A" stroke-miterlimit="10" stroke-linecap="round" stroke-linejoin="round"/>
<path d="M25.8227 1.17207V6.09253" stroke="#67676A" stroke-miterlimit="10" stroke-linecap="round" stroke-linejoin="round"/>
<path d="M33.2577 1.17207V6.09253" stroke="#67676A" stroke-miterlimit="10" stroke-linecap="round" stroke-linejoin="round"/>
<path d="M10.9523 13.9556H33.0026" stroke="#67676A" stroke-miterlimit="10" stroke-linecap="round" stroke-linejoin="round"/>
<path d="M11 21H33.0503" stroke="#67676A" stroke-miterlimit="10" stroke-linecap="round" stroke-linejoin="round"/>
<path d="M10.9523 27.1113H33.0026" stroke="#67676A" stroke-miterlimit="10" stroke-linecap="round" stroke-linejoin="round"/>
<path d="M10.9523 34.6128H33.0026" stroke="#67676A" stroke-miterlimit="10" stroke-linecap="round" stroke-linejoin="round"/>
<path d="M10.9523 42.1145H25.8227" stroke="#67676A" stroke-miterlimit="10" stroke-linecap="round" stroke-linejoin="round"/>
</svg>
