<svg width="60" height="61" viewBox="0 0 60 61" fill="none" xmlns="http://www.w3.org/2000/svg">
<path d="M24.4249 0.999873H43.2319C43.4825 0.999873 43.7228 1.09942 43.9 1.27662C44.0772 1.45382 44.1768 1.69415 44.1768 1.94475V3.02345C44.1768 4.06719 43.3308 4.91321 42.287 4.91321H18.673C17.6292 4.91321 16.7832 4.06719 16.7832 3.02345V1.94475C16.7832 1.69415 16.8828 1.45382 17.06 1.27662C17.2372 1.09942 17.4775 0.999873 17.7281 0.999873H24.4249Z" stroke="white" stroke-miterlimit="10" stroke-linecap="round" stroke-linejoin="round"/>
<path d="M19.7188 4.9132L20.6971 8.82654" stroke="white" stroke-miterlimit="10" stroke-linecap="round" stroke-linejoin="round"/>
<path d="M26.0781 4.9132L27.0564 8.82654" stroke="white" stroke-miterlimit="10" stroke-linecap="round" stroke-linejoin="round"/>
<path d="M40.2637 8.82666L41.242 4.91333" stroke="white" stroke-miterlimit="10" stroke-linecap="round" stroke-linejoin="round"/>
<path d="M33.9043 8.82666L34.8827 4.91333" stroke="white" stroke-miterlimit="10" stroke-linecap="round" stroke-linejoin="round"/>
<path d="M18.7399 47.9604C17.6592 47.9604 16.7832 48.8365 16.7832 49.9171C16.7832 50.9978 17.6592 51.8738 18.7399 51.8738H42.2202C43.3009 51.8738 44.1769 50.9978 44.1769 49.9171C44.1769 48.8365 43.3009 47.9604 42.2202 47.9604H18.7399Z" stroke="white" stroke-miterlimit="10" stroke-linecap="round" stroke-linejoin="round"/>
<path d="M19.7184 40.1337C18.6379 40.1337 17.7617 41.0097 17.7617 42.0903C17.7617 43.171 18.6379 44.047 19.7184 44.047H41.242C42.3227 44.047 43.1987 43.171 43.1987 42.0903C43.1987 41.0097 42.3227 40.1337 41.242 40.1337H19.7184Z" stroke="white" stroke-miterlimit="10" stroke-linecap="round" stroke-linejoin="round"/>
<path d="M41.2418 44.0471C40.1612 44.0471 39.2852 44.9231 39.2852 46.0037C39.2852 47.0844 40.1612 47.9604 41.2418 47.9604" stroke="white" stroke-miterlimit="10" stroke-linecap="round" stroke-linejoin="round"/>
<path d="M19.7188 47.9604C20.7993 47.9604 21.6755 47.0844 21.6755 46.0037C21.6755 44.9231 20.7993 44.0471 19.7188 44.0471" stroke="white" stroke-miterlimit="10" stroke-linecap="round" stroke-linejoin="round"/>
<path d="M28.3382 59.7006H43.2319C43.4825 59.7006 43.7228 59.601 43.9 59.4238C44.0772 59.2466 44.1768 59.0063 44.1768 58.7557V53.7635C44.1768 52.7199 43.3308 51.8738 42.287 51.8738H18.673C17.6292 51.8738 16.7832 52.7199 16.7832 53.7635V58.7557C16.7832 59.0063 16.8828 59.2466 17.06 59.4238C17.2372 59.601 17.4775 59.7006 17.7281 59.7006H28.3382Z" stroke="white" stroke-miterlimit="10" stroke-linecap="round" stroke-linejoin="round"/>
<path d="M17.7626 16.6533C17.7626 18.2744 16.4487 19.5884 14.8276 19.5884C13.2067 19.5884 11.8926 18.2744 11.8926 16.6533C11.8926 15.0324 13.2067 13.7183 14.8276 13.7183C16.4487 13.7183 17.7626 15.0324 17.7626 16.6533Z" stroke="white" stroke-miterlimit="10" stroke-linecap="round" stroke-linejoin="round"/>
<path d="M49.0693 16.6533C49.0693 18.2744 47.7552 19.5884 46.1341 19.5884C44.5132 19.5884 43.1992 18.2744 43.1992 16.6533C43.1992 15.0324 44.5132 13.7183 46.1341 13.7183C47.7552 13.7183 49.0693 15.0324 49.0693 16.6533Z" stroke="white" stroke-miterlimit="10" stroke-linecap="round" stroke-linejoin="round"/>
<path d="M22.0845 13.7183C22.4615 14.6508 22.6547 15.6475 22.6535 16.6533C22.6535 20.9759 19.1494 24.4801 14.8268 24.4801C10.5042 24.4801 7 20.9759 7 16.6533C7 12.3307 10.5042 8.82653 14.8268 8.82653H46.1337C50.4564 8.82653 53.9605 12.3307 53.9605 16.6533C53.9605 20.9759 50.4564 24.4801 46.1337 24.4801C41.8112 24.4801 38.307 20.9759 38.307 16.6533C38.3058 15.6475 38.499 14.6508 38.876 13.7183" stroke="white" stroke-miterlimit="10" stroke-linecap="round" stroke-linejoin="round"/>
<path d="M14.8262 13.7184H46.1331" stroke="white" stroke-miterlimit="10" stroke-linecap="round" stroke-linejoin="round"/>
<path d="M20.6973 25.4586V40.1338" stroke="white" stroke-miterlimit="10" stroke-linecap="round" stroke-linejoin="round"/>
<path d="M40.2637 25.4586V40.1338" stroke="white" stroke-miterlimit="10" stroke-linecap="round" stroke-linejoin="round"/>
<path d="M18.7439 23.4283C18.743 23.4529 18.7402 23.477 18.7402 23.5018C18.7402 24.5824 19.6163 25.4585 20.6968 25.4585H40.2638C41.3443 25.4585 42.2205 24.5824 42.2205 23.5018C42.2205 23.477 42.2176 23.4529 42.2167 23.4283" stroke="white" stroke-miterlimit="10" stroke-linecap="round" stroke-linejoin="round"/>
<path d="M40.0252 21.5452H20.9336" stroke="white" stroke-miterlimit="10" stroke-linecap="round" stroke-linejoin="round"/>
</svg>
