<svg width="60" height="60" viewBox="0 0 60 60" fill="none" xmlns="http://www.w3.org/2000/svg">
<path d="M42 56.0001L33 39.5001" stroke="#67676A" stroke-miterlimit="10" stroke-linecap="round" stroke-linejoin="round"/>
<path d="M47.9998 56L45.0527 50.8993L38.2803 39.1688" stroke="#67676A" stroke-miterlimit="10" stroke-linecap="round" stroke-linejoin="round"/>
<path d="M12 56L21.7194 39.1688" stroke="#67676A" stroke-miterlimit="10" stroke-linecap="round" stroke-linejoin="round"/>
<path d="M27.2179 39.1688L17.5 56" stroke="#67676A" stroke-miterlimit="10" stroke-linecap="round" stroke-linejoin="round"/>
<path d="M55.6053 6.24547V37.9974C55.6053 38.6447 55.0806 39.1693 54.4334 39.1693H5.5664C4.9193 39.1693 4.39453 38.6447 4.39453 37.9974V6.24547" stroke="#67676A" stroke-miterlimit="10" stroke-linecap="round" stroke-linejoin="round"/>
<path d="M15.6984 6.24542H2.05078C1.40367 6.24542 0.878906 5.72078 0.878906 5.07355V2.05094C0.878906 1.40384 1.40367 0.879071 2.05078 0.879071H57.9491C58.5962 0.879071 59.1209 1.40384 59.1209 2.05094V5.07355C59.1209 5.72078 58.5962 6.24542 57.9491 6.24542H15.6984Z" stroke="#67676A" stroke-miterlimit="10" stroke-linecap="round" stroke-linejoin="round"/>
<path d="M21.8857 29.3867V16.0532L30.9005 29.107C31.0677 29.3485 31.2467 29.2302 31.2467 28.9365V16.0282" stroke="#67676A" stroke-miterlimit="10" stroke-linecap="round" stroke-linejoin="round"/>
<path d="M18.3699 16.0892H12.7925V29.3257H18.3699" stroke="#67676A" stroke-miterlimit="10" stroke-linecap="round" stroke-linejoin="round"/>
<path d="M17.9586 22.7074H12.7925" stroke="#67676A" stroke-miterlimit="10" stroke-linecap="round" stroke-linejoin="round"/>
<path d="M45.1758 17.1688C44.1098 16.4486 42.8248 16.0282 41.4414 16.0282C37.7525 16.0282 34.7622 19.0185 34.7622 22.7074C34.7622 26.3962 37.7525 29.3867 41.4414 29.3867C45.1302 29.3867 47.2072 26.3962 47.2072 22.7074H43.211" stroke="#67676A" stroke-miterlimit="10" stroke-linecap="round" stroke-linejoin="round"/>
<path d="M6 56.0001H52.9594" stroke="#67676A" stroke-miterlimit="10" stroke-linecap="round" stroke-linejoin="round"/>
</svg>
