<svg width="60" height="60" viewBox="0 0 60 60" fill="none" xmlns="http://www.w3.org/2000/svg">
<path d="M8.52239 36.2764C2.28743 45.5543 -0.154169 53.4668 2.97169 56.5892C7.74849 61.3659 23.7197 53.1378 38.6479 38.2064C53.5793 23.2782 61.8076 7.30708 57.0308 2.53028C53.9083 -0.595575 45.9957 1.84603 36.7179 8.08099M44.9828 13.1204C38.1963 25.2815 25.723 37.7549 13.5619 44.5413M10.0013 39.5C20.9899 33.3148 33.8162 20.4886 40.0013 9.5M11.1999 4.35396C14.0667 1.4906 18.7072 1.4906 21.5739 4.35396C24.4373 7.22071 24.4373 11.8612 21.5739 14.728C18.7072 17.5913 14.0667 17.5913 11.1999 14.728C8.33642 11.8612 8.33642 7.2206 11.1999 4.35396Z" stroke="#67676A" stroke-miterlimit="10" stroke-linecap="round" stroke-linejoin="round"/>
<path d="M23.5561 7.99787C31.2195 5.71576 39.8595 7.5992 45.9085 13.6483C54.698 22.4344 54.698 36.6816 45.9085 45.4679C37.1223 54.2574 22.8752 54.2574 14.0889 45.4679C5.9405 37.3195 5.34929 24.4741 12.3184 15.6447M50.373 50.8126C52.2066 48.9789 55.1796 48.9789 57.0133 50.8126C58.8469 52.6462 58.8469 55.6192 57.0133 57.4529C55.1796 59.2865 52.2066 59.2865 50.373 57.4529C48.5393 55.6192 48.5393 52.6462 50.373 50.8126Z" stroke="#67676A" stroke-miterlimit="10" stroke-linecap="round" stroke-linejoin="round"/>
</svg>
