<svg width="60" height="60" viewBox="0 0 60 60" fill="none" xmlns="http://www.w3.org/2000/svg">
<path d="M19.302 49.3161H8.65312H2.89336C1.78008 49.3161 0.878906 48.4149 0.878906 47.3016V18.6106C0.878906 17.4973 1.78008 16.5962 2.89336 16.5962H3.98789M56.0121 16.5958H57.1066C58.2199 16.5958 59.1211 17.497 59.1211 18.6103V47.3013C59.1211 48.4146 58.2199 49.3158 57.1066 49.3158H35.066C34.8918 49.6755 34.6585 50.0035 34.3758 50.2861C33.7289 50.9329 32.8359 51.3325 31.8492 51.3325H28.8141" stroke="white" stroke-miterlimit="10" stroke-linecap="round" stroke-linejoin="round"/>
<path d="M56.0121 31.5981V42.9595C56.0121 44.681 54.6164 46.0767 52.8949 46.0767H28.8141M3.98788 31.5981V42.9595C3.98788 44.681 5.38359 46.0767 7.10507 46.0767H19.3019" stroke="white" stroke-miterlimit="10" stroke-linecap="round" stroke-linejoin="round"/>
<path d="M28.8141 45.745V54.1966C28.8141 55.5864 27.2285 56.3822 26.1141 55.5525L24.0574 54.0197L22.0008 55.5525C20.8863 56.3822 19.302 55.5864 19.302 54.1966V43.0861" stroke="white" stroke-miterlimit="10" stroke-linecap="round" stroke-linejoin="round"/>
<path d="M10.4215 11.1653L6.82382 10.1598C5.39882 9.76137 3.98788 10.8325 3.98788 12.3125V35.8473C3.98788 37.5957 5.15273 39.1297 6.83671 39.6008L30 46.0766L53.1633 39.6008C54.8473 39.1297 56.0121 37.5957 56.0121 35.8473V12.3125C56.0121 10.8325 54.6012 9.76137 53.1762 10.1598L49.5797 11.1653" stroke="white" stroke-miterlimit="10" stroke-linecap="round" stroke-linejoin="round"/>
<path d="M30 16.6395L19.3711 8.74342L13.6816 4.51646C12.334 3.51568 10.4215 4.47779 10.4215 6.15592V29.7305C10.4214 30.2896 10.5521 30.841 10.8032 31.3406C11.0543 31.8401 11.4188 32.274 11.8676 32.6075L30 46.077M30 16.6395V46.077M30 16.6395L46.3195 4.51646C47.666 3.51568 49.5797 4.47779 49.5797 6.15592V28.5516V29.7305C49.5797 30.8637 49.043 31.9313 48.1324 32.6075L30 46.077" stroke="white" stroke-miterlimit="10" stroke-linecap="round" stroke-linejoin="round"/>
</svg>
