<svg width="60" height="60" viewBox="0 0 60 60" fill="none" xmlns="http://www.w3.org/2000/svg">
<path d="M28.056 52.4565L33.6205 46.892C34.4663 46.0463 35.7319 45.7932 36.8447 46.2312C42.0772 48.2907 48.6663 46.8885 53.3328 42.222C59.3868 36.168 59.9472 26.8778 54.5819 21.5125C49.2166 16.1472 39.9265 16.7075 33.8724 22.7616C29.2058 27.4281 27.8037 34.0173 29.8632 39.2497C30.3012 40.3626 30.0481 41.6281 29.2023 42.4737L23.6378 48.0384M49.8971 38.7863C45.7376 42.946 39.5298 43.5063 36.059 40.0354C32.5881 36.5646 33.1484 30.3568 37.308 26.1972C41.4676 22.0376 47.6754 21.4772 51.1462 24.9481C54.6171 28.419 54.0568 34.6268 49.8971 38.7863Z" stroke="#67676A" stroke-miterlimit="10" stroke-linecap="round" stroke-linejoin="round"/>
<path d="M17.9542 51.5001L21.8041 48.233C22.3771 47.6599 23.3062 47.6599 23.8792 48.233L27.8614 52.2152C28.4344 52.7882 28.4344 53.7173 27.8614 54.2903L24.0117 58.1401C22.7036 59.4481 20.583 59.4481 19.2749 58.1401L17.9542 56.8195C15.5001 53.5001 17.9542 51.5001 17.9542 51.5001Z" stroke="#67676A" stroke-miterlimit="10" stroke-linecap="round" stroke-linejoin="round"/>
<path d="M34.3867 37.4939L48.6042 23.2764" stroke="#67676A" stroke-miterlimit="10" stroke-linecap="round" stroke-linejoin="round"/>
<path d="M38.6021 41.7062L52.8181 27.4901" stroke="#67676A" stroke-miterlimit="10" stroke-linecap="round" stroke-linejoin="round"/>
<path d="M39.8863 24.2087L51.8858 36.2082" stroke="#67676A" stroke-miterlimit="10" stroke-linecap="round" stroke-linejoin="round"/>
<path d="M35.3195 28.7755L47.319 40.775" stroke="#67676A" stroke-miterlimit="10" stroke-linecap="round" stroke-linejoin="round"/>
<path d="M35.0952 21.6489C32.4 17.9962 27.2694 17.1392 23.5299 19.7576C19.7321 22.4167 18.8092 27.651 21.4685 31.4487C22.5977 33.0613 23.2515 34.7359 23.5062 36.355" stroke="#67676A" stroke-miterlimit="10" stroke-linecap="round" stroke-linejoin="round"/>
<path d="M29.2815 31.0896C28.3282 26.72 25.5246 21.4992 21.2622 17.2368C16.0917 12.0663 9.50962 9.03955 4.74936 8.86224" stroke="#67676A" stroke-miterlimit="10" stroke-linecap="round" stroke-linejoin="round"/>
<path d="M2.24567 14.5502C5.13796 14.5415 7.94776 13.0368 9.49814 10.3516C10.7338 8.2114 10.9199 5.75328 10.216 3.57313" stroke="#67676A" stroke-miterlimit="10" stroke-linecap="round" stroke-linejoin="round"/>
<path d="M29.6239 3.88674C24.9718 4.90065 19.0338 9.01884 14.8498 14.9943C10.3493 21.4216 8.56192 29.0209 9.65247 33.7064" stroke="#67676A" stroke-miterlimit="10" stroke-linecap="round" stroke-linejoin="round"/>
<path d="M28.9413 34.1915C26.2368 35.8251 23.0668 36.7657 19.6767 36.7657C9.76688 36.7657 1.73358 28.7323 1.73358 18.8224C1.73358 8.91262 9.76688 0.879211 19.6767 0.879211C24.5807 0.879211 30.0001 1.46825 34.9099 9.33578C36.6273 12.0879 37.6199 15.3393 37.6199 18.8225C37.6199 19.195 37.6072 19.5646 37.5848 19.9315" stroke="#67676A" stroke-miterlimit="10" stroke-linecap="round" stroke-linejoin="round"/>
</svg>
