<svg width="60" height="60" viewBox="0 0 60 60" fill="none" xmlns="http://www.w3.org/2000/svg">
<path d="M59.1064 37.2912H0.892578M59.1064 37.2912V5.45828C59.1064 4.06973 57.9808 2.94403 56.5921 2.94403H3.40683C2.01828 2.94403 0.892578 4.06973 0.892578 5.45828V37.2912M59.1064 37.2912V42.0517C59.1064 43.4403 57.9808 44.5659 56.5921 44.5659H3.40683C2.01828 44.5659 0.892578 43.4403 0.892578 42.0517V37.2912" stroke="#67676A" stroke-miterlimit="10" stroke-linecap="round" stroke-linejoin="round"/>
<path d="M42.0899 6.61706H53.8422C54.1379 6.61706 54.4215 6.73454 54.6306 6.94365C54.8397 7.15276 54.9572 7.43637 54.9572 7.7321V37.2915H5.04297V7.7321C5.04297 7.43637 5.16045 7.15276 5.36956 6.94365C5.57867 6.73454 5.86228 6.61706 6.15801 6.61706H42.0899Z" stroke="#67676A" stroke-miterlimit="10" stroke-linecap="round" stroke-linejoin="round"/>
<path d="M36.2022 44.5659H23.7948L22.7402 52.486H37.2569L36.2022 44.5659Z" stroke="#67676A" stroke-miterlimit="10" stroke-linecap="round" stroke-linejoin="round"/>
<path d="M25.0195 57.056H15.2832V54.4627C15.2832 53.371 16.1682 52.486 17.26 52.486H42.7398C43.8316 52.486 44.7166 53.371 44.7166 54.4627V57.056H25.0195Z" stroke="#67676A" stroke-miterlimit="10" stroke-linecap="round" stroke-linejoin="round"/>
<path d="M28.1543 40.9286H31.8455" stroke="#67676A" stroke-miterlimit="10" stroke-linecap="round" stroke-linejoin="round"/>
</svg>
