<svg width="60" height="60" viewBox="0 0 60 60" fill="none" xmlns="http://www.w3.org/2000/svg">
<g clip-path="url(#clip0_711_4550)">
<path d="M33.6468 34.9307L33.6397 18.4976L55.467 12.405V38.253C54.3642 37.6169 53.1132 37.2827 51.8401 37.2839C47.8194 37.2839 44.5604 40.544 44.5604 44.5647C44.5604 48.5854 47.8194 51.8444 51.8401 51.8444C55.8608 51.8444 59.1209 48.5854 59.1209 44.5647V9.98394C59.1209 9.40972 58.8654 8.86832 58.4084 8.52145C58.1827 8.35031 57.9203 8.23384 57.6419 8.18118C57.3636 8.12851 57.0768 8.1411 56.8041 8.21793L47.4561 10.8476" stroke="#67676A" stroke-miterlimit="10" stroke-linecap="round" stroke-linejoin="round"/>
<path d="M33.6468 34.9307C33.6468 34.9307 33.643 51.8547 33.6383 51.8594C33.629 55.873 30.3736 59.1238 26.3587 59.1238C22.338 59.1238 19.0778 55.8636 19.0778 51.843C19.0778 47.8223 22.338 44.5633 26.3587 44.5633C27.6852 44.5633 28.9274 44.9195 29.9985 45.5395V17.0841C29.9997 16.2638 30.5879 15.5888 31.3778 15.3673L47.4561 10.8476" stroke="#67676A" stroke-miterlimit="10" stroke-linecap="round" stroke-linejoin="round"/>
<path d="M10.2023 46.9553C13.3408 46.5001 15.4394 43.2768 15.4394 39.9651V6.66521L23.2159 4.47615C24.1909 4.20193 24.7593 3.18944 24.4851 2.21444C24.2109 1.23944 23.1984 0.671083 22.2234 0.945301L13.1789 3.48826C12.389 3.71092 11.8007 4.4281 11.7996 5.24841V33.6616C10.6937 33.0207 9.4379 32.6839 8.15974 32.6854C4.13905 32.6854 0.878902 35.9444 0.878902 39.9651C0.878902 43.3682 3 48.0001 10.2023 46.9553Z" stroke="#67676A" stroke-miterlimit="10" stroke-linecap="round" stroke-linejoin="round"/>
</g>
<defs>
<clipPath id="clip0_711_4550">
<rect width="60" height="60" fill="white"/>
</clipPath>
</defs>
</svg>
