<svg width="60" height="61" viewBox="0 0 60 61" fill="none" xmlns="http://www.w3.org/2000/svg">
<path d="M5.07673 40.9998C5.41965 40.7525 5.69192 40.405 5.86246 39.9969L9.86484 30.4077H27.3707L31.4179 40.0054C31.5886 40.41 31.8597 40.7544 32.2004 40.9998L35.2453 41C35.5009 40.8158 35.7183 40.575 35.8834 40.2934C36.0818 39.9545 36.1988 39.5664 36.2235 39.1652C36.2483 38.7639 36.18 38.3623 36.025 37.9974L24.3281 10.4636L23.9889 9.6654L20.8972 2.38764C20.7212 1.97321 20.4402 1.62236 20.0874 1.37648C19.7346 1.13061 19.3247 0.999977 18.9061 1H18.136C17.7156 0.999989 17.3041 1.13172 16.9503 1.37953C16.5965 1.62733 16.3154 1.98079 16.1404 2.39786L13.091 9.6654L12.7559 10.4636L1.19916 38.0076C1.04609 38.3724 0.979492 38.7734 1.00549 39.1736C1.03149 39.5739 1.14926 39.9606 1.34797 40.2982C1.51279 40.5778 1.72921 40.8168 1.98343 41L5.05754 40.9818M58.0219 40.9818C58.1458 40.8923 58.2568 40.8076 58.3617 40.6928C58.5657 40.469 58.7271 40.2034 58.8366 39.9112C58.9461 39.6191 59.0016 39.3062 59 38.9905L58.9065 21.4104C58.8514 15.1183 55.3363 11.0355 49.6318 10.4638L46.8358 10.4636C43.8177 10.7743 40.9882 12.1193 38.036 14.6312C37.0931 15.4337 36.9123 16.9122 37.6298 17.9563L37.9444 18.414C38.1189 18.6679 38.338 18.8815 38.5888 19.0422C38.8396 19.203 39.1173 19.3077 39.4055 19.3503C39.6938 19.393 39.9869 19.3726 40.268 19.2906C40.549 19.2085 40.8122 19.0662 41.0424 18.8722C43.6015 16.7144 45.8154 15.7522 48.221 15.7522C53.3379 15.7522 53.9681 18.9959 53.9938 21.4426V22.5185H46.8967C38.739 22.5185 35.8326 27.1817 35.8326 31.5459C35.8326 36.2143 38.6254 39.8344 42.7887 41L49.27 40.9998C51.0646 40.5722 52.6833 39.8058 54.084 38.7239L54.0865 39.0247C54.0929 39.8504 54.4818 40.5745 55.0684 40.9998L58.0219 40.9818ZM18.157 10.4636H18.9273L25.1125 25.0471H12.0925L18.157 10.4636ZM54.037 30.4516C52.4982 34.3112 49.9449 36.0385 45.8088 36.0385C43.3611 36.0385 40.7456 34.8581 40.7456 31.5458C40.7456 28.3556 44.5995 27.8787 46.8967 27.8787H54.0354L54.037 30.4516Z" stroke="#67676A"/>
</svg>
