<svg width="60" height="60" viewBox="0 0 60 60" fill="none" xmlns="http://www.w3.org/2000/svg">
<g clip-path="url(#clip0_711_1266)">
<path d="M13.0941 5.68493V0.87908C28.5455 6.91422 29.9999 19.4941 29.9999 19.4941C29.9999 19.4941 31.4543 6.91422 46.9057 0.87908V5.68504" stroke="#67676A" stroke-miterlimit="10" stroke-linecap="round" stroke-linejoin="round"/>
<path d="M4.065 6.99736L7.27534 3.73511C7.27534 3.73511 10.7118 4.20995 16.0001 6.99736L21.9043 10.5129C25.0635 12.7887 28.0826 15.7355 30.1863 19.4942" stroke="#67676A" stroke-miterlimit="10" stroke-linecap="round" stroke-linejoin="round"/>
<path d="M29.8136 19.4941C36.5603 7.43933 52.7244 3.73505 52.7244 3.73505L55.9348 6.9973" stroke="#67676A" stroke-miterlimit="10" stroke-linecap="round" stroke-linejoin="round"/>
<path d="M32.7733 59.1211H27.2264C26.5792 59.1211 26.0546 58.5963 26.0546 57.9492V20.666C26.0546 20.0188 26.5792 19.4941 27.2264 19.4941H32.7733C33.4205 19.4941 33.9451 20.0188 33.9451 20.666V57.9492C33.9451 58.5963 33.4205 59.1211 32.7733 59.1211Z" stroke="#67676A" stroke-miterlimit="10" stroke-linecap="round" stroke-linejoin="round"/>
<path d="M58.9451 34.0342V44.3733C58.9451 44.5812 58.8898 44.7854 58.7848 44.9648C58.6799 45.1443 58.529 45.2926 58.3478 45.3946L35.6916 58.1387C34.9104 58.5781 33.9453 58.0136 33.9453 57.1174V20.1794C33.9453 19.9715 34.0006 19.7673 34.1055 19.5878C34.2105 19.4084 34.3613 19.2601 34.5426 19.1581L57.1987 6.41402C57.98 5.97468 58.9451 6.53906 58.9451 7.4353V34.0342Z" stroke="#67676A" stroke-miterlimit="10" stroke-linecap="round" stroke-linejoin="round"/>
<path d="M24.3081 58.1387L1.65199 45.3946C1.47074 45.2926 1.31988 45.1443 1.21489 44.9648C1.1099 44.7853 1.05457 44.5811 1.05457 44.3732V7.4353C1.05457 6.53905 2.01984 5.97457 2.80101 6.4139L25.4571 19.158C25.6384 19.26 25.7892 19.4083 25.8942 19.5878C25.9992 19.7673 26.0545 19.9715 26.0546 20.1794V57.1173C26.0546 58.0136 25.0893 58.5781 24.3081 58.1387Z" stroke="#67676A" stroke-miterlimit="10" stroke-linecap="round" stroke-linejoin="round"/>
</g>
<defs>
<clipPath id="clip0_711_1266">
<rect width="60" height="60" fill="white"/>
</clipPath>
</defs>
</svg>
