<svg width="60" height="60" viewBox="0 0 60 60" fill="none" xmlns="http://www.w3.org/2000/svg">
<path d="M22.3235 40.8841C23.5623 41.3014 24.258 42.2519 23.5822 43.6595L20.3958 50.3164C16.8814 57.6555 8.22628 52.9791 11.0484 46.9713C13.6685 41.3942 17.3617 39.2116 22.3235 40.8841Z" stroke="#67676A" stroke-miterlimit="10" stroke-linecap="round" stroke-linejoin="round"/>
<path d="M22.1712 24.2652L27.8816 36.2409L36.0267 53.3202C41.2868 64.3455 54.493 57.6423 54.2545 49.8296C54.0293 42.4805 47.5536 34.2902 38.1333 35.615C35.8545 35.9362 34.7646 35.1745 33.8208 33.204L19.4187 3.11889L18.5873 1.37351C17.7393 -0.401643 13.2246 5.38424 17.163 13.7666L22.1712 24.2652Z" stroke="#67676A" stroke-miterlimit="10" stroke-linecap="round" stroke-linejoin="round"/>
<path d="M29.9585 40.5926L23.9698 53.1447C18.7099 64.1699 5.50696 57.4666 5.74544 49.6539C5.96727 42.3048 12.4463 34.1179 21.8632 35.4426C24.1421 35.7606 25.2352 35.0021 26.1792 33.0283L26.2653 32.8495M33.6484 32.8495L37.6796 24.2783L42.8369 13.5942C46.7752 5.20855 42.2572 -0.577332 41.4094 1.20122L40.5779 2.9432L29.9585 25.1361" stroke="#67676A" stroke-miterlimit="10" stroke-linecap="round" stroke-linejoin="round"/>
<path d="M37.673 41.0596C36.4342 41.4769 35.7418 42.4242 36.4143 43.8317L39.6007 50.4885C43.1184 57.831 51.7735 53.1545 48.9481 47.1468C46.3281 41.5663 42.6349 39.3871 37.673 41.0596Z" stroke="#67676A" stroke-miterlimit="10" stroke-linecap="round" stroke-linejoin="round"/>
</svg>
