<svg width="60" height="60" viewBox="0 0 60 60" fill="none" xmlns="http://www.w3.org/2000/svg">
<path d="M30.0002 24.551C35.069 24.551 39.178 20.442 39.178 15.3731C39.178 10.3043 35.069 6.19525 30.0002 6.19525C24.9313 6.19525 20.8223 10.3043 20.8223 15.3731C20.8223 20.442 24.9313 24.551 30.0002 24.551Z" stroke="#67676A" stroke-miterlimit="10" stroke-linecap="round" stroke-linejoin="round"/>
<path d="M30.0005 19.1627C32.0935 19.1627 33.7902 17.466 33.7902 15.3731C33.7902 13.2802 32.0935 11.5835 30.0005 11.5835C27.9076 11.5835 26.2109 13.2802 26.2109 15.3731C26.2109 17.466 27.9076 19.1627 30.0005 19.1627Z" stroke="#67676A" stroke-miterlimit="10" stroke-linecap="round" stroke-linejoin="round"/>
<path d="M43.2372 54.2796V59.1211M32.6473 54.2796V59.1211M22.0575 54.2796V59.1211M11.4675 54.2796V59.1211M34.7896 7.54371V3.27902C34.7896 1.9534 33.715 0.878906 32.3895 0.878906H27.6103C26.2846 0.878906 25.2102 1.95352 25.2102 3.27902V7.54359M38.9495 17.4039L44.0657 26.9169L47.2685 32.8719C47.6292 33.5425 47.8463 34.2809 47.906 35.04C47.9658 35.7991 47.8669 36.5623 47.6156 37.2811L44.9446 44.9208C44.551 46.0467 43.0071 46.1682 42.4421 45.1178L31.3288 24.454M21.0502 17.4039L12.7312 32.8721C12.3706 33.5428 12.1534 34.2811 12.0937 35.0402C12.0339 35.7993 12.1328 36.5625 12.3841 37.2813L15.055 44.921C15.4487 46.047 16.9926 46.1685 17.5576 45.118L28.6709 24.4542M26.9756 45.8104H6.31039C4.98477 45.8104 3.91016 46.885 3.91016 48.2106V56.721C3.91016 58.0466 4.98477 59.1211 6.31039 59.1211H53.6893C55.0149 59.1211 56.0895 58.0465 56.0895 56.721V48.2106C56.0895 46.885 55.0149 45.8104 53.6893 45.8104H26.9756Z" stroke="#67676A" stroke-miterlimit="10" stroke-linecap="round" stroke-linejoin="round"/>
<path d="M34.4508 30.2607C33.0403 30.6819 31.5464 30.9101 29.9989 30.9101C28.4515 30.9101 26.9577 30.6819 25.5471 30.2607M23.4492 34.1614C25.5002 34.8764 27.7042 35.2652 29.9989 35.2652C32.2937 35.2652 34.4973 34.8758 36.5483 34.161" stroke="#67676A" stroke-miterlimit="10" stroke-linecap="round" stroke-linejoin="round"/>
</svg>
