<svg width="60" height="60" viewBox="0 0 60 60" fill="none" xmlns="http://www.w3.org/2000/svg">
<g clip-path="url(#clip0_711_2899)">
<path d="M27.1309 15.5505L29.9157 4.60014C30.2943 3.11131 29.3763 1.60186 27.8802 1.25311C26.5731 0.948411 25.2376 1.63443 24.7239 2.87432L17.3909 20.5726C16.838 21.9073 16.5533 23.3378 16.5533 24.7825V31.4428C16.5533 33.2691 16.1872 35.0769 15.4766 36.7594C14.766 38.4418 13.7253 39.9647 12.416 41.2381" stroke="#67676A" stroke-miterlimit="10" stroke-linecap="round" stroke-linejoin="round"/>
<path d="M22.463 26.8875L25.0942 17.7086C25.442 16.4952 26.6395 15.731 27.8866 15.9266C29.1036 16.1175 30.0005 17.166 30.0005 18.3979V38.9422C30.0005 44.1469 27.2687 48.9696 22.8048 51.6458M47.5926 41.2451C46.2812 39.9715 45.2388 38.4478 44.5269 36.764C43.815 35.0803 43.4482 33.2709 43.4482 31.4429V24.7826C43.4482 23.3379 43.1636 21.9074 42.6106 20.5728L41.3748 17.5901L35.2775 2.87432C34.7638 1.63443 33.4283 0.948411 32.1212 1.25311C30.6251 1.60186 29.7071 3.11131 30.0858 4.60014L32.8705 15.5505M18.5005 59.5C14.4359 59.8188 2.40963 55 1.50051 50C0.591383 45 11.0185 39.9104 11.0185 39.9104L24.1625 53.0546C24.1625 53.0546 22.565 59.1812 18.5005 59.5Z" stroke="#67676A" stroke-miterlimit="10" stroke-linecap="round" stroke-linejoin="round"/>
<path d="M37.5375 26.8875L34.9063 17.7086C34.5584 16.4952 33.361 15.731 32.1139 15.9266C30.8969 16.1175 30 17.166 30 18.3979V38.9422C30 44.1468 32.7318 48.9696 37.1957 51.6458M42.5 59.5C46.5 60.2273 58 54.5 58.8285 49.7569C59.657 45.0139 48.982 39.9104 48.982 39.9104L35.8379 53.0546C35.8379 53.0546 38.5 58.7727 42.5 59.5Z" stroke="#67676A" stroke-miterlimit="10" stroke-linecap="round" stroke-linejoin="round"/>
</g>
<defs>
<clipPath id="clip0_711_2899">
<rect width="60" height="60" fill="white"/>
</clipPath>
</defs>
</svg>
