<svg width="60" height="60" viewBox="0 0 60 60" fill="none" xmlns="http://www.w3.org/2000/svg">
<g clip-path="url(#clip0_711_17198)">
<path d="M54.8991 9.38094C55.9596 10.4825 56.6123 11.9813 56.6123 13.6302V40.1121C56.6123 43.4953 53.8702 46.2386 50.487 46.2386H9.516C6.13281 46.2386 3.39062 43.4953 3.39062 40.1121V13.6302C3.39062 11.9813 4.04336 10.4825 5.1039 9.38094" stroke="#67676A" stroke-miterlimit="10" stroke-linecap="round" stroke-linejoin="round"/>
<path d="M56.1186 0.879035H3.88124C2.22316 0.879035 0.878906 2.22317 0.878906 3.88137V6.37816C0.878906 8.03624 2.22316 9.38049 3.88124 9.38049H56.1186C57.7767 9.38049 59.1209 8.03624 59.1209 6.37816V3.88137C59.1209 2.22317 57.7767 0.879035 56.1186 0.879035Z" stroke="#67676A" stroke-miterlimit="10" stroke-linecap="round" stroke-linejoin="round"/>
<path d="M29.998 49.1953C27.257 49.1953 25.0352 51.4172 25.0352 54.1582C25.0352 56.8992 27.257 59.1211 29.998 59.1211C32.739 59.1211 34.9609 56.8992 34.9609 54.1582C34.9609 51.4172 32.739 49.1953 29.998 49.1953Z" stroke="#67676A" stroke-miterlimit="10" stroke-linecap="round" stroke-linejoin="round"/>
<path d="M30 49.1958V46.2385" stroke="#67676A" stroke-miterlimit="10" stroke-linecap="round" stroke-linejoin="round"/>
<path d="M14.6973 30.0001H10.7322C9.80359 30.0001 9.05078 30.7529 9.05078 31.6815V39.7087C9.05078 40.6373 9.80359 41.3901 10.7322 41.3901H14.6973C15.6259 41.3901 16.3787 40.6373 16.3787 39.7087V31.6815C16.3787 30.7529 15.6259 30.0001 14.6973 30.0001Z" stroke="#67676A" stroke-miterlimit="10" stroke-linecap="round" stroke-linejoin="round"/>
<path d="M26.2208 33.3899H22.2556C21.327 33.3899 20.5742 34.1427 20.5742 35.0713V39.7087C20.5742 40.6373 21.327 41.3901 22.2556 41.3901H26.2208C27.1494 41.3901 27.9022 40.6373 27.9022 39.7087V35.0713C27.9022 34.1427 27.1494 33.3899 26.2208 33.3899Z" stroke="#67676A" stroke-miterlimit="10" stroke-linecap="round" stroke-linejoin="round"/>
<path d="M37.7442 17.1841H33.7791C32.8505 17.1841 32.0977 17.9369 32.0977 18.8655V39.7087C32.0977 40.6373 32.8505 41.3901 33.7791 41.3901H37.7442C38.6728 41.3901 39.4256 40.6373 39.4256 39.7087V18.8655C39.4256 17.9369 38.6728 17.1841 37.7442 17.1841Z" stroke="#67676A" stroke-miterlimit="10" stroke-linecap="round" stroke-linejoin="round"/>
<path d="M43.6211 37.4531V39.709C43.6211 40.6371 44.3746 41.3906 45.3027 41.3906H49.2683C50.1965 41.3906 50.9488 40.6371 50.9488 39.709V26.8711C50.9488 25.943 50.1965 25.1895 49.2683 25.1895H45.3027C44.3746 25.1895 43.6211 25.943 43.6211 26.8711V37.4531Z" stroke="#67676A" stroke-miterlimit="10" stroke-linecap="round" stroke-linejoin="round"/>
<path d="M9 14.1078H19.7674" stroke="#67676A" stroke-miterlimit="10" stroke-linecap="round" stroke-linejoin="round"/>
<path d="M9.05078 22.4337H24.2373" stroke="#67676A" stroke-miterlimit="10" stroke-linecap="round" stroke-linejoin="round"/>
<path d="M22 18L9 18.2709" stroke="#67676A" stroke-miterlimit="10" stroke-linecap="round" stroke-linejoin="round"/>
</g>
<defs>
<clipPath id="clip0_711_17198">
<rect width="60" height="60" fill="white"/>
</clipPath>
</defs>
</svg>
