<svg width="60" height="60" viewBox="0 0 60 60" fill="none" xmlns="http://www.w3.org/2000/svg">
<g clip-path="url(#clip0_711_4555)">
<path d="M30 59.1211C46.0831 59.1211 59.1211 46.0831 59.1211 30C59.1211 13.9169 46.0831 0.878906 30 0.878906C13.9169 0.878906 0.878906 13.9169 0.878906 30C0.878906 46.0831 13.9169 59.1211 30 59.1211Z" stroke="#67676A" stroke-miterlimit="10" stroke-linecap="round" stroke-linejoin="round"/>
<path d="M58.1815 23.4243L56.6449 24.4488C56.2835 24.6897 55.8498 24.7979 55.4176 24.7551C54.9854 24.7124 54.5813 24.5211 54.2742 24.214L50.9912 20.931C50.456 20.3959 49.5402 20.6808 49.4031 21.4251L48.634 25.6005C48.3665 27.0527 46.6053 27.6429 45.5168 26.6451L42.5421 23.9184C41.7 23.1468 40.3454 23.2867 39.6931 24.2845C39.1808 25.0682 39.39 26.1261 40.0803 26.7589L46.066 32.2457C46.4179 32.5683 46.6821 32.975 46.8338 33.4277C46.9855 33.8804 47.0197 34.3642 46.9332 34.8337L45.9211 40.3284L44.3891 48.6451C44.0664 50.3972 42.9328 51.8897 41.3396 52.6869C40.4867 53.1136 39.6102 53.4916 38.7146 53.8192C37.0765 54.418 35.2385 53.8274 34.2712 52.3762L27.9157 42.8431C27.401 42.0711 26.7036 41.4381 25.8855 41.0003C25.0674 40.5624 24.1539 40.3333 23.226 40.3333H20.6062C15.2112 40.3333 10.8783 35.7853 11.2326 30.314C11.5559 25.3212 15.9246 21.5455 20.928 21.5455H33.7576C35.3643 21.5455 36.6569 20.201 36.5718 18.5757C36.492 17.0518 35.1242 15.9091 33.5981 15.9091H28.7383C27.7417 15.9091 26.786 15.5133 26.0813 14.8086L24.7383 13.4656C24.3483 13.0756 23.8525 12.8086 23.3122 12.6977C22.7719 12.5868 22.211 12.6369 21.6989 12.8417L19.9084 13.5579C19.5598 13.6973 19.2609 13.938 19.0504 14.249C18.8398 14.5599 18.7273 14.9268 18.7273 15.3023V15.9091C18.7273 16.9467 17.8861 17.7879 16.8485 17.7879H14.9698C13.9322 17.7879 13.091 16.9467 13.091 15.9091V13.091C13.091 12.0534 13.9322 11.2122 14.9698 11.2122H16.7164C17.2289 11.2122 17.736 11.1074 18.2065 10.9041C18.677 10.7009 21.3476 7.13047 21.6989 6.75727M28.1213 1.22119V1.81826C28.1213 3.89354 26.4389 5.57588 24.3637 5.57588H23.993C23.529 5.57588 23.0723 5.69042 22.6632 5.90935C22.2542 6.12827 21.9055 6.4448 21.6482 6.83084M38.4545 12.1516H35.6364C34.5988 12.1516 33.7576 11.3104 33.7576 10.2729C33.7576 9.23529 34.5988 8.39412 35.6364 8.39412H38.4545C39.4921 8.39412 40.3333 9.23529 40.3333 10.2729C40.3333 11.3104 39.4922 12.1516 38.4545 12.1516Z" stroke="#67676A" stroke-miterlimit="10" stroke-linecap="round" stroke-linejoin="round"/>
</g>
<defs>
<clipPath id="clip0_711_4555">
<rect width="60" height="60" fill="white"/>
</clipPath>
</defs>
</svg>
