<svg width="60" height="60" viewBox="0 0 60 60" fill="none" xmlns="http://www.w3.org/2000/svg">
<path d="M31.289 1.28923C39.0555 1.28923 45.3515 14.1435 45.3515 30.0001C45.3515 45.8567 39.0555 58.7109 31.289 58.7109C23.5226 58.7109 17.2266 45.8567 17.2266 30.0001C17.2266 14.1435 23.5226 1.28923 31.289 1.28923Z" stroke="#67676A" stroke-miterlimit="10" stroke-linecap="round" stroke-linejoin="round"/>
<path d="M6 17C6.1582 16.0625 6.3199 15.797 6.80739 15.0013C9.01286 11.4014 14.2289 10.1568 20.7034 11.1001C23.9847 11.5782 27.5894 12.6189 31.289 14.2009C33.7181 15.2393 36.1884 16.5107 38.6354 18.0095C40.8772 19.383 42.9596 20.8618 44.8534 22.404C47.844 24.8345 50.367 27.4231 52.3159 30.0001C56.3225 35.2993 58.265 39.7406 56.5 43.5" stroke="#67676A" stroke-miterlimit="10" stroke-linecap="round" stroke-linejoin="round"/>
<path d="M50 48.9C47.5531 49.6265 45.2576 49.3934 41.8744 48.9001C38.5931 48.4219 34.9886 47.3813 31.2888 45.7993C28.8597 44.761 26.3894 43.4895 23.9424 41.9907C21.7006 40.6172 19.6182 39.1384 17.7244 37.5962C14.7338 35.1657 12.2108 32.5771 10.2621 30.0001C8.85923 28.1461 7.76758 26.7813 7 25" stroke="#67676A" stroke-miterlimit="10" stroke-linecap="round" stroke-linejoin="round"/>
<path d="M23.9437 18.009C37.4646 9.72551 51.7146 8.37926 55.7717 15.0017C59.8289 21.6243 52.1569 33.708 38.6358 41.9911C25.1149 50.2746 10.865 51.6209 6.80777 44.9985C2.75064 38.3759 10.4226 26.2923 23.9437 18.009Z" stroke="#67676A" stroke-miterlimit="10" stroke-linecap="round" stroke-linejoin="round"/>
<path d="M31.289 35.3594C34.2489 35.3594 36.6484 32.9599 36.6484 30.0001C36.6484 27.0402 34.2489 24.6407 31.289 24.6407C28.3292 24.6407 25.9297 27.0402 25.9297 30.0001C25.9297 32.9599 28.3292 35.3594 31.289 35.3594Z" stroke="#67676A"/>
<path d="M1.90625 21.1159C1.90625 23.4245 3.7852 25.3034 6.09374 25.3034C8.40227 25.3034 10.2812 23.4245 10.2812 21.1159C10.2812 18.8074 8.40227 16.9284 6.09374 16.9284C3.7852 16.9284 1.90625 18.8074 1.90625 21.1159Z" stroke="#67676A"/>
<path d="M49.7188 47.0268C49.7188 49.3353 51.5977 51.2143 53.9062 51.2143C56.2148 51.2143 58.0937 49.3353 58.0937 47.0268C58.0937 44.7183 56.2148 42.8393 53.9062 42.8393C51.5977 42.8393 49.7188 44.7183 49.7188 47.0268Z" stroke="#67676A"/>
</svg>
