<svg width="60" height="60" viewBox="0 0 60 60" fill="none" xmlns="http://www.w3.org/2000/svg">
<path d="M18.8704 40.9004L13.582 45.3481" stroke="#67676A" stroke-miterlimit="10" stroke-linecap="round" stroke-linejoin="round"/>
<path d="M14.0444 49.0001C14.0444 52.3138 11.3482 55.0001 8.02226 55.0001C4.69626 55.0001 2 52.3138 2 49.0001C2 45.6864 4.69626 43.0001 8.02226 43.0001C11.3482 43.0001 14.0444 45.6864 14.0444 49.0001Z" stroke="#67676A" stroke-miterlimit="10" stroke-linecap="round" stroke-linejoin="round"/>
<path d="M20.9827 23.0018L15.7852 17.8235" stroke="#67676A" stroke-miterlimit="10" stroke-linecap="round" stroke-linejoin="round"/>
<path d="M12.0313 19.4794C9.3756 19.4794 7.22266 17.3344 7.22266 14.6884C7.22266 12.0425 9.3756 9.8975 12.0313 9.8975C14.6871 9.8975 16.84 12.0425 16.84 14.6884C16.84 17.3344 14.6871 19.4794 12.0313 19.4794Z" stroke="#67676A" stroke-miterlimit="10" stroke-linecap="round" stroke-linejoin="round"/>
<path d="M36.543 22.7971L45.4983 11" stroke="#67676A" stroke-miterlimit="10" stroke-linecap="round" stroke-linejoin="round"/>
<path d="M56.0444 6.99993C56.0444 10.3137 53.3482 13 50.0222 13C46.6962 13 44 10.3137 44 6.99993C44 3.6862 46.6962 1 50.0222 1C53.3482 1 56.0444 3.6862 56.0444 6.99993Z" stroke="#67676A" stroke-miterlimit="10" stroke-linecap="round" stroke-linejoin="round"/>
<path d="M42 34L49 35" stroke="#67676A" stroke-miterlimit="10" stroke-linecap="round" stroke-linejoin="round"/>
<path d="M54 35.5C54 36.8808 52.8807 38 51.5 38C50.1193 38 49 36.8808 49 35.5C49 34.1193 50.1193 33 51.5 33C52.8807 33 54 34.1193 54 35.5Z" stroke="#67676A" stroke-miterlimit="10" stroke-linecap="round" stroke-linejoin="round"/>
<path d="M39.0334 53.4999C39.0334 55.9852 37.0112 58 34.5167 58C32.0222 58 30 55.9852 30 53.4999C30 51.0146 32.0222 49 34.5167 49C37.0112 49 39.0334 51.0146 39.0334 53.4999Z" stroke="#67676A" stroke-miterlimit="10" stroke-linecap="round" stroke-linejoin="round"/>
<path d="M33 45L33.5 49" stroke="#67676A" stroke-miterlimit="10" stroke-linecap="round" stroke-linejoin="round"/>
<path d="M41.618 33.0211C41.618 39.9821 35.9541 45.6252 28.9672 45.6252C21.9803 45.6252 16.3164 39.9821 16.3164 33.0211C16.3164 26.06 21.9803 20.417 28.9672 20.417C35.9541 20.417 41.618 26.06 41.618 33.0211Z" stroke="#67676A" stroke-miterlimit="10" stroke-linecap="round" stroke-linejoin="round"/>
</svg>
