<svg width="60" height="60" viewBox="0 0 60 60" fill="none" xmlns="http://www.w3.org/2000/svg">
<path d="M6.27134 18.2092C3.06073 18.2092 0.878913 20.7061 0.878913 23.4821V31.6214V42.232C0.877681 43.0143 1.05106 43.7871 1.38639 44.4939M12.292 47.506H43.2367H53.848C56.7605 47.506 59.1209 45.1444 59.1209 42.232V23.4821C59.1209 20.6853 56.918 18.2092 53.7308 18.2092M6.1518 38.3925V32.5453" stroke="#67676A" stroke-miterlimit="10" stroke-linecap="round" stroke-linejoin="round"/>
<path d="M53.8467 32.5453V41.9296C53.8467 43.0594 52.9314 43.9759 51.8016 43.9759H15.0625" stroke="#67676A" stroke-miterlimit="10" stroke-linecap="round" stroke-linejoin="round"/>
<path d="M19.8473 37.8791C23.3645 37.6072 26.9392 38.4651 30.0005 40.4247M30.0005 40.4247V28.6178M30.0005 40.4247C34.5597 37.5065 40.2679 37.0213 45.2448 39.1073C47.3216 39.9772 49.5507 40.425 51.8022 40.4247C52.932 40.4247 53.8474 39.5152 53.8474 38.3924V19.0976C53.8474 17.2704 52.4316 15.7445 50.5962 15.6155C49.2273 15.5194 47.6943 15.2674 45.9668 14.6322M6.5145 39.5445C6.27821 39.2068 6.15175 38.8046 6.15235 38.3924V19.1152C6.15235 17.2929 7.56263 15.7425 9.41406 15.6132C11.2331 15.4873 12.9436 15.1068 14.7561 14.3474C16.3125 13.6946 17.9346 13.2961 19.5672 13.1426V13.1414" stroke="#67676A" stroke-miterlimit="10" stroke-linecap="round" stroke-linejoin="round"/>
<path d="M20.1497 36.3907L28.9608 27.5795M16.4062 32.6461L25.2174 23.8349M21.2185 14.8444L19.8672 13.493C18.6858 12.3117 18.6858 10.3978 19.8672 9.21755L26.1996 2.88516C27.3798 1.70495 29.2937 1.70495 30.4751 2.88516L32.1733 4.58341M48.2123 20.6224L49.9117 22.3218C51.092 23.502 51.092 25.4159 49.9117 26.5961L43.5782 32.9297C42.398 34.1099 40.4841 34.1099 39.3039 32.9297L37.9514 31.5772" stroke="#67676A" stroke-miterlimit="10"/>
<path d="M31.5987 30.216L22.5805 21.1979C20.2461 18.8634 20.2461 15.0787 22.5805 12.7443L29.1026 6.22212C31.4371 3.88771 35.2218 3.88771 37.5563 6.22212L46.5744 15.2403C48.9088 17.5747 48.9088 21.3595 46.5744 23.6939L40.0522 30.216C37.7179 32.5504 33.9331 32.5504 31.5987 30.216ZM19.8467 37.8791L10.78 49.4316C8.78757 51.9714 5.41686 52.7062 3.68931 50.9787L1.81878 49.107C0.140109 47.4284 0.757642 44.0644 3.36467 42.0163L14.8316 33.0141C15.4304 32.5445 16.2955 32.3845 16.803 32.8922L19.9041 35.9933C20.3931 36.4822 20.2596 37.2986 19.8467 37.8791Z" stroke="#67676A" stroke-miterlimit="10" stroke-linecap="round" stroke-linejoin="round"/>
</svg>
