<svg width="60" height="60" viewBox="0 0 60 60" fill="none" xmlns="http://www.w3.org/2000/svg">
<path d="M47.0336 58.921H12.9665C10.6411 58.921 8.74878 57.029 8.74878 54.7033V5.29667C8.74878 2.97109 10.6411 1.07898 12.9665 1.07898H47.0336C49.3589 1.07898 51.2513 2.97097 51.2513 5.29667V54.7033C51.2512 57.029 49.3589 58.921 47.0336 58.921ZM12.9665 2.28414C11.3055 2.28414 9.95382 3.63566 9.95382 5.29679V54.7034C9.95382 56.3644 11.3053 57.7159 12.9665 57.7159H47.0336C48.6946 57.7159 50.0461 56.3644 50.0461 54.7034V5.29667C50.0461 3.63566 48.6946 2.28402 47.0336 2.28402L12.9665 2.28414Z" fill="#67676A"/>
<path d="M46.431 16.5574H13.5691C13.4899 16.5574 13.4116 16.5419 13.3384 16.5116C13.2653 16.4814 13.1989 16.437 13.1429 16.381C13.087 16.3251 13.0426 16.2587 13.0123 16.1855C12.982 16.1124 12.9665 16.0341 12.9665 15.955V5.89921C12.9665 5.56651 13.236 5.29663 13.5691 5.29663H46.4311C46.5103 5.2966 46.5886 5.31216 46.6618 5.34244C46.7349 5.37271 46.8013 5.41709 46.8573 5.47305C46.9132 5.52901 46.9576 5.59545 46.9879 5.66858C47.0182 5.7417 47.0337 5.82007 47.0337 5.89921V15.955C47.0337 16.0341 47.0181 16.1124 46.9878 16.1855C46.9575 16.2586 46.9131 16.3251 46.8571 16.381C46.8012 16.4369 46.7347 16.4813 46.6616 16.5116C46.5885 16.5419 46.5101 16.5574 46.431 16.5574ZM14.1715 15.3524H45.8285V6.50167H14.1715V15.3524ZM35.9417 25.9745H33.3421C32.3453 25.9745 31.5346 25.1637 31.5346 24.1669V21.3778C31.5346 20.381 32.3454 19.5703 33.3421 19.5703H35.9417C36.9385 19.5703 37.7492 20.3811 37.7492 21.3778V24.1669C37.7493 25.1637 36.9385 25.9745 35.9417 25.9745ZM33.3421 20.7753C33.1824 20.7755 33.0292 20.839 32.9163 20.952C32.8033 21.0649 32.7398 21.2181 32.7396 21.3778V24.1669C32.7398 24.3266 32.8033 24.4798 32.9163 24.5927C33.0292 24.7057 33.1824 24.7693 33.3421 24.7694H35.9417C36.1014 24.7693 36.2546 24.7058 36.3676 24.5928C36.4806 24.4798 36.5441 24.3266 36.5442 24.1669V21.3778C36.5441 21.2181 36.4805 21.0649 36.3675 20.952C36.2546 20.839 36.1014 20.7755 35.9417 20.7753H33.3421ZM45.2254 25.9745H42.6258C41.629 25.9745 40.8183 25.1637 40.8183 24.1669V21.3778C40.8183 20.381 41.6291 19.5703 42.6258 19.5703H45.2254C46.2222 19.5703 47.0329 20.3811 47.0329 21.3778V24.1669C47.033 25.1637 46.2222 25.9745 45.2254 25.9745ZM42.6259 20.7753C42.4662 20.7755 42.313 20.839 42.2001 20.952C42.0871 21.0649 42.0235 21.2181 42.0234 21.3778V24.1669C42.0235 24.3266 42.0871 24.4798 42.2 24.5927C42.313 24.7057 42.4662 24.7693 42.6259 24.7694H45.2255C45.3853 24.7693 45.5384 24.7058 45.6514 24.5928C45.7644 24.4798 45.8279 24.3266 45.8281 24.1669V21.3778C45.8279 21.2181 45.7643 21.0649 45.6514 20.952C45.5384 20.839 45.3852 20.7755 45.2255 20.7753H42.6259ZM17.3741 35.5509H14.7746C13.7778 35.5509 12.9669 34.7401 12.9669 33.7433V30.954C12.9669 29.9572 13.7778 29.1465 14.7746 29.1465H17.3741C18.3709 29.1465 19.1818 29.9573 19.1818 30.954V33.7433C19.1818 34.7401 18.3709 35.5509 17.3741 35.5509ZM14.7747 30.3516C14.6149 30.3517 14.4618 30.4152 14.3488 30.5282C14.2358 30.6411 14.1723 30.7943 14.1721 30.954V33.7433C14.1723 33.9031 14.2358 34.0562 14.3488 34.1692C14.4618 34.2822 14.6149 34.3457 14.7747 34.3459H17.3742C17.534 34.3457 17.6872 34.2822 17.8002 34.1692C17.9131 34.0563 17.9767 33.9031 17.9768 33.7433V30.954C17.9766 30.7943 17.9131 30.6411 17.8001 30.5282C17.6872 30.4152 17.534 30.3517 17.3742 30.3516H14.7747ZM26.658 35.5509H24.0584C23.0616 35.5509 22.2509 34.7401 22.2509 33.7433V30.954C22.2509 29.9572 23.0617 29.1465 24.0584 29.1465H26.658C27.6548 29.1465 28.4656 29.9573 28.4656 30.954V33.7433C28.4655 34.7401 27.6546 35.5509 26.658 35.5509ZM24.0584 30.3516C23.8987 30.3517 23.7455 30.4152 23.6326 30.5282C23.5196 30.6411 23.4561 30.7943 23.4559 30.954V33.7433C23.4561 33.9031 23.5196 34.0562 23.6326 34.1692C23.7455 34.2822 23.8986 34.3457 24.0584 34.3459H26.658C26.8177 34.3457 26.9709 34.2822 27.0839 34.1692C27.1968 34.0563 27.2604 33.9031 27.2605 33.7433V30.954C27.2604 30.7943 27.1968 30.6411 27.0838 30.5282C26.9709 30.4152 26.8177 30.3517 26.658 30.3516H24.0584ZM35.9417 35.5509H33.3421C32.3453 35.5509 31.5346 34.7401 31.5346 33.7433V30.954C31.5346 29.9572 32.3454 29.1465 33.3421 29.1465H35.9417C36.9385 29.1465 37.7492 29.9573 37.7492 30.954V33.7433C37.7493 34.7401 36.9385 35.5509 35.9417 35.5509ZM33.3421 30.3516C33.1824 30.3517 33.0292 30.4152 32.9163 30.5282C32.8033 30.6411 32.7398 30.7943 32.7396 30.954V33.7433C32.7398 33.9031 32.8033 34.0562 32.9163 34.1692C33.0292 34.2822 33.1824 34.3457 33.3421 34.3459H35.9417C36.1014 34.3457 36.2546 34.2822 36.3676 34.1692C36.4806 34.0563 36.5441 33.9031 36.5442 33.7433V30.954C36.5441 30.7943 36.4805 30.6411 36.3675 30.5282C36.2546 30.4152 36.1014 30.3517 35.9417 30.3516H33.3421ZM45.2254 35.5509H42.6258C41.629 35.5509 40.8183 34.7401 40.8183 33.7433V30.954C40.8183 29.9572 41.6291 29.1465 42.6258 29.1465H45.2254C46.2222 29.1465 47.0329 29.9573 47.0329 30.954V33.7433C47.033 34.7401 46.2222 35.5509 45.2254 35.5509ZM42.6259 30.3516C42.4662 30.3517 42.313 30.4152 42.2001 30.5282C42.0871 30.6411 42.0235 30.7943 42.0234 30.954V33.7433C42.0235 33.9031 42.0871 34.0562 42.2 34.1692C42.313 34.2822 42.4662 34.3457 42.6259 34.3459H45.2255C45.3853 34.3457 45.5384 34.2822 45.6514 34.1692C45.7644 34.0563 45.8279 33.9031 45.8281 33.7433V30.954C45.8279 30.7943 45.7643 30.6411 45.6514 30.5282C45.5384 30.4152 45.3852 30.3517 45.2255 30.3516H42.6259ZM17.3741 45.1271H14.7746C13.7778 45.1271 12.9669 44.3163 12.9669 43.3195V40.5306C12.9669 39.5338 13.7778 38.723 14.7746 38.723H17.3741C18.3709 38.723 19.1818 39.5338 19.1818 40.5306V43.3195C19.1818 44.3163 18.3709 45.1271 17.3741 45.1271ZM14.7747 39.928C14.6149 39.9282 14.4617 39.9917 14.3488 40.1047C14.2358 40.2176 14.1723 40.3708 14.1721 40.5306V43.3195C14.1723 43.4793 14.2358 43.6324 14.3488 43.7454C14.4618 43.8584 14.6149 43.9219 14.7747 43.9221H17.3742C17.534 43.9219 17.6872 43.8584 17.8002 43.7454C17.9131 43.6325 17.9767 43.4793 17.9768 43.3195V40.5306C17.9766 40.3708 17.9131 40.2177 17.8001 40.1047C17.6872 39.9917 17.534 39.9282 17.3742 39.928H14.7747ZM26.658 45.1271H24.0584C23.0616 45.1271 22.2509 44.3163 22.2509 43.3195V40.5306C22.2509 39.5338 23.0617 38.723 24.0584 38.723H26.658C27.6548 38.723 28.4656 39.5338 28.4656 40.5306V43.3195C28.4655 44.3163 27.6546 45.1271 26.658 45.1271ZM24.0584 39.928C23.8986 39.9282 23.7455 39.9917 23.6325 40.1047C23.5196 40.2176 23.4561 40.3708 23.4559 40.5306V43.3195C23.4561 43.4793 23.5196 43.6324 23.6326 43.7454C23.7455 43.8584 23.8986 43.9219 24.0584 43.9221H26.658C26.8177 43.9219 26.9709 43.8584 27.0839 43.7454C27.1968 43.6325 27.2604 43.4793 27.2605 43.3195V40.5306C27.2604 40.3708 27.1968 40.2177 27.0838 40.1047C26.9709 39.9917 26.8177 39.9282 26.658 39.928H24.0584ZM35.9417 45.1271H33.3421C32.3453 45.1271 31.5346 44.3163 31.5346 43.3195V40.5306C31.5346 39.5338 32.3454 38.723 33.3421 38.723H35.9417C36.9385 38.723 37.7492 39.5338 37.7492 40.5306V43.3195C37.7493 44.3163 36.9385 45.1271 35.9417 45.1271ZM33.3421 39.928C33.1823 39.9282 33.0292 39.9917 32.9162 40.1047C32.8033 40.2176 32.7398 40.3708 32.7396 40.5306V43.3195C32.7398 43.4793 32.8033 43.6324 32.9163 43.7454C33.0292 43.8584 33.1824 43.9219 33.3421 43.9221H35.9417C36.1014 43.9219 36.2546 43.8584 36.3676 43.7454C36.4806 43.6325 36.5441 43.4793 36.5442 43.3195V40.5306C36.5441 40.3708 36.4805 40.2177 36.3676 40.1047C36.2546 39.9917 36.1014 39.9282 35.9417 39.928H33.3421ZM17.3741 54.7033H14.7746C13.7778 54.7033 12.9669 53.8925 12.9669 52.8958V50.1068C12.9669 49.11 13.7778 48.2992 14.7746 48.2992H17.3741C18.3709 48.2992 19.1818 49.11 19.1818 50.1068V52.8958C19.1818 53.8925 18.3709 54.7033 17.3741 54.7033ZM14.7747 49.5042C14.6149 49.5044 14.4617 49.5679 14.3488 49.6809C14.2358 49.7938 14.1723 49.947 14.1721 50.1068V52.8958C14.1723 53.0556 14.2358 53.2087 14.3488 53.3217C14.4618 53.4346 14.6149 53.4982 14.7747 53.4983H17.3742C17.534 53.4982 17.6872 53.4346 17.8001 53.3217C17.9131 53.2087 17.9766 53.0556 17.9768 52.8958V50.1068C17.9766 49.947 17.9131 49.7939 17.8001 49.6809C17.6872 49.5679 17.534 49.5044 17.3742 49.5042H14.7747ZM26.658 54.7033H24.0584C23.0616 54.7033 22.2509 53.8925 22.2509 52.8958V50.1068C22.2509 49.11 23.0617 48.2992 24.0584 48.2992H26.658C27.6548 48.2992 28.4656 49.11 28.4656 50.1068V52.8958C28.4655 53.8925 27.6546 54.7033 26.658 54.7033ZM24.0584 49.5042C23.8986 49.5044 23.7455 49.5679 23.6325 49.6809C23.5196 49.7938 23.4561 49.947 23.4559 50.1068V52.8958C23.4561 53.0556 23.5196 53.2087 23.6326 53.3216C23.7455 53.4346 23.8987 53.4981 24.0584 53.4983H26.658C26.8177 53.4982 26.9709 53.4346 27.0838 53.3217C27.1968 53.2087 27.2604 53.0556 27.2605 52.8958V50.1068C27.2604 49.947 27.1968 49.7939 27.0838 49.6809C26.9709 49.5679 26.8177 49.5044 26.658 49.5042H24.0584ZM35.9417 54.7033H33.3421C32.3453 54.7033 31.5346 53.8925 31.5346 52.8958V50.1068C31.5346 49.11 32.3454 48.2992 33.3421 48.2992H35.9417C36.9385 48.2992 37.7492 49.11 37.7492 50.1068V52.8958C37.7493 53.8925 36.9385 54.7033 35.9417 54.7033ZM33.3421 49.5042C33.1823 49.5044 33.0292 49.5679 32.9162 49.6809C32.8033 49.7938 32.7398 49.947 32.7396 50.1068V52.8958C32.7398 53.0556 32.8034 53.2087 32.9163 53.3216C33.0292 53.4346 33.1824 53.4981 33.3421 53.4983H35.9417C36.1014 53.4982 36.2546 53.4346 36.3675 53.3217C36.4805 53.2087 36.5441 53.0556 36.5442 52.8958V50.1068C36.5441 49.947 36.4805 49.7939 36.3676 49.6809C36.2546 49.5679 36.1014 49.5044 35.9417 49.5042H33.3421ZM45.2254 54.7033H42.6229C41.6261 54.7033 40.8154 53.8925 40.8154 52.8958V40.532C40.8154 39.5352 41.6262 38.7245 42.6229 38.7245H45.2254C46.2222 38.7245 47.0329 39.5353 47.0329 40.532V52.8957C47.033 53.8925 46.2222 54.7033 45.2254 54.7033ZM42.6229 39.9295C42.4631 39.9297 42.31 39.9932 42.197 40.1062C42.0841 40.2192 42.0205 40.3723 42.0204 40.5321V52.8958C42.0206 53.0556 42.0841 53.2087 42.1971 53.3216C42.31 53.4346 42.4632 53.4981 42.6229 53.4983H45.2254C45.3851 53.4982 45.5383 53.4346 45.6513 53.3217C45.7642 53.2087 45.8278 53.0556 45.828 52.8958V40.532C45.8278 40.3722 45.7642 40.2191 45.6513 40.1061C45.5383 39.9931 45.3851 39.9296 45.2254 39.9294H42.6229V39.9295ZM25.3581 23.3749H16.0744C15.9953 23.3749 15.9169 23.3593 15.8438 23.3291C15.7707 23.2988 15.7043 23.2544 15.6483 23.1984C15.5924 23.1425 15.548 23.0761 15.5177 23.0029C15.4875 22.9298 15.4719 22.8515 15.4719 22.7723C15.4719 22.6932 15.4875 22.6149 15.5178 22.5418C15.548 22.4687 15.5924 22.4022 15.6484 22.3463C15.7043 22.2903 15.7707 22.246 15.8438 22.2157C15.9169 22.1854 15.9953 22.1699 16.0744 22.1699H25.3581C25.4372 22.1698 25.5156 22.1854 25.5887 22.2157C25.6618 22.2459 25.7283 22.2903 25.7842 22.3463C25.8402 22.4022 25.8846 22.4686 25.9149 22.5417C25.9451 22.6148 25.9607 22.6932 25.9607 22.7723C25.9607 22.8515 25.9452 22.9298 25.9149 23.003C25.8846 23.0761 25.8402 23.1425 25.7843 23.1985C25.7283 23.2544 25.6619 23.2988 25.5887 23.3291C25.5156 23.3594 25.4373 23.3749 25.3581 23.3749Z" fill="#67676A"/>
</svg>
