<svg width="60" height="60" viewBox="0 0 60 60" fill="none" xmlns="http://www.w3.org/2000/svg">
<path d="M12.3707 11.9812C10.6519 6.97234 10.5546 3.21368 10.5512 3.03931C10.5279 1.90201 11.4311 0.961344 12.5684 0.938141C12.5827 0.937789 12.597 0.937675 12.6111 0.937675C13.7292 0.937675 14.6466 1.83228 14.6694 2.95529C14.6704 2.99197 14.7971 7.14121 16.8916 12.3163C19.6669 19.1735 24.4153 24.5183 31.0052 28.2024C35.118 30.5016 38.6487 33.4396 41.4994 36.9349C43.7809 39.7321 45.63 42.8861 46.9957 46.3094C49.3258 52.1499 49.4452 56.7673 49.449 56.961C49.4724 58.0983 48.5692 59.0389 47.4319 59.0621C47.4176 59.0624 47.4034 59.0625 47.3891 59.0625C46.2724 59.0625 45.3559 58.17 45.331 57.049C45.3289 56.9754 45.1949 52.8386 43.1086 47.6839C40.3335 40.8268 35.5851 35.482 28.9952 31.7979C24.8824 29.4986 21.3515 26.5605 18.5008 23.0653C16.5703 20.6982 13.6511 14.8061 12.3707 11.9812Z" stroke="#67676A" stroke-miterlimit="10" stroke-linecap="round" stroke-linejoin="round"/>
<path d="M35.2852 6.52045H44.8521" stroke="#67676A" stroke-miterlimit="10" stroke-linecap="round" stroke-linejoin="round"/>
<path d="M15.1484 6.52045H29.8251" stroke="#67676A" stroke-miterlimit="10" stroke-linecap="round" stroke-linejoin="round"/>
<path d="M35.2849 6.52045C35.2849 5.01249 34.0625 3.79011 32.5546 3.79011C31.0466 3.79011 29.8242 5.01249 29.8242 6.52045C29.8242 8.02841 31.0466 9.25079 32.5546 9.25079C34.0625 9.25079 35.2849 8.02841 35.2849 6.52045Z" stroke="#67676A" stroke-miterlimit="10" stroke-linecap="round" stroke-linejoin="round"/>
<path d="M27.1738 14.9811H41.9998" stroke="#67676A" stroke-miterlimit="10" stroke-linecap="round" stroke-linejoin="round"/>
<path d="M18.5 14.9811H21.7134" stroke="#67676A" stroke-miterlimit="10" stroke-linecap="round" stroke-linejoin="round"/>
<path d="M27.1736 14.9811C27.1736 13.4731 25.9512 12.2507 24.4432 12.2507C22.9354 12.2507 21.7129 13.4731 21.7129 14.9811C21.7129 16.489 22.9354 17.7114 24.4432 17.7114C25.9512 17.7114 27.1736 16.489 27.1736 14.9811Z" stroke="#67676A" stroke-miterlimit="10" stroke-linecap="round" stroke-linejoin="round"/>
<path d="M32.8256 45.0183H18.5" stroke="#67676A" stroke-miterlimit="10" stroke-linecap="round" stroke-linejoin="round"/>
<path d="M42.0005 45.0183H38.2871" stroke="#67676A" stroke-miterlimit="10" stroke-linecap="round" stroke-linejoin="round"/>
<path d="M32.8262 45.0183C32.8262 43.5103 34.0487 42.288 35.5565 42.288C37.0645 42.288 38.287 43.5103 38.287 45.0183C38.287 46.5263 37.0645 47.7487 35.5565 47.7487C34.0487 47.7487 32.8262 46.5263 32.8262 45.0183Z" stroke="#67676A" stroke-miterlimit="10" stroke-linecap="round" stroke-linejoin="round"/>
<path d="M23.5619 53.4789H15.1484" stroke="#67676A" stroke-miterlimit="10" stroke-linecap="round" stroke-linejoin="round"/>
<path d="M44.8516 53.4789H29.0215" stroke="#67676A" stroke-miterlimit="10" stroke-linecap="round" stroke-linejoin="round"/>
<path d="M23.5625 53.4789C23.5625 51.9709 24.785 50.7485 26.2928 50.7485C27.8008 50.7485 29.0232 51.9709 29.0232 53.4789C29.0232 54.9868 27.8008 56.2092 26.2928 56.2092C24.785 56.2092 23.5625 54.9868 23.5625 53.4789Z" stroke="#67676A" stroke-miterlimit="10" stroke-linecap="round" stroke-linejoin="round"/>
<path d="M30.0003 32.3829C23.9313 36.0391 19.5234 41.1809 16.8915 47.6838C14.7971 52.8591 14.6704 57.0083 14.6693 57.0496C14.6413 58.1689 13.7251 59.0601 12.6111 59.0601C12.5952 59.0601 12.5795 59.0599 12.5637 59.0595C11.4283 59.0338 10.5279 58.0963 10.5512 56.961C10.5546 56.7866 11.9494 49.7595 13.6685 44.7502C14.9489 41.9249 16.5701 39.3021 18.5008 36.9348C20.6557 34.293 23.1996 31.9701 26.089 30.0001" stroke="#67676A" stroke-miterlimit="10" stroke-linecap="round" stroke-linejoin="round"/>
<path d="M30 27.6172C36.0688 23.9611 40.4766 18.8192 43.1084 12.3163C45.2028 7.14108 45.3296 2.99183 45.3307 2.95058C45.3587 1.83121 46.275 0.940002 47.3889 0.940002C47.4048 0.940002 47.4205 0.940235 47.4364 0.940586C48.5717 0.966367 49.4719 1.90387 49.4488 3.03929C49.4449 3.23289 49.3254 7.85029 46.9955 13.6908C45.6298 17.1141 43.7806 20.268 41.4992 23.0653C41.3002 23.3092 38.6694 26.0965 38.4638 26.3349C37.0615 27.6649 35.5413 28.8887 33.9111 30.0001" stroke="#67676A" stroke-miterlimit="10" stroke-linecap="round" stroke-linejoin="round"/>
</svg>
