<svg width="60" height="60" viewBox="0 0 60 60" fill="none" xmlns="http://www.w3.org/2000/svg">
<g clip-path="url(#clip0_711_8920)">
<path d="M15.9375 49.336C15.9375 54.19 12.0024 58.2422 7.14842 58.2422H0C2.91245 58.2422 5.39061 55.8812 5.39061 52.9688V49.336C5.39061 46.4235 7.75158 44.0625 10.664 44.0625C13.5765 44.0625 15.9375 46.4235 15.9375 49.336Z" stroke="#67676A" stroke-miterlimit="10"/>
<path d="M45.9451 22.5423C44.5721 23.9153 42.3462 23.9153 40.9732 22.5423C39.6002 21.1693 39.6002 18.9434 40.9732 17.5705C42.3462 16.1976 44.5721 16.1976 45.9451 17.5705C47.3181 18.9434 47.3181 21.1693 45.9451 22.5423Z" stroke="#67676A" stroke-miterlimit="10"/>
<path d="M33.2718 15.5068C33.7743 17.3823 32.6612 19.31 30.7858 19.8125C28.9103 20.3151 26.9826 19.2021 26.4801 17.3266C25.9776 15.4512 27.0905 13.5234 28.966 13.021C30.8414 12.5185 32.7692 13.6314 33.2718 15.5068Z" stroke="#67676A" stroke-miterlimit="10"/>
<path d="M40.551 42.6735C41.0535 44.549 39.9405 46.4767 38.0651 46.9792C36.1896 47.4818 34.2619 46.3688 33.7593 44.4933C33.2568 42.6179 34.3698 40.6901 36.2453 40.1876C38.1207 39.6851 40.0485 40.7981 40.551 42.6735Z" stroke="#67676A" stroke-miterlimit="10"/>
<path d="M20.8421 22.9646C22.7175 23.4671 23.8305 25.395 23.328 27.2703C22.8255 29.1458 20.8977 30.2588 19.0223 29.7563C17.1468 29.2537 16.0338 27.326 16.5364 25.4505C17.0389 23.575 18.9666 22.4621 20.8421 22.9646Z" stroke="#67676A" stroke-miterlimit="10"/>
<path d="M48.0088 30.2438C49.8842 30.7463 50.9971 32.6741 50.4946 34.5495C49.9922 36.425 48.0644 37.538 46.189 37.0355C44.3135 36.5329 43.2006 34.6052 43.7031 32.7297C44.2056 30.8543 46.1333 29.7413 48.0088 30.2438Z" stroke="#67676A" stroke-miterlimit="10"/>
<path d="M14.0763 36.7536C27.2248 38.2477 26.9077 46.8052 26.2394 49.7966C25.8026 51.7507 26.9068 53.7692 28.8732 54.1469C44.4837 57.1453 58.238 44.8915 58.242 30.0001C58.2437 23.6162 55.7068 17.2333 50.6295 12.3159C36.8186 -1.06024 20.7564 7.34841 13.6606 15.2842" stroke="#67676A" stroke-miterlimit="10"/>
<path d="M13.6392 44.9813L13.7056 44.0625C14.0054 39.9225 14.1797 35.1289 14.1797 30.0001C14.1797 14.4671 12.6058 1.75795 10.664 1.75795C8.72236 1.75795 7.14842 14.4671 7.14842 30.0001C7.14842 35.1289 7.32268 39.9225 7.62244 44.0625L7.68901 44.9813" stroke="#67676A" stroke-miterlimit="10"/>
<path d="M7.17595 33.5157H14.152" stroke="#67676A" stroke-miterlimit="10"/>
</g>
<defs>
<clipPath id="clip0_711_8920">
<rect width="60" height="60" fill="white"/>
</clipPath>
</defs>
</svg>
