<svg width="26" height="22" viewBox="0 0 26 22" fill="none" xmlns="http://www.w3.org/2000/svg">
<mask id="mask0_702_27466" style="mask-type:alpha" maskUnits="userSpaceOnUse" x="0" y="0" width="26" height="22">
<rect y="0.846252" width="26" height="21" fill="#D9D9D9"/>
</mask>
<g mask="url(#mask0_702_27466)">
</g>
<path d="M11.4166 12.1379C11.7566 12.5924 12.1904 12.9685 12.6885 13.2407C13.1866 13.5128 13.7374 13.6746 14.3036 13.7152C14.8697 13.7557 15.438 13.674 15.9698 13.4757C16.5016 13.2773 16.9845 12.9668 17.3858 12.5654L19.7608 10.1904C20.4818 9.44386 20.8808 8.44398 20.8718 7.40612C20.8628 6.36825 20.4465 5.37545 19.7126 4.64155C18.9787 3.90764 17.9859 3.49135 16.948 3.48233C15.9101 3.47331 14.9103 3.87229 14.1637 4.59333L12.802 5.94708" stroke="white" stroke-linecap="round" stroke-linejoin="round"/>
<path d="M14.5834 10.5546C14.2434 10.1001 13.8096 9.724 13.3115 9.45186C12.8134 9.17972 12.2626 9.01788 11.6964 8.97734C11.1303 8.93679 10.562 9.01848 10.0302 9.21686C9.49841 9.41524 9.01549 9.72567 8.6142 10.1271L6.2392 12.5021C5.51816 13.2487 5.11918 14.2485 5.1282 15.2864C5.13722 16.3243 5.55351 17.3171 6.28742 18.051C7.02133 18.7849 8.01413 19.2012 9.05199 19.2102C10.0899 19.2192 11.0897 18.8202 11.8363 18.0992L13.19 16.7454" stroke="white" stroke-linecap="round" stroke-linejoin="round"/>
</svg>
