<svg width="27" height="21" viewBox="0 0 27 21" fill="none" xmlns="http://www.w3.org/2000/svg">
<mask id="mask0_702_27463" style="mask-type:alpha" maskUnits="userSpaceOnUse" x="0" y="0" width="27" height="21">
<rect x="0.74939" width="26" height="21" fill="#D9D9D9"/>
</mask>
<g mask="url(#mask0_702_27463)">
<path d="M3.49045 9.77614L3.49054 9.77591L3.47719 9.77146C3.44992 9.76237 3.43447 9.74841 3.42326 9.73112C3.41011 9.71085 3.4 9.68049 3.4 9.64437C3.4 9.60825 3.41011 9.57789 3.42326 9.55762C3.43447 9.54033 3.44992 9.52637 3.47719 9.51728L3.48618 9.51428L3.49501 9.51086L22.4329 2.18511L22.4329 2.18513L22.4371 2.18344C22.4567 2.1756 22.4709 2.17576 22.484 2.17875C22.4995 2.18232 22.5206 2.19208 22.5424 2.21232C22.5902 2.25664 22.6057 2.31481 22.5979 2.356C22.5979 2.35635 22.5978 2.35671 22.5977 2.35706L19.1694 18.7195L19.1694 18.7195L19.1687 18.7231C19.16 18.7664 19.1327 18.7978 19.0868 18.814C19.0381 18.8312 18.9849 18.8242 18.9436 18.7933L18.9436 18.7933L18.9392 18.79L14.3431 15.4403C13.9194 15.1241 13.3112 15.0729 12.9034 15.4637L10.3532 17.5502C10.289 17.596 10.2175 17.6042 10.1738 17.5939C10.1539 17.5892 10.146 17.5824 10.1442 17.5806L10.1441 17.5806C10.1436 17.5801 10.1376 17.5749 10.1335 17.5541L10.1294 17.5337L10.1232 17.5138L8.33077 11.7468L8.2725 11.5593L8.08855 11.4907L3.49045 9.77614ZM10.4302 16.0534C10.6775 16.0309 10.9815 15.8393 10.9978 15.4808L11.2292 13.6296L11.2323 13.6049V13.58C11.2323 13.357 11.3663 13.1452 11.5783 12.9321L18.9482 6.02767C19.0601 5.95047 19.1403 5.83236 19.1623 5.68917C19.1857 5.53703 19.1368 5.40351 19.0754 5.31148C18.959 5.13687 18.6778 4.9627 18.3689 5.11715L18.3535 5.12481L18.3389 5.13375L9.32435 10.6513C8.73634 10.9095 8.51994 11.6067 8.82285 12.1744L9.7441 15.5523C9.7851 15.7119 9.87481 15.8507 10.0092 15.9437C10.1413 16.0352 10.2927 16.0658 10.4302 16.0534Z" stroke="white" stroke-width="0.8"/>
</g>
</svg>
