<svg width="27" height="22" viewBox="0 0 27 22" fill="none" xmlns="http://www.w3.org/2000/svg">
<mask id="mask0_729_2537" style="mask-type:alpha" maskUnits="userSpaceOnUse" x="0" y="0" width="27" height="22">
<rect x="0.329102" y="0.297852" width="26" height="21" fill="#D9D9D9"/>
</mask>
<g mask="url(#mask0_729_2537)">
<path fill-rule="evenodd" clip-rule="evenodd" d="M21.7005 18.1552L25.1505 18.1079C25.1505 18.1079 26.9557 17.9947 26.098 16.5787C26.0924 16.5697 26.0847 16.5556 26.0742 16.5365C25.9499 16.3109 25.4366 15.3788 23.5322 13.6103C22.6211 12.7691 22.1451 12.3382 22.094 11.8616C22.0237 11.2067 22.7558 10.4657 24.2638 8.45506C25.8506 6.34982 26.4769 5.03669 26.2874 4.50771C26.098 3.9788 24.9322 4.11826 24.9322 4.11826L21.048 4.14459C20.8756 4.12388 20.7008 4.15404 20.5453 4.23146C20.3983 4.34037 20.2807 4.48412 20.2032 4.6499C19.8008 5.69287 19.3214 6.70435 18.769 7.67623C17.0374 10.6131 16.348 10.7683 16.0638 10.5868C15.5129 10.221 15.5395 9.26107 15.5628 8.42387C15.5673 8.26127 15.5717 8.1033 15.5717 7.95521C15.5717 7.30065 15.5945 6.73398 15.6141 6.24564C15.68 4.60971 15.7104 3.85287 14.7295 3.61576C14.1375 3.4706 13.5281 3.40857 12.919 3.43154C11.6876 3.43154 10.6226 3.43154 9.93569 3.66134C9.87287 3.68235 9.81322 3.7053 9.75688 3.73033C9.73683 3.73924 9.71719 3.74841 9.69798 3.75787C9.47411 3.86713 9.27588 4.04455 9.16172 4.19684C9.15756 4.20239 9.15352 4.2079 9.14959 4.21337C9.04827 4.35445 9.02287 4.47042 9.12166 4.4842C9.42573 4.51556 9.71352 4.6264 9.95767 4.80239C9.95869 4.80092 9.96015 4.7989 9.96209 4.79635C9.96281 4.7954 9.96356 4.79443 9.96435 4.79344C9.9617 4.79761 9.95914 4.80039 9.95767 4.80239C10.0685 4.88235 10.1708 4.97605 10.2611 5.08154C10.6453 5.62099 10.6453 6.83943 10.6453 6.83943C10.6453 6.83943 10.8795 10.1894 10.119 10.6052C9.59533 10.8894 8.87689 10.3079 7.33478 7.64209C6.81033 6.70818 6.34705 5.74123 5.94791 4.74732C5.83556 4.47357 5.66041 4.30357 5.42947 4.18943C5.1608 4.07177 5.01494 4.06037 4.79791 4.06576C4.79791 4.06576 2.20353 4.04904 1.34002 4.08943C1.1397 4.09873 0.742985 4.12334 0.582125 4.35256C0.396031 4.61771 0.566343 5.01044 0.566343 5.01044C0.566343 5.01044 3.45845 11.7815 6.74267 15.171C9.72955 18.2921 13.1506 18.0894 13.1506 18.0894H14.6795C14.94 18.0594 15.1856 17.9522 15.3848 17.7815C15.5263 17.5836 15.601 17.3458 15.5979 17.1026C15.5979 17.1026 15.5821 15.0288 16.5295 14.7341C17.1013 14.5562 17.7709 15.3247 18.4961 16.1569C18.9724 16.7034 19.4725 17.2773 19.9847 17.6289C20.9584 18.3026 21.7005 18.1552 21.7005 18.1552ZM15.5979 17.1026L14.8082 17.1086C14.9515 17.1075 15.1925 17.1056 15.5979 17.1026ZM14.5979 17.0894L14.598 17.0716C14.5981 17.051 14.5985 17.0228 14.5994 16.9881C14.6011 16.9188 14.6048 16.8225 14.6125 16.7071C14.6277 16.4794 14.6597 16.163 14.729 15.8269C14.7965 15.4997 14.9095 15.1019 15.1112 14.7409C15.3118 14.3817 15.6594 13.9575 16.2324 13.7792C16.9202 13.5653 17.5126 13.873 17.863 14.1198C18.2311 14.3789 18.5772 14.7424 18.8716 15.07C19.018 15.2329 19.1458 15.3799 19.2696 15.5222C19.4317 15.7086 19.5868 15.887 19.7674 16.0823C20.0637 16.403 20.3214 16.6471 20.5506 16.8044L20.5537 16.8065C20.9097 17.0529 21.1948 17.1309 21.3601 17.1564C21.445 17.1694 21.5039 17.1695 21.5306 17.1685C21.533 17.1684 21.5351 17.1683 21.5369 17.1682L21.5954 17.1566L25.0978 17.1085C25.0999 17.1083 25.1021 17.108 25.1044 17.1077C25.1296 17.1046 25.1683 17.0989 25.2136 17.0894C25.221 17.0879 25.2283 17.0863 25.2354 17.0846C25.2242 17.0656 25.2125 17.0446 25.1994 17.021C25.1342 16.9041 25.0326 16.7217 24.7698 16.3793C24.4354 15.9435 23.8515 15.2716 22.8526 14.3439C22.821 14.3147 22.7896 14.2857 22.7583 14.2569C22.2871 13.8223 21.8585 13.4269 21.5766 13.0625C21.2301 12.6146 20.9869 12.0644 21.1314 11.3798C21.2458 10.8376 21.5925 10.3269 21.94 9.85345C22.1155 9.61428 22.3459 9.31562 22.6091 8.97434C22.869 8.63739 23.1609 8.25889 23.4638 7.85506L23.4652 7.85314C24.2424 6.82204 24.7558 6.02159 25.0486 5.44039C25.1137 5.31115 25.1648 5.19879 25.2043 5.10233C25.1891 5.1027 25.1744 5.10321 25.1601 5.10382C25.1203 5.10552 25.0886 5.10788 25.0686 5.1096L25.0487 5.11146L25.047 5.11164L24.9952 5.11785L21.0838 5.14437C20.6745 6.18609 20.1915 7.19726 19.6384 8.17039L19.6345 8.17728L19.6304 8.18412C18.753 9.67226 18.0853 10.5541 17.5439 11.0431C17.2727 11.288 16.9667 11.4961 16.6192 11.5882C16.2257 11.6925 15.8398 11.6304 15.5254 11.4295L15.518 11.4248L15.5106 11.4199C14.7631 10.9236 14.6178 10.0521 14.5745 9.5317C14.5422 9.14509 14.5549 8.67452 14.5645 8.31488C14.5683 8.1741 14.5717 8.05031 14.5717 7.95521C14.5717 7.27967 14.5952 6.69426 14.6149 6.20684C14.6166 6.16361 14.6183 6.12114 14.62 6.07946C14.6411 5.54912 14.6516 5.18473 14.631 4.90731C14.6184 4.73806 14.5967 4.65212 14.5845 4.61496C14.5665 4.60779 14.5378 4.59821 14.4946 4.58776L14.4914 4.587C13.9895 4.46394 13.473 4.41136 12.9567 4.43083L12.9378 4.43154H12.919C12.2159 4.43154 11.6169 4.43211 11.1122 4.46958C11.0932 4.47099 11.0745 4.47245 11.0561 4.47395L11.0756 4.50141C11.4252 4.99218 11.5403 5.65679 11.5891 6.03475C11.6173 6.25363 11.6312 6.45019 11.6381 6.59173C11.6416 6.66307 11.6434 6.72185 11.6443 6.76419C11.6447 6.77885 11.6449 6.79158 11.645 6.80224L11.6458 6.81518C11.6475 6.84256 11.6499 6.8817 11.6525 6.93103C11.6577 7.02962 11.6642 7.16942 11.6695 7.33795C11.6801 7.67313 11.6861 8.13061 11.6665 8.60742C11.6473 9.07526 11.6021 9.60351 11.497 10.0638C11.4447 10.2932 11.3692 10.5441 11.2525 10.775C11.1417 10.9943 10.9447 11.2935 10.5987 11.4827L10.596 11.4841C10.2185 11.689 9.78548 11.7293 9.35761 11.5836C8.98171 11.4557 8.6651 11.2036 8.39749 10.9328C7.86225 10.3911 7.24333 9.48106 6.46918 8.14282L6.46279 8.13177C5.91797 7.16161 5.43667 6.15711 5.02182 5.12467C5.01557 5.10975 5.01093 5.10176 5.00901 5.09868C5.00756 5.09768 5.00518 5.09612 5.00167 5.09407C4.97419 5.08268 4.95549 5.07607 4.94351 5.07224C4.92956 5.06778 4.92382 5.06681 4.92318 5.0667C4.92256 5.06659 4.9183 5.06582 4.90599 5.06528C4.89085 5.0646 4.86708 5.06435 4.82274 5.06545L4.8071 5.06584L4.79146 5.06574L4.67953 5.0651L4.37539 5.06377C4.11976 5.06284 3.77015 5.06201 3.39393 5.06245C2.78924 5.06314 2.1362 5.06712 1.68998 5.07815C1.76564 5.24562 1.86124 5.4543 1.97498 5.69688C2.29176 6.37254 2.74791 7.30843 3.30445 8.34754C4.42964 10.4484 5.92032 12.8852 7.46084 14.4751L7.46516 14.4796C8.81302 15.888 10.2466 16.5366 11.333 16.8367C11.8781 16.9873 12.336 17.0501 12.6501 17.0756C12.8069 17.0883 12.9271 17.0916 13.0033 17.0921C13.0414 17.0923 13.0684 17.0918 13.0834 17.0913L13.0961 17.0909L13.121 17.0894H14.5979ZM1.18354 5.11005C1.18246 5.11041 1.1819 5.11057 1.18189 5.11056ZM25.3203 4.71774C25.3204 4.71772 25.3204 4.71892 25.3202 4.72144Z" fill="white"/>
</g>
</svg>
