<svg width="26" height="22" viewBox="0 0 26 22" fill="none" xmlns="http://www.w3.org/2000/svg">
<mask id="mask0_702_27458" style="mask-type:alpha" maskUnits="userSpaceOnUse" x="0" y="0" width="26" height="22">
<rect y="0.10376" width="26" height="21" fill="#D9D9D9"/>
</mask>
<g mask="url(#mask0_702_27458)">
<path d="M15.1028 16.9084C15.1028 16.9084 15.087 14.8347 16.0344 14.54C16.6062 14.3621 17.2758 15.1305 18.001 15.9627C18.4772 16.5092 18.9774 17.0832 19.4896 17.4347C20.4633 18.1084 21.2054 17.9611 21.2054 17.9611L15.1028 16.9084ZM15.1028 16.9084C15.1058 17.1516 15.0311 17.3895 14.8897 17.5874M15.1028 16.9084L12.6554 17.8953M14.1844 17.8953H12.6554M14.1844 17.8953C14.4449 17.8652 14.6905 17.758 14.8897 17.5874M14.1844 17.8953V17.3953H14.1522M14.1844 17.8953L14.1271 17.3986C14.1355 17.3976 14.1439 17.3965 14.1522 17.3953M12.6554 17.8953C12.6259 17.3962 12.6261 17.3961 12.6263 17.3961M12.6554 17.8953L12.6259 17.3962L12.6263 17.3961M12.6554 17.8953C12.6554 17.8953 9.23443 18.0979 6.24755 14.9768L12.6554 17.8953ZM14.8897 17.5874L14.5643 17.2077C14.5485 17.2213 14.5321 17.2343 14.5153 17.2465M14.8897 17.5874L14.4829 17.2966C14.4945 17.2804 14.5053 17.2637 14.5153 17.2465M14.5153 17.2465C14.5739 17.1462 14.6043 17.0315 14.6028 16.9147L14.6028 16.9122L15.1022 16.9084C14.6028 16.9122 14.6028 16.9121 14.6028 16.912L14.6028 16.9117L14.6028 16.9109L14.6028 16.9089L14.6028 16.9026L14.6029 16.8812C14.603 16.8633 14.6033 16.838 14.6041 16.8063C14.6057 16.7431 14.609 16.6538 14.6162 16.5464C14.6305 16.333 14.6604 16.0406 14.7236 15.7337C14.786 15.4313 14.8859 15.089 15.0526 14.7905C15.2188 14.493 15.4809 14.1885 15.8858 14.0625C16.3481 13.9187 16.7711 14.1169 17.0801 14.3344C17.3978 14.5581 17.7114 14.8838 18.0046 15.21C18.1381 15.3587 18.2638 15.503 18.3882 15.6459C18.5572 15.84 18.7239 16.0315 18.905 16.2275C19.2085 16.5558 19.4964 16.833 19.7725 17.0225L19.7741 17.0236C20.1955 17.3152 20.5525 17.4199 20.7888 17.4564C20.9081 17.4748 20.9991 17.4761 21.0548 17.4739C21.0827 17.4728 21.1017 17.4709 21.1109 17.4698C21.1126 17.4696 21.114 17.4694 21.115 17.4692L21.1528 17.4617L21.1985 17.4611L24.632 17.414C24.6402 17.4132 24.6533 17.4119 24.6703 17.4098C24.7067 17.4053 24.7596 17.3975 24.8213 17.3846C24.951 17.3573 25.0896 17.3134 25.1946 17.2508C25.2971 17.1896 25.3222 17.1397 25.3296 17.108C25.3379 17.072 25.3519 16.9354 25.1752 16.6436L25.6029 16.3846L25.1766 16.646C25.167 16.6303 25.1558 16.61 25.1416 16.5846C25.079 16.4717 24.9595 16.2562 24.6713 15.8807C24.317 15.4189 23.7132 14.7264 22.6974 13.783C22.6712 13.7588 22.6452 13.7348 22.6195 13.7111C22.1307 13.26 21.732 12.8922 21.4769 12.5624C21.1855 12.1857 21.0213 11.7824 21.1255 11.2889C21.2146 10.8666 21.4944 10.4369 21.848 9.95514C22.0251 9.71384 22.2476 9.42551 22.5046 9.09244C22.7617 8.75925 23.0533 8.3813 23.3686 7.9609L23.3694 7.95995C24.1547 6.91809 24.688 6.09056 25 5.47119C25.1563 5.16094 25.2491 4.91834 25.2938 4.73762C25.3267 4.60421 25.3267 4.53112 25.3241 4.50016C25.3174 4.4962 25.308 4.4912 25.2951 4.48537C25.229 4.45558 25.1259 4.4311 24.9943 4.41805C24.8677 4.4055 24.7412 4.40594 24.6436 4.41012C24.5956 4.41218 24.5566 4.41505 24.5305 4.4173C24.5175 4.41842 24.5078 4.41938 24.5019 4.41999L24.4965 4.42057L24.4371 3.9241C24.4965 4.42057 24.4964 4.42058 24.4963 4.42059L24.4961 4.42061L24.4961 4.42061L24.4958 4.42065L24.4955 4.42068L24.4686 4.4239L24.4405 4.42409L20.5563 4.45042L20.5246 4.45064L20.4933 4.44687C20.4315 4.43946 20.3692 4.44692 20.3114 4.46831M14.5153 17.2465C14.4084 17.3248 14.2837 17.3759 14.1522 17.3953M14.1522 17.3953H12.6554H12.6406L12.6272 17.3961L12.6271 17.3961L12.6271 17.3961L12.6267 17.3961L12.6263 17.3961M12.6263 17.3961L12.6236 17.3962L12.6023 17.397C12.5819 17.3976 12.5493 17.3981 12.5054 17.3979C12.4176 17.3974 12.2849 17.3936 12.1146 17.3798C11.7739 17.3522 11.2844 17.2847 10.7047 17.1245C9.54724 16.8047 8.02944 16.1156 6.60879 14.6311L6.6088 14.6311L6.60664 14.6289C5.01533 12.9866 3.49794 10.4981 2.36857 8.38945C1.80691 7.34078 1.34676 6.39669 1.02715 5.71498C0.867399 5.37426 0.742918 5.09943 0.658581 4.91026C0.616417 4.81568 0.584298 4.74255 0.562835 4.69332L0.538713 4.63774L0.532791 4.62398L0.531922 4.62196M0.531922 4.62196C0.531795 4.62163 0.531635 4.62121 0.531443 4.62071C0.530073 4.61712 0.527292 4.60956 0.523899 4.59891C0.516807 4.57667 0.508767 4.54637 0.50401 4.51402C0.499773 4.48522 0.499481 4.46552 0.500189 4.45306M0.531922 4.62196L0.53139 4.62071L0.531083 4.62L0.531039 4.61989L0.531037 4.61989L0.531499 4.62098L0.532201 4.62267C0.532347 4.62302 0.532241 4.62277 0.531922 4.62196ZM0.500189 4.45306C0.515931 4.44607 0.539389 4.43767 0.572064 4.42953C0.663735 4.40668 0.769036 4.39934 0.868079 4.39474L0.86826 4.39473C1.28633 4.37517 2.13851 4.36917 2.89824 4.36829C3.27548 4.36786 3.62592 4.36869 3.8821 4.36962L4.18702 4.37096L4.27051 4.37142L4.29224 4.37155L4.29775 4.37158L4.29913 4.37159L4.29946 4.37159L4.29955 4.37159L4.30279 3.8716M0.500189 4.45306C0.500884 4.44082 0.502545 4.43556 0.502385 4.43551C0.502249 4.43546 0.50079 4.4392 0.496283 4.44562C0.496279 4.44563 0.496276 4.44563 0.496272 4.44564C0.487313 4.4584 0.480073 4.46369 0.480052 4.46369C0.480042 4.46368 0.481925 4.46229 0.486443 4.4598C0.490124 4.45777 0.494685 4.4555 0.500189 4.45306ZM4.30279 3.8716L4.29957 4.37159L4.30739 4.37164L4.3152 4.37145C4.41334 4.36901 4.46521 4.37151 4.51361 4.37992C4.55912 4.38783 4.62059 4.40446 4.72251 4.44839M4.30279 3.8716C4.51982 3.86621 4.66568 3.87762 4.93435 3.99528M4.30279 3.8716C4.30279 3.8716 1.70841 3.85489 0.844898 3.89528C0.644586 3.90457 0.247867 3.92918 0.087008 4.1584L4.93435 3.99528M4.72251 4.44839C4.84544 4.51111 4.92797 4.59214 4.98959 4.74145M4.72251 4.44839C4.7193 4.44675 4.71607 4.44513 4.71281 4.44352L4.93435 3.99528M4.72251 4.44839C4.72621 4.44998 4.72997 4.45162 4.73378 4.45328L4.93435 3.99528M4.98959 4.74145C5.39662 5.75476 5.869 6.7406 6.4037 7.69276L6.40367 7.69278L6.40686 7.6983C7.17946 9.03386 7.77149 9.89481 8.25803 10.3872C8.50129 10.6334 8.75314 10.8241 9.02364 10.9162C9.32012 11.0171 9.60816 10.9885 9.86239 10.8505L9.86372 10.8498C10.0843 10.7292 10.2225 10.5307 10.3111 10.3553C10.4026 10.1742 10.467 9.96629 10.5145 9.75846C10.6095 9.34204 10.6531 8.84905 10.6718 8.39276C10.6907 7.93198 10.685 7.48737 10.6747 7.1595C10.6695 6.9951 10.6632 6.85895 10.6581 6.76346C10.6555 6.71569 10.6533 6.67802 10.6517 6.65201L10.6501 6.62701M4.98959 4.74145C4.98933 4.7408 4.98907 4.74015 4.9888 4.7395L5.45279 4.55317L4.99022 4.743C4.99001 4.74248 4.9898 4.74197 4.98959 4.74145ZM10.6501 6.62701L10.6501 6.62628C10.65 6.61541 10.6498 6.60015 10.6493 6.58095C10.6485 6.5426 10.6469 6.48835 10.6436 6.42202C10.6371 6.28992 10.6242 6.10706 10.5981 5.90461C10.5497 5.52961 10.4441 4.97757 10.1733 4.59732L10.1603 4.57917L10.1458 4.56225C9.94605 4.32883 9.70228 4.14136 9.43127 4.00862M10.6501 6.62701L10.6502 6.63924L10.6502 6.64314L10.6502 6.64443L10.6502 6.64491V6.64511C10.6502 6.64519 10.6502 6.64528 10.1502 6.64528M10.6501 6.62701L10.6498 6.62191L10.6492 6.61376L10.6491 6.61147L10.649 6.61078L10.649 6.61055C10.649 6.61047 10.649 6.6104 10.1502 6.64528M9.43127 4.00862C9.67296 3.89195 10.0493 3.81621 10.58 3.7768C11.1071 3.73767 11.7263 3.73739 12.4239 3.73739H12.4333L12.4427 3.73703C13.0054 3.71581 13.5684 3.77312 14.1154 3.90722L14.1169 3.90761C14.3537 3.96483 14.4435 4.04384 14.4932 4.11515C14.5554 4.20426 14.6112 4.36266 14.6345 4.6761C14.6576 4.98742 14.6453 5.38191 14.6245 5.9052C14.6228 5.94681 14.6211 5.98911 14.6194 6.0321C14.5997 6.51996 14.5765 7.09601 14.5765 7.76106C14.5765 7.88147 14.5727 8.02289 14.5685 8.17583C14.559 8.52671 14.5478 8.93825 14.5776 9.29602C14.6197 9.80096 14.7539 10.4518 15.2921 10.8092L15.292 10.8092L15.2995 10.814C15.4922 10.9371 15.7333 10.9804 15.9959 10.9107C16.2355 10.8472 16.472 10.6961 16.7136 10.4778C17.1965 10.0417 17.833 9.21431 18.7046 7.73602L18.7046 7.73605L18.7086 7.72915C19.2699 6.74153 19.7575 5.71387 20.1674 4.65436M9.43127 4.00862C9.42713 4.00659 9.42298 4.00457 9.41883 4.00257C9.41806 4.0022 9.41729 4.00183 9.41652 4.00146C9.23433 3.91387 9.04005 3.85091 8.83872 3.81521M9.43127 4.00862C9.42871 4.00985 9.42616 4.01109 9.42363 4.01233L9.42218 4.01305C9.27623 4.08428 9.1399 4.20627 9.06896 4.29956C9.05193 4.32196 9.04484 4.33453 9.04323 4.3376M20.1674 4.65436C20.2027 4.58339 20.2516 4.5202 20.3114 4.46831M20.1674 4.65436C20.1652 4.65871 20.1631 4.66309 20.1611 4.66749L19.7081 4.45575M20.1674 4.65436C20.1698 4.64815 20.1722 4.64194 20.1746 4.63573L19.7081 4.45575M20.3114 4.46831C20.2984 4.47313 20.2856 4.47865 20.2731 4.48488L20.0502 4.03731M20.3114 4.46831C20.3231 4.45813 20.3353 4.44838 20.3478 4.43909L20.0502 4.03731M10.1502 6.64528C10.1502 6.64528 10.1502 5.42684 9.76599 4.88739C9.47677 4.5495 9.06888 4.33567 8.62654 4.29004M10.1502 6.64528L9.04285 4.33834C9.04285 4.33834 9.04296 4.33809 9.04323 4.3376M8.62654 4.29004L8.6666 4.00269C8.70755 3.94807 8.7593 3.89022 8.81918 3.83344C8.88371 3.86493 8.95256 3.91811 9.00385 4.00483C9.08016 4.13386 9.06478 4.25103 9.05834 4.28577C9.05266 4.31645 9.04499 4.33391 9.04323 4.3376M8.62654 4.29004L8.65447 4.01921C8.55316 4.1603 8.52775 4.27627 8.62654 4.29004ZM9.04323 4.3376L8.83872 3.81521M8.83872 3.81521C8.94225 3.72023 9.0679 3.62959 9.20287 3.56371C9.86599 3.23739 11.0397 3.23739 12.4239 3.23739H12.4239C13.033 3.21442 13.6424 3.27645 14.2344 3.42161C15.2153 3.65872 15.1848 4.41556 15.119 6.05149C15.0993 6.53982 15.0765 7.1065 15.0765 7.76106C15.0765 7.90915 15.0722 8.06712 15.0676 8.22972C15.0444 9.06691 15.0178 10.0269 15.5686 10.3926C15.8529 10.5742 16.5423 10.4189 18.2739 7.48207C18.8263 6.5102 19.3057 5.49871 19.7081 4.45575M8.83872 3.81521L20.5529 3.95043C20.3804 3.92973 20.2057 3.95989 20.0502 4.03731M19.7081 4.45575C19.7856 4.28996 19.9032 4.14621 20.0502 4.03731M25.338 4.51006C25.338 4.51008 25.3373 4.50953 25.3362 4.50835C25.3376 4.50945 25.3381 4.51004 25.338 4.51006Z" stroke="white"/>
</g>
</svg>
