<svg width="27" height="21" viewBox="0 0 27 21" fill="none" xmlns="http://www.w3.org/2000/svg">
<mask id="mask0_702_27464" style="mask-type:alpha" maskUnits="userSpaceOnUse" x="0" y="0" width="27" height="21">
<rect x="0.5" width="26" height="21" fill="#D9D9D9"/>
</mask>
<g mask="url(#mask0_702_27464)">
<path d="M4.94598 15.735L5.0002 15.5351L4.89716 15.3554C4.06078 13.8969 3.57317 12.1593 3.57317 10.4271C3.57317 4.94445 8.0306 0.5 13.5366 0.5C16.1839 0.5 18.6914 1.54069 20.5739 3.41667C22.4494 5.28568 23.4285 7.78243 23.5 10.361C23.4963 15.8405 19.0403 20.2812 13.5366 20.2812C11.8653 20.2812 10.2613 19.8652 8.79235 19.0984L8.62105 19.009L8.43414 19.058L3.70866 20.2973L4.94598 15.735ZM15.0344 15.777L15.0658 15.7895L15.0986 15.7977C15.7523 15.9605 16.4046 15.962 16.9059 15.8795C17.262 15.8272 17.7139 15.6225 18.0912 15.3752C18.4603 15.1332 18.8855 14.768 19.0533 14.3219C19.1797 13.9862 19.2447 13.6669 19.2667 13.3929C19.2878 13.1303 19.2722 12.873 19.2059 12.6747L19.1684 12.5626L19.0846 12.4792C18.9959 12.3907 18.8891 12.3267 18.8001 12.2774C18.7112 12.2282 18.598 12.1716 18.4659 12.1058C18.3014 12.0036 17.9127 11.8028 17.5644 11.6293C17.37 11.5324 17.1743 11.4372 17.012 11.361C16.8626 11.2909 16.7099 11.2217 16.621 11.1922C16.6153 11.1903 16.609 11.1881 16.602 11.1857C16.5093 11.1543 16.3075 11.0859 16.0982 11.1049C15.967 11.1168 15.8291 11.161 15.7027 11.2547C15.5803 11.3454 15.4935 11.464 15.4311 11.5883C15.3863 11.6777 15.2563 11.8567 15.0892 12.0603C14.9392 12.243 14.7946 12.4031 14.7309 12.4683C14.7248 12.4656 14.7181 12.4624 14.7108 12.4587C14.6591 12.433 14.597 12.4047 14.5252 12.372C14.1486 12.2007 13.5045 11.9076 12.6962 11.2183C12.0119 10.597 11.5586 9.92253 11.3913 9.62497C11.3946 9.62164 11.3981 9.61819 11.4017 9.61458C11.4425 9.57394 11.4812 9.5262 11.5075 9.49316C11.5266 9.46916 11.5487 9.44058 11.5698 9.41339C11.5798 9.40063 11.5894 9.38818 11.5984 9.37665C11.6625 9.29455 11.7188 9.22571 11.7676 9.17708C11.9718 8.97356 12.0756 8.76654 12.1486 8.62093L12.1542 8.60965C12.2982 8.32271 12.2982 8.01062 12.1542 7.72369L12.1178 7.65109L12.1065 7.63986C12.09 7.60567 12.0676 7.55641 12.0397 7.49249C11.9804 7.35676 11.9045 7.17439 11.8223 6.97418C11.7715 6.85043 11.7182 6.71953 11.6655 6.59011C11.5505 6.30797 11.4385 6.03291 11.3618 5.85454C11.2292 5.54637 11.0518 5.30567 10.7886 5.18647C10.5578 5.08194 10.2794 5.11458 10.3171 5.11458H10.3162H10.3154H10.3145H10.3136H10.3128H10.3119H10.311H10.3102H10.3093H10.3084H10.3075H10.3067H10.3058H10.3049H10.304H10.3031H10.3023H10.3014H10.3005H10.2996H10.2987H10.2978H10.2969H10.296H10.2951H10.2942H10.2933H10.2924H10.2915H10.2906H10.2897H10.2888H10.2879H10.287H10.2861H10.2852H10.2843H10.2833H10.2824H10.2815H10.2806H10.2797H10.2787H10.2778H10.2769H10.276H10.275H10.2741H10.2732H10.2722H10.2713H10.2704H10.2694H10.2685H10.2676H10.2666H10.2657H10.2647H10.2638H10.2628H10.2619H10.2609H10.26H10.259H10.2581H10.2571H10.2562H10.2552H10.2543H10.2533H10.2524H10.2514H10.2504H10.2495H10.2485H10.2475H10.2466H10.2456H10.2446H10.2437H10.2427H10.2417H10.2408H10.2398H10.2388H10.2378H10.2369H10.2359H10.2349H10.2339H10.2329H10.2319H10.231H10.23H10.229H10.228H10.227H10.226H10.225H10.224H10.223H10.2221H10.2211H10.2201H10.2191H10.2181H10.2171H10.2161H10.2151H10.2141H10.2131H10.2121H10.2111H10.2101H10.209H10.208H10.207H10.206H10.205H10.204H10.203H10.202H10.201H10.1999H10.1989H10.1979H10.1969H10.1959H10.1949H10.1938H10.1928H10.1918H10.1908H10.1898H10.1887H10.1877H10.1867H10.1857H10.1846H10.1836H10.1826H10.1815H10.1805H10.1795H10.1785H10.1774H10.1764H10.1754H10.1743H10.1733H10.1723H10.1712H10.1702H10.1691H10.1681H10.1671H10.166H10.165H10.1639H10.1629H10.1619H10.1608H10.1598H10.1587H10.1577H10.1566H10.1556H10.1546H10.1535H10.1525H10.1514H10.1504H10.1493H10.1483H10.1472H10.1462H10.1451H10.1441H10.143H10.142H10.1409H10.1398H10.1388H10.1377H10.1367H10.1356H10.1346H10.1335H10.1325H10.1314H10.1303H10.1293H10.1282H10.1272H10.1261H10.125H10.124H10.1229H10.1219H10.1208H10.1197H10.1187H10.1176H10.1166H10.1155H10.1144H10.1134H10.1123H10.1112H10.1102H10.1091H10.108H10.107H10.1059H10.1048H10.1038H10.1027H10.1016H10.1006H10.0995H10.0984H10.0974H10.0963H10.0952H10.0942H10.0931H10.092H10.091H10.0899H10.0888H10.0878H10.0867H10.0856H10.0845H10.0835H10.0824H10.0813H10.0803H10.0792H10.0781H10.077H10.076H10.0749H10.0738H10.0728H10.0717H10.0706H10.0695H10.0685H10.0674H10.0663H10.0653H10.0642H10.0631H10.062H10.061H10.0599H10.0588H10.0578H10.0567H10.0556H10.0545H10.0535H10.0524H10.0513H10.0503H10.0492H10.0481H10.047H10.046H10.0449H10.0438H10.0428H10.0417H10.0406H10.0395H10.0385H10.0374H10.0363H10.0353H10.0342H10.0331H10.0321H10.031H10.0299H10.0288H10.0278H10.0267H10.0256H10.0246H10.0235H10.0224H10.0214H10.0203H10.0192H10.0182H10.0171H10.016H10.015H10.0139H10.0128H10.0118H10.0107H10.0096H10.0086H10.0075H10.0065H10.0054H10.0043H10.0033H10.0022H10.0011H10.0001H9.99902H9.99796H9.9969H9.99584H9.99478H9.99372H9.99266H9.9916H9.99055H9.98949H9.98843H9.98738H9.98632H9.98526H9.98421H9.98315H9.9821H9.98105H9.97999H9.97894H9.97789H9.97684H9.97579H9.97473H9.97368H9.97264H9.97159H9.97054H9.96949H9.96844H9.9674H9.96635H9.9653H9.96426H9.96321H9.96217H9.96113H9.96008H9.95904H9.958H9.95696H9.95592H9.95488H9.95384H9.9528H9.95177H9.95073H9.94969H9.94866H9.94762H9.94659H9.94556H9.94452H9.94349H9.94246H9.94143H9.9404H9.93937H9.93834H9.93732H9.93629H9.93526H9.93424H9.93321H9.93219H9.93117H9.93015H9.92912H9.9281H9.92708H9.92607H9.92505H9.92403H9.92301H9.922H9.92099H9.91997H9.91896H9.91795H9.91694H9.91593H9.91492H9.91391H9.9129H9.9119H9.91089H9.90989H9.90888H9.90788H9.90688H9.90588H9.90488H9.90388H9.90288H9.90188H9.90089H9.89989H9.8989H9.89791H9.89692H9.89593H9.89494H9.89395H9.89296H9.89197H9.89099H9.89H9.88902H9.88804H9.88706H9.88608H9.8851H9.88412H9.88314H9.88217H9.88119H9.88022H9.87925H9.87828H9.87731H9.87634H9.87537H9.8744H9.87344H9.87247H9.87151H9.87055H9.86959H9.86863H9.86767H9.86671H9.86576H9.8648H9.86385H9.8629H9.86195H9.861H9.86005H9.8591H9.85816H9.85721H9.85627H9.85533H9.85439H9.85345H9.85251H9.85158H9.85064H9.84971H9.84878H9.84784H9.84691H9.84599H9.84506H9.84413H9.84321H9.84229H9.84137H9.84045H9.83953H9.83861H9.83769H9.83678H9.83587H9.83496H9.83405H9.83314H9.83223H9.83133H9.83042H9.82952H9.82862H9.82772H9.82682H9.82592H9.82503H9.82414H9.82324H9.82235H9.82146H9.82058H9.81969H9.81881H9.81792H9.81704H9.81616H9.81529H9.81441H9.81353H9.81266H9.81179H9.81092H9.81005H9.80919H9.80832H9.80746H9.8066H9.80574H9.80488C9.79896 5.11458 9.7928 5.11457 9.7864 5.11456C9.56165 5.11413 9.0443 5.11313 8.67367 5.60558C8.66213 5.62091 8.64128 5.64562 8.61359 5.67841C8.50331 5.80903 8.28463 6.06802 8.11457 6.3747C7.88406 6.79035 7.69512 7.34723 7.69512 8.09375C7.69512 8.86288 7.97098 9.58344 8.24548 10.111C8.48993 10.5808 8.75922 10.9459 8.89828 11.1017C9.14334 11.4728 10.8664 14.0633 13.5485 15.1843C13.9797 15.3978 14.4031 15.5486 14.7189 15.661C14.8426 15.7051 14.9497 15.7432 15.0344 15.777Z" stroke="white"/>
</g>
</svg>
