<svg width="150" height="280" viewBox="0 0 150 280" fill="none" xmlns="http://www.w3.org/2000/svg">
<path d="M94.5966 276.588C91.952 277.321 89.2108 275.763 88.4741 273.107L76.0835 228.436C75.3468 225.78 76.8934 223.032 79.538 222.299L117.846 211.675C120.49 210.942 123.231 212.501 123.968 215.157L136.359 259.827C137.095 262.483 135.549 265.231 132.904 265.964L94.5966 276.588Z" fill="#FF80DD"/>
<path d="M93.6028 104.654L104.692 145.663L109.732 163.832C110.469 166.489 108.922 169.236 106.277 169.97L67.9698 180.593C65.3252 181.327 62.584 179.768 61.8473 177.112L19.6387 24.9422C18.9019 22.2861 20.4485 19.5383 23.0931 18.8049L61.4008 8.18123C64.0454 7.44782 66.7866 9.00651 67.5233 11.6627L93.6028 104.654Z" fill="#FF80DD"/>
<path d="M82.9923 268.24C83.8023 271.16 86.8175 272.878 89.7302 272.07L128.038 261.446C130.951 260.638 132.651 257.614 131.841 254.693L119.45 210.023C118.64 207.103 115.625 205.386 112.712 206.193L74.4043 216.817C71.4916 217.625 69.7917 220.65 70.6017 223.57L82.9923 268.24Z" stroke="#67676A" stroke-linecap="round"/>
</svg>
