<svg width="1140" height="340" viewBox="0 0 1140 340" fill="none" xmlns="http://www.w3.org/2000/svg">
<g clip-path="url(#clip0_299_10088)">
<g clip-path="url(#clip1_299_10088)">
<rect x="214" y="250.689" width="250" height="250" transform="rotate(-30.1824 214 250.689)" fill="#8FA9FF"/>
<path d="M194 250.689L410.107 125L535.796 341.107L319.689 466.796L194 250.689Z" fill="white"/>
<path fill-rule="evenodd" clip-rule="evenodd" d="M409.746 126.367L195.367 251.05L320.05 465.429L534.429 340.746L409.746 126.367ZM194 250.689L319.689 466.796L535.796 341.107L410.107 125L194 250.689Z" fill="#67676A"/>
<path fill-rule="evenodd" clip-rule="evenodd" d="M405.04 167.866L324.5 214.366L324 213.5L404.54 167L405.04 167.866Z" fill="#67676A"/>
<path fill-rule="evenodd" clip-rule="evenodd" d="M410.54 177.392L360.311 206.392L359.811 205.526L410.04 176.526L410.54 177.392Z" fill="#67676A"/>
<path fill-rule="evenodd" clip-rule="evenodd" d="M416.04 186.919L365.811 215.919L365.311 215.053L415.54 186.053L416.04 186.919Z" fill="#67676A"/>
<path fill-rule="evenodd" clip-rule="evenodd" d="M421.54 196.445L384.301 217.945L383.801 217.079L421.04 195.579L421.54 196.445Z" fill="#67676A"/>
<path d="M472.864 245C471.548 245.007 470.252 244.675 469.099 244.035L463.213 240.784C461.325 239.722 459.928 237.95 459.325 235.853C458.723 233.756 458.964 231.504 459.996 229.585L492.625 165.496C493.243 164.278 494.099 163.199 495.141 162.324C496.183 161.45 497.39 160.797 498.688 160.405C499.903 160.031 501.182 159.914 502.444 160.062C503.706 160.209 504.924 160.618 506.023 161.263L520.323 169.587C521.404 170.217 522.349 171.061 523.102 172.067C523.855 173.073 524.401 174.222 524.706 175.445C525.027 176.756 525.086 178.118 524.879 179.452C524.673 180.787 524.206 182.066 523.505 183.215L487.375 242.428C487.316 242.527 487.237 242.613 487.144 242.681C487.051 242.75 486.945 242.799 486.834 242.825C486.722 242.852 486.606 242.856 486.492 242.836C486.379 242.817 486.271 242.775 486.173 242.714C485.98 242.592 485.842 242.398 485.789 242.174C485.736 241.95 485.772 241.714 485.891 241.517L503.955 211.928L522.02 182.34C522.606 181.395 522.998 180.339 523.171 179.238C523.344 178.136 523.295 177.01 523.027 175.928C522.789 174.925 522.353 173.981 521.745 173.153C521.138 172.324 520.372 171.628 519.492 171.105L505.192 162.781C504.293 162.259 503.298 161.928 502.268 161.808C501.237 161.688 500.194 161.782 499.2 162.084C498.131 162.411 497.138 162.952 496.281 163.677C495.425 164.401 494.722 165.294 494.216 166.3L461.533 230.389C460.696 231.91 460.491 233.704 460.961 235.379C461.432 237.053 462.54 238.47 464.043 239.32L469.929 242.571C471.457 243.381 473.237 243.555 474.889 243.054C476.542 242.553 477.934 241.418 478.767 239.891L507.048 190.449C508.036 188.783 508.33 186.789 507.867 184.905C507.403 183.02 506.219 181.398 504.574 180.393C503.755 179.914 502.848 179.61 501.909 179.499C500.969 179.388 500.017 179.474 499.112 179.75C498.133 180.052 497.223 180.549 496.437 181.211C495.651 181.874 495.004 182.689 494.534 183.608L472.563 226.62C472.457 226.826 472.275 226.981 472.057 227.051C471.838 227.122 471.6 227.101 471.396 226.995C471.193 226.888 471.038 226.705 470.966 226.485C470.893 226.265 470.908 226.025 471.008 225.816L492.855 182.751C493.419 181.621 494.203 180.618 495.16 179.802C496.117 178.986 497.226 178.373 498.423 178C499.553 177.652 500.743 177.544 501.917 177.682C503.091 177.821 504.224 178.202 505.245 178.803C506.265 179.416 507.154 180.225 507.862 181.186C508.571 182.147 509.084 183.239 509.373 184.401C509.662 185.563 509.721 186.772 509.547 187.957C509.372 189.142 508.968 190.28 508.356 191.307L480.075 240.749C479.337 242.024 478.285 243.086 477.021 243.83C475.758 244.575 474.326 244.978 472.864 245Z" fill="#67676A"/>
</g>
<path d="M1102.8 249.656L1099.99 249.067C1098.36 248.727 1096.77 249.766 1096.43 251.387L1095.84 254.198C1095.5 255.819 1096.54 257.409 1098.17 257.749L1100.98 258.339C1102.6 258.679 1104.19 257.64 1104.53 256.018L1105.12 253.208C1105.46 251.586 1104.42 249.996 1102.8 249.656Z" fill="#FED8F5"/>
<path d="M1099.04 247.878L1101.85 248.467C1103.2 248.751 1104.07 250.076 1103.78 251.427L1103.2 254.237C1102.91 255.589 1101.59 256.454 1100.24 256.171L1097.42 255.582C1096.07 255.298 1095.21 253.973 1095.49 252.622L1096.08 249.811C1096.36 248.46 1097.69 247.594 1099.04 247.878Z" stroke="#67676A"/>
<rect x="615.784" y="159" width="480.395" height="126" transform="rotate(6.28045 615.784 159)" fill="#D0ECB3"/>
<path d="M603.784 167L1081.3 219.553L1067.51 344.797L590 292.244L603.784 167Z" fill="white"/>
<path fill-rule="evenodd" clip-rule="evenodd" d="M1080.19 220.438L604.669 168.103L591.104 291.359L1066.63 343.693L1080.19 220.438ZM603.784 167L590 292.244L1067.51 344.797L1081.3 219.553L603.784 167Z" fill="#67676A"/>
<path d="M267.856 163.252L259.466 165.943C257.888 166.449 257.02 168.138 257.526 169.716L260.216 178.106C260.722 179.683 262.412 180.552 263.989 180.046L272.379 177.355C273.957 176.849 274.825 175.16 274.319 173.582L271.628 165.193C271.122 163.615 269.433 162.746 267.856 163.252Z" fill="#FF80DD"/>
<path fill-rule="evenodd" clip-rule="evenodd" d="M265.552 162.465L257.162 165.156C256.11 165.493 255.531 166.619 255.868 167.671L258.559 176.061C258.897 177.112 260.023 177.692 261.075 177.354L269.464 174.663C270.516 174.326 271.095 173.2 270.758 172.148L268.067 163.759C267.73 162.707 266.603 162.128 265.552 162.465ZM256.857 164.204L265.246 161.513C266.824 161.007 268.513 161.876 269.019 163.453L271.71 171.843C272.216 173.42 271.347 175.11 269.769 175.616L261.38 178.306C259.802 178.813 258.113 177.944 257.607 176.366L254.916 167.977C254.41 166.399 255.279 164.71 256.857 164.204Z" fill="#67676A"/>
<path d="M39.7038 250.442L32.285 250.057C30.6304 249.971 29.2195 251.243 29.1336 252.897L28.7488 260.316C28.6629 261.971 29.9347 263.382 31.5893 263.468L39.0081 263.852C40.6627 263.938 42.0736 262.667 42.1595 261.012L42.5443 253.593C42.6302 251.939 41.3584 250.528 39.7038 250.442Z" fill="#A1DA67"/>
<path fill-rule="evenodd" clip-rule="evenodd" d="M37.9987 249.127L30.5799 248.742C29.4768 248.685 28.5362 249.533 28.479 250.636L28.0941 258.055C28.0369 259.158 28.8847 260.098 29.9878 260.156L37.4065 260.541C38.5096 260.598 39.4503 259.75 39.5075 258.647L39.8924 251.228C39.9496 250.125 39.1017 249.184 37.9987 249.127ZM30.6317 247.744L38.0505 248.128C39.7051 248.214 40.9768 249.625 40.891 251.28L40.5061 258.699C40.4203 260.353 39.0094 261.625 37.3547 261.539L29.936 261.154C28.2814 261.068 27.0096 259.658 27.0954 258.003L27.4803 250.584C27.5662 248.93 28.9771 247.658 30.6317 247.744Z" fill="#67676A"/>
<path d="M637.957 220.815L624.048 218.631C622.411 218.374 620.876 219.493 620.619 221.13L618.435 235.039C618.178 236.676 619.297 238.211 620.933 238.468L634.843 240.652C636.48 240.909 638.015 239.79 638.272 238.153L640.456 224.244C640.713 222.607 639.594 221.072 637.957 220.815Z" fill="#8FA9FF"/>
<path fill-rule="evenodd" clip-rule="evenodd" d="M635.702 218.106L621.792 215.922C620.701 215.751 619.677 216.497 619.506 217.588L617.322 231.498C617.151 232.589 617.897 233.612 618.988 233.784L632.898 235.967C633.989 236.139 635.012 235.393 635.184 234.302L637.367 220.392C637.539 219.301 636.793 218.277 635.702 218.106ZM621.947 214.934L635.857 217.118C637.494 217.375 638.612 218.91 638.355 220.547L636.172 234.457C635.915 236.093 634.379 237.212 632.743 236.955L618.833 234.771C617.196 234.515 616.078 232.979 616.335 231.343L618.518 217.433C618.775 215.796 620.31 214.677 621.947 214.934Z" fill="#67676A"/>
<path d="M1021.69 139.419L1018.53 140.432C1016.96 140.939 1016.09 142.628 1016.59 144.205L1017.61 147.366C1018.11 148.944 1019.8 149.813 1021.38 149.306L1024.54 148.293C1026.12 147.787 1026.99 146.098 1026.48 144.52L1025.47 141.359C1024.96 139.781 1023.27 138.913 1021.69 139.419Z" fill="#D0ECB3"/>
<path fill-rule="evenodd" clip-rule="evenodd" d="M1022 140.371L1018.84 141.385C1017.79 141.722 1017.21 142.848 1017.55 143.9L1018.56 147.061C1018.9 148.112 1020.02 148.692 1021.07 148.354L1024.23 147.341C1025.29 147.003 1025.87 145.877 1025.53 144.825L1024.51 141.665C1024.18 140.613 1023.05 140.034 1022 140.371ZM1018.53 140.432L1021.69 139.419C1023.27 138.913 1024.96 139.781 1025.47 141.359L1026.48 144.52C1026.99 146.098 1026.12 147.787 1024.54 148.293L1021.38 149.306C1019.8 149.813 1018.11 148.944 1017.61 147.366L1016.59 144.205C1016.09 142.628 1016.96 140.939 1018.53 140.432Z" fill="#67676A"/>
<path d="M1111.04 185.886C1110.54 186.55 1109.87 187.073 1109.11 187.407L1105.21 189.114C1103.95 189.654 1102.52 189.674 1101.24 189.17C1099.95 188.666 1098.91 187.679 1098.34 186.423L1078.69 145.38C1078.32 144.601 1078.11 143.756 1078.07 142.896C1078.03 142.036 1078.16 141.179 1078.47 140.376C1078.75 139.622 1079.18 138.934 1079.74 138.357C1080.3 137.779 1080.97 137.324 1081.72 137.02L1091.4 133.037C1092.13 132.736 1092.92 132.586 1093.72 132.594C1094.51 132.603 1095.3 132.771 1096.03 133.088C1096.81 133.431 1097.52 133.925 1098.11 134.542C1098.7 135.159 1099.16 135.886 1099.47 136.68L1115.33 177.606C1115.35 177.674 1115.37 177.746 1115.37 177.819C1115.36 177.892 1115.35 177.964 1115.32 178.031C1115.29 178.097 1115.25 178.157 1115.19 178.206C1115.14 178.256 1115.08 178.294 1115.01 178.319C1114.87 178.37 1114.72 178.365 1114.59 178.305C1114.46 178.245 1114.35 178.136 1114.3 178.001L1098.46 137.089C1098.21 136.431 1097.83 135.829 1097.35 135.318C1096.86 134.807 1096.27 134.399 1095.63 134.117C1095.03 133.851 1094.39 133.707 1093.74 133.694C1093.09 133.68 1092.45 133.797 1091.84 134.038L1082.16 138.022C1081.55 138.273 1081.01 138.645 1080.55 139.117C1080.09 139.589 1079.74 140.149 1079.51 140.764C1079.26 141.427 1079.15 142.134 1079.19 142.843C1079.22 143.552 1079.4 144.249 1079.71 144.89L1099.34 185.959C1099.78 186.965 1100.6 187.758 1101.63 188.166C1102.65 188.573 1103.79 188.561 1104.79 188.133L1108.69 186.426C1109.68 185.97 1110.46 185.142 1110.84 184.12C1111.22 183.097 1111.19 181.961 1110.74 180.955L1096.78 147.73C1096.32 146.593 1095.43 145.679 1094.31 145.187C1093.18 144.695 1091.91 144.666 1090.77 145.106C1090.22 145.333 1089.72 145.672 1089.3 146.101C1088.88 146.53 1088.56 147.042 1088.35 147.603C1088.13 148.211 1088.03 148.859 1088.06 149.509C1088.09 150.159 1088.25 150.797 1088.53 151.387L1101.69 178.968C1101.75 179.1 1101.76 179.252 1101.71 179.388C1101.66 179.525 1101.56 179.637 1101.43 179.698C1101.3 179.76 1101.14 179.767 1101.01 179.719C1100.87 179.671 1100.75 179.571 1100.69 179.44L1087.45 151.901C1087.1 151.183 1086.9 150.403 1086.86 149.609C1086.81 148.814 1086.93 148.021 1087.21 147.276C1087.47 146.574 1087.87 145.935 1088.39 145.398C1088.91 144.862 1089.54 144.439 1090.23 144.157C1090.93 143.88 1091.68 143.745 1092.44 143.759C1093.19 143.772 1093.94 143.935 1094.63 144.236C1095.33 144.538 1095.96 144.973 1096.49 145.516C1097.01 146.06 1097.43 146.701 1097.71 147.403L1111.68 180.628C1112.03 181.489 1112.16 182.426 1112.05 183.347C1111.94 184.268 1111.59 185.143 1111.04 185.886Z" fill="#67676A"/>
<path fill-rule="evenodd" clip-rule="evenodd" d="M1110 110H30C13.9837 110 1 122.984 1 139V251C1 267.016 13.9838 280 30 280H1110C1126.02 280 1139 267.016 1139 251V139C1139 122.984 1126.02 110 1110 110ZM30 109C13.4315 109 0 122.431 0 139V251C0 267.569 13.4315 281 30 281H1110C1126.57 281 1140 267.569 1140 251V139C1140 122.431 1126.57 109 1110 109H30Z" fill="#67676A"/>
</g>
<path d="M21.8058 201.519C20.7845 202.465 19.3752 203.595 17.4352 204.289C16.4797 204.634 15.368 204.854 14.1121 204.811C12.853 204.764 11.4463 204.456 9.89811 203.656C7.80327 202.572 6.11961 200.963 4.98559 198.835C3.84488 196.713 3.23808 194.06 3.33858 191.058C3.37285 189.554 3.62259 187.984 4.01991 186.352C4.44879 184.737 5.03801 183.064 5.84257 181.41C6.64687 179.762 7.62864 178.111 8.7978 176.532C9.96684 174.957 11.3076 173.443 12.7924 172.035C15.7558 169.215 19.2934 166.874 23.0272 165.114C26.7667 163.37 30.696 162.204 34.5103 161.576C36.4191 161.262 38.2972 161.07 40.1194 160.984C41.9413 160.909 43.7078 160.928 45.3935 161.031C48.7646 161.246 51.8137 161.771 54.4077 162.387C54.4077 162.387 54.6699 162.443 55.1721 162.546C55.4216 162.598 55.7349 162.666 56.0994 162.745C56.4635 162.833 56.8852 162.934 57.3578 163.05C59.2476 163.535 61.9773 164.305 65.218 165.685C68.4595 167.047 72.2082 169.031 76.0051 171.827C77.9004 173.225 79.8003 174.83 81.6338 176.641C83.4612 178.446 85.2377 180.478 86.8407 182.651C87.6012 183.716 88.3937 184.786 89.0904 185.914C89.442 186.476 89.823 187.03 90.1547 187.607C90.4865 188.182 90.8214 188.759 91.1594 189.341C92.4431 191.678 93.6432 194.09 94.6352 196.545L95.0208 197.467L95.371 198.39C95.6012 199.005 95.8409 199.625 96.0613 200.243C96.4796 201.479 96.9137 202.721 97.2706 203.958C98.0295 206.436 98.6341 208.901 99.1564 211.328C99.6882 213.758 100.074 216.137 100.429 218.464C100.576 219.621 100.753 220.773 100.869 221.893C100.983 222.93 101.097 223.953 101.208 224.961C101.611 228.605 102.112 231.885 102.68 234.694C102.947 236.017 103.312 237.776 103.832 239.781C104.348 241.784 105.033 244.027 105.927 246.272C106.821 248.514 107.941 250.735 109.269 252.694C109.936 253.669 110.658 254.575 111.428 255.399C111.613 255.616 111.822 255.798 112.017 256.003C112.209 256.21 112.418 256.386 112.623 256.575C112.726 256.666 112.825 256.767 112.931 256.855L113.249 257.116L113.565 257.384L113.803 257.554C114.413 258.017 115.081 258.408 115.839 258.729C116.601 259.043 117.459 259.28 118.387 259.44C119.316 259.597 120.313 259.675 121.342 259.661C122.372 259.638 123.421 259.535 124.45 259.376C126.511 259.023 128.47 258.44 130.106 257.767C131.748 257.103 133.073 256.392 134.021 255.827C135.376 255.01 137.017 254.121 138.751 253.584C140.497 253.057 142.35 252.854 144.423 253.524C146.249 254.135 148.806 255.859 150.58 258.181C151.021 258.763 151.416 259.382 151.735 260.033C152.057 260.688 152.298 261.358 152.435 262.035C152.726 263.404 152.609 264.802 151.969 266.037C151.116 267.7 149.507 268.993 147.934 270.107C145.256 271.997 141.922 273.986 137.918 275.667C133.919 277.346 129.245 278.765 123.917 279.246C121.257 279.478 118.433 279.465 115.514 279.062C112.599 278.658 109.583 277.857 106.673 276.532C105.23 275.845 103.799 275.079 102.456 274.151L101.449 273.453L100.551 272.763C99.9465 272.31 99.3827 271.81 98.8089 271.319C96.5375 269.329 94.5283 267.069 92.7589 264.699C90.9963 262.323 89.5162 259.816 88.2367 257.291C86.9608 254.761 85.918 252.203 85.0226 249.672C83.2384 244.605 82.104 239.658 81.2596 235.042C80.8391 232.732 80.5056 230.503 80.2197 228.376C80.0872 227.333 79.957 226.312 79.8292 225.313C79.7104 224.412 79.6005 223.53 79.4632 222.686C78.9507 219.29 78.3234 216.343 77.6972 213.935C76.8165 210.468 75.642 207.174 74.2135 204.101C74.0452 203.711 73.8473 203.339 73.6589 202.967C73.4674 202.595 73.2827 202.213 73.0845 201.847L72.4698 200.765C72.3673 200.587 72.2682 200.402 72.1625 200.224L71.8349 199.704L71.1832 198.663L70.4844 197.667L70.1366 197.17C70.0174 197.007 69.8913 196.853 69.7686 196.694L69.0325 195.745C65.1849 190.99 59.8861 187.686 54.0917 186.132C48.3104 184.576 42.0544 184.81 36.7797 186.718C35.4612 187.191 34.2037 187.753 33.0326 188.41C31.8615 189.069 30.7772 189.813 29.7902 190.625C27.8067 192.245 26.2439 194.153 25.0931 196.242C24.443 197.419 23.9308 198.456 23.4215 199.339C23.2839 199.553 23.1719 199.774 23.0415 199.972C22.9109 200.173 22.7745 200.358 22.6509 200.546C22.5211 200.728 22.382 200.9 22.2371 201.056C22.0982 201.224 21.9566 201.376 21.8058 201.519Z" fill="#DB9A46"/>
<path d="M21.8058 201.519C21.9565 201.38 22.098 201.227 22.2336 201.062C22.3786 200.903 22.5176 200.735 22.6474 200.553C22.7741 200.368 22.9074 200.179 23.038 199.978C23.1684 199.78 23.2837 199.559 23.418 199.345C23.9242 198.459 24.4395 197.425 25.0896 196.248C26.0249 194.551 27.2296 192.97 28.7205 191.572C30.205 190.171 31.9634 188.938 33.9317 187.943C37.8743 185.959 42.6556 184.937 47.475 185.146C47.3832 184.939 47.2145 184.722 46.924 184.488C44.645 182.685 41.7581 181.409 38.6111 180.912C35.4708 180.409 32.0699 180.699 28.9249 181.848C32.6104 178.712 37.2187 176.209 42.3551 174.615C43.1386 174.375 44.1242 173.921 43.9469 173.273C43.8597 172.953 43.4974 172.739 43.1434 172.56C40.4987 171.194 36.9865 170.799 33.6787 171.582C35.1703 170.732 37.0108 170.432 38.7163 169.958C40.4189 169.478 42.2385 168.651 42.588 167.407C42.7656 166.756 42.4794 166.09 42.0613 165.496C40.6027 163.419 37.6996 162.065 34.0585 161.665C31.2104 162.164 28.3056 162.951 25.4679 164.076C24.0464 164.625 22.6528 165.282 21.283 165.989C19.9218 166.725 18.5878 167.503 17.3173 168.391C12.2087 171.873 8.0574 176.661 5.75063 181.612C4.58462 184.081 3.84696 186.564 3.52478 188.899C3.20246 191.237 3.27319 193.423 3.71508 195.359C3.81519 195.841 3.94479 196.31 4.10079 196.765C4.25047 197.216 4.4169 197.651 4.6002 198.068C4.99242 198.906 5.43268 199.672 5.95961 200.367C6.49298 201.062 7.08082 201.686 7.73305 202.231C8.39803 202.78 9.1207 203.257 9.90107 203.662C11.4493 204.462 12.856 204.77 14.115 204.817C15.3742 204.861 16.4827 204.641 17.4381 204.295C19.3752 203.595 20.7846 202.462 21.8058 201.519Z" fill="#F4F3B6"/>
<path fill-rule="evenodd" clip-rule="evenodd" d="M174.821 247.37C174.821 247.37 199.485 251.755 208.391 256.099C221.084 262.289 226.185 272.539 226.185 272.539C226.185 272.539 224.941 286.511 216.428 285.925L198.112 276.725C198.112 276.725 181.189 279.467 170.114 277.473C159.042 275.478 147.219 254.73 174.821 247.37Z" fill="#DB9A46"/>
<path fill-rule="evenodd" clip-rule="evenodd" d="M224.245 292.527C231.427 294.171 241.21 289.112 243.253 281.758C243.434 281.111 243.537 280.411 243.314 279.777C243.092 279.142 242.46 278.613 241.793 278.707C242.557 277.498 243.34 275.994 242.699 274.718C242.438 274.199 241.971 273.809 241.461 273.529C240.028 272.739 238.178 272.762 236.763 273.587C237.095 272.468 236.473 271.221 235.507 270.57C234.54 269.92 233.309 269.778 232.149 269.887C226.152 270.451 215.693 278.072 216.311 284.849C216.669 288.767 220.407 291.651 224.245 292.527Z" fill="#F4F3B6"/>
<path d="M231.74 286.434C231.76 285.951 231.65 285.474 231.395 285.045C230.496 283.527 228.718 281.327 225.37 282.129C222.908 282.722 221.835 284.626 221.893 286.137C221.948 287.6 222.795 289.079 224.819 289.688C228.924 290.926 231.65 288.609 231.74 286.434Z" fill="#CB542F"/>
<path d="M229.307 279.76C229.826 280.489 231.325 280.862 233.213 280.108C236.103 278.952 235.459 276.142 231.773 277.128C229.324 277.782 228.75 278.977 229.307 279.76Z" fill="#CB542F"/>
<path d="M232.929 283.208C233.448 283.937 234.947 284.31 236.835 283.556C239.725 282.4 239.081 279.59 235.395 280.576C232.949 281.23 232.375 282.425 232.929 283.208Z" fill="#CB542F"/>
<path d="M234.592 286.979C235.111 287.707 236.609 288.081 238.498 287.327C241.388 286.17 240.744 283.36 237.057 284.346C234.612 285 234.035 286.192 234.592 286.979Z" fill="#CB542F"/>
<path d="M161.387 197.276C166.92 203.847 171.016 213.452 173.47 218.756C178.773 230.208 183.171 242.12 185.566 254.542C188.435 269.437 175.084 280.713 161.512 283.233C136.045 287.964 129.459 273.336 126.59 262.637C119.441 235.984 130.171 222.506 134.014 207.872C135.571 201.945 137.778 195.586 142.985 192.35C150.194 187.869 156.379 191.327 161.387 197.276Z" fill="#DB9A46"/>
<path d="M128.287 267.91C132.049 263.902 137.323 256.955 136.768 249.92C136.055 240.834 130.583 233.967 126.389 229.969C123.967 238.666 122.905 248.903 126.587 262.635C127.042 264.328 127.588 266.114 128.287 267.91Z" fill="#A36D3D"/>
<path d="M153.636 203.226C153.636 203.226 147.926 217.006 150.812 242.14C153.699 267.274 163.699 284.599 176.951 277.432C189.893 270.43 191.268 252.998 180.057 229.228C169.396 206.621 160.005 192.907 160.005 192.907L153.636 203.226Z" fill="#F4F3B6"/>
<path d="M81.3804 136.709C81.3804 136.709 59.2231 117.172 46.8932 133.113C34.5604 149.056 52.0616 173.718 75.8316 191.737C99.6015 209.756 129.107 210.711 155.541 193.734C182.949 176.13 191.505 153.801 183.924 117.316C176.343 80.8302 151.897 62.1463 140.399 70.3897C128.903 78.636 128.106 89.3765 131.097 103.121C131.097 103.121 118.642 103.11 102.544 114.581C90.0905 123.455 81.3804 136.709 81.3804 136.709Z" fill="#EAC652"/>
<path d="M129.337 174.607C129.337 174.607 136.628 184.847 145.396 179.462C154.085 174.13 148.769 162.889 148.769 162.889C148.769 162.889 144.908 170.839 138.155 165.658C138.155 165.658 138.725 175.526 129.337 174.607Z" fill="#0B1411"/>
<path d="M150.295 171.742C148.55 171.311 145.92 171.146 142.763 172.543C139.003 174.206 136.843 177.734 135.788 180C138.481 181.252 141.815 181.659 145.395 179.462C148.708 177.432 149.98 174.544 150.295 171.742Z" fill="#CB542F"/>
<path d="M140.399 70.3898C128.903 78.6361 128.106 89.3767 131.097 103.121C131.097 103.121 125.529 103.122 117.034 106.542C117.344 113.805 119.657 124.759 128.171 138.364C142.445 161.177 166.434 164.855 185.578 152.405C187.314 142.32 186.724 130.785 183.923 117.313C176.343 80.8304 151.897 62.1465 140.399 70.3898Z" fill="#A36D3D"/>
<path d="M69.4984 161.882C69.4984 161.882 72.2527 166.622 70.755 170.881C69.2574 175.14 66.0372 176.356 57.7939 164.859C49.5505 153.361 47.0866 142.164 52.3121 136.175C57.5376 130.187 71.5098 135.182 78.3617 141.929C85.2136 148.676 78.7788 152.123 75.3813 152.489C75.3813 152.489 78.8096 156.542 76.4611 160.3C74.1053 164.057 69.4984 161.882 69.4984 161.882Z" fill="#5D3317"/>
<path d="M149.276 101.798C149.276 101.798 147.778 106.057 143.528 105.919C139.278 105.781 137.033 101.209 136.115 91.8659C135.197 82.5226 140.226 73.3086 147.367 73.5961C154.508 73.8836 163.403 81.2943 171.513 97.3812C171.513 97.3812 174.274 102.8 169.693 104.023C165.113 105.249 159.975 99.8458 159.975 99.8458C159.975 99.8458 159.506 105.119 156.452 105.82C153.391 106.525 149.276 101.798 149.276 101.798Z" fill="#5D3317"/>
<path d="M161.288 117.235C153.435 111.553 142.468 113.312 136.787 121.165C131.105 129.019 132.864 139.985 140.717 145.667C148.57 151.349 159.537 149.59 165.218 141.736C170.897 133.884 169.141 122.917 161.288 117.235Z" fill="#F4F3B6"/>
<path d="M111.938 151.067C104.09 145.39 93.1182 147.144 87.4364 154.998C81.7592 162.846 83.5206 173.818 91.3668 179.499C99.2202 185.181 110.192 183.42 115.868 175.569C121.55 167.716 119.791 156.749 111.938 151.067Z" fill="#F4F3B6"/>
<path d="M109.605 154.885C104.762 151.385 98.0006 152.469 94.5009 157.312C90.9986 162.149 92.0789 168.911 96.9218 172.411C101.764 175.918 108.522 174.833 112.029 169.991C115.527 165.145 114.442 158.387 109.605 154.885Z" fill="#0B1411"/>
<path d="M154.145 123.799C149.308 120.297 142.545 121.377 139.043 126.224C135.541 131.061 136.631 137.823 141.47 141.329C146.313 144.828 153.069 143.74 156.571 138.903C160.068 134.062 158.985 127.3 154.145 123.799Z" fill="#0B1411"/>
<path d="M149.616 125.547C151.03 126.566 151.341 128.539 150.323 129.953C149.304 131.356 147.331 131.678 145.922 130.654C144.508 129.636 144.197 127.662 145.215 126.248C146.235 124.838 148.207 124.523 149.616 125.547Z" fill="white"/>
<path d="M105.673 156.268C107.087 157.286 107.404 159.264 106.38 160.673C105.362 162.087 103.389 162.398 101.979 161.375C100.565 160.356 100.254 158.383 101.268 156.975C102.292 155.565 104.267 155.242 105.673 156.268Z" fill="white"/>
<path fill-rule="evenodd" clip-rule="evenodd" d="M82.5951 200.041L81.9996 199.711C81.8171 200.04 81.9358 200.454 82.2647 200.637C82.5935 200.819 83.0079 200.701 83.1905 200.372M82.5951 200.041C81.9996 199.711 81.9998 199.711 82.0001 199.71L82.0008 199.709L82.0033 199.705L82.0118 199.689C82.0191 199.676 82.0296 199.658 82.0435 199.634C82.0712 199.585 82.1121 199.515 82.1665 199.424C82.2753 199.241 82.4379 198.974 82.6567 198.632C83.0943 197.947 83.7565 196.962 84.661 195.745C86.4699 193.313 89.2489 189.957 93.1404 186.244C100.925 178.815 113.159 169.957 130.976 164.198C131.334 164.082 131.718 164.279 131.834 164.636C131.949 164.994 131.753 165.378 131.395 165.494C113.8 171.182 101.739 179.921 94.0808 187.229C90.2513 190.883 87.5225 194.18 85.754 196.558C84.8697 197.747 84.2257 198.706 83.8043 199.366C83.5936 199.695 83.4386 199.95 83.337 200.12C83.2862 200.206 83.2488 200.27 83.2245 200.312C83.2124 200.333 83.2035 200.349 83.1979 200.359L83.1918 200.37L83.1906 200.372" fill="#5D3317"/>
<path fill-rule="evenodd" clip-rule="evenodd" d="M84.955 205.674L84.3641 205.336C84.1771 205.662 84.2901 206.078 84.6165 206.265C84.9429 206.452 85.359 206.339 85.546 206.013M85.546 206.013L85.548 206.009L85.5555 205.996C85.5623 205.984 85.5728 205.966 85.587 205.942C85.6153 205.894 85.6583 205.821 85.7157 205.725C85.8305 205.533 86.0033 205.248 86.2331 204.881C86.6927 204.147 87.3802 203.084 88.2877 201.773C90.1031 199.152 92.7976 195.544 96.3093 191.605C103.339 183.722 113.612 174.549 126.633 169.284C126.981 169.143 127.15 168.746 127.009 168.398C126.868 168.049 126.471 167.88 126.122 168.021C112.836 173.393 102.398 182.731 95.2927 190.699C91.7372 194.686 89.0087 198.34 87.1679 200.998C86.2474 202.327 85.5484 203.408 85.0786 204.158C84.8438 204.534 84.6661 204.826 84.5467 205.026C84.487 205.126 84.4419 205.202 84.4114 205.254C84.3962 205.28 84.3846 205.3 84.3767 205.314L84.3676 205.33L84.3645 205.335C84.3642 205.335 84.3641 205.336 84.955 205.674" fill="#5D3317"/>
<path fill-rule="evenodd" clip-rule="evenodd" d="M131.203 168.856C131.373 169.192 131.238 169.602 130.902 169.771C118.742 175.903 109.305 185.981 102.897 194.56C99.6962 198.845 97.2591 202.744 95.623 205.571C94.8052 206.985 94.1879 208.129 93.7758 208.919C93.5698 209.313 93.4151 209.619 93.3123 209.826C93.2609 209.929 93.2225 210.007 93.1971 210.059C93.1844 210.086 93.175 210.105 93.1689 210.118L93.1621 210.132L93.1606 210.135L93.1603 210.136C92.9986 210.475 92.5922 210.62 92.2526 210.458C91.913 210.296 91.7688 209.89 91.9305 209.55L92.5454 209.843C91.9305 209.55 91.9306 209.55 91.9308 209.55L91.9314 209.548L91.9336 209.544L91.9416 209.527C91.9486 209.512 91.9589 209.491 91.9724 209.463C91.9995 209.408 92.0397 209.326 92.093 209.219C92.1994 209.005 92.3581 208.691 92.5683 208.288C92.9887 207.483 93.6155 206.321 94.4442 204.889C96.1012 202.026 98.5672 198.08 101.806 193.745C108.276 185.083 117.864 174.821 130.288 168.555C130.624 168.385 131.034 168.52 131.203 168.856Z" fill="#5D3317"/>
<path fill-rule="evenodd" clip-rule="evenodd" d="M189.328 126.146C189.328 126.146 189.329 126.146 189.404 126.822L189.329 126.146C189.703 126.104 190.039 126.373 190.081 126.747C190.122 127.121 189.853 127.458 189.48 127.499C189.479 127.499 189.479 127.499 189.479 127.499L189.478 127.499L189.469 127.501C189.46 127.502 189.445 127.503 189.425 127.506C189.385 127.511 189.323 127.52 189.24 127.532C189.074 127.557 188.822 127.598 188.491 127.66C187.827 127.786 186.843 128 185.573 128.352C183.035 129.054 179.358 130.307 174.839 132.504C165.803 136.896 153.387 145.065 139.962 160.171C139.712 160.452 139.282 160.477 139.001 160.227C138.719 159.977 138.694 159.547 138.944 159.266C152.487 144.027 165.047 135.749 174.244 131.279C178.842 129.044 182.596 127.763 185.21 127.039C186.517 126.677 187.538 126.455 188.237 126.322C188.587 126.256 188.855 126.212 189.039 126.185C189.131 126.171 189.201 126.162 189.25 126.155C189.274 126.152 189.293 126.15 189.306 126.148L189.322 126.146L189.326 126.146L189.328 126.146Z" fill="#5D3317"/>
<path fill-rule="evenodd" clip-rule="evenodd" d="M194.252 130.979C194.252 130.979 194.252 130.979 194.313 131.658L194.252 130.979C194.627 130.946 194.958 131.222 194.991 131.597C195.025 131.972 194.748 132.302 194.374 132.336L194.371 132.336L194.36 132.337C194.349 132.338 194.333 132.34 194.31 132.342C194.265 132.347 194.197 132.354 194.106 132.365C193.923 132.386 193.65 132.42 193.292 132.471C192.577 132.575 191.522 132.747 190.179 133.025C187.492 133.582 183.651 134.558 179.053 136.237C169.857 139.595 157.635 145.762 145.56 156.999C145.285 157.255 144.854 157.24 144.597 156.965C144.341 156.689 144.357 156.258 144.632 156.002C156.863 144.62 169.25 138.366 178.586 134.957C183.253 133.253 187.159 132.26 189.903 131.692C191.275 131.408 192.357 131.23 193.098 131.123C193.469 131.07 193.755 131.034 193.949 131.011C194.046 131 194.121 130.992 194.171 130.987C194.197 130.984 194.216 130.983 194.23 130.981L194.246 130.98L194.252 130.979Z" fill="#5D3317"/>
<path fill-rule="evenodd" clip-rule="evenodd" d="M190.776 138.827C190.776 138.827 190.776 138.827 190.86 139.503L190.776 138.827C191.149 138.78 191.49 139.045 191.536 139.419C191.583 139.792 191.318 140.132 190.944 140.178L190.944 140.179L190.941 140.179L190.928 140.181C190.917 140.182 190.899 140.184 190.875 140.188C190.827 140.194 190.755 140.204 190.658 140.218C190.466 140.245 190.18 140.288 189.807 140.349C189.062 140.472 187.971 140.667 186.597 140.958C183.848 141.538 179.969 142.499 175.456 144.018C166.424 147.056 154.883 152.317 144.785 161.209C144.503 161.458 144.073 161.431 143.824 161.148C143.575 160.866 143.603 160.436 143.885 160.187C154.163 151.137 165.884 145.801 175.021 142.727C179.593 141.189 183.524 140.215 186.315 139.625C187.711 139.33 188.822 139.131 189.587 139.005C189.969 138.943 190.264 138.898 190.465 138.869C190.565 138.855 190.642 138.844 190.694 138.837C190.72 138.834 190.74 138.831 190.754 138.83L190.77 138.828L190.776 138.827Z" fill="#5D3317"/>
<path fill-rule="evenodd" clip-rule="evenodd" d="M133.303 159.309C133.592 159.068 134.021 159.107 134.262 159.396L133.739 159.832C134.262 159.396 134.262 159.396 134.262 159.396L134.262 159.396L134.263 159.397L134.274 159.411L134.308 159.452C134.338 159.488 134.381 159.54 134.437 159.608C134.547 159.743 134.704 159.936 134.894 160.173C135.273 160.647 135.783 161.297 136.303 161.998C136.822 162.697 137.357 163.455 137.786 164.145C138.195 164.804 138.567 165.494 138.671 166.027L138.671 166.028C138.861 167.007 138.73 168.205 138.342 169.386C137.951 170.576 137.283 171.798 136.34 172.829C134.426 174.92 131.401 176.188 127.446 174.838C127.09 174.716 126.9 174.329 127.021 173.973C127.143 173.617 127.53 173.427 127.886 173.549C131.293 174.712 133.76 173.63 135.335 171.909C136.136 171.033 136.712 169.984 137.048 168.961C137.387 167.93 137.467 166.975 137.334 166.287C137.284 166.032 137.047 165.538 136.629 164.864C136.229 164.22 135.718 163.495 135.209 162.81C134.701 162.126 134.203 161.49 133.83 161.024C133.644 160.791 133.49 160.602 133.382 160.47C133.329 160.405 133.287 160.354 133.258 160.319L133.226 160.28L133.216 160.268C133.216 160.268 133.216 160.268 133.216 160.268M133.303 159.309C133.014 159.549 132.975 159.979 133.216 160.268L133.303 159.309Z" fill="#5D3317"/>
<path fill-rule="evenodd" clip-rule="evenodd" d="M138.44 164.612C138.44 164.612 138.44 164.612 138.44 164.612L138.44 164.612C138.44 164.612 138.44 164.612 138.44 164.612ZM138.439 164.611C138.172 164.347 137.741 164.35 137.477 164.617C137.212 164.884 137.215 165.315 137.482 165.58L137.961 165.096C137.482 165.58 137.482 165.58 137.482 165.58L137.483 165.581L137.484 165.582L137.488 165.586L137.501 165.598C137.511 165.608 137.525 165.622 137.544 165.639C137.58 165.673 137.631 165.72 137.698 165.778C137.83 165.893 138.021 166.052 138.264 166.231C138.747 166.588 139.444 167.035 140.294 167.384C142.005 168.088 144.374 168.406 146.801 166.773L146.801 166.773C148.953 165.325 149.829 163.643 150.142 162.281C150.296 161.609 150.311 161.029 150.285 160.611C150.273 160.403 150.25 160.233 150.229 160.112C150.219 160.052 150.209 160.003 150.201 159.968C150.197 159.95 150.194 159.935 150.191 159.924L150.188 159.91L150.186 159.905L150.186 159.902L150.186 159.901C150.185 159.901 150.185 159.901 149.527 160.074L150.185 159.901C150.089 159.537 149.717 159.32 149.353 159.416C148.991 159.511 148.774 159.881 148.867 160.244C148.867 160.243 148.867 160.243 148.867 160.243L148.867 160.244L148.867 160.244M148.867 160.244C148.868 160.245 148.868 160.246 148.868 160.247L148.868 160.246L148.868 160.245L148.867 160.244C148.868 160.246 148.869 160.251 148.871 160.259C148.874 160.275 148.88 160.303 148.887 160.342C148.9 160.419 148.916 160.539 148.926 160.694C148.945 161.005 148.935 161.452 148.814 161.976C148.577 163.006 147.9 164.391 146.041 165.643C144.1 166.949 142.239 166.711 140.812 166.124C140.093 165.829 139.494 165.446 139.073 165.135C138.864 164.981 138.702 164.846 138.593 164.751C138.539 164.704 138.499 164.667 138.473 164.643C138.46 164.631 138.451 164.622 138.445 164.617L138.44 164.612C138.44 164.611 138.439 164.611 138.439 164.611" fill="#5D3317"/>
<path d="M128.844 152.204C132.929 149.253 137.299 148.337 138.607 150.143C139.914 151.957 133.738 159.832 133.738 159.832C133.738 159.832 125.124 162.633 123.823 160.824C122.521 159.014 124.766 155.154 128.844 152.204Z" fill="#CB542F"/>
<path d="M203.473 318.506C203.473 318.506 204.964 309.844 198.121 305.793C198.121 305.793 194.24 303.331 185.998 308.116C177.756 312.9 174.971 323.624 180.206 328.316C185.441 333.008 187.089 326.312 187.089 326.312C187.089 326.312 189.204 328.286 192.103 326.972C195.002 325.658 195.237 321.917 195.237 321.917C195.237 321.917 201.239 325.514 203.473 318.506Z" fill="#F4F3B6"/>
<path d="M146.736 264.011C146.736 264.011 149.04 278.883 156.35 289.817C163.66 300.75 181.068 315.233 181.068 315.233C181.068 315.233 193.544 312.621 195.378 305.312C195.378 305.312 185.246 289.861 183.068 283.653C180.891 277.445 179.528 275.973 176.574 269.344C173.614 262.713 146.303 243.31 146.736 264.011Z" fill="#EAC652"/>
<path d="M125.243 206.872C125.243 206.872 117.402 214.141 113.173 223.263C107.895 234.641 107.166 248.916 107.166 248.916L117.178 252.796C117.178 252.796 125.858 232.933 137.1 225.469C153.971 214.267 143.135 206.988 143.135 206.988C143.135 206.988 135.863 199.187 125.243 206.872Z" fill="#EAC652"/>
<path d="M107.165 248.919C107.165 248.919 100.813 262.934 102.454 270.822C104.094 278.711 112.125 282.107 114.49 278.862C116.858 275.617 115.608 273.653 115.608 273.653C115.608 273.653 116.168 274.068 116.926 270.97C117.685 267.871 113.985 263.738 113.985 263.738L117.173 252.802C117.176 252.799 114.43 244.224 107.165 248.919Z" fill="#F4F3B6"/>
<path d="M1014.4 214.313L968.727 302.523L853.909 274.772L857.758 182.638L1014.4 214.313Z" fill="#FFD152"/>
<path d="M964.216 298.476L849.399 270.725C849.171 270.664 848.97 270.529 848.829 270.34C848.687 270.152 848.613 269.922 848.619 269.686L852.467 177.553C852.474 177.407 852.513 177.265 852.583 177.137C852.652 177.009 852.749 176.898 852.867 176.813C852.98 176.723 853.112 176.659 853.253 176.625C853.394 176.592 853.541 176.59 853.683 176.619L1010.32 208.293C1010.48 208.323 1010.63 208.39 1010.76 208.488C1010.88 208.586 1010.98 208.714 1011.05 208.859C1011.12 209 1011.15 209.155 1011.14 209.311C1011.14 209.467 1011.1 209.62 1011.02 209.756L965.327 297.857C965.241 298.072 965.083 298.251 964.881 298.363C964.679 298.476 964.444 298.516 964.216 298.476ZM850.639 268.935L963.872 296.306L1008.57 210.003L854.399 178.821L850.639 268.935Z" fill="#67676A"/>
<path d="M992.757 159.424L963.152 297.926L839.333 272.851L866.51 134.2L992.757 159.424Z" fill="white"/>
<path d="M962.952 298.916L839.129 273.862C838.87 273.804 838.642 273.649 838.494 273.427C838.347 273.206 838.29 272.936 838.337 272.674L865.518 134.002C865.573 133.74 865.725 133.508 865.942 133.352C866.169 133.207 866.443 133.156 866.706 133.21L992.953 158.434C993.086 158.459 993.212 158.511 993.323 158.588C993.435 158.664 993.529 158.763 993.599 158.878C993.744 159.105 993.795 159.379 993.741 159.642L964.136 298.144C964.079 298.402 963.923 298.628 963.702 298.772C963.48 298.916 963.211 298.968 962.952 298.916ZM840.519 272.059L962.378 296.743L991.547 160.212L867.3 135.388L840.519 272.059Z" fill="#67676A"/>
<path d="M959.191 211.123L909.169 201.129C909.124 201.123 909.081 201.108 909.043 201.084C909.004 201.061 908.971 201.03 908.944 200.993C908.918 200.957 908.9 200.915 908.891 200.871C908.881 200.827 908.881 200.781 908.89 200.737C908.92 200.66 908.977 200.596 909.05 200.556C909.124 200.517 909.209 200.505 909.29 200.523L959.413 210.537C959.501 210.56 959.578 210.615 959.629 210.691C959.68 210.767 959.701 210.859 959.688 210.949C959.669 210.996 959.641 211.037 959.605 211.072C959.569 211.106 959.526 211.132 959.479 211.149C959.432 211.165 959.382 211.171 959.332 211.167C959.282 211.163 959.234 211.148 959.191 211.123Z" fill="#67676A"/>
<path d="M954.919 232.498L910.796 223.682C910.71 223.665 910.635 223.614 910.586 223.542C910.538 223.469 910.52 223.38 910.537 223.294C910.554 223.209 910.605 223.133 910.677 223.085C910.75 223.036 910.839 223.019 910.925 223.036L955.048 231.851C955.133 231.868 955.209 231.919 955.257 231.992C955.306 232.064 955.324 232.153 955.306 232.239C955.289 232.325 955.239 232.4 955.166 232.449C955.093 232.497 955.004 232.515 954.919 232.498Z" fill="#67676A"/>
<path d="M950.645 253.892L906.522 245.077C906.436 245.054 906.361 244.999 906.314 244.923C906.266 244.848 906.25 244.756 906.268 244.669C906.285 244.583 906.335 244.508 906.408 244.459C906.481 244.411 906.57 244.393 906.655 244.41L950.778 253.226C950.866 253.243 950.944 253.293 950.996 253.366C951.047 253.439 951.069 253.529 951.057 253.618C951.034 253.706 950.98 253.783 950.904 253.834C950.828 253.885 950.736 253.905 950.645 253.892Z" fill="#67676A"/>
<path d="M874.784 161.653L889.924 185.456L962.723 199.014L963.15 297.926L821.896 269.368L821.376 150.835L874.784 161.653Z" fill="white"/>
<path d="M962.953 298.916L821.8 270.378C821.571 270.337 821.363 270.215 821.215 270.036C821.066 269.856 820.986 269.63 820.988 269.397L820.468 150.864C820.466 150.713 820.499 150.564 820.562 150.428C820.626 150.292 820.719 150.171 820.835 150.076C820.953 149.985 821.089 149.92 821.234 149.884C821.378 149.848 821.528 149.841 821.675 149.865L875.083 160.683C875.348 160.742 875.58 160.902 875.73 161.128L890.652 184.551L963.002 198.04C963.234 198.081 963.444 198.202 963.596 198.382C963.748 198.562 963.832 198.79 963.834 199.025L964.278 297.857C964.279 298.007 964.247 298.156 964.183 298.292C964.12 298.428 964.027 298.548 963.911 298.644C963.796 298.74 963.66 298.808 963.515 298.845C963.369 298.881 963.217 298.885 963.07 298.856L962.953 298.916ZM822.903 268.54L962.136 296.694L961.713 199.862L889.727 186.446C889.46 186.381 889.23 186.214 889.084 185.981L874.187 162.542L822.33 152.055L822.903 268.54Z" fill="#67676A"/>
<path d="M963.08 177.466L892.674 163.399C892.588 163.382 892.512 163.331 892.464 163.259C892.415 163.186 892.398 163.097 892.415 163.011C892.432 162.926 892.483 162.85 892.555 162.802C892.628 162.753 892.717 162.735 892.803 162.753L963.209 176.82C963.295 176.837 963.371 176.887 963.419 176.96C963.468 177.033 963.485 177.122 963.468 177.207C963.451 177.293 963.4 177.369 963.328 177.417C963.255 177.466 963.166 177.483 963.08 177.466Z" fill="#67676A"/>
<path d="M960.954 188.228L922.892 180.623C922.848 180.614 922.806 180.597 922.769 180.571C922.731 180.546 922.7 180.513 922.676 180.474C922.652 180.436 922.637 180.393 922.63 180.349C922.623 180.304 922.626 180.259 922.637 180.215C922.654 180.129 922.705 180.054 922.778 180.005C922.85 179.957 922.939 179.939 923.025 179.957L961.087 187.561C961.173 187.578 961.248 187.629 961.297 187.701C961.345 187.774 961.363 187.863 961.346 187.949C961.34 187.994 961.325 188.037 961.301 188.075C961.278 188.114 961.247 188.147 961.21 188.173C961.173 188.199 961.132 188.218 961.088 188.227C961.044 188.237 960.998 188.237 960.954 188.228Z" fill="#67676A"/>
<defs>
<clipPath id="clip0_299_10088">
<rect width="1140" height="172" fill="white" transform="translate(0 109)"/>
</clipPath>
<clipPath id="clip1_299_10088">
<rect width="471" height="172" fill="white" transform="translate(164 107)"/>
</clipPath>
</defs>
</svg>
