<svg width="1140" height="340" viewBox="0 0 1140 340" fill="none" xmlns="http://www.w3.org/2000/svg">
<path d="M867.791 269.267C874.639 268.021 881.141 271.879 882.23 277.864C883.319 283.85 878.594 289.766 871.745 291.012L662.437 329.08C655.57 330.329 649.065 326.455 647.976 320.469C646.888 314.484 651.615 308.584 658.482 307.335L867.791 269.267Z" fill="#A1DA67"/>
<path fill-rule="evenodd" clip-rule="evenodd" d="M868.003 187.934C870.275 187.521 872.719 188.768 874.83 191.469C876.948 194.179 878.433 197.953 879.14 201.837C879.846 205.721 879.784 209.771 878.753 213.042M878.753 213.042L861.483 268.193L863.622 267.804C870.676 266.521 877.494 270.485 878.643 276.804C879.792 283.122 874.811 289.25 867.756 290.533L865.322 290.975L868.811 310.16C868.86 310.428 868.686 310.685 868.42 310.74L853.946 313.711C853.814 313.738 853.677 313.711 853.565 313.636C853.454 313.56 853.377 313.443 853.353 313.311L849.804 293.798L680.409 324.607L683.488 338.391C683.549 338.66 683.379 338.928 683.109 338.988C682.84 339.048 682.573 338.878 682.513 338.609L679.425 324.786L666.615 327.115L668.493 338.418C668.538 338.69 668.354 338.948 668.082 338.993C667.809 339.038 667.552 338.854 667.506 338.582L665.632 327.294L658.447 328.601C651.374 329.887 644.555 325.907 643.405 319.588C642.256 313.269 647.241 307.159 654.313 305.872L838.171 272.433L862.858 193.647C863.883 190.375 865.731 188.347 868.003 187.934M839.282 272.231L860.372 268.395L877.799 212.743C878.768 209.667 878.842 205.788 878.156 202.016C877.47 198.244 876.035 194.634 874.042 192.085C872.043 189.527 869.933 188.599 868.182 188.918C866.431 189.236 864.783 190.847 863.812 193.946L839.282 272.231ZM850.112 292.725C850.114 292.725 850.116 292.725 850.117 292.724L864.651 290.081C864.653 290.081 864.655 290.08 864.656 290.08L867.577 289.549C874.219 288.341 878.687 282.636 877.659 276.983C876.631 271.331 870.444 267.58 863.801 268.788L654.492 306.856C647.831 308.068 643.361 313.757 644.389 319.409C645.417 325.062 651.607 328.829 658.268 327.617L850.112 292.725ZM850.788 293.619L854.246 312.629L867.74 309.858L864.338 291.154L850.788 293.619Z" fill="#67676A"/>
<path d="M697.639 202.226C697.639 202.226 674.885 205.512 661.435 194.784C647.988 184.054 645.993 163.906 645.993 163.906L658.072 159.319C658.072 159.319 670.008 173.839 672.42 175.193C674.834 176.55 691.092 177.475 691.092 177.475L697.639 202.226Z" fill="#D18163"/>
<path d="M799.462 205.661C799.462 205.661 802.766 160.187 800.44 155.088C791.821 136.211 775.814 119.883 775.814 119.883L768.198 132.63C768.198 132.63 773.294 151.808 774.269 154.425C775.24 157.042 767.155 182.001 767.155 182.001L799.462 205.661Z" fill="#D18163"/>
<path d="M769.092 136.651C761.303 130.02 766.936 118.712 771.241 113.522C771.958 112.655 772.812 111.818 773.992 111.619C775.171 111.42 776.731 112.118 777.113 113.321C777.56 111.632 779.843 110.941 781.578 111.937C783.313 112.937 784.083 115.346 783.158 116.773C785.613 115.553 789.209 118.25 790.014 121.136C790.818 124.021 789.731 126.749 788.6 129.211C785.393 136.185 778.355 144.533 769.092 136.651Z" fill="#EED7A9"/>
<path d="M772.94 123.08C773.518 123.106 774.103 123.273 774.649 123.59C776.581 124.708 779.447 126.848 778.9 130.386C778.498 132.99 776.345 133.962 774.524 133.751C772.762 133.548 770.883 132.492 769.901 130.245C767.903 125.684 770.341 122.964 772.94 123.08Z" fill="#CB542F"/>
<path d="M781.252 126.36C780.312 125.728 779.677 124.071 780.347 122.107C781.373 119.098 784.826 120.065 784.102 123.955C783.62 126.533 782.259 127.038 781.252 126.36Z" fill="#CB542F"/>
<path d="M776.663 122.109C775.723 121.477 775.088 119.82 775.759 117.856C776.784 114.847 780.237 115.814 779.513 119.703C779.036 122.281 777.672 122.784 776.663 122.109Z" fill="#CB542F"/>
<path d="M771.932 119.945C770.992 119.313 770.357 117.655 771.027 115.692C772.053 112.682 775.506 113.65 774.782 117.539C774.304 120.117 772.941 120.624 771.932 119.945Z" fill="#CB542F"/>
<path d="M823.36 72.1034C823.753 71.8391 824.227 71.4752 824.777 71.0325C825.05 70.793 825.344 70.5543 825.651 70.2758C825.958 70.0019 826.271 69.6567 826.608 69.3234C827.266 68.6352 827.946 67.7671 828.53 66.6595C829.108 65.5476 829.597 64.198 829.762 62.4861C829.985 60.1644 829.564 57.9292 828.321 55.9282C827.093 53.9238 825.036 52.1428 822.242 50.9918C819.466 49.8395 815.956 49.3262 812.284 49.7661C810.439 49.9661 808.588 50.4271 806.748 51.054C804.916 51.6963 803.14 52.5515 801.44 53.561C799.747 54.5768 798.16 55.7676 796.678 57.0694C795.201 58.3755 793.865 59.8151 792.641 61.3218C791.418 62.833 790.358 64.4373 789.405 66.0748C788.457 67.7164 787.667 69.4128 786.982 71.1059C786.323 72.8131 785.767 74.5196 785.354 76.2178C785.242 76.6373 785.157 77.0639 785.065 77.4842C784.978 77.9087 784.887 78.3175 784.811 78.7434C784.677 79.6055 784.528 80.4389 784.44 81.2816C784.058 84.643 784.173 87.8306 784.52 90.5099C784.52 90.5099 784.546 90.7822 784.594 91.2972C784.638 91.8171 784.742 92.5703 784.894 93.5345C785.205 95.4512 785.814 98.2026 786.92 101.267C787.054 101.657 787.197 102.042 787.353 102.425C787.508 102.811 787.665 103.209 787.826 103.613C788.164 104.39 788.512 105.221 788.9 106.014C789.278 106.834 789.69 107.631 790.11 108.457C790.537 109.254 790.981 110.087 791.442 110.885C792.36 112.501 793.341 114.108 794.337 115.677C795.331 117.244 796.337 118.787 797.31 120.294C799.26 123.308 801.071 126.201 802.367 128.856C802.699 129.497 802.98 130.232 803.291 130.926L803.752 131.978L804.138 133.053C804.694 134.469 805.092 135.922 805.494 137.355C806.247 140.23 806.613 143.116 806.762 145.842C806.78 146.184 806.796 146.523 806.811 146.858C806.818 147.024 806.836 147.192 806.833 147.359C806.831 147.526 806.828 147.692 806.825 147.859C806.819 148.522 806.811 149.172 806.807 149.807C806.762 150.446 806.721 151.07 806.68 151.674C806.654 151.977 806.653 152.277 806.612 152.572C806.574 152.87 806.538 153.16 806.502 153.446C806.468 153.718 806.435 154.011 806.398 154.327C806.36 154.645 806.336 154.98 806.264 155.337C806.143 156.054 806.011 156.855 805.865 157.724C805.77 158.159 805.676 158.611 805.574 159.078C805.526 159.312 805.474 159.551 805.425 159.792C805.398 159.913 805.374 160.036 805.349 160.159C805.316 160.282 805.284 160.404 805.251 160.527C805.119 161.023 804.986 161.536 804.847 162.06C804.775 162.324 804.721 162.59 804.635 162.859C804.551 163.126 804.463 163.397 804.377 163.671C804.206 164.218 804.032 164.779 803.855 165.348C803.649 165.911 803.439 166.489 803.225 167.071C803.118 167.364 803.019 167.66 802.903 167.954C802.78 168.246 802.657 168.543 802.532 168.838C802.28 169.43 802.048 170.039 801.776 170.639C800.693 173.049 799.41 175.504 798 177.908C796.543 180.289 794.983 182.629 793.326 184.792C791.658 186.946 789.975 188.973 788.292 190.733C784.972 194.292 781.86 196.909 779.96 198.361C778.609 199.406 777.082 200.784 775.951 202.421C775.378 203.224 774.931 204.148 774.631 205.089C774.334 206.036 774.22 207.063 774.367 208.163C774.634 210.106 776.075 212.83 778.049 214.971C779.038 216.043 780.163 216.965 781.334 217.575C782.505 218.181 783.739 218.495 784.865 218.284C785.625 218.152 786.348 217.85 787.045 217.474C787.739 217.092 788.376 216.601 789.015 216.134C791.172 214.552 793.65 212.555 796.339 210.223C799.025 207.884 801.854 205.13 804.702 202.042C807.545 198.944 810.381 195.482 813.031 191.695C815.675 187.907 818.13 183.801 820.235 179.478C822.342 175.158 824.098 170.617 825.381 166.031C826.672 161.446 827.484 156.82 827.829 152.385C827.874 151.831 827.916 151.28 827.962 150.735C827.978 150.185 827.993 149.641 828.008 149.103C828.031 148.023 828.085 146.961 828.03 145.919C827.992 144.875 827.979 143.853 827.915 142.854C827.826 141.856 827.737 140.882 827.654 139.931C827.196 136.145 826.54 132.773 825.741 130.02L825.325 128.534C825.253 128.285 825.19 128.037 825.111 127.791L824.863 127.062L823.861 124.143C823.083 122.245 822.359 120.334 821.436 118.451C819.643 114.722 817.653 111.408 815.798 108.287C813.943 105.173 812.197 102.258 810.842 99.4935C809.478 96.7337 808.514 94.1387 808.09 91.8032C807.653 89.4572 807.736 87.3995 808.23 85.3184C808.291 85.058 808.344 84.7983 808.435 84.5379C808.521 84.2734 808.581 84.02 808.676 83.7503C808.775 83.4802 808.861 83.2066 808.965 82.9407C809.079 82.6742 809.177 82.4066 809.29 82.1446C809.748 81.0942 810.296 80.0828 810.922 79.1434C812.169 77.2672 813.727 75.6787 815.34 74.5956C816.956 73.501 818.595 72.9346 819.984 72.8435C820.771 72.7946 821.367 72.7895 821.899 72.6864C822.032 72.6742 822.16 72.6442 822.285 72.603C822.41 72.5618 822.534 72.5413 822.655 72.4889C822.895 72.3684 823.13 72.2825 823.36 72.1034Z" fill="#D18163"/>
<path d="M823.36 72.1032C823.132 72.2844 822.894 72.3682 822.654 72.4842C822.535 72.5386 822.411 72.5592 822.284 72.5983C822.159 72.6395 822.031 72.6695 821.897 72.6816C821.366 72.7802 820.77 72.7854 819.983 72.8388C818.855 72.938 817.562 73.2847 816.251 74.0393C815.597 74.4097 814.927 74.8429 814.291 75.3764C813.653 75.9078 813.033 76.5064 812.441 77.1669C811.279 78.4977 810.245 80.0612 809.473 81.7562C809.267 82.1757 809.107 82.6102 808.927 83.0438C808.78 83.4842 808.607 83.9287 808.496 84.3458C808.224 85.1998 808.06 86.0366 807.945 86.8858C807.756 86.7993 807.543 86.655 807.368 86.4166C806.611 85.4878 806.056 84.3864 805.64 83.1583C805.257 81.9072 805.063 80.5645 805.063 79.1892C805.058 76.4389 805.879 73.5637 807.459 71.1398C805.706 72.3109 804.014 73.7378 802.479 75.4C801.696 76.2231 800.977 77.1168 800.268 78.0487C799.586 78.9922 798.906 79.9745 798.318 81.0186C798.223 81.1786 798.115 81.3442 797.993 81.5017C797.88 81.6586 797.755 81.8094 797.62 81.9267C797.351 82.1659 797.048 82.2956 796.742 82.156C796.446 82.0202 796.286 81.655 796.165 81.3053C795.733 80.0006 795.541 78.5321 795.669 77.0469C795.714 76.2987 795.865 75.5566 796.048 74.8166C796.264 74.0878 796.514 73.3543 796.861 72.6662C796.305 73.2258 795.896 73.9162 795.493 74.6244C795.124 75.353 794.749 76.0935 794.386 76.8102C794.19 77.1673 793.97 77.524 793.744 77.8674C793.512 78.2065 793.252 78.525 792.982 78.8054C792.455 79.3651 791.849 79.7639 791.203 79.7933C790.529 79.8248 789.933 79.4369 789.424 78.933C788.982 78.4904 788.591 77.9732 788.268 77.3917C787.954 76.8139 787.701 76.1655 787.501 75.4606C787.31 74.7596 787.197 74.0072 787.124 73.2039C787.079 72.4121 787.073 71.565 787.153 70.7024C789.215 65.6454 792.505 60.6941 796.946 56.8301C799.167 54.9049 801.662 53.261 804.316 52.0418C806.966 50.8183 809.775 50.024 812.506 49.7334C815.237 49.4384 817.878 49.6503 820.177 50.2803C822.481 50.9099 824.435 51.9333 825.938 53.1794C826.315 53.4898 826.66 53.8321 826.982 54.1671C827.302 54.509 827.6 54.8411 827.861 55.2171C828.126 55.5837 828.361 55.9547 828.574 56.3319C828.681 56.5206 828.778 56.7098 828.871 56.8995C828.962 57.0961 829.044 57.2934 829.12 57.4934C829.428 58.2908 829.638 59.0886 829.741 59.9218C829.843 60.7619 829.849 61.6135 829.765 62.4765C829.6 64.1883 829.111 65.538 828.533 66.6499C827.949 67.7575 827.271 68.6277 826.611 69.3138C826.276 69.6446 825.963 69.9898 825.654 70.2662C825.347 70.5447 825.053 70.7834 824.78 71.0229C824.226 71.475 823.752 71.8389 823.36 72.1032Z" fill="#EED7A9"/>
<path d="M812.933 107.18C812.336 108.994 811.524 110.672 810.512 112.165C809.502 113.656 808.294 114.965 806.929 116.067C804.197 118.269 800.871 119.696 797.253 120.207C795.128 116.925 792.859 113.469 790.91 109.942C793.351 109.657 795.334 109.241 795.818 109.089C798.084 108.357 800.197 107.461 802.252 106.49C805.452 104.972 808.518 103.272 811.754 101.569C811.798 101.548 811.844 101.524 811.888 101.502C812.394 102.431 812.919 103.368 813.479 104.334C813.455 105.275 813.238 106.269 812.933 107.18Z" fill="#CB542F"/>
<path d="M808.039 141.855C808.83 141.534 809.721 141.443 810.588 141.34C813.723 140.961 816.592 140.141 819.259 138.843C820.592 138.197 821.877 137.433 823.12 136.56C824.355 135.69 825.496 134.721 826.624 133.653C827.573 138.063 828.209 143.495 827.999 149.45C824.512 150.26 820.891 150.228 817.467 149.51C814.025 148.793 810.867 147.401 808.013 145.535C807.478 145.182 806.98 144.755 806.665 144.277C806.626 143.901 806.584 143.523 806.542 143.14C806.766 142.595 807.384 142.123 808.039 141.855Z" fill="#CB542F"/>
<path d="M820.985 177.874C819.851 180.363 818.565 182.768 817.225 185.11L817.214 185.113C815.255 185.482 813.336 185.491 811.553 185.241C809.764 184.984 808.084 184.446 806.515 183.663C804.952 182.886 803.518 181.881 802.226 180.701C800.927 179.516 799.75 178.143 798.722 176.644L799.276 175.68C799.463 175.363 799.617 175.029 799.79 174.704C800.122 174.049 800.475 173.408 800.789 172.759C801.093 172.106 801.396 171.46 801.696 170.816C801.854 170.499 801.983 170.174 802.115 169.851C802.25 169.53 802.38 169.21 802.512 168.892C806.068 172.55 809.945 176.018 815.007 177.949C815.479 178.129 816.411 178.125 817.515 178.068C818.617 178.019 819.852 177.885 820.985 177.874Z" fill="#CB542F"/>
<path d="M784.829 241.973C784.829 241.973 826.107 227.09 834.813 215.573C843.517 204.054 854.233 177.297 854.233 177.297L833.308 174.984L818.221 193.919C818.221 193.919 800.268 199.794 791.547 202.92C782.823 206.045 784.829 241.973 784.829 241.973Z" fill="#D18163"/>
<path d="M817.258 227.043C817.258 227.043 817.778 215.388 812.052 213.788C806.327 212.188 813.668 217.297 804.119 233.808L817.258 227.043Z" fill="#CB542F"/>
<path d="M834.813 215.573C834.813 215.573 830.546 208.056 827.63 207.688C824.716 207.319 828.62 214.092 826.221 222.775C826.221 222.775 831.204 220.979 834.813 215.573Z" fill="#CB542F"/>
<path d="M836.274 162.87C839.657 159.559 846.933 155.527 851.853 157.058C852.729 157.331 853.591 157.786 854.12 158.54C854.646 159.292 854.75 160.392 854.176 161.102C856.387 160.856 858.829 161.32 860.351 162.951C861.875 164.58 861.994 167.55 860.196 168.848C861.942 168.038 864.041 169.741 864.347 171.649C864.652 173.557 863.743 175.422 862.782 177.089C858.75 184.071 847.067 187.937 839.345 184.728C833.928 182.475 830.203 176.269 831.507 170.575C832.194 167.589 834.086 165.009 836.274 162.87Z" fill="#EED7A9"/>
<path d="M843.088 167.818C843.764 168.266 844.371 168.829 844.853 169.479C846.556 171.777 848.831 175.555 846.288 177.886C844.418 179.6 841.334 178.754 839.275 177.242C837.283 175.776 835.61 173.567 835.636 171.102C835.698 166.095 840.056 165.803 843.088 167.818Z" fill="#CB542F"/>
<path d="M851.242 176.517C850.457 175.332 850.589 173.58 852.434 172.559C855.265 170.996 858.862 174.304 855.923 176.773C853.974 178.411 852.082 177.792 851.242 176.517Z" fill="#CB542F"/>
<path d="M848.049 169.828C847.264 168.643 847.396 166.891 849.241 165.87C852.071 164.307 855.668 167.615 852.73 170.084C850.781 171.722 848.889 171.103 848.049 169.828Z" fill="#CB542F"/>
<path d="M843.566 164.648C842.781 163.464 842.913 161.711 844.758 160.69C847.588 159.127 851.185 162.435 848.247 164.904C846.3 166.539 844.408 165.921 843.566 164.648Z" fill="#CB542F"/>
<path d="M743.609 194.039C753.571 185.194 764.733 175.854 778.097 175.565C787.73 175.358 797.132 180.206 803.479 187.488C806.599 191.068 809.08 195.276 810.226 199.873C811.556 205.205 811.045 210.856 809.614 216.145C805.342 231.899 793.075 244.213 778.845 251.55C766.396 257.967 753.189 263.184 739.063 259.604C728.749 256.99 719.191 251.479 711.371 244.293C703.223 236.804 696.575 227.157 694.826 216.261C692.4 201.124 703.181 179.839 720.713 181.778C729.48 182.503 736.412 189.567 743.609 194.039Z" fill="#D18163"/>
<path d="M690.179 201.391C692.054 194.278 695.898 187.55 701.857 185.534C712.435 181.955 724.087 193.789 723.562 204.055C723.335 208.481 721.089 212.238 720.998 216.59C720.901 221.212 722.41 226.107 724.402 230.239C728.509 238.747 736.056 245.755 745.199 248.439C748.075 249.285 751.098 249.756 753.754 251.153C746.901 257.612 736.403 259.245 727.235 256.899C718.067 254.552 710.116 248.701 703.559 241.865C696.572 234.58 690.769 225.726 689.138 215.79C688.498 211.873 688.826 206.531 690.179 201.391Z" fill="#EED7A9"/>
<path d="M785.132 232.7C784.788 233.201 784.413 233.683 784.009 234.145C782.436 232.919 782.099 230.731 781.792 228.77C779.83 216.299 774.297 204.385 766.017 194.811C764.636 193.213 763.204 190.652 764.813 189.302C765.901 188.39 771.276 188.412 772.76 188.707C776.438 189.448 779.403 193.835 781.243 196.77C787.012 205.976 791.931 222.823 785.132 232.7Z" fill="#CB542F"/>
<path d="M799.817 215.253C799.59 215.815 799.33 216.367 799.035 216.909C797.237 216.053 796.431 213.988 795.703 212.136C791.078 200.369 783.093 189.928 772.942 182.368C771.248 181.106 769.297 178.913 770.569 177.245C771.43 176.117 776.675 174.969 778.186 174.94C781.933 174.864 785.776 178.51 788.206 180.979C795.836 188.725 804.296 204.123 799.817 215.253Z" fill="#CB542F"/>
<path d="M766.628 239.625C766.284 240.126 765.909 240.608 765.505 241.07C763.933 239.845 763.596 237.656 763.288 235.696C761.326 223.225 755.794 211.31 747.513 201.736C746.133 200.138 744.701 197.578 746.309 196.227C747.397 195.316 752.773 195.337 754.255 195.635C757.932 196.375 760.898 200.762 762.737 203.697C768.506 212.904 773.425 229.75 766.628 239.625Z" fill="#CB542F"/>
<path d="M756.189 248.624C756.189 248.624 748.437 266.358 740.285 275.866C732.136 285.373 714.792 295.692 714.792 295.692L701.703 285.118L721.62 259.869L733.706 230.132C738.269 222.515 748.547 220.727 755.496 226.341C762.533 232.023 762.858 242.604 756.189 248.624Z" fill="#D18163"/>
<path d="M716.625 300.278C716.625 300.278 722.716 294.16 718.693 287.607C718.693 287.607 716.502 283.76 706.375 283.508C696.252 283.256 687.854 290.371 690.061 296.643C692.269 302.915 697.429 298.429 697.429 298.429C697.429 298.429 698.28 301.026 701.638 301.407C704.995 301.788 707.258 298.947 707.258 298.947C707.258 298.947 710.761 304.726 716.625 300.278Z" fill="#EED7A9"/>
<path d="M752.527 256.203C752.527 256.203 741.568 250.484 738.785 245.522C736.002 240.559 756.94 245.693 756.94 245.693L752.527 256.203Z" fill="#CB542F"/>
<path d="M741.323 274.403C741.323 274.403 730.022 266.053 731.064 262.245C732.104 258.44 746.716 266.042 746.716 266.042L741.323 274.403Z" fill="#CB542F"/>
<path d="M773.345 158.16C773.345 158.16 803.417 145.34 811.584 152.384C819.754 159.425 807.639 186.523 794.079 200.886C780.517 215.251 754.665 234.824 727.337 229.23C700.008 223.635 679.775 209.62 672.892 180.33C666.008 151.04 680.352 119.638 689.227 106.759C698.101 93.8795 702.745 93.3885 708.629 99.1777C714.514 104.967 720.11 119.737 721.007 130.525C721.005 130.528 750.315 128.284 773.345 158.16Z" fill="#DDA684"/>
<path d="M728.46 147.992C725.032 147.338 727.961 137.921 730.824 131.275C734.718 131.952 739.526 133.192 744.778 135.448C740.93 139.688 732.232 148.712 728.46 147.992Z" fill="#CB542F"/>
<path d="M738.886 162.657C733.338 161.591 741.673 144.687 746.295 136.122C750.275 137.95 754.479 140.366 758.716 143.558C754.783 149.566 744.777 163.79 738.886 162.657Z" fill="#CB542F"/>
<path d="M756.712 164.299C753.632 162.742 757.432 151.038 760.167 144.68C763.118 147.023 766.072 149.75 768.966 152.929C765.955 157.236 759.542 165.73 756.712 164.299Z" fill="#CB542F"/>
<path d="M728.248 185.872C728.248 185.872 730.713 189.03 733.185 193.367C735.658 197.703 739.988 200.463 742.952 203.283C745.917 206.101 749.008 211.648 740.858 216.03C732.708 220.412 716.288 217.05 706.552 210.167C696.816 203.284 691.069 191.326 692.92 184.543C694.771 177.761 705.341 182.062 708.892 183.059C712.444 184.056 718.754 182.764 721.996 183.153C725.241 183.544 728.248 185.872 728.248 185.872Z" fill="#EED7A9"/>
<path d="M724.695 187.057L720.677 194.461" stroke="#3A1C16" stroke-width="2.1094" stroke-miterlimit="10"/>
<path d="M717.921 175.114C716.144 178.195 721.028 187.201 723.726 188.757C726.424 190.313 736.534 190.026 738.313 186.948C740.089 183.867 736.97 178.722 731.337 175.455C725.704 172.183 719.697 172.034 717.921 175.114Z" fill="#CB542F"/>
<path d="M731.155 202.271C731.155 202.271 722.827 199.376 721.392 192.861C721.392 192.861 714.727 194.205 708.412 190.289C708.412 190.289 703.208 200.674 714.901 206.184C726.598 211.693 731.155 202.271 731.155 202.271Z" fill="#3A1C16"/>
<path d="M730.595 203.192C729.07 205.417 724.282 210.605 714.9 206.184C714.026 205.773 713.257 205.329 712.565 204.871C719.101 198.89 726.889 201.406 730.595 203.192Z" fill="#CB542F"/>
<path d="M778.098 162.737C778.098 162.737 797.066 152.495 804.772 158.881C812.477 165.267 798.17 185.602 792.297 190.227C792.297 190.227 788.604 175.586 778.098 162.737Z" fill="#EED7A9"/>
<path d="M715.08 128.918C715.08 128.918 710.46 105.659 702.404 104.533C694.346 103.404 685.479 121.49 683.528 133.276C683.532 133.275 696.426 127.76 715.08 128.918Z" fill="#EED7A9"/>
<path d="M778.012 173.961C778.012 173.961 773.148 168.675 771.823 167.568C770.498 166.462 772.379 162.714 775.489 165.075C778.601 167.438 780.199 175.015 778.012 173.961Z" fill="#3A1C16"/>
<path d="M705.116 134.228C705.116 134.228 709.765 130.788 713.98 132.337C718.195 133.885 715.932 137.771 714.409 137.274C710.395 135.957 704.647 135.68 705.116 134.228Z" fill="#3A1C16"/>
<path fill-rule="evenodd" clip-rule="evenodd" d="M762.118 195.927L762.118 195.926L762.125 195.912C762.132 195.899 762.143 195.877 762.157 195.847C762.187 195.786 762.231 195.694 762.285 195.573C762.394 195.329 762.544 194.972 762.702 194.526C763.021 193.631 763.367 192.403 763.493 191.047C763.742 188.357 763.134 185.27 759.793 183.133C756.359 180.937 753.455 181.311 751.24 182.376C748.959 183.474 747.378 185.332 746.825 186.08C746.491 186.532 745.853 186.625 745.399 186.289C744.945 185.953 744.847 185.315 745.181 184.863C745.826 183.99 747.643 181.84 750.346 180.539C753.115 179.207 756.78 178.793 760.885 181.419C765.084 184.104 765.817 188.08 765.524 191.247C765.378 192.821 764.981 194.22 764.625 195.22C764.446 195.722 764.275 196.129 764.148 196.414C764.084 196.556 764.031 196.668 763.993 196.747C763.974 196.786 763.959 196.817 763.948 196.839C763.942 196.85 763.938 196.858 763.934 196.865L763.93 196.873L763.929 196.876L763.928 196.877C763.928 196.877 763.928 196.878 763.023 196.402L763.928 196.878C763.668 197.376 763.052 197.566 762.552 197.304C762.053 197.041 761.858 196.426 762.117 195.928C762.117 195.928 762.117 195.928 762.117 195.928C762.117 195.928 762.117 195.928 762.117 195.928C762.117 195.927 762.117 195.927 762.118 195.927Z" fill="#3A1C16"/>
<path fill-rule="evenodd" clip-rule="evenodd" d="M711.122 169.752L711.123 169.751L711.13 169.737C711.136 169.724 711.147 169.702 711.162 169.672C711.191 169.611 711.235 169.519 711.29 169.397C711.398 169.154 711.548 168.797 711.707 168.351C712.026 167.456 712.371 166.228 712.497 164.872C712.747 162.182 712.138 159.095 708.797 156.958C705.363 154.762 702.459 155.136 700.245 156.201C697.964 157.299 696.383 159.157 695.829 159.905C695.496 160.357 694.857 160.45 694.403 160.114C693.949 159.778 693.852 159.139 694.186 158.688C694.831 157.815 696.648 155.664 699.35 154.364C702.119 153.032 705.784 152.618 709.89 155.244C714.088 157.929 714.822 161.905 714.528 165.072C714.383 166.646 713.986 168.045 713.629 169.045C713.451 169.547 713.28 169.954 713.153 170.239C713.089 170.381 713.036 170.493 712.998 170.572C712.979 170.611 712.963 170.642 712.952 170.664C712.947 170.675 712.942 170.683 712.939 170.69L712.935 170.698L712.933 170.701L712.933 170.702C712.932 170.702 712.932 170.703 712.027 170.227L712.932 170.703C712.672 171.201 712.057 171.391 711.557 171.129C711.057 170.866 710.863 170.251 711.122 169.753C711.122 169.753 711.122 169.753 711.122 169.753C711.122 169.753 711.122 169.753 711.122 169.752C711.122 169.752 711.122 169.752 711.122 169.752Z" fill="#3A1C16"/>
<path fill-rule="evenodd" clip-rule="evenodd" d="M779.22 221.878L779.781 221.496C779.993 221.807 779.915 222.229 779.606 222.44C779.296 222.65 778.873 222.57 778.66 222.26L778.66 222.259L778.66 222.259L778.659 222.258L778.653 222.248C778.646 222.24 778.637 222.226 778.623 222.207C778.597 222.169 778.555 222.112 778.499 222.036C778.387 221.883 778.215 221.656 777.982 221.362C777.515 220.774 776.802 219.921 775.825 218.87C773.87 216.769 770.86 213.881 766.651 210.755C758.236 204.503 745.022 197.293 725.864 193.524C725.496 193.452 725.254 193.094 725.324 192.726C725.394 192.358 725.751 192.118 726.119 192.191C745.492 196.002 758.892 203.302 767.458 209.666C771.74 212.847 774.813 215.792 776.818 217.948C777.821 219.026 778.558 219.907 779.045 220.521C779.289 220.829 779.471 221.069 779.593 221.234C779.654 221.317 779.699 221.381 779.731 221.425C779.746 221.447 779.758 221.464 779.767 221.476L779.776 221.49L779.779 221.494L779.78 221.495C779.78 221.496 779.781 221.496 779.22 221.878Z" fill="#3A1C16"/>
<path fill-rule="evenodd" clip-rule="evenodd" d="M776.709 228.347C776.929 228.653 777.354 228.724 777.659 228.506C777.963 228.289 778.032 227.865 777.812 227.559L777.261 227.953C777.812 227.559 777.812 227.559 777.812 227.558L777.811 227.557L777.808 227.553L777.798 227.539C777.789 227.527 777.776 227.509 777.759 227.486C777.725 227.44 777.675 227.372 777.609 227.284C777.476 227.107 777.279 226.849 777.019 226.519C776.499 225.857 775.726 224.906 774.71 223.74C772.677 221.408 769.67 218.215 765.763 214.759C757.953 207.85 746.526 199.873 732.089 195.651C731.728 195.546 731.352 195.752 731.248 196.112C731.145 196.472 731.353 196.85 731.714 196.955C745.898 201.102 757.151 208.95 764.865 215.774C768.72 219.184 771.686 222.334 773.686 224.629C774.687 225.776 775.445 226.709 775.952 227.354C776.205 227.676 776.396 227.927 776.523 228.095C776.586 228.179 776.633 228.243 776.664 228.286C776.68 228.307 776.692 228.323 776.699 228.333L776.707 228.344L776.709 228.347L776.709 228.347Z" fill="#3A1C16"/>
<path fill-rule="evenodd" clip-rule="evenodd" d="M770.264 233.721L770.894 233.47C771.035 233.819 770.867 234.214 770.519 234.352C770.171 234.491 769.775 234.321 769.634 233.973L769.634 233.973L769.633 233.972L769.633 233.971L769.629 233.962C769.626 233.954 769.62 233.941 769.613 233.922C769.597 233.886 769.573 233.829 769.539 233.754C769.472 233.603 769.367 233.376 769.221 233.08C768.93 232.489 768.473 231.62 767.82 230.527C766.513 228.342 764.417 225.26 761.273 221.702C754.987 214.588 744.504 205.563 727.741 198.001C727.398 197.846 727.244 197.444 727.397 197.102C727.55 196.76 727.952 196.609 728.295 196.763C745.241 204.408 755.88 213.552 762.29 220.806C765.494 224.432 767.639 227.583 768.986 229.836C769.66 230.962 770.134 231.863 770.441 232.486C770.594 232.798 770.706 233.04 770.78 233.207C770.817 233.29 770.845 233.354 770.864 233.398C770.873 233.42 770.88 233.437 770.885 233.449L770.891 233.464L770.893 233.468L770.894 233.469C770.894 233.47 770.894 233.47 770.264 233.721Z" fill="#3A1C16"/>
<path fill-rule="evenodd" clip-rule="evenodd" d="M714.201 190.66C714.41 190.35 714.326 189.927 714.015 189.716L713.636 190.278C714.015 189.716 714.014 189.716 714.014 189.716L714.009 189.712L713.993 189.702C713.98 189.693 713.961 189.68 713.936 189.664C713.885 189.63 713.81 189.581 713.712 189.517C713.515 189.389 713.224 189.203 712.845 188.967C712.087 188.497 710.976 187.828 709.556 187.033C706.718 185.445 702.644 183.35 697.696 181.322C687.809 177.271 674.386 173.47 660.337 174.552C659.962 174.581 659.684 174.908 659.715 175.282C659.746 175.656 660.075 175.936 660.449 175.907C674.205 174.847 687.403 178.57 697.187 182.579C702.074 184.581 706.097 186.65 708.897 188.218C710.297 189.001 711.39 189.659 712.132 190.12C712.503 190.351 712.786 190.532 712.975 190.655C713.07 190.716 713.141 190.763 713.189 190.794C713.212 190.81 713.23 190.822 713.241 190.83L713.254 190.838L713.257 190.84" fill="#3A1C16"/>
<path fill-rule="evenodd" clip-rule="evenodd" d="M713.132 187.067C713.372 186.779 713.332 186.351 713.042 186.11L712.609 186.63C713.042 186.11 713.042 186.109 713.042 186.109L713.041 186.108L713.037 186.105L713.024 186.094C713.012 186.085 712.995 186.071 712.973 186.053C712.929 186.017 712.864 185.964 712.778 185.895C712.607 185.758 712.353 185.558 712.021 185.304C711.355 184.796 710.374 184.071 709.103 183.197C706.563 181.449 702.864 179.107 698.223 176.72C688.944 171.949 675.872 166.986 660.737 166.262C660.362 166.244 660.045 166.533 660.029 166.908C660.014 167.283 660.305 167.601 660.68 167.619C675.561 168.331 688.44 173.214 697.606 177.928C702.188 180.284 705.836 182.594 708.337 184.314C709.587 185.174 710.55 185.886 711.199 186.382C711.523 186.629 711.769 186.823 711.932 186.954C712.014 187.02 712.076 187.069 712.116 187.102C712.137 187.119 712.152 187.131 712.161 187.139L712.172 187.148L712.175 187.15" fill="#3A1C16"/>
<path fill-rule="evenodd" clip-rule="evenodd" d="M717.453 189.691L717.452 189.69L717.445 189.681C717.439 189.672 717.428 189.659 717.414 189.64C717.386 189.604 717.343 189.549 717.284 189.475C717.167 189.328 716.988 189.109 716.746 188.826C716.261 188.26 715.524 187.438 714.519 186.427C712.511 184.404 709.436 181.624 705.188 178.615C696.692 172.598 683.498 165.662 664.737 162.042C664.368 161.971 664.125 161.614 664.194 161.246C664.263 160.878 664.618 160.637 664.987 160.708C683.957 164.368 697.33 171.389 705.97 177.508C710.289 180.567 713.423 183.399 715.482 185.473C716.511 186.509 717.272 187.356 717.777 187.947C718.03 188.242 718.219 188.473 718.346 188.632C718.409 188.711 718.457 188.773 718.489 188.815C718.506 188.836 718.518 188.852 718.527 188.864L718.537 188.877L718.54 188.881L718.541 188.882C718.541 188.883 718.541 188.883 717.997 189.287L718.541 188.883C718.767 189.185 718.706 189.61 718.405 189.833C718.105 190.056 717.679 189.993 717.453 189.691L717.453 189.691L717.453 189.691Z" fill="#3A1C16"/>
<path d="M657.816 153.045C657.816 153.045 662.05 160.764 656.304 166.042C656.304 166.042 653.093 169.186 643.157 166.561C633.219 163.932 627.016 154.584 630.916 149.065C634.815 143.549 638.597 149.408 638.597 149.408C638.597 149.408 640.148 147.109 643.528 147.689C646.909 148.268 648.321 151.693 648.321 151.693C648.321 151.693 653.34 147.023 657.816 153.045Z" fill="#EED7A9"/>
<path d="M673.34 286.928L637.481 260.208L599.04 252.747L629.197 278L673.34 286.928Z" fill="#D0D0F3"/>
<path d="M628.823 218.71L595.371 198.352C593.034 196.93 590.082 198.753 590.325 201.469L595.219 256.076L627.925 283.47L628.823 218.71Z" fill="#9B9BE5"/>
<path d="M671.156 292.11L630.833 285.118C628.573 284.726 626.871 282.83 626.727 280.545L623.041 221.41C622.921 219.486 624.472 217.876 626.404 217.923C628.154 217.967 629.576 219.361 629.648 221.106L632.053 278.656L671.697 285.953C673.709 286.322 674.92 288.407 674.232 290.326C673.78 291.589 672.483 292.341 671.156 292.11Z" fill="#B1B1EB"/>
<path fill-rule="evenodd" clip-rule="evenodd" d="M73.5344 281.674C73.4613 281.94 73.618 282.215 73.8843 282.288C76.0783 282.89 78.4153 282.094 79.4107 280.255C79.4107 280.255 79.4107 280.255 79.4107 280.255L82.5407 274.473C82.6721 274.23 82.5818 273.926 82.339 273.795C82.0961 273.663 81.7927 273.754 81.6613 273.997L78.5313 279.779C77.8018 281.127 75.9912 281.829 74.1488 281.324C73.8825 281.251 73.6074 281.407 73.5344 281.674Z" fill="#67676A"/>
<path fill-rule="evenodd" clip-rule="evenodd" d="M98.2815 285.43C98.1997 287.519 99.8039 289.395 101.998 289.997C102.264 290.07 102.539 289.913 102.612 289.647C102.685 289.381 102.529 289.106 102.262 289.033C100.42 288.527 99.2208 287 99.2807 285.469C99.2807 285.469 99.2807 285.469 99.2807 285.469L99.5381 278.898C99.5489 278.622 99.334 278.39 99.058 278.379C98.7821 278.368 98.5496 278.583 98.5388 278.859L98.2815 285.43Z" fill="#67676A"/>
<path fill-rule="evenodd" clip-rule="evenodd" d="M65.4233 283.365C65.3502 283.631 65.5069 283.906 65.7732 283.979L108.113 295.589C108.38 295.662 108.655 295.506 108.728 295.239C109.37 292.896 107.676 290.517 105.142 289.822L71.2703 280.534C68.7364 279.839 66.0658 281.022 65.4233 283.365ZM66.5644 283.159C67.2405 281.764 69.071 280.968 71.0058 281.499L104.878 290.787C106.813 291.317 107.981 292.935 107.851 294.48L66.5644 283.159Z" fill="#67676A"/>
<path d="M121.909 287.014L60.234 270.102C57.8956 269.461 56.447 267.311 56.9985 265.3L67.0505 228.642C67.602 226.63 69.9448 225.52 72.2831 226.161L133.959 243.073C136.297 243.714 137.746 245.865 137.194 247.876L127.142 284.534C126.591 286.545 124.248 287.655 121.909 287.014Z" fill="#8FA9FF"/>
<path fill-rule="evenodd" clip-rule="evenodd" d="M56.0144 263.166C55.3719 265.509 57.066 267.888 59.5998 268.583L121.275 285.495C123.809 286.19 126.48 285.007 127.122 282.664L137.174 246.006C137.817 243.663 136.123 241.284 133.589 240.589L71.9134 223.677C69.3796 222.982 66.7089 224.165 66.0664 226.508L56.0144 263.166ZM59.8643 267.618C57.7215 267.031 56.5183 265.109 56.9788 263.43L67.0308 226.772C67.4913 225.093 69.5062 224.054 71.649 224.642L133.324 241.554C135.467 242.141 136.67 244.063 136.21 245.742L126.158 282.4C125.697 284.079 123.683 285.118 121.54 284.531L59.8643 267.618Z" fill="#67676A"/>
<path d="M63.7266 253.534L70.783 227.801L132.458 244.713L123.405 277.73L61.7295 260.817L63.7266 253.534Z" fill="white"/>
<path fill-rule="evenodd" clip-rule="evenodd" d="M61.2472 260.685C61.1742 260.952 61.3309 261.227 61.5972 261.3L123.273 278.212C123.539 278.285 123.814 278.128 123.887 277.862L132.941 244.845C133.014 244.579 132.857 244.304 132.591 244.231L70.9152 227.319C70.6489 227.246 70.3738 227.402 70.3008 227.669L61.2472 260.685ZM62.3439 260.468L71.1329 228.415L131.844 245.063L123.055 277.115L62.3439 260.468Z" fill="#67676A"/>
<circle cx="251.5" cy="245.5" r="21.5" fill="#FFD152"/>
<path fill-rule="evenodd" clip-rule="evenodd" d="M242.438 224.573C239.736 225.485 237.287 226.945 235.221 228.82L235.205 228.835L235.188 228.848C234.154 229.636 233.149 230.826 232.243 232.252L232.9 238.612L241.083 241.272L248.499 235.884V227.279L242.438 224.573ZM243.913 224.136L248.999 226.407L254.085 224.136C252.459 223.721 250.755 223.5 248.999 223.5C247.243 223.5 245.539 223.721 243.913 224.136ZM255.505 223.502C253.453 222.851 251.267 222.5 248.999 222.5C243.444 222.5 238.38 224.607 234.565 228.066C232.616 229.558 230.859 232.237 229.591 235.152C228.315 238.082 227.5 241.331 227.5 243.999C227.5 255.873 237.126 265.499 248.999 265.499C257.227 265.499 264.374 260.877 267.988 254.09L268.004 254.06L268.016 254.028C268.436 252.886 269.054 251.046 269.567 249.167C270.076 247.304 270.499 245.347 270.499 243.999C270.499 239.525 269.132 235.37 266.793 231.929L266.793 231.928L266.688 231.776C264.044 227.956 260.196 225.035 255.689 223.561L255.635 223.543C255.591 223.529 255.548 223.516 255.505 223.502ZM255.56 224.572C259.718 225.976 263.279 228.677 265.76 232.195L265.098 238.612L256.915 241.272L249.499 235.884V227.279L255.56 224.572ZM248.999 236.757L241.758 242.017L244.524 250.529H253.474L256.239 242.017L248.999 236.757ZM257.224 242.223L254.391 250.942L259.451 257.902L265.099 256.69C265.848 255.741 266.515 254.724 267.089 253.65C267.501 252.529 268.102 250.733 268.602 248.904C269.085 247.135 269.459 245.385 269.496 244.185L265.404 239.564L257.224 242.223ZM266.081 238.82L266.628 233.531C268.232 236.226 269.235 239.32 269.453 242.629L266.081 238.82ZM264.026 257.943L259.559 258.901L257.337 262.732C259.883 261.597 262.154 259.959 264.026 257.943ZM255.833 263.332L258.642 258.489L253.583 251.529H244.415L239.356 258.49L242.14 263.323C244.285 264.084 246.594 264.499 248.999 264.499C251.395 264.499 253.696 264.087 255.833 263.332ZM240.64 262.722L238.439 258.901L233.973 257.943C235.839 259.953 238.103 261.588 240.64 262.722ZM232.9 256.69L238.548 257.901L243.606 250.942L240.773 242.223L232.593 239.564L228.501 244.188C228.543 248.907 230.181 253.246 232.9 256.69ZM228.573 242.597L231.916 238.82L231.39 233.721C231.077 234.308 230.781 234.921 230.507 235.551C229.492 237.884 228.792 240.395 228.573 242.597Z" fill="#67676A"/>
<path d="M45.9082 195.184L41.4358 196.618C39.8581 197.124 38.9893 198.813 39.4953 200.391L40.9298 204.864C41.4358 206.441 43.125 207.31 44.7027 206.804L49.1752 205.37C50.7529 204.863 51.6216 203.174 51.1156 201.597L49.6811 197.124C49.1751 195.546 47.4859 194.678 45.9082 195.184Z" fill="#D0ECB3"/>
<path fill-rule="evenodd" clip-rule="evenodd" d="M46.2136 196.136L41.7412 197.57C40.6894 197.908 40.1102 199.034 40.4476 200.086L41.882 204.558C42.2194 205.61 43.3455 206.189 44.3973 205.852L48.8698 204.417C49.9215 204.08 50.5007 202.954 50.1634 201.902L48.7289 197.43C48.3916 196.378 47.2654 195.799 46.2136 196.136ZM41.4358 196.618L45.9082 195.184C47.4859 194.678 49.1751 195.546 49.6811 197.124L51.1156 201.597C51.6216 203.174 50.7529 204.863 49.1752 205.37L44.7027 206.804C43.125 207.31 41.4358 206.441 40.9298 204.864L39.4953 200.391C38.9893 198.813 39.8581 197.124 41.4358 196.618Z" fill="#67676A"/>
<path d="M214.353 233.902L211.68 234.76C210.102 235.266 209.233 236.955 209.74 238.532L210.597 241.206C211.103 242.783 212.792 243.652 214.37 243.146L217.043 242.289C218.621 241.783 219.489 240.093 218.983 238.516L218.126 235.843C217.62 234.265 215.931 233.396 214.353 233.902Z" fill="#FED8F5"/>
<path fill-rule="evenodd" clip-rule="evenodd" d="M213.835 234.031L211.162 234.889C210.11 235.226 209.531 236.352 209.868 237.404L210.726 240.077C211.063 241.129 212.189 241.708 213.241 241.371L215.914 240.513C216.966 240.176 217.545 239.05 217.208 237.998L216.35 235.325C216.013 234.273 214.887 233.694 213.835 234.031ZM210.857 233.936L213.53 233.079C215.108 232.573 216.797 233.442 217.303 235.019L218.16 237.693C218.666 239.27 217.797 240.959 216.22 241.465L213.547 242.323C211.969 242.829 210.28 241.96 209.774 240.382L208.916 237.709C208.41 236.132 209.279 234.442 210.857 233.936Z" fill="#67676A"/>
<path d="M599.476 300.224L595.857 301.385C594.279 301.891 593.41 303.58 593.916 305.157L595.077 308.776C595.583 310.354 597.272 311.223 598.85 310.717L602.469 309.556C604.047 309.05 604.915 307.361 604.409 305.783L603.249 302.164C602.743 300.587 601.053 299.718 599.476 300.224Z" fill="#DDE5FF"/>
<path d="M600.56 300.308L596.941 301.468C595.363 301.974 594.494 303.663 595 305.241L596.161 308.86C596.667 310.438 598.356 311.307 599.934 310.801L603.553 309.64C605.131 309.134 605.999 307.445 605.493 305.867L604.333 302.248C603.827 300.67 602.137 299.802 600.56 300.308Z" fill="#DDE5FF"/>
<path fill-rule="evenodd" clip-rule="evenodd" d="M600.865 301.26L597.246 302.421C596.194 302.758 595.615 303.884 595.952 304.936L597.113 308.555C597.451 309.607 598.577 310.186 599.628 309.848L603.247 308.688C604.299 308.35 604.878 307.224 604.541 306.172L603.38 302.553C603.043 301.502 601.917 300.922 600.865 301.26ZM596.941 301.468L600.56 300.308C602.137 299.802 603.827 300.67 604.333 302.248L605.493 305.867C605.999 307.445 605.131 309.134 603.553 309.64L599.934 310.801C598.356 311.307 596.667 310.438 596.161 308.86L595 305.241C594.494 303.663 595.363 301.974 596.941 301.468Z" fill="#67676A"/>
<path d="M954.215 220.307L948.069 222.278C946.492 222.784 945.623 224.473 946.129 226.051L948.1 232.197C948.606 233.775 950.295 234.643 951.873 234.137L958.019 232.166C959.597 231.66 960.465 229.971 959.959 228.393L957.988 222.247C957.482 220.67 955.793 219.801 954.215 220.307Z" fill="#FFF1CB"/>
<path fill-rule="evenodd" clip-rule="evenodd" d="M952.899 220.366L946.753 222.337C945.701 222.674 945.122 223.8 945.459 224.852L947.43 230.998C947.768 232.05 948.894 232.629 949.946 232.292L956.092 230.32C957.143 229.983 957.723 228.857 957.385 227.805L955.414 221.659C955.077 220.607 953.95 220.028 952.899 220.366ZM946.447 221.385L952.593 219.413C954.171 218.907 955.86 219.776 956.366 221.354L958.337 227.5C958.843 229.077 957.975 230.767 956.397 231.273L950.251 233.244C948.673 233.75 946.984 232.881 946.478 231.303L944.507 225.157C944.001 223.58 944.87 221.891 946.447 221.385Z" fill="#67676A"/>
<path d="M297.778 314.135L296.857 314.43C295.279 314.936 294.41 316.625 294.916 318.203L295.212 319.124C295.718 320.702 297.407 321.571 298.985 321.065L299.906 320.769C301.483 320.263 302.352 318.574 301.846 316.996L301.551 316.075C301.045 314.497 299.356 313.629 297.778 314.135Z" fill="#FFF1CB"/>
<path d="M298.548 314.194L297.627 314.49C296.05 314.996 295.181 316.685 295.687 318.263L295.982 319.184C296.488 320.762 298.178 321.63 299.755 321.124L300.676 320.829C302.254 320.323 303.123 318.634 302.617 317.056L302.321 316.135C301.815 314.557 300.126 313.688 298.548 314.194Z" fill="#FFF1CB"/>
<path fill-rule="evenodd" clip-rule="evenodd" d="M298.854 315.147L297.933 315.442C296.881 315.779 296.302 316.905 296.639 317.957L296.935 318.878C297.272 319.93 298.398 320.509 299.45 320.172L300.371 319.877C301.423 319.539 302.002 318.413 301.665 317.361L301.369 316.44C301.032 315.388 299.906 314.809 298.854 315.147ZM297.627 314.49L298.548 314.194C300.126 313.688 301.815 314.557 302.321 316.135L302.617 317.056C303.123 318.634 302.254 320.323 300.676 320.829L299.755 321.124C298.178 321.63 296.488 320.762 295.982 319.184L295.687 318.263C295.181 316.685 296.05 314.996 297.627 314.49Z" fill="#67676A"/>
<path d="M488.007 197.22L487.086 197.515C485.508 198.021 484.64 199.71 485.146 201.288L485.441 202.209C485.947 203.787 487.636 204.656 489.214 204.15L490.135 203.854C491.713 203.348 492.582 201.659 492.076 200.081L491.78 199.16C491.274 197.582 489.585 196.714 488.007 197.22Z" fill="#D0ECB3"/>
<path d="M486.778 197.279L485.857 197.575C484.279 198.081 483.41 199.77 483.916 201.348L484.212 202.269C484.718 203.847 486.407 204.715 487.985 204.209L488.906 203.914C490.483 203.408 491.352 201.719 490.846 200.141L490.551 199.22C490.045 197.642 488.356 196.773 486.778 197.279Z" fill="#D0ECB3"/>
<path fill-rule="evenodd" clip-rule="evenodd" d="M487.083 198.231L486.162 198.527C485.11 198.864 484.531 199.99 484.868 201.042L485.164 201.963C485.501 203.015 486.627 203.594 487.679 203.257L488.6 202.962C489.652 202.624 490.231 201.498 489.894 200.446L489.599 199.525C489.261 198.473 488.135 197.894 487.083 198.231ZM485.857 197.575L486.778 197.279C488.356 196.773 490.045 197.642 490.551 199.22L490.846 200.141C491.352 201.719 490.483 203.408 488.906 203.914L487.985 204.209C486.407 204.715 484.718 203.847 484.212 202.269L483.916 201.348C483.41 199.77 484.279 198.081 485.857 197.575Z" fill="#67676A"/>
<path d="M1036.01 309.22L1035.09 309.515C1033.51 310.021 1032.64 311.71 1033.15 313.288L1033.44 314.209C1033.95 315.787 1035.64 316.656 1037.21 316.15L1038.14 315.854C1039.71 315.348 1040.58 313.659 1040.08 312.081L1039.78 311.16C1039.27 309.582 1037.59 308.714 1036.01 309.22Z" fill="#D0ECB3"/>
<path d="M1034.78 309.279L1033.86 309.575C1032.28 310.081 1031.41 311.77 1031.92 313.348L1032.21 314.269C1032.72 315.847 1034.41 316.715 1035.98 316.209L1036.91 315.914C1038.48 315.408 1039.35 313.719 1038.85 312.141L1038.55 311.22C1038.04 309.642 1036.36 308.773 1034.78 309.279Z" fill="#D0ECB3"/>
<path fill-rule="evenodd" clip-rule="evenodd" d="M1035.08 310.231L1034.16 310.527C1033.11 310.864 1032.53 311.99 1032.87 313.042L1033.16 313.963C1033.5 315.015 1034.63 315.594 1035.68 315.257L1036.6 314.962C1037.65 314.624 1038.23 313.498 1037.89 312.446L1037.6 311.525C1037.26 310.473 1036.14 309.894 1035.08 310.231ZM1033.86 309.575L1034.78 309.279C1036.36 308.773 1038.04 309.642 1038.55 311.22L1038.85 312.141C1039.35 313.719 1038.48 315.408 1036.91 315.914L1035.98 316.209C1034.41 316.715 1032.72 315.847 1032.21 314.269L1031.92 313.348C1031.41 311.77 1032.28 310.081 1033.86 309.575Z" fill="#67676A"/>
<path d="M961.812 165.416C990.798 149.594 1017.42 152.929 1041.45 162.379C1085.65 179.741 1102.05 216.573 1099.76 246.064L939.723 183.184C945.525 176.369 953.004 170.223 961.812 165.416Z" fill="#FF80DD"/>
<path d="M981.552 194.92L1053.48 223.181C1060.68 205.759 1059.11 178.113 1041.42 157.77C1039.99 157.139 1038.53 156.529 1037.03 155.942C1009.72 158.616 988.804 177.503 981.552 194.92Z" fill="white"/>
<path fill-rule="evenodd" clip-rule="evenodd" d="M1034.95 155.675C1011.5 146.832 985.684 144.103 957.628 159.418C949.102 164.071 941.833 169.984 936.138 176.539L981.281 194.276C988.583 177.262 1008.67 159.05 1034.95 155.675ZM1036.96 156.451C1010.15 159.125 989.564 177.544 982.212 194.642L1053.21 222.535C1060.11 205.275 1058.45 178.188 1041.12 158.182C1039.76 157.586 1038.37 157.009 1036.96 156.451ZM1041.69 157.344C1041.64 157.305 1041.58 157.279 1041.51 157.265C1040.11 156.648 1038.68 156.052 1037.21 155.477C1013.09 145.991 986.304 142.626 957.149 158.54C948.299 163.37 940.78 169.545 934.94 176.398C934.897 176.442 934.862 176.495 934.837 176.555L931.236 185.204C931.13 185.459 931.25 185.752 931.505 185.858C931.76 185.964 932.053 185.844 932.159 185.589L935.572 177.391L980.896 195.199L977.502 203.387C977.396 203.642 977.517 203.934 977.772 204.04C978.027 204.146 978.32 204.025 978.425 203.77L981.827 195.565L1014.99 208.593L962.037 338.811C961.933 339.067 962.056 339.359 962.312 339.463C962.567 339.567 962.859 339.444 962.963 339.188L1015.92 208.959L1052.74 223.425L1049.33 231.605C1049.22 231.86 1049.35 232.153 1049.6 232.259C1049.86 232.365 1050.15 232.245 1050.25 231.99L1053.67 223.791L1094.68 239.906L1091.28 248.084C1091.17 248.339 1091.29 248.632 1091.55 248.738C1091.8 248.844 1092.09 248.724 1092.2 248.469L1095.8 239.819C1095.82 239.77 1095.83 239.719 1095.84 239.666C1098.07 210.982 1082.74 175.459 1041.69 157.344ZM1043.22 159.13C1059.55 179.26 1060.98 205.776 1054.14 222.901L1094.89 238.913C1096.76 211.214 1082.1 177.171 1043.22 159.13Z" fill="#67676A"/>
<path fill-rule="evenodd" clip-rule="evenodd" d="M369.761 209.378C362.822 212.576 359.788 220.794 362.986 227.734L375.209 254.258C381.744 251.493 389.34 254.401 392.331 260.893L398.951 275.258L460.865 246.727L454.246 232.362C451.266 225.896 453.958 218.266 460.254 215.072L448.031 188.545C444.833 181.605 436.615 178.572 429.675 181.77L369.761 209.378ZM461.162 214.653L448.939 188.127C445.51 180.685 436.698 177.433 429.256 180.862L369.343 208.47C361.902 211.899 358.649 220.711 362.078 228.152L374.302 254.679C368.002 257.871 365.308 265.504 368.289 271.972L389.034 316.993L498.965 266.336L478.219 221.315C475.238 214.845 467.683 211.935 461.162 214.653ZM375.17 255.37C369.052 258.189 366.377 265.435 369.197 271.553L389.524 315.666L497.638 265.846L477.311 221.734C474.492 215.615 467.246 212.941 461.127 215.76C455.009 218.58 452.334 225.825 455.154 231.944L462.192 247.217L398.461 276.585L391.423 261.311C388.604 255.193 381.358 252.518 375.24 255.338L375.17 255.37Z" fill="#67676A"/>
<path fill-rule="evenodd" clip-rule="evenodd" d="M401.133 263.311C397.631 264.925 396.1 269.073 397.714 272.575L399.159 275.712L398.251 276.13L396.806 272.994C394.961 268.99 396.711 264.248 400.715 262.403L449.946 239.717C453.95 237.872 458.692 239.623 460.537 243.627L461.982 246.763L461.074 247.182L459.628 244.045C458.015 240.543 453.867 239.012 450.364 240.626L401.133 263.311ZM405.669 308.982L406.341 322.385C406.341 322.386 406.341 322.387 406.341 322.388C406.392 323.221 406.19 324.049 405.762 324.765C405.334 325.481 404.699 326.052 403.941 326.401C401.297 327.619 398.255 325.801 398.075 322.896L397.425 312.376L398.423 312.314L399.073 322.834C399.209 325.038 401.517 326.417 403.522 325.493C404.097 325.228 404.579 324.795 404.904 324.252C405.229 323.708 405.381 323.079 405.342 322.447L405.342 322.441L404.67 309.032L405.669 308.982ZM497.006 277.706L489.431 270.378L490.126 269.659L497.701 276.988C499.793 279.012 499.199 282.506 496.555 283.724C495.797 284.073 494.95 284.185 494.127 284.045C493.304 283.905 492.543 283.52 491.943 282.939L491.942 282.938L482.372 273.629L483.07 272.912L492.638 282.221C492.639 282.221 492.639 282.221 492.639 282.221C493.094 282.661 493.671 282.953 494.295 283.06C494.919 283.166 495.561 283.081 496.136 282.816C498.141 281.892 498.592 279.242 497.006 277.706Z" fill="#67676A"/>
<path fill-rule="evenodd" clip-rule="evenodd" d="M1110 169H30C13.9837 169 1 181.984 1 198V310C1 326.016 13.9838 339 30 339H1110C1126.02 339 1139 326.016 1139 310V198C1139 181.984 1126.02 169 1110 169ZM30 168C13.4315 168 0 181.431 0 198V310C0 326.569 13.4315 340 30 340H1110C1126.57 340 1140 326.569 1140 310V198C1140 181.431 1126.57 168 1110 168H30Z" fill="#67676A"/>
</svg>
