<svg width="1140" height="340" viewBox="0 0 1140 340" fill="none" xmlns="http://www.w3.org/2000/svg">
<g clip-path="url(#clip0_296_9813)">
<path d="M849.762 214.032C849.762 214.032 848.57 263.809 866.93 307.252C891.845 366.2 943.395 392.349 992.13 369.554C1018.44 357.245 1022.39 302.071 998.469 274.709C974.558 247.348 912.688 224.913 904.283 203.479L849.762 214.032Z" fill="#828FC4"/>
<path fill-rule="evenodd" clip-rule="evenodd" d="M987.028 314.497C991.934 313.18 996.541 310.999 1000.33 307.612C1018.09 291.721 1000.9 276.976 986.116 268.997C969.345 259.944 955.995 246.791 942.75 233.356C934.99 225.482 925.386 219.738 915.763 214.327C904.7 208.11 888.874 211.261 883.544 223.622C880.573 230.52 880.821 238.393 882.098 245.795C883.564 254.278 886.359 262.604 890.978 269.862C894.112 274.788 898.041 279.157 902.172 283.271C921.64 302.64 947.688 317.11 975.066 316.18C979.073 316.043 983.145 315.538 987.028 314.497Z" fill="#E1EDFF"/>
<path d="M785.13 80.3303C785.13 80.3303 735.183 39.3767 715.969 48.2919C696.762 57.2137 705.121 115.487 723.045 150.309C740.969 185.131 779.325 236.631 833.969 241.007C888.614 245.382 934.352 229.812 963.059 177.808C991.766 125.804 981.491 58.0914 971.633 28.6864C961.776 -0.718707 953.26 -4.21666 939.03 3.57185C924.801 11.3669 906.316 36.4225 898.837 56.48C898.837 56.48 844.661 36.0818 785.13 80.3303Z" fill="#ACB3DB"/>
<path d="M773.46 88.8395C773.46 88.8395 743.431 58.5697 725.364 66.3058C707.297 74.0354 722.934 120.812 731.423 132.944C731.417 132.937 746.526 107.24 773.46 88.8395Z" fill="#EBCBCC"/>
<path d="M910.604 57.4955C910.604 57.4955 933.264 16.5157 948.999 19.3651C964.734 22.2146 970.402 61.7664 966.936 85.1843C966.942 85.1843 946.171 66.8299 910.604 57.4955Z" fill="#EBCBCC"/>
<path d="M767.082 107.967C767.082 107.967 779.357 101.004 782.504 99.7395C785.651 98.4752 784.393 90.2478 777.155 92.7763C769.916 95.3113 762.365 108.602 767.082 107.967Z" fill="#0B1411"/>
<path d="M925.713 72.0704C925.713 72.0704 919.106 62.7163 910.291 63.0307C901.475 63.3451 903.365 72.0704 906.512 72.0704C914.799 72.0704 925.713 75.0967 925.713 72.0704Z" fill="#0B1411"/>
<path d="M859.979 163.174C859.979 163.174 850.961 164.759 841.833 178.044C841.833 178.044 811.621 186.271 807.842 199.562C804.063 212.853 833.963 234.371 876.456 224.559C923.634 213.665 931.433 183.428 927.029 173.622C922.624 163.816 889.676 167.288 889.676 167.288C889.676 167.288 878.124 157.161 859.979 163.174Z" fill="white"/>
<path d="M841.833 187.221C841.833 187.221 858.832 188.806 865.751 175.194C865.751 175.194 874.566 182.158 890.933 177.094C890.933 177.094 897.761 198.383 872.051 203.394C846.237 208.425 841.833 187.221 841.833 187.221Z" fill="#0B1411"/>
<path d="M866.794 189.684C858.494 192.508 853.659 197.191 851.118 200.466C855.672 203.466 862.351 205.287 872.052 203.394C882.959 201.272 888.002 196.215 890.204 191.099C885.2 189.088 876.053 186.533 866.794 189.684Z" fill="#CF7071"/>
<path fill-rule="evenodd" clip-rule="evenodd" d="M864.789 180.163L861.03 162.752L865.039 161.841L868.798 179.252L864.789 180.163Z" fill="#0B1411"/>
<path d="M881.408 142.717C883.062 148.783 870.866 163.174 863.94 164.753C857.014 166.338 840.263 160.58 838.608 154.515C836.953 148.449 845.195 140.89 857.014 137.627C868.833 134.365 879.753 136.651 881.408 142.717Z" fill="#CF7071"/>
<path d="M798.793 182.793C818.088 182.793 833.729 167.068 833.729 147.669C833.729 128.271 818.088 112.546 798.793 112.546C779.499 112.546 763.858 128.271 763.858 147.669C763.858 167.068 779.499 182.793 798.793 182.793Z" fill="white"/>
<path d="M803.757 167.74C815.571 167.74 825.147 158.112 825.147 146.235C825.147 134.358 815.571 124.73 803.757 124.73C791.944 124.73 782.367 134.358 782.367 146.235C782.367 158.112 791.944 167.74 803.757 167.74Z" fill="#6973BD"/>
<path d="M803.757 159.532C811.061 159.532 816.983 153.579 816.983 146.235C816.983 138.891 811.061 132.937 803.757 132.937C796.452 132.937 790.53 138.891 790.53 146.235C790.53 153.579 796.452 159.532 803.757 159.532Z" fill="#0B1411"/>
<path d="M807.015 143.634C810.34 143.634 813.036 140.924 813.036 137.582C813.036 134.239 810.34 131.529 807.015 131.529C803.691 131.529 800.995 134.239 800.995 137.582C800.995 140.924 803.691 143.634 807.015 143.634Z" fill="white"/>
<path d="M913.75 158.347C933.045 158.347 948.686 142.621 948.686 123.223C948.686 103.825 933.045 88.0994 913.75 88.0994C894.456 88.0994 878.815 103.825 878.815 123.223C878.815 142.621 894.456 158.347 913.75 158.347Z" fill="white"/>
<path d="M907.926 144.892C919.739 144.892 929.316 135.264 929.316 123.387C929.316 111.51 919.739 101.881 907.926 101.881C896.113 101.881 886.536 111.51 886.536 123.387C886.536 135.264 896.113 144.892 907.926 144.892Z" fill="#6973BD"/>
<path d="M907.926 136.684C915.23 136.684 921.152 130.731 921.152 123.387C921.152 116.043 915.23 110.089 907.926 110.089C900.621 110.089 894.699 116.043 894.699 123.387C894.699 130.731 900.621 136.684 907.926 136.684Z" fill="#0B1411"/>
<path d="M911.183 120.786C914.508 120.786 917.204 118.076 917.204 114.733C917.204 111.391 914.508 108.681 911.183 108.681C907.858 108.681 905.163 111.391 905.163 114.733C905.163 118.076 907.858 120.786 911.183 120.786Z" fill="white"/>
<path fill-rule="evenodd" clip-rule="evenodd" d="M874.765 170.664C874.765 170.664 874.765 170.664 874.764 170.662L874.765 170.664C874.127 171.038 873.308 170.821 872.936 170.179C872.564 169.537 872.78 168.714 873.418 168.34L874.092 169.502C873.418 168.34 873.419 168.34 873.42 168.339L873.422 168.338L873.432 168.332L873.466 168.312C873.496 168.295 873.541 168.269 873.599 168.236C873.715 168.169 873.888 168.071 874.113 167.944C874.565 167.69 875.232 167.322 876.099 166.858C877.832 165.929 880.367 164.619 883.583 163.082C890.014 160.01 899.176 156.033 910.113 152.406C931.96 145.16 961.012 139.271 989.542 144.915C990.267 145.059 990.739 145.766 990.596 146.494C990.454 147.223 989.751 147.698 989.026 147.554C961.139 142.037 932.595 147.781 910.951 154.96C900.141 158.545 891.084 162.477 884.731 165.512C881.555 167.029 879.057 168.321 877.356 169.231C876.506 169.687 875.855 170.047 875.418 170.292C875.199 170.415 875.035 170.509 874.925 170.572C874.87 170.603 874.83 170.627 874.803 170.642L874.773 170.659L874.767 170.663L874.765 170.664Z" fill="#0B1411"/>
<path fill-rule="evenodd" clip-rule="evenodd" d="M887.074 168.974L887.08 168.971L887.105 168.96C887.128 168.95 887.164 168.935 887.211 168.915C887.307 168.875 887.45 168.814 887.642 168.735C888.024 168.578 888.596 168.347 889.347 168.056C890.847 167.475 893.059 166.657 895.891 165.714C901.556 163.828 909.699 161.446 919.588 159.469C939.376 155.513 966.1 153.189 993.947 159.657C994.667 159.824 995.385 159.373 995.551 158.649C995.718 157.926 995.269 157.203 994.549 157.036C966.214 150.455 939.085 152.829 919.066 156.831C909.051 158.833 900.801 161.246 895.05 163.161C892.174 164.118 889.922 164.951 888.385 165.546C887.616 165.844 887.027 166.082 886.627 166.247C886.427 166.329 886.275 166.393 886.172 166.437C886.12 166.459 886.081 166.476 886.054 166.487L886.023 166.501L886.012 166.505C886.011 166.506 886.01 166.506 886.542 167.74L886.01 166.506C885.332 166.801 885.021 167.593 885.315 168.275C885.608 168.956 886.396 169.269 887.074 168.974Z" fill="#0B1411"/>
<path fill-rule="evenodd" clip-rule="evenodd" d="M881.926 174.825C881.928 174.83 881.928 174.83 881.928 174.83L881.936 174.827L881.966 174.819C881.994 174.811 882.035 174.799 882.091 174.783C882.203 174.752 882.37 174.706 882.593 174.646C883.037 174.525 883.698 174.351 884.559 174.134C886.281 173.702 888.8 173.103 891.978 172.444C898.337 171.124 907.326 169.56 917.841 168.587C938.896 166.638 965.946 167.067 990.218 176.456C990.907 176.723 991.681 176.377 991.946 175.684C992.212 174.99 991.868 174.212 991.178 173.946C966.357 164.344 938.837 163.942 917.596 165.909C906.962 166.893 897.872 168.474 891.437 169.809C888.22 170.477 885.664 171.084 883.91 171.525C883.033 171.745 882.357 171.924 881.897 172.048C881.668 172.111 881.492 172.159 881.374 172.192C881.314 172.209 881.269 172.222 881.239 172.23L881.203 172.24L881.191 172.244C881.19 172.244 881.19 172.244 881.559 173.537L881.19 172.244C880.48 172.449 880.069 173.194 880.273 173.908C880.477 174.622 881.218 175.034 881.928 174.83L881.926 174.825Z" fill="#0B1411"/>
<path fill-rule="evenodd" clip-rule="evenodd" d="M855.999 173.745C855.999 173.745 855.999 173.745 855.999 173.742L855.999 173.745C856.734 173.823 857.392 173.287 857.47 172.549C857.548 171.81 857.015 171.148 856.28 171.07L856.14 172.407C856.28 171.07 856.28 171.07 856.279 171.07L856.276 171.07L856.265 171.069L856.225 171.064C856.191 171.061 856.14 171.056 856.073 171.049C855.94 171.036 855.743 171.018 855.485 170.995C854.97 170.95 854.211 170.888 853.231 170.822C851.271 170.69 848.425 170.538 844.865 170.462C837.747 170.31 827.768 170.456 816.314 171.654C793.432 174.046 764.531 180.645 740.807 197.549C740.205 197.978 740.062 198.817 740.49 199.423C740.917 200.029 741.752 200.172 742.354 199.743C765.543 183.22 793.921 176.699 816.591 174.329C827.912 173.146 837.777 173 844.808 173.151C848.324 173.226 851.129 173.376 853.052 173.506C854.013 173.571 854.754 173.631 855.252 173.675C855.502 173.697 855.69 173.714 855.816 173.726C855.878 173.733 855.925 173.737 855.956 173.74L855.99 173.744L855.998 173.745L855.999 173.745Z" fill="#0B1411"/>
<path fill-rule="evenodd" clip-rule="evenodd" d="M844.081 177.275L844.074 177.275L844.046 177.276C844.021 177.276 843.983 177.277 843.931 177.278C843.828 177.281 843.672 177.285 843.466 177.292C843.052 177.305 842.436 177.33 841.634 177.374C840.028 177.462 837.677 177.627 834.709 177.934C828.773 178.548 820.375 179.731 810.548 182.002C790.885 186.546 765.562 195.437 742.797 212.811C742.208 213.26 741.369 213.144 740.922 212.553C740.476 211.961 740.591 211.117 741.179 210.668C764.343 192.991 790.057 183.978 809.949 179.38C819.9 177.08 828.409 175.882 834.435 175.259C837.449 174.947 839.843 174.779 841.488 174.689C842.31 174.644 842.945 174.618 843.377 174.603C843.592 174.596 843.757 174.592 843.869 174.589C843.925 174.588 843.968 174.587 843.998 174.587L844.031 174.586L844.043 174.586C844.043 174.586 844.045 174.586 844.063 175.93L844.045 174.586C844.784 174.576 845.39 175.17 845.4 175.912C845.41 176.655 844.819 177.265 844.081 177.275Z" fill="#0B1411"/>
<path fill-rule="evenodd" clip-rule="evenodd" d="M851.163 180.491C851.163 180.496 851.163 180.496 851.163 180.496L851.155 180.497L851.124 180.501C851.096 180.506 851.053 180.512 850.996 180.521C850.881 180.538 850.709 180.565 850.482 180.602C850.028 180.675 849.353 180.788 848.48 180.945C846.733 181.26 844.191 181.752 841.023 182.46C834.685 183.876 825.848 186.154 815.86 189.598C795.859 196.495 771.361 208.032 753.048 226.597C752.527 227.124 751.681 227.128 751.156 226.605C750.631 226.082 750.628 225.23 751.148 224.703C769.876 205.718 794.815 194.012 814.992 187.054C825.093 183.571 834.029 181.268 840.443 179.835C843.65 179.118 846.228 178.619 848.008 178.298C848.898 178.138 849.588 178.022 850.058 177.946C850.292 177.908 850.472 177.88 850.594 177.862C850.655 177.852 850.701 177.845 850.733 177.841L850.769 177.835L850.781 177.833C850.782 177.833 850.783 177.833 850.973 179.164L850.783 177.833C851.514 177.728 852.192 178.238 852.297 178.973C852.402 179.708 851.895 180.39 851.163 180.496L851.163 180.491Z" fill="#0B1411"/>
</g>
<path d="M900.183 292.86C900.183 292.86 898.331 307.231 898.364 314.792C898.388 319.668 903.983 323.521 907.509 326.032C909.254 327.277 912.447 328.341 913.804 329.948C915.594 332.07 915.269 335.258 917.386 337.482C919.215 339.409 922.063 340.476 924.638 339.793C928.57 338.758 930.469 334.44 931.833 330.638C932.208 331.808 933.843 331.947 935.025 331.598C939.776 330.197 942.415 324.741 941.947 319.846C940.553 305.023 914.001 290.088 900.183 292.86Z" fill="#E1EDFF"/>
<path d="M844.718 240C844.718 240 861.491 242.85 863.718 263.906C864.459 270.952 866.919 283.853 866.919 283.853C866.919 283.853 900.475 286.573 905.803 292.272C915.856 303.025 900.866 317.105 900.866 317.105C900.866 317.105 855.226 332.603 838.189 319.748C821.148 306.897 819.918 272.346 823.875 256.546C827.833 240.747 844.718 240 844.718 240Z" fill="#ACB3DB"/>
<rect x="62" y="178" width="345" height="41" rx="20" fill="#D0ECB3"/>
<g opacity="0.6">
<path d="M78.6021 199.5V186.72H88.2501V199.5H86.9901V187.836H79.8621V199.5H78.6021Z" fill="#67676A"/>
<path d="M95.1957 199.68C94.5237 199.68 93.8997 199.554 93.3237 199.302C92.7597 199.038 92.2677 198.684 91.8477 198.24C91.4397 197.784 91.1217 197.268 90.8937 196.692C90.6657 196.104 90.5517 195.486 90.5517 194.838C90.5517 194.166 90.6657 193.542 90.8937 192.966C91.1217 192.378 91.4457 191.862 91.8657 191.418C92.2857 190.962 92.7777 190.608 93.3417 190.356C93.9177 190.092 94.5417 189.96 95.2137 189.96C95.8857 189.96 96.5037 190.092 97.0677 190.356C97.6317 190.608 98.1237 190.962 98.5437 191.418C98.9637 191.862 99.2877 192.378 99.5157 192.966C99.7437 193.542 99.8577 194.166 99.8577 194.838C99.8577 195.486 99.7437 196.104 99.5157 196.692C99.2877 197.268 98.9637 197.784 98.5437 198.24C98.1357 198.684 97.6437 199.038 97.0677 199.302C96.5037 199.554 95.8797 199.68 95.1957 199.68ZM91.7937 194.856C91.7937 195.552 91.9437 196.188 92.2437 196.764C92.5557 197.328 92.9697 197.778 93.4857 198.114C94.0017 198.438 94.5717 198.6 95.1957 198.6C95.8197 198.6 96.3897 198.432 96.9057 198.096C97.4217 197.76 97.8357 197.304 98.1477 196.728C98.4597 196.14 98.6157 195.504 98.6157 194.82C98.6157 194.124 98.4597 193.488 98.1477 192.912C97.8357 192.336 97.4217 191.88 96.9057 191.544C96.3897 191.208 95.8197 191.04 95.1957 191.04C94.5717 191.04 94.0017 191.214 93.4857 191.562C92.9817 191.91 92.5737 192.372 92.2617 192.948C91.9497 193.512 91.7937 194.148 91.7937 194.856Z" fill="#67676A"/>
<path d="M101.887 199.5V190.14H103.111V197.844L108.817 190.122H109.915V199.5H108.691V191.922L103.075 199.5H101.887Z" fill="#67676A"/>
<path d="M116.66 199.68C115.976 199.68 115.346 199.554 114.77 199.302C114.206 199.038 113.708 198.678 113.276 198.222C112.856 197.766 112.526 197.244 112.286 196.656C112.058 196.068 111.944 195.444 111.944 194.784C111.944 193.896 112.142 193.086 112.538 192.354C112.934 191.622 113.486 191.04 114.194 190.608C114.902 190.176 115.718 189.96 116.642 189.96C117.518 189.96 118.292 190.164 118.964 190.572C119.636 190.968 120.134 191.508 120.458 192.192L119.27 192.57C119.006 192.09 118.634 191.718 118.154 191.454C117.686 191.178 117.164 191.04 116.588 191.04C115.964 191.04 115.394 191.202 114.878 191.526C114.362 191.85 113.948 192.294 113.636 192.858C113.336 193.422 113.186 194.064 113.186 194.784C113.186 195.492 113.342 196.134 113.654 196.71C113.966 197.286 114.38 197.748 114.896 198.096C115.412 198.432 115.982 198.6 116.606 198.6C117.014 198.6 117.404 198.528 117.776 198.384C118.16 198.24 118.49 198.048 118.766 197.808C119.054 197.556 119.246 197.286 119.342 196.998L120.548 197.358C120.38 197.802 120.098 198.204 119.702 198.564C119.318 198.912 118.862 199.188 118.334 199.392C117.818 199.584 117.26 199.68 116.66 199.68Z" fill="#67676A"/>
<path d="M122.453 199.5V190.122H123.677V194.136H125.081L128.231 190.122H129.635L126.053 194.676L130.085 199.5H128.645L125.081 195.27H123.677V199.5H122.453Z" fill="#67676A"/>
</g>
<path fill-rule="evenodd" clip-rule="evenodd" d="M369 185C365.134 185 362 188.134 362 192C362 195.866 365.134 199 369 199C372.866 199 376 195.866 376 192C376 188.134 372.866 185 369 185ZM360 192C360 187.029 364.029 183 369 183C373.971 183 378 187.029 378 192C378 196.971 373.971 201 369 201C364.029 201 360 196.971 360 192Z" fill="#67676A"/>
<path fill-rule="evenodd" clip-rule="evenodd" d="M373.943 196.943C374.333 196.552 374.967 196.552 375.357 196.943L379.707 201.293C380.098 201.683 380.098 202.317 379.707 202.707C379.317 203.098 378.683 203.098 378.293 202.707L373.943 198.357C373.552 197.967 373.552 197.333 373.943 196.943Z" fill="#67676A"/>
<g filter="url(#filter0_d_296_9813)">
<path d="M353.944 213.422C353.436 212.576 353.707 211.497 354.537 210.999C355.367 210.501 356.458 210.788 356.954 211.615L363.348 222.269C364.906 224.865 367.1 233.069 368.128 237.318L350.453 247.926C348.989 246.973 346.273 245.203 345.063 244.543C343.221 243.529 340.897 242.413 338.458 241.235C335.213 239.677 331.56 237.92 327.989 235.904C327.052 235.394 326.001 234.56 326.241 233.605C326.35 233.174 326.643 232.788 327.049 232.545C327.435 232.313 327.913 232.236 328.344 232.343L338.504 235.583C339.218 235.809 340.016 235.565 340.507 234.983C340.986 234.382 341.045 233.562 340.652 232.908L327.114 210.351C326.606 209.504 326.878 208.426 327.707 207.928C328.537 207.43 329.628 207.717 330.124 208.544L338.873 223.121C339.392 223.986 340.502 224.262 341.371 223.74C342.239 223.219 342.518 222.11 341.999 221.245L338.952 216.168C338.444 215.322 338.715 214.243 339.545 213.745C340.375 213.247 341.466 213.534 341.962 214.361L346.221 221.457C346.74 222.323 347.85 222.598 348.719 222.077C349.587 221.556 349.866 220.447 349.347 219.581L346.311 214.524C345.803 213.677 346.075 212.599 346.905 212.101C347.734 211.603 348.825 211.89 349.321 212.717L353.58 219.813C354.1 220.678 355.21 220.954 356.078 220.433C356.946 219.912 357.226 218.802 356.706 217.937L353.944 213.422Z" fill="white"/>
</g>
<g filter="url(#filter1_d_296_9813)">
<path fill-rule="evenodd" clip-rule="evenodd" d="M353.086 213.936C352.297 212.621 352.715 210.927 354.023 210.142C355.337 209.353 357.038 209.812 357.812 211.101L364.205 221.754C365.06 223.179 366.03 226.004 366.895 228.886C367.773 231.815 368.583 234.947 369.1 237.083L369.273 237.797L350.431 249.105L349.822 248.708C348.321 247.732 345.728 246.045 344.584 245.421L344.581 245.419C342.839 244.461 340.653 243.405 338.313 242.275C338.217 242.229 338.121 242.182 338.024 242.136C334.785 240.581 331.106 238.811 327.503 236.779C326.991 236.499 326.385 236.099 325.928 235.588C325.472 235.077 325.036 234.298 325.271 233.361C325.449 232.656 325.918 232.057 326.534 231.688C327.137 231.326 327.886 231.199 328.585 231.372L328.617 231.38L338.807 234.63C338.806 234.63 338.807 234.63 338.807 234.63C339.114 234.727 339.491 234.628 339.733 234.349C339.948 234.07 339.966 233.709 339.795 233.423L326.257 210.865C325.467 209.55 325.885 207.855 327.193 207.071C328.508 206.282 330.208 206.74 330.982 208.029L339.73 222.606C339.964 222.995 340.458 223.122 340.856 222.883C341.253 222.644 341.375 222.148 341.141 221.759L338.094 216.682C337.305 215.367 337.723 213.673 339.03 212.888C340.345 212.099 342.046 212.558 342.819 213.847L347.078 220.943C347.312 221.332 347.806 221.458 348.204 221.219C348.601 220.981 348.723 220.485 348.489 220.096L345.454 215.038C344.664 213.723 345.082 212.028 346.39 211.244C347.705 210.455 349.405 210.913 350.179 212.202L354.438 219.298C354.671 219.688 355.166 219.814 355.563 219.575C355.96 219.337 356.082 218.843 355.85 218.454C355.85 218.453 355.849 218.453 355.849 218.452L353.086 213.936ZM356.706 217.937C357.226 218.802 356.946 219.912 356.078 220.433C355.21 220.954 354.1 220.678 353.58 219.813L349.321 212.717C348.825 211.89 347.734 211.603 346.905 212.101C346.075 212.599 345.803 213.677 346.311 214.524L349.347 219.581C349.866 220.447 349.587 221.556 348.719 222.077C347.85 222.598 346.74 222.323 346.221 221.457L341.962 214.361C341.466 213.534 340.375 213.247 339.545 213.745C338.715 214.243 338.444 215.322 338.952 216.168L341.999 221.245C342.518 222.11 342.239 223.219 341.371 223.74C340.502 224.262 339.392 223.986 338.873 223.121L330.124 208.544C329.628 207.717 328.537 207.43 327.707 207.928C326.878 208.426 326.606 209.504 327.114 210.351L340.652 232.908C341.045 233.562 340.986 234.382 340.507 234.983C340.016 235.565 339.218 235.809 338.504 235.583L328.345 232.343C327.913 232.236 327.435 232.313 327.049 232.545C326.643 232.788 326.35 233.174 326.241 233.605C326.001 234.56 327.052 235.394 327.989 235.904C331.56 237.92 335.213 239.677 338.458 241.235C338.559 241.284 338.66 241.332 338.761 241.381C341.089 242.505 343.297 243.571 345.063 244.543C346.242 245.186 348.852 246.885 350.339 247.852L350.453 247.926L368.128 237.318C367.1 233.069 364.906 224.865 363.348 222.269L356.954 211.615C356.458 210.788 355.367 210.501 354.537 210.999C353.707 211.497 353.436 212.576 353.944 213.422L356.706 217.937Z" fill="#67676A"/>
</g>
<path d="M611.477 273.669C610.054 273.422 609.1 272.068 609.348 270.644L613.055 249.28C613.302 247.857 614.656 246.903 616.079 247.15L632.188 249.948C633.611 250.195 634.565 251.55 634.318 252.974L630.61 274.337C630.363 275.761 629.009 276.715 627.586 276.467L611.477 273.669Z" fill="#FFD152"/>
<path d="M686.251 159.792C687.265 161.733 688.106 163.803 688.774 166.001C689.36 167.933 689.753 169.972 689.951 172.119C691.784 179.513 687.091 191.453 685.514 194.478C684.064 197.525 682.223 200.175 679.99 202.427C677.908 204.572 675.412 206.448 672.502 208.055C669.592 209.661 666.502 211.17 663.231 212.581C659.555 214.054 655.826 215.452 652.045 216.775C648.391 218.12 645.181 219.938 642.416 222.229C640.338 223.965 638.847 226.385 637.943 229.491C637.539 230.878 636.205 231.84 634.782 231.593L618.864 228.828C617.441 228.581 616.482 227.224 616.787 225.812C617.46 222.691 618.344 219.77 619.438 217.05C620.977 213.49 623.162 210.372 625.994 207.697C628.827 205.021 632.561 202.833 637.198 201.13C639.186 200.288 641.718 199.342 644.794 198.293C647.998 197.266 651.108 196.024 654.123 194.568C657.16 192.984 659.806 191.002 662.061 188.623C664.466 186.137 665.979 183.1 666.602 179.513C667.224 175.926 666.853 172.76 665.488 170.016C664.25 167.293 662.338 165.047 659.75 163.278C657.291 161.531 654.465 160.381 651.272 159.826C647.569 159.183 644.104 159.439 640.878 160.594C637.674 161.621 634.85 163.11 632.407 165.061C630.763 166.374 629.259 167.74 627.895 169.16C626.836 170.263 625.067 170.355 623.978 169.283L612.873 158.36C611.981 157.482 611.828 156.09 612.567 155.079C615.53 151.029 619.027 147.678 623.057 145.027C627.789 142.022 632.939 140.013 638.508 139.001C644.205 138.011 649.927 138.015 655.674 139.013C660.526 139.856 665.182 141.456 669.64 143.814C674.121 146.044 681.842 151.353 686.251 159.792Z" fill="#FFD152"/>
<path fill-rule="evenodd" clip-rule="evenodd" d="M683.402 156.731C683.646 156.603 683.948 156.697 684.076 156.942C685.106 158.912 685.958 161.011 686.634 163.237C687.231 165.203 687.63 167.276 687.831 169.454C687.857 169.729 687.654 169.973 687.38 169.998C687.105 170.024 686.861 169.822 686.836 169.547C686.64 167.431 686.253 165.425 685.677 163.528C685.018 161.358 684.189 159.318 683.19 157.405C683.062 157.161 683.157 156.858 683.402 156.731ZM616.361 214.233L616.361 214.233C617.927 210.611 620.151 207.437 623.033 204.715C625.923 201.985 629.717 199.766 634.396 198.047C636.397 197.199 638.938 196.251 642.014 195.201L642.023 195.198L642.023 195.198C645.203 194.179 648.288 192.947 651.28 191.503C654.268 189.944 656.867 187.996 659.08 185.66L659.084 185.657C661.415 183.247 662.885 180.303 663.491 176.81C664.099 173.307 663.732 170.253 662.422 167.62L662.418 167.612L662.414 167.604C661.216 164.969 659.366 162.793 656.85 161.073L656.843 161.068L656.843 161.068C654.449 159.367 651.693 158.243 648.569 157.7C644.942 157.07 641.566 157.323 638.428 158.447L638.421 158.449L638.413 158.452C635.262 159.462 632.493 160.923 630.101 162.834C628.473 164.133 626.986 165.485 625.637 166.888C624.401 168.175 622.313 168.304 621.009 167.021L609.905 156.098C608.846 155.057 608.652 153.388 609.546 152.166C612.542 148.069 616.082 144.676 620.164 141.991L620.171 141.987L620.171 141.987C624.957 138.946 630.169 136.914 635.801 135.89L635.805 135.89C641.559 134.89 647.338 134.894 653.141 135.902C658.045 136.754 662.748 138.371 667.25 140.751C671.786 143.01 675.725 146.033 679.064 149.821C679.247 150.028 679.227 150.344 679.02 150.526C678.813 150.709 678.497 150.689 678.314 150.482C675.059 146.79 671.222 143.845 666.799 141.644L666.788 141.638L666.788 141.638C662.375 139.304 657.77 137.721 652.97 136.887C647.28 135.899 641.617 135.895 635.978 136.875C630.473 137.875 625.385 139.86 620.711 142.829C616.733 145.445 613.281 148.753 610.353 152.756C609.769 153.554 609.88 154.671 610.606 155.385L621.71 166.308C622.586 167.169 624.034 167.114 624.916 166.196C626.297 164.758 627.817 163.377 629.477 162.052C631.969 160.062 634.845 158.546 638.099 157.502C641.412 156.317 644.963 156.059 648.74 156.715C651.999 157.281 654.894 158.458 657.418 160.25C660.073 162.066 662.044 164.378 663.321 167.183C664.739 170.038 665.113 173.312 664.477 176.981C663.838 180.66 662.281 183.789 659.804 186.35C657.51 188.771 654.82 190.785 651.736 192.393L651.729 192.397L651.722 192.4C648.687 193.866 645.557 195.115 642.333 196.149C639.265 197.196 636.747 198.137 634.775 198.973L634.763 198.977L634.752 198.982C630.162 200.666 626.491 202.824 623.72 205.442C620.938 208.069 618.793 211.129 617.281 214.624C616.2 217.314 615.325 220.206 614.657 223.299C614.415 224.421 615.175 225.516 616.332 225.717L632.249 228.482C633.387 228.679 634.502 227.911 634.845 226.733C635.771 223.551 637.309 221.038 639.477 219.227L639.479 219.225C642.292 216.895 645.552 215.05 649.254 213.687L649.262 213.684L649.262 213.684C653.034 212.365 656.754 210.97 660.421 209.501C663.676 208.096 666.749 206.595 669.642 204.999C672.513 203.414 674.969 201.567 677.014 199.46L677.017 199.456C679.208 197.247 681.017 194.645 682.444 191.645L682.448 191.637L682.452 191.628C684.001 188.658 685.132 185.146 685.836 181.087C685.884 180.815 686.143 180.632 686.415 180.68C686.687 180.727 686.869 180.986 686.822 181.258C686.104 185.394 684.947 189.005 683.343 192.083C681.872 195.174 680.001 197.867 677.729 200.159C675.609 202.343 673.073 204.247 670.125 205.874C667.201 207.489 664.096 209.004 660.811 210.422L660.799 210.427L660.799 210.427C657.117 211.902 653.383 213.302 649.596 214.627C645.993 215.954 642.835 217.744 640.118 219.995C638.13 221.655 636.687 223.984 635.805 227.012C635.34 228.608 633.787 229.764 632.078 229.467L616.161 226.702C614.471 226.409 613.312 224.791 613.68 223.088C614.359 219.942 615.251 216.994 616.356 214.245L616.361 214.233ZM605.744 267.855L609.452 246.491C609.793 244.524 611.665 243.205 613.632 243.547L629.741 246.345C631.709 246.687 633.026 248.559 632.685 250.526L628.977 271.89C628.636 273.857 626.764 275.176 624.797 274.834L608.688 272.036C606.72 271.694 605.403 269.822 605.744 267.855ZM606.729 268.026C606.482 269.449 607.436 270.804 608.859 271.051L624.968 273.849C626.391 274.096 627.745 273.143 627.992 271.719L631.7 250.355C631.947 248.932 630.993 247.577 629.57 247.33L613.461 244.532C612.038 244.285 610.684 245.238 610.437 246.662L606.729 268.026Z" fill="#67676A"/>
<path d="M551.814 238.037C550.393 238.253 549.065 237.272 548.848 235.845L545.19 211.847C544.973 210.42 545.948 209.088 547.369 208.871L567.949 205.736C569.37 205.52 570.698 206.501 570.915 207.928L574.573 231.926C574.79 233.353 573.815 234.685 572.394 234.901L551.814 238.037Z" fill="#FF80DD"/>
<path d="M562.016 148.581L565.225 170.594L566.713 180.355C566.93 181.782 565.955 183.114 564.534 183.331L543.954 186.466C542.534 186.683 541.206 185.701 540.988 184.275L528.529 102.525C528.311 101.098 529.287 99.7661 530.707 99.5497L551.287 96.4142C552.708 96.1977 554.036 97.179 554.253 98.606L562.016 148.581Z" fill="#FF80DD"/>
<path fill-rule="evenodd" clip-rule="evenodd" d="M559.161 145.641C559.434 145.599 559.689 145.787 559.73 146.06L561.542 157.945C561.583 158.218 561.396 158.473 561.123 158.515C560.85 158.556 560.595 158.369 560.553 158.096L558.742 146.211C558.7 145.938 558.888 145.683 559.161 145.641ZM557.778 137.529C557.505 137.571 557.25 137.383 557.209 137.11L550.979 96.2357C550.803 95.0796 549.728 94.2883 548.582 94.4628L528.003 97.5983C526.857 97.7729 526.067 98.8483 526.243 100.004L538.702 181.754C538.879 182.91 539.953 183.701 541.099 183.526L561.679 180.391C562.824 180.216 563.615 179.141 563.438 177.985L561.951 168.224C561.909 167.951 562.097 167.696 562.37 167.654C562.643 167.613 562.898 167.8 562.939 168.073L564.427 177.834C564.686 179.532 563.525 181.121 561.829 181.379L541.25 184.515C539.554 184.773 537.973 183.602 537.714 181.904L525.254 100.155C524.996 98.4571 526.156 96.8681 527.852 96.6097L548.432 93.4742C550.128 93.2159 551.709 94.3871 551.968 96.085L558.197 136.96C558.239 137.233 558.051 137.488 557.778 137.529ZM545.079 233.55L541.422 209.552C541.122 207.583 542.468 205.737 544.439 205.437L565.018 202.302C566.989 202.001 568.824 203.363 569.124 205.331L572.781 229.329C573.081 231.298 571.735 233.144 569.764 233.444L549.185 236.58C547.214 236.88 545.379 235.519 545.079 233.55ZM546.068 233.399C546.285 234.826 547.613 235.808 549.034 235.591L569.614 232.456C571.035 232.239 572.01 230.907 571.793 229.48L568.135 205.482C567.918 204.055 566.59 203.074 565.169 203.29L544.589 206.426C543.168 206.642 542.193 207.975 542.41 209.401L546.068 233.399Z" fill="#67676A"/>
<path d="M46.2468 138.393L37.8573 141.084C36.2796 141.59 35.4108 143.279 35.9168 144.857L38.6077 153.246C39.1137 154.824 40.8029 155.693 42.3806 155.187L50.7701 152.496C52.3478 151.99 53.2165 150.301 52.7105 148.723L50.0197 140.333C49.5137 138.756 47.8245 137.887 46.2468 138.393Z" fill="#8FA9FF"/>
<path fill-rule="evenodd" clip-rule="evenodd" d="M48.5516 137.345L40.1621 140.036C39.1103 140.373 38.5311 141.499 38.8685 142.551L41.5593 150.941C41.8966 151.993 43.0227 152.572 44.0745 152.234L52.4641 149.544C53.5159 149.206 54.095 148.08 53.7577 147.028L51.0669 138.639C50.7295 137.587 49.6034 137.008 48.5516 137.345ZM39.8567 139.084L48.2462 136.393C49.8239 135.887 51.5131 136.756 52.0191 138.333L54.7099 146.723C55.2159 148.301 54.3472 149.99 52.7695 150.496L44.3799 153.187C42.8023 153.693 41.1131 152.824 40.607 151.246L37.9162 142.857C37.4102 141.279 38.279 139.59 39.8567 139.084Z" fill="#67676A"/>
<path d="M438.549 135.008L436.56 135.646C434.982 136.152 434.113 137.842 434.619 139.419L435.257 141.408C435.763 142.986 437.453 143.855 439.03 143.349L441.019 142.711C442.597 142.205 443.466 140.516 442.96 138.938L442.322 136.949C441.816 135.371 440.127 134.502 438.549 135.008Z" fill="#FFD152"/>
<path fill-rule="evenodd" clip-rule="evenodd" d="M437.946 137.868L435.957 138.506C434.905 138.844 434.326 139.97 434.663 141.022L435.301 143.011C435.639 144.062 436.765 144.642 437.816 144.304L439.806 143.666C440.857 143.329 441.437 142.203 441.099 141.151L440.461 139.162C440.124 138.11 438.998 137.531 437.946 137.868ZM435.651 137.554L437.641 136.916C439.218 136.41 440.907 137.279 441.413 138.857L442.051 140.846C442.557 142.423 441.689 144.113 440.111 144.619L438.122 145.256C436.544 145.763 434.855 144.894 434.349 143.316L433.711 141.327C433.205 139.749 434.074 138.06 435.651 137.554Z" fill="#67676A"/>
<path d="M466.609 234.513L461.857 236.037C460.279 236.543 459.41 238.232 459.916 239.81L461.44 244.562C461.946 246.139 463.636 247.008 465.213 246.502L469.965 244.978C471.543 244.472 472.412 242.783 471.906 241.205L470.382 236.453C469.876 234.875 468.186 234.007 466.609 234.513Z" fill="#A1DA67"/>
<path fill-rule="evenodd" clip-rule="evenodd" d="M469.632 237.543L464.879 239.067C463.828 239.405 463.249 240.531 463.586 241.582L465.11 246.335C465.447 247.386 466.573 247.965 467.625 247.628L472.377 246.104C473.429 245.767 474.008 244.641 473.671 243.589L472.147 238.837C471.809 237.785 470.683 237.206 469.632 237.543ZM464.574 238.115L469.326 236.591C470.904 236.085 472.593 236.954 473.099 238.531L474.623 243.283C475.129 244.861 474.26 246.55 472.683 247.056L467.931 248.58C466.353 249.086 464.664 248.218 464.158 246.64L462.634 241.888C462.128 240.31 462.996 238.621 464.574 238.115Z" fill="#67676A"/>
<path d="M218.316 257.824L216.327 258.462C214.749 258.968 213.88 260.657 214.386 262.235L215.024 264.224C215.53 265.801 217.22 266.67 218.797 266.164L220.786 265.526C222.364 265.02 223.233 263.331 222.727 261.753L222.089 259.764C221.583 258.187 219.894 257.318 218.316 257.824Z" fill="#FFD152"/>
<path fill-rule="evenodd" clip-rule="evenodd" d="M218.621 258.776L216.632 259.414C215.58 259.751 215.001 260.878 215.339 261.929L215.977 263.918C216.314 264.97 217.44 265.549 218.492 265.212L220.481 264.574C221.533 264.237 222.112 263.111 221.775 262.059L221.137 260.07C220.799 259.018 219.673 258.439 218.621 258.776ZM216.327 258.462L218.316 257.824C219.894 257.318 221.583 258.187 222.089 259.764L222.727 261.753C223.233 263.331 222.364 265.02 220.786 265.526L218.797 266.164C217.22 266.67 215.53 265.801 215.024 264.224L214.386 262.235C213.88 260.657 214.749 258.968 216.327 258.462Z" fill="#67676A"/>
<path d="M1058.59 210.916L1052.05 213.014C1050.47 213.52 1049.6 215.21 1050.11 216.787L1052.21 223.329C1052.71 224.907 1054.4 225.776 1055.98 225.269L1062.52 223.171C1064.1 222.665 1064.97 220.976 1064.46 219.398L1062.36 212.857C1061.86 211.279 1060.17 210.41 1058.59 210.916Z" fill="#FF80DD"/>
<path fill-rule="evenodd" clip-rule="evenodd" d="M1057.45 214.904L1050.91 217.002C1049.86 217.339 1049.28 218.465 1049.62 219.517L1051.71 226.059C1052.05 227.111 1053.18 227.69 1054.23 227.353L1060.77 225.254C1061.82 224.917 1062.4 223.791 1062.07 222.739L1059.97 216.197C1059.63 215.146 1058.5 214.566 1057.45 214.904ZM1050.6 216.05L1057.15 213.952C1058.72 213.446 1060.41 214.314 1060.92 215.892L1063.02 222.434C1063.52 224.011 1062.65 225.701 1061.08 226.207L1054.54 228.305C1052.96 228.811 1051.27 227.942 1050.76 226.364L1048.66 219.823C1048.16 218.245 1049.03 216.556 1050.6 216.05Z" fill="#67676A"/>
<path fill-rule="evenodd" clip-rule="evenodd" d="M382 174H77C66.5066 174 58 182.507 58 193V194C58 204.493 66.5066 213 77 213H382C392.493 213 401 204.493 401 194V193C401 182.507 392.493 174 382 174ZM77 173C65.9543 173 57 181.954 57 193V194C57 205.046 65.9543 214 77 214H382C393.046 214 402 205.046 402 194V193C402 181.954 393.046 173 382 173H77Z" fill="#67676A"/>
<path fill-rule="evenodd" clip-rule="evenodd" d="M1110 110H30C13.9837 110 1 122.984 1 139V250C1 266.016 13.9838 279 30 279H1110C1126.02 279 1139 266.016 1139 250V139C1139 122.984 1126.02 110 1110 110ZM30 109C13.4315 109 0 122.431 0 139V250C0 266.569 13.4315 280 30 280H1110C1126.57 280 1140 266.569 1140 250V139C1140 122.431 1126.57 109 1110 109H30Z" fill="#67676A"/>
<defs>
<filter id="filter0_d_296_9813" x="320.206" y="201.683" width="61.9214" height="60.2433" filterUnits="userSpaceOnUse" color-interpolation-filters="sRGB">
<feFlood flood-opacity="0" result="BackgroundImageFix"/>
<feColorMatrix in="SourceAlpha" type="matrix" values="0 0 0 0 0 0 0 0 0 0 0 0 0 0 0 0 0 0 127 0" result="hardAlpha"/>
<feOffset dx="4" dy="4"/>
<feGaussianBlur stdDeviation="5"/>
<feComposite in2="hardAlpha" operator="out"/>
<feColorMatrix type="matrix" values="0 0 0 0 0.421042 0 0 0 0 0.500174 0 0 0 0 0.5375 0 0 0 0.3 0"/>
<feBlend mode="normal" in2="BackgroundImageFix" result="effect1_dropShadow_296_9813"/>
<feBlend mode="normal" in="SourceGraphic" in2="effect1_dropShadow_296_9813" result="shape"/>
</filter>
<filter id="filter1_d_296_9813" x="319.205" y="200.682" width="64.0673" height="62.423" filterUnits="userSpaceOnUse" color-interpolation-filters="sRGB">
<feFlood flood-opacity="0" result="BackgroundImageFix"/>
<feColorMatrix in="SourceAlpha" type="matrix" values="0 0 0 0 0 0 0 0 0 0 0 0 0 0 0 0 0 0 127 0" result="hardAlpha"/>
<feOffset dx="4" dy="4"/>
<feGaussianBlur stdDeviation="5"/>
<feComposite in2="hardAlpha" operator="out"/>
<feColorMatrix type="matrix" values="0 0 0 0 0.421042 0 0 0 0 0.500174 0 0 0 0 0.5375 0 0 0 0.3 0"/>
<feBlend mode="normal" in2="BackgroundImageFix" result="effect1_dropShadow_296_9813"/>
<feBlend mode="normal" in="SourceGraphic" in2="effect1_dropShadow_296_9813" result="shape"/>
</filter>
<clipPath id="clip0_296_9813">
<rect width="425" height="280" fill="white" transform="translate(705)"/>
</clipPath>
</defs>
</svg>
