<svg width="1140" height="340" viewBox="0 0 1140 340" fill="none" xmlns="http://www.w3.org/2000/svg">
<g clip-path="url(#clip0_192_7553)">
<g clip-path="url(#clip1_192_7553)">
<path fill-rule="evenodd" clip-rule="evenodd" d="M205.51 237.523C204.575 238.459 203.096 238.569 202.032 237.783L192.684 230.875C191.977 230.353 191.9 229.325 192.521 228.704L197.714 223.512C198.735 222.49 200.392 222.49 201.413 223.512L208.618 230.716C209.639 231.738 209.639 233.394 208.618 234.416L205.51 237.523ZM201.438 238.587C202.9 239.668 204.932 239.516 206.217 238.23L209.325 235.123C210.737 233.711 210.737 231.421 209.325 230.009L202.121 222.805C202.121 222.805 202.121 222.805 202.121 222.805C200.708 221.392 198.419 221.392 197.007 222.805L191.814 227.997C191.814 227.997 191.814 227.997 191.814 227.997C190.761 229.05 190.891 230.794 192.089 231.68M192.089 231.68L201.438 238.587C201.438 238.587 201.438 238.587 201.438 238.587" fill="#67676A"/>
<path d="M180.627 222.968L201.182 202.413C201.552 202.043 201.601 201.455 201.289 201.036C200.287 199.69 199.118 198.477 197.811 197.426C197.392 197.089 196.784 197.129 196.404 197.509L179.25 201.759L173.772 208.128L175.723 218.19C175.343 218.57 175.303 219.178 175.64 219.597C176.691 220.904 177.904 222.072 179.25 223.075C179.669 223.387 180.257 223.338 180.627 222.968Z" fill="#DDE5FF"/>
<path d="M174.327 207.011C173.726 208.022 173.351 209.13 173.248 210.301C173.146 211.473 173.309 212.653 173.726 213.753C174.291 215.241 175.044 216.65 175.967 217.946" fill="#DDE5FF"/>
<path d="M196.159 197.754C194.864 196.83 193.454 196.077 191.966 195.512C190.558 194.979 189.025 194.863 187.553 195.179C186.081 195.496 184.731 196.23 183.666 197.295L177.732 203.294" fill="#DDE5FF"/>
<path d="M180.9 222.695C182.033 223.439 183.244 224.057 184.512 224.538C185.92 225.071 187.452 225.187 188.925 224.871C190.397 224.554 191.747 223.819 192.812 222.755L200.969 214.598C202.034 213.533 202.768 212.183 203.085 210.711C203.401 209.238 203.285 207.706 202.752 206.297C202.271 205.03 201.653 203.819 200.909 202.686" fill="#DDE5FF"/>
<path fill-rule="evenodd" clip-rule="evenodd" d="M185.959 193.946C187.525 193.609 189.156 193.732 190.654 194.3C192.051 194.83 193.38 195.521 194.614 196.361C195.172 195.852 196.031 195.806 196.635 196.291C197.975 197.37 199.173 198.613 200.2 199.992C200.2 199.992 200.2 199.992 200.2 199.992C200.661 200.611 200.588 201.468 200.058 202.01C199.986 201.895 199.912 201.781 199.837 201.667C199.751 201.535 199.613 201.458 199.468 201.444L199.339 201.315C199.538 201.116 199.559 200.806 199.398 200.59C198.422 199.278 197.282 198.096 196.008 197.071C196.008 197.071 196.008 197.071 196.008 197.071C195.794 196.898 195.473 196.914 195.268 197.118L174.588 217.799C174.383 218.003 174.367 218.324 174.54 218.539C174.54 218.539 174.54 218.539 174.54 218.539C175.565 219.813 176.748 220.952 178.059 221.929C178.059 221.929 178.059 221.929 178.059 221.929C178.275 222.09 178.585 222.068 178.784 221.87L178.913 221.999C178.927 222.144 179.005 222.282 179.136 222.368C179.25 222.443 179.364 222.516 179.48 222.588C178.938 223.119 178.081 223.192 177.462 222.731C176.083 221.704 174.839 220.506 173.761 219.166C173.275 218.562 173.321 217.703 173.83 217.145C173.909 217.261 173.989 217.377 174.071 217.491C174.171 217.631 174.33 217.705 174.49 217.701C174.49 217.701 174.49 217.701 174.49 217.701C174.586 217.699 174.684 217.669 174.768 217.608C174.993 217.448 175.046 217.136 174.885 216.911C174.771 216.75 174.659 216.587 174.549 216.423L193.892 197.08C192.768 196.333 191.563 195.714 190.3 195.235C188.981 194.736 187.547 194.627 186.169 194.924C184.791 195.22 183.528 195.907 182.531 196.903C182.531 196.904 182.53 196.904 182.53 196.904L176.604 202.895L173.231 206.541C172.684 207.476 172.351 208.521 172.257 209.6C172.161 210.697 172.314 211.801 172.705 212.831C173.184 214.094 173.803 215.299 174.549 216.423L173.881 217.092C173.881 217.092 173.881 217.092 173.881 217.092C173.863 217.109 173.846 217.127 173.83 217.145C172.991 215.911 172.299 214.582 171.769 213.185C171.326 212.015 171.152 210.76 171.261 209.513C171.37 208.267 171.758 207.061 172.398 205.985C172.416 205.955 172.437 205.927 172.46 205.901L175.875 202.21L175.887 202.197L181.821 196.199L181.823 196.197C182.956 195.064 184.392 194.282 185.959 193.946ZM180.206 221.862L179.491 222.577C179.487 222.581 179.483 222.585 179.48 222.588C180.543 223.255 181.671 223.815 182.845 224.26C184.343 224.828 185.974 224.951 187.541 224.615C189.107 224.278 190.543 223.496 191.676 222.363L199.833 214.207C200.966 213.074 201.748 211.638 202.084 210.071C202.421 208.504 202.298 206.874 201.73 205.376C201.285 204.201 200.724 203.074 200.058 202.01C200.054 202.014 200.05 202.018 200.046 202.022L199.331 202.737C199.224 202.561 199.115 202.388 199.002 202.216C198.871 202.017 198.901 201.759 199.059 201.595L199.072 201.581C199.094 201.56 199.119 201.541 199.145 201.524C199.244 201.458 199.358 201.433 199.468 201.444L199.339 201.315L199.072 201.581C199.068 201.586 199.063 201.59 199.059 201.595L179.065 221.589C179.06 221.594 179.055 221.598 179.051 221.603L178.784 221.87L178.913 221.999C178.902 221.889 178.928 221.775 178.993 221.676C179.01 221.649 179.03 221.625 179.051 221.603L179.065 221.589C179.229 221.431 179.487 221.402 179.685 221.532C179.857 221.645 180.031 221.755 180.206 221.862ZM183.199 223.325C183.199 223.325 183.199 223.325 183.199 223.325V223.325ZM183.199 223.325C184.518 223.825 185.952 223.933 187.33 223.637C188.709 223.341 189.972 222.653 190.969 221.656L199.126 213.5C200.123 212.503 200.81 211.239 201.107 209.861C201.403 208.483 201.294 207.048 200.795 205.73C200.795 205.73 200.795 205.73 200.795 205.73C200.4 204.689 199.91 203.687 199.331 202.737L180.206 221.862C181.156 222.441 182.158 222.931 183.199 223.325Z" fill="#67676A"/>
<path fill-rule="evenodd" clip-rule="evenodd" d="M210.142 239.901C210.142 239.901 210.142 239.901 210.142 239.901L206.457 237.178C206.235 237.014 205.922 237.061 205.758 237.283C205.594 237.505 205.641 237.818 205.863 237.982L209.548 240.705C210.084 241.101 210.744 241.291 211.408 241.242C212.072 241.192 212.696 240.906 213.167 240.435C213.167 240.435 213.167 240.435 213.167 240.435L217.904 235.698C218.375 235.227 218.661 234.603 218.711 233.939C218.76 233.275 218.57 232.615 218.174 232.079L201.902 210.057C201.738 209.835 201.425 209.788 201.203 209.952C200.981 210.117 200.934 210.43 201.098 210.652L217.37 232.673C217.37 232.673 217.37 232.673 217.37 232.673C217.623 233.016 217.745 233.439 217.714 233.864C217.682 234.29 217.498 234.689 217.197 234.991L212.46 239.728C212.158 240.029 211.758 240.213 211.333 240.245C210.908 240.276 210.485 240.154 210.142 239.901Z" fill="#67676A"/>
<path fill-rule="evenodd" clip-rule="evenodd" d="M193.209 228.01C193.373 227.787 193.326 227.474 193.104 227.31L188.121 223.629C187.899 223.465 187.586 223.512 187.422 223.734C187.258 223.956 187.305 224.269 187.527 224.433L192.509 228.114C192.731 228.279 193.045 228.232 193.209 228.01Z" fill="#67676A"/>
<path fill-rule="evenodd" clip-rule="evenodd" d="M218.174 245.195C219.414 246.435 221.424 246.435 222.664 245.195C223.904 243.955 223.904 241.945 222.664 240.705C222.664 240.705 222.664 240.705 222.664 240.705L217.427 235.468C217.232 235.272 216.915 235.272 216.72 235.468C216.525 235.663 216.525 235.979 216.72 236.175L221.957 241.412C222.806 242.261 222.806 243.639 221.957 244.488C221.108 245.338 219.73 245.338 218.881 244.488C218.881 244.488 218.881 244.488 218.881 244.488L213.644 239.251C213.448 239.056 213.132 239.056 212.936 239.251C212.741 239.446 212.741 239.763 212.936 239.958L218.174 245.195Z" fill="#67676A"/>
<path fill-rule="evenodd" clip-rule="evenodd" d="M199.775 244.428C196.587 244.428 194.003 241.844 194.003 238.656C194.003 236.856 194.827 235.248 196.12 234.189C196.334 234.014 196.365 233.699 196.19 233.485C196.015 233.272 195.7 233.24 195.487 233.415C193.972 234.656 193.003 236.543 193.003 238.656C193.003 242.396 196.035 245.428 199.775 245.428C203.515 245.428 206.547 242.396 206.547 238.656C206.547 238.326 206.522 238.003 206.477 237.688C206.438 237.415 206.185 237.225 205.912 237.264C205.638 237.303 205.448 237.556 205.487 237.83C205.526 238.101 205.547 238.377 205.547 238.656C205.547 241.844 202.963 244.428 199.775 244.428Z" fill="#67676A"/>
<path fill-rule="evenodd" clip-rule="evenodd" d="M199.774 240.974C198.494 240.974 197.457 239.936 197.457 238.656C197.457 237.66 198.086 236.812 198.972 236.485C199.231 236.389 199.363 236.101 199.267 235.842C199.172 235.583 198.884 235.451 198.625 235.547C197.362 236.014 196.457 237.226 196.457 238.656C196.457 240.488 197.942 241.974 199.774 241.974C201.607 241.974 203.092 240.488 203.092 238.656C203.092 238.643 203.091 238.632 203.091 238.624L203.09 238.611C203.079 238.341 202.854 238.127 202.582 238.132C202.306 238.137 202.086 238.364 202.091 238.64C202.091 238.652 202.091 238.662 202.092 238.668L202.092 238.669C202.085 239.943 201.05 240.974 199.774 240.974Z" fill="#67676A"/>
<path fill-rule="evenodd" clip-rule="evenodd" d="M203.345 243.311C203.621 243.311 203.845 243.535 203.845 243.811L203.845 287.759C203.845 288.836 202.972 289.709 201.895 289.709H197.653C196.576 289.709 195.703 288.836 195.703 287.759V243.811C195.703 243.535 195.927 243.311 196.203 243.311C196.479 243.311 196.703 243.535 196.703 243.811V287.759C196.703 288.284 197.129 288.709 197.653 288.709H201.895C202.42 288.709 202.845 288.284 202.845 287.759L202.845 243.811C202.845 243.535 203.069 243.311 203.345 243.311Z" fill="#67676A"/>
</g>
<path d="M103.033 213.484C103.033 213.484 105.889 226.739 103.375 235.957C100.86 245.176 90.2881 269.163 90.5098 286.916C90.7315 304.669 106.34 313.516 120.568 315.741C134.796 317.967 145.892 293.458 140.828 278.704C135.767 263.95 128.686 244.348 127.774 233.71C126.862 223.072 126.052 217.752 126.052 217.752L103.033 213.484Z" fill="#828FC4"/>
<path d="M133.098 219.858C133.098 219.858 133.071 233.67 138.687 245.99C144.301 258.308 156.67 282.096 139.887 304.523C139.887 304.523 133.821 314.742 122.58 310.028C115.137 306.905 109.814 293.118 110.971 278.947C112.128 264.776 118.188 252.478 118.422 242.943C118.656 233.409 116.447 218.756 116.447 218.756L133.098 219.858Z" fill="#E1EDFF"/>
<path fill-rule="evenodd" clip-rule="evenodd" d="M124.482 137.269C124.482 137.269 122.36 88.6093 135.778 85.418C151.392 81.7018 161.986 145.444 161.986 145.444L124.482 137.269Z" fill="#ACB3DB"/>
<path d="M142.192 94.7729C152.39 101.017 157.404 138.004 157.404 138.004C146.398 125.955 134.011 119.763 134.011 119.763C134.011 119.763 131.994 88.5287 142.192 94.7729Z" fill="#EBCBCC"/>
<path fill-rule="evenodd" clip-rule="evenodd" d="M168.141 148.265C181.876 169.009 173.665 215.632 136.961 224.364C91.5232 235.173 51.6706 214.714 53.1465 182.051C55.5329 129.252 83.8073 121.264 98.3383 117.801C109.81 115.066 144.696 112.852 168.141 148.265Z" fill="#ACB3DB"/>
<path fill-rule="evenodd" clip-rule="evenodd" d="M65.9401 173.884C65.9401 173.884 50.3644 105.155 66.0171 94.0602C79.9875 84.1581 98.5461 125.793 98.5461 125.793L65.9401 173.884Z" fill="#ACB3DB"/>
<path d="M92.5534 123.751C92.5534 123.751 78.1564 134.445 72.8801 151.347C72.8801 151.347 62.5483 115.494 69.0012 104.48C74.5828 94.9582 86.2415 108.699 92.5534 123.751Z" fill="#EBCBCC"/>
<path d="M138.228 177.721C138.228 177.721 135.695 180.076 132.971 183.532C130.247 186.988 126.225 188.517 123.328 190.432C120.431 192.348 115.948 196.681 121.691 203.203C127.12 209.368 138.214 219.026 150.612 214.249C166.701 208.049 164.044 192.875 163.548 186.08C163.051 179.286 157.85 179.729 154.745 179.797C151.639 179.866 146.592 177.123 143.839 176.698C141.085 176.274 138.228 177.721 138.228 177.721Z" fill="white"/>
<path d="M169.329 151.447C165.662 140.144 158.125 133.576 152.49 136.779C146.855 139.98 145.257 151.73 148.924 163.034C152.59 174.339 160.127 180.905 165.763 177.702C171.398 174.5 172.996 162.75 169.329 151.447Z" fill="white"/>
<path d="M167.754 155.966C165.407 149.022 160.21 145.1 156.144 147.218C152.08 149.326 150.696 156.674 153.043 163.617C155.394 170.56 160.59 174.473 164.653 172.365C168.715 170.25 170.106 162.909 167.754 155.966Z" fill="#0B1411"/>
<path fill-rule="evenodd" clip-rule="evenodd" d="M167.754 155.966C165.407 149.022 160.21 145.1 156.144 147.218C152.08 149.326 150.696 156.674 153.043 163.617C155.394 170.56 160.59 174.473 164.653 172.365C168.715 170.25 170.106 162.909 167.754 155.966ZM164.913 156.928L164.912 156.926C163.884 153.885 162.3 151.729 160.788 150.589C159.296 149.465 158.228 149.515 157.53 149.879L157.525 149.881C156.644 150.338 155.611 151.651 155.137 154.161C154.68 156.58 154.862 159.629 155.884 162.655C156.914 165.696 158.499 167.85 160.011 168.989C161.502 170.112 162.571 170.065 163.269 169.703C164.154 169.242 165.187 167.924 165.661 165.418C166.119 163 165.937 159.953 164.913 156.928Z" fill="#6973BD"/>
<path d="M165.518 154.05C166.205 156.076 165.798 158.214 164.613 158.834C163.431 159.444 161.913 158.308 161.23 156.281C160.544 154.255 160.951 152.117 162.135 151.497C163.32 150.877 164.836 152.023 165.518 154.05Z" fill="white"/>
<path d="M128.642 159.455C124.831 148.195 116.4 141.833 109.809 145.262C103.222 148.69 100.97 160.605 104.777 171.866C108.59 183.135 117.023 189.487 123.61 186.059C130.201 182.63 132.455 170.725 128.642 159.455Z" fill="white"/>
<path d="M127.62 164.623C125.268 157.68 120.071 153.757 116.009 155.875C111.946 157.983 110.554 165.324 112.908 172.268C115.257 179.22 120.452 183.133 124.521 181.022C128.58 178.907 129.967 171.566 127.62 164.623Z" fill="#0B1411"/>
<path fill-rule="evenodd" clip-rule="evenodd" d="M112.908 172.268C115.257 179.22 120.452 183.134 124.521 181.022C128.58 178.907 129.967 171.566 127.62 164.623C125.268 157.68 120.071 153.757 116.009 155.875C111.946 157.983 110.554 165.324 112.908 172.268ZM117.396 158.535C116.513 158.993 115.474 160.309 115 162.816C114.542 165.232 114.724 168.279 115.749 171.304L115.75 171.307C116.779 174.354 118.363 176.509 119.875 177.648C121.364 178.77 122.434 178.724 123.136 178.361C124.019 177.899 125.051 176.582 125.525 174.076C125.982 171.658 125.801 168.611 124.778 165.585C123.748 162.544 122.163 160.387 120.65 159.247C119.157 158.121 118.091 158.173 117.396 158.535Z" fill="#6973BD"/>
<path d="M123.59 162.059C124.277 164.085 123.872 166.232 122.686 166.843C121.501 167.463 119.985 166.318 119.303 164.291C118.616 162.264 119.023 160.126 120.203 159.507C121.389 158.897 122.908 160.032 123.59 162.059Z" fill="white"/>
<path fill-rule="evenodd" clip-rule="evenodd" d="M131.567 186.159C131.914 186.056 132.28 186.255 132.382 186.603C132.485 186.951 132.286 187.316 131.938 187.418L131.752 186.789L131.567 186.159ZM131.566 186.159C131.566 186.159 131.567 186.159 131.752 186.789C131.938 187.418 131.938 187.418 131.938 187.418L131.727 187.481C131.588 187.522 131.381 187.584 131.113 187.663C130.576 187.823 129.791 188.057 128.801 188.354C126.819 188.948 124.015 189.794 120.721 190.803C114.132 192.822 105.589 195.491 97.7659 198.095C97.4219 198.21 97.0501 198.024 96.9355 197.68C96.821 197.336 97.007 196.964 97.3511 196.849C105.189 194.24 113.743 191.567 120.336 189.548C123.633 188.537 126.44 187.69 128.423 187.096C129.415 186.799 130.201 186.564 130.738 186.405C131.007 186.325 131.214 186.263 131.354 186.222L131.566 186.159Z" fill="#0B1411"/>
<path fill-rule="evenodd" clip-rule="evenodd" d="M130.678 191.017C130.802 191.358 130.627 191.735 130.286 191.859L130.283 191.849C130.286 191.859 130.286 191.859 130.286 191.859L130.286 191.859L130.284 191.86L130.275 191.863L130.241 191.876C130.21 191.887 130.163 191.905 130.101 191.928C129.977 191.974 129.792 192.044 129.551 192.137C129.069 192.324 128.362 192.602 127.465 192.972C125.669 193.71 123.112 194.809 120.072 196.249C113.989 199.133 105.983 203.379 98.2724 208.839C97.9764 209.049 97.5666 208.979 97.357 208.683C97.1475 208.387 97.2175 207.977 97.5135 207.767C105.306 202.25 113.384 197.966 119.509 195.063C122.573 193.611 125.152 192.502 126.965 191.757C127.872 191.384 128.588 191.102 129.078 190.912C129.323 190.818 129.512 190.746 129.639 190.698C129.703 190.674 129.752 190.656 129.785 190.644L129.822 190.63L129.836 190.625C129.836 190.625 129.836 190.625 130.061 191.242L129.836 190.625C130.177 190.501 130.554 190.676 130.678 191.017Z" fill="#0B1411"/>
<path fill-rule="evenodd" clip-rule="evenodd" d="M134.272 192.311C134.5 192.594 134.455 193.007 134.173 193.235C126.743 199.217 119.938 205.286 114.988 209.862C112.514 212.149 110.505 214.062 109.115 215.402C108.419 216.073 107.879 216.6 107.513 216.959C107.33 217.139 107.19 217.277 107.096 217.37C107.049 217.416 107.014 217.451 106.99 217.474L106.955 217.509C106.955 217.509 106.955 217.509 106.492 217.044C106.028 216.579 106.028 216.579 106.029 216.579L106.029 216.578L106.065 216.542C106.089 216.518 106.125 216.483 106.173 216.436C106.268 216.342 106.409 216.203 106.593 216.022C106.962 215.66 107.505 215.13 108.203 214.457C109.599 213.111 111.615 211.192 114.097 208.897C119.06 204.309 125.889 198.218 133.349 192.212C133.632 191.984 134.045 192.029 134.272 192.311ZM106.027 217.507C105.771 217.251 105.771 216.835 106.028 216.579L106.492 217.044L106.955 217.509C106.698 217.765 106.283 217.764 106.027 217.507Z" fill="#0B1411"/>
<path fill-rule="evenodd" clip-rule="evenodd" d="M155.993 186.928C156.118 186.587 156.496 186.414 156.836 186.54L156.608 187.155C156.836 186.54 156.836 186.54 156.837 186.54L156.839 186.54L156.844 186.542L156.864 186.55C156.881 186.556 156.905 186.566 156.938 186.578C157.002 186.603 157.097 186.64 157.221 186.69C157.47 186.789 157.834 186.94 158.307 187.145C159.252 187.556 160.627 188.187 162.359 189.071C165.822 190.839 170.71 193.621 176.432 197.682C176.728 197.892 176.797 198.302 176.588 198.597C176.378 198.893 175.968 198.963 175.672 198.753C170.007 194.732 165.174 191.983 161.761 190.241C160.055 189.369 158.705 188.75 157.783 188.35C157.323 188.149 156.969 188.004 156.732 187.909C156.614 187.861 156.525 187.826 156.466 187.804C156.436 187.792 156.414 187.784 156.4 187.778L156.384 187.773L156.381 187.771C156.041 187.645 155.867 187.268 155.993 186.928Z" fill="#0B1411"/>
<path fill-rule="evenodd" clip-rule="evenodd" d="M159.38 185.306L159.381 185.306L159.386 185.307L159.41 185.31C159.431 185.313 159.464 185.318 159.508 185.324C159.595 185.336 159.725 185.355 159.895 185.382C160.236 185.435 160.738 185.519 161.373 185.641C162.644 185.884 164.449 186.275 166.582 186.871C170.852 188.062 176.41 190.064 181.604 193.301C181.911 193.493 182.316 193.399 182.508 193.091C182.7 192.783 182.606 192.378 182.298 192.186C176.963 188.861 171.277 186.818 166.935 185.606C164.762 184.999 162.92 184.599 161.619 184.351C160.969 184.227 160.453 184.14 160.099 184.085C159.922 184.057 159.785 184.037 159.692 184.023C159.645 184.017 159.609 184.012 159.585 184.009L159.557 184.005L159.549 184.004L159.546 184.004C159.546 184.003 159.546 184.003 159.463 184.655L159.546 184.003C159.186 183.958 158.857 184.212 158.811 184.572C158.766 184.931 159.02 185.26 159.38 185.306Z" fill="#0B1411"/>
<path fill-rule="evenodd" clip-rule="evenodd" d="M156.543 182.474L156.544 182.474L156.55 182.473L156.576 182.47C156.6 182.468 156.635 182.464 156.682 182.46C156.776 182.45 156.916 182.437 157.099 182.422C157.464 182.391 157.997 182.351 158.668 182.315C160.01 182.244 161.896 182.189 164.072 182.258C168.438 182.396 173.909 183.029 178.48 184.971C178.814 185.113 179.199 184.957 179.341 184.624C179.483 184.29 179.327 183.904 178.994 183.762C174.202 181.726 168.541 181.086 164.114 180.946C161.893 180.875 159.969 180.931 158.598 181.004C157.913 181.04 157.365 181.081 156.988 181.113C156.799 181.129 156.653 181.143 156.553 181.153C156.504 181.158 156.465 181.161 156.439 181.164L156.409 181.167L156.401 181.168L156.398 181.169C156.398 181.169 156.398 181.169 156.471 181.821L156.398 181.169C156.038 181.209 155.778 181.533 155.818 181.894C155.858 182.254 156.183 182.514 156.543 182.474C156.543 182.474 156.543 182.474 156.543 182.474Z" fill="#0B1411"/>
<path d="M145.984 188.974C146.756 189.717 150.814 195.328 154.833 190.997C154.833 190.997 156.56 196.947 154.948 201.64C154.948 201.64 151.862 197.364 147.142 198.019C142.423 198.675 140.421 204.134 140.421 204.134C137.407 200.758 136.464 195.782 136.464 195.782C136.464 195.782 144.044 195.538 145.893 188.883C145.895 188.884 145.922 188.913 145.984 188.974Z" fill="#0A1311"/>
<path d="M147.141 198.019C151.86 197.364 154.947 201.64 154.947 201.64C154.114 204.071 152.389 206.159 149.067 206.915C145.13 207.809 142.345 206.3 140.419 204.136C140.42 204.134 142.421 198.674 147.141 198.019Z" fill="#CB542F"/>
<path fill-rule="evenodd" clip-rule="evenodd" d="M144.143 181.032C144.681 180.908 145.218 181.243 145.343 181.781L147.248 189.991C147.373 190.529 147.038 191.066 146.5 191.191C145.962 191.316 145.425 190.981 145.3 190.443L143.395 182.233C143.27 181.695 143.605 181.157 144.143 181.032Z" fill="#0B1411"/>
<path d="M141.958 168.602C146.511 167.803 150.773 169.828 151.48 173.112C152.184 176.405 144.366 182.004 144.366 182.004C144.366 182.004 135.696 179.289 134.995 176.003C134.292 172.719 137.412 169.407 141.958 168.602Z" fill="#CB542F"/>
<path d="M111.924 242.836C111.924 242.836 114.188 234.492 128.588 237.886C139.752 240.516 154.532 241.883 154.532 241.883L171.397 240.558L174.024 248.529C174.024 248.529 153.186 259.117 138.131 260.356C123.077 261.595 111.825 255.742 111.924 242.836Z" fill="#ACB3DB"/>
<path d="M168.316 240.945C167.08 242.248 166.858 244.416 167.136 246.133C167.644 249.27 170.358 249.806 173.161 249.744C178.243 249.63 184.292 248.197 188.235 244.896C191.972 241.769 194.286 234.181 189.312 231.026C188.834 230.723 188.248 230.481 187.713 230.666C187.178 230.851 186.882 231.649 187.325 232.001C185.978 230.871 183.879 230.747 182.411 231.714C181.921 232.036 181.488 232.741 181.906 233.151C180.793 231.733 178.67 231.22 177.03 231.971C174.366 233.193 175.054 236.166 173.343 237.827C173.007 238.153 172.56 238.333 172.127 238.519C170.736 239.112 169.356 239.847 168.316 240.945Z" fill="#E1EDFF"/>
</g>
<path d="M240.358 128.969L229.857 132.337C228.279 132.843 227.41 134.532 227.916 136.11L231.284 146.611C231.79 148.188 233.479 149.057 235.057 148.551L245.558 145.183C247.136 144.677 248.005 142.988 247.498 141.41L244.13 130.909C243.624 129.331 241.935 128.463 240.358 128.969Z" fill="#FED8F5"/>
<path fill-rule="evenodd" clip-rule="evenodd" d="M237.663 127.921L227.162 131.289C226.11 131.626 225.531 132.752 225.868 133.804L229.236 144.305C229.574 145.357 230.7 145.936 231.752 145.599L242.253 142.231C243.304 141.893 243.884 140.767 243.546 139.715L240.178 129.215C239.841 128.163 238.715 127.584 237.663 127.921ZM226.857 130.337L237.358 126.969C238.935 126.463 240.624 127.331 241.13 128.909L244.498 139.41C245.005 140.988 244.136 142.677 242.558 143.183L232.057 146.551C230.479 147.057 228.79 146.188 228.284 144.611L224.916 134.11C224.41 132.532 225.279 130.843 226.857 130.337Z" fill="#67676A"/>
<path d="M813.391 238.489L809.613 239.701C808.035 240.207 807.166 241.896 807.672 243.474L808.884 247.252C809.39 248.83 811.079 249.699 812.657 249.193L816.436 247.981C818.013 247.475 818.882 245.786 818.376 244.208L817.164 240.429C816.658 238.851 814.969 237.983 813.391 238.489Z" fill="#DDE5FF"/>
<path fill-rule="evenodd" clip-rule="evenodd" d="M811.941 238.27L808.162 239.482C807.11 239.819 806.531 240.946 806.868 241.997L808.08 245.776C808.418 246.828 809.544 247.407 810.596 247.07L814.375 245.858C815.426 245.52 816.005 244.394 815.668 243.342L814.456 239.564C814.119 238.512 812.993 237.933 811.941 238.27ZM807.857 238.53L811.635 237.318C813.213 236.812 814.902 237.681 815.408 239.258L816.62 243.037C817.126 244.615 816.258 246.304 814.68 246.81L810.901 248.022C809.323 248.528 807.634 247.659 807.128 246.082L805.916 242.303C805.41 240.725 806.279 239.036 807.857 238.53Z" fill="#67676A"/>
<path d="M588.025 152.229L574.574 148.639C572.973 148.212 571.329 149.164 570.902 150.765L567.312 164.216C566.885 165.816 567.836 167.461 569.437 167.888L582.888 171.477C584.489 171.905 586.133 170.953 586.56 169.352L590.15 155.901C590.577 154.3 589.626 152.656 588.025 152.229Z" fill="#FFD152"/>
<path fill-rule="evenodd" clip-rule="evenodd" d="M586.079 149.329L572.628 145.74C571.561 145.455 570.465 146.089 570.18 147.156L566.591 160.608C566.306 161.675 566.94 162.771 568.007 163.056L581.458 166.645C582.526 166.93 583.622 166.296 583.906 165.228L587.496 151.777C587.781 150.71 587.147 149.614 586.079 149.329ZM572.886 144.774L586.337 148.363C587.938 148.79 588.889 150.434 588.462 152.035L584.873 165.486C584.445 167.087 582.801 168.039 581.201 167.611L567.749 164.022C566.149 163.595 565.197 161.951 565.624 160.35L569.214 146.899C569.641 145.298 571.285 144.346 572.886 144.774Z" fill="#67676A"/>
<path d="M435.335 254.916L430.857 256.353C429.279 256.859 428.41 258.548 428.916 260.126L430.353 264.604C430.859 266.182 432.548 267.051 434.126 266.545L438.604 265.108C440.182 264.602 441.051 262.913 440.545 261.335L439.108 256.857C438.602 255.279 436.913 254.41 435.335 254.916Z" fill="#D0ECB3"/>
<path fill-rule="evenodd" clip-rule="evenodd" d="M435.641 255.869L431.162 257.305C430.11 257.642 429.531 258.768 429.868 259.82L431.305 264.299C431.642 265.351 432.768 265.93 433.82 265.593L438.299 264.156C439.351 263.819 439.93 262.693 439.593 261.641L438.156 257.162C437.819 256.11 436.693 255.531 435.641 255.869ZM430.857 256.353L435.335 254.916C436.913 254.41 438.602 255.279 439.108 256.857L440.545 261.335C441.051 262.913 440.182 264.602 438.604 265.108L434.126 266.545C432.548 267.051 430.859 266.182 430.353 264.604L428.916 260.126C428.41 258.548 429.279 256.859 430.857 256.353Z" fill="#67676A"/>
<path d="M1112.7 241.54L1101.01 239.513C1099.38 239.23 1097.82 240.323 1097.54 241.956L1095.51 253.649C1095.23 255.281 1096.32 256.834 1097.96 257.117L1109.65 259.145C1111.28 259.428 1112.83 258.334 1113.12 256.702L1115.14 245.009C1115.43 243.376 1114.33 241.824 1112.7 241.54Z" fill="#A1DA67"/>
<path fill-rule="evenodd" clip-rule="evenodd" d="M1112.53 242.526L1100.84 240.498C1099.75 240.309 1098.71 241.038 1098.53 242.127L1096.5 253.82C1096.31 254.908 1097.04 255.943 1098.13 256.132L1109.82 258.16C1110.91 258.349 1111.94 257.619 1112.13 256.531L1114.16 244.838C1114.35 243.75 1113.62 242.714 1112.53 242.526ZM1101.01 239.513L1112.7 241.54C1114.33 241.824 1115.43 243.376 1115.14 245.009L1113.12 256.702C1112.83 258.334 1111.28 259.428 1109.65 259.145L1097.96 257.117C1096.32 256.834 1095.23 255.281 1095.51 253.649L1097.54 241.956C1097.82 240.323 1099.38 239.23 1101.01 239.513Z" fill="#67676A"/>
<path fill-rule="evenodd" clip-rule="evenodd" d="M1110 110H30C13.9837 110 1 122.984 1 139V251C1 267.016 13.9838 280 30 280H1110C1126.02 280 1139 267.016 1139 251V139C1139 122.984 1126.02 110 1110 110ZM30 109C13.4315 109 0 122.431 0 139V251C0 267.569 13.4315 281 30 281H1110C1126.57 281 1140 267.569 1140 251V139C1140 122.431 1126.57 109 1110 109H30Z" fill="#67676A"/>
<path d="M320.097 145.338C319.661 145.452 319.288 145.734 319.06 146.122C318.832 146.51 318.768 146.973 318.881 147.409L347.715 258.218C349.387 264.643 358.271 263.231 358.271 263.231C359.193 263.083 360.686 262.769 361.598 262.532L521.099 221.028C521.534 220.914 521.907 220.633 522.135 220.244C522.363 219.856 522.428 219.393 522.314 218.957L492.045 102.631C491.931 102.195 491.649 101.822 491.261 101.594C490.873 101.366 490.41 101.302 489.974 101.415L320.097 145.338Z" fill="#FFF1CB"/>
<path d="M521.259 221.644L361.746 263.151C360.83 263.39 359.312 263.71 358.369 263.859C356.756 264.073 355.12 264.038 353.517 263.757C350.079 263.121 347.867 261.28 347.112 258.375L318.277 147.562C318.122 146.963 318.211 146.327 318.525 145.794C318.838 145.261 319.351 144.874 319.949 144.719L489.826 100.795C490.425 100.641 491.061 100.73 491.595 101.043C492.129 101.356 492.516 101.868 492.673 102.467L522.943 218.793C523.02 219.091 523.037 219.401 522.994 219.706C522.951 220.01 522.849 220.303 522.692 220.568C522.536 220.833 522.329 221.064 522.083 221.249C521.837 221.433 521.557 221.568 521.259 221.644ZM320.258 145.954C320.123 145.989 319.996 146.05 319.885 146.133C319.774 146.217 319.68 146.322 319.609 146.441C319.539 146.561 319.492 146.694 319.473 146.832C319.454 146.97 319.462 147.11 319.497 147.245L348.332 258.058C349.841 263.858 358.089 262.616 358.172 262.599C359.082 262.454 360.546 262.148 361.43 261.918L520.938 220.411C521.211 220.341 521.444 220.164 521.586 219.922C521.729 219.679 521.769 219.39 521.698 219.117L491.428 102.791C491.356 102.518 491.179 102.286 490.936 102.143C490.693 102.001 490.403 101.961 490.13 102.032L320.258 145.954Z" fill="#67676A"/>
<path d="M523.185 220.485C524.255 220.167 525.26 219.664 526.154 218.997L527.582 216.564C527.729 215.458 527.681 214.335 527.438 213.246L495.25 89.5452C494.18 89.3235 493.076 89.3313 492.01 89.568L327.46 132.386C326.692 132.586 326.681 132.764 326.681 132.764C326.603 133.881 326.69 135.004 326.939 136.097L359.523 261.317C359.636 261.753 359.918 262.126 360.307 262.354C360.695 262.582 361.158 262.646 361.594 262.533L523.185 220.485Z" fill="white"/>
<path d="M523.346 221.101L361.746 263.151C361.147 263.306 360.511 263.217 359.977 262.904C359.444 262.59 359.056 262.078 358.899 261.48L326.315 136.259C326.045 135.094 325.952 133.896 326.039 132.703C326.093 132.154 326.738 131.916 327.296 131.771L491.85 88.9516C493.02 88.6864 494.233 88.679 495.406 88.9299L495.771 89.019L528.056 213.09C528.322 214.265 528.375 215.478 528.212 216.672L528.193 216.787L526.646 219.422L526.557 219.498C525.591 220.22 524.504 220.763 523.346 221.101ZM327.288 133.106C327.255 134.057 327.343 135.009 327.551 135.937L360.135 261.158C360.207 261.43 360.384 261.662 360.626 261.804C360.869 261.947 361.157 261.987 361.43 261.918L523.025 219.868C523.971 219.584 524.863 219.144 525.665 218.567L526.973 216.345C527.085 215.364 527.034 214.371 526.823 213.406L494.735 90.0916C493.881 89.9702 493.013 90.0016 492.171 90.1841L327.621 133.002C327.508 133.031 327.397 133.065 327.288 133.106Z" fill="#67676A"/>
<path d="M439.466 173.899L359.995 194.578C359.088 194.815 358.543 195.742 358.779 196.649L364.454 218.456C364.69 219.364 365.617 219.908 366.525 219.672L445.996 198.993C446.903 198.756 447.447 197.829 447.211 196.922L441.537 175.115C441.301 174.207 440.374 173.663 439.466 173.899Z" fill="#8FA9FF"/>
<path d="M443.053 197.774L363.582 218.454C362.983 218.608 362.347 218.519 361.813 218.206C361.279 217.893 360.891 217.381 360.735 216.782L355.06 194.975C354.905 194.376 354.994 193.74 355.308 193.206C355.621 192.672 356.133 192.285 356.732 192.128L436.203 171.448C436.802 171.294 437.438 171.383 437.972 171.696C438.505 172.009 438.893 172.521 439.05 173.12L444.724 194.927C444.879 195.526 444.79 196.162 444.477 196.696C444.164 197.229 443.652 197.617 443.053 197.774ZM357.052 193.36C356.78 193.431 356.547 193.607 356.404 193.85C356.262 194.093 356.222 194.382 356.293 194.654L361.967 216.461C362.038 216.734 362.214 216.967 362.457 217.109C362.7 217.252 362.989 217.292 363.261 217.221L442.732 196.542C443.005 196.471 443.238 196.295 443.38 196.052C443.523 195.809 443.563 195.52 443.492 195.247L437.818 173.441C437.747 173.168 437.571 172.935 437.328 172.793C437.085 172.65 436.796 172.61 436.523 172.681L357.052 193.36Z" fill="#67676A"/>
<path d="M496.077 156.526L445.176 169.772C444.268 170.008 443.724 170.935 443.96 171.843L444.432 173.658C444.669 174.566 445.596 175.11 446.503 174.874L497.405 161.629C498.313 161.393 498.857 160.465 498.621 159.558L498.148 157.742C497.912 156.834 496.985 156.29 496.077 156.526Z" fill="#DDE5FF"/>
<path d="M497.566 162.245L446.664 175.49C446.065 175.646 445.428 175.558 444.894 175.244C444.36 174.931 443.973 174.418 443.817 173.819L443.344 172.003C443.188 171.403 443.277 170.767 443.59 170.233C443.904 169.699 444.417 169.311 445.016 169.155L495.918 155.91C496.517 155.755 497.153 155.844 497.687 156.157C498.22 156.471 498.608 156.983 498.765 157.581L499.238 159.397C499.392 159.997 499.303 160.633 498.99 161.166C498.677 161.7 498.165 162.088 497.566 162.245ZM445.337 170.388C445.064 170.459 444.831 170.635 444.689 170.877C444.546 171.12 444.506 171.41 444.577 171.682L445.049 173.498C445.12 173.77 445.296 174.003 445.539 174.146C445.782 174.288 446.071 174.329 446.344 174.258L497.245 161.012C497.518 160.942 497.751 160.765 497.893 160.523C498.036 160.28 498.076 159.99 498.005 159.718L497.533 157.902C497.462 157.63 497.286 157.397 497.043 157.254C496.8 157.112 496.511 157.072 496.238 157.142L445.337 170.388Z" fill="#67676A"/>
<path d="M498.679 166.522L447.777 179.767C446.869 180.003 446.325 180.93 446.561 181.838L447.034 183.654C447.27 184.561 448.197 185.106 449.105 184.869L500.006 171.624C500.914 171.388 501.458 170.461 501.222 169.553L500.75 167.737C500.513 166.83 499.586 166.286 498.679 166.522Z" fill="#FFF1CB"/>
<path d="M500.163 172.224L449.261 185.469C448.662 185.625 448.025 185.537 447.491 185.223C446.957 184.91 446.569 184.397 446.414 183.798L445.941 181.982C445.785 181.382 445.874 180.746 446.187 180.212C446.501 179.678 447.013 179.29 447.613 179.134L498.514 165.889C499.114 165.734 499.75 165.823 500.283 166.136C500.817 166.45 501.205 166.962 501.362 167.561L501.834 169.376C501.989 169.976 501.9 170.612 501.587 171.145C501.274 171.679 500.761 172.067 500.163 172.224ZM447.933 180.367C447.661 180.438 447.428 180.614 447.285 180.856C447.143 181.099 447.103 181.389 447.173 181.661L447.646 183.477C447.717 183.749 447.893 183.982 448.136 184.125C448.379 184.267 448.668 184.308 448.94 184.237L499.842 170.991C500.114 170.921 500.348 170.744 500.49 170.502C500.633 170.259 500.673 169.969 500.602 169.697L500.129 167.881C500.058 167.609 499.882 167.376 499.64 167.233C499.397 167.091 499.107 167.051 498.835 167.121L447.933 180.367Z" fill="#67676A"/>
<path d="M416.097 211.404L365.195 224.649C364.288 224.885 363.743 225.812 363.98 226.72L364.452 228.536C364.688 229.443 365.615 229.987 366.523 229.751L417.425 216.506C418.332 216.27 418.877 215.343 418.641 214.435L418.168 212.619C417.932 211.712 417.005 211.167 416.097 211.404Z" fill="#DDE5FF"/>
<path d="M417.585 217.122L366.683 230.368C366.084 230.524 365.447 230.435 364.913 230.122C364.379 229.808 363.992 229.295 363.836 228.696L363.363 226.88C363.208 226.281 363.297 225.645 363.611 225.111C363.924 224.577 364.436 224.19 365.035 224.033L415.936 210.787C416.536 210.631 417.172 210.72 417.706 211.033C418.24 211.347 418.628 211.86 418.784 212.459L419.256 214.275C419.412 214.874 419.324 215.511 419.01 216.045C418.697 216.579 418.184 216.966 417.585 217.122ZM365.361 225.286C365.089 225.358 364.857 225.534 364.714 225.776C364.572 226.019 364.531 226.308 364.601 226.58L365.073 228.396C365.144 228.668 365.321 228.901 365.563 229.044C365.806 229.186 366.095 229.227 366.368 229.156L417.27 215.91C417.542 215.839 417.775 215.663 417.918 215.421C418.06 215.178 418.1 214.888 418.029 214.616L417.557 212.8C417.485 212.528 417.309 212.296 417.066 212.154C416.824 212.011 416.535 211.971 416.263 212.04L365.361 225.286Z" fill="#67676A"/>
<path d="M504.356 188.076L426.36 208.371C425.452 208.608 424.908 209.535 425.144 210.442L425.616 212.258C425.853 213.166 426.78 213.71 427.687 213.474L505.683 193.178C506.591 192.942 507.135 192.015 506.899 191.107L506.426 189.292C506.19 188.384 505.263 187.84 504.356 188.076Z" fill="#DDE5FF"/>
<path d="M505.848 193.794L427.848 214.09C427.249 214.246 426.612 214.158 426.078 213.844C425.544 213.531 425.157 213.018 425.001 212.419L424.528 210.603C424.374 210.004 424.463 209.367 424.776 208.834C425.089 208.3 425.601 207.912 426.2 207.755L504.2 187.459C504.799 187.304 505.435 187.393 505.969 187.706C506.503 188.02 506.891 188.532 507.048 189.13L507.52 190.946C507.676 191.545 507.588 192.182 507.274 192.716C506.961 193.25 506.448 193.638 505.848 193.794ZM426.526 209.008C426.254 209.08 426.022 209.257 425.88 209.499C425.737 209.741 425.697 210.03 425.766 210.303L426.239 212.119C426.311 212.39 426.487 212.623 426.729 212.765C426.972 212.907 427.261 212.948 427.533 212.878L505.533 192.582C505.806 192.511 506.039 192.335 506.181 192.092C506.324 191.849 506.364 191.56 506.293 191.287L505.82 189.472C505.749 189.2 505.572 188.967 505.33 188.825C505.087 188.683 504.798 188.642 504.526 188.712L426.526 209.008Z" fill="#67676A"/>
<path d="M506.99 198.468L456.088 211.713C455.181 211.949 454.637 212.877 454.873 213.784L455.345 215.6C455.581 216.508 456.509 217.052 457.416 216.816L508.318 203.57C509.225 203.334 509.77 202.407 509.534 201.5L509.061 199.684C508.825 198.776 507.898 198.232 506.99 198.468Z" fill="#FFF1CB"/>
<path d="M508.479 204.187L457.577 217.432C456.978 217.588 456.341 217.499 455.807 217.186C455.273 216.872 454.886 216.36 454.73 215.76L454.257 213.944C454.101 213.345 454.19 212.708 454.503 212.174C454.817 211.64 455.329 211.253 455.929 211.097L506.83 197.852C507.43 197.697 508.066 197.786 508.6 198.099C509.133 198.412 509.521 198.924 509.678 199.523L510.151 201.339C510.305 201.938 510.216 202.574 509.903 203.108C509.59 203.642 509.078 204.03 508.479 204.187ZM456.249 212.329C455.977 212.4 455.744 212.576 455.601 212.819C455.459 213.062 455.419 213.351 455.49 213.624L455.962 215.44C456.033 215.712 456.209 215.945 456.452 216.088C456.695 216.23 456.984 216.27 457.256 216.199L508.158 202.954C508.431 202.883 508.664 202.707 508.806 202.464C508.949 202.222 508.989 201.932 508.918 201.66L508.446 199.844C508.375 199.571 508.198 199.338 507.956 199.196C507.713 199.053 507.424 199.013 507.151 199.084L456.249 212.329Z" fill="#67676A"/>
<path d="M445.802 214.39L367.806 234.686C366.898 234.922 366.354 235.849 366.59 236.757L367.063 238.572C367.299 239.48 368.226 240.024 369.134 239.788L447.13 219.493C448.037 219.256 448.581 218.329 448.345 217.422L447.873 215.606C447.637 214.698 446.709 214.154 445.802 214.39Z" fill="#DDE5FF"/>
<path d="M447.295 220.108L369.295 240.404C368.696 240.559 368.059 240.47 367.526 240.157C366.992 239.843 366.604 239.331 366.447 238.733L365.975 236.917C365.82 236.318 365.909 235.681 366.222 235.148C366.536 234.614 367.048 234.226 367.646 234.069L445.646 213.773C446.246 213.618 446.882 213.707 447.415 214.02C447.949 214.334 448.337 214.846 448.494 215.444L448.966 217.26C449.121 217.859 449.032 218.495 448.719 219.029C448.406 219.563 447.893 219.951 447.295 220.108ZM367.967 235.302C367.695 235.373 367.462 235.549 367.319 235.792C367.177 236.034 367.136 236.324 367.207 236.596L367.68 238.412C367.751 238.684 367.927 238.917 368.169 239.06C368.412 239.202 368.702 239.243 368.974 239.172L446.974 218.875C447.246 218.803 447.478 218.627 447.621 218.384C447.763 218.142 447.804 217.853 447.734 217.581L447.261 215.765C447.189 215.493 447.013 215.261 446.771 215.118C446.528 214.976 446.239 214.935 445.967 215.005L367.967 235.302Z" fill="#67676A"/>
<path d="M501.279 176.517L450.378 189.763C449.47 189.999 448.926 190.926 449.162 191.834L449.634 193.649C449.871 194.557 450.798 195.101 451.705 194.865L502.607 181.62C503.515 181.384 504.059 180.456 503.823 179.549L503.35 177.733C503.114 176.825 502.187 176.281 501.279 176.517Z" fill="#DDE5FF"/>
<path d="M502.768 182.236L451.867 195.481C451.267 195.637 450.631 195.549 450.097 195.235C449.563 194.922 449.175 194.409 449.019 193.81L448.546 191.994C448.391 191.394 448.479 190.758 448.793 190.224C449.106 189.69 449.619 189.302 450.218 189.146L501.12 175.901C501.719 175.746 502.355 175.835 502.889 176.148C503.423 176.462 503.81 176.974 503.967 177.572L504.44 179.388C504.595 179.988 504.506 180.624 504.192 181.157C503.879 181.691 503.367 182.079 502.768 182.236ZM450.544 190.399C450.272 190.47 450.039 190.646 449.896 190.889C449.754 191.132 449.713 191.421 449.784 191.694L450.257 193.509C450.328 193.782 450.504 194.015 450.747 194.157C450.989 194.3 451.279 194.34 451.551 194.269L502.453 181.024C502.725 180.953 502.958 180.777 503.101 180.534C503.243 180.291 503.284 180.002 503.213 179.73L502.74 177.914C502.669 177.641 502.493 177.408 502.25 177.266C502.008 177.123 501.718 177.083 501.446 177.154L450.544 190.399Z" fill="#67676A"/>
<path d="M384.278 132.936L393.806 169.553L388.502 170.934L371.938 149.236L378.277 173.594L372.665 175.055L363.136 138.438L369.057 136.897L384.613 157.168L378.686 134.391L384.278 132.936Z" fill="#A1DA67"/>
<path d="M394.582 170.009L388.251 171.657L373.353 152.145L379.055 174.059L372.211 175.84L362.36 137.982L369.307 136.174L383.183 154.285L377.889 133.941L384.733 132.16L394.582 170.009ZM388.748 170.212L393.029 169.098L383.822 133.713L379.442 134.853L386.001 160.057L368.81 137.619L363.913 138.893L373.12 174.278L377.5 173.139L370.525 146.336L388.748 170.212Z" fill="#67676A"/>
<path d="M407.682 126.846L409.044 132.08L397.677 135.038L400.183 144.668L408.563 142.487L409.924 147.717L401.543 149.898L404.482 161.191L415.85 158.233L417.211 163.463L399.923 167.962L390.395 131.344L407.682 126.846Z" fill="#A1DA67"/>
<path d="M417.988 163.919L399.468 168.738L389.619 130.889L408.139 126.069L409.822 132.536L398.454 135.494L400.639 143.891L409.02 141.71L410.702 148.173L402.321 150.354L404.939 160.415L416.306 157.457L417.988 163.919ZM400.38 167.185L416.435 163.007L415.395 159.01L404.027 161.968L400.768 149.442L409.148 147.261L408.108 143.264L399.727 145.444L396.901 134.582L408.269 131.624L407.227 127.623L391.172 131.8L400.38 167.185Z" fill="#67676A"/>
<path d="M447.209 155.657L441.68 157.096L430.286 133.54L432.173 159.57L426.623 161.014L409.975 126.25L415.698 124.761L426.171 147.24L424.609 122.442L429.748 121.105L440.891 143.41L438.601 118.801L444.131 117.362L447.209 155.657Z" fill="#A1DA67"/>
<path d="M447.888 156.139L441.314 157.849L431.15 136.807L432.814 160.061L426.241 161.772L409.03 125.838L416.014 124.02L425.285 143.922L423.902 121.968L430.065 120.364L439.942 140.082L437.919 118.316L444.705 116.55L447.888 156.139ZM442.025 156.349L446.544 155.173L443.569 118.166L439.288 119.28L441.839 146.734L429.412 121.85L425.27 122.928L427.011 150.57L415.337 125.513L410.891 126.669L426.98 160.263L431.5 159.087L429.416 130.262L442.025 156.349Z" fill="#67676A"/>
<path d="M470.451 119.707L465.225 122.786C463.37 119.397 461.204 118.024 458.727 118.665C457.726 118.897 456.858 119.514 456.309 120.382C456.026 120.823 455.84 121.319 455.765 121.837C455.689 122.355 455.726 122.884 455.872 123.387C456.06 124.072 456.382 124.713 456.819 125.273C457.256 125.833 457.8 126.301 458.419 126.65C459.295 127.185 461.329 128.087 464.522 129.356C467.792 130.681 470.115 131.824 471.494 132.784C473.603 134.225 475.104 136.395 475.711 138.876C476.074 140.113 476.164 141.413 475.976 142.688C475.787 143.963 475.325 145.183 474.62 146.262C473.163 148.53 470.852 150.077 467.686 150.904C461.17 152.599 456.414 150.17 453.416 143.616L458.645 140.566C460.566 144.745 463.119 146.421 466.304 145.592C466.895 145.47 467.455 145.23 467.949 144.884C468.444 144.539 468.863 144.097 469.181 143.584C469.471 143.088 469.655 142.537 469.722 141.967C469.789 141.396 469.736 140.818 469.568 140.268C469.206 138.944 468.344 137.813 467.164 137.113C465.534 136.128 463.82 135.29 462.042 134.607C458.616 133.209 456.545 132.316 455.827 131.93C452.544 130.17 450.526 127.841 449.772 124.943C449.018 122.046 449.495 119.487 451.205 117.267C452.634 115.345 454.69 114.037 457.373 113.342C462.867 111.915 467.227 114.036 470.451 119.707Z" fill="#A1DA67"/>
<path d="M467.842 151.521C461.014 153.298 455.963 150.726 452.831 143.882L452.59 143.361L458.927 139.664L459.221 140.302C461.009 144.193 463.263 145.725 466.139 144.976C466.649 144.875 467.132 144.671 467.56 144.376C467.988 144.081 468.351 143.703 468.628 143.263C468.876 142.839 469.033 142.368 469.089 141.88C469.145 141.392 469.098 140.897 468.952 140.428C468.632 139.259 467.867 138.261 466.821 137.649C465.221 136.685 463.54 135.865 461.796 135.197C458.321 133.777 456.265 132.89 455.525 132.491C452.099 130.65 449.952 128.164 449.155 125.104C448.359 122.043 448.879 119.271 450.7 116.88C452.205 114.857 454.398 113.458 457.212 112.725C462.992 111.221 467.633 113.461 471 119.389L471.313 119.934L464.985 123.665L464.668 123.089C462.954 119.956 461.064 118.711 458.886 119.277C458.043 119.468 457.31 119.985 456.848 120.716C456.61 121.083 456.455 121.497 456.393 121.929C456.331 122.362 456.363 122.803 456.487 123.222C456.654 123.828 456.94 124.396 457.329 124.89C457.717 125.385 458.2 125.797 458.75 126.103C459.59 126.617 461.608 127.513 464.753 128.761C468.103 130.122 470.429 131.271 471.857 132.259C474.084 133.793 475.671 136.092 476.315 138.718C476.697 140.041 476.79 141.43 476.588 142.792C476.387 144.154 475.894 145.457 475.145 146.612C473.614 149.006 471.153 150.659 467.842 151.521ZM454.237 143.876C457.116 149.763 461.466 151.864 467.521 150.288C470.512 149.51 472.722 148.058 474.079 145.92C474.736 144.915 475.167 143.779 475.34 142.59C475.514 141.402 475.426 140.19 475.082 139.039C474.513 136.708 473.104 134.668 471.126 133.309C469.788 132.381 467.481 131.253 464.273 129.947C461.064 128.641 458.991 127.755 458.078 127.195C457.389 126.803 456.784 126.278 456.298 125.652C455.812 125.026 455.455 124.31 455.246 123.545C455.078 122.957 455.037 122.34 455.126 121.735C455.215 121.13 455.432 120.551 455.763 120.037C456.398 119.033 457.401 118.319 458.557 118.047C461.191 117.362 463.506 118.658 465.449 121.908L469.567 119.481C466.506 114.457 462.573 112.646 457.524 113.96C454.998 114.617 453.04 115.859 451.712 117.666C450.112 119.762 449.679 122.094 450.384 124.801C451.088 127.509 453.02 129.721 456.124 131.388C456.818 131.76 458.888 132.651 462.275 134.038C464.094 134.733 465.847 135.591 467.513 136.601C468.824 137.388 469.781 138.65 470.184 140.125C470.372 140.757 470.428 141.42 470.348 142.074C470.268 142.727 470.055 143.358 469.722 143.926C469.361 144.509 468.887 145.014 468.326 145.409C467.765 145.803 467.13 146.08 466.459 146.222C463.119 147.091 460.397 145.497 458.364 141.477L454.237 143.876Z" fill="#67676A"/>
<path d="M897.637 94.0852H748.599V194.777H897.637V94.0852Z" fill="white"/>
<path fill-rule="evenodd" clip-rule="evenodd" d="M748.099 94.0852C748.099 93.8091 748.322 93.5852 748.599 93.5852H897.637C897.913 93.5852 898.137 93.8091 898.137 94.0852V194.777C898.137 195.053 897.913 195.277 897.637 195.277H748.599C748.322 195.277 748.099 195.053 748.099 194.777V94.0852ZM749.099 94.5852V194.277H897.137V94.5852H749.099Z" fill="#67676A"/>
<path d="M892.664 101.251H756.515V192.964H892.664V101.251Z" fill="#D0ECB3"/>
<path fill-rule="evenodd" clip-rule="evenodd" d="M754.214 98.9758C754.214 98.6997 754.438 98.4758 754.714 98.4758H890.863C891.139 98.4758 891.363 98.6997 891.363 98.9758V190.688C891.363 190.964 891.139 191.188 890.863 191.188H754.714C754.438 191.188 754.214 190.964 754.214 190.688V98.9758ZM755.214 99.4758V190.188H890.363V99.4758H755.214Z" fill="#67676A"/>
<path fill-rule="evenodd" clip-rule="evenodd" d="M761.717 179.878C761.717 179.602 761.941 179.378 762.217 179.378H883.44C883.716 179.378 883.94 179.602 883.94 179.878C883.94 180.154 883.716 180.378 883.44 180.378H762.217C761.941 180.378 761.717 180.154 761.717 179.878Z" fill="#67676A"/>
<path fill-rule="evenodd" clip-rule="evenodd" d="M814.173 185.464C814.173 185.188 814.397 184.964 814.673 184.964H822.972C823.248 184.964 823.472 185.188 823.472 185.464C823.472 185.74 823.248 185.964 822.972 185.964H814.673C814.397 185.964 814.173 185.74 814.173 185.464Z" fill="#67676A"/>
<path fill-rule="evenodd" clip-rule="evenodd" d="M839.728 183.238C839.728 182.962 839.951 182.738 840.228 182.738C847.185 182.738 854.14 182.771 861.092 182.838C861.368 182.841 861.589 183.067 861.587 183.343C861.584 183.619 861.358 183.84 861.082 183.838C854.133 183.771 847.182 183.738 840.228 183.738C839.951 183.738 839.728 183.514 839.728 183.238Z" fill="#67676A"/>
<path fill-rule="evenodd" clip-rule="evenodd" d="M825.504 183.721C812.091 183.682 798.678 183.682 785.265 183.721C784.989 183.722 784.764 183.499 784.764 183.223C784.763 182.947 784.986 182.722 785.262 182.721C798.677 182.682 812.092 182.682 825.507 182.721C825.783 182.722 826.006 182.947 826.005 183.223C826.005 183.499 825.78 183.722 825.504 183.721Z" fill="#67676A"/>
<path d="M775.043 91.9593C774.455 92.092 773.838 92.067 773.264 91.8872C772.69 91.7073 772.182 91.3799 771.796 90.9421C771.218 90.3085 770.809 89.2746 770.017 89.0495C769.467 88.9425 768.895 89.01 768.39 89.2413C767.911 89.4205 767.408 89.5356 766.895 89.5831L739 119.064C739.451 119.557 739.714 120.176 739.747 120.824C740.319 120.905 740.857 121.13 741.304 121.474C741.779 121.877 742.129 122.392 742.318 122.966C743.078 122.948 743.827 123.149 744.462 123.542C744.792 123.78 745.065 124.082 745.261 124.427C745.457 124.772 745.573 125.152 745.6 125.543L777.409 91.9176L777.062 91.6258C776.466 91.459 775.719 91.8342 775.043 91.9593Z" fill="#FFD152"/>
<path fill-rule="evenodd" clip-rule="evenodd" d="M768.199 88.7788C768.795 88.51 769.467 88.4332 770.113 88.5587C770.127 88.5614 770.141 88.5647 770.154 88.5686C770.72 88.7294 771.105 89.1649 771.387 89.5432C771.492 89.6825 771.595 89.8329 771.691 89.9728C771.727 90.0254 771.762 90.0765 771.796 90.1249C771.926 90.3114 772.045 90.4722 772.166 90.6051L772.172 90.6118L772.172 90.6119C772.495 90.9786 772.924 91.2566 773.414 91.41C773.903 91.5635 774.43 91.5849 774.933 91.4715C774.94 91.4701 774.946 91.4688 774.952 91.4676C775.096 91.441 775.25 91.3998 775.422 91.3504C775.463 91.3386 775.506 91.326 775.55 91.3132C775.681 91.2749 775.822 91.2337 775.959 91.1987C776.316 91.1073 776.763 91.0229 777.197 91.1443C777.266 91.1635 777.33 91.1972 777.384 91.2432L777.731 91.535C777.837 91.6236 777.901 91.7517 777.909 91.8892C777.916 92.0266 777.867 92.1612 777.773 92.2612L745.963 125.886C745.827 126.03 745.618 126.08 745.432 126.013C745.245 125.946 745.115 125.775 745.101 125.577C745.08 125.263 744.986 124.955 744.827 124.674C744.669 124.398 744.451 124.154 744.183 123.957C743.636 123.623 742.989 123.45 742.33 123.466C742.11 123.472 741.912 123.332 741.843 123.122C741.685 122.642 741.392 122.207 740.99 121.863C740.614 121.577 740.161 121.388 739.677 121.319C739.44 121.285 739.26 121.088 739.248 120.849C739.221 120.321 739.006 119.811 738.631 119.402C738.454 119.209 738.457 118.911 738.637 118.721L766.532 89.2395C766.616 89.1513 766.728 89.0964 766.849 89.0852C767.312 89.0423 767.767 88.9391 768.199 88.7788ZM769.899 89.536C769.457 89.455 769 89.5117 768.598 89.6959C768.587 89.7008 768.576 89.7053 768.565 89.7095C768.104 89.8821 767.623 89.9999 767.132 90.0604L739.661 119.093C739.934 119.488 740.119 119.934 740.202 120.403C740.714 120.529 741.194 120.758 741.609 121.078C741.615 121.083 741.621 121.088 741.627 121.093C742.076 121.473 742.431 121.945 742.663 122.472C743.395 122.513 744.106 122.734 744.725 123.116C744.735 123.123 744.745 123.129 744.754 123.136C745.141 123.416 745.463 123.771 745.696 124.18C745.761 124.294 745.818 124.412 745.868 124.532L776.551 92.0972C776.451 92.1106 776.338 92.134 776.207 92.1675C776.088 92.1979 775.971 92.2322 775.844 92.2691C775.797 92.2829 775.749 92.297 775.698 92.3115C775.524 92.3616 775.335 92.4133 775.144 92.4492C774.472 92.5988 773.77 92.5696 773.115 92.3643C772.458 92.1585 771.871 91.7827 771.424 91.2757C771.257 91.0926 771.109 90.888 770.976 90.6965C770.934 90.6366 770.894 90.5787 770.855 90.5224C770.764 90.389 770.678 90.2644 770.587 90.142C770.33 89.7983 770.119 89.6055 769.899 89.536Z" fill="#67676A"/>
<path d="M746.578 116.363L749.247 113.595L746.578 116.363Z" fill="#FFD152"/>
<path fill-rule="evenodd" clip-rule="evenodd" d="M749.594 113.235C749.793 113.427 749.798 113.743 749.607 113.942L746.938 116.71C746.746 116.909 746.43 116.915 746.231 116.723C746.032 116.531 746.027 116.215 746.218 116.016L748.887 113.248C749.078 113.049 749.395 113.043 749.594 113.235Z" fill="#67676A"/>
<path d="M749.825 116.93L751.311 115.813L749.825 116.93Z" fill="#FFD152"/>
<path fill-rule="evenodd" clip-rule="evenodd" d="M751.71 115.512C751.876 115.733 751.832 116.046 751.611 116.212L750.126 117.33C749.905 117.496 749.592 117.451 749.426 117.231C749.26 117.01 749.304 116.696 749.525 116.53L751.01 115.413C751.231 115.247 751.544 115.292 751.71 115.512Z" fill="#67676A"/>
<path d="M767.65 96.8618L766.761 98.2542L767.65 96.8618Z" fill="#FFD152"/>
<path fill-rule="evenodd" clip-rule="evenodd" d="M767.92 96.4403C768.152 96.5889 768.22 96.8981 768.072 97.1308L767.182 98.5232C767.033 98.7559 766.724 98.824 766.492 98.6753C766.259 98.5267 766.191 98.2175 766.339 97.9848L767.229 96.5924C767.378 96.3597 767.687 96.2916 767.92 96.4403Z" fill="#67676A"/>
<path d="M899.214 179.187C898.769 179.285 898.304 179.266 897.87 179.133C897.437 179 897.053 178.758 896.762 178.435C896.326 177.967 896.017 177.203 895.419 177.037C895.003 176.958 894.571 177.007 894.19 177.178C893.829 177.311 893.449 177.396 893.062 177.431L872 199.213C872.34 199.577 872.539 200.035 872.564 200.513C872.996 200.573 873.402 200.739 873.739 200.994C874.098 201.291 874.363 201.672 874.505 202.096C875.079 202.083 875.644 202.231 876.124 202.522C876.373 202.698 876.579 202.921 876.727 203.176C876.876 203.431 876.963 203.712 876.983 204L901 179.156L900.738 178.94C900.288 178.817 899.724 179.094 899.214 179.187Z" fill="#FFD152"/>
<path fill-rule="evenodd" clip-rule="evenodd" d="M894.003 176.714C894.474 176.507 895.004 176.449 895.512 176.545C895.526 176.548 895.54 176.551 895.553 176.555C896.02 176.685 896.331 177.035 896.548 177.319C896.629 177.424 896.709 177.539 896.782 177.643C896.809 177.681 896.835 177.718 896.86 177.752C896.957 177.889 897.042 178.002 897.128 178.094L897.134 178.101L897.134 178.101C897.361 178.354 897.666 178.548 898.017 178.655C898.368 178.763 898.745 178.778 899.106 178.698C899.112 178.697 899.118 178.696 899.124 178.694C899.227 178.676 899.339 178.647 899.468 178.61C899.499 178.602 899.53 178.593 899.563 178.583C899.663 178.555 899.772 178.524 899.877 178.497C900.149 178.429 900.512 178.36 900.87 178.458C900.938 178.476 901.001 178.509 901.056 178.554L901.318 178.77C901.425 178.858 901.491 178.988 901.499 179.127C901.507 179.267 901.456 179.403 901.359 179.503L877.343 204.348C877.206 204.489 876.998 204.537 876.812 204.47C876.627 204.402 876.499 204.232 876.485 204.035C876.47 203.825 876.406 203.617 876.295 203.427C876.187 203.241 876.036 203.075 875.849 202.94C875.457 202.706 874.992 202.585 874.517 202.596C874.298 202.602 874.101 202.463 874.031 202.256C873.921 201.927 873.715 201.626 873.429 201.386C873.164 201.188 872.842 201.057 872.495 201.009C872.258 200.975 872.077 200.779 872.065 200.54C872.046 200.183 871.898 199.836 871.635 199.555C871.453 199.361 871.455 199.057 871.641 198.866L892.702 177.083C892.785 176.997 892.897 176.944 893.016 176.933C893.355 176.902 893.687 176.828 894.003 176.714ZM895.302 177.524C894.993 177.47 894.674 177.509 894.394 177.635C894.384 177.639 894.373 177.644 894.362 177.648C894.019 177.774 893.661 177.861 893.296 177.908L872.66 199.25C872.827 199.51 872.947 199.795 873.011 200.095C873.384 200.195 873.734 200.364 874.04 200.595C874.047 200.599 874.053 200.604 874.059 200.609C874.392 200.885 874.66 201.225 874.844 201.606C875.389 201.647 875.919 201.813 876.383 202.094C876.393 202.1 876.402 202.106 876.412 202.113C876.718 202.329 876.974 202.605 877.16 202.924C877.181 202.961 877.201 202.998 877.22 203.035L899.962 179.51C899.926 179.52 899.89 179.53 899.852 179.541C899.816 179.551 899.778 179.562 899.739 179.573C899.608 179.61 899.461 179.649 899.312 179.677C898.787 179.791 898.237 179.769 897.724 179.611C897.209 179.453 896.747 179.165 896.393 178.773C896.262 178.631 896.146 178.474 896.045 178.332C896.012 178.286 895.982 178.243 895.952 178.201C895.884 178.103 895.821 178.014 895.754 177.926C895.566 177.681 895.428 177.565 895.302 177.524Z" fill="#67676A"/>
<path d="M877.722 197.218L879.737 195.172L877.722 197.218Z" fill="#FFD152"/>
<path fill-rule="evenodd" clip-rule="evenodd" d="M880.087 194.816C880.284 195.01 880.286 195.327 880.093 195.523L878.078 197.568C877.884 197.765 877.567 197.768 877.371 197.574C877.174 197.38 877.172 197.063 877.365 196.867L879.38 194.821C879.574 194.625 879.891 194.622 880.087 194.816Z" fill="#67676A"/>
<path d="M880.173 197.637L881.295 196.811L880.173 197.637Z" fill="#FFD152"/>
<path fill-rule="evenodd" clip-rule="evenodd" d="M881.697 196.515C881.861 196.737 881.813 197.05 881.591 197.214L880.469 198.039C880.247 198.203 879.934 198.155 879.77 197.933C879.607 197.711 879.654 197.398 879.877 197.234L880.998 196.408C881.221 196.245 881.533 196.292 881.697 196.515Z" fill="#67676A"/>
<path d="M893.632 182.809L892.96 183.838L893.632 182.809Z" fill="#FFD152"/>
<path fill-rule="evenodd" clip-rule="evenodd" d="M893.905 182.39C894.136 182.541 894.201 182.851 894.05 183.082L893.379 184.111C893.228 184.342 892.918 184.407 892.687 184.256C892.455 184.105 892.39 183.795 892.541 183.564L893.213 182.535C893.364 182.304 893.674 182.239 893.905 182.39Z" fill="#67676A"/>
<path d="M704.085 224.839C704.225 225.423 704.23 226.03 704.1 226.615C703.97 227.2 703.709 227.748 703.336 228.218C702.963 228.687 702.488 229.066 701.947 229.325C701.407 229.584 700.814 229.716 700.214 229.712C699.562 229.708 698.919 229.545 698.344 229.238C697.768 228.93 697.275 228.487 696.909 227.946C696.543 227.406 696.314 226.784 696.242 226.135C696.169 225.486 696.256 224.83 696.495 224.222L689.33 223.618C689.374 223.83 689.397 224.046 689.399 224.263V224.496C689.395 225.22 689.201 225.93 688.836 226.555L688.205 227.379C687.702 227.881 687.078 228.246 686.393 228.436L685.308 228.587C684.764 228.609 684.224 228.486 683.744 228.23C683.252 228.042 682.804 227.754 682.431 227.382C682.057 227.011 681.766 226.566 681.575 226.075C681.325 225.588 681.206 225.043 681.232 224.496V224.277C681.232 223.808 681.316 223.343 681.479 222.904L674.616 222.328C674.824 222.929 674.885 223.572 674.794 224.202C674.703 224.832 674.463 225.431 674.094 225.949C673.725 226.468 673.237 226.89 672.671 227.182C672.105 227.473 671.478 227.626 670.842 227.626C670.157 227.601 669.489 227.406 668.898 227.058C668.308 226.709 667.813 226.219 667.46 225.632C667.107 225.044 666.906 224.378 666.876 223.693C666.846 223.008 666.987 222.326 667.287 221.71L657.404 220.886C657.622 221.491 657.691 222.139 657.606 222.775C657.521 223.412 657.285 224.019 656.916 224.545C656.547 225.071 656.058 225.501 655.488 225.798C654.919 226.096 654.286 226.252 653.643 226.253C652.953 226.227 652.279 226.028 651.686 225.673C651.092 225.318 650.598 224.82 650.248 224.223C649.898 223.627 649.703 222.952 649.683 222.261C649.662 221.57 649.816 220.885 650.13 220.269L641.894 219.582C642.027 220.164 642.026 220.768 641.892 221.349C641.758 221.93 641.495 222.473 641.121 222.938C640.747 223.403 640.273 223.777 639.735 224.032C639.196 224.288 638.606 224.418 638.01 224.414C637.357 224.409 636.715 224.246 636.139 223.938C635.563 223.63 635.071 223.188 634.704 222.648C634.337 222.108 634.106 221.487 634.031 220.838C633.957 220.19 634.041 219.533 634.277 218.924L626.357 218.251C626.391 218.786 626.314 219.321 626.131 219.825C625.947 220.328 625.661 220.788 625.291 221.175C624.921 221.562 624.474 221.868 623.98 222.073C623.485 222.279 622.953 222.379 622.418 222.369C621.829 222.373 621.247 222.246 620.715 221.996C620.182 221.745 619.712 221.379 619.339 220.924C618.967 220.468 618.701 219.935 618.561 219.363C618.422 218.791 618.412 218.196 618.533 217.62L612.165 217.084C612.686 234.296 610.01 259.442 605 290.393L700.709 297.558C705.362 272.701 708.107 248.475 707.997 225.169L704.085 224.839Z" fill="white"/>
<path fill-rule="evenodd" clip-rule="evenodd" d="M611.821 216.722C611.924 216.624 612.065 216.574 612.207 216.586L618.575 217.122C618.718 217.134 618.849 217.206 618.935 217.321C619.02 217.436 619.052 217.582 619.023 217.723C618.917 218.225 618.925 218.746 619.047 219.245C619.169 219.744 619.401 220.209 619.726 220.607C620.052 221.005 620.462 221.325 620.927 221.543C621.392 221.761 621.9 221.873 622.414 221.869L622.428 221.869L622.428 221.869C622.894 221.878 623.357 221.79 623.788 221.611C624.219 221.432 624.608 221.166 624.93 220.829C625.252 220.492 625.501 220.092 625.661 219.653C625.821 219.215 625.888 218.749 625.858 218.283C625.849 218.138 625.903 217.996 626.007 217.894C626.111 217.792 626.254 217.741 626.399 217.753L634.319 218.425C634.476 218.439 634.617 218.525 634.701 218.659C634.784 218.792 634.8 218.957 634.743 219.104C634.537 219.638 634.463 220.213 634.528 220.781C634.593 221.35 634.795 221.894 635.117 222.367C635.439 222.84 635.87 223.228 636.375 223.497C636.879 223.767 637.442 223.91 638.014 223.914L638.014 223.914C638.535 223.918 639.05 223.804 639.52 223.581C639.991 223.357 640.405 223.031 640.731 222.625C641.058 222.219 641.288 221.744 641.405 221.237C641.522 220.729 641.523 220.202 641.407 219.694C641.371 219.538 641.412 219.375 641.517 219.255C641.621 219.134 641.777 219.071 641.936 219.084L650.171 219.771C650.337 219.784 650.486 219.88 650.567 220.025C650.648 220.171 650.651 220.347 650.575 220.496C650.299 221.037 650.164 221.639 650.182 222.246C650.201 222.853 650.371 223.446 650.679 223.97C650.986 224.494 651.421 224.932 651.942 225.244C652.461 225.554 653.049 225.729 653.652 225.753C654.211 225.75 654.761 225.614 655.257 225.355C655.755 225.095 656.184 224.719 656.507 224.258C656.829 223.798 657.036 223.267 657.111 222.709C657.185 222.152 657.125 221.585 656.934 221.056C656.876 220.896 656.904 220.717 657.008 220.582C657.111 220.447 657.276 220.374 657.446 220.388L667.328 221.212C667.493 221.225 667.64 221.319 667.721 221.463C667.803 221.606 667.809 221.78 667.736 221.929C667.473 222.47 667.349 223.069 667.376 223.671C667.402 224.272 667.579 224.858 667.889 225.374C668.199 225.89 668.633 226.321 669.152 226.627C669.668 226.931 670.252 227.103 670.851 227.126C671.404 227.124 671.95 226.991 672.442 226.737C672.937 226.482 673.364 226.113 673.687 225.659C674.01 225.206 674.22 224.681 674.299 224.13C674.379 223.579 674.325 223.017 674.144 222.491C674.088 222.331 674.118 222.154 674.222 222.021C674.325 221.887 674.49 221.815 674.658 221.829L681.521 222.406C681.677 222.419 681.817 222.504 681.901 222.636C681.985 222.768 682.002 222.932 681.948 223.078C681.805 223.462 681.732 223.868 681.732 224.277V224.496C681.732 224.504 681.732 224.512 681.731 224.52C681.71 224.979 681.809 225.437 682.02 225.846C682.028 225.862 682.035 225.878 682.041 225.894C682.206 226.32 682.459 226.706 682.783 227.028C683.107 227.35 683.495 227.6 683.922 227.762C683.941 227.77 683.96 227.778 683.979 227.788C684.374 227.999 684.817 228.102 685.265 228.088L686.29 227.945C686.87 227.779 687.398 227.47 687.828 227.048L688.419 226.277C688.731 225.734 688.896 225.12 688.899 224.494V224.265C688.897 224.082 688.878 223.899 688.84 223.719C688.808 223.565 688.851 223.404 688.956 223.286C689.061 223.168 689.215 223.106 689.372 223.12L696.537 223.724C696.694 223.737 696.836 223.824 696.919 223.958C697.003 224.092 697.018 224.257 696.96 224.404C696.751 224.937 696.675 225.512 696.739 226.08C696.802 226.648 697.002 227.192 697.323 227.666C697.644 228.139 698.075 228.527 698.579 228.797C699.083 229.066 699.646 229.209 700.217 229.212L700.218 229.212C700.741 229.215 701.259 229.1 701.731 228.874C702.204 228.648 702.619 228.317 702.944 227.907C703.27 227.497 703.498 227.018 703.612 226.507C703.725 225.995 703.721 225.465 703.599 224.956C703.561 224.8 703.601 224.635 703.706 224.514C703.81 224.392 703.967 224.328 704.127 224.341L708.039 224.671C708.297 224.692 708.496 224.907 708.497 225.166C708.607 248.512 705.857 272.771 701.2 297.65C701.153 297.9 700.925 298.075 700.671 298.056L604.963 290.891C604.823 290.881 604.694 290.812 604.607 290.702C604.521 290.593 604.484 290.451 604.506 290.313C609.516 259.366 612.185 234.261 611.665 217.1C611.661 216.957 611.717 216.82 611.821 216.722ZM612.68 217.63C613.127 234.774 610.482 259.558 605.58 289.935L700.299 297.026C704.868 272.507 707.57 248.617 707.499 225.629L704.678 225.391C704.715 225.836 704.685 226.285 704.588 226.723C704.442 227.383 704.147 228 703.727 228.529C703.307 229.058 702.772 229.484 702.163 229.776C701.554 230.067 700.887 230.216 700.211 230.212M612.68 217.63L617.964 218.074C617.926 218.545 617.963 219.02 618.076 219.482C618.233 220.126 618.532 220.727 618.952 221.24C619.372 221.754 619.902 222.166 620.502 222.448C621.1 222.729 621.754 222.873 622.415 222.869C623.017 222.88 623.615 222.766 624.172 222.535C624.73 222.303 625.234 221.957 625.653 221.52C626.071 221.083 626.393 220.564 626.601 219.996C626.742 219.609 626.827 219.204 626.855 218.795L633.619 219.37C633.505 219.868 633.476 220.384 633.535 220.895C633.618 221.624 633.878 222.322 634.29 222.929C634.703 223.536 635.257 224.033 635.904 224.379C636.551 224.725 637.273 224.908 638.006 224.914C638.678 224.919 639.342 224.772 639.949 224.484C640.556 224.196 641.09 223.775 641.511 223.251C641.932 222.728 642.229 222.116 642.38 221.461C642.48 221.025 642.514 220.577 642.481 220.133L649.407 220.71C649.244 221.214 649.167 221.743 649.183 222.276C649.206 223.051 649.424 223.808 649.817 224.476C650.209 225.145 650.764 225.704 651.429 226.102C652.095 226.5 652.85 226.724 653.625 226.753C653.631 226.753 653.638 226.753 653.645 226.753C654.367 226.751 655.079 226.576 655.719 226.242C656.36 225.907 656.911 225.424 657.325 224.832C657.74 224.241 658.007 223.558 658.102 222.842C658.164 222.375 658.153 221.904 658.07 221.444L666.576 222.153C666.421 222.656 666.353 223.185 666.377 223.715C666.411 224.483 666.636 225.23 667.032 225.889C667.428 226.548 667.982 227.098 668.644 227.488C669.306 227.879 670.055 228.098 670.824 228.125C670.83 228.126 670.836 228.126 670.842 228.126C671.558 228.126 672.264 227.954 672.9 227.626C673.537 227.298 674.086 226.823 674.501 226.239C674.917 225.656 675.187 224.982 675.289 224.273C675.356 223.811 675.35 223.342 675.272 222.885L680.83 223.351C680.765 223.655 680.732 223.965 680.732 224.277V224.485C680.705 225.107 680.838 225.725 681.118 226.28C681.334 226.827 681.661 227.323 682.078 227.737C682.494 228.15 682.991 228.473 683.537 228.686C684.089 228.974 684.707 229.112 685.329 229.086C685.345 229.085 685.361 229.084 685.377 229.082L686.462 228.931C686.484 228.928 686.505 228.923 686.526 228.917C687.295 228.704 687.995 228.296 688.558 227.732C688.574 227.717 688.588 227.7 688.601 227.683L689.233 226.859C689.245 226.843 689.257 226.825 689.268 226.807C689.677 226.107 689.895 225.31 689.899 224.499L689.899 224.496L689.899 224.263L689.899 224.259C689.898 224.228 689.898 224.198 689.897 224.167L695.834 224.668C695.719 225.165 695.688 225.68 695.745 226.19C695.826 226.92 696.083 227.619 696.495 228.227C696.907 228.834 697.46 229.333 698.108 229.679C698.755 230.024 699.477 230.208 700.211 230.212" fill="#67676A"/>
<path fill-rule="evenodd" clip-rule="evenodd" d="M656.707 218.631C656.929 218.467 657.242 218.514 657.406 218.737L667.673 232.654C667.837 232.877 667.79 233.19 667.568 233.354C667.345 233.518 667.032 233.47 666.868 233.248L656.602 219.33C656.438 219.108 656.485 218.795 656.707 218.631Z" fill="#67676A"/>
<path d="M649.305 219.788C649.703 213.049 655.99 208.629 662.194 211.004C667.766 213.131 671.802 222.52 664.582 227.859C663.303 228.76 661.829 229.345 660.28 229.564C658.731 229.784 657.153 229.632 655.674 229.122C653.763 228.438 652.117 227.167 650.973 225.49C649.828 223.813 649.245 221.817 649.305 219.788Z" fill="#FF80DD"/>
<path fill-rule="evenodd" clip-rule="evenodd" d="M649.805 219.81C649.749 221.731 650.302 223.621 651.386 225.208C652.47 226.797 654.029 228.002 655.84 228.65C657.243 229.134 658.741 229.278 660.21 229.069C661.678 228.861 663.077 228.307 664.289 227.453C667.716 224.917 668.459 221.451 667.699 218.346C666.93 215.202 664.628 212.468 662.015 211.471L662.015 211.471C656.16 209.23 650.189 213.379 649.805 219.81ZM664.582 227.859L664.582 227.859L664.582 227.859C655.821 208.03 649.222 212.716 648.806 219.759L648.806 219.773C648.742 221.908 649.356 224.008 650.56 225.772C651.763 227.536 653.495 228.873 655.506 229.592L655.506 229.592L655.511 229.594C657.064 230.131 658.723 230.29 660.35 230.059C661.978 229.829 663.527 229.215 664.87 228.267L664.87 228.268L664.879 228.261C668.669 225.458 669.516 221.562 668.671 218.108C667.834 214.691 665.332 211.667 662.372 210.537" fill="#67676A"/>
<path d="M648.289 216.041C648.495 210.167 653.779 206.433 659.064 208.643C663.84 210.606 667.477 218.882 661.452 223.384C660.366 224.145 659.109 224.627 657.792 224.787C656.476 224.948 655.14 224.782 653.903 224.304C652.247 223.647 650.827 222.508 649.826 221.035C648.825 219.562 648.29 217.822 648.289 216.041Z" fill="#FF80DD"/>
<path fill-rule="evenodd" clip-rule="evenodd" d="M648.789 216.05C648.792 217.728 649.297 219.366 650.24 220.754C651.184 222.144 652.524 223.218 654.085 223.838C655.245 224.286 656.498 224.441 657.732 224.291C658.964 224.141 660.141 223.69 661.159 222.979C663.975 220.871 664.535 217.903 663.825 215.188C663.105 212.438 661.095 210.018 658.874 209.106L658.871 209.104C653.95 207.047 648.989 210.487 648.789 216.05ZM659.255 208.181C653.61 205.822 648.006 209.843 647.789 216.024C647.789 216.03 647.789 216.036 647.789 216.041C647.79 217.923 648.356 219.76 649.413 221.316C650.47 222.872 651.97 224.075 653.718 224.769L653.723 224.77C655.036 225.278 656.455 225.454 657.853 225.284C659.251 225.113 660.585 224.602 661.739 223.794L661.751 223.785C664.955 221.391 665.587 217.973 664.792 214.935C664.006 211.931 661.81 209.232 659.255 208.181Z" fill="#67676A"/>
<path fill-rule="evenodd" clip-rule="evenodd" d="M619.756 238.777C619.768 238.639 619.889 238.538 620.026 238.549L621.998 238.718C622.135 238.73 622.237 238.851 622.225 238.988C622.214 239.126 622.093 239.228 621.955 239.216L619.984 239.047C619.846 239.036 619.744 238.915 619.756 238.777ZM625.67 239.283C625.682 239.145 625.803 239.043 625.94 239.055L629.883 239.392C630.02 239.403 630.122 239.524 630.111 239.662C630.099 239.8 629.978 239.902 629.84 239.89L625.898 239.553C625.76 239.541 625.658 239.42 625.67 239.283ZM633.555 239.956C633.567 239.819 633.688 239.717 633.826 239.729L637.768 240.066C637.906 240.077 638.008 240.198 637.996 240.336C637.984 240.474 637.863 240.576 637.726 240.564L633.783 240.227C633.645 240.215 633.543 240.094 633.555 239.956ZM641.441 240.63C641.452 240.493 641.573 240.391 641.711 240.403L645.654 240.74C645.791 240.751 645.893 240.872 645.881 241.01C645.87 241.147 645.749 241.249 645.611 241.238L641.668 240.901C641.531 240.889 641.429 240.768 641.441 240.63ZM649.326 241.304C649.338 241.167 649.459 241.065 649.596 241.076L653.539 241.413C653.676 241.425 653.778 241.546 653.767 241.684C653.755 241.821 653.634 241.923 653.496 241.912L649.554 241.575C649.416 241.563 649.314 241.442 649.326 241.304ZM657.211 241.978C657.223 241.841 657.344 241.739 657.482 241.75L661.424 242.087C661.562 242.099 661.664 242.22 661.652 242.358C661.64 242.495 661.519 242.597 661.382 242.586L657.439 242.249C657.301 242.237 657.199 242.116 657.211 241.978ZM665.097 242.652C665.108 242.515 665.229 242.413 665.367 242.424L669.31 242.761C669.447 242.773 669.549 242.894 669.537 243.032C669.526 243.169 669.405 243.271 669.267 243.259L665.324 242.923C665.187 242.911 665.085 242.79 665.097 242.652ZM672.982 243.326C672.994 243.189 673.115 243.087 673.252 243.098L677.195 243.435C677.333 243.447 677.435 243.568 677.423 243.706C677.411 243.843 677.29 243.945 677.152 243.933L673.21 243.596C673.072 243.585 672.97 243.464 672.982 243.326ZM680.867 244C680.879 243.862 681 243.76 681.138 243.772L685.08 244.109C685.218 244.121 685.32 244.242 685.308 244.38C685.296 244.517 685.175 244.619 685.038 244.607L681.095 244.27C680.957 244.259 680.855 244.138 680.867 244ZM688.753 244.674C688.764 244.536 688.885 244.434 689.023 244.446L692.966 244.783C693.103 244.795 693.205 244.916 693.193 245.053C693.182 245.191 693.061 245.293 692.923 245.281L688.98 244.944C688.843 244.933 688.741 244.811 688.753 244.674ZM696.638 245.348C696.65 245.21 696.771 245.108 696.908 245.12L698.88 245.289C699.017 245.3 699.119 245.421 699.107 245.559C699.096 245.696 698.975 245.798 698.837 245.787L696.866 245.618C696.728 245.606 696.626 245.485 696.638 245.348Z" fill="#67676A"/>
<path fill-rule="evenodd" clip-rule="evenodd" d="M618.945 252.468C618.953 252.33 619.071 252.225 619.209 252.233L621.184 252.347C621.322 252.355 621.427 252.474 621.419 252.611C621.411 252.749 621.293 252.854 621.155 252.847L619.18 252.732C619.042 252.724 618.937 252.606 618.945 252.468ZM624.871 252.811C624.879 252.673 624.997 252.568 625.135 252.576L629.086 252.804C629.224 252.812 629.329 252.931 629.321 253.068C629.313 253.206 629.195 253.312 629.057 253.304L625.106 253.075C624.968 253.067 624.863 252.949 624.871 252.811ZM632.773 253.268C632.781 253.13 632.899 253.025 633.037 253.033L636.988 253.261C637.126 253.269 637.231 253.388 637.223 253.526C637.215 253.663 637.097 253.769 636.959 253.761L633.008 253.532C632.87 253.524 632.765 253.406 632.773 253.268ZM640.675 253.725C640.683 253.587 640.801 253.482 640.939 253.49L644.89 253.719C645.028 253.727 645.133 253.845 645.125 253.983C645.117 254.12 644.999 254.226 644.861 254.218L640.91 253.989C640.772 253.981 640.667 253.863 640.675 253.725ZM648.577 254.182C648.585 254.044 648.703 253.939 648.841 253.947L652.792 254.176C652.929 254.184 653.035 254.302 653.027 254.44C653.019 254.577 652.9 254.683 652.763 254.675L648.812 254.446C648.674 254.438 648.569 254.32 648.577 254.182ZM656.478 254.639C656.486 254.501 656.605 254.396 656.742 254.404L660.693 254.633C660.831 254.641 660.936 254.759 660.929 254.897C660.921 255.035 660.802 255.14 660.664 255.132L656.714 254.903C656.576 254.895 656.47 254.777 656.478 254.639ZM664.38 255.096C664.388 254.959 664.506 254.853 664.644 254.861L668.595 255.09C668.733 255.098 668.838 255.216 668.83 255.354C668.822 255.492 668.704 255.597 668.566 255.589L664.615 255.36C664.478 255.352 664.372 255.234 664.38 255.096ZM672.282 255.553C672.29 255.416 672.408 255.31 672.546 255.318L676.497 255.547C676.635 255.555 676.74 255.673 676.732 255.811C676.724 255.949 676.606 256.054 676.468 256.046L672.517 255.817C672.379 255.809 672.274 255.691 672.282 255.553ZM680.184 256.01C680.192 255.873 680.31 255.767 680.448 255.775L684.399 256.004C684.537 256.012 684.642 256.13 684.634 256.268C684.626 256.406 684.508 256.511 684.37 256.503L680.419 256.275C680.281 256.267 680.176 256.148 680.184 256.01ZM688.086 256.468C688.094 256.33 688.212 256.224 688.35 256.232L692.301 256.461C692.438 256.469 692.544 256.587 692.536 256.725C692.528 256.863 692.41 256.968 692.272 256.96L688.321 256.732C688.183 256.724 688.078 256.605 688.086 256.468ZM695.988 256.925C695.996 256.787 696.114 256.681 696.252 256.689L698.227 256.804C698.365 256.812 698.47 256.93 698.462 257.068C698.454 257.206 698.336 257.311 698.198 257.303L696.223 257.189C696.085 257.181 695.98 257.062 695.988 256.925Z" fill="#67676A"/>
<path fill-rule="evenodd" clip-rule="evenodd" d="M616.693 265.052C616.703 264.914 616.822 264.81 616.96 264.82L618.933 264.957C619.071 264.966 619.175 265.086 619.166 265.223C619.156 265.361 619.037 265.465 618.899 265.455L616.925 265.319C616.787 265.309 616.683 265.19 616.693 265.052ZM622.614 265.463C622.624 265.325 622.743 265.221 622.881 265.23L626.828 265.504C626.966 265.514 627.07 265.633 627.06 265.771C627.051 265.909 626.932 266.013 626.794 266.003L622.846 265.729C622.709 265.72 622.605 265.6 622.614 265.463ZM630.509 266.01C630.519 265.872 630.638 265.769 630.776 265.778L634.723 266.052C634.861 266.061 634.965 266.181 634.955 266.319C634.946 266.456 634.826 266.56 634.689 266.551L630.741 266.277C630.604 266.267 630.5 266.148 630.509 266.01ZM638.404 266.558C638.414 266.42 638.533 266.316 638.671 266.326L642.618 266.6C642.756 266.609 642.86 266.729 642.85 266.866C642.841 267.004 642.721 267.108 642.584 267.098L638.636 266.825C638.498 266.815 638.395 266.696 638.404 266.558ZM646.299 267.105C646.309 266.968 646.428 266.864 646.566 266.873L650.513 267.147C650.651 267.157 650.755 267.276 650.745 267.414C650.736 267.552 650.616 267.656 650.479 267.646L646.531 267.372C646.393 267.363 646.29 267.243 646.299 267.105ZM654.194 267.653C654.204 267.515 654.323 267.411 654.461 267.421L658.408 267.695C658.546 267.704 658.65 267.824 658.64 267.962C658.631 268.099 658.511 268.203 658.374 268.194L654.426 267.92C654.288 267.91 654.184 267.791 654.194 267.653ZM662.089 268.201C662.099 268.063 662.218 267.959 662.356 267.969L666.303 268.243C666.441 268.252 666.545 268.371 666.535 268.509C666.526 268.647 666.406 268.751 666.269 268.741L662.321 268.467C662.183 268.458 662.079 268.339 662.089 268.201ZM669.984 268.748C669.994 268.611 670.113 268.507 670.251 268.516L674.198 268.79C674.336 268.8 674.44 268.919 674.43 269.057C674.421 269.195 674.301 269.299 674.164 269.289L670.216 269.015C670.078 269.006 669.974 268.886 669.984 268.748ZM677.879 269.296C677.888 269.158 678.008 269.054 678.146 269.064L682.093 269.338C682.231 269.347 682.335 269.467 682.325 269.605C682.316 269.742 682.196 269.846 682.058 269.837L678.111 269.563C677.973 269.553 677.869 269.434 677.879 269.296ZM685.774 269.844C685.783 269.706 685.903 269.602 686.041 269.612L689.988 269.885C690.126 269.895 690.23 270.014 690.22 270.152C690.211 270.29 690.091 270.394 689.953 270.384L686.006 270.11C685.868 270.101 685.764 269.981 685.774 269.844ZM693.669 270.391C693.678 270.254 693.798 270.15 693.936 270.159L695.909 270.296C696.047 270.306 696.151 270.425 696.141 270.563C696.132 270.701 696.012 270.805 695.875 270.795L693.901 270.658C693.763 270.649 693.659 270.529 693.669 270.391Z" fill="#67676A"/>
<path fill-rule="evenodd" clip-rule="evenodd" d="M614.333 280.136C614.342 279.998 614.462 279.895 614.599 279.904L616.573 280.041C616.711 280.051 616.815 280.17 616.805 280.308C616.796 280.446 616.676 280.55 616.538 280.54L614.565 280.403C614.427 280.393 614.323 280.274 614.333 280.136ZM620.254 280.548C620.263 280.41 620.383 280.306 620.521 280.316L624.468 280.59C624.606 280.6 624.71 280.719 624.7 280.857C624.691 280.995 624.571 281.099 624.433 281.089L620.486 280.815C620.348 280.805 620.244 280.686 620.254 280.548ZM628.149 281.097C628.158 280.959 628.278 280.855 628.416 280.865L632.363 281.139C632.501 281.149 632.605 281.268 632.595 281.406C632.586 281.544 632.466 281.648 632.328 281.638L628.381 281.364C628.243 281.354 628.139 281.235 628.149 281.097ZM636.044 281.646C636.053 281.508 636.173 281.404 636.311 281.414L640.258 281.689C640.396 281.698 640.5 281.818 640.49 281.955C640.48 282.093 640.361 282.197 640.223 282.187L636.276 281.913C636.138 281.903 636.034 281.784 636.044 281.646ZM643.939 282.195C643.948 282.057 644.068 281.953 644.205 281.963L648.153 282.238C648.291 282.247 648.395 282.367 648.385 282.504C648.375 282.642 648.256 282.746 648.118 282.736L644.171 282.462C644.033 282.452 643.929 282.333 643.939 282.195ZM651.834 282.744C651.843 282.606 651.963 282.502 652.1 282.512L656.048 282.787C656.186 282.796 656.29 282.916 656.28 283.053C656.27 283.191 656.151 283.295 656.013 283.285L652.066 283.011C651.928 283.001 651.824 282.882 651.834 282.744ZM659.729 283.293C659.738 283.155 659.858 283.051 659.995 283.061L663.943 283.336C664.081 283.345 664.185 283.465 664.175 283.602C664.165 283.74 664.046 283.844 663.908 283.834L659.961 283.56C659.823 283.55 659.719 283.431 659.729 283.293ZM667.624 283.842C667.633 283.704 667.753 283.601 667.89 283.61L671.838 283.885C671.976 283.894 672.079 284.014 672.07 284.151C672.06 284.289 671.941 284.393 671.803 284.383L667.856 284.109C667.718 284.099 667.614 283.98 667.624 283.842ZM675.519 284.391C675.528 284.253 675.648 284.15 675.785 284.159L679.733 284.434C679.871 284.443 679.974 284.563 679.965 284.7C679.955 284.838 679.836 284.942 679.698 284.932L675.751 284.658C675.613 284.648 675.509 284.529 675.519 284.391ZM683.414 284.94C683.423 284.802 683.543 284.699 683.68 284.708L687.628 284.983C687.765 284.992 687.869 285.112 687.86 285.249C687.85 285.387 687.731 285.491 687.593 285.481L683.646 285.207C683.508 285.197 683.404 285.078 683.414 284.94ZM691.308 285.489C691.318 285.351 691.437 285.248 691.575 285.257L693.549 285.394C693.687 285.404 693.791 285.523 693.781 285.661C693.771 285.799 693.652 285.903 693.514 285.893L691.541 285.756C691.403 285.746 691.299 285.627 691.308 285.489Z" fill="#67676A"/>
<path d="M951.093 218.193C951.093 218.193 939.153 221.313 927.663 219.763C913.313 217.833 899.993 213.563 899.993 213.563L902.433 201.413C902.433 201.413 926.123 201.423 940.363 195.123C961.733 185.663 962.083 200.723 962.083 200.723C962.083 200.723 965.163 212.633 951.093 218.193Z" fill="#EAC652"/>
<path d="M899.993 213.563C899.993 213.563 886.083 213.183 879.423 206.693C872.763 200.203 874.443 190.283 879.073 189.993C883.703 189.703 884.833 192.133 884.833 192.133C884.833 192.133 884.773 191.333 888.263 192.513C891.753 193.693 893.473 199.863 893.473 199.863L902.423 201.413C902.433 201.413 909.073 209.403 899.993 213.563Z" fill="#F4F3B6"/>
<path d="M920.671 319.397C920.671 319.397 927.478 316.454 925.64 307.688C925.64 307.688 925.642 299.515 916.017 296.977C906.389 294.449 896.151 301.149 896.33 309.173C896.518 317.199 902.841 312.942 902.841 312.942C902.841 312.942 902.855 316.253 905.956 317.451C909.057 318.65 912.105 315.727 912.105 315.727C912.105 315.727 913.674 323.445 920.671 319.397Z" fill="#E1DF9E"/>
<path fill-rule="evenodd" clip-rule="evenodd" d="M936.115 238.01C936.115 238.01 919.231 238.217 901.573 258.228C890.789 270.442 905.085 297.785 905.085 297.785C905.085 297.785 913.641 304.354 922.912 301.033L925.488 277.033C925.488 277.033 939.113 275.657 950.787 269.973C962.46 264.288 969.071 237.531 936.115 238.01Z" fill="#DB9A46"/>
<path d="M1124.82 150.352C1125.94 151.052 1127.07 151.932 1128.02 152.922C1128.97 153.902 1129.72 155.132 1130.14 156.362C1131.01 158.882 1130.43 161.672 1127.85 164.792C1124.36 169.032 1120.23 171.352 1116.07 173.232C1111.9 175.052 1107.57 176.372 1103.26 177.692C1102.72 177.832 1102.18 178.022 1101.65 178.202L1100.04 178.702C1098.99 179.112 1097.91 179.382 1096.89 179.802C1094.79 180.502 1092.82 181.382 1090.92 182.192C1087.18 183.942 1084.02 185.882 1081.73 187.772C1081.73 187.772 1081.62 187.872 1081.42 188.072C1081.21 188.252 1080.92 188.562 1080.56 188.972C1080.21 189.382 1079.73 189.842 1079.24 190.442C1078.78 191.072 1078.18 191.712 1077.62 192.532C1076.46 194.122 1075.24 196.152 1074.07 198.522C1072.95 200.912 1071.95 203.672 1071.28 206.642C1070.6 209.612 1070.26 212.782 1070.36 215.932C1070.41 216.712 1070.38 217.512 1070.51 218.272L1070.64 219.432L1070.71 220.072L1070.85 221.062C1071.22 223.702 1071.47 226.352 1071.59 228.992C1072.15 239.512 1070.75 249.952 1067.75 258.372C1067.05 260.352 1066.02 263.012 1064.34 266.112C1062.68 269.202 1060.38 272.742 1057.19 276.222C1054 279.682 1049.87 283.012 1045.17 285.552C1040.45 288.062 1035.26 289.742 1030.21 290.612C1024.77 291.552 1019.26 291.442 1014.35 290.642C1009.41 289.842 1004.92 288.472 1001.05 286.802C993.273 283.492 987.763 279.302 984.593 276.682C982.303 274.862 979.933 272.102 978.473 269.162C977.753 267.682 977.303 266.122 977.133 264.692C977.013 263.212 977.233 261.822 977.833 260.632C978.903 258.512 981.923 256.652 985.083 255.482C986.663 254.892 988.283 254.462 989.723 254.262C991.133 254.082 992.453 254.092 993.443 254.482C993.773 254.612 994.073 254.782 994.343 254.982C994.623 255.172 994.913 255.372 995.173 255.602C995.703 256.042 996.123 256.602 996.623 257.082C998.233 258.782 1000.39 260.622 1003.03 262.372C1005.67 264.112 1008.83 265.712 1012.3 266.802C1015.76 267.892 1019.53 268.442 1023.13 268.172C1023.59 268.182 1024.02 268.082 1024.47 268.022L1025.8 267.832C1026.74 267.602 1027.71 267.422 1028.6 267.122C1030.42 266.562 1032.15 265.862 1033.72 264.952C1036.85 263.142 1039.42 260.632 1041.39 257.592C1043.38 254.572 1044.71 251.002 1045.61 247.462C1047.35 240.292 1047.16 233.242 1046.66 228.332C1046.58 227.442 1046.46 226.562 1046.34 225.672C1046.28 225.232 1046.2 224.792 1046.13 224.352L1046.02 223.692L1045.9 222.822C1045.74 221.602 1045.55 220.372 1045.43 219.142L1045.19 215.452C1045.04 210.522 1045.47 205.612 1046.42 200.802C1048.33 191.192 1052.3 181.952 1058.33 173.912C1064.29 165.862 1072.52 158.982 1081.78 154.592C1091.03 150.152 1101.25 147.742 1111.77 147.672C1117.74 147.662 1122.17 148.812 1124.82 150.352Z" fill="#DB9A46"/>
<path d="M1124.82 150.352C1122.17 148.812 1117.74 147.652 1111.8 147.682C1107.52 147.732 1103.3 148.142 1099.16 148.892C1095.04 149.722 1090.99 150.802 1087.09 152.312C1079.31 155.312 1072.03 159.712 1065.93 165.442C1066.22 165.492 1066.63 165.452 1067.17 165.302C1075.84 162.872 1084.39 161.242 1092.73 159.782C1087.34 162.672 1082.64 166.412 1078.93 170.672C1078.34 171.292 1077.83 172.322 1078.4 172.832C1078.68 173.082 1079.1 173.092 1079.49 173.082C1082.49 173.112 1085.34 172.422 1088.02 171.332C1087.49 171.882 1086.86 172.262 1086.24 172.692C1085.63 173.132 1085 173.542 1084.43 174.012C1083.3 174.982 1082.52 176.552 1083.06 177.872C1083.35 178.572 1083.94 179.112 1084.54 179.572C1085.61 180.372 1086.71 180.932 1087.79 181.302C1088.91 181.722 1090.03 181.982 1091.11 182.102C1093.92 180.822 1097.02 179.682 1100.2 178.652C1103.5 177.612 1106.75 176.582 1109.81 175.622C1113 174.562 1116.13 173.402 1119.21 171.702C1120.72 170.932 1122.24 169.932 1123.69 168.812C1125.13 167.712 1126.53 166.392 1127.82 164.812C1130.4 161.692 1130.98 158.902 1130.11 156.382C1129.68 155.142 1128.94 153.912 1127.99 152.942C1127.06 151.942 1125.94 151.062 1124.82 150.352Z" fill="#F4F3B6"/>
<path d="M964.253 182.662C958.303 190.582 951.213 207.582 948.713 213.842C943.333 227.372 933.673 236.032 931.713 250.492C929.353 267.832 945.453 279.972 961.253 282.012C990.893 285.842 997.553 268.562 1000.17 256.052C1006.71 224.892 993.493 210.042 988.133 193.432C985.963 186.702 983.013 179.512 976.813 176.122C968.213 171.422 969.643 175.492 964.253 182.662Z" fill="#DB9A46"/>
<path d="M973.643 187.952C973.643 187.952 978.203 213.962 976.483 243.102C974.753 272.242 958.813 283.732 943.093 276.312C927.733 269.072 926.443 252.662 931.613 235.472C939.923 207.852 960.403 179.802 960.403 179.802L973.643 187.952Z" fill="#F4F3B6"/>
<path d="M927.652 307.113C927.652 307.113 919.22 307.244 915.422 312.244C911.614 317.242 913.838 321.99 918.442 320.094C918.442 320.094 916.638 323.65 919.885 325.742C923.122 327.832 926.781 326.358 926.781 326.358C926.781 326.358 926.832 329.309 929.957 330.594C933.583 332.085 939.058 332.411 942.699 327.809C946.341 323.207 947.349 317.138 944.939 314.014C942.528 310.891 933.666 307.388 927.652 307.113Z" fill="#F4F3B6"/>
<path d="M968.462 255.828C968.462 255.828 937.503 262.303 930.86 282.092C924.226 301.883 926.267 309.099 926.267 309.099C926.267 309.099 930.845 319.525 944.937 314.024L954.072 297.252C954.072 297.252 969.439 297.693 981.556 283.441C993.674 269.189 983.977 254.414 968.462 255.828Z" fill="#EAC652"/>
<path d="M987.233 200.032C987.233 200.032 978.543 203.942 983.303 213.562C988.073 223.182 991.173 229.652 992.753 234.072C994.323 238.502 984.633 255.292 984.633 255.292C984.633 255.292 994.143 255.482 998.123 263.502C998.123 263.502 1015.9 247.772 1017.79 234.412C1019.68 221.062 1002.73 191.522 987.233 200.032Z" fill="#EAC652"/>
<path d="M984.623 255.292C984.623 255.292 976.583 259.262 973.643 265.732C970.703 272.202 979.133 272.202 979.133 272.202C979.133 272.202 979.623 279.032 986.223 275.442C986.223 275.442 988.233 279.712 992.743 275.442C997.253 271.172 999.903 261.832 999.903 261.832C999.903 261.832 996.163 251.322 984.623 255.292Z" fill="#F4F3B6"/>
<path d="M956.853 100.252C956.853 100.252 954.033 68.9523 932.843 72.2423C911.653 75.5323 907.133 107.392 912.313 138.702C917.493 170.012 934.593 190.332 967.433 196.552C1001.48 203.002 1029.43 194.012 1050.26 160.282C1071.09 126.552 1065.88 94.2323 1050.96 92.1923C1036.05 90.1523 1027.57 97.8623 1019.83 110.672C1019.83 110.672 1010.22 101.552 989.393 98.6323C973.283 96.3823 956.853 100.252 956.853 100.252Z" fill="#EAC652"/>
<path d="M1050.96 92.1924C1036.05 90.1524 1027.57 97.8624 1019.83 110.672C1019.83 110.672 1015.53 106.602 1006.46 103.022C1001.39 108.862 988.163 119.012 984.783 135.752C979.123 163.822 999.963 184.212 1023.86 188.592C1032.58 182.072 1042.56 172.722 1050.25 160.272C1071.09 126.552 1065.87 94.2324 1050.96 92.1924Z" fill="#A36D3D"/>
<path d="M929.263 111.012C929.263 111.012 927.923 116.692 923.653 118.882C919.383 121.082 916.003 119.662 918.043 104.752C920.083 89.8422 926.373 79.3822 934.793 78.5822C943.213 77.7822 950.353 91.8622 950.703 102.082C951.063 112.302 943.563 110.262 940.673 108.062C940.673 108.062 940.353 113.702 935.793 114.882C931.233 116.052 929.263 111.012 929.263 111.012Z" fill="#5D3317"/>
<path d="M1034.84 122.952C1034.84 122.952 1030.57 125.152 1027.38 121.932C1024.2 118.712 1025.81 113.542 1031.93 105.652C1038.05 97.7622 1048.68 94.3222 1053.99 99.7722C1059.3 105.222 1060.75 117.452 1055.24 135.812C1055.24 135.812 1053.41 142.012 1048.97 139.612C1044.53 137.212 1044.52 129.272 1044.52 129.272C1044.52 129.272 1040.3 133.002 1037.43 131.312C1034.56 129.612 1034.84 122.952 1034.84 122.952Z" fill="#5D3317"/>
<path d="M1025.83 143.662C1023.92 133.532 1014.16 126.862 1004.03 128.772C993.903 130.682 987.233 140.442 989.143 150.572C991.053 160.702 1000.81 167.372 1010.94 165.462C1021.07 163.552 1027.74 153.792 1025.83 143.662Z" fill="#F4F3B6"/>
<path d="M962.953 133.702C961.043 123.572 951.283 116.902 941.153 118.812C931.023 120.722 924.363 130.492 926.263 140.612C928.173 150.742 937.943 157.412 948.063 155.502C958.203 153.592 964.873 143.832 962.953 133.702Z" fill="#F4F3B6"/>
<path d="M958.363 134.942C957.183 128.702 951.163 124.582 944.923 125.762C938.683 126.932 934.563 132.952 935.743 139.192C936.913 145.442 942.933 149.552 949.183 148.372C955.433 147.202 959.533 141.182 958.363 134.942Z" fill="#0B1411"/>
<path d="M1015.51 143.512C1014.34 137.262 1008.32 133.152 1002.07 134.332C995.823 135.502 991.723 141.532 992.893 147.772C994.073 154.012 1000.09 158.122 1006.33 156.952C1012.58 155.772 1016.69 149.752 1015.51 143.512Z" fill="#0B1411"/>
<path d="M1010.73 141.542C1011.08 143.362 1009.88 145.112 1008.05 145.462C1006.23 145.802 1004.48 144.612 1004.14 142.782C1003.79 140.962 1004.99 139.212 1006.82 138.862C1008.65 138.512 1010.39 139.722 1010.73 141.542Z" fill="white"/>
<path d="M954.313 133.132C954.663 134.952 953.463 136.712 951.633 137.052C949.813 137.402 948.063 136.202 947.723 134.372C947.373 132.552 948.573 130.802 950.393 130.452C952.213 130.122 953.973 131.312 954.313 133.132Z" fill="white"/>
<path d="M978.163 171.112C978.163 171.112 975.623 184.242 964.753 182.892C953.993 181.562 954.183 168.332 954.183 168.332C954.183 168.332 961.423 174.322 965.683 166.332C965.683 166.332 969.483 176.132 978.163 171.112Z" fill="#0B1411"/>
<path d="M956.613 177.572C958.113 176.382 960.583 175.062 964.263 175.022C968.643 174.972 972.283 177.442 974.303 179.172C972.243 181.572 969.203 183.432 964.763 182.892C960.663 182.382 958.153 180.152 956.613 177.572Z" fill="#CB542F"/>
<path fill-rule="evenodd" clip-rule="evenodd" d="M1035.07 174.539C1035.07 174.54 1035.07 174.54 1034.64 175.122L1035.07 174.54C1035.4 174.778 1035.46 175.231 1035.23 175.553C1034.99 175.875 1034.53 175.943 1034.21 175.705M1035.07 174.539L1035.07 174.538L1035.07 174.539ZM1035.07 174.538L1035.07 174.535L1035.07 174.538ZM1035.07 174.535L1035.05 174.524L1035.07 174.535ZM1035.05 174.524L1035 174.484L1035.05 174.524ZM1035 174.484C1034.95 174.45 1034.88 174.4 1034.79 174.335L1035 174.484ZM1034.79 174.335C1034.6 174.206 1034.32 174.02 1033.96 173.785L1034.79 174.335ZM1033.96 173.785C1033.24 173.315 1032.16 172.653 1030.75 171.874L1033.96 173.785ZM1030.75 171.874C1027.92 170.317 1023.75 168.294 1018.35 166.414L1030.75 171.874ZM1018.35 166.414C1007.54 162.655 991.783 159.473 971.99 161.753L1018.35 166.414ZM1017.87 167.783C1007.24 164.085 991.703 160.941 972.156 163.192C971.759 163.238 971.399 162.953 971.353 162.555C971.308 162.158 971.593 161.798 971.99 161.753M1017.87 167.783C1023.19 169.632 1027.29 171.621 1030.05 173.143L1017.87 167.783ZM1030.05 173.143C1031.43 173.904 1032.48 174.549 1033.17 175.001L1030.05 173.143ZM1033.17 175.001C1033.52 175.227 1033.79 175.405 1033.96 175.526L1033.17 175.001ZM1033.96 175.526C1034.05 175.586 1034.11 175.632 1034.15 175.662L1033.96 175.526ZM1034.15 175.662L1034.2 175.696L1034.15 175.662ZM1034.2 175.696L1034.21 175.703L1034.2 175.696ZM1034.21 175.703L1034.21 175.705L1034.21 175.703Z" fill="#5D3317"/>
<path fill-rule="evenodd" clip-rule="evenodd" d="M1035.27 181.024C1035.27 181.024 1035.27 181.024 1034.84 181.612L1035.27 181.024C1035.59 181.258 1035.67 181.71 1035.43 182.035C1035.2 182.36 1034.75 182.434 1034.42 182.201C1034.42 182.201 1034.42 182.201 1034.42 182.201L1034.42 182.2L1034.42 182.198L1034.4 182.189L1034.35 182.15C1034.3 182.116 1034.23 182.065 1034.13 181.997C1033.93 181.862 1033.64 181.662 1033.26 181.408C1032.49 180.9 1031.35 180.174 1029.9 179.305C1026.98 177.567 1022.78 175.263 1017.65 172.998C1007.36 168.465 993.372 164.113 978.444 164.756C978.045 164.773 977.707 164.463 977.689 164.064C977.672 163.664 977.982 163.326 978.382 163.309C993.615 162.652 1007.84 167.09 1018.23 171.672C1023.43 173.965 1027.68 176.299 1030.64 178.06C1032.12 178.941 1033.27 179.68 1034.06 180.199C1034.45 180.459 1034.75 180.664 1034.95 180.804C1035.05 180.875 1035.13 180.929 1035.18 180.966L1035.24 181.008L1035.26 181.02L1035.26 181.023L1035.27 181.024Z" fill="#5D3317"/>
<path fill-rule="evenodd" clip-rule="evenodd" d="M973.829 166.364C973.845 165.964 974.182 165.652 974.582 165.668C989.375 166.255 1003.18 171.963 1013.27 177.497C1018.32 180.267 1022.44 183 1025.31 185.042C1026.74 186.064 1027.86 186.912 1028.63 187.507C1029.01 187.804 1029.3 188.038 1029.5 188.198C1029.59 188.279 1029.67 188.34 1029.72 188.382L1029.78 188.43L1029.79 188.443L1029.8 188.446L1029.8 188.447C1029.8 188.448 1029.8 188.448 1029.33 189.002L1029.8 188.448C1030.11 188.705 1030.15 189.162 1029.89 189.469C1029.63 189.775 1029.17 189.814 1028.87 189.557L1028.87 189.556L1028.86 189.554L1028.85 189.543L1028.8 189.499C1028.75 189.46 1028.68 189.401 1028.58 189.324C1028.39 189.169 1028.11 188.941 1027.73 188.65C1026.99 188.067 1025.88 187.231 1024.47 186.223C1021.64 184.207 1017.56 181.505 1012.57 178.767C1002.58 173.287 989.002 167.69 974.525 167.116C974.125 167.1 973.814 166.763 973.829 166.364Z" fill="#5D3317"/>
<path fill-rule="evenodd" clip-rule="evenodd" d="M898.933 151.322L898.708 150.634C898.328 150.758 898.12 151.168 898.245 151.548C898.369 151.928 898.778 152.135 899.159 152.011L899.159 152.011L899.159 152.011L899.16 152.011L899.17 152.008L899.215 151.994C899.256 151.981 899.319 151.962 899.405 151.937C899.577 151.888 899.839 151.817 900.187 151.731C900.885 151.56 901.933 151.334 903.317 151.114C906.085 150.676 910.197 150.268 915.542 150.402C926.228 150.669 941.852 153.103 961.51 161.805C961.876 161.967 962.304 161.802 962.466 161.436C962.628 161.07 962.463 160.642 962.097 160.48C942.265 151.701 926.454 149.225 915.578 148.953C910.141 148.817 905.94 149.232 903.09 149.683C901.665 149.909 900.578 150.144 899.843 150.324C899.475 150.414 899.196 150.49 899.006 150.544C898.911 150.571 898.839 150.593 898.789 150.608C898.764 150.616 898.745 150.622 898.731 150.626L898.715 150.631L898.711 150.633L898.709 150.634C898.708 150.634 898.708 150.634 898.933 151.322Z" fill="#5D3317"/>
<path fill-rule="evenodd" clip-rule="evenodd" d="M896.313 158.172L896.073 157.489C895.695 157.622 895.497 158.035 895.63 158.413C895.763 158.79 896.176 158.989 896.554 158.856M896.554 158.856L896.554 158.856L896.556 158.855L896.568 158.851L896.618 158.834C896.664 158.819 896.733 158.796 896.826 158.766C897.012 158.706 897.291 158.618 897.661 158.51C898.399 158.295 899.496 157.997 900.919 157.674C903.766 157.028 907.915 156.279 913.108 155.877C923.493 155.073 938.046 155.656 954.694 161.21C955.074 161.336 955.484 161.131 955.611 160.752C955.737 160.372 955.532 159.962 955.153 159.835C938.29 154.209 923.539 153.616 912.996 154.433C907.725 154.841 903.505 155.601 900.598 156.261C899.145 156.591 898.019 156.896 897.254 157.119C896.872 157.231 896.579 157.323 896.381 157.386C896.282 157.418 896.206 157.444 896.155 157.461L896.096 157.481L896.08 157.487L896.075 157.488L896.074 157.489C896.073 157.489 896.073 157.489 896.313 158.172" fill="#5D3317"/>
<path fill-rule="evenodd" clip-rule="evenodd" d="M903.123 164.242L902.907 163.551C902.525 163.671 902.312 164.077 902.432 164.459C902.552 164.841 902.958 165.053 903.34 164.934L903.343 164.933L903.356 164.929L903.411 164.912C903.46 164.897 903.535 164.875 903.634 164.846C903.832 164.788 904.129 164.703 904.517 164.598C905.293 164.388 906.435 164.096 907.894 163.771C910.812 163.122 914.993 162.342 920.033 161.822C930.119 160.782 943.615 160.788 957.313 164.946C957.696 165.062 958.101 164.846 958.217 164.463C958.333 164.08 958.117 163.675 957.734 163.559C943.792 159.327 930.088 159.328 919.884 160.38C914.779 160.907 910.542 161.697 907.579 162.357C906.097 162.687 904.933 162.984 904.138 163.199C903.74 163.307 903.434 163.394 903.227 163.455C903.124 163.485 903.045 163.509 902.991 163.525L902.93 163.544L902.913 163.549L902.907 163.551C902.906 163.551 902.907 163.551 903.123 164.242Z" fill="#5D3317"/>
<path fill-rule="evenodd" clip-rule="evenodd" d="M968.092 158.934C968.092 158.934 968.092 158.934 968.092 158.934L968.088 158.951L968.073 159.003C968.061 159.049 968.043 159.116 968.02 159.204C967.974 159.378 967.908 159.63 967.83 159.938C967.675 160.553 967.472 161.39 967.282 162.276C967.091 163.164 966.916 164.09 966.813 164.889C966.704 165.727 966.693 166.307 966.758 166.572C966.933 167.296 967.432 168.186 968.215 169.035C968.992 169.878 970.012 170.641 971.174 171.136C973.456 172.108 976.32 172.069 979.106 169.436C979.396 169.161 979.855 169.174 980.13 169.465C980.405 169.755 980.392 170.214 980.101 170.489C976.867 173.546 973.38 173.651 970.606 172.469C969.238 171.886 968.053 170.997 967.15 170.017C966.254 169.045 965.599 167.944 965.349 166.913M968.092 158.934C968.198 158.548 967.971 158.149 967.585 158.044L968.092 158.934ZM967.393 158.742C966.695 158.551 966.695 158.551 966.695 158.551L966.689 158.57L966.674 158.625C966.661 158.673 966.643 158.743 966.619 158.833C966.572 159.012 966.504 159.269 966.425 159.583C966.267 160.209 966.06 161.064 965.865 161.971C965.671 162.877 965.486 163.848 965.375 164.703C965.27 165.52 965.214 166.353 965.349 166.913M967.393 158.742L966.695 158.551C966.8 158.165 967.199 157.938 967.585 158.044" fill="#5D3317"/>
<path fill-rule="evenodd" clip-rule="evenodd" d="M966.28 164.765C966.654 164.907 966.843 165.325 966.701 165.699L966.023 165.442C966.701 165.699 966.701 165.699 966.701 165.7L966.7 165.701L966.7 165.703L966.697 165.708L966.691 165.725C966.685 165.739 966.677 165.759 966.667 165.783C966.647 165.832 966.618 165.901 966.579 165.986C966.502 166.156 966.387 166.394 966.232 166.675C965.922 167.234 965.444 167.974 964.776 168.688C963.43 170.125 961.277 171.478 958.204 170.967L958.204 170.967C955.484 170.511 953.895 169.269 952.992 168.089C952.546 167.507 952.276 166.952 952.116 166.537C952.036 166.329 951.984 166.156 951.95 166.03C951.934 165.967 951.922 165.915 951.914 165.877C951.909 165.858 951.906 165.843 951.904 165.831L951.901 165.815L951.9 165.81L951.9 165.807L951.899 165.806C951.899 165.806 951.899 165.805 952.613 165.682L951.899 165.805C951.831 165.411 952.096 165.036 952.49 164.968C952.883 164.901 953.257 165.163 953.327 165.555C953.327 165.555 953.327 165.555 953.327 165.555C953.327 165.555 953.327 165.555 953.327 165.555L953.327 165.557L953.327 165.558L953.327 165.559C953.327 165.558 953.327 165.556 953.327 165.555C953.327 165.555 953.327 165.555 953.327 165.555M958.443 169.538C958.443 169.538 958.442 169.538 958.442 169.538L958.323 170.252L958.443 169.538C958.443 169.538 958.443 169.538 958.443 169.538ZM953.327 165.559C953.327 165.559 953.327 165.559 953.327 165.559C953.327 165.559 953.327 165.559 953.327 165.559L953.327 165.559ZM965.346 165.185C965.346 165.186 965.346 165.186 965.346 165.186L965.346 165.185Z" fill="#5D3317"/>
<path d="M968.763 149.202C963.503 148.152 958.873 149.182 958.403 151.512C957.933 153.842 967.393 158.742 967.393 158.742C967.393 158.742 976.973 157.652 977.433 155.332C977.893 153.002 974.013 150.252 968.763 149.202Z" fill="#CB542F"/>
<defs>
<clipPath id="clip0_192_7553">
<rect width="227" height="195" fill="white" transform="translate(0 84)"/>
</clipPath>
<clipPath id="clip1_192_7553">
<rect width="70" height="96" fill="white" transform="translate(162.411 193)"/>
</clipPath>
</defs>
</svg>
