<svg width="250" height="71" viewBox="0 0 250 71" fill="none" xmlns="http://www.w3.org/2000/svg">
<path d="M25.6846 30.7682C25.9028 30.6289 26.1082 30.5593 26.3007 30.5593C26.6857 30.5593 26.9745 30.8949 27.167 31.566C27.2696 31.8952 27.321 32.2181 27.321 32.5347C27.321 33.4844 26.9039 34.4405 26.0697 35.4029C23.6184 38.2267 20.7628 39.6386 17.503 39.6386C16.2067 39.6386 14.8463 39.417 13.4218 38.9738C10.2389 37.9861 7.61439 35.998 5.54812 33.0096C3.64869 30.2617 2.69897 27.3809 2.69897 24.3671C2.69897 24.1138 2.70539 23.8542 2.71823 23.5883C2.98774 18.7511 4.66899 14.6356 7.76198 11.2419C9.04538 9.83635 10.502 8.74733 12.132 7.97489C13.4282 7.36707 14.6859 7.06316 15.9051 7.06316C17.8174 7.06316 19.6142 7.82927 21.2954 9.36149C22.3221 10.2859 23.1563 11.1406 23.798 11.9257C24.4397 12.7235 24.7606 13.439 24.7606 14.0721C24.7606 14.6166 24.5167 15.0978 24.0291 15.5157C23.6697 15.8196 23.2718 15.9716 22.8355 15.9716C22.181 15.9716 21.443 15.6107 20.6216 14.8889L18.1575 12.6095C17.426 11.9764 16.6495 11.6598 15.8281 11.6598C15.2121 11.6598 14.5704 11.8434 13.903 12.2107C12.825 12.8185 12.0549 13.3756 11.5929 13.8822C8.78228 16.9466 7.37696 20.315 7.37696 23.9872C7.37696 24.5317 7.40905 25.0889 7.47322 25.6587C7.79407 28.5585 9.24431 31.0341 11.8239 33.0855C13.5822 34.4911 15.3212 35.1939 17.041 35.1939C18.5169 35.1939 19.9799 34.6747 21.4302 33.6364C22.9446 32.5474 23.997 31.8066 24.5873 31.414L25.1456 31.0911C25.505 30.8885 25.6846 30.7809 25.6846 30.7682Z" fill="#FFD152"/>
<path d="M42.7895 11.6028C42.7382 11.9701 42.7125 12.5652 42.7125 13.3883C42.7125 15.3131 42.8473 18.4598 43.1168 22.8285C43.489 29.0841 43.8098 32.6297 44.0793 33.4654L47.4675 33.6364C47.7498 33.649 48.0194 33.6554 48.276 33.6554C49.2514 33.6554 50.1434 33.5984 50.9519 33.4844V30.7872L50.7979 26.7794L50.6632 22.7716L50.6439 18.4218V14.0531L50.5669 13.0274L50.4321 11.9637L46.582 11.7738L42.7895 11.6028ZM57.632 43.2476C56.5411 43.0323 55.9315 42.4561 55.8032 41.5191L55.7454 40.8733L55.6877 40.1515C55.6235 39.569 55.4823 39.0561 55.2641 38.6129L51.1059 38.29L46.8707 38.0431L42.7125 37.9861L38.4965 38.0051C38.2655 40.2718 38.1179 41.4684 38.0538 41.5951C37.7201 42.2915 37.1618 42.6651 36.3789 42.7157H36.2057C35.4998 42.7157 34.9736 42.4055 34.6271 41.785C34.4346 41.4178 34.3062 40.9492 34.2421 40.3794C33.9726 37.9608 33.8378 36.4349 33.8378 35.8018C33.8378 35.7004 33.8442 35.6245 33.8571 35.5738C33.9084 35.1559 34.0624 34.795 34.3191 34.4911C34.8068 33.934 35.5832 33.6174 36.6485 33.5414L37.996 33.4654C38.5094 33.4148 38.9457 33.3198 39.3051 33.1805L38.8816 26.4185L38.0345 12.0587L38.1308 9.93132C38.3105 7.9559 39.3308 6.96819 41.1917 6.96819H41.3264L46.813 7.17713L52.2995 7.46204C53.6214 7.52536 54.4428 8.25348 54.7636 9.6464C54.9561 10.4568 55.0652 11.4699 55.0909 12.6855L55.4759 30.5973L55.6107 32.2118L55.8609 33.8833C56.7978 33.9466 57.7732 34.0099 58.7871 34.0733C59.7881 34.5291 60.2887 35.3649 60.2887 36.5805V40.5504C60.263 42.1586 59.3774 43.0576 57.632 43.2476Z" fill="#FFD152"/>
<path d="M79.0106 28.4509L78.2983 25.8677L77.586 23.3794L76.2385 18.4978L75.8919 18.5548L73.2738 28.4509H79.0106ZM80.5507 33.1045C78.5871 32.9273 76.8288 32.8386 75.2759 32.8386C74.0439 32.8386 72.9465 32.8956 71.984 33.0096C71.676 33.3768 71.3872 33.8517 71.1177 34.4342L70.4632 35.8967C69.9241 37.0617 69.2439 37.8215 68.4226 38.1761C67.306 38.0368 66.7477 37.4859 66.7477 36.5235C66.7477 36.3463 66.767 36.1626 66.8055 35.9727L67.1905 34.3962L67.6525 32.8386L72.8118 14.433L73.6588 11.8877L74.6021 9.36149C74.846 8.71568 75.1604 8.19016 75.5454 7.78495C75.9818 7.30376 76.4759 7.06316 77.0278 7.06316C77.1561 7.06316 77.2908 7.07582 77.432 7.10115C78.1251 7.25311 78.6128 7.7153 78.8951 8.48774L79.0491 9.41847C79.2031 11.9764 79.678 14.8066 80.4737 17.909L81.648 22.0498L85.7869 35.3079C86.018 36.131 86.1335 36.9921 86.1335 37.8911V38.0431C86.1078 39.0308 85.6201 39.5627 84.6704 39.6386H84.4394C83.7463 39.6386 83.1945 39.436 82.7838 39.0308C82.5528 38.8029 82.341 38.4926 82.1485 38.1001L81.725 36.9984L81.1282 35.099L80.5507 33.1045Z" fill="#FFD152"/>
<path d="M97.4245 21.9738L98.3678 21.5939L99.1956 21.252C99.7988 20.9988 100.299 20.8341 100.697 20.7582C102.969 20.3023 104.425 18.6054 105.067 15.6676C105.157 15.2751 105.202 14.9142 105.202 14.585C105.202 13.0148 104.214 12.1347 102.237 11.9447C101.583 11.8814 100.954 11.8498 100.351 11.8498C99.3111 11.8498 98.3358 11.9384 97.4245 12.1157V21.9738ZM97.5401 33.3705C99.093 34.2569 100.627 34.7001 102.141 34.7001C102.988 34.7001 103.835 34.5608 104.682 34.2822C107.044 33.5098 108.667 31.8889 109.553 29.4196C108.321 27.6341 106.601 26.2539 104.393 25.2788C103.354 25.6714 102.186 26.1019 100.89 26.5705L97.5401 27.8241V33.3705ZM109.225 22.3727L110.4 23.3224L111.728 24.538L112.96 25.8297C114.064 27.1719 114.616 28.5079 114.616 29.8375C114.616 31.1418 114.077 32.4397 112.999 33.7314C109.713 37.6695 106.075 39.6386 102.083 39.6386C100.774 39.6386 99.4202 39.4234 98.0213 38.9928L97.5015 38.9168H97.2513L97.001 38.9548C96.3208 39.1954 95.7176 39.3157 95.1914 39.3157C93.7027 39.3157 92.8941 38.347 92.7658 36.4096C92.5733 33.9023 92.4706 31.1861 92.4578 28.261L92.4963 11.6978C92.5091 10.6468 92.5797 9.80469 92.7081 9.17154C92.9904 7.80394 93.8631 7.12014 95.3262 7.12014H95.4417L102.083 7.13914L103.546 7.25311C104.624 7.40506 105.555 7.72163 106.338 8.20283C108.84 9.72238 110.092 11.7991 110.092 14.433C110.092 15.1928 109.989 15.9969 109.784 16.8453C109.617 17.4658 109.36 18.2319 109.014 19.1436L108.07 21.4989L109.225 22.3727Z" fill="#FFD152"/>
<path d="M133.126 28.4509L132.414 25.8677L131.701 23.3794L130.354 18.4978L130.007 18.5548L127.389 28.4509H133.126ZM134.666 33.1045C132.702 32.9273 130.944 32.8386 129.391 32.8386C128.159 32.8386 127.062 32.8956 126.099 33.0096C125.791 33.3768 125.502 33.8517 125.233 34.4342L124.578 35.8967C124.039 37.0617 123.359 37.8215 122.538 38.1761C121.421 38.0368 120.863 37.4859 120.863 36.5235C120.863 36.3463 120.882 36.1626 120.921 35.9727L121.306 34.3962L121.768 32.8386L126.927 14.433L127.774 11.8877L128.717 9.36149C128.961 8.71568 129.276 8.19016 129.661 7.78495C130.097 7.30376 130.591 7.06316 131.143 7.06316C131.271 7.06316 131.406 7.07582 131.547 7.10115C132.24 7.25311 132.728 7.7153 133.01 8.48774L133.164 9.41847C133.318 11.9764 133.793 14.8066 134.589 17.909L135.763 22.0498L139.902 35.3079C140.133 36.131 140.249 36.9921 140.249 37.8911V38.0431C140.223 39.0308 139.735 39.5627 138.786 39.6386H138.555C137.862 39.6386 137.31 39.436 136.899 39.0308C136.668 38.8029 136.456 38.4926 136.264 38.1001L135.84 36.9984L135.243 35.099L134.666 33.1045Z" fill="#FFD152"/>
<path d="M161.416 20.8341L160.222 22.9045L154.947 32.6297C154.395 33.6301 153.574 34.9153 152.483 36.4856C151.764 37.5239 150.956 38.0431 150.057 38.0431C149.852 38.0431 149.647 38.0178 149.441 37.9671C148.235 37.6885 147.587 36.7008 147.497 35.004L146.631 16.0665C146.592 15.0662 146.573 13.9898 146.573 12.8375C146.573 11.8877 146.586 10.881 146.612 9.81736C146.637 8.80432 146.804 8.03821 147.112 7.51903C147.266 7.25311 147.51 7.01251 147.844 6.79724C148.19 6.58197 148.505 6.47433 148.787 6.47433C149.082 6.47433 149.403 6.5883 149.749 6.81623C150.109 7.04417 150.346 7.29109 150.462 7.55702C150.77 8.29147 150.956 9.29817 151.02 10.5771L151.54 25.6777L151.598 26.7794L151.675 27.995C152.098 27.8051 152.445 27.4885 152.714 27.0453L153.003 26.4755L153.292 25.9246L163.206 9.43747C163.719 8.58905 164.233 7.97489 164.746 7.59501C165.247 7.21512 165.753 7.02517 166.267 7.02517C166.588 7.02517 166.909 7.10115 167.229 7.25311C168.076 7.65832 168.526 8.38011 168.577 9.41847L168.5 11.2039L168.288 13.0084L167.884 16.6364L167.557 20.2833C167.441 21.8408 167.383 23.3034 167.383 24.671C167.383 25.6967 167.415 26.6718 167.48 27.5962L167.865 31.2811L168.307 34.985L168.461 36.1626L168.538 37.3593C168.526 38.5496 168.012 39.2777 166.998 39.5437C166.755 39.607 166.523 39.6386 166.305 39.6386C165.471 39.6386 164.855 39.1574 164.457 38.1951C164.098 37.3593 163.828 36.3589 163.649 35.1939C162.917 30.4833 162.551 26.1716 162.551 22.2587C162.551 21.0684 162.583 19.9097 162.648 18.7827L161.416 20.8341ZM162.821 5.60059V5.71456C162.821 6.1451 161.967 6.43001 160.26 6.56931C159.644 6.61996 159.048 6.64528 158.47 6.64528C157.495 6.64528 156.584 6.56931 155.737 6.41735C154.569 6.21474 153.882 5.60692 153.677 4.59388C153.664 4.46725 153.657 4.34062 153.657 4.21399C153.657 3.85943 153.767 3.52386 153.985 3.20729C154.28 2.75142 154.684 2.49816 155.197 2.44751C155.762 2.3842 156.301 2.35254 156.815 2.35254C159.099 2.35254 160.864 3.01734 162.109 4.34696L162.455 4.89779L162.821 5.60059Z" fill="#FFD152"/>
<path d="M180.638 18.4028L181.1 18.0989C184.514 15.0345 186.959 12.2233 188.435 9.6654L188.916 8.84864L189.474 8.06987C190 7.44938 190.565 7.13914 191.168 7.13914C191.464 7.13914 191.759 7.20879 192.054 7.34808C192.798 7.68998 193.17 8.22182 193.17 8.94361C193.17 9.19687 193.126 9.46912 193.036 9.76037C192.702 10.8241 192.253 11.8371 191.688 12.7995C189.956 15.712 187.594 18.4915 184.604 21.138L183.891 21.7839L183.468 22.1637L183.006 22.5816L184.816 24.4811L188.377 28.185L191.9 31.9269C193.004 33.1299 193.863 34.3012 194.48 35.4409C194.788 36.0107 194.942 36.7008 194.942 37.5113V37.7012C194.916 38.6256 194.48 39.2334 193.632 39.5247C193.427 39.6006 193.222 39.6386 193.016 39.6386C192.477 39.6386 191.964 39.379 191.476 38.8599L190.88 38.1191L190.321 37.3213C188.281 34.4595 185.014 30.9455 180.523 26.7794C180.51 26.7667 180.285 26.6971 179.849 26.5705L179.83 36.8464L179.733 37.8911C179.502 39.0561 178.803 39.6386 177.635 39.6386H177.481C176.339 39.588 175.658 39.0245 175.44 37.9481L175.325 36.7705L175.306 35.5738V17.5481L175.209 14.585L175.094 11.6218L175.055 10.6721L175.113 9.74138C175.306 8.56372 175.934 7.93057 177 7.84193C177.077 7.82927 177.16 7.82294 177.25 7.82294C178.251 7.82294 178.886 8.34845 179.156 9.39948C179.425 10.4252 179.618 11.6725 179.733 13.1414L179.868 15.7436L179.964 18.3459L180.138 18.6688L180.638 18.4028Z" fill="#FFD152"/>
<path d="M216.128 21.29L214.876 23.4174L212.354 28.09L209.833 32.7436C209.217 33.8453 208.363 35.1686 207.272 36.7135C206.63 37.6126 205.886 38.0621 205.039 38.0621C204.847 38.0621 204.641 38.0368 204.423 37.9861C203.242 37.7075 202.613 36.8148 202.536 35.3079L201.67 16.5034C201.632 15.4777 201.612 14.395 201.612 13.2553C201.612 12.331 201.625 11.3686 201.651 10.3682C201.677 9.36782 201.837 8.62071 202.132 8.12685C202.286 7.86093 202.53 7.62033 202.864 7.40506C203.197 7.18979 203.505 7.08216 203.788 7.08216C204.07 7.08216 204.385 7.19612 204.731 7.42406C205.065 7.63933 205.296 7.87992 205.424 8.14584C205.732 8.79166 205.912 9.70339 205.963 10.881L206.502 26.1716L206.541 27.1213L206.618 28.204C207.041 28.014 207.381 27.7038 207.638 27.2732L208.215 26.1716L217.937 9.98831C218.425 9.17788 218.919 8.57638 219.42 8.18383C219.907 7.81661 220.401 7.63299 220.902 7.63299C221.197 7.63299 221.492 7.69631 221.787 7.82294C222.609 8.16484 223.071 8.80432 223.173 9.74138L223.154 11.3749L222.981 13.0084L222.192 21.214C222.089 22.4043 222.038 23.6516 222.038 24.9559C222.038 28.0204 222.333 31.3824 222.923 35.042C223.077 36.017 223.154 36.8718 223.154 37.6062C223.141 38.5813 222.641 39.2144 221.653 39.5057C221.383 39.5943 221.133 39.6386 220.902 39.6386C220.17 39.6386 219.625 39.2334 219.266 38.423C218.855 37.4859 218.56 36.4349 218.38 35.2699C217.648 30.6353 217.283 26.4502 217.283 22.7146C217.283 21.4863 217.321 20.3086 217.398 19.1816L216.128 21.29Z" fill="#FFD152"/>
<path d="M234.715 25.1649H244.552V22.1258L244.129 11.7168V11.2799C244.129 10.5581 244.18 9.83635 244.283 9.11456C244.424 8.22815 244.963 7.72163 245.9 7.59501C246.015 7.58234 246.131 7.57601 246.246 7.57601C246.99 7.57601 247.51 7.96223 247.805 8.73467C248.165 9.72238 248.396 10.7164 248.498 11.7168L248.691 14.547L248.826 17.3961L249.962 35.8397C249.987 36.169 250 36.4666 250 36.7325C250 37.125 249.974 37.4606 249.923 37.7392C249.692 38.9675 248.973 39.6006 247.767 39.6386H247.671C246.541 39.6386 245.855 39.0245 245.611 37.7962L245.438 36.3906L245.341 34.985L245.207 32.7057L245.11 30.3124C243.763 29.8438 242.178 29.6032 240.355 29.5906L237.93 29.6476L235.446 29.7805L235.658 32.2308L235.831 34.4721L235.889 35.6498L235.793 36.8275C235.6 37.9038 234.946 38.499 233.829 38.6129C233.739 38.6256 233.65 38.6319 233.56 38.6319C232.674 38.6319 232.032 38.1254 231.635 37.1124L231.423 36.3146L231.288 35.4978C230.698 31.9269 230.345 27.7608 230.229 22.9995L230.172 16.7123L230.191 10.4442L230.268 8.79166C230.435 7.77862 231.006 7.19612 231.981 7.04417C232.122 7.01884 232.257 7.00618 232.385 7.00618C233.207 7.00618 233.771 7.43039 234.08 8.27881C234.439 9.22853 234.631 10.1466 234.657 11.033L234.696 16.7123L234.715 25.1649Z" fill="#FFD152"/>
<path fill-rule="evenodd" clip-rule="evenodd" d="M23.4084 29.8014L23.6066 29.6749C23.9699 29.4429 24.4298 29.2507 24.9612 29.2507C25.6183 29.2507 26.1458 29.5606 26.5029 29.9756C26.822 30.3464 27.0096 30.7988 27.1315 31.219C27.2676 31.6602 27.341 32.1111 27.341 32.5675C27.341 33.9303 26.7373 35.184 25.7634 36.3076C23.0986 39.3774 19.8843 41.0129 16.1635 41.0129C14.7094 41.0129 13.2106 40.7642 11.6735 40.286C8.17076 39.1987 5.30562 37.0092 3.08562 33.7984C1.04888 30.8518 3.05176e-05 27.7111 3.05176e-05 24.3999C3.05176e-05 24.1243 0.00701271 23.8435 0.0208202 23.5574L0.0212946 23.5475C0.306694 18.4251 2.09815 14.0135 5.41165 10.3778C6.80635 8.85033 8.40483 7.6512 10.2039 6.79858L10.209 6.79618C11.6555 6.11789 13.1119 5.7546 14.5657 5.7546C16.8837 5.7546 18.9961 6.6945 20.8754 8.40616C21.935 9.36038 22.8202 10.2641 23.5169 11.1165L23.5235 11.1247C24.248 12.0253 24.7807 13.0333 24.7807 14.1049C24.7807 15.1056 24.3101 15.9366 23.581 16.5613L23.5744 16.567C22.9911 17.0603 22.2854 17.3458 21.4961 17.3458C20.3451 17.3458 19.2913 16.726 18.378 15.9234L18.365 15.912L15.9059 13.6373C15.3805 13.1874 14.9169 13.0341 14.4887 13.0341C14.1552 13.0341 13.742 13.132 13.2317 13.4118C12.1998 13.9941 11.5803 14.4656 11.264 14.8124L11.2615 14.8151C8.64664 17.6661 7.39705 20.7227 7.39705 24.02C7.39705 24.5125 7.42607 25.0202 7.48499 25.5434L7.48527 25.546C7.76221 28.049 9.00124 30.216 11.3376 32.074L11.3404 32.0761C11.7357 32.3922 12.1239 32.7333 12.5044 33.0677C13.6574 34.0811 15.6345 34.2057 16.3142 34.2057C16.994 34.2057 19.2017 33.2182 19.316 33.0677C19.4302 32.9173 21.0725 31.5229 21.0725 31.5229L23.4084 29.8014ZM6.13379 25.6916C6.45463 28.5914 8.39696 31.7863 11.116 33.7984C13.835 35.8105 16.994 35.5471 18.3535 34.8764C19.713 34.2057 23.8062 31.124 23.8062 31.124C24.1655 30.9214 24.3452 30.8137 24.3452 30.8011C24.5634 30.6618 24.7687 30.5921 24.9612 30.5921C25.1366 30.5921 25.2921 30.6618 25.4275 30.8011C25.5126 30.8885 25.5897 31.0035 25.659 31.1459C25.7216 31.2745 25.7778 31.4254 25.8275 31.5988C25.9302 31.9281 25.9815 32.251 25.9815 32.5675C25.9815 33.5173 25.5644 34.4733 24.7302 35.4357C22.279 38.2595 19.4233 39.6715 16.1635 39.6715C14.8673 39.6715 13.5069 39.4499 12.0823 39.0067C8.89957 38.0189 6.27492 36.0309 4.20869 33.0424C2.3093 30.2945 1.35955 27.4137 1.35955 24.3999C1.35955 24.1467 1.36596 23.8871 1.3788 23.6212C1.64831 18.7839 3.32962 14.6685 6.42255 11.2748C7.70592 9.86919 9.16263 8.78017 10.7925 8.00773C12.0887 7.39991 13.3465 7.096 14.5657 7.096C16.4779 7.096 18.2748 7.86211 19.956 9.39433C20.9827 10.3187 21.8169 11.1735 22.4586 11.9586C23.1003 12.7563 23.4212 13.4718 23.4212 14.1049C23.4212 14.6495 23.1773 15.1306 22.6896 15.5485C22.3303 15.8524 21.9324 16.0044 21.4961 16.0044C20.8415 16.0044 20.1036 15.6435 19.2822 14.9217L16.8181 12.6424C16.0865 12.0092 15.3101 11.6927 14.4887 11.6927C13.8727 11.6927 13.231 11.8763 12.5636 12.2435C11.4856 12.8513 10.7155 13.4085 10.2535 13.915C7.4429 16.9794 6.03753 20.3478 6.03753 24.02C6.03753 24.5646 6.06962 25.1217 6.13379 25.6916Z" fill="#67676A"/>
<path d="M150.937 35.4744C150.219 36.5128 149.41 37.032 148.512 37.032C148.306 37.032 148.101 37.0066 147.896 36.956C146.689 36.6774 146.041 35.6897 145.951 33.9928L145.085 15.0554C145.047 14.055 145.027 12.9787 145.027 11.8263C145.027 10.8766 145.04 9.8699 145.066 8.80622C145.091 7.79318 145.258 7.02707 145.566 6.50789C145.72 6.24197 145.964 6.00137 146.298 5.7861C146.644 5.57083 146.959 5.46319 147.241 5.46319C147.536 5.46319 147.857 5.57716 148.204 5.80509C148.563 6.03303 148.8 6.27995 148.916 6.54588C149.224 7.28033 149.41 8.28703 149.474 9.56599L149.994 24.6666L150.052 25.7683L150.129 26.9839C150.552 26.794 150.899 26.4774 151.168 26.0342L152.216 24.1315L151.168 23.9235L150.833 9.51006L150.832 9.49967C150.764 8.14919 150.565 6.96941 150.172 6.03299L150.166 6.01747C149.906 5.42065 149.434 4.99232 148.949 4.68291C148.469 4.36892 147.89 4.12179 147.241 4.12179C146.612 4.12179 146.045 4.35828 145.573 4.65096L145.564 4.65709L145.554 4.66339C145.092 4.96144 144.676 5.3438 144.39 5.83568C143.914 6.64105 143.735 7.6719 143.707 8.77269L143.707 8.77429C143.681 9.84737 143.668 10.8648 143.668 11.8263C143.668 12.9932 143.687 14.0867 143.726 15.1063L144.593 34.0533L144.594 34.0628C144.646 35.048 144.865 35.9757 145.364 36.7353C145.885 37.5298 146.65 38.0434 147.576 38.2597C147.882 38.3346 148.195 38.3734 148.512 38.3734C150.029 38.3734 151.201 37.4711 152.059 36.2328L151.931 34.0109C151.629 34.4676 151.298 34.9554 150.937 35.4744Z" fill="#67676A"/>
<path d="M153.401 31.6185C153.032 32.2883 152.542 33.0857 151.931 34.0109L152.059 36.2328C152.059 36.2328 154.533 33.279 154.748 32.6422C154.963 32.0054 156.801 28.7829 156.801 28.7829L155.394 27.9456L153.401 31.6185Z" fill="#67676A"/>
<path fill-rule="evenodd" clip-rule="evenodd" d="M23.6066 29.6749L23.4084 29.8014L21.0725 31.5229C21.0725 31.5229 19.4302 32.9173 19.316 33.0677C19.2017 33.2182 16.994 34.2057 16.3142 34.2057C15.6345 34.2057 13.6574 34.0811 12.5044 33.0677C12.1239 32.7333 11.7357 32.3922 11.3404 32.0761L11.3376 32.074C9.00124 30.216 7.76221 28.049 7.48527 25.546L7.48499 25.5434C7.42607 25.0202 7.39705 24.5125 7.39705 24.02C7.39705 20.7227 8.64664 17.6661 11.2615 14.8151L11.264 14.8124C11.5803 14.4656 12.1998 13.9941 13.2317 13.4118C13.742 13.132 14.1552 13.0341 14.4887 13.0341C14.9169 13.0341 15.3805 13.1874 15.9059 13.6373L18.365 15.912L18.378 15.9234C19.2913 16.726 20.3451 17.3458 21.4961 17.3458C22.2854 17.3458 22.9911 17.0603 23.5744 16.567L23.581 16.5613C24.3101 15.9366 24.7807 15.1056 24.7807 14.1049C24.7807 13.0333 24.248 12.0253 23.5235 11.1247L23.5169 11.1165C22.8202 10.2641 21.935 9.36038 20.8754 8.40616C18.9961 6.6945 16.8837 5.7546 14.5657 5.7546C13.1119 5.7546 11.6555 6.11789 10.209 6.79618L10.2039 6.79858C8.40483 7.6512 6.80635 8.85033 5.41165 10.3778C2.09815 14.0135 0.306694 18.4251 0.0212946 23.5475L0.0208202 23.5574C0.00701271 23.8435 3.05176e-05 24.1243 3.05176e-05 24.3999C3.05176e-05 27.7111 1.04888 30.8518 3.08562 33.7984C5.30562 37.0092 8.17076 39.1987 11.6735 40.286C13.2106 40.7642 14.7094 41.0129 16.1635 41.0129C19.8843 41.0129 23.0986 39.3774 25.7634 36.3076C26.7373 35.184 27.341 33.9303 27.341 32.5675C27.341 32.1111 27.2676 31.6602 27.1315 31.219C27.0096 30.7988 26.822 30.3464 26.5029 29.9756C26.1458 29.5606 25.6183 29.2507 24.9612 29.2507C24.4298 29.2507 23.9699 29.4429 23.6066 29.6749ZM6.13379 25.6916C6.45463 28.5914 8.39696 31.7863 11.116 33.7984L18.3535 34.8764C19.713 34.2057 23.8062 31.124 23.8062 31.124C24.1655 30.9214 24.3452 30.8137 24.3452 30.8011C24.5634 30.6618 24.7687 30.5921 24.9612 30.5921C25.1366 30.5921 25.2921 30.6618 25.4275 30.8011C25.5126 30.8885 25.5897 31.0035 25.659 31.1459C25.7216 31.2745 25.7778 31.4254 25.8275 31.5988C25.9302 31.9281 25.9815 32.251 25.9815 32.5675C25.9815 33.5173 25.5644 34.4733 24.7302 35.4357C22.279 38.2595 19.4233 39.6715 16.1635 39.6715C14.8673 39.6715 13.5069 39.4499 12.0823 39.0067C8.89957 38.0189 6.27492 36.0309 4.20869 33.0424C2.3093 30.2945 1.35955 27.4137 1.35955 24.3999C1.35955 24.1467 1.36596 23.8871 1.3788 23.6212C1.64831 18.7839 3.32962 14.6685 6.42255 11.2748C7.70592 9.86919 9.16263 8.78017 10.7925 8.00773C12.0887 7.39991 13.3465 7.096 14.5657 7.096C16.4779 7.096 18.2748 7.86211 19.956 9.39433C20.9827 10.3187 21.8169 11.1735 22.4586 11.9586C23.1003 12.7563 23.4212 13.4718 23.4212 14.1049C23.4212 14.6495 23.1773 15.1306 22.6896 15.5485C22.3303 15.8524 21.9324 16.0044 21.4961 16.0044C20.8415 16.0044 20.1036 15.6435 19.2822 14.9217L16.8181 12.6424C16.0865 12.0092 15.3101 11.6927 14.4887 11.6927C13.8727 11.6927 13.231 11.8763 12.5636 12.2435C11.4856 12.8513 10.7155 13.4085 10.2535 13.915C7.4429 16.9794 6.03753 20.3478 6.03753 24.02C6.03753 24.5646 6.06962 25.1217 6.13379 25.6916ZM49.0982 13.042V17.4107L49.1174 21.7604L49.2522 25.7683L49.4062 29.7761V32.4733C48.5977 32.5873 47.7057 32.6442 46.7303 32.6442C46.4736 32.6442 46.2041 32.6379 45.9218 32.6252L42.5336 32.4543C42.2641 31.6185 41.9432 28.0729 41.571 21.8174C41.3015 17.4487 41.1668 14.3019 41.1668 12.3772C41.1668 11.5541 41.1925 10.9589 41.2438 10.5917L45.0362 10.7626L48.8864 10.9526L49.0212 12.0163L49.0982 13.042ZM47.8934 25.8127L48.0467 29.8015V31.2627C47.6318 31.2893 47.1932 31.3028 46.7303 31.3028C46.4973 31.3028 46.2498 31.2971 45.9875 31.2854L45.9835 31.2852L43.673 31.1686L43.6695 31.1426C43.5993 30.6219 43.5243 29.9262 43.445 29.049C43.2863 27.2961 43.114 24.8615 42.9282 21.7388L42.9281 21.7359C42.6587 17.3691 42.5263 14.2577 42.5263 12.3772C42.5263 12.2406 42.527 12.1124 42.5285 11.9924L44.9683 12.1024L44.9742 12.1026L47.6744 12.2359L47.7387 13.0916L47.7387 17.4107L47.758 21.7856L47.8934 25.8127ZM55.8197 43.5518L56.0261 43.5925L56.2353 43.5697C57.3029 43.4536 58.3006 43.0996 59.0345 42.3545C59.7813 41.5963 60.0856 40.6059 60.1023 39.5603L60.1024 39.5498V35.5694C60.1024 34.7814 59.9396 34.0191 59.538 33.3484C59.1306 32.6682 58.5308 32.172 57.8111 31.8442L57.5806 31.7392L57.3272 31.7234C56.7034 31.6844 56.0943 31.6455 55.5 31.6066L55.4163 31.0474L55.2885 29.5168L54.9044 11.6459C54.8776 10.3775 54.7635 9.26544 54.5426 8.33357C54.3388 7.45186 53.9449 6.64507 53.2698 6.04665C52.5834 5.43813 51.7304 5.15524 50.8227 5.11123L50.8197 5.11108L45.3387 4.82631L39.8069 4.61565H39.646C38.4711 4.61565 37.3671 4.93274 36.5329 5.74033C35.7139 6.53322 35.3381 7.62281 35.231 8.80028L35.2283 8.83027L35.1275 11.0566L35.9786 25.4853L36.3314 31.1174L35.0149 31.1916L35.0047 31.1924C33.7358 31.2829 32.5539 31.6785 31.7445 32.6032L31.7366 32.6122L31.729 32.6213C31.3068 33.121 31.0578 33.7073 30.9695 34.3417C30.9364 34.5184 30.9326 34.6828 30.9326 34.7906C30.9326 35.5134 31.0783 37.1216 31.345 39.5149L31.3452 39.5164C31.4211 40.191 31.5814 40.8323 31.8738 41.3901L31.882 41.4058L31.8907 41.4212C32.1601 41.9037 32.5356 42.3268 33.0385 42.6234C33.5427 42.9206 34.0993 43.046 34.66 43.046H34.8777L34.9222 43.0431C35.5151 43.0048 36.0923 42.8378 36.6021 42.4966C37.1123 42.1552 37.483 41.6877 37.7371 41.1572C37.8202 40.9836 37.8562 40.8113 37.8646 40.7712L37.8657 40.7655C37.8836 40.6829 37.8998 40.5906 37.9147 40.4975C37.9449 40.3088 37.9789 40.0581 38.0164 39.7535C38.0627 39.378 38.1167 38.903 38.1782 38.3299L41.1606 38.3164L45.2754 38.3728L49.4667 38.6172L52.7245 38.8702C52.7506 38.9933 52.7721 39.1253 52.7883 39.2668L52.8443 39.9677L52.9059 40.6568L52.9102 40.6876C53.0097 41.4141 53.3137 42.0854 53.8705 42.6115C54.4126 43.1239 55.0997 43.4097 55.8197 43.5518ZM57.2413 33.0621C56.2275 32.9988 55.2521 32.9355 54.3152 32.8722L54.0649 31.2007L53.9302 29.5861L53.5451 11.6744C53.5195 10.4587 53.4104 9.44569 53.2179 8.63527C52.897 7.24234 52.0756 6.51422 50.7538 6.4509L45.2672 6.16599L39.7807 5.95705H39.646C37.7851 5.95705 36.7647 6.94476 36.5851 8.92018L36.4888 11.0476L37.3358 25.4074L37.7594 32.1694C37.4 32.3087 36.9636 32.4036 36.4503 32.4543L35.1027 32.5303C34.0375 32.6063 33.261 32.9228 32.7734 33.48C32.5167 33.7839 32.3627 34.1448 32.3113 34.5627C32.2985 34.6133 32.2921 34.6893 32.2921 34.7906C32.2921 35.4238 32.4268 36.9496 32.6964 39.3683C32.7605 39.9381 32.8889 40.4066 33.0814 40.7739C33.4279 41.3943 33.9541 41.7046 34.66 41.7046H34.8332C35.6161 41.6539 36.1744 41.2804 36.5081 40.5839C36.5722 40.4573 36.7198 39.2606 36.9508 36.994L41.1668 36.975L45.325 37.032L49.5602 37.2789L53.7184 37.6018C53.9366 38.045 54.0778 38.5578 54.1419 39.1403L54.1997 39.8621L54.2574 40.5079C54.3858 41.445 54.9954 42.0212 56.0863 42.2364C57.8317 42.0465 58.7172 41.1474 58.7429 39.5392V35.5694C58.7429 34.3537 58.2424 33.518 57.2413 33.0621ZM74.6927 17.4867L76.0403 22.3682L76.7526 24.8565L77.4649 27.4398H71.7281L74.3462 17.5437L74.6927 17.4867ZM75.4407 25.2087L75.4442 25.2211L75.6861 26.0984H73.488L74.5514 22.079L74.7285 22.7208L75.4407 25.2087ZM73.9997 6.77381C73.6147 7.17903 73.3002 7.70454 73.0564 8.35035L72.1131 10.8766L71.266 13.4219L66.1068 31.8275L65.6448 33.385L65.2597 34.9616C65.2212 35.1515 65.202 35.3351 65.202 35.5124C65.202 36.4748 65.7603 37.0256 66.8768 37.1649C67.6982 36.8104 68.3784 36.0506 68.9174 34.8856L69.572 33.423C69.8415 32.8405 70.1302 32.3657 70.4383 31.9984C71.4008 31.8845 72.4981 31.8275 73.7302 31.8275C75.2831 31.8275 77.0414 31.9161 79.0049 32.0934L79.5825 34.0878L80.1792 35.9873L80.6028 37.0889C80.7953 37.4815 81.007 37.7917 81.2381 38.0197C81.6487 38.4249 82.2006 38.6275 82.8936 38.6275H83.1246C84.0743 38.5515 84.562 38.0197 84.5877 37.032V36.88C84.5877 35.9809 84.4722 35.1199 84.2412 34.2968L80.1022 21.0386L78.9279 16.8978C78.1322 13.7954 77.6574 10.9653 77.5034 8.40733L77.3493 7.4766C77.067 6.70416 76.5793 6.24197 75.8863 6.09001C75.7451 6.06468 75.6103 6.05202 75.482 6.05202C74.9302 6.05202 74.436 6.29262 73.9997 6.77381ZM69.9643 13.0336L64.7991 31.4605L64.3308 33.0393L63.9318 34.6728L63.9266 34.6985C63.8722 34.9672 63.8425 35.2391 63.8425 35.5124C63.8425 36.2606 64.068 37.0123 64.6594 37.5958C65.2259 38.1548 65.9727 38.4042 66.7063 38.4957L67.0783 38.5421L67.4217 38.3938C68.6623 37.8583 69.5376 36.7754 70.1543 35.4427L70.8121 33.9728C70.9395 33.698 71.0654 33.4653 71.1874 33.2699C71.9433 33.2033 72.79 33.1689 73.7302 33.1689C74.9881 33.1689 76.3958 33.2291 77.9552 33.3511L78.2794 34.4707L78.8932 36.4241L79.3529 37.62L79.379 37.6732C79.6159 38.1563 79.9077 38.6041 80.2767 38.9682C80.9907 39.6727 81.9147 39.9689 82.8936 39.9689H83.1797L83.2345 39.9645C83.9439 39.9077 84.6699 39.6615 85.2108 39.0716C85.7429 38.4913 85.9287 37.7599 85.9468 37.0663L85.9472 37.0491V36.88C85.9472 35.8663 85.8168 34.8844 85.5514 33.9388L85.5462 33.9202L81.4067 20.6604L80.2418 16.5527C79.4646 13.5192 79.0081 10.7794 78.8605 8.32779L78.8563 8.2591L78.6709 7.13812L78.6282 7.02151C78.2197 5.90381 77.4134 5.05073 76.1812 4.78055L76.1554 4.7749L76.1295 4.77025C75.9173 4.73218 75.7008 4.71062 75.482 4.71062C74.4767 4.71062 73.6376 5.16651 72.9972 5.86768C72.4684 6.42778 72.0726 7.1136 71.7824 7.88205L70.829 10.4354L69.9643 13.0336ZM102.195 14.361L102.192 14.3739C101.903 15.6997 101.452 16.6339 100.91 17.2655C100.386 17.8758 99.7292 18.2611 98.886 18.4314C98.3898 18.5269 97.8341 18.7119 97.2383 18.9564V12.2584C97.7367 12.2065 98.2587 12.18 98.8049 12.18C99.3601 12.18 99.9454 12.2092 100.56 12.2687C101.394 12.3488 101.809 12.5582 102.004 12.7319C102.157 12.868 102.297 13.0875 102.297 13.5738C102.297 13.7846 102.268 14.0449 102.195 14.361ZM97.6499 20.2409C98.2531 19.9876 98.7536 19.823 99.1515 19.747C101.423 19.2911 102.88 17.5943 103.521 14.6565C103.611 14.264 103.656 13.9031 103.656 13.5738C103.656 12.0036 102.668 11.1235 100.692 10.9336C100.037 10.8703 99.4081 10.8386 98.8049 10.8386C97.7654 10.8386 96.79 10.9273 95.8788 11.1045V20.9627L96.8221 20.5828L97.6499 20.2409ZM108.007 28.4085C107.121 30.8778 105.498 32.4986 103.136 33.2711C102.289 33.5496 101.442 33.6889 100.595 33.6889C99.0809 33.6889 97.5472 33.2457 95.9943 32.3593L95.1662 26.828L99.344 25.5593C100.64 25.0908 101.808 24.6602 102.848 24.2677C105.055 25.2427 106.775 26.623 108.007 28.4085ZM109.748 21.2999L108.524 20.3103L108.166 20.0392L108.737 18.6145L108.741 18.6035C109.096 17.669 109.369 16.8575 109.552 16.1781L109.556 16.162L109.56 16.1457C109.787 15.21 109.905 14.3007 109.905 13.4219C109.905 10.2699 108.362 7.78558 105.508 6.05146C104.539 5.45656 103.423 5.08749 102.193 4.91405L102.15 4.90806L100.593 4.78675L93.8999 4.7676H93.7804C92.8385 4.7676 91.926 4.98934 91.1832 5.57139C90.4349 6.15767 90.0176 6.98492 89.8301 7.89265L89.8292 7.89733C89.6774 8.64624 89.6044 9.58119 89.5911 10.6705L89.5525 27.2467L89.5525 27.2556C89.5655 30.2048 89.6689 32.9509 89.8639 35.4925C89.9378 36.5959 90.2145 37.6415 90.8733 38.4308C91.5811 39.2789 92.5723 39.646 93.6457 39.646C94.3346 39.646 95.0541 39.4986 95.7864 39.2506L95.8095 39.2471H95.8556L96.1738 39.2936C97.6528 39.7391 99.1091 39.9689 100.538 39.9689C105.049 39.9689 109.041 37.722 112.502 33.5727C113.723 32.1102 114.429 30.5208 114.429 28.8264C114.429 27.107 113.711 25.4821 112.47 23.9734L112.439 23.9351L111.141 22.5744L109.748 21.2999ZM107.468 18.1325L106.525 20.4878L107.68 21.3615L108.854 22.3113L110.182 23.5269L111.414 24.8185C112.518 26.1608 113.07 27.4967 113.07 28.8264C113.07 30.1306 112.531 31.4286 111.453 32.7202C108.167 36.6584 104.529 38.6275 100.538 38.6275C99.2285 38.6275 97.8744 38.4122 96.4756 37.9817L95.9558 37.9057H95.7055L95.4553 37.9437C94.7751 38.1843 94.1719 38.3046 93.6457 38.3046C92.157 38.3046 91.3484 37.3359 91.2201 35.3984C91.0276 32.8912 90.9249 30.175 90.9121 27.2498L90.9506 10.6867C90.9634 9.63564 91.034 8.79355 91.1623 8.16041C91.4447 6.79281 92.3174 6.109 93.7804 6.109H93.896L100.538 6.128L102.001 6.24197C103.079 6.39392 104.009 6.7105 104.792 7.19169C107.295 8.71124 108.546 10.788 108.546 13.4219C108.546 14.1816 108.443 14.9857 108.238 15.8342C108.071 16.4546 107.814 17.2208 107.468 18.1325ZM128.808 17.4867L130.156 22.3682L130.868 24.8565L131.58 27.4398H125.843L128.461 17.5437L128.808 17.4867ZM129.556 25.2087L129.559 25.2211L129.801 26.0984H127.603L128.667 22.079L128.844 22.7208L129.556 25.2087ZM128.115 6.77381C127.73 7.17903 127.415 7.70454 127.172 8.35035L126.228 10.8766L125.381 13.4219L120.222 31.8275L119.76 33.385L119.375 34.9616C119.336 35.1515 119.317 35.3351 119.317 35.5124C119.317 36.4748 119.876 37.0256 120.992 37.1649C121.813 36.8104 122.494 36.0506 123.033 34.8856L123.687 33.423C123.957 32.8405 124.245 32.3657 124.553 31.9984C125.516 31.8845 126.613 31.8275 127.845 31.8275C129.398 31.8275 131.157 31.9161 133.12 32.0934L133.698 34.0878L134.294 35.9873L134.718 37.0889C134.91 37.4815 135.122 37.7917 135.353 38.0197C135.764 38.4249 136.316 38.6275 137.009 38.6275H137.24C138.19 38.5515 138.677 38.0197 138.703 37.032V36.88C138.703 35.9809 138.587 35.1199 138.356 34.2968L134.217 21.0386L133.043 16.8978C132.247 13.7954 131.773 10.9653 131.619 8.40733L131.465 7.4766C131.182 6.70416 130.695 6.24197 130.002 6.09001C129.86 6.06468 129.726 6.05202 129.597 6.05202C129.045 6.05202 128.551 6.29262 128.115 6.77381ZM118.917 31.4507L118.912 31.4699L118.446 33.0393L118.047 34.6728L118.042 34.6985C117.987 34.9672 117.958 35.2391 117.958 35.5124C117.958 36.2606 118.183 37.0123 118.775 37.5958C119.341 38.1548 120.088 38.4042 120.822 38.4957L121.193 38.5421L121.537 38.3938C122.778 37.8583 123.653 36.7754 124.27 35.4427L124.924 33.9801L124.927 33.9731C125.055 33.6982 125.181 33.4654 125.303 33.2699C126.059 33.2033 126.905 33.1689 127.845 33.1689C129.103 33.1689 130.511 33.2291 132.07 33.3511L132.395 34.4707L133.008 36.4241L133.468 37.62L133.494 37.6732C133.731 38.1563 134.023 38.6041 134.392 38.9682C135.106 39.6727 136.03 39.9689 137.009 39.9689H137.295L137.35 39.9645C138.059 39.9077 138.785 39.6615 139.326 39.0716C139.858 38.4913 140.044 37.7599 140.062 37.0663L140.062 37.0491V36.88C140.062 35.8663 139.932 34.8844 139.667 33.9388L139.661 33.9202L135.522 20.6606L134.357 16.5523C133.58 13.519 133.123 10.7793 132.976 8.32779L132.972 8.2591L132.786 7.13812L132.743 7.02151C132.335 5.90381 131.529 5.05073 130.296 4.78055L130.271 4.7749L130.245 4.77025C130.033 4.73218 129.816 4.71062 129.597 4.71062C128.592 4.71062 127.753 5.16644 127.113 5.86751C126.584 6.42764 126.188 7.11353 125.898 7.88205L125.896 7.88662L124.944 10.4354L124.08 13.0336L118.917 31.4507ZM178.378 16.2475L178.322 14.7325L178.187 12.1302C178.072 10.6613 177.879 9.41404 177.61 8.38834C177.34 7.33731 176.705 6.8118 175.704 6.8118C175.614 6.8118 175.531 6.81813 175.454 6.83079C174.389 6.91943 173.76 7.55258 173.567 8.73024L173.509 9.66097L173.548 10.6107L173.663 13.5738L173.76 16.537V34.5627L173.779 35.7593L173.895 36.937C174.113 38.0133 174.793 38.5768 175.935 38.6275H176.089C177.257 38.6275 177.956 38.045 178.187 36.88L178.284 35.8353L178.303 25.5593C178.739 25.6859 178.964 25.7556 178.977 25.7683C179.208 25.9828 179.436 26.1956 179.661 26.4066C183.802 30.2945 186.84 33.5957 188.775 36.3102L189.334 37.1079L189.931 37.8487C190.418 38.3679 190.932 38.6275 191.471 38.6275C191.676 38.6275 191.881 38.5895 192.087 38.5135C192.934 38.2223 193.37 37.6144 193.396 36.6901V36.5001C193.396 35.6897 193.242 34.9995 192.934 34.4297C192.318 33.2901 191.458 32.1187 190.354 30.9157L186.831 27.1738L183.27 23.4699L181.46 21.5705L181.922 21.1526L182.346 20.7727L183.058 20.1269C186.048 17.4803 188.41 14.7008 190.142 11.7883C190.707 10.826 191.156 9.81292 191.49 8.74923C191.58 8.45798 191.625 8.18573 191.625 7.93247C191.625 7.21068 191.252 6.67884 190.508 6.33694C190.213 6.19765 189.918 6.128 189.623 6.128C189.019 6.128 188.455 6.43824 187.928 7.05873L187.37 7.8375L186.889 8.65426C185.443 11.1598 183.068 13.9083 179.763 16.8998L179.736 16.9238C179.676 16.9784 179.615 17.0331 179.554 17.0878L179.092 17.3917L178.592 17.6576L178.418 17.3347L178.378 16.2492L178.378 16.2475ZM179.543 12.0265C179.423 10.5079 179.222 9.17849 178.927 8.05391C178.744 7.34521 178.401 6.67135 177.805 6.178C177.194 5.67293 176.455 5.4704 175.704 5.4704C175.569 5.4704 175.43 5.47869 175.289 5.49861C174.515 5.57226 173.784 5.85754 173.212 6.43325C172.643 7.00598 172.351 7.74703 172.225 8.51664L172.214 8.58209L172.148 9.64675L172.19 10.6643L172.305 13.6168L172.305 13.6254L172.4 16.5585V34.5733L172.421 35.8347L172.548 37.1336L172.561 37.2001C172.715 37.9598 173.063 38.6713 173.694 39.1942C174.321 39.7139 175.091 39.9328 175.874 39.9675L175.905 39.9689H176.089C176.903 39.9689 177.71 39.7623 178.366 39.2157C179.018 38.673 179.366 37.9249 179.522 37.1376L179.535 37.07L179.643 35.8974L179.657 28.2631C183.286 31.7338 185.943 34.6695 187.661 37.0779L187.664 37.082L188.241 37.9073L188.898 38.7232L188.933 38.7606C189.589 39.4588 190.439 39.9689 191.471 39.9689C191.844 39.9689 192.206 39.9002 192.549 39.7752C193.182 39.5548 193.751 39.1822 194.159 38.6146C194.566 38.0471 194.736 37.3898 194.755 36.7268L194.755 36.7084V36.5001C194.755 35.5245 194.57 34.6059 194.133 33.7985C193.453 32.5407 192.522 31.2802 191.362 30.0154L187.827 26.2608L184.26 22.5512L184.256 22.5467L183.395 21.643L183.966 21.1254L183.972 21.1201C187.046 18.3983 189.501 15.5158 191.315 12.4674L191.319 12.4604C191.935 11.4109 192.425 10.3055 192.789 9.14587L192.79 9.1398C192.912 8.74664 192.984 8.34163 192.984 7.93247C192.984 7.3324 192.825 6.74583 192.464 6.23008C192.111 5.72579 191.622 5.37024 191.088 5.12389C190.632 4.90946 190.14 4.7866 189.623 4.7866C188.486 4.7866 187.572 5.38847 186.886 6.19792L186.85 6.23967L186.225 7.11165L185.714 7.98002L185.707 7.9906C184.48 10.1188 182.493 12.4972 179.697 15.1246L179.68 14.6738L179.544 12.0441L179.543 12.0265ZM233.169 24.1537L233.15 15.7012L233.111 10.0219C233.086 9.13545 232.893 8.21739 232.534 7.26767C232.226 6.41925 231.661 5.99504 230.84 5.99504C230.711 5.99504 230.576 6.0077 230.435 6.03303C229.46 6.18498 228.889 6.76748 228.722 7.78052L228.645 9.43303L228.626 15.7012L228.683 21.9884C228.799 26.7496 229.152 30.9157 229.742 34.4867L229.877 35.3035L230.089 36.1012C230.487 37.1143 231.128 37.6208 232.014 37.6208C232.104 37.6208 232.194 37.6144 232.283 37.6018C233.4 37.4878 234.054 36.8927 234.247 35.8163L234.343 34.6387L234.285 33.461L234.112 31.2197L233.9 28.7694L236.384 28.6364L238.809 28.5794C240.632 28.5921 242.217 28.8327 243.564 29.3012L243.661 31.6945L243.795 33.9739L243.892 35.3794L244.065 36.785C244.309 38.0133 244.995 38.6275 246.125 38.6275H246.221C247.427 38.5895 248.146 37.9563 248.377 36.728C248.429 36.4495 248.454 36.1139 248.454 35.7213C248.454 35.4554 248.441 35.1578 248.416 34.8286L247.28 16.385L247.145 13.5358L246.953 10.7057C246.85 9.70529 246.619 8.71124 246.26 7.72353C245.964 6.95109 245.445 6.56487 244.7 6.56487C244.585 6.56487 244.469 6.5712 244.354 6.58387C243.417 6.7105 242.878 7.21701 242.737 8.10342C242.634 8.82521 242.583 9.547 242.583 10.2688V10.7057L243.006 21.1146V24.1537H233.169ZM234.47 9.98355C234.44 8.93289 234.213 7.8717 233.81 6.8059C233.592 6.21035 233.244 5.65236 232.703 5.24592C232.148 4.8289 231.499 4.65364 230.84 4.65364C230.627 4.65364 230.416 4.67408 230.209 4.71025C229.496 4.82378 228.824 5.11457 228.298 5.6512C227.774 6.18597 227.496 6.86068 227.38 7.56536L227.367 7.64167L227.286 9.40018L227.266 15.6971L227.324 22.0105L227.324 22.0205C227.441 26.8251 227.798 31.0554 228.4 34.7027L228.546 35.5818L228.793 36.5148L228.821 36.5859C229.078 37.2407 229.458 37.8452 230.019 38.2883C230.6 38.7471 231.288 38.9622 232.014 38.9622C232.159 38.9622 232.304 38.9525 232.448 38.9335C233.212 38.8515 233.946 38.5903 234.533 38.0564C235.128 37.5151 235.451 36.805 235.586 36.0494L235.597 35.9872L235.705 34.6602L235.643 33.3776L235.468 31.1176L235.374 30.0338L236.437 29.9769L238.82 29.9209C240.122 29.9313 241.259 30.0657 242.244 30.3098L242.303 31.7602L242.438 34.052L242.538 35.5057L242.721 36.9952L242.731 37.0429C242.889 37.8378 243.222 38.5992 243.85 39.1607C244.495 39.738 245.3 39.9689 246.125 39.9689H246.243L246.264 39.9682C247.104 39.9418 247.918 39.6997 248.57 39.1247C249.216 38.5559 249.561 37.7871 249.714 36.9728L249.715 36.968C249.785 36.5865 249.814 36.166 249.814 35.7213C249.814 35.4171 249.799 35.0879 249.772 34.7362L249.771 34.7257L248.638 16.3225L248.637 16.3036L248.503 13.4596L248.308 10.5931L248.305 10.5705C248.191 9.45694 247.934 8.35624 247.539 7.27032L247.536 7.26027L247.532 7.25028C247.319 6.69332 246.983 6.16712 246.466 5.78301C245.938 5.39013 245.323 5.22347 244.7 5.22347C244.534 5.22347 244.369 5.23258 244.204 5.25067L244.186 5.25256L244.169 5.25488C243.495 5.34603 242.835 5.59297 242.309 6.08737C241.779 6.58595 241.5 7.22679 241.394 7.89519L241.392 7.90607L241.39 7.91698C241.279 8.69993 241.223 9.48402 241.223 10.2688V10.7326L241.647 21.1414V22.8123H234.525L234.509 15.6982L234.509 15.6922L234.471 9.99822L234.47 9.98355ZM102.927 32.2755C104.755 31.701 106.013 30.4955 106.698 28.6591C105.744 27.3311 104.413 26.3046 102.703 25.5794C101.899 25.8714 100.994 26.1916 99.9907 26.54L96.756 27.4836L97.3971 31.5974C98.5995 32.2567 99.787 32.5863 100.96 32.5863C101.615 32.5863 102.271 32.4827 102.927 32.2755Z" fill="#67676A"/>
<path fill-rule="evenodd" clip-rule="evenodd" d="M161.66 8.42633C162.173 7.57791 162.687 6.96376 163.2 6.58387C163.701 6.20398 164.208 6.01403 164.721 6.01403C165.042 6.01403 165.363 6.09001 165.684 6.24197C166.531 6.64718 166.98 7.36897 167.031 8.40733L166.954 10.1928L166.742 11.9973L166.338 15.6252L166.011 19.2722C165.895 20.8297 165.838 22.2923 165.838 23.6599C165.838 24.6856 165.87 25.6606 165.934 26.585L166.319 30.2699L166.762 33.9739L166.916 35.1515L166.993 36.3482C166.98 37.5385 166.466 38.2666 165.453 38.5325C165.209 38.5958 164.978 38.6275 164.76 38.6275C163.925 38.6275 163.309 38.1463 162.911 37.1839C162.552 36.3482 162.283 35.3478 162.103 34.1828C161.371 29.4722 161.006 25.1604 161.006 21.2476C161.006 21.0171 161.007 20.7877 161.009 20.5596L161.01 20.4897L161.01 20.4631C161.021 19.5467 161.052 18.6495 161.102 17.7716L159.87 19.823L158.676 21.8934L155.394 27.9456L156.801 28.7829L159.87 23.1868L160.165 28.7829L160.759 34.386C160.95 35.6265 161.244 36.7373 161.656 37.6992C161.914 38.3208 162.287 38.8956 162.828 39.3183C163.392 39.7586 164.056 39.9689 164.76 39.9689C165.111 39.9689 165.459 39.9179 165.799 39.8298L165.802 39.8289C166.565 39.6287 167.243 39.2204 167.714 38.553C168.171 37.9042 168.344 37.1364 168.352 36.3624L168.353 36.3127L168.27 35.023L168.112 33.8167L168.11 33.8022L167.671 30.1324L167.669 30.1128L167.289 26.4707C167.228 25.5865 167.197 24.6497 167.197 23.6599C167.197 22.3319 167.253 20.9055 167.366 19.3797L167.367 19.37L167.691 15.7579L168.093 12.1516L168.094 12.1439L168.31 10.2986L168.392 8.40316L168.389 8.34198C168.317 6.88496 167.632 5.68356 166.277 5.03495L166.272 5.03266C165.788 4.80335 165.267 4.67263 164.721 4.67263C163.877 4.67263 163.113 4.97851 162.449 5.46308C162.561 5.24846 162.635 4.99471 162.635 4.70342V4.26516L162.094 3.22549L161.649 2.51963L161.561 2.42558C159.999 0.756389 157.833 0 155.269 0C154.702 0 154.114 0.0348097 153.506 0.102648C152.561 0.198884 151.805 0.692928 151.304 1.45777C150.952 1.97441 150.752 2.56418 150.752 3.20286C150.752 3.37428 150.761 3.54546 150.778 3.71622L150.785 3.78149L150.798 3.84581C150.95 4.59622 151.301 5.27388 151.892 5.79683C152.47 6.30884 153.189 6.59377 153.951 6.7266C154.887 6.89428 155.879 6.97554 156.924 6.97554C157.542 6.97554 158.176 6.94848 158.827 6.895C159.711 6.82288 160.484 6.70662 161.071 6.51065C161.206 6.46562 161.352 6.40954 161.5 6.33757C161.141 6.74605 160.807 7.21937 160.493 7.73871L160.491 7.74186L151.168 23.9235L152.216 24.1315L161.66 8.42633ZM152.439 2.19615C152.734 1.74028 153.138 1.48702 153.652 1.43637C154.216 1.37306 154.755 1.3414 155.269 1.3414C157.553 1.3414 159.318 2.00621 160.563 3.33582L160.909 3.88666L161.275 4.58945V4.70342C161.275 5.13396 160.422 5.41887 158.715 5.55817C158.099 5.60882 157.502 5.63414 156.924 5.63414C155.949 5.63414 155.038 5.55817 154.191 5.40621C153.023 5.2036 152.336 4.59578 152.131 3.58274C152.118 3.45612 152.112 3.32949 152.112 3.20286C152.112 2.84829 152.221 2.51272 152.439 2.19615Z" fill="#67676A"/>
<path fill-rule="evenodd" clip-rule="evenodd" d="M215.222 8.29321L206.451 23.5754L205.776 9.82327L205.775 9.81226C205.721 8.55772 205.527 7.44189 205.108 6.56353L205.106 6.55799C204.841 6.00881 204.407 5.59902 203.934 5.29322C203.465 4.98587 202.889 4.72962 202.242 4.72962C201.607 4.72962 201.041 4.96958 200.574 5.27121C200.112 5.56908 199.697 5.95113 199.41 6.44257C198.944 7.22846 198.774 8.24576 198.746 9.32311C198.72 10.3339 198.707 11.3076 198.707 12.2442C198.707 13.3987 198.727 14.498 198.766 15.5419L199.632 34.3577L199.633 34.3643C199.679 35.2749 199.898 36.1447 200.404 36.862C200.929 37.6073 201.682 38.0721 202.561 38.2796L202.566 38.2807C202.87 38.3513 203.18 38.3923 203.493 38.3923C204.917 38.3923 206.03 37.6064 206.838 36.4747L206.842 36.4692C207.948 34.9028 208.83 33.5377 209.477 32.3806L212.007 27.7114L214.398 23.2822C214.481 26.508 214.814 30.026 215.393 33.8333C215.425 34.0418 215.457 34.2511 215.49 34.4612C215.685 35.7227 216.008 36.8869 216.472 37.9443L216.474 37.9495C216.719 38.5019 217.072 39.0171 217.581 39.3952C218.106 39.7857 218.718 39.9689 219.356 39.9689C219.755 39.9689 220.373 39.9202 220.745 39.8C221.458 39.569 222.494 38.9685 222.901 38.0624C223.143 37.5247 223.178 36.0526 222.989 35.222C222.079 31.2251 221.624 27.5532 221.624 24.2063C221.624 22.7818 221.703 21.4195 221.861 20.1195C221.861 20.1195 223.008 11.2726 223.055 10.8182C223.102 10.3638 222.988 8.66572 222.988 8.66572L222.979 8.58606C222.828 7.20961 222.088 6.12701 220.777 5.57871C220.328 5.38724 219.851 5.28045 219.356 5.28045C218.495 5.28045 217.719 5.60193 217.049 6.10635L217.038 6.11438L217.028 6.12261C216.351 6.65362 215.756 7.40517 215.222 8.29321ZM216.391 8.97717C216.879 8.16674 217.373 7.56525 217.874 7.17269C218.361 6.80547 218.856 6.62186 219.356 6.62186C219.651 6.62186 219.946 6.68517 220.242 6.8118C221.063 7.1537 221.525 7.79318 221.628 8.73024L221.608 10.3638L221.435 11.9973L220.646 20.2029C220.543 21.3932 220.492 22.6405 220.492 23.9448C220.492 27.0092 220.787 30.3712 221.377 34.0308C221.531 35.0059 221.608 35.8606 221.608 36.5951C221.596 37.5701 221.095 38.2033 220.107 38.4945C219.9 38.5624 219.705 38.6043 219.521 38.6202C219.465 38.6251 219.41 38.6275 219.356 38.6275C218.624 38.6275 218.079 38.2223 217.72 37.4118C217.514 36.9418 217.337 36.4431 217.189 35.9157C217.042 35.3917 216.924 34.8394 216.834 34.2588C216.103 29.6241 215.737 25.439 215.737 21.7034C215.737 21.4602 215.738 21.219 215.741 20.9798L215.742 20.9593L215.742 20.9431C215.755 19.9872 215.791 19.0629 215.852 18.1705L214.582 20.2789L213.33 22.4062L210.809 27.0789L208.287 31.7325C207.671 32.8342 206.817 34.1575 205.726 35.7023C205.085 36.6014 204.34 37.0509 203.493 37.0509C203.301 37.0509 203.095 37.0256 202.877 36.975C201.696 36.6964 201.068 35.8036 200.991 34.2968L200.124 15.4923C200.086 14.4666 200.067 13.3839 200.067 12.2442C200.067 11.3198 200.079 10.3574 200.105 9.35705C200.131 8.35668 200.291 7.60957 200.586 7.11571C200.74 6.84979 200.984 6.60919 201.318 6.39392C201.652 6.17865 201.96 6.07102 202.242 6.07102C202.524 6.07102 202.839 6.18498 203.185 6.41292C203.519 6.62819 203.75 6.86878 203.878 7.13471C204.186 7.78052 204.366 8.69225 204.417 9.8699L204.956 25.1604L204.995 26.1102L205.072 27.1928C205.495 27.0029 205.835 26.6926 206.092 26.2621L206.67 25.1604L216.391 8.97717Z" fill="#67676A"/>
<path d="M1.33563 68.842V59.547H2.56518V67.7715H6.59737V59.547H7.845V67.7715H11.8591V59.547H13.0887V68.842H1.33563Z" fill="#67676A"/>
<path d="M15.762 68.842V59.547H16.9916V63.5254H18.402L21.5662 59.547H22.9766L19.3784 64.0607L23.4286 68.842H21.9821L18.402 64.6494H16.9916V68.842H15.762Z" fill="#67676A"/>
<path d="M28.6938 69.0204C28.0187 69.0204 27.3919 68.8955 26.8133 68.6457C26.2467 68.384 25.7525 68.0332 25.3306 67.5931C24.9207 67.1411 24.6013 66.6297 24.3723 66.0588C24.1432 65.476 24.0287 64.8635 24.0287 64.2212C24.0287 63.5552 24.1432 62.9367 24.3723 62.3658C24.6013 61.783 24.9268 61.2716 25.3487 60.8315C25.7706 60.3796 26.2648 60.0287 26.8314 59.7789C27.41 59.5173 28.0368 59.3864 28.7118 59.3864C29.3869 59.3864 30.0077 59.5173 30.5743 59.7789C31.1408 60.0287 31.635 60.3796 32.0569 60.8315C32.4788 61.2716 32.8043 61.783 33.0333 62.3658C33.2624 62.9367 33.3769 63.5552 33.3769 64.2212C33.3769 64.8635 33.2624 65.476 33.0333 66.0588C32.8043 66.6297 32.4788 67.1411 32.0569 67.5931C31.6471 68.0332 31.1529 68.384 30.5743 68.6457C30.0077 68.8955 29.3809 69.0204 28.6938 69.0204ZM25.2763 64.2391C25.2763 64.9289 25.427 65.5593 25.7284 66.1302C26.0418 66.6892 26.4577 67.1352 26.976 67.4682C27.4944 67.7894 28.0669 67.9499 28.6938 67.9499C29.3206 67.9499 29.8932 67.7834 30.4115 67.4504C30.9299 67.1174 31.3457 66.6654 31.6591 66.0945C31.9726 65.5117 32.1293 64.8813 32.1293 64.2034C32.1293 63.5136 31.9726 62.8832 31.6591 62.3123C31.3457 61.7414 30.9299 61.2894 30.4115 60.9564C29.8932 60.6234 29.3206 60.4569 28.6938 60.4569C28.0669 60.4569 27.4944 60.6293 26.976 60.9742C26.4697 61.3192 26.0599 61.7771 25.7465 62.348C25.4331 62.907 25.2763 63.5373 25.2763 64.2391Z" fill="#67676A"/>
<path d="M34.5292 68.8955V67.7894C34.8546 67.7894 35.1439 67.7061 35.3971 67.5396C35.6502 67.3612 35.8732 67.0638 36.0661 66.6476C36.271 66.2313 36.4338 65.6604 36.5543 64.9349C36.6749 64.1974 36.7532 63.2638 36.7894 62.1339L36.8979 59.547H43.0094V68.842H41.7799V60.6353H37.9827L37.9466 62.2409C37.8984 63.5254 37.7959 64.6018 37.6392 65.4701C37.4825 66.3264 37.2595 67.0044 36.9702 67.5039C36.6929 68.0034 36.3494 68.3603 35.9395 68.5743C35.5297 68.7884 35.0596 68.8955 34.5292 68.8955Z" fill="#67676A"/>
<path d="M45.7097 68.842V59.547H46.9392V62.8297H49.3802C50.4531 62.8297 51.2607 63.1032 51.8032 63.6503C52.3577 64.1856 52.6349 64.8932 52.6349 65.7734C52.6349 66.3443 52.5144 66.8616 52.2733 67.3255C52.0322 67.7894 51.6766 68.1581 51.2065 68.4316C50.7484 68.7052 50.1698 68.842 49.4706 68.842H45.7097ZM46.9392 67.8786H49.3079C49.8021 67.8786 50.1999 67.7834 50.5013 67.5931C50.8026 67.3909 51.0257 67.1352 51.1703 66.826C51.315 66.5048 51.3873 66.1599 51.3873 65.7912C51.3873 65.4344 51.321 65.1073 51.1884 64.81C51.0678 64.5007 50.8509 64.2569 50.5374 64.0785C50.2361 63.8882 49.8142 63.7931 49.2717 63.7931H46.9392V67.8786Z" fill="#67676A"/>
<path d="M54.5386 68.842V59.547H55.7681V63.5433H61.1564V59.547H62.386V68.842H61.1564V64.6316H55.7681V68.842H54.5386Z" fill="#67676A"/>
<path d="M64.3389 66.1659C64.3389 65.5831 64.5077 65.0835 64.8452 64.6672C65.1827 64.2391 65.6468 63.912 66.2375 63.686C66.8402 63.4481 67.5333 63.3292 68.3169 63.3292C68.7749 63.3292 69.2511 63.3649 69.7453 63.4362C70.2395 63.5076 70.6795 63.6147 71.0653 63.7574V62.9724C71.0653 62.1874 70.8302 61.563 70.3601 61.0991C69.89 60.6353 69.239 60.4033 68.4073 60.4033C67.901 60.4033 67.4007 60.4985 66.9065 60.6888C66.4243 60.8672 65.918 61.1348 65.3876 61.4916L64.9175 60.6353C65.5323 60.219 66.135 59.9097 66.7257 59.7076C67.3163 59.4935 67.9191 59.3864 68.5338 59.3864C69.6911 59.3864 70.6072 59.7135 71.2822 60.3677C71.9573 61.0218 72.2948 61.9257 72.2948 63.0794V67.379C72.2948 67.5455 72.331 67.6704 72.4033 67.7537C72.4756 67.825 72.5901 67.8667 72.7468 67.8786V68.842C72.6143 68.8538 72.4997 68.8657 72.4033 68.8776C72.3069 68.8895 72.2345 68.8895 72.1863 68.8776C71.885 68.8657 71.6559 68.7706 71.4992 68.5922C71.3425 68.4138 71.2581 68.2235 71.2461 68.0213L71.228 67.3433C70.8061 67.8786 70.2576 68.2948 69.5826 68.5922C68.9075 68.8776 68.2204 69.0204 67.5213 69.0204C66.9185 69.0204 66.3701 68.8955 65.8758 68.6457C65.3937 68.384 65.014 68.0391 64.7367 67.611C64.4715 67.1709 64.3389 66.6892 64.3389 66.1659ZM70.6494 66.8795C70.782 66.713 70.8844 66.5524 70.9568 66.3978C71.0291 66.2432 71.0653 66.1064 71.0653 65.9875V64.6316C70.6554 64.4769 70.2275 64.358 69.7815 64.2748C69.3475 64.1915 68.9075 64.1499 68.4615 64.1499C67.5815 64.1499 66.8703 64.3223 66.3279 64.6672C65.7854 65.0122 65.5142 65.482 65.5142 66.0767C65.5142 66.4216 65.6046 66.7487 65.7854 67.0579C65.9663 67.3552 66.2315 67.605 66.581 67.8072C66.9306 67.9975 67.3405 68.0926 67.8106 68.0926C68.4012 68.0926 68.9497 67.9797 69.456 67.7537C69.9743 67.5277 70.3721 67.2363 70.6494 66.8795Z" fill="#67676A"/>
<path d="M74.2462 68.842L77.0489 65.0419C76.41 64.9468 75.8916 64.6732 75.4938 64.2212C75.1081 63.7574 74.9152 63.127 74.9152 62.3301C74.9152 61.7949 75.0418 61.3192 75.2949 60.9029C75.5481 60.4866 75.9037 60.1536 76.3618 59.9038C76.8319 59.654 77.3803 59.5291 78.0072 59.5291H81.6054V68.842H80.3759V65.2381H78.2784L75.6204 68.842H74.2462ZM77.9891 64.3104H80.3759V60.4925H78.2061C77.5792 60.4925 77.079 60.6709 76.7053 61.0278C76.3316 61.3727 76.1448 61.8127 76.1448 62.348C76.1448 62.8951 76.2954 63.3589 76.5968 63.7395C76.9102 64.1201 77.3743 64.3104 77.9891 64.3104Z" fill="#67676A"/>
<path d="M88.1593 66.1659C88.1593 65.5831 88.328 65.0835 88.6656 64.6672C89.0031 64.2391 89.4672 63.912 90.0578 63.686C90.6606 63.4481 91.3537 63.3292 92.1372 63.3292C92.5953 63.3292 93.0714 63.3649 93.5657 63.4362C94.0599 63.5076 94.4999 63.6147 94.8856 63.7574V62.9724C94.8856 62.1874 94.6506 61.563 94.1804 61.0991C93.7103 60.6353 93.0594 60.4033 92.2276 60.4033C91.7213 60.4033 91.2211 60.4985 90.7269 60.6888C90.2447 60.8672 89.7384 61.1348 89.208 61.4916L88.7379 60.6353C89.3527 60.219 89.9554 59.9097 90.546 59.7076C91.1367 59.4935 91.7394 59.3864 92.3542 59.3864C93.5114 59.3864 94.4276 59.7135 95.1026 60.3677C95.7776 61.0218 96.1152 61.9257 96.1152 63.0794V67.379C96.1152 67.5455 96.1513 67.6704 96.2237 67.7537C96.296 67.825 96.4105 67.8667 96.5672 67.8786V68.842C96.4346 68.8538 96.3201 68.8657 96.2237 68.8776C96.1272 68.8895 96.0549 68.8895 96.0067 68.8776C95.7053 68.8657 95.4763 68.7706 95.3196 68.5922C95.1629 68.4138 95.0785 68.2235 95.0664 68.0213L95.0484 67.3433C94.6265 67.8786 94.078 68.2948 93.4029 68.5922C92.7279 68.8776 92.0408 69.0204 91.3416 69.0204C90.7389 69.0204 90.1904 68.8955 89.6962 68.6457C89.214 68.384 88.8343 68.0391 88.5571 67.611C88.2919 67.1709 88.1593 66.6892 88.1593 66.1659ZM94.4697 66.8795C94.6023 66.713 94.7048 66.5524 94.7771 66.3978C94.8495 66.2432 94.8856 66.1064 94.8856 65.9875V64.6316C94.4758 64.4769 94.0478 64.358 93.6018 64.2748C93.1679 64.1915 92.7279 64.1499 92.2819 64.1499C91.4019 64.1499 90.6907 64.3223 90.1482 64.6672C89.6058 65.0122 89.3346 65.482 89.3346 66.0767C89.3346 66.4216 89.425 66.7487 89.6058 67.0579C89.7866 67.3552 90.0518 67.605 90.4014 67.8072C90.751 67.9975 91.1608 68.0926 91.6309 68.0926C92.2216 68.0926 92.7701 67.9797 93.2764 67.7537C93.7947 67.5277 94.1925 67.2363 94.4697 66.8795Z" fill="#67676A"/>
<path d="M100.981 68.842V60.6353H97.6179V59.547H105.574V60.6353H102.211V68.842H100.981Z" fill="#67676A"/>
<path d="M109.598 68.842V60.6353H106.235V59.547H114.191V60.6353H110.828V68.842H109.598Z" fill="#67676A"/>
<path d="M119.933 69.0204C119.258 69.0204 118.631 68.8955 118.052 68.6457C117.474 68.384 116.973 68.0332 116.552 67.5931C116.13 67.1411 115.798 66.6238 115.557 66.041C115.328 65.4582 115.214 64.8338 115.214 64.1677C115.214 63.2995 115.412 62.5026 115.81 61.7771C116.22 61.0515 116.781 60.4747 117.492 60.0465C118.203 59.6065 119.011 59.3864 119.915 59.3864C120.843 59.3864 121.651 59.6065 122.338 60.0465C123.037 60.4866 123.585 61.0694 123.983 61.7949C124.381 62.5085 124.58 63.2935 124.58 64.1499C124.58 64.245 124.58 64.3402 124.58 64.4353C124.58 64.5186 124.574 64.584 124.562 64.6316H116.497C116.558 65.2976 116.744 65.8923 117.058 66.4156C117.383 66.9271 117.799 67.3374 118.305 67.6466C118.824 67.944 119.384 68.0926 119.987 68.0926C120.602 68.0926 121.18 67.938 121.723 67.6288C122.277 67.3196 122.663 66.9152 122.88 66.4156L123.947 66.7011C123.754 67.1411 123.459 67.5396 123.061 67.8964C122.663 68.2532 122.193 68.5327 121.651 68.7349C121.12 68.9252 120.548 69.0204 119.933 69.0204ZM116.461 63.7574H123.423C123.374 63.0794 123.188 62.4847 122.862 61.9733C122.549 61.4619 122.133 61.0634 121.614 60.778C121.108 60.4806 120.548 60.332 119.933 60.332C119.318 60.332 118.758 60.4806 118.251 60.778C117.745 61.0634 117.329 61.4678 117.004 61.9912C116.69 62.5026 116.509 63.0913 116.461 63.7574Z" fill="#67676A"/>
<path d="M130.563 69.0204C129.876 69.0204 129.243 68.8955 128.665 68.6457C128.098 68.384 127.598 68.0272 127.164 67.5753C126.742 67.1233 126.411 66.6059 126.169 66.0231C125.94 65.4403 125.826 64.8219 125.826 64.1677C125.826 63.2876 126.025 62.4847 126.423 61.7592C126.82 61.0337 127.375 60.4569 128.086 60.0287C128.797 59.6005 129.617 59.3864 130.545 59.3864C131.425 59.3864 132.203 59.5886 132.878 59.993C133.553 60.3855 134.053 60.9207 134.378 61.5987L133.185 61.9733C132.92 61.4976 132.546 61.1289 132.064 60.8672C131.594 60.5936 131.07 60.4569 130.491 60.4569C129.864 60.4569 129.292 60.6174 128.773 60.9386C128.255 61.2597 127.839 61.6998 127.526 62.2588C127.224 62.8178 127.074 63.4541 127.074 64.1677C127.074 64.8694 127.23 65.5058 127.544 66.0767C127.857 66.6476 128.273 67.1055 128.791 67.4504C129.31 67.7834 129.882 67.9499 130.509 67.9499C130.919 67.9499 131.311 67.8786 131.684 67.7358C132.07 67.5931 132.402 67.4028 132.679 67.1649C132.968 66.9152 133.161 66.6476 133.257 66.3621L134.469 66.7189C134.3 67.159 134.017 67.5574 133.619 67.9142C133.233 68.2592 132.775 68.5327 132.245 68.7349C131.727 68.9252 131.166 69.0204 130.563 69.0204Z" fill="#67676A"/>
<path d="M138.751 68.842V60.6353H135.388V59.547H143.344V60.6353H139.981V68.842H138.751Z" fill="#67676A"/>
<path d="M144.205 66.1659C144.205 65.5831 144.374 65.0835 144.711 64.6672C145.049 64.2391 145.513 63.912 146.104 63.686C146.706 63.4481 147.4 63.3292 148.183 63.3292C148.641 63.3292 149.117 63.3649 149.611 63.4362C150.106 63.5076 150.546 63.6147 150.931 63.7574V62.9724C150.931 62.1874 150.696 61.563 150.226 61.0991C149.756 60.6353 149.105 60.4033 148.273 60.4033C147.767 60.4033 147.267 60.4985 146.773 60.6888C146.29 60.8672 145.784 61.1348 145.254 61.4916L144.784 60.6353C145.398 60.219 146.001 59.9097 146.592 59.7076C147.183 59.4935 147.785 59.3864 148.4 59.3864C149.557 59.3864 150.473 59.7135 151.148 60.3677C151.823 61.0218 152.161 61.9257 152.161 63.0794V67.379C152.161 67.5455 152.197 67.6704 152.269 67.7537C152.342 67.825 152.456 67.8667 152.613 67.8786V68.842C152.48 68.8538 152.366 68.8657 152.269 68.8776C152.173 68.8895 152.101 68.8895 152.052 68.8776C151.751 68.8657 151.522 68.7706 151.365 68.5922C151.209 68.4138 151.124 68.2235 151.112 68.0213L151.094 67.3433C150.672 67.8786 150.124 68.2948 149.449 68.5922C148.774 68.8776 148.087 69.0204 147.387 69.0204C146.785 69.0204 146.236 68.8955 145.742 68.6457C145.26 68.384 144.88 68.0391 144.603 67.611C144.338 67.1709 144.205 66.6892 144.205 66.1659ZM150.516 66.8795C150.648 66.713 150.751 66.5524 150.823 66.3978C150.895 66.2432 150.931 66.1064 150.931 65.9875V64.6316C150.522 64.4769 150.094 64.358 149.648 64.2748C149.214 64.1915 148.774 64.1499 148.328 64.1499C147.448 64.1499 146.737 64.3223 146.194 64.6672C145.652 65.0122 145.38 65.482 145.38 66.0767C145.38 66.4216 145.471 66.7487 145.652 67.0579C145.832 67.3552 146.098 67.605 146.447 67.8072C146.797 67.9975 147.207 68.0926 147.677 68.0926C148.267 68.0926 148.816 67.9797 149.322 67.7537C149.841 67.5277 150.238 67.2363 150.516 66.8795Z" fill="#67676A"/>
<path d="M162.321 71.0007V68.842H154.799V59.547H156.029V67.7715H160.911V59.547H162.141V67.7715H163.424V71.0007H162.321Z" fill="#67676A"/>
<path d="M165.271 68.842V59.5648H166.5V67.2006L172.232 59.547H173.335V68.842H172.105V61.3311L166.464 68.842H165.271Z" fill="#67676A"/>
<path d="M175.319 68.842L178.122 65.0419C177.483 64.9468 176.965 64.6732 176.567 64.2212C176.181 63.7574 175.988 63.127 175.988 62.3301C175.988 61.7949 176.115 61.3192 176.368 60.9029C176.621 60.4866 176.977 60.1536 177.435 59.9038C177.905 59.654 178.454 59.5291 179.08 59.5291H182.679V68.842H181.449V65.2381H179.352L176.694 68.842H175.319ZM179.062 64.3104H181.449V60.4925H179.279C178.652 60.4925 178.152 60.6709 177.778 61.0278C177.405 61.3727 177.218 61.8127 177.218 62.348C177.218 62.8951 177.369 63.3589 177.67 63.7395C177.983 64.1201 178.447 64.3104 179.062 64.3104Z" fill="#67676A"/>
<path d="M194.006 69.0204C193.331 69.0204 192.704 68.8955 192.126 68.6457C191.559 68.384 191.065 68.0332 190.643 67.5931C190.233 67.1411 189.914 66.6297 189.685 66.0588C189.455 65.476 189.341 64.8635 189.341 64.2212C189.341 63.5552 189.455 62.9367 189.685 62.3658C189.914 61.783 190.239 61.2716 190.661 60.8315C191.083 60.3796 191.577 60.0287 192.144 59.7789C192.722 59.5173 193.349 59.3864 194.024 59.3864C194.699 59.3864 195.32 59.5173 195.887 59.7789C196.453 60.0287 196.947 60.3796 197.369 60.8315C197.791 61.2716 198.117 61.783 198.346 62.3658C198.575 62.9367 198.689 63.5552 198.689 64.2212C198.689 64.8635 198.575 65.476 198.346 66.0588C198.117 66.6297 197.791 67.1411 197.369 67.5931C196.959 68.0332 196.465 68.384 195.887 68.6457C195.32 68.8955 194.693 69.0204 194.006 69.0204ZM190.589 64.2391C190.589 64.9289 190.739 65.5593 191.041 66.1302C191.354 66.6892 191.77 67.1352 192.288 67.4682C192.807 67.7894 193.379 67.9499 194.006 67.9499C194.633 67.9499 195.205 67.7834 195.724 67.4504C196.242 67.1174 196.658 66.6654 196.971 66.0945C197.285 65.5117 197.442 64.8813 197.442 64.2034C197.442 63.5136 197.285 62.8832 196.971 62.3123C196.658 61.7414 196.242 61.2894 195.724 60.9564C195.205 60.6234 194.633 60.4569 194.006 60.4569C193.379 60.4569 192.807 60.6293 192.288 60.9742C191.782 61.3192 191.372 61.7771 191.059 62.348C190.745 62.907 190.589 63.5373 190.589 64.2391Z" fill="#67676A"/>
<path d="M200.727 68.842V59.547H201.957V63.5433H207.345V59.547H208.575V68.842H207.345V64.6316H201.957V68.842H200.727Z" fill="#67676A"/>
<path d="M210.383 68.8955V67.7894C210.709 67.7894 210.998 67.7061 211.251 67.5396C211.504 67.3612 211.727 67.0638 211.92 66.6476C212.125 66.2313 212.288 65.6604 212.408 64.9349C212.529 64.1974 212.607 63.2638 212.643 62.1339L212.752 59.547H218.863V68.842H217.634V60.6353H213.837L213.801 62.2409C213.752 63.5254 213.65 64.6018 213.493 65.4701C213.336 66.3264 213.113 67.0044 212.824 67.5039C212.547 68.0034 212.203 68.3603 211.793 68.5743C211.384 68.7884 210.913 68.8955 210.383 68.8955Z" fill="#67676A"/>
<path d="M220.822 66.1659C220.822 65.5831 220.991 65.0835 221.329 64.6672C221.666 64.2391 222.13 63.912 222.721 63.686C223.324 63.4481 224.017 63.3292 224.8 63.3292C225.258 63.3292 225.734 63.3649 226.229 63.4362C226.723 63.5076 227.163 63.6147 227.549 63.7574V62.9724C227.549 62.1874 227.314 61.563 226.843 61.0991C226.373 60.6353 225.722 60.4033 224.891 60.4033C224.384 60.4033 223.884 60.4985 223.39 60.6888C222.908 60.8672 222.401 61.1348 221.871 61.4916L221.401 60.6353C222.016 60.219 222.618 59.9097 223.209 59.7076C223.8 59.4935 224.402 59.3864 225.017 59.3864C226.174 59.3864 227.091 59.7135 227.766 60.3677C228.441 61.0218 228.778 61.9257 228.778 63.0794V67.379C228.778 67.5455 228.814 67.6704 228.887 67.7537C228.959 67.825 229.073 67.8667 229.23 67.8786V68.842C229.098 68.8538 228.983 68.8657 228.887 68.8776C228.79 68.8895 228.718 68.8895 228.67 68.8776C228.368 68.8657 228.139 68.7706 227.983 68.5922C227.826 68.4138 227.741 68.2235 227.729 68.0213L227.711 67.3433C227.289 67.8786 226.741 68.2948 226.066 68.5922C225.391 68.8776 224.704 69.0204 224.005 69.0204C223.402 69.0204 222.853 68.8955 222.359 68.6457C221.877 68.384 221.497 68.0391 221.22 67.611C220.955 67.1709 220.822 66.6892 220.822 66.1659ZM227.133 66.8795C227.265 66.713 227.368 66.5524 227.44 66.3978C227.512 66.2432 227.549 66.1064 227.549 65.9875V64.6316C227.139 64.4769 226.711 64.358 226.265 64.2748C225.831 64.1915 225.391 64.1499 224.945 64.1499C224.065 64.1499 223.354 64.3223 222.811 64.6672C222.269 65.0122 221.998 65.482 221.998 66.0767C221.998 66.4216 222.088 66.7487 222.269 67.0579C222.45 67.3552 222.715 67.605 223.064 67.8072C223.414 67.9975 223.824 68.0926 224.294 68.0926C224.885 68.0926 225.433 67.9797 225.939 67.7537C226.458 67.5277 226.855 67.2363 227.133 66.8795Z" fill="#67676A"/>
<path d="M231.417 68.842V59.5648H232.646V67.2006L238.378 59.547H239.481V68.842H238.251V61.3311L232.61 68.842H231.417ZM235.467 58.3695C234.647 58.3695 234.014 58.1792 233.568 57.7986C233.122 57.418 232.899 56.9363 232.899 56.3535H233.803C233.803 56.7103 233.936 57.0077 234.201 57.2455C234.478 57.4834 234.9 57.6024 235.467 57.6024C236.021 57.6024 236.425 57.4894 236.678 57.2634C236.944 57.0374 237.094 56.7341 237.13 56.3535H238.016C238.016 56.9363 237.793 57.418 237.347 57.7986C236.901 58.1792 236.275 58.3695 235.467 58.3695Z" fill="#67676A"/>
<path d="M242.153 68.842V59.547H243.382V63.5433H248.77V59.547H250V68.842H248.77V64.6316H243.382V68.842H242.153Z" fill="#67676A"/>
</svg>
