<svg width="260" height="81" viewBox="0 0 260 81" fill="none" xmlns="http://www.w3.org/2000/svg">
<path fill-rule="evenodd" clip-rule="evenodd" d="M23.8212 9.36169C23.8212 9.36169 28.883 6.61822 36.1716 7.16749C43.4603 7.71677 46.4433 9.90904 46.4433 9.90904C46.4433 9.90904 49.0771 0.946585 54.691 1.01296C60.305 1.07933 63.464 7.6475 62.0653 18.6541C60.6667 29.6607 51.7927 43.9648 33.7937 43.4502C15.7947 42.9356 8.82447 26.493 7.91255 18.1039C7.00062 9.71377 7.91736 2.41548 13.0763 1.21112C18.418 -0.0355624 21.7771 4.43941 23.8212 9.36169Z" fill="#A1CABF"/>
<path d="M34.3199 31.1373C34.6123 31.4143 36.8008 33.3805 39.2826 32.3715C39.2826 32.3715 39.4355 34.2732 38.0946 35.5613C38.0946 35.5613 37.0778 34.0635 34.6816 33.9231C32.2854 33.7836 30.6635 35.2737 30.6635 35.2737C29.5765 34.0501 29.6958 32.4946 29.6958 32.4946C29.6958 32.4946 32.599 32.9602 34.2853 31.1027C34.2862 31.1036 34.2968 31.1142 34.3199 31.1373Z" fill="#0A1311"/>
<path d="M34.6826 33.924C37.0788 34.0635 38.0955 35.5622 38.0955 35.5622C37.402 36.2298 36.3102 36.732 34.5902 36.7214C32.5518 36.7089 31.359 36.0586 30.6655 35.2756C30.6645 35.2746 32.2863 33.7846 34.6826 33.924Z" fill="#CB542F"/>
<path d="M47.5409 22.0844C47.6419 22.7385 47.1917 23.3494 46.5366 23.4504C45.8844 23.5485 45.2716 23.1012 45.1735 22.4461C45.0725 21.792 45.5227 21.1811 46.1778 21.0801C46.8329 20.9791 47.4428 21.4303 47.5409 22.0844Z" fill="white"/>
<path d="M52.6604 21.9834C53.2164 25.6234 50.7172 29.0229 47.0772 29.5799C43.4372 30.1359 40.0377 27.6368 39.4807 23.9968C38.9247 20.3568 41.4239 16.9572 45.0639 16.4003C48.7039 15.8433 52.1044 18.3434 52.6604 21.9834ZM44.9744 27.5002C47.2177 27.1558 48.7597 25.0607 48.4153 22.8174C48.0738 20.5742 45.9777 19.0322 43.7326 19.3765C41.4893 19.718 39.9502 21.816 40.2917 24.0593C40.6351 26.3016 42.7312 27.8417 44.9744 27.5002Z" fill="white"/>
<path d="M25.8596 27.2337C28.1028 26.8893 29.642 24.7942 29.3005 22.551C28.9561 20.3077 26.861 18.7657 24.6177 19.1101C22.3745 19.4516 20.8325 21.5476 21.1768 23.7899C21.5183 26.0351 23.6144 27.5752 25.8596 27.2337ZM29.9219 21.4842C30.4779 25.1242 27.9788 28.5237 24.3387 29.0806C20.7007 29.6367 17.2992 27.1375 16.7423 23.4975C16.1882 19.8594 18.6883 16.458 22.3254 15.901C25.9654 15.345 29.3659 17.847 29.9219 21.4842Z" fill="white"/>
<path d="M24.3926 21.4976C24.4936 22.1517 24.0434 22.7655 23.3883 22.8636C22.7342 22.9646 22.1234 22.5144 22.0253 21.8593C21.9243 21.2052 22.3745 20.5944 23.0267 20.4934C23.6817 20.3952 24.2945 20.8425 24.3926 21.4976Z" fill="white"/>
<path d="M46.5366 23.4504C47.1907 23.3494 47.6409 22.7385 47.5409 22.0844C47.4428 21.4303 46.8319 20.9801 46.1778 21.0801C45.5237 21.1802 45.0735 21.792 45.1735 22.4461C45.2717 23.1012 45.8854 23.5495 46.5366 23.4504ZM43.7325 19.3756C45.9787 19.0312 48.0738 20.5732 48.4153 22.8165C48.7597 25.0597 47.2177 27.1548 44.9744 27.4992C42.7312 27.8407 40.636 26.3016 40.2917 24.0583C39.9502 21.816 41.4893 19.7171 43.7325 19.3756Z" fill="#0B1411"/>
<path d="M21.1768 23.7899C20.8324 21.5467 22.3744 19.4516 24.6177 19.1101C26.861 18.7657 28.9561 20.3077 29.3005 22.5509C29.6419 24.7942 28.1028 26.8893 25.8596 27.2337C23.6144 27.5752 21.5183 26.0351 21.1768 23.7899ZM23.0266 20.4933C22.3744 20.5944 21.9243 21.2052 22.0253 21.8593C22.1234 22.5134 22.7342 22.9636 23.3883 22.8636C24.0425 22.7655 24.4926 22.1517 24.3926 21.4976C24.2945 20.8425 23.6817 20.3952 23.0266 20.4933Z" fill="#0B1411"/>
<path d="M21.1172 10.2073C21.1172 10.2073 14.4865 12.7583 10.1731 17.1746C10.1731 17.1746 8.60226 6.88277 12.8117 4.2076C16.4527 1.89412 19.8493 5.53412 21.1172 10.2073Z" fill="#609682"/>
<path d="M60.001 26.1467L60.0549 26.1679C59.6749 27.0942 59.2449 28.0177 58.761 28.9258L58.6754 28.8815C58.6754 28.8815 55.0123 25.2877 55.7829 24.2786C56.5524 23.2666 60.001 26.1467 60.001 26.1467Z" fill="#609682"/>
<path d="M56.614 3.92286C61.8143 6.5153 59.5556 17.9298 59.5556 17.9298C54.6968 13.5442 48.1825 10.8123 48.1825 10.8123C48.1825 10.8123 51.4137 1.33041 56.614 3.92286Z" fill="#609682"/>
<path d="M58.2878 29.5693L58.384 29.6213C57.9078 30.4668 57.3855 31.3027 56.816 32.1127L56.6967 32.03C56.6967 32.03 52.4949 28.4236 53.1914 27.4761C53.7522 26.7133 58.2878 29.5693 58.2878 29.5693Z" fill="#609682"/>
<path d="M56.0474 32.8996L56.1715 32.9958C55.3846 34.0337 54.5179 35.0322 53.5714 35.9682L53.4367 35.8335C53.4367 35.8335 49.5947 32.1521 50.0785 31.2777C50.5605 30.4024 54.8238 32.1723 56.0474 32.8996Z" fill="#609682"/>
<path d="M18.9903 30.5447C19.7022 31.3056 16.3354 34.33 15.536 35.0332C14.6327 34.0164 13.8208 32.9506 13.0936 31.8587C13.9998 31.4817 18.2689 29.7761 18.9903 30.5447Z" fill="#609682"/>
<path d="M16.1112 26.6123C16.9212 27.2097 13.3014 30.4254 12.5742 31.0594C12.0383 30.2032 11.5545 29.3336 11.1178 28.464C11.7748 28.0716 15.2936 26.012 16.1112 26.6123Z" fill="#609682"/>
<path d="M13.5496 23.1531C14.4288 23.7736 12.2038 26.315 10.7195 27.6445C10.2905 26.7335 9.91532 25.8283 9.58633 24.9385C10.0048 24.6153 12.7223 22.5711 13.5496 23.1531Z" fill="#609682"/>
<path d="M41.4633 7.96592V7.9688C41.3835 9.46656 40.9333 12.5352 39.7222 12.6593C38.5092 12.7833 37.7348 7.3166 37.7348 7.3166C39.1681 7.48206 40.4081 7.71293 41.4633 7.96592Z" fill="#609682"/>
<path d="M37.3058 7.27043C37.3058 7.27043 37.427 14.9804 35.1511 14.8977C33.3349 14.8304 33.2704 7.11556 33.2704 7.11556C34.191 7.07901 35.1587 7.09247 36.1736 7.16751C36.5632 7.1954 36.9412 7.231 37.3058 7.27043Z" fill="#609682"/>
<path d="M32.9356 7.12807L32.9385 7.16462C32.8144 8.16601 31.7688 12.212 30.6414 12.0773C29.5188 11.9397 29.5159 7.57248 29.5159 7.53112C30.5452 7.33969 31.6919 7.18963 32.9356 7.12807Z" fill="#609682"/>
<path fill-rule="evenodd" clip-rule="evenodd" d="M34.3425 28.6805C34.4854 28.6818 34.6001 28.7987 34.5988 28.9416L34.5747 31.5312C34.5734 31.6741 34.4565 31.7888 34.3136 31.7875C34.1707 31.7862 34.056 31.6693 34.0573 31.5264L34.0814 28.9368C34.0827 28.7939 34.1996 28.6792 34.3425 28.6805Z" fill="#0B1411"/>
<path fill-rule="evenodd" clip-rule="evenodd" d="M28.4742 29.7275C28.4742 29.7275 28.4742 29.7275 28.4742 29.7275L28.474 29.7276L28.4725 29.7278L28.4658 29.7289C28.4598 29.7299 28.4505 29.7315 28.438 29.7337C28.4131 29.7381 28.3756 29.7448 28.3263 29.7541C28.2277 29.7727 28.0819 29.8015 27.8949 29.8424C27.521 29.924 26.9829 30.0534 26.3297 30.2438C25.0225 30.6249 23.2579 31.2492 21.4261 32.2219C21.2999 32.2889 21.1433 32.2409 21.0763 32.1147C21.0093 31.9886 21.0573 31.8319 21.1834 31.7649C23.0543 30.7714 24.8536 30.1351 26.1849 29.7471C26.8508 29.5529 27.4005 29.4207 27.7845 29.3368C27.9766 29.2949 28.1273 29.265 28.2305 29.2456C28.2821 29.2359 28.3218 29.2287 28.3489 29.224C28.3624 29.2216 28.3728 29.2199 28.3799 29.2187L28.3882 29.2173L28.3904 29.2169L28.3913 29.2168C28.3914 29.2168 28.3914 29.2168 28.4328 29.4721L28.3914 29.2168C28.5325 29.1939 28.6653 29.2897 28.6882 29.4308C28.7111 29.5718 28.6152 29.7047 28.4742 29.7275Z" fill="#0B1411"/>
<path fill-rule="evenodd" clip-rule="evenodd" d="M27.3344 31.0523C27.3664 31.1915 27.2796 31.3303 27.1405 31.3624L27.1403 31.3625L27.1398 31.3626L27.1349 31.3638C27.1303 31.3649 27.1228 31.3668 27.1125 31.3694C27.092 31.3747 27.0603 31.3832 27.0181 31.3953C26.9335 31.4195 26.8065 31.4585 26.6408 31.5163C26.3095 31.6319 25.8236 31.8229 25.214 32.1224C23.995 32.7214 22.2805 33.7548 20.3179 35.4887C20.2108 35.5833 20.0473 35.5732 19.9527 35.4661C19.8581 35.359 19.8682 35.1955 19.9753 35.1009C21.974 33.3352 23.7273 32.2764 24.9858 31.658C25.615 31.3489 26.1202 31.1499 26.4704 31.0278C26.6454 30.9667 26.7817 30.9248 26.8753 30.8979C26.9221 30.8845 26.9583 30.8748 26.9832 30.8684C26.9957 30.8651 27.0054 30.8627 27.0123 30.8611C27.0157 30.8602 27.0184 30.8596 27.0204 30.8591L27.0228 30.8585L27.0239 30.8583C27.0241 30.8582 27.0242 30.8582 27.0822 31.1103L27.0242 30.8582C27.1634 30.8262 27.3023 30.913 27.3344 31.0523Z" fill="#0B1411"/>
<path fill-rule="evenodd" clip-rule="evenodd" d="M28.9557 31.27C29.0217 31.3968 28.9723 31.553 28.8455 31.6189C26.8464 32.6581 25.3139 33.8977 24.2815 34.8773C23.7656 35.3669 23.3752 35.791 23.1145 36.0917C22.9842 36.242 22.8864 36.3614 22.8216 36.4426C22.7892 36.4832 22.765 36.5143 22.7492 36.5349C22.7413 36.5452 22.7354 36.5529 22.7317 36.5579L22.7277 36.5633L22.7267 36.5645C22.7267 36.5645 22.7267 36.5646 22.7267 36.5646C22.7267 36.5646 22.7267 36.5645 22.5187 36.4107L22.3107 36.2568C22.2258 36.3717 22.25 36.5337 22.3649 36.6187C22.4797 36.7036 22.6417 36.6794 22.7267 36.5646M22.5187 36.4107C22.3107 36.2568 22.3108 36.2567 22.3109 36.2567L22.311 36.2565L22.3115 36.2558L22.313 36.2538L22.3184 36.2466C22.3231 36.2404 22.3298 36.2314 22.3387 36.2199C22.3565 36.1968 22.3826 36.1631 22.4171 36.1199C22.486 36.0335 22.5884 35.9087 22.7235 35.7527C22.9938 35.4409 23.3958 35.0045 23.9253 34.502C24.984 33.4973 26.5553 32.2262 28.6069 31.1597C28.7336 31.0938 28.8898 31.1432 28.9557 31.27" fill="#0B1411"/>
<path fill-rule="evenodd" clip-rule="evenodd" d="M40.3749 31.2311C40.44 31.1039 40.5959 31.0535 40.7231 31.1186L40.6053 31.3489C40.7231 31.1186 40.7232 31.1186 40.7232 31.1186L40.7235 31.1188L40.7242 31.1191L40.7263 31.1202L40.7338 31.1241C40.7401 31.1274 40.7492 31.1322 40.7609 31.1385C40.7843 31.1511 40.8184 31.1698 40.8625 31.1947C40.9507 31.2446 41.079 31.3198 41.2425 31.4223C41.5696 31.6274 42.0377 31.942 42.608 32.3836C43.7485 33.2667 45.2975 34.6573 46.9437 36.6934C47.0335 36.8045 47.0163 36.9674 46.9051 37.0572C46.794 37.1471 46.6311 37.1298 46.5413 37.0187C44.9226 35.0166 43.403 33.6536 42.2912 32.7927C41.7352 32.3622 41.2812 32.0573 40.9677 31.8607C40.8109 31.7624 40.6893 31.6913 40.6077 31.6451C40.5668 31.622 40.536 31.6051 40.5158 31.5942C40.5057 31.5888 40.4982 31.5848 40.4934 31.5824L40.4884 31.5797L40.4875 31.5792L40.4874 31.5792C40.4873 31.5792 40.4873 31.5792 40.4873 31.5792L40.4874 31.5792C40.3602 31.5141 40.3099 31.3583 40.3749 31.2311Z" fill="#0B1411"/>
<path fill-rule="evenodd" clip-rule="evenodd" d="M42.3354 31.2431C42.3901 31.1111 42.5415 31.0485 42.6735 31.1032L42.5744 31.3422C42.6735 31.1032 42.6735 31.1032 42.6736 31.1032L42.677 31.1047L42.6865 31.1086C42.6947 31.1121 42.7067 31.1171 42.7224 31.1238C42.7537 31.1372 42.7997 31.157 42.8589 31.1831C42.9773 31.2353 43.1488 31.3124 43.3625 31.4131C43.7898 31.6145 44.3865 31.9102 45.0657 32.2885C46.421 33.0434 48.1179 34.1342 49.4506 35.4679C49.5516 35.5689 49.5516 35.7327 49.4505 35.8337C49.3494 35.9347 49.1856 35.9347 49.0846 35.8336C47.8008 34.5489 46.1511 33.4854 44.8139 32.7406C44.1468 32.369 43.5608 32.0786 43.142 31.8812C42.9326 31.7825 42.7652 31.7072 42.6504 31.6567C42.593 31.6314 42.5489 31.6124 42.5192 31.5997C42.5044 31.5934 42.4932 31.5887 42.4859 31.5856L42.4777 31.5821L42.4753 31.5812" fill="#0B1411"/>
<path fill-rule="evenodd" clip-rule="evenodd" d="M40.9066 29.6937C40.9346 29.5536 41.0709 29.4627 41.211 29.4907L41.1603 29.7444C41.211 29.4907 41.211 29.4907 41.2111 29.4907L41.2144 29.4914L41.2231 29.4931C41.2307 29.4947 41.2419 29.497 41.2565 29.5001C41.2856 29.5062 41.3285 29.5154 41.384 29.5277C41.4952 29.5524 41.6573 29.5897 41.8626 29.6405C42.2733 29.7422 42.8574 29.898 43.5536 30.1153C44.945 30.5496 46.7896 31.2309 48.5943 32.2186C48.7197 32.2872 48.7657 32.4444 48.6971 32.5697C48.6285 32.6951 48.4713 32.7411 48.3459 32.6725C46.5808 31.7065 44.7706 31.0372 43.3995 30.6093C42.7145 30.3955 42.1404 30.2424 41.7383 30.1428C41.5372 30.0931 41.3792 30.0567 41.2719 30.0329C41.2182 30.021 41.1772 30.0122 41.1499 30.0064C41.1362 30.0035 41.1259 30.0014 41.1191 30L41.1117 29.9985L41.11 29.9982L41.1096 29.9981" fill="#0B1411"/>
<path d="M34.7239 24.7596C37.0547 24.8452 38.9122 25.7533 38.8766 26.7854C38.8382 27.8205 34.3411 28.9383 34.3411 28.9383C34.3411 28.9383 30.3981 27.5098 30.4365 26.4776C30.475 25.4454 32.3951 24.6769 34.7239 24.7596Z" fill="#CB542F"/>
<path d="M6.77075 45.1327C6.77075 45.1327 2.02931 50.7995 4.06094 57.1878L9.91631 56.3566L6.77075 45.1327Z" fill="#A1CABF"/>
<path d="M63.7237 45C63.7237 45 68.0246 49.2393 67.1627 56.401L60 49.2268L63.7237 45Z" fill="#A1CABF"/>
<path fill-rule="evenodd" clip-rule="evenodd" d="M13.8978 67.9923L2.66513 31.0497C2.66513 31.0497 11.6959 34.3184 17.9582 35.4545C24.2204 36.5906 31.41 39.5543 34.595 43.4531V71.9835L13.8978 67.9923Z" fill="#FFE2C4"/>
<path fill-rule="evenodd" clip-rule="evenodd" d="M55.4327 64.8699L66.7346 31.0978C66.7346 31.0978 58.331 34.026 51.5022 35.5266C44.6733 37.0273 38.007 38.904 34.5941 43.4531V71.9835L55.4327 64.8699Z" fill="#FFE2C4"/>
<path fill-rule="evenodd" clip-rule="evenodd" d="M13.7814 70.2991L2.48526 33.1478C2.48526 33.1478 11.567 36.4347 17.8649 37.5775C24.1627 38.7193 31.3927 41.7004 34.595 45.6204V74.3114L13.7814 70.2991Z" fill="#F3C8A6"/>
<path fill-rule="evenodd" clip-rule="evenodd" d="M55.5491 67.1583L66.9145 33.1968C66.9145 33.1968 58.4638 36.1413 51.5964 37.6506C44.7291 39.1599 38.0263 41.0463 34.5931 45.6213V74.3123L55.5491 67.1583Z" fill="#F3C8A6"/>
<path d="M1 35.5911L1.54254 35.1775L30.4365 44.6132C30.4365 44.6132 35 47.6866 39.5991 44.6132L68.4604 34.9245L69 35.5901L55.3115 47.6866L18.6325 49.8779L1 35.5911Z" fill="#6094E4"/>
<path fill-rule="evenodd" clip-rule="evenodd" d="M1 35.5911L12.4424 74.5018L31.334 77.8994L30.0489 45.1326L1 35.5911Z" fill="#8FA9FF"/>
<path fill-rule="evenodd" clip-rule="evenodd" d="M69 35.5911L57.5577 74.5018L38.666 77.8994L39.9511 45.1326L69 35.5911Z" fill="#8FA9FF"/>
<path fill-rule="evenodd" clip-rule="evenodd" d="M39.9511 45.1326C39.9511 45.1326 36.0745 48.5389 30.0479 45.1326L31.334 77.8994C31.334 77.8994 35.0481 79.4838 38.665 77.8994L39.9511 45.1326Z" fill="#7890E1"/>
<path d="M41.5 47C39 49 32.5 48.5 30.5 47M32 78.5C35 80 37.5 80 40 78.5" stroke="#67676A"/>
<path d="M68.3476 38.069C68.7303 37.9433 69.0969 38.2987 68.9833 38.6851L58.2523 75.177C58.1989 75.3586 58.0474 75.4945 57.8611 75.528L40.8025 78.5959C40.488 78.6525 40.2019 78.4035 40.2144 78.0842L41.4235 47.2552C41.4317 47.0466 41.5687 46.865 41.7671 46.7998L68.3476 38.069Z" stroke="#67676A"/>
<path d="M3.01671 38.6851C2.90307 38.2987 3.26972 37.9433 3.65244 38.0691L30.2329 46.7998C30.4313 46.865 30.5683 47.0466 30.5765 47.2552L31.7856 78.0842C31.7982 78.4035 31.512 78.6525 31.1975 78.5959L14.1389 75.528C13.9526 75.4945 13.8012 75.3586 13.7477 75.177L3.01671 38.6851Z" stroke="#67676A"/>
<path fill-rule="evenodd" clip-rule="evenodd" d="M9.02458 54.9079C9.02458 54.9079 10.9302 54.5578 11.1101 52.9225C11.29 51.2862 9.62098 50.6331 6.95543 51.2073C4.28987 51.7816 3.33755 55.007 4.3399 58.4123C5.34321 61.8176 8.12323 61.9783 9.94131 61.3616C11.7594 60.745 12.3471 60.0274 12.1461 58.9924C11.9268 57.8621 10.353 58.0131 10.353 58.0131C10.353 58.0131 12.0124 57.5956 11.9912 56.0873C11.9691 54.579 9.02458 54.9079 9.02458 54.9079Z" fill="#DDEBE2"/>
<path fill-rule="evenodd" clip-rule="evenodd" d="M62.1591 54.9054C62.1591 54.9054 60.2535 54.5552 60.0736 52.9199C59.8937 51.2836 61.5627 50.6305 64.2282 51.2048C66.8938 51.779 67.8461 55.0044 66.8438 58.4097C65.8404 61.815 63.0604 61.9757 61.2423 61.3591C59.4243 60.7425 58.8365 60.0248 59.0376 58.9898C59.2569 57.8595 60.8306 58.0105 60.8306 58.0105C60.8306 58.0105 59.1713 57.593 59.1924 56.0847C59.2146 54.5764 62.1591 54.9054 62.1591 54.9054Z" fill="#DDEBE2"/>
<path d="M92.8943 44.6159C93.0547 44.512 93.2058 44.4601 93.3474 44.4601C93.6306 44.4601 93.843 44.7103 93.9846 45.2106C94.0601 45.456 94.0979 45.6968 94.0979 45.9328C94.0979 46.6408 93.7911 47.3535 93.1775 48.071C91.3744 50.1761 89.274 51.2287 86.8762 51.2287C85.9227 51.2287 84.9221 51.0635 83.8742 50.7331C81.5331 49.9967 79.6026 48.5146 78.0827 46.2868C76.6856 44.2383 75.987 42.0906 75.987 39.8439C75.987 39.6551 75.9918 39.4616 76.0012 39.2633C76.1994 35.6572 77.4361 32.5892 79.7112 30.0592C80.6552 29.0114 81.7266 28.1995 82.9255 27.6237C83.879 27.1706 84.8041 26.944 85.7009 26.944C87.1075 26.944 88.4291 27.5151 89.6657 28.6574C90.4209 29.3465 91.0346 29.9837 91.5066 30.569C91.9786 31.1637 92.2146 31.6971 92.2146 32.1691C92.2146 32.575 92.0352 32.9337 91.6765 33.2453C91.4122 33.4718 91.1195 33.5851 90.7986 33.5851C90.3171 33.5851 89.7743 33.3161 89.1701 32.778L87.3576 31.0788C86.8195 30.6068 86.2484 30.3708 85.6443 30.3708C85.1911 30.3708 84.7191 30.5076 84.2282 30.7814C83.4353 31.2345 82.8689 31.6499 82.529 32.0275C80.4616 34.312 79.4279 36.8231 79.4279 39.5607C79.4279 39.9666 79.4515 40.382 79.4987 40.8068C79.7348 42.9686 80.8015 44.8141 82.6989 46.3434C83.9922 47.3913 85.2714 47.9152 86.5363 47.9152C87.622 47.9152 88.6981 47.5281 89.7649 46.7541C90.8788 45.9422 91.6529 45.39 92.0871 45.0973L92.4978 44.8566C92.7621 44.7056 92.8943 44.6253 92.8943 44.6159Z" fill="#FFD152"/>
<path d="M105.476 30.3283C105.438 30.602 105.419 31.0457 105.419 31.6593C105.419 33.0942 105.518 35.4401 105.717 38.6969C105.99 43.3603 106.226 46.0036 106.425 46.6266L108.917 46.7541C109.124 46.7635 109.323 46.7682 109.511 46.7682C110.229 46.7682 110.885 46.7257 111.48 46.6408V44.63L111.366 41.6422L111.267 38.6544L111.253 35.4118V32.1549L111.197 31.3903L111.097 30.5973L108.265 30.4557L105.476 30.3283ZM116.393 53.9191C115.591 53.7586 115.143 53.3291 115.048 52.6305L115.006 52.1491L114.963 51.611C114.916 51.1767 114.812 50.7944 114.652 50.464L111.593 50.2233L108.478 50.0392L105.419 49.9967L102.318 50.0109C102.148 51.7007 102.04 52.5928 101.992 52.6872C101.747 53.2064 101.336 53.4849 100.761 53.5226H100.633C100.114 53.5226 99.7268 53.2913 99.4719 52.8288C99.3303 52.555 99.2359 52.2057 99.1887 51.7809C98.9905 49.9779 98.8914 48.8403 98.8914 48.3683C98.8914 48.2928 98.8961 48.2362 98.9055 48.1984C98.9433 47.8869 99.0566 47.6178 99.2454 47.3913C99.6041 46.9759 100.175 46.7399 100.959 46.6833L101.95 46.6266C102.328 46.5889 102.649 46.5181 102.913 46.4142L102.601 41.3732L101.978 30.6681L102.049 29.0822C102.181 27.6095 102.932 26.8732 104.301 26.8732H104.4L108.435 27.029L112.471 27.2414C113.443 27.2886 114.047 27.8314 114.283 28.8698C114.425 29.4739 114.505 30.2292 114.524 31.1354L114.807 44.4884L114.907 45.692L115.091 46.9381C115.78 46.9853 116.497 47.0325 117.243 47.0797C117.979 47.4196 118.347 48.0426 118.347 48.9489V51.9084C118.329 53.1072 117.677 53.7775 116.393 53.9191Z" fill="#FFD152"/>
<path d="M132.118 42.8883L131.595 40.9626L131.071 39.1076L130.079 35.4684L129.825 35.5109L127.899 42.8883H132.118ZM133.251 46.3576C131.807 46.2254 130.514 46.1593 129.371 46.1593C128.465 46.1593 127.658 46.2018 126.95 46.2868C126.723 46.5605 126.511 46.9145 126.313 47.3488L125.831 48.4391C125.435 49.3076 124.935 49.874 124.33 50.1383C123.509 50.0345 123.098 49.6238 123.098 48.9064C123.098 48.7742 123.113 48.6374 123.141 48.4958L123.424 47.3205L123.764 46.1593L127.559 32.4381L128.182 30.5407L128.876 28.6574C129.055 28.1759 129.286 27.7842 129.57 27.4821C129.891 27.1234 130.254 26.944 130.66 26.944C130.754 26.944 130.853 26.9534 130.957 26.9723C131.467 27.0856 131.826 27.4302 132.033 28.006L132.147 28.6999C132.26 30.6068 132.609 32.7166 133.195 35.0294L134.058 38.1164L137.103 48.0002C137.273 48.6138 137.358 49.2557 137.358 49.9259V50.0392C137.339 50.7755 136.98 51.172 136.282 51.2287H136.112C135.602 51.2287 135.196 51.0776 134.894 50.7755C134.724 50.6056 134.568 50.3743 134.427 50.0817L134.115 49.2604L133.676 47.8444L133.251 46.3576Z" fill="#FFD152"/>
<path d="M145.663 38.0597L146.357 37.7765L146.966 37.5216C147.409 37.3328 147.778 37.2101 148.07 37.1535C149.741 36.8136 150.812 35.5487 151.285 33.3586C151.351 33.0659 151.384 32.7969 151.384 32.5514C151.384 31.3808 150.657 30.7248 149.203 30.5832C148.722 30.536 148.259 30.5124 147.815 30.5124C147.051 30.5124 146.333 30.5784 145.663 30.7106V38.0597ZM145.748 46.5558C146.89 47.2166 148.018 47.547 149.132 47.547C149.755 47.547 150.378 47.4432 151.001 47.2355C152.738 46.6597 153.932 45.4513 154.584 43.6105C153.678 42.2794 152.413 41.2505 150.789 40.5236C150.024 40.8162 149.165 41.1372 148.212 41.4865L145.748 42.4211V46.5558ZM154.343 38.3571L155.207 39.0651L156.184 39.9713L157.09 40.9342C157.902 41.9349 158.308 42.9308 158.308 43.922C158.308 44.8944 157.911 45.862 157.118 46.8249C154.702 49.7607 152.026 51.2287 149.09 51.2287C148.127 51.2287 147.131 51.0682 146.102 50.7472L145.72 50.6906H145.535L145.351 50.7189C144.851 50.8983 144.407 50.9879 144.02 50.9879C142.925 50.9879 142.331 50.2658 142.236 48.8214C142.095 46.9523 142.019 44.9274 142.01 42.7467L142.038 30.3991C142.047 29.6155 142.099 28.9878 142.194 28.5158C142.401 27.4962 143.043 26.9865 144.119 26.9865H144.204L149.09 27.0006L150.166 27.0856C150.959 27.1989 151.643 27.4349 152.219 27.7936C154.06 28.9264 154.98 30.4746 154.98 32.4381C154.98 33.0045 154.905 33.604 154.754 34.2365C154.631 34.699 154.442 35.2702 154.187 35.9499L153.493 37.7057L154.343 38.3571Z" fill="#FFD152"/>
<path d="M171.923 42.8883L171.399 40.9626L170.875 39.1076L169.884 35.4684L169.629 35.5109L167.703 42.8883H171.923ZM173.056 46.3576C171.612 46.2254 170.318 46.1593 169.176 46.1593C168.27 46.1593 167.463 46.2018 166.755 46.2868C166.528 46.5605 166.316 46.9145 166.118 47.3488L165.636 48.4391C165.24 49.3076 164.739 49.874 164.135 50.1383C163.314 50.0345 162.903 49.6238 162.903 48.9064C162.903 48.7742 162.917 48.6374 162.946 48.4958L163.229 47.3205L163.569 46.1593L167.364 32.4381L167.987 30.5407L168.681 28.6574C168.86 28.1759 169.091 27.7842 169.374 27.4821C169.695 27.1234 170.059 26.944 170.465 26.944C170.559 26.944 170.658 26.9534 170.762 26.9723C171.272 27.0856 171.631 27.4302 171.838 28.006L171.952 28.6999C172.065 30.6068 172.414 32.7166 172.999 35.0294L173.863 38.1164L176.908 48.0002C177.078 48.6138 177.162 49.2557 177.162 49.9259V50.0392C177.144 50.7755 176.785 51.172 176.086 51.2287H175.916C175.407 51.2287 175.001 51.0776 174.699 50.7755C174.529 50.6056 174.373 50.3743 174.231 50.0817L173.92 49.2604L173.481 47.8444L173.056 46.3576Z" fill="#FFD152"/>
<path d="M192.732 37.2101L191.854 38.7536L187.974 46.0036C187.568 46.7493 186.964 47.7075 186.162 48.8781C185.633 49.6522 185.038 50.0392 184.377 50.0392C184.226 50.0392 184.075 50.0203 183.924 49.9826C183.037 49.7749 182.56 49.0386 182.494 47.7736L181.857 33.6559C181.829 32.9101 181.814 32.1077 181.814 31.2487C181.814 30.5407 181.824 29.7902 181.843 28.9972C181.862 28.242 181.984 27.6709 182.211 27.2838C182.324 27.0856 182.504 26.9062 182.749 26.7458C183.004 26.5853 183.235 26.505 183.443 26.505C183.66 26.505 183.896 26.59 184.151 26.7599C184.415 26.9298 184.59 27.1139 184.675 27.3122C184.901 27.8597 185.038 28.6102 185.085 29.5636L185.468 40.821L185.51 41.6422L185.567 42.5485C185.878 42.4069 186.133 42.1709 186.331 41.8405L186.544 41.4157L186.756 41.005L194.049 28.714C194.426 28.0815 194.804 27.6237 195.182 27.3405C195.55 27.0573 195.923 26.9157 196.3 26.9157C196.536 26.9157 196.772 26.9723 197.008 27.0856C197.631 27.3877 197.962 27.9258 197.999 28.6999L197.943 30.0309L197.787 31.3761L197.49 34.0807L197.249 36.7995C197.164 37.9606 197.122 39.0509 197.122 40.0705C197.122 40.8351 197.145 41.562 197.192 42.2511L197.476 44.9982L197.801 47.7594L197.914 48.6374L197.971 49.5294C197.962 50.4168 197.584 50.9596 196.838 51.1579C196.659 51.2051 196.489 51.2287 196.329 51.2287C195.715 51.2287 195.262 50.8699 194.969 50.1525C194.705 49.5294 194.507 48.7837 194.374 47.9152C193.836 44.4035 193.567 41.1891 193.567 38.2721C193.567 37.3848 193.591 36.521 193.638 35.6808L192.732 37.2101ZM193.766 25.8537V25.9386C193.766 26.2596 193.138 26.472 191.882 26.5758C191.429 26.6136 190.99 26.6325 190.565 26.6325C189.848 26.6325 189.178 26.5758 188.555 26.4626C187.696 26.3115 187.191 25.8584 187.039 25.1032C187.03 25.0088 187.025 24.9144 187.025 24.82C187.025 24.5557 187.106 24.3055 187.266 24.0695C187.483 23.7296 187.781 23.5408 188.158 23.5031C188.573 23.4559 188.97 23.4323 189.348 23.4323C191.028 23.4323 192.326 23.9279 193.242 24.9191L193.497 25.3297L193.766 25.8537Z" fill="#FFD152"/>
<path d="M206.871 35.3976L207.211 35.1711C209.722 32.8865 211.52 30.7908 212.606 28.8839L212.96 28.2751L213.371 27.6945C213.758 27.2319 214.173 27.0006 214.617 27.0006C214.834 27.0006 215.051 27.0526 215.268 27.1564C215.816 27.4113 216.089 27.8078 216.089 28.3459C216.089 28.5347 216.056 28.7376 215.99 28.9547C215.745 29.7477 215.414 30.5029 214.999 31.2204C213.725 33.3916 211.988 35.4637 209.788 37.4367L209.264 37.9181L208.953 38.2013L208.613 38.5128L209.944 39.9289L212.563 42.6901L215.155 45.4796C215.967 46.3765 216.599 47.2497 217.052 48.0993C217.279 48.5241 217.392 49.0386 217.392 49.6427V49.7843C217.373 50.4735 217.052 50.9266 216.429 51.1437C216.278 51.2003 216.127 51.2287 215.976 51.2287C215.58 51.2287 215.202 51.0351 214.843 50.6481L214.404 50.0959L213.994 49.5011C212.493 47.3677 210.09 44.748 206.786 41.6422C206.777 41.6328 206.611 41.5809 206.29 41.4865L206.276 49.1471L206.206 49.9259C206.036 50.7944 205.521 51.2287 204.662 51.2287H204.549C203.709 51.1909 203.208 50.7708 203.048 49.9684L202.963 49.0905L202.949 48.1984V34.7604L202.878 32.5514L202.793 30.3424L202.765 29.6344L202.807 28.9406C202.949 28.0627 203.411 27.5906 204.195 27.5246C204.251 27.5151 204.313 27.5104 204.379 27.5104C205.115 27.5104 205.582 27.9022 205.781 28.6857C205.979 29.4503 206.121 30.3802 206.206 31.4753L206.305 33.4152L206.375 35.3551L206.503 35.5959L206.871 35.3976Z" fill="#FFD152"/>
<path d="M232.976 37.55L232.055 39.1359L230.2 42.6193L228.345 46.0885C227.892 46.9098 227.264 47.8963 226.462 49.048C225.99 49.7183 225.442 50.0534 224.819 50.0534C224.678 50.0534 224.527 50.0345 224.366 49.9967C223.498 49.7891 223.035 49.1235 222.979 48.0002L222.341 33.9816C222.313 33.2169 222.299 32.4098 222.299 31.5602C222.299 30.8711 222.308 30.1536 222.327 29.4079C222.346 28.6621 222.464 28.1051 222.681 27.737C222.794 27.5387 222.974 27.3594 223.219 27.1989C223.465 27.0384 223.691 26.9582 223.899 26.9582C224.107 26.9582 224.338 27.0431 224.593 27.213C224.838 27.3735 225.008 27.5529 225.103 27.7511C225.329 28.2326 225.461 28.9123 225.499 29.7902L225.896 41.1891L225.924 41.8971L225.98 42.7043C226.292 42.5627 226.542 42.3314 226.731 42.0104L227.156 41.1891L234.307 29.1247C234.665 28.5205 235.029 28.0721 235.397 27.7794C235.756 27.5057 236.119 27.3688 236.487 27.3688C236.704 27.3688 236.922 27.416 237.139 27.5104C237.743 27.7653 238.083 28.242 238.158 28.9406L238.144 30.1584L238.017 31.3761L237.436 37.4933C237.361 38.3807 237.323 39.3105 237.323 40.2829C237.323 42.5674 237.54 45.0737 237.974 47.8019C238.087 48.5288 238.144 49.166 238.144 49.7135C238.135 50.4404 237.766 50.9124 237.04 51.1295C236.841 51.1956 236.657 51.2287 236.487 51.2287C235.949 51.2287 235.548 50.9266 235.284 50.3224C234.982 49.6238 234.764 48.8403 234.632 47.9718C234.094 44.5168 233.825 41.3968 233.825 38.612C233.825 37.6963 233.854 36.8183 233.91 35.9782L232.976 37.55Z" fill="#FFD152"/>
<path d="M246.647 40.4386H253.883V38.173L253.572 30.4132V30.0876C253.572 29.5495 253.61 29.0114 253.685 28.4733C253.789 27.8125 254.185 27.4349 254.875 27.3405C254.96 27.331 255.044 27.3263 255.129 27.3263C255.677 27.3263 256.059 27.6142 256.276 28.1901C256.541 28.9264 256.711 29.6675 256.786 30.4132L256.928 32.5231L257.027 34.6471L257.862 48.3966C257.881 48.6421 257.891 48.8639 257.891 49.0622C257.891 49.3548 257.872 49.605 257.834 49.8127C257.664 50.7283 257.135 51.2003 256.248 51.2287H256.177C255.347 51.2287 254.842 50.7708 254.662 49.8551L254.535 48.8073L254.464 47.7594L254.365 46.0602L254.294 44.276C253.303 43.9267 252.137 43.7474 250.796 43.7379L249.012 43.7804L247.186 43.8795L247.341 45.7062L247.469 47.3771L247.511 48.255L247.44 49.133C247.299 49.9354 246.817 50.3791 245.996 50.464C245.93 50.4735 245.864 50.4782 245.798 50.4782C245.147 50.4782 244.675 50.1006 244.382 49.3454L244.226 48.7506L244.127 48.1418C243.693 45.4796 243.433 42.3738 243.348 38.8244L243.306 34.1374L243.32 29.4645L243.376 28.2326C243.499 27.4774 243.919 27.0431 244.637 26.9298C244.741 26.911 244.84 26.9015 244.934 26.9015C245.538 26.9015 245.954 27.2178 246.18 27.8503C246.445 28.5583 246.586 29.2427 246.605 29.9035L246.633 34.1374L246.647 40.4386Z" fill="#FFD152"/>
<path fill-rule="evenodd" clip-rule="evenodd" d="M91.22 43.8955L91.3658 43.8011C91.633 43.6282 91.9713 43.4849 92.3622 43.4849C92.8455 43.4849 93.2335 43.7159 93.4962 44.0253C93.7308 44.3017 93.8689 44.639 93.9585 44.9522C94.0586 45.2811 94.1127 45.6173 94.1127 45.9576C94.1127 46.9735 93.6686 47.9081 92.9522 48.7457C90.9921 51.0342 88.6278 52.2535 85.891 52.2535C84.8214 52.2535 83.7189 52.0681 82.5883 51.7116C80.0119 50.901 77.9044 49.2688 76.2715 46.8751C74.7733 44.6785 74.0018 42.3372 74.0018 39.8687C74.0018 39.6633 74.007 39.4539 74.0171 39.2406L74.0175 39.2332C74.2274 35.4145 75.5451 32.1257 77.9824 29.4154C79.0083 28.2766 80.184 27.3827 81.5073 26.7471L81.5111 26.7453C82.575 26.2396 83.6464 25.9688 84.7157 25.9688C86.4207 25.9688 87.9745 26.6695 89.3568 27.9455C90.1362 28.6569 90.7873 29.3306 91.2998 29.966L91.3047 29.9721C91.8375 30.6436 92.2294 31.395 92.2294 32.1939C92.2294 32.9399 91.8832 33.5594 91.347 34.0251L91.3421 34.0293C90.9131 34.3971 90.3939 34.6099 89.8133 34.6099C88.9668 34.6099 88.1917 34.1479 87.5198 33.5495L87.5103 33.5411L85.7015 31.8453C85.315 31.5099 84.974 31.3956 84.6591 31.3956C84.4137 31.3956 84.1098 31.4686 83.7345 31.6771C82.9755 32.1112 82.5197 32.4628 82.2871 32.7213L82.2853 32.7233C80.3619 34.8487 79.4427 37.1274 79.4427 39.5855C79.4427 39.9526 79.4641 40.3311 79.5074 40.7212L79.5076 40.7231C79.7113 42.589 80.6227 44.2045 82.3413 45.5896L82.3433 45.5912C82.634 45.8268 82.9196 46.0812 83.1995 46.3305C84.0476 47.0859 85.5018 47.1788 86.0018 47.1788C86.5018 47.1788 88.1257 46.4426 88.2098 46.3305C88.2938 46.2183 89.5018 45.1788 89.5018 45.1788L91.22 43.8955ZM78.5135 40.8316C78.7495 42.9934 80.1782 45.3751 82.1782 46.8751C84.1782 48.3751 86.5018 48.1788 87.5018 47.6788C88.5018 47.1788 91.5126 44.8814 91.5126 44.8814C91.7769 44.7304 91.909 44.6501 91.909 44.6407C92.0695 44.5368 92.2206 44.4849 92.3622 44.4849C92.4912 44.4849 92.6055 44.5368 92.7051 44.6407C92.7677 44.7059 92.8245 44.7916 92.8755 44.8977C92.9215 44.9936 92.9628 45.1061 92.9994 45.2354C93.0749 45.4808 93.1127 45.7216 93.1127 45.9576C93.1127 46.6656 92.8058 47.3783 92.1922 48.0957C90.3892 50.2009 88.2887 51.2535 85.891 51.2535C84.9376 51.2535 83.9369 51.0883 82.889 50.7579C80.5479 50.0215 78.6174 48.5394 77.0975 46.3116C75.7004 44.2631 75.0018 42.1154 75.0018 39.8687C75.0018 39.6799 75.0066 39.4864 75.016 39.2881C75.2142 35.682 76.4509 32.614 78.7259 30.084C79.6699 29.0362 80.7414 28.2243 81.9403 27.6485C82.8937 27.1954 83.8189 26.9688 84.7157 26.9688C86.1222 26.9688 87.4439 27.5399 88.6805 28.6822C89.4357 29.3713 90.0494 30.0085 90.5214 30.5938C90.9933 31.1885 91.2294 31.7219 91.2294 32.1939C91.2294 32.5998 91.05 32.9585 90.6913 33.2701C90.427 33.4966 90.1343 33.6099 89.8133 33.6099C89.3319 33.6099 88.7891 33.3409 88.1849 32.8028L86.3724 31.1036C85.8344 30.6316 85.2632 30.3956 84.6591 30.3956C84.2059 30.3956 83.7339 30.5324 83.243 30.8062C82.4501 31.2593 81.8837 31.6747 81.5438 32.0523C79.4765 34.3368 78.4427 36.8479 78.4427 39.5855C78.4427 39.9914 78.4663 40.4068 78.5135 40.8316Z" fill="#67676A"/>
<path d="M185.025 48.1246C184.496 48.8987 183.901 49.2857 183.24 49.2857C183.089 49.2857 182.938 49.2669 182.787 49.2291C181.9 49.0214 181.423 48.2851 181.357 47.0201L180.72 32.9024C180.692 32.1567 180.677 31.3543 180.677 30.4952C180.677 29.7872 180.687 29.0367 180.706 28.2437C180.725 27.4885 180.847 26.9174 181.074 26.5304C181.187 26.3321 181.367 26.1528 181.612 25.9923C181.867 25.8318 182.098 25.7516 182.306 25.7516C182.523 25.7516 182.759 25.8365 183.014 26.0064C183.278 26.1764 183.453 26.3604 183.538 26.5587C183.764 27.1062 183.901 27.8567 183.948 28.8102L184.331 40.0675L184.373 40.8888L184.43 41.795C184.741 41.6534 184.996 41.4174 185.194 41.087L185.965 39.6686L185.194 39.5135L184.948 28.7685L184.947 28.7607C184.897 27.7539 184.751 26.8744 184.462 26.1763L184.457 26.1648C184.266 25.7198 183.919 25.4005 183.562 25.1699C183.209 24.9358 182.783 24.7516 182.306 24.7516C181.843 24.7516 181.426 24.9279 181.079 25.146L181.072 25.1506L181.065 25.1553C180.725 25.3775 180.419 25.6625 180.209 26.0292C179.858 26.6296 179.727 27.3981 179.706 28.2188L179.706 28.2199C179.687 29.0199 179.677 29.7784 179.677 30.4952C179.677 31.3651 179.692 32.1803 179.721 32.9404L180.358 47.0652L180.358 47.0723C180.397 47.8067 180.558 48.4983 180.925 49.0646C181.308 49.6569 181.871 50.0398 182.552 50.201C182.778 50.2568 183.008 50.2857 183.24 50.2857C184.356 50.2857 185.219 49.6131 185.849 48.69L185.755 47.0335C185.533 47.374 185.29 47.7377 185.025 48.1246Z" fill="#67676A"/>
<path d="M186.837 45.2501C186.565 45.7494 186.205 46.3439 185.755 47.0335L185.849 48.69C185.849 48.69 187.669 46.488 187.827 46.0133C187.986 45.5385 189.338 43.1361 189.338 43.1361L188.302 42.512L186.837 45.2501Z" fill="#67676A"/>
<path fill-rule="evenodd" clip-rule="evenodd" d="M91.3658 43.8011L91.22 43.8955L89.5018 45.1788C89.5018 45.1788 88.2938 46.2183 88.2098 46.3305C88.1257 46.4426 86.5018 47.1788 86.0018 47.1788C85.5018 47.1788 84.0476 47.0859 83.1995 46.3305C82.9196 46.0812 82.634 45.8268 82.3433 45.5912L82.3413 45.5896C80.6227 44.2045 79.7113 42.589 79.5076 40.7231L79.5074 40.7212C79.4641 40.3311 79.4427 39.9526 79.4427 39.5855C79.4427 37.1274 80.3619 34.8487 82.2853 32.7233L82.2871 32.7213C82.5197 32.4628 82.9755 32.1112 83.7345 31.6771C84.1098 31.4686 84.4137 31.3956 84.6591 31.3956C84.974 31.3956 85.315 31.5099 85.7015 31.8453L87.5103 33.5411L87.5198 33.5495C88.1917 34.1479 88.9668 34.6099 89.8133 34.6099C90.3939 34.6099 90.9131 34.3971 91.3421 34.0293L91.347 34.0251C91.8832 33.5594 92.2294 32.9399 92.2294 32.1939C92.2294 31.395 91.8375 30.6436 91.3047 29.9721L91.2998 29.966C90.7873 29.3306 90.1362 28.6569 89.3568 27.9455C87.9745 26.6695 86.4207 25.9688 84.7157 25.9688C83.6464 25.9688 82.575 26.2396 81.5111 26.7453L81.5073 26.7471C80.184 27.3827 79.0083 28.2766 77.9824 29.4154C75.5451 32.1257 74.2274 35.4145 74.0175 39.2332L74.0171 39.2406C74.007 39.4539 74.0018 39.6633 74.0018 39.8687C74.0018 42.3372 74.7733 44.6785 76.2715 46.8751C77.9044 49.2688 80.0119 50.901 82.5883 51.7116C83.7189 52.0681 84.8214 52.2535 85.891 52.2535C88.6278 52.2535 90.9921 51.0342 92.9522 48.7457C93.6686 47.9081 94.1127 46.9735 94.1127 45.9576C94.1127 45.6173 94.0586 45.2811 93.9585 44.9522C93.8689 44.639 93.7308 44.3017 93.4962 44.0253C93.2335 43.7159 92.8455 43.4849 92.3622 43.4849C91.9713 43.4849 91.633 43.6282 91.3658 43.8011ZM78.5135 40.8316C78.7495 42.9934 80.1782 45.3751 82.1782 46.8751L87.5018 47.6788C88.5018 47.1788 91.5126 44.8814 91.5126 44.8814C91.7769 44.7304 91.909 44.6501 91.909 44.6407C92.0695 44.5368 92.2206 44.4849 92.3622 44.4849C92.4912 44.4849 92.6055 44.5368 92.7051 44.6407C92.7677 44.7059 92.8245 44.7916 92.8755 44.8977C92.9215 44.9936 92.9628 45.1061 92.9994 45.2354C93.0749 45.4808 93.1127 45.7216 93.1127 45.9576C93.1127 46.6656 92.8058 47.3783 92.1922 48.0957C90.3892 50.2009 88.2887 51.2535 85.891 51.2535C84.9376 51.2535 83.9369 51.0883 82.889 50.7579C80.5479 50.0215 78.6174 48.5394 77.0975 46.3116C75.7004 44.2631 75.0018 42.1154 75.0018 39.8687C75.0018 39.6799 75.0066 39.4864 75.016 39.2881C75.2142 35.682 76.4509 32.614 78.7259 30.084C79.6699 29.0362 80.7414 28.2243 81.9403 27.6485C82.8937 27.1954 83.8189 26.9688 84.7157 26.9688C86.1222 26.9688 87.4439 27.5399 88.6805 28.6822C89.4357 29.3713 90.0494 30.0085 90.5214 30.5938C90.9933 31.1885 91.2294 31.7219 91.2294 32.1939C91.2294 32.5998 91.05 32.9585 90.6913 33.2701C90.427 33.4966 90.1343 33.6099 89.8133 33.6099C89.3319 33.6099 88.7891 33.3409 88.1849 32.8028L86.3724 31.1036C85.8344 30.6316 85.2632 30.3956 84.6591 30.3956C84.2059 30.3956 83.7339 30.5324 83.243 30.8062C82.4501 31.2593 81.8837 31.6747 81.5438 32.0523C79.4765 34.3368 78.4427 36.8479 78.4427 39.5855C78.4427 39.9914 78.4663 40.4068 78.5135 40.8316ZM110.116 31.4015V34.6583L110.13 37.901L110.23 40.8888L110.343 43.8766V45.8873C109.748 45.9723 109.092 46.0147 108.375 46.0147C108.186 46.0147 107.987 46.01 107.78 46.0006L105.288 45.8731C105.089 45.2501 104.853 42.6069 104.58 37.9435C104.381 34.6866 104.282 32.3407 104.282 30.9059C104.282 30.2922 104.301 29.8486 104.339 29.5748L107.128 29.7022L109.96 29.8438L110.06 30.6368L110.116 31.4015ZM109.23 40.9219L109.343 43.8955V44.9848C109.038 45.0046 108.715 45.0147 108.375 45.0147C108.203 45.0147 108.021 45.0105 107.828 45.0017L107.825 45.0016L106.126 44.9147L106.123 44.8953C106.072 44.5071 106.016 43.9885 105.958 43.3345C105.841 42.0278 105.715 40.2128 105.578 37.8848L105.578 37.8827C105.38 34.6273 105.282 32.3078 105.282 30.9059C105.282 30.804 105.283 30.7085 105.284 30.619L107.079 30.701L107.083 30.7012L109.069 30.8005L109.116 31.4385L109.116 34.6583L109.13 37.9197L109.23 40.9219ZM115.06 54.1462L115.212 54.1766L115.366 54.1596C116.151 54.073 116.885 53.8091 117.425 53.2537C117.974 52.6884 118.198 51.9501 118.21 51.1706L118.21 51.1628V48.1954C118.21 47.608 118.091 47.0397 117.795 46.5397C117.496 46.0326 117.054 45.6627 116.525 45.4183L116.355 45.3401L116.169 45.3283C115.71 45.2992 115.262 45.2702 114.825 45.2412L114.764 44.8243L114.67 43.6832L114.387 30.3607C114.367 29.4151 114.283 28.5861 114.121 27.8914C113.971 27.2341 113.681 26.6326 113.185 26.1865C112.68 25.7329 112.052 25.522 111.385 25.4892L111.382 25.4891L107.351 25.2768L103.282 25.1197H103.164C102.299 25.1197 101.487 25.3561 100.874 25.9582C100.271 26.5492 99.9949 27.3615 99.9161 28.2393L99.9141 28.2617L99.84 29.9214L100.466 40.6778L100.726 44.8765L99.7572 44.9318L99.7497 44.9324C98.8164 44.9999 97.947 45.2948 97.3516 45.9842L97.3458 45.9908L97.3402 45.9976C97.0297 46.3702 96.8466 46.8072 96.7816 47.2802C96.7572 47.4119 96.7544 47.5345 96.7544 47.6148C96.7544 48.1537 96.8616 49.3526 97.0578 51.1367L97.0579 51.1379C97.1138 51.6407 97.2317 52.1188 97.4468 52.5347L97.4528 52.5464L97.4592 52.5579C97.6573 52.9175 97.9335 53.233 98.3035 53.4541C98.6743 53.6757 99.0837 53.7691 99.4961 53.7691H99.6563L99.689 53.767C100.125 53.7384 100.55 53.6139 100.925 53.3596C101.3 53.1051 101.573 52.7565 101.76 52.3611C101.821 52.2316 101.847 52.1032 101.853 52.0733L101.854 52.0691C101.867 52.0075 101.879 51.9386 101.89 51.8693C101.912 51.7286 101.937 51.5417 101.965 51.3146C101.999 51.0347 102.039 50.6806 102.084 50.2533L104.278 50.2433L107.304 50.2853L110.387 50.4675L112.784 50.6561C112.803 50.7479 112.819 50.8463 112.831 50.9518L112.872 51.4743L112.917 51.988L112.92 52.011C112.993 52.5526 113.217 53.053 113.627 53.4453C114.025 53.8272 114.531 54.0403 115.06 54.1462ZM116.106 46.3263C115.36 46.2791 114.643 46.2319 113.954 46.1847L113.77 44.9386L113.67 43.735L113.387 30.3819C113.368 29.4757 113.288 28.7205 113.147 28.1163C112.911 27.0779 112.306 26.5351 111.334 26.4879L107.298 26.2755L103.263 26.1197H103.164C101.795 26.1197 101.044 26.856 100.912 28.3287L100.841 29.9146L101.464 40.6197L101.776 45.6607C101.512 45.7646 101.191 45.8354 100.813 45.8731L99.8218 45.9298C99.0383 45.9864 98.4671 46.2224 98.1084 46.6378C97.9196 46.8643 97.8063 47.1334 97.7686 47.4449C97.7591 47.4827 97.7544 47.5393 97.7544 47.6148C97.7544 48.0868 97.8535 49.2244 98.0518 51.0274C98.099 51.4522 98.1934 51.8015 98.335 52.0753C98.5899 52.5379 98.9769 52.7691 99.4961 52.7691H99.6236C100.199 52.7314 100.61 52.4529 100.855 51.9337C100.903 51.8393 101.011 50.9472 101.181 49.2574L104.282 49.2433L107.341 49.2857L110.456 49.4698L113.515 49.7105C113.675 50.0409 113.779 50.4233 113.826 50.8575L113.869 51.3956L113.911 51.877C114.006 52.5756 114.454 53.0051 115.256 53.1656C116.54 53.024 117.192 52.3538 117.21 51.1549V48.1954C117.21 47.2892 116.842 46.6661 116.106 46.3263ZM128.942 34.7149L129.934 38.3541L130.458 40.2091L130.981 42.1349H126.762L128.688 34.7574L128.942 34.7149ZM129.493 40.4716L129.495 40.4809L129.673 41.1349H128.056L128.838 38.1385L128.969 38.6169L129.493 40.4716ZM128.433 26.7286C128.149 27.0307 127.918 27.4225 127.739 27.9039L127.045 29.7872L126.422 31.6847L122.627 45.4059L122.287 46.567L122.004 47.7423C121.976 47.8839 121.961 48.0208 121.961 48.1529C121.961 48.8704 122.372 49.281 123.193 49.3849C123.798 49.1205 124.298 48.5541 124.694 47.6856L125.176 46.5953C125.374 46.1611 125.586 45.8071 125.813 45.5333C126.521 45.4483 127.328 45.4059 128.234 45.4059C129.377 45.4059 130.67 45.4719 132.114 45.6041L132.539 47.0909L132.978 48.5069L133.29 49.3282C133.431 49.6209 133.587 49.8521 133.757 50.0221C134.059 50.3241 134.465 50.4752 134.975 50.4752H135.145C135.843 50.4185 136.202 50.0221 136.221 49.2857V49.1725C136.221 48.5022 136.136 47.8603 135.966 47.2467L132.921 37.3629L132.058 34.276C131.472 31.9631 131.123 29.8533 131.01 27.9464L130.897 27.2525C130.689 26.6767 130.33 26.3321 129.82 26.2188C129.717 26.2 129.617 26.1905 129.523 26.1905C129.117 26.1905 128.754 26.3699 128.433 26.7286ZM125.464 31.3952L121.665 45.1323L121.321 46.3093L121.027 47.527L121.023 47.5462C120.983 47.7465 120.961 47.9492 120.961 48.1529C120.961 48.7107 121.127 49.2711 121.562 49.7061C121.979 50.1228 122.528 50.3087 123.068 50.377L123.342 50.4116L123.594 50.301C124.507 49.9018 125.151 49.0945 125.604 48.101L126.088 47.0052C126.182 46.8003 126.274 46.6268 126.364 46.4812C126.92 46.4315 127.543 46.4059 128.234 46.4059C129.16 46.4059 130.195 46.4507 131.342 46.5417L131.581 47.3764L132.032 48.8326L132.37 49.7241L132.389 49.7638C132.564 50.124 132.778 50.4578 133.05 50.7292C133.575 51.2544 134.255 51.4752 134.975 51.4752H135.185L135.225 51.4719C135.747 51.4296 136.281 51.246 136.679 50.8063C137.07 50.3737 137.207 49.8284 137.22 49.3114L137.221 49.2986V49.1725C137.221 48.4168 137.125 47.6848 136.93 46.9798L136.926 46.966L133.881 37.0809L133.024 34.0186C132.452 31.7572 132.117 29.7148 132.008 27.8871L132.005 27.8359L131.869 27.0002L131.837 26.9133C131.537 26.08 130.944 25.4441 130.037 25.2427L130.018 25.2384L129.999 25.235C129.843 25.2066 129.684 25.1905 129.523 25.1905C128.784 25.1905 128.166 25.5304 127.695 26.0531C127.306 26.4706 127.015 26.9819 126.802 27.5548L126.1 29.4583L125.464 31.3952ZM149.172 32.3848L149.17 32.3944C148.957 33.3828 148.626 34.0792 148.227 34.5501C147.842 35.005 147.358 35.2923 146.738 35.4192C146.373 35.4904 145.964 35.6283 145.526 35.8106V30.8173C145.893 30.7786 146.277 30.7589 146.678 30.7589C147.087 30.7589 147.517 30.7807 147.969 30.825C148.582 30.8847 148.888 31.0408 149.031 31.1703C149.144 31.2718 149.247 31.4354 149.247 31.7979C149.247 31.9551 149.225 32.1491 149.172 32.3848ZM145.829 36.7682C146.272 36.5794 146.641 36.4566 146.933 36.4C148.604 36.0602 149.676 34.7952 150.148 32.6051C150.214 32.3124 150.247 32.0434 150.247 31.7979C150.247 30.6274 149.52 29.9713 148.066 29.8297C147.585 29.7825 147.122 29.7589 146.678 29.7589C145.914 29.7589 145.196 29.825 144.526 29.9571V37.3062L145.22 37.023L145.829 36.7682ZM153.447 42.857C152.796 44.6978 151.601 45.9062 149.864 46.482C149.241 46.6897 148.618 46.7935 147.995 46.7935C146.881 46.7935 145.753 46.4631 144.611 45.8023L144.002 41.6788L147.075 40.733C148.028 40.3837 148.887 40.0628 149.652 39.7701C151.276 40.497 152.541 41.526 153.447 42.857ZM154.728 37.5576L153.827 36.8199L153.564 36.6178L153.984 35.5557L153.987 35.5475C154.248 34.8509 154.449 34.2459 154.583 33.7394L154.587 33.7274L154.589 33.7153C154.756 33.0177 154.843 32.3398 154.843 31.6847C154.843 29.3349 153.708 27.4829 151.609 26.1901C150.896 25.7466 150.075 25.4715 149.17 25.3422L149.139 25.3377L147.994 25.2473L143.07 25.233H142.983C142.29 25.233 141.618 25.3983 141.072 25.8322C140.522 26.2693 140.215 26.886 140.077 27.5627L140.076 27.5662C139.964 28.1245 139.911 28.8215 139.901 29.6336L139.873 41.991L139.873 41.9976C139.882 44.1962 139.958 46.2433 140.102 48.1381C140.156 48.9607 140.36 49.7402 140.844 50.3285C141.365 50.9608 142.094 51.2345 142.883 51.2345C143.39 51.2345 143.919 51.1246 144.458 50.9397L144.475 50.9371H144.509L144.743 50.9718C145.831 51.3039 146.902 51.4752 147.953 51.4752C151.271 51.4752 154.207 49.8001 156.754 46.7069C157.651 45.6166 158.171 44.4318 158.171 43.1685C158.171 41.8868 157.642 40.6755 156.73 39.5507L156.707 39.5222L155.752 38.5078L154.728 37.5576ZM153.05 35.1964L152.357 36.9522L153.206 37.6036L154.07 38.3116L155.047 39.2179L155.953 40.1808C156.765 41.1814 157.171 42.1773 157.171 43.1685C157.171 44.1409 156.774 45.1085 155.982 46.0714C153.565 49.0073 150.889 50.4752 147.953 50.4752C146.99 50.4752 145.994 50.3147 144.965 49.9937L144.583 49.9371H144.399L144.214 49.9654C143.714 50.1448 143.27 50.2345 142.883 50.2345C141.788 50.2345 141.194 49.5123 141.099 48.068C140.958 46.1988 140.882 44.1739 140.873 41.9933L140.901 29.6456C140.91 28.8621 140.962 28.2343 141.057 27.7623C141.264 26.7428 141.906 26.233 142.983 26.233H143.067L147.953 26.2472L149.029 26.3321C149.822 26.4454 150.506 26.6814 151.082 27.0401C152.923 28.1729 153.843 29.7211 153.843 31.6847C153.843 32.2511 153.768 32.8505 153.617 33.483C153.494 33.9456 153.305 34.5167 153.05 35.1964ZM168.747 34.7149L169.738 38.3541L170.262 40.2091L170.786 42.1349H166.567L168.492 34.7574L168.747 34.7149ZM169.297 40.4716L169.3 40.4809L169.478 41.1349H167.861L168.643 38.1385L168.774 38.6169L169.297 40.4716ZM168.237 26.7286C167.954 27.0307 167.723 27.4225 167.544 27.9039L166.85 29.7872L166.227 31.6847L162.432 45.4059L162.092 46.567L161.809 47.7423C161.78 47.8839 161.766 48.0208 161.766 48.1529C161.766 48.8704 162.177 49.281 162.998 49.3849C163.602 49.1205 164.103 48.5541 164.499 47.6856L164.981 46.5953C165.179 46.1611 165.391 45.8071 165.618 45.5333C166.326 45.4483 167.133 45.4059 168.039 45.4059C169.181 45.4059 170.475 45.4719 171.919 45.6041L172.344 47.0909L172.783 48.5069L173.094 49.3282C173.236 49.6209 173.392 49.8521 173.562 50.0221C173.864 50.3241 174.27 50.4752 174.779 50.4752H174.949C175.648 50.4185 176.007 50.0221 176.025 49.2857V49.1725C176.025 48.5022 175.941 47.8603 175.771 47.2467L172.726 37.3629L171.862 34.276C171.277 31.9631 170.928 29.8533 170.815 27.9464L170.701 27.2525C170.494 26.6767 170.135 26.3321 169.625 26.2188C169.521 26.2 169.422 26.1905 169.328 26.1905C168.922 26.1905 168.558 26.3699 168.237 26.7286ZM161.472 45.125L161.468 45.1393L161.125 46.3093L160.832 47.527L160.828 47.5462C160.788 47.7465 160.766 47.9492 160.766 48.1529C160.766 48.7107 160.932 49.2711 161.367 49.7061C161.784 50.1228 162.333 50.3087 162.873 50.377L163.146 50.4116L163.399 50.301C164.311 49.9018 164.955 49.0945 165.409 48.101L165.89 47.0106L165.893 47.0054C165.986 46.8004 166.079 46.6269 166.169 46.4812C166.725 46.4315 167.348 46.4059 168.039 46.4059C168.964 46.4059 170 46.4507 171.147 46.5417L171.385 47.3764L171.837 48.8326L172.175 49.7241L172.194 49.7638C172.368 50.124 172.583 50.4578 172.855 50.7292C173.38 51.2544 174.059 51.4752 174.779 51.4752H174.99L175.03 51.4719C175.552 51.4296 176.086 51.246 176.484 50.8063C176.875 50.3737 177.012 49.8284 177.025 49.3114L177.025 49.2986V49.1725C177.025 48.4168 176.93 47.6848 176.734 46.9798L176.731 46.966L173.686 37.0811L172.829 34.0184C172.257 31.7571 171.921 29.7147 171.813 27.8871L171.81 27.8359L171.673 27.0002L171.642 26.9133C171.341 26.08 170.748 25.4441 169.842 25.2427L169.823 25.2384L169.804 25.235C169.648 25.2066 169.489 25.1905 169.328 25.1905C168.588 25.1905 167.971 25.5303 167.5 26.053C167.111 26.4705 166.82 26.9819 166.606 27.5548L166.605 27.5582L165.905 29.4583L165.269 31.3952L161.472 45.125ZM205.209 33.7912L205.168 32.6617L205.069 30.7218C204.984 29.6267 204.842 28.6969 204.644 27.9322C204.445 27.1487 203.978 26.7569 203.242 26.7569C203.176 26.7569 203.114 26.7616 203.058 26.7711C202.274 26.8372 201.812 27.3092 201.67 28.1871L201.628 28.881L201.656 29.589L201.741 31.7979L201.812 34.0069V47.4449L201.826 48.337L201.911 49.2149C202.071 50.0173 202.572 50.4374 203.412 50.4752H203.525C204.384 50.4752 204.899 50.0409 205.069 49.1725L205.139 48.3936L205.153 40.733C205.474 40.8274 205.64 40.8793 205.649 40.8888C205.819 41.0487 205.987 41.2073 206.152 41.3647C209.198 44.2631 211.433 46.724 212.857 48.7477L213.267 49.3424L213.706 49.8946C214.065 50.2817 214.443 50.4752 214.839 50.4752C214.99 50.4752 215.141 50.4469 215.292 50.3902C215.915 50.1731 216.236 49.72 216.255 49.0309V48.8893C216.255 48.2851 216.142 47.7706 215.915 47.3458C215.462 46.4962 214.83 45.623 214.018 44.7262L211.426 41.9366L208.807 39.1754L207.476 37.7594L207.816 37.4478L208.127 37.1646L208.651 36.6832C210.851 34.7102 212.588 32.6381 213.862 30.4669C214.277 29.7494 214.608 28.9942 214.853 28.2013C214.919 27.9841 214.952 27.7812 214.952 27.5924C214.952 27.0543 214.679 26.6578 214.131 26.4029C213.914 26.2991 213.697 26.2472 213.48 26.2472C213.036 26.2472 212.621 26.4784 212.234 26.941L211.823 27.5216L211.469 28.1305C210.406 29.9983 208.658 32.0473 206.227 34.2775L206.208 34.2953C206.163 34.336 206.119 34.3768 206.074 34.4176L205.734 34.6441L205.366 34.8424L205.238 34.6017L205.209 33.7924L205.209 33.7912ZM206.066 30.6444C205.978 29.5123 205.829 28.5213 205.612 27.6829C205.478 27.1546 205.226 26.6522 204.787 26.2844C204.338 25.9079 203.794 25.7569 203.242 25.7569C203.143 25.7569 203.04 25.7631 202.937 25.778C202.368 25.8329 201.83 26.0455 201.409 26.4747C200.991 26.9017 200.775 27.4541 200.683 28.0279L200.675 28.0767L200.626 28.8704L200.657 29.6289L200.741 31.83L200.742 31.8364L200.812 34.023V47.4529L200.827 48.3932L200.92 49.3615L200.93 49.4111C201.044 49.9775 201.299 50.5078 201.763 50.8977C202.225 51.2851 202.791 51.4483 203.367 51.4742L203.389 51.4752H203.525C204.124 51.4752 204.717 51.3212 205.2 50.9137C205.68 50.5091 205.935 49.9514 206.05 49.3645L206.06 49.3141L206.139 48.4399L206.15 42.7486C208.819 45.336 210.773 47.5246 212.037 49.32L212.039 49.3231L212.464 49.9383L212.947 50.5466L212.973 50.5744C213.455 51.0949 214.081 51.4752 214.839 51.4752C215.114 51.4752 215.38 51.424 215.632 51.3308C216.098 51.1665 216.516 50.8887 216.816 50.4656C217.116 50.0425 217.241 49.5525 217.255 49.0582L217.255 49.0445V48.8893C217.255 48.162 217.119 47.4772 216.798 46.8752C216.297 45.9375 215.613 44.9979 214.759 44.055L212.159 41.256L209.535 38.4905L209.532 38.4871L208.899 37.8134L209.319 37.4276L209.323 37.4236C211.584 35.3946 213.391 33.2457 214.724 30.9731L214.727 30.9679C215.18 30.1855 215.541 29.3614 215.808 28.497L215.81 28.4924C215.899 28.1993 215.952 27.8974 215.952 27.5924C215.952 27.145 215.835 26.7077 215.57 26.3233C215.31 25.9473 214.951 25.6823 214.558 25.4986C214.222 25.3388 213.86 25.2472 213.48 25.2472C212.643 25.2472 211.972 25.6958 211.467 26.2993L211.441 26.3304L210.981 26.9805L210.604 27.6278L210.6 27.6357C209.697 29.2223 208.236 30.9953 206.179 32.9541L206.167 32.618L206.067 30.6576L206.066 30.6444ZM245.51 39.6852L245.496 33.3839L245.468 29.15C245.449 28.4892 245.307 27.8048 245.043 27.0968C244.817 26.4643 244.401 26.148 243.797 26.148C243.703 26.148 243.604 26.1575 243.5 26.1764C242.782 26.2896 242.362 26.7239 242.239 27.4791L242.183 28.711L242.169 33.3839L242.211 38.0709C242.296 41.6204 242.556 44.7262 242.99 47.3883L243.089 47.9972L243.245 48.5919C243.537 49.3471 244.009 49.7247 244.661 49.7247C244.727 49.7247 244.793 49.72 244.859 49.7105C245.68 49.6256 246.162 49.1819 246.303 48.3795L246.374 47.5016L246.332 46.6236L246.204 44.9527L246.049 43.1261L247.875 43.0269L249.659 42.9845C251 42.9939 252.166 43.1733 253.157 43.5226L253.228 45.3067L253.327 47.006L253.398 48.0538L253.525 49.1017C253.704 50.0173 254.21 50.4752 255.04 50.4752H255.111C255.998 50.4469 256.527 49.9749 256.697 49.0592C256.735 48.8515 256.754 48.6013 256.754 48.3087C256.754 48.1104 256.744 47.8886 256.725 47.6432L255.89 33.8936L255.791 31.7696L255.649 29.6598C255.574 28.914 255.404 28.1729 255.139 27.4366C254.922 26.8608 254.54 26.5728 253.992 26.5728C253.907 26.5728 253.822 26.5776 253.738 26.587C253.048 26.6814 252.652 27.059 252.548 27.7198C252.473 28.2579 252.435 28.796 252.435 29.3341V29.6598L252.746 37.4195V39.6852H245.51ZM246.468 29.1214C246.445 28.3382 246.278 27.5471 245.982 26.7525C245.822 26.3086 245.565 25.8926 245.167 25.5896C244.759 25.2787 244.282 25.148 243.797 25.148C243.64 25.148 243.485 25.1633 243.333 25.1902C242.809 25.2749 242.315 25.4917 241.928 25.8917C241.542 26.2904 241.338 26.7934 241.252 27.3187L241.243 27.3756L241.183 28.6865L241.169 33.3808L241.211 38.0874L241.211 38.0948C241.297 41.6766 241.56 44.8303 242.003 47.5493L242.11 48.2046L242.292 48.9002L242.312 48.9532C242.502 49.4414 242.781 49.892 243.194 50.2224C243.621 50.5644 244.127 50.7247 244.661 50.7247C244.768 50.7247 244.874 50.7175 244.98 50.7033C245.542 50.6422 246.082 50.4475 246.514 50.0494C246.952 49.6459 247.189 49.1165 247.288 48.5533L247.296 48.5069L247.376 47.5177L247.33 46.5614L247.201 44.8767L247.133 44.0687L247.914 44.0263L249.667 43.9846C250.624 43.9923 251.461 44.0925 252.186 44.2744L252.229 45.3557L252.329 47.0642L252.402 48.1479L252.537 49.2583L252.544 49.2939C252.66 49.8865 252.905 50.4541 253.367 50.8727C253.841 51.303 254.434 51.4752 255.04 51.4752H255.127L255.143 51.4747C255.76 51.455 256.359 51.2745 256.839 50.8459C257.314 50.4218 257.568 49.8487 257.68 49.2416L257.681 49.2381C257.733 48.9537 257.754 48.6402 257.754 48.3087C257.754 48.0819 257.743 47.8365 257.723 47.5742L257.722 47.5665L256.889 33.847L256.888 33.833L256.789 31.7128L256.646 29.5759L256.644 29.559C256.56 28.7289 256.371 27.9083 256.081 27.0988L256.078 27.0913L256.075 27.0838C255.919 26.6686 255.672 26.2763 255.291 25.99C254.902 25.6971 254.451 25.5728 253.992 25.5728C253.87 25.5728 253.748 25.5796 253.627 25.5931L253.614 25.5945L253.602 25.5963C253.106 25.6642 252.621 25.8483 252.234 26.2169C251.843 26.5886 251.638 27.0663 251.56 27.5646L251.559 27.5727L251.558 27.5808C251.476 28.1645 251.435 28.749 251.435 29.3341V29.6798L251.746 37.4395V38.6852H246.508L246.496 33.3816L246.496 33.3772L246.468 29.1324L246.468 29.1214ZM149.71 45.7399C151.055 45.3116 151.98 44.4129 152.484 43.0438C151.783 42.0539 150.803 41.2886 149.546 40.748C148.954 40.9656 148.289 41.2043 147.55 41.4641L145.171 42.1675L145.643 45.2344C146.527 45.7258 147.401 45.9715 148.263 45.9715C148.746 45.9715 149.228 45.8943 149.71 45.7399Z" fill="#67676A"/>
<path fill-rule="evenodd" clip-rule="evenodd" d="M192.912 27.9605C193.289 27.3281 193.667 26.8702 194.045 26.587C194.413 26.3038 194.786 26.1622 195.163 26.1622C195.399 26.1622 195.635 26.2188 195.871 26.3321C196.494 26.6342 196.825 27.1723 196.862 27.9464L196.806 29.2774L196.65 30.6227L196.353 33.3272L196.112 36.046C196.027 37.2071 195.985 38.2975 195.985 39.317C195.985 40.0816 196.008 40.8085 196.055 41.4977L196.339 44.2447L196.664 47.006L196.777 47.8839L196.834 48.776C196.825 49.6633 196.447 50.2061 195.701 50.4044C195.522 50.4516 195.352 50.4752 195.192 50.4752C194.578 50.4752 194.125 50.1165 193.832 49.399C193.568 48.776 193.37 48.0302 193.237 47.1617C192.699 43.65 192.43 40.4356 192.43 37.5186C192.43 37.3468 192.431 37.1758 192.433 37.0058L192.434 36.9536L192.434 36.9338C192.442 36.2507 192.464 35.5818 192.501 34.9273L191.595 36.4566L190.717 38.0001L188.302 42.512L189.338 43.1361L191.595 38.9643L191.812 43.1361L192.249 47.3132C192.39 48.238 192.605 49.0661 192.909 49.7832C193.099 50.2466 193.373 50.6751 193.771 50.9902C194.185 51.3184 194.674 51.4752 195.192 51.4752C195.45 51.4752 195.706 51.4372 195.956 51.3715L195.958 51.3708C196.52 51.2216 197.019 50.9172 197.365 50.4197C197.701 49.936 197.828 49.3636 197.834 48.7866L197.834 48.7496L197.773 47.7881L197.657 46.8888L197.656 46.878L197.333 44.1422L197.332 44.1276L197.052 41.4124C197.007 40.7532 196.985 40.0549 196.985 39.317C196.985 38.327 197.026 37.2637 197.109 36.1262L197.109 36.119L197.348 33.4261L197.643 30.7377L197.644 30.7319L197.803 29.3563L197.863 27.9433L197.861 27.8977C197.808 26.8115 197.305 25.9158 196.308 25.4323L196.304 25.4306C195.948 25.2596 195.565 25.1622 195.163 25.1622C194.542 25.1622 193.98 25.3902 193.492 25.7515C193.574 25.5915 193.629 25.4023 193.629 25.1852V24.8584L193.231 24.0834L192.904 23.5572L192.839 23.487C191.69 22.2427 190.097 21.6788 188.211 21.6788C187.793 21.6788 187.361 21.7048 186.914 21.7553C186.219 21.8271 185.663 22.1954 185.294 22.7656C185.035 23.1507 184.888 23.5904 184.888 24.0665C184.888 24.1943 184.895 24.3219 184.907 24.4492L184.912 24.4979L184.922 24.5458C185.034 25.1052 185.292 25.6104 185.727 26.0003C186.152 26.382 186.681 26.5944 187.241 26.6934C187.93 26.8184 188.66 26.879 189.428 26.879C189.883 26.879 190.349 26.8588 190.828 26.819C191.478 26.7652 192.046 26.6785 192.478 26.5324C192.577 26.4989 192.685 26.457 192.794 26.4034C192.53 26.7079 192.284 27.0608 192.053 27.4479L192.052 27.4503L185.194 39.5135L185.965 39.6686L192.912 27.9605ZM186.129 23.316C186.346 22.9762 186.644 22.7874 187.021 22.7496C187.436 22.7024 187.833 22.6788 188.211 22.6788C189.891 22.6788 191.189 23.1744 192.105 24.1656L192.36 24.5763L192.629 25.1002V25.1852C192.629 25.5061 192.001 25.7185 190.745 25.8224C190.292 25.8601 189.853 25.879 189.428 25.879C188.711 25.879 188.041 25.8224 187.418 25.7091C186.559 25.558 186.054 25.1049 185.902 24.3497C185.893 24.2553 185.888 24.1609 185.888 24.0665C185.888 23.8022 185.969 23.552 186.129 23.316Z" fill="#67676A"/>
<path fill-rule="evenodd" clip-rule="evenodd" d="M232.309 27.8613L225.858 39.254L225.361 29.0019L225.361 28.9937C225.321 28.0585 225.178 27.2267 224.87 26.5718L224.868 26.5677C224.673 26.1583 224.354 25.8528 224.006 25.6248C223.662 25.3957 223.238 25.2047 222.762 25.2047C222.295 25.2047 221.879 25.3836 221.535 25.6084C221.195 25.8305 220.89 26.1153 220.679 26.4817C220.336 27.0675 220.211 27.8259 220.19 28.6291C220.171 29.3826 220.162 30.1085 220.162 30.8067C220.162 31.6674 220.176 32.4869 220.205 33.2651L220.843 47.2921L220.843 47.297C220.877 47.9759 221.038 48.6243 221.41 49.1591C221.796 49.7146 222.35 50.0611 222.997 50.2158L223 50.2167C223.224 50.2693 223.452 50.2999 223.682 50.2999C224.729 50.2999 225.548 49.714 226.143 48.8703L226.145 48.8662C226.959 47.6984 227.608 46.6808 228.084 45.8182L229.945 42.3373L231.703 39.0355C231.764 41.4403 232.009 44.0629 232.435 46.9012C232.459 47.0566 232.482 47.2126 232.507 47.3693C232.65 48.3097 232.888 49.1776 233.229 49.9659L233.231 49.9698C233.411 50.3815 233.67 50.7656 234.044 51.0475C234.431 51.3387 234.881 51.4752 235.35 51.4752C235.644 51.4752 236.098 51.4389 236.372 51.3493C236.896 51.1771 237.659 50.7294 237.958 50.0539C238.136 49.6531 238.162 48.5557 238.023 47.9364C237.353 44.9568 237.018 42.2194 237.018 39.7243C237.018 38.6624 237.077 37.6468 237.193 36.6777C237.193 36.6777 238.036 30.0824 238.071 29.7437C238.105 29.4049 238.022 28.139 238.022 28.139L238.015 28.0796C237.904 27.0535 237.36 26.2464 236.395 25.8377C236.065 25.6949 235.715 25.6153 235.35 25.6153C234.717 25.6153 234.146 25.855 233.653 26.231L233.645 26.237L233.638 26.2431C233.14 26.639 232.702 27.1993 232.309 27.8613ZM233.17 28.3712C233.528 27.767 233.892 27.3186 234.26 27.026C234.619 26.7522 234.982 26.6153 235.35 26.6153C235.567 26.6153 235.785 26.6625 236.002 26.7569C236.606 27.0118 236.946 27.4885 237.021 28.1871L237.007 29.4049L236.88 30.6227L236.299 36.7398C236.224 37.6272 236.186 38.5571 236.186 39.5294C236.186 41.8139 236.403 44.3202 236.837 47.0484C236.95 47.7753 237.007 48.4125 237.007 48.9601C236.998 49.6869 236.629 50.1589 235.903 50.3761C235.751 50.4267 235.607 50.4579 235.472 50.4698C235.431 50.4734 235.39 50.4752 235.35 50.4752C234.812 50.4752 234.411 50.1731 234.147 49.5689C233.995 49.2185 233.865 48.8467 233.756 48.4536C233.648 48.0629 233.561 47.6512 233.495 47.2184C232.957 43.7633 232.688 40.6433 232.688 37.8585C232.688 37.6772 232.689 37.4974 232.692 37.319L232.692 37.3037L232.692 37.2917C232.701 36.579 232.728 35.89 232.773 35.2247L231.839 36.7965L230.918 38.3824L229.063 41.8658L227.208 45.3351C226.755 46.1563 226.127 47.1428 225.325 48.2945C224.853 48.9648 224.305 49.2999 223.682 49.2999C223.541 49.2999 223.39 49.281 223.229 49.2433C222.361 49.0356 221.898 48.37 221.841 47.2467L221.204 33.2281C221.176 32.4635 221.162 31.6563 221.162 30.8067C221.162 30.1176 221.171 29.4002 221.19 28.6544C221.209 27.9086 221.327 27.3517 221.544 26.9835C221.657 26.7852 221.837 26.6059 222.082 26.4454C222.328 26.2849 222.554 26.2047 222.762 26.2047C222.97 26.2047 223.201 26.2896 223.456 26.4596C223.701 26.62 223.871 26.7994 223.966 26.9977C224.192 27.4791 224.324 28.1588 224.362 29.0367L224.758 40.4356L224.787 41.1436L224.843 41.9508C225.155 41.8092 225.405 41.5779 225.594 41.2569L226.019 40.4356L233.17 28.3712Z" fill="#67676A"/>
<path d="M74.9842 72.9999V66.0706H75.8886V72.2019H78.8545V66.0706H79.7722V72.2019H82.7248V66.0706H83.6292V72.9999H74.9842Z" fill="#67676A"/>
<path d="M85.5956 72.9999V66.0706H86.5V69.0365H87.5374L89.8649 66.0706H90.9023L88.2556 69.4355L91.2348 72.9999H90.1708L87.5374 69.8744H86.5V72.9999H85.5956Z" fill="#67676A"/>
<path d="M95.1076 73.1329C94.6111 73.1329 94.15 73.0398 93.7244 72.8536C93.3077 72.6586 92.9441 72.397 92.6338 72.0689C92.3323 71.732 92.0974 71.3507 91.9289 70.9251C91.7604 70.4907 91.6762 70.034 91.6762 69.5552C91.6762 69.0587 91.7604 68.5976 91.9289 68.172C92.0974 67.7376 92.3368 67.3563 92.6471 67.0282C92.9574 66.6913 93.321 66.4297 93.7377 66.2435C94.1633 66.0485 94.6244 65.9509 95.1209 65.9509C95.6174 65.9509 96.0741 66.0485 96.4908 66.2435C96.9075 66.4297 97.2711 66.6913 97.5814 67.0282C97.8917 67.3563 98.1311 67.7376 98.2996 68.172C98.4681 68.5976 98.5523 69.0587 98.5523 69.5552C98.5523 70.034 98.4681 70.4907 98.2996 70.9251C98.1311 71.3507 97.8917 71.732 97.5814 72.0689C97.2799 72.397 96.9164 72.6586 96.4908 72.8536C96.0741 73.0398 95.613 73.1329 95.1076 73.1329ZM92.5939 69.5685C92.5939 70.0828 92.7047 70.5527 92.9264 70.9783C93.1569 71.3951 93.4628 71.7276 93.8441 71.9758C94.2254 72.2152 94.6465 72.3349 95.1076 72.3349C95.5687 72.3349 95.9898 72.2108 96.3711 71.9625C96.7524 71.7143 97.0583 71.3773 97.2888 70.9517C97.5193 70.5173 97.6346 70.0473 97.6346 69.5419C97.6346 69.0277 97.5193 68.5577 97.2888 68.1321C97.0583 67.7065 96.7524 67.3696 96.3711 67.1213C95.9898 66.8731 95.5687 66.7489 95.1076 66.7489C94.6465 66.7489 94.2254 66.8775 93.8441 67.1346C93.4717 67.3918 93.1702 67.7331 92.9397 68.1587C92.7092 68.5755 92.5939 69.0454 92.5939 69.5685Z" fill="#67676A"/>
<path d="M99.3999 73.0398V72.2152C99.6393 72.2152 99.8521 72.1532 100.038 72.029C100.224 71.896 100.389 71.6744 100.53 71.364C100.681 71.0537 100.801 70.6281 100.889 70.0872C100.978 69.5375 101.036 68.8415 101.062 67.9991L101.142 66.0706H105.638V72.9999H104.733V66.8819H101.94L101.914 68.0789C101.878 69.0365 101.803 69.839 101.687 70.4862C101.572 71.1246 101.408 71.63 101.195 72.0024C100.991 72.3748 100.739 72.6408 100.437 72.8004C100.136 72.96 99.79 73.0398 99.3999 73.0398Z" fill="#67676A"/>
<path d="M107.624 72.9999V66.0706H108.528V68.5178H110.324C111.113 68.5178 111.707 68.7218 112.106 69.1296C112.514 69.5286 112.718 70.0562 112.718 70.7123C112.718 71.1379 112.629 71.5236 112.452 71.8694C112.274 72.2152 112.013 72.4901 111.667 72.694C111.33 72.898 110.904 72.9999 110.39 72.9999H107.624ZM108.528 72.2817H110.27C110.634 72.2817 110.927 72.2108 111.148 72.0689C111.37 71.9182 111.534 71.7276 111.64 71.497C111.747 71.2576 111.8 71.0005 111.8 70.7256C111.8 70.4596 111.751 70.2158 111.654 69.9941C111.565 69.7636 111.405 69.5818 111.175 69.4488C110.953 69.307 110.643 69.236 110.244 69.236H108.528V72.2817Z" fill="#67676A"/>
<path d="M114.118 72.9999V66.0706H115.022V69.0498H118.986V66.0706H119.89V72.9999H118.986V69.8611H115.022V72.9999H114.118Z" fill="#67676A"/>
<path d="M121.327 71.0049C121.327 70.5705 121.451 70.1981 121.699 69.8877C121.947 69.5685 122.289 69.3247 122.723 69.1562C123.166 68.9789 123.676 68.8902 124.253 68.8902C124.59 68.8902 124.94 68.9168 125.303 68.97C125.667 69.0232 125.99 69.103 126.274 69.2094V68.6242C126.274 68.039 126.101 67.5735 125.755 67.2277C125.41 66.8819 124.931 66.709 124.319 66.709C123.947 66.709 123.579 66.78 123.215 66.9218C122.861 67.0548 122.488 67.2543 122.098 67.5203L121.752 66.8819C122.204 66.5716 122.648 66.3411 123.082 66.1903C123.517 66.0307 123.96 65.9509 124.412 65.9509C125.263 65.9509 125.937 66.1948 126.434 66.6824C126.93 67.1701 127.179 67.844 127.179 68.704V71.9093C127.179 72.0335 127.205 72.1266 127.258 72.1886C127.312 72.2418 127.396 72.2729 127.511 72.2817V72.9999C127.414 73.0088 127.329 73.0177 127.258 73.0265C127.187 73.0354 127.134 73.0354 127.099 73.0265C126.877 73.0177 126.709 72.9467 126.593 72.8137C126.478 72.6807 126.416 72.5389 126.407 72.3881L126.394 71.8827C126.084 72.2817 125.68 72.5921 125.184 72.8137C124.687 73.0265 124.182 73.1329 123.667 73.1329C123.224 73.1329 122.821 73.0398 122.457 72.8536C122.102 72.6586 121.823 72.4014 121.619 72.0822C121.424 71.7542 121.327 71.3951 121.327 71.0049ZM125.968 71.5369C126.066 71.4128 126.141 71.2931 126.194 71.1778C126.248 71.0626 126.274 70.9606 126.274 70.8719V69.8611C125.973 69.7459 125.658 69.6572 125.33 69.5951C125.011 69.5331 124.687 69.502 124.359 69.502C123.712 69.502 123.189 69.6306 122.79 69.8877C122.391 70.1449 122.191 70.4951 122.191 70.9384C122.191 71.1956 122.258 71.4394 122.391 71.6699C122.524 71.8916 122.719 72.0778 122.976 72.2285C123.233 72.3704 123.534 72.4413 123.88 72.4413C124.315 72.4413 124.718 72.3571 125.09 72.1886C125.472 72.0202 125.764 71.8029 125.968 71.5369Z" fill="#67676A"/>
<path d="M128.614 72.9999L130.675 70.167C130.206 70.0961 129.824 69.8922 129.532 69.5552C129.248 69.2094 129.106 68.7395 129.106 68.1454C129.106 67.7464 129.199 67.3918 129.385 67.0814C129.572 66.7711 129.833 66.5228 130.17 66.3366C130.516 66.1504 130.919 66.0573 131.38 66.0573H134.027V72.9999H133.123V70.3133H131.58L129.625 72.9999H128.614ZM131.367 69.6217H133.123V66.7755H131.527C131.066 66.7755 130.698 66.9085 130.423 67.1745C130.148 67.4317 130.01 67.7597 130.01 68.1587C130.01 68.5666 130.121 68.9124 130.343 69.1961C130.573 69.4799 130.915 69.6217 131.367 69.6217Z" fill="#67676A"/>
<path d="M138.848 71.0049C138.848 70.5705 138.972 70.1981 139.22 69.8877C139.468 69.5685 139.81 69.3247 140.244 69.1562C140.688 68.9789 141.197 68.8902 141.774 68.8902C142.111 68.8902 142.461 68.9168 142.824 68.97C143.188 69.0232 143.512 69.103 143.795 69.2094V68.6242C143.795 68.039 143.622 67.5735 143.277 67.2277C142.931 66.8819 142.452 66.709 141.84 66.709C141.468 66.709 141.1 66.78 140.736 66.9218C140.382 67.0548 140.009 67.2543 139.619 67.5203L139.273 66.8819C139.726 66.5716 140.169 66.3411 140.603 66.1903C141.038 66.0307 141.481 65.9509 141.933 65.9509C142.785 65.9509 143.458 66.1948 143.955 66.6824C144.452 67.1701 144.7 67.844 144.7 68.704V71.9093C144.7 72.0335 144.726 72.1266 144.78 72.1886C144.833 72.2418 144.917 72.2729 145.032 72.2817V72.9999C144.935 73.0088 144.851 73.0177 144.78 73.0265C144.709 73.0354 144.655 73.0354 144.62 73.0265C144.398 73.0177 144.23 72.9467 144.115 72.8137C143.999 72.6807 143.937 72.5389 143.928 72.3881L143.915 71.8827C143.605 72.2817 143.201 72.5921 142.705 72.8137C142.208 73.0265 141.703 73.1329 141.189 73.1329C140.745 73.1329 140.342 73.0398 139.978 72.8536C139.624 72.6586 139.344 72.4014 139.14 72.0822C138.945 71.7542 138.848 71.3951 138.848 71.0049ZM143.489 71.5369C143.587 71.4128 143.662 71.2931 143.716 71.1778C143.769 71.0626 143.795 70.9606 143.795 70.8719V69.8611C143.494 69.7459 143.179 69.6572 142.851 69.5951C142.532 69.5331 142.208 69.502 141.88 69.502C141.233 69.502 140.71 69.6306 140.311 69.8877C139.912 70.1449 139.712 70.4951 139.712 70.9384C139.712 71.1956 139.779 71.4394 139.912 71.6699C140.045 71.8916 140.24 72.0778 140.497 72.2285C140.754 72.3704 141.056 72.4413 141.401 72.4413C141.836 72.4413 142.239 72.3571 142.612 72.1886C142.993 72.0202 143.286 71.8029 143.489 71.5369Z" fill="#67676A"/>
<path d="M148.279 72.9999V66.8819H145.805V66.0706H151.657V66.8819H149.183V72.9999H148.279Z" fill="#67676A"/>
<path d="M154.617 72.9999V66.8819H152.143V66.0706H157.995V66.8819H155.522V72.9999H154.617Z" fill="#67676A"/>
<path d="M162.219 73.1329C161.722 73.1329 161.261 73.0398 160.836 72.8536C160.41 72.6586 160.042 72.397 159.732 72.0689C159.422 71.732 159.178 71.3463 159 70.9118C158.832 70.4774 158.748 70.0119 158.748 69.5153C158.748 68.8681 158.894 68.274 159.187 67.7331C159.488 67.1923 159.9 66.7622 160.423 66.443C160.947 66.115 161.541 65.9509 162.206 65.9509C162.888 65.9509 163.482 66.115 163.988 66.443C164.502 66.7711 164.906 67.2056 165.198 67.7464C165.491 68.2784 165.637 68.8636 165.637 69.502C165.637 69.573 165.637 69.6439 165.637 69.7148C165.637 69.7769 165.633 69.8257 165.624 69.8611H159.692C159.736 70.3577 159.874 70.801 160.104 71.1911C160.344 71.5724 160.65 71.8783 161.022 72.1088C161.403 72.3305 161.816 72.4413 162.259 72.4413C162.711 72.4413 163.137 72.3261 163.536 72.0955C163.944 71.865 164.227 71.5635 164.387 71.1911L165.172 71.4039C165.03 71.732 164.812 72.029 164.52 72.295C164.227 72.561 163.882 72.7694 163.482 72.9201C163.092 73.062 162.671 73.1329 162.219 73.1329ZM159.665 69.2094H164.786C164.75 68.704 164.613 68.2607 164.374 67.8794C164.143 67.4982 163.837 67.2011 163.456 66.9883C163.083 66.7667 162.671 66.6558 162.219 66.6558C161.767 66.6558 161.354 66.7667 160.982 66.9883C160.61 67.2011 160.304 67.5026 160.064 67.8927C159.834 68.274 159.701 68.7129 159.665 69.2094Z" fill="#67676A"/>
<path d="M170.038 73.1329C169.533 73.1329 169.067 73.0398 168.642 72.8536C168.225 72.6586 167.857 72.3926 167.538 72.0556C167.228 71.7187 166.984 71.333 166.806 70.8985C166.638 70.4641 166.554 70.003 166.554 69.5153C166.554 68.8592 166.7 68.2607 166.993 67.7198C167.285 67.179 167.693 66.7489 168.216 66.4297C168.739 66.1105 169.342 65.9509 170.025 65.9509C170.672 65.9509 171.244 66.1017 171.741 66.4031C172.237 66.6957 172.605 67.0947 172.845 67.6001L171.967 67.8794C171.772 67.5248 171.497 67.2499 171.142 67.0548C170.796 66.8509 170.411 66.7489 169.985 66.7489C169.524 66.7489 169.103 66.8686 168.722 67.108C168.34 67.3474 168.034 67.6755 167.804 68.0922C167.582 68.509 167.471 68.9833 167.471 69.5153C167.471 70.0385 167.587 70.5128 167.817 70.9384C168.048 71.364 168.354 71.7054 168.735 71.9625C169.116 72.2108 169.537 72.3349 169.998 72.3349C170.3 72.3349 170.588 72.2817 170.863 72.1753C171.147 72.0689 171.39 71.9271 171.594 71.7497C171.807 71.5635 171.949 71.364 172.02 71.1512L172.911 71.4172C172.787 71.7453 172.579 72.0423 172.286 72.3083C172.002 72.5655 171.665 72.7694 171.275 72.9201C170.894 73.062 170.482 73.1329 170.038 73.1329Z" fill="#67676A"/>
<path d="M176.061 72.9999V66.8819H173.587V66.0706H179.439V66.8819H176.965V72.9999H176.061Z" fill="#67676A"/>
<path d="M180.073 71.0049C180.073 70.5705 180.197 70.1981 180.445 69.8877C180.693 69.5685 181.035 69.3247 181.469 69.1562C181.912 68.9789 182.422 68.8902 182.999 68.8902C183.336 68.8902 183.686 68.9168 184.049 68.97C184.413 69.0232 184.736 69.103 185.02 69.2094V68.6242C185.02 68.039 184.847 67.5735 184.501 67.2277C184.156 66.8819 183.677 66.709 183.065 66.709C182.693 66.709 182.325 66.78 181.961 66.9218C181.607 67.0548 181.234 67.2543 180.844 67.5203L180.498 66.8819C180.95 66.5716 181.394 66.3411 181.828 66.1903C182.263 66.0307 182.706 65.9509 183.158 65.9509C184.009 65.9509 184.683 66.1948 185.18 66.6824C185.676 67.1701 185.925 67.844 185.925 68.704V71.9093C185.925 72.0335 185.951 72.1266 186.004 72.1886C186.058 72.2418 186.142 72.2729 186.257 72.2817V72.9999C186.16 73.0088 186.075 73.0177 186.004 73.0265C185.933 73.0354 185.88 73.0354 185.845 73.0265C185.623 73.0177 185.455 72.9467 185.339 72.8137C185.224 72.6807 185.162 72.5389 185.153 72.3881L185.14 71.8827C184.83 72.2817 184.426 72.5921 183.93 72.8137C183.433 73.0265 182.928 73.1329 182.413 73.1329C181.97 73.1329 181.567 73.0398 181.203 72.8536C180.848 72.6586 180.569 72.4014 180.365 72.0822C180.17 71.7542 180.073 71.3951 180.073 71.0049ZM184.714 71.5369C184.812 71.4128 184.887 71.2931 184.94 71.1778C184.994 71.0626 185.02 70.9606 185.02 70.8719V69.8611C184.719 69.7459 184.404 69.6572 184.076 69.5951C183.757 69.5331 183.433 69.502 183.105 69.502C182.458 69.502 181.935 69.6306 181.536 69.8877C181.137 70.1449 180.937 70.4951 180.937 70.9384C180.937 71.1956 181.004 71.4394 181.137 71.6699C181.27 71.8916 181.465 72.0778 181.722 72.2285C181.979 72.3704 182.28 72.4413 182.626 72.4413C183.061 72.4413 183.464 72.3571 183.836 72.1886C184.218 72.0202 184.51 71.8029 184.714 71.5369Z" fill="#67676A"/>
<path d="M193.398 74.6092V72.9999H187.865V66.0706H188.77V72.2019H192.361V66.0706H193.265V72.2019H194.209V74.6092H193.398Z" fill="#67676A"/>
<path d="M195.567 72.9999V66.0839H196.472V71.7763L200.688 66.0706H201.499V72.9999H200.595V67.4006L196.445 72.9999H195.567Z" fill="#67676A"/>
<path d="M202.959 72.9999L205.02 70.167C204.55 70.0961 204.169 69.8922 203.877 69.5552C203.593 69.2094 203.451 68.7395 203.451 68.1454C203.451 67.7464 203.544 67.3918 203.73 67.0814C203.916 66.7711 204.178 66.5228 204.515 66.3366C204.861 66.1504 205.264 66.0573 205.725 66.0573H208.372V72.9999H207.468V70.3133H205.925L203.97 72.9999H202.959ZM205.712 69.6217H207.468V66.7755H205.872C205.411 66.7755 205.043 66.9085 204.768 67.1745C204.493 67.4317 204.355 67.7597 204.355 68.1587C204.355 68.5666 204.466 68.9124 204.688 69.1961C204.918 69.4799 205.26 69.6217 205.712 69.6217Z" fill="#67676A"/>
<path d="M216.704 73.1329C216.207 73.1329 215.746 73.0398 215.321 72.8536C214.904 72.6586 214.54 72.397 214.23 72.0689C213.929 71.732 213.694 71.3507 213.525 70.9251C213.357 70.4907 213.273 70.034 213.273 69.5552C213.273 69.0587 213.357 68.5976 213.525 68.172C213.694 67.7376 213.933 67.3563 214.243 67.0282C214.554 66.6913 214.917 66.4297 215.334 66.2435C215.76 66.0485 216.221 65.9509 216.717 65.9509C217.214 65.9509 217.67 66.0485 218.087 66.2435C218.504 66.4297 218.867 66.6913 219.178 67.0282C219.488 67.3563 219.727 67.7376 219.896 68.172C220.064 68.5976 220.149 69.0587 220.149 69.5552C220.149 70.034 220.064 70.4907 219.896 70.9251C219.727 71.3507 219.488 71.732 219.178 72.0689C218.876 72.397 218.513 72.6586 218.087 72.8536C217.67 73.0398 217.209 73.1329 216.704 73.1329ZM214.19 69.5685C214.19 70.0828 214.301 70.5527 214.523 70.9783C214.753 71.3951 215.059 71.7276 215.44 71.9758C215.822 72.2152 216.243 72.3349 216.704 72.3349C217.165 72.3349 217.586 72.2108 217.967 71.9625C218.349 71.7143 218.655 71.3773 218.885 70.9517C219.116 70.5173 219.231 70.0473 219.231 69.5419C219.231 69.0277 219.116 68.5577 218.885 68.1321C218.655 67.7065 218.349 67.3696 217.967 67.1213C217.586 66.8731 217.165 66.7489 216.704 66.7489C216.243 66.7489 215.822 66.8775 215.44 67.1346C215.068 67.3918 214.767 67.7331 214.536 68.1587C214.305 68.5755 214.19 69.0454 214.19 69.5685Z" fill="#67676A"/>
<path d="M221.648 72.9999V66.0706H222.552V69.0498H226.516V66.0706H227.42V72.9999H226.516V69.8611H222.552V72.9999H221.648Z" fill="#67676A"/>
<path d="M228.75 73.0398V72.2152C228.99 72.2152 229.202 72.1532 229.389 72.029C229.575 71.896 229.739 71.6744 229.881 71.364C230.031 71.0537 230.151 70.6281 230.24 70.0872C230.328 69.5375 230.386 68.8415 230.413 67.9991L230.492 66.0706H234.988V72.9999H234.083V66.8819H231.29L231.264 68.0789C231.228 69.0365 231.153 69.839 231.038 70.4862C230.923 71.1246 230.758 71.63 230.546 72.0024C230.342 72.3748 230.089 72.6408 229.788 72.8004C229.486 72.96 229.14 73.0398 228.75 73.0398Z" fill="#67676A"/>
<path d="M236.429 71.0049C236.429 70.5705 236.553 70.1981 236.801 69.8877C237.049 69.5685 237.391 69.3247 237.825 69.1562C238.269 68.9789 238.778 68.8902 239.355 68.8902C239.692 68.8902 240.042 68.9168 240.405 68.97C240.769 69.0232 241.093 69.103 241.376 69.2094V68.6242C241.376 68.039 241.203 67.5735 240.858 67.2277C240.512 66.8819 240.033 66.709 239.421 66.709C239.049 66.709 238.681 66.78 238.317 66.9218C237.963 67.0548 237.59 67.2543 237.2 67.5203L236.854 66.8819C237.307 66.5716 237.75 66.3411 238.184 66.1903C238.619 66.0307 239.062 65.9509 239.514 65.9509C240.366 65.9509 241.039 66.1948 241.536 66.6824C242.032 67.1701 242.281 67.844 242.281 68.704V71.9093C242.281 72.0335 242.307 72.1266 242.361 72.1886C242.414 72.2418 242.498 72.2729 242.613 72.2817V72.9999C242.516 73.0088 242.431 73.0177 242.361 73.0265C242.29 73.0354 242.236 73.0354 242.201 73.0265C241.979 73.0177 241.811 72.9467 241.696 72.8137C241.58 72.6807 241.518 72.5389 241.509 72.3881L241.496 71.8827C241.186 72.2817 240.782 72.5921 240.286 72.8137C239.789 73.0265 239.284 73.1329 238.77 73.1329C238.326 73.1329 237.923 73.0398 237.559 72.8536C237.205 72.6586 236.925 72.4014 236.721 72.0822C236.526 71.7542 236.429 71.3951 236.429 71.0049ZM241.07 71.5369C241.168 71.4128 241.243 71.2931 241.297 71.1778C241.35 71.0626 241.376 70.9606 241.376 70.8719V69.8611C241.075 69.7459 240.76 69.6572 240.432 69.5951C240.113 69.5331 239.789 69.502 239.461 69.502C238.814 69.502 238.291 69.6306 237.892 69.8877C237.493 70.1449 237.293 70.4951 237.293 70.9384C237.293 71.1956 237.36 71.4394 237.493 71.6699C237.626 71.8916 237.821 72.0778 238.078 72.2285C238.335 72.3704 238.637 72.4413 238.982 72.4413C239.417 72.4413 239.82 72.3571 240.193 72.1886C240.574 72.0202 240.867 71.8029 241.07 71.5369Z" fill="#67676A"/>
<path d="M244.221 72.9999V66.0839H245.126V71.7763L249.342 66.0706H250.153V72.9999H249.249V67.4006L245.099 72.9999H244.221ZM247.201 65.1928C246.598 65.1928 246.132 65.051 245.804 64.7672C245.476 64.4835 245.312 64.1244 245.312 63.6899H245.977C245.977 63.9559 246.075 64.1776 246.27 64.3549C246.474 64.5323 246.784 64.6209 247.201 64.6209C247.609 64.6209 247.906 64.5367 248.092 64.3682C248.287 64.1998 248.398 63.9737 248.424 63.6899H249.076C249.076 64.1244 248.912 64.4835 248.584 64.7672C248.256 65.051 247.795 65.1928 247.201 65.1928Z" fill="#67676A"/>
<path d="M252.118 72.9999V66.0706H253.023V69.0498H256.986V66.0706H257.891V72.9999H256.986V69.8611H253.023V72.9999H252.118Z" fill="#67676A"/>
</svg>
