<svg width="650" height="465" viewBox="0 0 650 465" fill="none" xmlns="http://www.w3.org/2000/svg">
<path d="M328 411C441.218 411 533 400.926 533 388.5C533 376.074 441.218 366 328 366C214.782 366 123 376.074 123 388.5C123 400.926 214.782 411 328 411Z" fill="#6B8089" fill-opacity="0.3"/>
<path d="M510.636 305.829H450.86V377.406H510.636V369.359C510.636 369.359 496.397 350.112 510.636 308.041V305.829Z" fill="#E6E6E6" stroke="#67676A" stroke-miterlimit="10"/>
<path d="M510.636 299.876H235.066L196.358 308.018L471.928 307.453L510.636 299.876Z" fill="#BACAFF" stroke="#67676A" stroke-linejoin="round"/>
<path d="M471.928 317.947V307.453L510.636 299.876V307.947L471.928 317.947Z" fill="#BACAFF" stroke="#67676A" stroke-linejoin="round"/>
<path d="M471.928 387.335V376.841L510.636 369.265V377.335L471.928 387.335Z" fill="#BACAFF" stroke="#67676A" stroke-linejoin="round"/>
<path d="M471.928 307.359H204.004C197.922 307.064 191.837 307.879 186.119 309.753C180.401 311.627 175.172 314.521 170.749 318.259C166.327 321.997 162.805 326.5 160.398 331.493C157.991 336.486 156.749 341.865 156.749 347.3C156.749 352.736 157.991 358.114 160.398 363.107C162.805 368.1 166.327 372.603 170.749 376.341C175.172 380.079 180.401 382.973 186.119 384.847C191.837 386.721 197.922 387.536 204.004 387.241H471.928V376.63C471.928 376.63 449.173 353.853 471.928 318.394V307.359Z" fill="#8FA9FF" stroke="#67676A" stroke-linecap="round" stroke-linejoin="round"/>
<path d="M470.53 318.488H206.378C202.014 318.377 197.671 319.049 193.603 320.462C189.536 321.876 185.828 324.003 182.698 326.718C179.568 329.432 177.08 332.68 175.381 336.268C173.682 339.855 172.807 343.711 172.807 347.606C172.807 351.501 173.682 355.356 175.381 358.944C177.08 362.532 179.568 365.779 182.698 368.494C185.828 371.209 189.536 373.336 193.603 374.75C197.671 376.163 202.014 376.834 206.378 376.724H470.53C470.53 376.724 447.88 353.947 470.53 318.488Z" fill="white"/>
<path d="M460.933 348.488L193.22 347.382" stroke="#67676A" stroke-linecap="round" stroke-linejoin="round"/>
<path d="M462.198 359.453H193.22" stroke="#67676A" stroke-linecap="round" stroke-linejoin="round"/>
<path d="M444.453 371.947L429.186 361.712L413.892 371.947V334.912H444.453V371.947Z" fill="#A1DA67"/>
<path d="M463.464 335.335H193.22" stroke="#67676A" stroke-linecap="round" stroke-linejoin="round"/>
<path d="M420.194 317.947H431.111" stroke="#67676A" stroke-miterlimit="10" stroke-linecap="round"/>
<path d="M339.456 317.947H407.169" stroke="#67676A" stroke-miterlimit="10" stroke-linecap="round"/>
<path d="M225.125 377.406H214.209" stroke="#67676A" stroke-miterlimit="10" stroke-linecap="round"/>
<path d="M305.863 377.406H238.151" stroke="#67676A" stroke-miterlimit="10" stroke-linecap="round"/>
<path d="M481.684 219.311H421.908V290.888H481.684V282.818C481.684 282.818 467.445 263.57 481.684 221.5V219.311Z" fill="#E6E6E6" stroke="#67676A" stroke-miterlimit="10"/>
<path d="M481.684 213.382H206.114L168.012 221.429L442.976 220.935L481.684 213.382Z" fill="#FFE787" stroke="#67676A" stroke-linejoin="round"/>
<path d="M442.976 231.429V220.935L481.684 213.382V221.429L442.976 231.429Z" fill="#FFE787" stroke="#67676A" stroke-linejoin="round"/>
<path d="M442.976 300.818V290.323L481.684 282.77V290.818L442.976 300.818Z" fill="#FFE787" stroke="#67676A" stroke-linejoin="round"/>
<path d="M442.976 220.935H175.053C163.164 220.935 151.763 225.149 143.356 232.651C134.95 240.152 130.227 250.326 130.227 260.935C130.227 271.544 134.95 281.718 143.356 289.219C151.763 296.721 163.164 300.935 175.053 300.935H442.976V290.347C442.976 290.347 420.194 267.57 442.976 232.111V220.935Z" fill="#FFD152" stroke="#67676A" stroke-linecap="round" stroke-linejoin="round"/>
<path d="M441.579 232.064H177.399C173.036 231.954 168.693 232.625 164.625 234.038C160.558 235.452 156.85 237.579 153.72 240.294C150.59 243.009 148.102 246.256 146.403 249.844C144.704 253.432 143.828 257.287 143.828 261.182C143.828 265.077 144.704 268.933 146.403 272.52C148.102 276.108 150.59 279.356 153.72 282.07C156.85 284.785 160.558 286.912 164.625 288.326C168.693 289.739 173.036 290.411 177.399 290.3H441.579C441.579 290.3 418.929 267.359 441.579 232.064Z" fill="white"/>
<path d="M431.981 261.994L164.268 260.888" stroke="#67676A" stroke-linecap="round" stroke-linejoin="round"/>
<path d="M433.246 272.935H164.268" stroke="#67676A" stroke-linecap="round" stroke-linejoin="round"/>
<path d="M415.501 285.147L400.234 274.935L384.941 285.147V248.112H415.501V285.147Z" fill="#FF80DD"/>
<path d="M434.512 248.817H164.268" stroke="#67676A" stroke-linecap="round" stroke-linejoin="round"/>
<path d="M391.216 231.429H402.159" stroke="#67676A" stroke-miterlimit="10" stroke-linecap="round"/>
<path d="M310.504 231.429H378.217" stroke="#67676A" stroke-miterlimit="10" stroke-linecap="round"/>
<path d="M196.173 290.912H185.231" stroke="#67676A" stroke-miterlimit="10" stroke-linecap="round"/>
<path d="M276.885 290.912H209.199" stroke="#67676A" stroke-miterlimit="10" stroke-linecap="round"/>
<path d="M450.544 31.5933H190.108C182.769 31.5933 176.819 36.9027 176.819 43.4521V189.194C176.819 195.743 182.769 201.053 190.108 201.053H450.544C457.883 201.053 463.833 195.743 463.833 189.194V43.4521C463.833 36.9027 457.883 31.5933 450.544 31.5933Z" fill="#E6E6E6"/>
<path d="M450.544 32.7697C452.114 32.7666 453.671 33.0401 455.123 33.5743C456.575 34.1086 457.895 34.8932 459.007 35.8833C460.119 36.8734 461.001 38.0495 461.603 39.3442C462.205 40.6389 462.515 42.0269 462.515 43.4286V189.194C462.515 192.027 461.253 194.744 459.008 196.747C456.763 198.751 453.719 199.876 450.544 199.876H190.108C186.936 199.87 183.895 198.742 181.651 196.74C179.408 194.738 178.144 192.025 178.138 189.194V43.4286C178.144 40.5995 179.409 37.8884 181.653 35.8902C183.897 33.8919 186.938 32.7697 190.108 32.7697H450.544ZM450.544 30.4168H190.108C186.239 30.4168 182.527 31.7869 179.789 34.2264C177.05 36.666 175.508 39.9755 175.501 43.4286V189.194C175.501 192.651 177.04 195.966 179.779 198.411C182.519 200.856 186.234 202.229 190.108 202.229H450.544C454.418 202.229 458.133 200.856 460.873 198.411C463.612 195.966 465.151 192.651 465.151 189.194V43.4286C465.144 39.9755 463.602 36.666 460.864 34.2264C458.125 31.7869 454.413 30.4168 450.544 30.4168Z" fill="#67676A"/>
<path d="M450.333 43.6168H190.32V178.723H450.333V43.6168Z" fill="white"/>
<path d="M413.365 52.2522C413.365 52.8711 413.159 53.4761 412.774 53.9908C412.389 54.5054 411.841 54.9065 411.2 55.1434C410.559 55.3802 409.854 55.4422 409.174 55.3214C408.494 55.2007 407.869 54.9026 407.378 54.465C406.888 54.0273 406.554 53.4697 406.419 52.8627C406.283 52.2556 406.353 51.6264 406.618 51.0546C406.884 50.4827 407.333 49.994 407.91 49.6501C408.486 49.3063 409.165 49.1227 409.858 49.1227C410.788 49.1227 411.68 49.4524 412.338 50.0393C412.996 50.6262 413.365 51.4222 413.365 52.2522Z" fill="url(#paint0_linear_277_22354)"/>
<path d="M425.231 52.2522C425.231 52.8711 425.025 53.4761 424.64 53.9908C424.254 54.5054 423.706 54.9065 423.066 55.1434C422.425 55.3802 421.72 55.4422 421.039 55.3214C420.359 55.2007 419.734 54.9026 419.244 54.465C418.753 54.0273 418.419 53.4697 418.284 52.8627C418.149 52.2556 418.218 51.6264 418.484 51.0546C418.749 50.4827 419.199 49.994 419.775 49.6501C420.352 49.3063 421.03 49.1227 421.724 49.1227C422.654 49.1227 423.546 49.4524 424.203 50.0393C424.861 50.6262 425.231 51.4222 425.231 52.2522Z" fill="#FFD152"/>
<path d="M437.096 52.2522C437.096 52.8711 436.891 53.4761 436.505 53.9908C436.12 54.5054 435.572 54.9065 434.931 55.1434C434.29 55.3802 433.585 55.4422 432.905 55.3214C432.225 55.2007 431.6 54.9026 431.11 54.465C430.619 54.0273 430.285 53.4697 430.15 52.8627C430.014 52.2556 430.084 51.6264 430.349 51.0546C430.615 50.4827 431.064 49.994 431.641 49.6501C432.218 49.3063 432.896 49.1227 433.589 49.1227C434.519 49.1227 435.411 49.4524 436.069 50.0393C436.727 50.6262 437.096 51.4222 437.096 52.2522Z" fill="url(#paint1_linear_277_22354)"/>
<path d="M326.905 192.323H315.382C314.513 192.317 313.681 192.004 313.069 191.453C312.456 190.902 312.113 190.158 312.113 189.382C312.113 188.606 312.456 187.861 313.069 187.31C313.681 186.76 314.513 186.447 315.382 186.441H326.905C327.779 186.441 328.617 186.751 329.235 187.302C329.854 187.854 330.201 188.602 330.201 189.382C330.201 190.162 329.854 190.91 329.235 191.462C328.617 192.013 327.779 192.323 326.905 192.323Z" fill="#67676A"/>
<path d="M168.144 212.582C164.299 212.577 160.596 211.286 157.765 208.965C154.934 206.643 153.181 203.459 152.851 200.041H487.538C487.202 203.461 485.443 206.645 482.608 208.967C479.772 211.288 476.066 212.577 472.218 212.582H168.144Z" fill="#E6E6E6"/>
<path d="M486.035 201.217C485.416 204.083 483.699 206.667 481.178 208.527C478.656 210.386 475.489 211.404 472.218 211.406H168.144C164.877 211.403 161.713 210.384 159.196 208.524C156.679 206.665 154.967 204.081 154.354 201.217H486.035ZM488.909 198.864H151.401C151.408 202.813 153.168 206.597 156.297 209.389C159.426 212.181 163.667 213.752 168.092 213.758H472.218C476.645 213.758 480.89 212.189 484.02 209.396C487.15 206.603 488.909 202.814 488.909 198.864Z" fill="#67676A"/>
<path d="M297.584 199.97C297.584 202.817 301.407 205.123 306.153 205.123H336.16C340.906 205.123 344.73 202.77 344.73 199.97C344.726 199.594 344.655 199.221 344.519 198.864H297.795C297.659 199.221 297.588 199.594 297.584 199.97Z" fill="#67676A"/>
<path d="M190.399 62.7933V128.935" stroke="#67676A" stroke-miterlimit="10" stroke-linecap="round"/>
<path d="M195.54 178.3L294 177.987" stroke="#67676A" stroke-miterlimit="10" stroke-linecap="round"/>
<path d="M328.408 42.958H450.333V125.382" stroke="#67676A" stroke-miterlimit="10" stroke-linecap="round"/>
<path d="M604.69 433.389C604.69 439.295 577.32 444.283 543.437 444.542C509.554 444.801 482.053 440.212 482 434.306C481.947 428.401 509.37 423.436 543.252 423.177C577.135 422.918 604.637 427.483 604.69 433.389Z" fill="#6B8089" fill-opacity="0.3"/>
<path d="M551.11 413.036C545.837 390.071 544.281 355.2 568.539 320.777" stroke="#67676A" stroke-miterlimit="10"/>
<path d="M565.164 325.483C565.164 325.483 588.052 271.224 639.416 259.482C639.416 259.482 631.506 302.753 565.164 325.483Z" fill="#A1DA67" stroke="#67676A" stroke-miterlimit="10"/>
<path d="M577.109 314.918C577.063 314.935 577.014 314.944 576.964 314.944C576.914 314.944 576.865 314.935 576.819 314.918C576.784 314.887 576.756 314.851 576.737 314.81C576.718 314.77 576.708 314.726 576.708 314.683C576.708 314.639 576.718 314.595 576.737 314.555C576.756 314.515 576.784 314.478 576.819 314.447C577.135 314.094 609.199 278.941 630.899 266.659C630.931 266.628 630.97 266.604 631.013 266.587C631.056 266.57 631.103 266.562 631.15 266.562C631.197 266.562 631.243 266.57 631.286 266.587C631.33 266.604 631.368 266.628 631.4 266.659C631.463 266.72 631.498 266.8 631.498 266.882C631.498 266.965 631.463 267.045 631.4 267.106C609.805 279.341 577.795 314.4 577.478 314.753C577.47 314.788 577.453 314.82 577.429 314.848C577.405 314.876 577.374 314.899 577.338 314.915C577.303 314.931 577.264 314.939 577.224 314.94C577.184 314.94 577.145 314.933 577.109 314.918Z" fill="#E6E6E6"/>
<path d="M598.309 306.565L583.754 307.459L584.466 299.553C584.478 299.468 584.526 299.39 584.598 299.333C584.671 299.277 584.765 299.246 584.861 299.247C584.91 299.25 584.957 299.262 585.001 299.281C585.044 299.3 585.083 299.327 585.115 299.36C585.147 299.393 585.171 299.431 585.186 299.472C585.201 299.513 585.207 299.557 585.204 299.6L584.545 306.659L598.256 305.835C598.303 305.832 598.351 305.838 598.395 305.852C598.44 305.866 598.481 305.888 598.516 305.916C598.55 305.945 598.578 305.98 598.597 306.019C598.616 306.057 598.625 306.099 598.625 306.141C598.655 306.187 598.671 306.24 598.669 306.293C598.668 306.346 598.649 306.398 598.616 306.442C598.583 306.486 598.537 306.521 598.482 306.543C598.428 306.565 598.368 306.572 598.309 306.565Z" fill="#E6E6E6"/>
<path d="M609.568 298.565L593.062 298.141L592.455 289.929C592.452 289.886 592.458 289.843 592.473 289.802C592.488 289.76 592.512 289.722 592.544 289.689C592.576 289.657 592.615 289.63 592.658 289.61C592.702 289.591 592.749 289.58 592.798 289.577C592.845 289.573 592.893 289.579 592.937 289.593C592.982 289.607 593.023 289.629 593.057 289.657C593.092 289.686 593.12 289.721 593.139 289.76C593.158 289.798 593.167 289.84 593.167 289.882L593.747 297.506L609.568 297.929C609.616 297.925 609.665 297.931 609.711 297.946C609.757 297.962 609.798 297.986 609.831 298.018C609.864 298.05 609.888 298.089 609.902 298.13C609.916 298.172 609.919 298.216 609.911 298.259C609.911 298.34 609.875 298.418 609.81 298.475C609.746 298.533 609.659 298.565 609.568 298.565Z" fill="#E6E6E6"/>
<path d="M618.348 290.071L602.686 288.918L604.716 278.965C604.735 278.881 604.79 278.808 604.868 278.759C604.947 278.711 605.044 278.692 605.138 278.706C605.186 278.711 605.232 278.726 605.273 278.748C605.315 278.771 605.35 278.801 605.377 278.836C605.405 278.872 605.424 278.912 605.432 278.954C605.441 278.997 605.439 279.041 605.428 279.082L603.556 288.33L618.401 289.435C618.451 289.435 618.5 289.444 618.545 289.462C618.591 289.48 618.631 289.507 618.664 289.541C618.697 289.575 618.721 289.614 618.734 289.657C618.748 289.7 618.751 289.744 618.744 289.788C618.731 289.872 618.682 289.947 618.609 290C618.535 290.052 618.442 290.077 618.348 290.071Z" fill="#E6E6E6"/>
<path d="M625.547 280.259L612.363 280.494L613.075 273.647C613.074 273.603 613.084 273.559 613.105 273.518C613.125 273.478 613.155 273.441 613.193 273.412C613.231 273.383 613.275 273.362 613.323 273.35C613.371 273.337 613.421 273.334 613.47 273.341C613.563 273.353 613.648 273.396 613.707 273.462C613.766 273.527 613.794 273.61 613.787 273.694L613.154 279.835L625.599 279.6C625.647 279.597 625.694 279.602 625.739 279.616C625.783 279.63 625.824 279.652 625.859 279.681C625.894 279.71 625.921 279.744 625.94 279.783C625.959 279.822 625.969 279.864 625.969 279.906C625.973 279.955 625.965 280.005 625.945 280.051C625.925 280.098 625.894 280.139 625.853 280.173C625.813 280.207 625.764 280.233 625.711 280.247C625.658 280.262 625.602 280.266 625.547 280.259Z" fill="#E6E6E6"/>
<path d="M629.317 272.8L621.908 272.988L622.224 269.412C622.228 269.369 622.241 269.326 622.262 269.287C622.284 269.249 622.314 269.214 622.351 269.186C622.388 269.157 622.43 269.135 622.477 269.122C622.523 269.108 622.571 269.103 622.62 269.106C622.715 269.117 622.803 269.16 622.866 269.225C622.929 269.29 622.964 269.373 622.963 269.459L622.699 272.306L629.291 272.165C629.34 272.162 629.388 272.167 629.434 272.181C629.481 272.194 629.523 272.216 629.56 272.244C629.597 272.273 629.627 272.307 629.649 272.346C629.67 272.385 629.683 272.427 629.687 272.471C629.687 272.558 629.648 272.642 629.578 272.704C629.509 272.765 629.415 272.8 629.317 272.8Z" fill="#E6E6E6"/>
<path d="M542.119 388.095C541.742 377.283 539.728 366.566 536.133 356.236" stroke="#67676A" stroke-miterlimit="10"/>
<path d="M537.715 361.694C537.715 361.694 531.308 304 484.98 280.8C485.191 280.8 480.207 324.447 537.715 361.694Z" fill="#A1DA67" stroke="#67676A" stroke-miterlimit="10"/>
<path d="M529.541 349.224C529.643 349.26 529.756 349.26 529.858 349.224C529.945 349.183 530.013 349.115 530.047 349.032C530.081 348.95 530.08 348.858 530.042 348.777C529.831 348.353 508.684 306.424 491.018 289.177C490.951 289.111 490.859 289.072 490.76 289.067C490.661 289.063 490.564 289.094 490.491 289.153C490.417 289.212 490.373 289.295 490.368 289.384C490.363 289.472 490.398 289.558 490.464 289.624C508.051 306.682 529.146 348.636 529.357 349.036C529.365 349.079 529.386 349.12 529.419 349.153C529.451 349.187 529.494 349.211 529.541 349.224Z" fill="#E6E6E6"/>
<path d="M511.163 336.047L525.191 340.33L526.799 332.4C526.811 332.357 526.812 332.312 526.804 332.268C526.795 332.224 526.777 332.182 526.75 332.145C526.723 332.107 526.687 332.075 526.646 332.051C526.605 332.026 526.558 332.009 526.509 332C526.408 331.986 526.305 332.008 526.221 332.061C526.137 332.113 526.08 332.193 526.061 332.283L524.61 339.459L511.558 335.53C511.467 335.499 511.367 335.501 511.278 335.537C511.189 335.572 511.119 335.637 511.084 335.718C511.063 335.774 511.059 335.834 511.073 335.892C511.086 335.95 511.118 336.004 511.163 336.047Z" fill="#E6E6E6"/>
<path d="M502.488 325.553L518.81 329.012L521.842 321.083C521.857 321.041 521.864 320.997 521.86 320.953C521.857 320.909 521.844 320.866 521.821 320.827C521.799 320.788 521.769 320.753 521.732 320.724C521.695 320.695 521.651 320.673 521.605 320.659C521.558 320.645 521.508 320.64 521.459 320.643C521.41 320.646 521.362 320.658 521.318 320.677C521.274 320.697 521.235 320.724 521.202 320.757C521.17 320.791 521.146 320.829 521.13 320.871L518.309 328.212L502.646 324.918C502.552 324.902 502.455 324.917 502.373 324.961C502.29 325.004 502.228 325.072 502.198 325.153C502.181 325.24 502.202 325.329 502.256 325.403C502.309 325.477 502.392 325.531 502.488 325.553Z" fill="#E6E6E6"/>
<path d="M496.371 315.177L512.191 317.718L513.141 307.459C513.144 307.416 513.138 307.372 513.123 307.331C513.107 307.29 513.083 307.252 513.051 307.219C513.02 307.186 512.981 307.159 512.937 307.14C512.894 307.121 512.846 307.109 512.798 307.106C512.749 307.103 512.701 307.108 512.654 307.122C512.608 307.136 512.565 307.157 512.529 307.186C512.492 307.214 512.462 307.249 512.44 307.288C512.418 307.326 512.406 307.369 512.402 307.412L511.532 316.824L496.634 314.471C496.538 314.461 496.44 314.482 496.358 314.529C496.277 314.576 496.216 314.647 496.186 314.73C496.154 314.812 496.155 314.901 496.189 314.982C496.223 315.064 496.287 315.133 496.371 315.177Z" fill="#E6E6E6"/>
<path d="M492.178 303.859L505.098 307.2L506.443 300.306C506.451 300.263 506.448 300.219 506.436 300.176C506.424 300.134 506.403 300.094 506.374 300.058C506.344 300.023 506.307 299.994 506.265 299.972C506.222 299.95 506.175 299.935 506.127 299.93C506.08 299.919 506.031 299.918 505.983 299.926C505.936 299.933 505.891 299.95 505.851 299.975C505.811 299.999 505.777 300.031 505.752 300.068C505.727 300.104 505.711 300.146 505.705 300.188L504.518 306.353L492.389 303.224C492.295 303.2 492.194 303.209 492.106 303.248C492.018 303.287 491.95 303.354 491.914 303.435C491.898 303.479 491.893 303.524 491.897 303.57C491.902 303.615 491.917 303.659 491.942 303.699C491.967 303.739 492.001 303.773 492.041 303.801C492.082 303.829 492.128 303.848 492.178 303.859Z" fill="#E6E6E6"/>
<path d="M490.701 295.647L497.952 297.553L498.664 293.977C498.682 293.889 498.66 293.799 498.603 293.726C498.546 293.654 498.459 293.604 498.361 293.588C498.263 293.573 498.162 293.592 498.081 293.643C497.999 293.694 497.943 293.772 497.926 293.859L497.346 296.706L490.912 295.012C490.818 294.993 490.719 295.004 490.633 295.043C490.547 295.081 490.478 295.145 490.438 295.224C490.413 295.311 490.426 295.403 490.475 295.482C490.524 295.561 490.605 295.62 490.701 295.647Z" fill="#E6E6E6"/>
<path d="M533.681 428.448C541.195 394.477 545.054 359.944 545.204 325.318" stroke="#67676A" stroke-miterlimit="10"/>
<path d="M545.837 330.989C545.837 330.989 558.388 274.118 521.657 240C521.605 240 502.804 280.494 545.837 330.989Z" fill="#A1DA67" stroke="#67676A" stroke-miterlimit="10"/>
<path d="M542.224 317.836C542.318 317.868 542.421 317.868 542.514 317.836C542.615 317.824 542.706 317.778 542.77 317.708C542.834 317.638 542.865 317.549 542.857 317.459C542.857 316.988 535.975 270.094 524.4 248.565C524.35 248.485 524.267 248.425 524.168 248.399C524.07 248.372 523.964 248.381 523.872 248.424C523.829 248.443 523.79 248.471 523.759 248.504C523.727 248.537 523.703 248.576 523.688 248.618C523.674 248.659 523.668 248.703 523.673 248.746C523.677 248.79 523.691 248.832 523.714 248.871C535.316 270.282 542.172 317.106 542.172 317.53C542.149 317.58 542.142 317.635 542.151 317.689C542.161 317.743 542.186 317.793 542.224 317.836Z" fill="#E6E6E6"/>
<path d="M528.566 300.047L540.932 307.953L545.151 300.588C545.174 300.55 545.188 300.508 545.192 300.464C545.197 300.421 545.191 300.377 545.177 300.335C545.162 300.294 545.138 300.255 545.107 300.222C545.075 300.189 545.036 300.161 544.993 300.141C544.902 300.099 544.796 300.09 544.697 300.117C544.599 300.143 544.516 300.202 544.466 300.282L540.669 306.941L529.014 299.482C528.941 299.425 528.848 299.393 528.75 299.393C528.653 299.393 528.559 299.425 528.487 299.482C528.442 299.521 528.407 299.568 528.386 299.62C528.365 299.672 528.358 299.728 528.366 299.783C528.374 299.838 528.396 299.89 528.43 299.936C528.465 299.982 528.511 300.02 528.566 300.047Z" fill="#E6E6E6"/>
<path d="M523.503 287.435L538.401 295.13L543.991 288.071C544.047 287.999 544.069 287.91 544.051 287.824C544.034 287.738 543.979 287.662 543.899 287.612C543.818 287.562 543.719 287.543 543.622 287.558C543.526 287.574 543.44 287.623 543.384 287.694L538.111 294.165L523.82 286.777C523.731 286.732 523.628 286.72 523.53 286.742C523.432 286.764 523.347 286.818 523.292 286.894C523.256 286.94 523.233 286.993 523.224 287.048C523.215 287.104 523.222 287.16 523.242 287.213C523.263 287.266 523.297 287.314 523.343 287.352C523.388 287.391 523.443 287.419 523.503 287.435Z" fill="#E6E6E6"/>
<path d="M520.945 275.6L535.527 282.259L539.851 272.424C539.886 272.342 539.883 272.252 539.843 272.173C539.804 272.094 539.731 272.032 539.64 272C539.594 271.981 539.543 271.971 539.492 271.97C539.441 271.97 539.391 271.978 539.344 271.996C539.296 272.014 539.254 272.04 539.219 272.073C539.184 272.106 539.157 272.145 539.139 272.188L535.29 281.412L521.446 275.106C521.351 275.071 521.245 275.069 521.148 275.099C521.051 275.13 520.969 275.191 520.919 275.271C520.893 275.323 520.882 275.381 520.887 275.438C520.891 275.496 520.911 275.551 520.945 275.6Z" fill="#E6E6E6"/>
<path d="M520.603 263.365L532.205 270.071L535.791 263.647C535.813 263.609 535.827 263.566 535.832 263.523C535.836 263.48 535.831 263.436 535.816 263.394C535.802 263.353 535.778 263.314 535.746 263.281C535.715 263.247 535.676 263.22 535.632 263.2C535.541 263.158 535.435 263.149 535.337 263.175C535.238 263.202 535.155 263.261 535.105 263.341L531.915 269.082L521.025 262.8C520.99 262.769 520.949 262.744 520.904 262.727C520.859 262.71 520.81 262.701 520.761 262.701C520.712 262.701 520.663 262.71 520.618 262.727C520.573 262.744 520.532 262.769 520.497 262.8C520.447 262.837 520.408 262.885 520.385 262.939C520.362 262.994 520.355 263.052 520.366 263.11C520.377 263.167 520.404 263.221 520.446 263.266C520.487 263.311 520.542 263.345 520.603 263.365Z" fill="#E6E6E6"/>
<path d="M521.868 254.918L528.328 258.706L530.253 255.365C530.291 255.283 530.292 255.192 530.258 255.109C530.224 255.027 530.157 254.958 530.069 254.918C530.026 254.897 529.978 254.885 529.93 254.881C529.881 254.877 529.832 254.882 529.785 254.895C529.739 254.908 529.695 254.929 529.658 254.957C529.621 254.986 529.59 255.02 529.568 255.059L528.038 257.718L522.29 254.329C522.202 254.285 522.098 254.273 522 254.295C521.902 254.316 521.817 254.371 521.763 254.447C521.734 254.484 521.713 254.525 521.703 254.569C521.692 254.613 521.692 254.659 521.702 254.703C521.712 254.747 521.731 254.789 521.76 254.826C521.789 254.863 521.826 254.894 521.868 254.918Z" fill="#E6E6E6"/>
<path d="M596.015 362.518H593.299H493.391H491.466V378.259H496.872L509.185 434.212H577.505L589.818 378.259H596.015V362.518Z" fill="#FFD152" stroke="#67676A" stroke-miterlimit="10"/>
<path d="M503.912 378.118H491.941" stroke="#67676A" stroke-miterlimit="10" stroke-linecap="round"/>
<path d="M592.297 378.118H518.177" stroke="#67676A" stroke-miterlimit="10" stroke-linecap="round"/>
<path d="M284 448.78C284 452.615 269.056 455.842 250.562 455.994C232.069 456.147 217.036 453.156 217 449.236C216.964 445.317 231.927 442.157 250.438 442.005C268.949 441.853 283.964 444.928 284 448.78Z" fill="#E6E6E6"/>
<path d="M272.611 401H229.055C228.472 401 228 401.422 228 401.942V447.871C228 448.391 228.472 448.812 229.055 448.812H272.611C273.194 448.812 273.666 448.391 273.666 447.871V401.942C273.666 401.422 273.194 401 272.611 401Z" fill="#FF80DD" stroke="#67676A" stroke-linecap="round" stroke-linejoin="round"/>
<path d="M240.925 406.12H233.144" stroke="#67676A" stroke-miterlimit="10" stroke-linecap="round"/>
<path d="M273.666 406.12H250.19" stroke="#67676A" stroke-miterlimit="10" stroke-linecap="round"/>
<path d="M268.721 411.916V432.85" stroke="white" stroke-miterlimit="10" stroke-linecap="round"/>
<path d="M273.666 413.784V419.669C275.477 419.747 277.184 420.444 278.434 421.615C279.684 422.785 280.381 424.341 280.381 425.958C280.381 427.575 279.684 429.13 278.434 430.301C277.184 431.472 275.477 432.169 273.666 432.247V438.132C277.185 438.022 280.519 436.698 282.965 434.438C285.411 432.178 286.778 429.159 286.778 426.017C286.778 422.875 285.411 419.856 282.965 417.596C280.519 415.336 277.185 414.011 273.666 413.902V413.784Z" fill="#FF80DD" stroke="#67676A" stroke-linecap="round" stroke-linejoin="round"/>
<path d="M283.855 422.964C283.479 421.827 282.847 420.77 281.996 419.859C281.146 418.948 280.095 418.203 278.909 417.668" stroke="white" stroke-miterlimit="10" stroke-linecap="round"/>
<path d="M276.485 413.784H273.864V419.389H276.485V413.784Z" fill="#67676A"/>
<path d="M276.485 432.115H273.864V437.72H276.485V432.115Z" fill="#67676A"/>
<path d="M565.501 136.323C568.498 136.146 571.303 134.942 573.327 132.961C575.351 130.98 576.437 128.378 576.359 125.698C576.281 123.019 575.043 120.47 572.906 118.587C570.769 116.703 567.898 115.63 564.894 115.594C563.751 115.597 562.614 115.747 561.519 116.041C560.59 112.42 558.316 109.186 555.067 106.864C551.818 104.542 547.785 103.268 543.623 103.248C539.46 103.229 535.413 104.466 532.138 106.759C528.862 109.051 526.551 112.264 525.58 115.876C524.716 115.691 523.832 115.597 522.943 115.594C519.971 115.637 517.13 116.696 515.005 118.551C512.88 120.406 511.631 122.917 511.517 125.568C511.402 128.219 512.429 130.808 514.388 132.804C516.346 134.8 519.087 136.051 522.047 136.299" fill="white"/>
<path d="M578.632 156.064H566.661" stroke="#67676A" stroke-miterlimit="10" stroke-linecap="round"/>
<path d="M626.78 156.064H592.897" stroke="#67676A" stroke-miterlimit="10" stroke-linecap="round"/>
<path d="M612.989 165.358H562.864" stroke="#67676A" stroke-miterlimit="10" stroke-linecap="round"/>
<path d="M608.401 135.405C606.964 130.109 603.581 125.394 598.792 122.013C594.002 118.632 588.083 116.779 581.976 116.749C575.869 116.719 569.927 118.514 565.096 121.849C560.266 125.183 556.825 129.864 555.323 135.146C554.079 134.883 552.805 134.749 551.526 134.746C547.17 134.858 543.024 136.441 539.926 139.176C536.829 141.911 535.01 145.594 534.84 149.48C534.669 153.366 536.158 157.164 539.006 160.108C541.854 163.051 545.848 164.919 550.181 165.335" stroke="#67676A" stroke-miterlimit="10" stroke-linecap="round"/>
<path d="M627.199 52.511C632.112 52.3924 636.771 50.5372 640.151 47.3535C643.53 44.1698 645.355 39.9184 645.222 35.5345C645.089 31.1506 643.01 26.9933 639.442 23.9773C635.874 20.9613 631.11 19.3335 626.197 19.4521C624.411 19.4638 622.635 19.7015 620.924 20.158C619.373 14.4381 615.722 9.34582 610.552 5.69266C605.382 2.0395 598.991 0.0356605 592.396 0.000471479C585.801 -0.0347175 579.383 1.90077 574.165 5.4985C568.946 9.09622 565.227 14.1491 563.6 19.8521C562.258 19.5862 560.888 19.452 559.513 19.4521C554.618 19.2805 549.847 20.8512 546.249 23.8187C542.652 26.7862 540.523 30.9074 540.331 35.2757C540.138 39.6439 541.898 43.9015 545.224 47.1117C548.549 50.3218 553.168 52.2217 558.063 52.3933" fill="white"/>
<path d="M514.53 16.8403H502.559" stroke="#67676A" stroke-miterlimit="10" stroke-linecap="round"/>
<path d="M602.914 16.8403H528.795" stroke="#67676A" stroke-miterlimit="10" stroke-linecap="round"/>
<path d="M136.682 86.7026C144.065 86.4279 151.03 83.5727 156.073 78.7537C161.116 73.9347 163.832 67.5389 163.635 60.9477C163.437 54.3566 160.342 48.0993 155.018 43.5275C149.693 38.9558 142.567 36.4366 135.179 36.5142C132.418 36.5122 129.672 36.8769 127.031 37.5965C124.678 28.9132 119.135 21.1828 111.285 15.6378C103.436 10.0927 93.7317 7.0521 83.7205 7.00066C73.7093 6.94923 63.9669 9.88991 56.0463 15.354C48.1258 20.818 42.483 28.4909 40.0176 37.1495C36.2138 36.293 32.2513 36.1559 28.3846 36.7469C24.5179 37.3379 20.8324 38.6441 17.5648 40.5814C14.2973 42.5187 11.5199 45.0444 9.41097 47.9963C7.30207 50.9481 5.90825 54.261 5.31908 57.722C4.72991 61.1831 4.95842 64.7158 5.98987 68.0934C7.02131 71.4709 8.83292 74.6187 11.3084 77.3345C13.7838 80.0503 16.8684 82.2741 20.364 83.8631C23.8596 85.4521 27.689 86.3712 31.6062 86.5614" fill="white"/>
<path d="M90.011 111.15H164.131" stroke="#67676A" stroke-miterlimit="10" stroke-linecap="round"/>
<path d="M123.05 111.15C125.993 111.028 128.874 110.349 131.501 109.157C134.128 107.966 136.44 106.29 138.286 104.24C140.131 102.19 141.466 99.8135 142.204 97.2678C142.941 94.722 143.063 92.0655 142.562 89.4745C142.061 86.8835 140.948 84.4172 139.297 82.2393C137.646 80.0615 135.495 78.2219 132.986 76.8427C130.477 75.4635 127.669 74.5762 124.746 74.2396C121.824 73.9031 118.855 74.125 116.036 74.8907C114.296 68.4766 110.2 62.7667 104.401 58.6711C98.602 54.5754 91.4335 52.3297 84.0381 52.2918C76.6427 52.2539 69.4458 54.426 63.5945 58.4619C57.7431 62.4979 53.5739 68.1654 51.7513 74.5613C50.2564 74.2473 48.7256 74.0894 47.1897 74.0907C41.7924 74.0526 36.5902 75.8901 32.6845 79.2144C28.7787 82.5387 26.4759 87.0889 26.2634 91.9016C26.051 96.7144 27.9456 101.412 31.5463 105C35.1469 108.588 40.171 110.785 45.5549 111.126" stroke="#67676A" stroke-miterlimit="10"/>
<g opacity="0.57">
<path d="M450 44H193V69H450V44Z" fill="url(#paint2_linear_277_22354)"/>
</g>
<path d="M435 121L264 121" stroke="#67676A" stroke-width="2" stroke-miterlimit="10" stroke-linecap="round"/>
<path d="M284.296 57L256.099 57" stroke="#67676A" stroke-miterlimit="10" stroke-linecap="round"/>
<path d="M335.394 57L307.197 57" stroke="#67676A" stroke-miterlimit="10" stroke-linecap="round"/>
<path d="M386.493 57L358.295 57" stroke="#67676A" stroke-miterlimit="10" stroke-linecap="round"/>
<path d="M437.591 57L409.394 57" stroke="#67676A" stroke-miterlimit="10" stroke-linecap="round"/>
<path d="M233.197 57L205 57" stroke="#67676A" stroke-miterlimit="10" stroke-linecap="round"/>
<path d="M435.965 66L205 66" stroke="#67676A" stroke-miterlimit="10" stroke-linecap="round"/>
<path d="M434.684 136.632L287 138" stroke="#67676A" stroke-miterlimit="10" stroke-linecap="round"/>
<path d="M434.684 154L316.668 152.717" stroke="#67676A" stroke-miterlimit="10" stroke-linecap="round"/>
<g opacity="0.34" clip-path="url(#clip0_277_22354)">
<path d="M138.283 427.253C185.305 427.253 223.424 418.961 223.424 408.733C223.424 398.504 185.305 390.213 138.283 390.213C91.2617 390.213 53.1431 398.504 53.1431 408.733C53.1431 418.961 91.2617 427.253 138.283 427.253Z" fill="#67676A"/>
<path d="M149.953 311.178C149.953 311.178 127.719 316.446 121.789 315.724C115.858 315.003 90.0229 315.796 90.0229 315.796L87.3818 329.746C87.3818 329.746 122.821 335.158 141.741 332.536C160.661 329.915 164.407 313.8 149.953 311.178Z" fill="#67676A"/>
<path d="M101.548 393.412C101.548 393.412 83.6842 397.549 85.8212 402.479C87.9821 407.434 93.6005 405.991 93.6005 405.991C93.6005 405.991 89.4227 412.725 103.781 410.44C118.139 408.155 121.02 400.242 118.859 396.274C116.722 392.329 107.478 391.704 101.548 393.412Z" fill="#67676A"/>
<path d="M115.954 349.397C115.954 349.397 78.3539 329.001 78.546 362.361C78.666 385.042 102.58 395.697 102.58 395.697C102.58 395.697 117.395 402.407 124.069 397.476C130.72 392.522 134.802 369.071 115.954 349.397Z" fill="#67676A"/>
<path d="M192.403 292.442C192.403 292.442 192.043 308.484 191.899 323.156C191.778 334.725 193.603 362.289 173.819 384.176C159.413 400.122 140.949 402.094 124.79 395.6C108.631 389.106 112.208 356.733 126.591 344.514C140.949 332.272 160.421 316.253 167.936 305.743C175.452 295.232 165.847 282.653 165.847 282.653L192.403 292.442Z" fill="#67676A"/>
<path d="M157.612 293.188C157.612 293.188 153.314 308.316 139.868 317.672C126.423 327.029 105.39 343.215 111.632 371.981C111.632 371.981 111.632 386.364 126.231 388.409C135.883 389.756 149.929 378.692 157.468 363.227C165.007 347.761 166.304 331.214 171.946 321.136C177.588 311.058 175.596 302.327 175.596 302.327L157.612 293.188Z" fill="#67676A"/>
<path d="M103.061 402.503C99.7471 404.211 96.2657 407.025 96.3137 410.777C96.3137 411.667 96.5778 412.605 97.2741 413.158C97.7063 413.495 98.2345 413.663 98.7627 413.76C100.804 414.168 102.965 414 104.933 413.303C103.949 413.158 103.421 414.481 103.349 415.491C103.253 416.886 103.325 418.474 104.333 419.412C105.342 420.35 106.974 420.302 108.199 419.676C109.423 419.051 110.36 417.945 111.248 416.862C110.288 419.123 112.497 421.745 114.898 421.889C117.299 422.057 119.532 420.494 121.212 418.714C123.013 416.766 124.43 414.481 125.366 411.98C131.033 396.635 110.864 398.487 103.061 402.503Z" fill="#67676A"/>
<path d="M168.128 376.431C165.367 369.191 159.437 363.323 153.098 358.945C146.159 354.135 137.659 349.758 129.616 352.283C120.156 355.265 115.258 363.611 113.169 372.847C112.088 377.658 110 400.363 110 400.363C116.098 408.564 126.975 406.015 126.975 406.015L131.297 395.023C131.297 395.023 142.485 406.376 153.17 402.768C162.414 399.641 169.905 394.254 169.713 384.561C169.665 381.698 169.089 378.981 168.128 376.431Z" fill="#67676A"/>
<path d="M48.9174 467.78C47.8369 468.646 46.1562 469.608 43.9713 470.282C41.7383 470.859 38.737 471.22 35.1115 469.512C33.887 468.911 32.7825 468.165 31.7981 467.251C30.8136 466.337 29.9253 465.231 29.325 464.004C28.7007 462.777 28.1485 461.358 27.8604 459.843C27.6203 458.352 27.4762 456.668 27.5723 454.936C27.9804 448.009 32.0622 439.976 38.4489 433.939C41.5943 430.86 45.2918 428.335 49.1575 426.17C53.0712 424.126 57.1289 422.514 61.2106 421.456C62.2191 421.144 63.2515 420.975 64.2599 420.759C65.2684 420.566 66.2528 420.302 67.2612 420.206C69.2541 419.941 71.2709 419.676 72.9036 419.604C76.3371 419.412 79.4104 419.436 82.0275 419.532C82.0275 419.532 83.084 419.508 84.9808 419.532C86.8536 419.556 89.5667 419.604 92.8321 419.821C93.6485 419.869 94.4889 419.941 95.3772 419.989C96.2416 420.061 97.154 420.133 98.1624 420.23C98.6666 420.278 99.1469 420.326 99.6751 420.374C100.155 420.422 100.66 420.47 101.164 420.542C102.148 420.663 103.181 420.783 104.237 420.903C108.223 421.408 112.593 421.985 117.203 422.587C126.158 423.741 135.714 424.799 144.406 424.92C148.752 424.992 152.834 424.823 156.459 424.415C160.085 424.006 163.206 423.332 165.655 422.563C165.943 422.466 166.256 422.37 166.616 422.274C166.952 422.178 167.264 422.033 167.624 421.889C167.984 421.769 168.344 421.625 168.753 421.48C169.113 421.312 169.473 421.144 169.857 420.951C170.673 420.638 171.322 420.157 172.138 419.749C172.474 419.508 172.81 419.243 173.17 419.027C173.363 418.907 173.531 418.786 173.675 418.642C173.843 418.498 173.987 418.378 174.155 418.233C175.403 417.103 176.46 415.804 177.372 414C177.564 413.519 177.804 413.062 178.021 412.557C178.165 412.004 178.357 411.451 178.549 410.873C178.693 410.537 178.645 410.489 178.693 410.296C178.741 410.152 178.789 409.983 178.789 409.815C178.861 409.478 178.861 409.118 178.885 408.757C178.885 407.242 178.501 405.341 177.54 403.489C177.108 402.575 176.556 401.686 175.932 400.868C175.331 400.05 174.659 399.328 173.963 398.703C173.795 398.535 173.627 398.39 173.459 398.246C173.267 398.078 173.074 397.933 172.858 397.789C172.474 397.476 172.042 397.212 171.658 396.923C170.841 396.394 170.025 395.889 169.209 395.504C167.6 394.686 166.087 394.133 164.911 393.748C163.23 393.219 161.165 392.474 159.245 391.271C157.324 390.093 155.523 388.433 154.635 386.004C153.866 383.839 153.89 380.207 154.875 376.936C155.835 373.641 157.852 370.659 160.757 369.985C162.702 369.528 164.863 369.913 166.904 370.442C170.385 371.284 174.539 372.559 179.053 374.771C181.31 375.878 183.639 377.201 185.92 378.86C188.177 380.472 190.554 382.516 192.619 384.849C196.773 389.491 200.182 395.384 201.719 402.431C202.463 405.943 202.703 409.719 202.199 413.543C202.055 414.481 201.887 415.467 201.671 416.381L200.974 418.883C200.566 420.542 199.87 422.202 199.222 423.837C196.532 430.476 191.346 436.296 185.704 440.217C179.989 444.113 173.963 446.23 168.464 447.625C162.942 448.996 157.828 449.597 153.29 449.934C148.752 450.27 144.766 450.294 141.453 450.246C131.945 450.126 122.725 449.308 113.721 448.466C109.231 448.058 104.789 447.601 100.515 447.288C99.435 447.192 98.4025 447.144 97.3461 447.071L94.2968 446.951C92.1839 446.903 90.119 446.879 88.0781 446.903C83.9964 446.975 80.0827 447.264 76.3851 447.889C75.4727 448.034 74.5123 448.202 73.744 448.418C72.9516 448.635 72.1353 448.755 71.343 449.044C69.7583 449.525 68.1976 450.126 66.685 450.799C60.6104 453.493 55.4962 457.895 52.735 462.585C51.1023 465.038 50.31 466.77 48.9174 467.78Z" fill="#67676A"/>
<path d="M48.9174 467.78C50.31 466.77 51.1265 465.038 52.6871 462.392C53.7676 460.468 55.3523 458.64 57.153 456.933C57.6333 456.524 58.0414 456.043 58.5457 455.658L60.0583 454.455C61.1388 453.734 62.1952 452.94 63.3717 452.315C64.5002 451.617 65.7247 451.064 66.9492 450.463C68.1978 449.982 69.4463 449.404 70.7429 449.044C72.0394 448.587 73.312 448.346 74.6565 447.985C76.1452 447.697 77.6578 447.456 79.1945 447.288C79.0264 447.071 78.7863 446.855 78.3781 446.638C76.7934 445.821 75.0167 445.099 73.36 444.594C72.5436 444.354 71.6793 444.089 70.8149 443.921C69.9505 443.776 69.0621 443.656 68.1498 443.584C64.5242 443.343 60.6826 443.969 57.153 445.436C59.1459 443.488 61.4029 441.78 63.8039 440.12L65.6527 438.966L66.5891 438.365L67.5495 437.835L69.5183 436.777C70.1906 436.44 70.8629 436.152 71.5592 435.815C72.3996 435.43 73.432 434.757 73.1439 434.011C72.9998 433.65 72.5676 433.434 72.1595 433.29C69.0381 432.039 65.1245 431.967 61.5469 433.145C63.1076 432.087 65.0764 431.486 66.9252 430.788C68.726 429.995 70.6708 428.888 70.8629 427.349C70.959 426.555 70.5748 425.834 70.0225 425.184C68.1257 422.899 64.7643 421.697 60.7546 421.552C54.704 423.212 48.5814 426.002 43.2511 429.922C37.9208 433.795 33.4309 438.87 30.6937 444.305C27.9326 449.741 27.0202 455.393 27.9086 459.915C28.1247 461.046 28.5088 462.128 28.917 463.09C29.3492 464.076 29.8054 464.942 30.4536 465.76C31.7262 467.371 33.2869 468.622 35.1356 469.512C38.7852 471.219 41.7625 470.859 43.9954 470.281C46.1564 469.608 47.8129 468.646 48.9174 467.78Z" fill="#67676A"/>
<path d="M168.128 376.431C165.367 369.191 159.437 363.323 153.098 358.945C145.655 353.774 131.201 346.294 124.742 356.973C122.125 361.302 121.428 366.594 121.933 371.621C122.437 376.647 124.07 381.506 125.798 386.244C129.4 396.033 141.981 406.568 153.17 402.792C162.414 399.665 169.905 394.278 169.713 384.585C169.665 381.698 169.089 378.981 168.128 376.431Z" fill="#67676A"/>
<path fill-rule="evenodd" clip-rule="evenodd" d="M161.261 200.227C161.261 200.227 161.189 141.252 144.814 138.125C125.75 134.469 116.434 212.157 116.434 212.157L161.261 200.227Z" fill="#67676A"/>
<path d="M137.563 149.79C125.582 157.896 121.524 202.897 121.524 202.897C134.154 187.72 148.776 179.567 148.776 179.567C148.776 179.567 149.52 141.661 137.563 149.79Z" fill="#67676A"/>
<path d="M199.077 182.14C199.077 182.14 217.037 194.286 224.336 214.442C224.336 214.442 226.661 204.75 228.257 193.127C230.058 180 230.93 164.411 226.473 157.535C219.83 147.301 208.142 160.79 200.988 177.348C200.308 178.923 199.668 180.527 199.077 182.14Z" fill="#67676A"/>
<path d="M146.855 249.918C146.855 249.918 150.049 252.636 153.53 256.653C157.012 260.693 161.958 262.305 165.559 264.47C169.161 266.634 174.803 271.637 168.224 279.839C162.006 287.583 149.136 296.819 133.89 291.72C114.129 285.106 116.506 269.665 116.746 261.415C116.986 253.165 123.277 253.43 127.047 253.334C130.816 253.237 136.747 249.654 140.06 248.98C143.326 248.307 146.855 249.918 146.855 249.918Z" fill="#67676A"/>
<path d="M106.686 225.986C109.951 215.043 118.307 208.693 125.366 211.82C132.425 214.947 135.522 226.347 132.257 237.291C128.992 248.234 120.636 254.584 113.577 251.457C106.518 248.331 103.421 236.93 106.686 225.986Z" fill="#67676A"/>
<path d="M109.015 230.364C111.128 223.629 116.962 219.853 122.029 221.922C127.095 223.966 129.496 231.11 127.383 237.82C125.27 244.555 119.435 248.331 114.369 246.262C109.303 244.218 106.902 237.098 109.015 230.364Z" fill="#67676A"/>
<path d="M111.512 228.512C110.888 230.484 111.584 232.553 113.073 233.154C114.537 233.755 116.242 232.649 116.866 230.677C117.491 228.704 116.794 226.636 115.306 226.035C113.817 225.433 112.112 226.54 111.512 228.512Z" fill="#67676A"/>
<path d="M156.171 233.852C159.604 222.956 169.065 216.799 177.3 220.142C185.536 223.485 189.401 235.03 185.992 245.95C182.558 256.869 173.098 263.002 164.863 259.659C156.627 256.316 152.738 244.771 156.171 233.852Z" fill="#67676A"/>
<path d="M157.924 238.878C160.037 232.144 165.871 228.368 170.937 230.436C176.004 232.481 178.405 239.624 176.292 246.334C174.179 253.069 168.344 256.845 163.278 254.801C158.212 252.708 155.811 245.589 157.924 238.878Z" fill="#67676A"/>
<path d="M162.486 236.401C161.862 238.373 162.558 240.442 164.047 241.043C165.535 241.644 167.216 240.538 167.84 238.566C168.464 236.593 167.768 234.525 166.28 233.924C164.815 233.322 163.11 234.429 162.486 236.401Z" fill="#67676A"/>
<path fill-rule="evenodd" clip-rule="evenodd" d="M125.082 255.065C125.082 255.065 125.082 255.066 125.03 255.856L125.082 255.065C125.519 255.094 125.851 255.473 125.822 255.911C125.793 256.349 125.415 256.681 124.978 256.652L124.976 256.652L124.969 256.652L124.937 256.65C124.909 256.648 124.866 256.646 124.809 256.643C124.695 256.636 124.525 256.628 124.304 256.619C123.862 256.602 123.215 256.582 122.404 256.575C120.78 256.562 118.5 256.598 115.876 256.799C110.613 257.202 104.041 258.262 98.6249 260.857C98.2295 261.047 97.7555 260.879 97.5663 260.483C97.3772 260.087 97.5444 259.612 97.9399 259.423C103.617 256.703 110.418 255.622 115.755 255.213C118.432 255.008 120.759 254.971 122.417 254.985C123.247 254.992 123.91 255.012 124.367 255.03C124.596 255.039 124.773 255.048 124.894 255.055C124.954 255.058 125 255.061 125.032 255.062L125.068 255.065L125.078 255.065L125.082 255.065ZM121.708 260.226L121.701 260.227L121.672 260.233C121.646 260.237 121.607 260.244 121.555 260.254C121.45 260.274 121.294 260.304 121.09 260.346C120.681 260.429 120.08 260.558 119.32 260.74C117.798 261.103 115.639 261.676 113.095 262.513C108.003 264.189 101.398 266.914 95.2986 271.114C94.9373 271.362 94.4431 271.271 94.1948 270.909C93.9465 270.547 94.038 270.052 94.3993 269.803C100.665 265.489 107.422 262.706 112.6 261.002C115.192 260.149 117.394 259.565 118.952 259.193C119.73 259.007 120.348 258.874 120.773 258.788C120.985 258.744 121.149 258.713 121.261 258.691C121.317 258.681 121.36 258.673 121.389 258.668L121.423 258.662L121.432 258.66L121.436 258.659C121.436 258.659 121.436 258.659 121.572 259.443L121.436 258.659C121.868 258.584 122.279 258.874 122.354 259.306C122.429 259.739 122.14 260.151 121.708 260.226ZM154.392 260.335C154.497 259.908 154.927 259.648 155.353 259.753L155.163 260.525L154.973 261.297C154.547 261.192 154.287 260.761 154.392 260.335ZM155.163 260.525C154.973 261.297 154.973 261.297 154.973 261.297L155.231 261.361C155.402 261.403 155.655 261.466 155.984 261.548C156.641 261.712 157.602 261.952 158.814 262.257C161.24 262.867 164.674 263.738 168.707 264.779C176.775 266.862 187.237 269.626 196.82 272.354C197.241 272.474 197.68 272.229 197.8 271.806C197.92 271.384 197.675 270.944 197.254 270.824C187.652 268.092 177.177 265.324 169.104 263.24C165.067 262.197 161.629 261.326 159.201 260.715C157.987 260.409 157.025 260.169 156.367 260.005C156.037 259.923 155.784 259.86 155.613 259.817L155.353 259.753C155.353 259.753 155.353 259.753 155.163 260.525ZM125.881 262.02C126.052 262.424 125.862 262.891 125.459 263.061L125.454 263.063L125.436 263.071C125.419 263.079 125.393 263.09 125.358 263.105C125.288 263.136 125.182 263.183 125.042 263.247C124.761 263.374 124.342 263.57 123.797 263.837C122.707 264.371 121.111 265.193 119.098 266.339C115.073 268.631 109.385 272.218 102.756 277.387C102.41 277.657 101.911 277.595 101.642 277.248C101.372 276.902 101.435 276.402 101.781 276.133C108.477 270.912 114.229 267.283 118.314 264.957C120.356 263.794 121.982 262.956 123.1 262.408C123.659 262.134 124.091 261.933 124.385 261.799C124.532 261.732 124.644 261.682 124.721 261.648C124.759 261.632 124.788 261.619 124.809 261.61L124.832 261.6L124.84 261.597C124.84 261.597 124.841 261.596 125.15 262.329L124.841 261.596C125.245 261.426 125.711 261.615 125.881 262.02ZM156.686 265.578C156.818 265.159 157.264 264.926 157.682 265.058L157.444 265.816C157.682 265.058 157.682 265.058 157.682 265.058L157.686 265.059L157.698 265.063L157.744 265.078C157.769 265.086 157.799 265.095 157.837 265.108C157.863 265.116 157.891 265.125 157.923 265.136C158.08 265.187 158.312 265.263 158.613 265.364C159.215 265.566 160.095 265.868 161.21 266.27C163.441 267.072 166.614 268.271 170.392 269.861C177.946 273.037 187.931 277.778 197.634 284.028C198.003 284.266 198.109 284.758 197.872 285.127C197.635 285.497 197.144 285.603 196.775 285.366C187.174 279.181 177.279 274.482 169.778 271.327C166.029 269.75 162.882 268.561 160.673 267.766C159.569 267.369 158.7 267.07 158.108 266.872C157.812 266.772 157.585 266.698 157.433 266.648C157.357 266.623 157.3 266.605 157.261 266.593L157.219 266.579L157.208 266.576L157.206 266.575C157.206 266.575 157.206 266.575 157.212 266.554L157.206 266.575C156.787 266.443 156.555 265.997 156.686 265.578ZM152.41 267.342C152.67 266.988 153.166 266.912 153.52 267.172C162.855 274.041 171.435 281.04 177.68 286.32C180.803 288.961 183.343 291.173 185.104 292.725C185.984 293.501 186.669 294.113 187.134 294.53C187.367 294.739 187.544 294.899 187.664 295.008C187.724 295.062 187.769 295.103 187.8 295.13L187.846 295.172C187.846 295.172 187.846 295.173 187.312 295.761C186.778 296.349 186.778 296.349 186.778 296.349L186.776 296.347L186.734 296.309C186.715 296.292 186.69 296.269 186.66 296.241L186.6 296.188C186.482 296.081 186.306 295.922 186.075 295.715C185.613 295.3 184.931 294.692 184.055 293.919C182.302 292.373 179.77 290.168 176.656 287.536C170.428 282.269 161.877 275.294 152.58 268.454C152.227 268.194 152.151 267.696 152.41 267.342ZM187.9 296.296C187.605 296.621 187.103 296.645 186.778 296.349L187.312 295.761L187.846 295.173C188.171 295.468 188.195 295.971 187.9 296.296Z" fill="#67676A"/>
<path d="M138.091 261.896C137.203 262.834 132.593 269.833 127.527 264.83C127.527 264.83 126.782 268.053 128.991 273.633C128.991 273.633 132.497 268.294 138.211 268.823C143.95 269.352 146.663 275.846 146.663 275.846C150.12 271.589 149.976 269.593 149.976 269.593C149.976 269.593 140.804 269.713 138.211 261.752C138.187 261.8 138.163 261.824 138.091 261.896Z" fill="#67676A"/>
<path d="M138.211 268.823C132.473 268.294 128.991 273.633 128.991 273.633C130.12 276.52 132.329 278.973 136.386 279.694C141.188 280.56 144.478 278.588 146.687 275.87C146.663 275.87 143.926 269.376 138.211 268.823Z" fill="#67676A"/>
<path fill-rule="evenodd" clip-rule="evenodd" d="M139.857 254.652C140.284 254.752 140.549 255.18 140.449 255.608L138.576 263.593C138.476 264.021 138.048 264.286 137.622 264.185C137.195 264.085 136.93 263.657 137.03 263.229L138.903 255.244C139.003 254.817 139.431 254.552 139.857 254.652Z" fill="#67676A"/>
<path d="M141.837 239.071C136.291 238.349 131.248 241.043 130.576 245.036C129.904 249.052 139.652 255.402 139.652 255.402C139.652 255.402 149.976 251.65 150.649 247.633C151.321 243.641 147.383 239.816 141.837 239.071Z" fill="#67676A"/>
<path d="M22.0259 285.996L59.8661 339.487C60.5144 340.498 61.5708 341.195 62.7473 341.411L128.968 355.626C132.521 356.276 135.739 351.489 134.034 348.29L102.46 288.473C101.764 287.15 100.443 286.285 98.9788 286.164L26.5399 280.608C22.9383 280.32 20.0811 282.965 22.0259 285.996Z" fill="#67676A"/>
<path d="M22.9863 289.099L55.7843 342.518C56.4326 343.528 57.489 344.226 58.6655 344.442L126.398 356.636C129.952 357.286 132.689 353.534 131.008 350.335L99.4109 290.518C98.7147 289.195 97.3941 288.329 95.9295 288.209L25.3393 282.484C21.7618 282.196 21.0174 286.068 22.9863 289.099Z" fill="#67676A"/>
<path d="M191.778 320.51C191.778 320.51 188.273 310.649 171.225 316.109C158.02 320.342 144.406 324.287 144.406 324.287L119.867 323.349L117.442 333.21C117.442 333.21 147.623 344.947 165.895 345.043C184.167 345.116 193.099 336.072 191.778 320.51Z" fill="#67676A"/>
<path d="M131.08 325.08C133.481 327.245 134.154 333.811 131.657 336.024C130.624 336.938 129.28 337.419 127.959 337.804C122.821 339.271 117.322 339.439 112.088 338.285C109.975 337.828 103.132 335.615 104.261 332.344C104.669 331.189 105.918 330.468 107.142 330.42C106.326 329.843 105.389 329.482 104.573 328.929C103.757 328.375 102.988 327.582 102.868 326.596C102.652 324.84 104.429 323.565 106.038 322.819C105.197 321.016 105.87 318.634 107.55 317.552C108.487 316.951 109.639 316.734 110.768 316.662C118.403 316.085 125.606 320.15 131.08 325.08Z" fill="#67676A"/>
<path fill-rule="evenodd" clip-rule="evenodd" d="M195.855 176.087C194.42 175.774 193.055 175.506 191.778 175.261C177.757 172.567 135.522 171.798 109.111 215.909C93.6726 241.741 98.5947 297.589 143.398 306.151C198.862 316.758 253.389 289.94 249.835 250.519C248.137 231.659 243.912 217.668 238.345 207.228C240.515 182.411 240.655 151.946 229.523 144.763C216.77 136.553 202.549 161.928 195.855 176.087ZM195.855 176.087C193.411 181.256 191.971 184.93 191.971 184.93L233.94 241.332C233.94 241.332 236.716 225.874 238.345 207.228C235.316 201.547 231.89 196.917 228.257 193.127C226.661 204.75 224.336 214.442 224.336 214.442C217.037 194.286 199.077 182.14 199.077 182.14C199.668 180.527 200.308 178.923 200.988 177.348C199.203 176.853 197.484 176.442 195.855 176.087Z" fill="#67676A"/>
<path d="M191.971 184.93L233.94 241.332C233.94 241.332 236.716 225.874 238.345 207.228C235.316 201.547 231.89 196.917 228.257 193.127C226.661 204.75 224.336 214.442 224.336 214.442C217.037 194.286 199.077 182.14 199.077 182.14C199.668 180.527 200.308 178.923 200.988 177.348C199.203 176.853 197.484 176.442 195.855 176.087C193.411 181.256 191.971 184.93 191.971 184.93Z" fill="#67676A"/>
</g>
<path d="M136.09 420.592C183.193 420.592 221.378 412.319 221.378 402.114C221.378 391.909 183.193 383.636 136.09 383.636C88.9866 383.636 50.8019 391.909 50.8019 402.114C50.8019 412.319 88.9866 420.592 136.09 420.592Z" fill="#D3D9DC"/>
<path d="M147.779 304.783C147.779 304.783 125.507 310.038 119.566 309.318C113.625 308.598 87.7457 309.39 87.7457 309.39L85.1 323.308C85.1 323.308 120.601 328.707 139.553 326.092C158.506 323.476 162.258 307.398 147.779 304.783Z" fill="#DB9A46"/>
<path d="M99.2905 386.828C99.2905 386.828 81.396 390.955 83.5366 395.875C85.7012 400.818 91.3294 399.378 91.3294 399.378C91.3294 399.378 87.1443 406.097 101.527 403.818C115.91 401.538 118.797 393.643 116.632 389.684C114.491 385.748 105.231 385.124 99.2905 386.828Z" fill="#EDDD85"/>
<path d="M113.722 342.914C113.722 342.914 76.0564 322.564 76.2488 355.848C76.369 378.477 100.325 389.108 100.325 389.108C100.325 389.108 115.165 395.803 121.851 390.883C128.514 385.94 132.602 362.543 113.722 342.914Z" fill="#DB9A46"/>
<path d="M190.303 286.089C190.303 286.089 189.942 302.095 189.798 316.733C189.678 328.275 191.505 355.776 171.687 377.613C157.256 393.523 138.76 395.491 122.573 389.012C106.386 382.532 109.97 350.233 124.377 338.042C138.76 325.828 158.266 309.846 165.794 299.359C173.322 288.873 163.702 276.322 163.702 276.322L190.303 286.089Z" fill="#DB9A46"/>
<path d="M155.452 286.833C155.452 286.833 151.146 301.927 137.677 311.262C124.208 320.596 103.139 336.746 109.392 365.447C109.392 365.447 109.392 379.797 124.016 381.837C133.685 383.18 147.755 372.142 155.307 356.712C162.86 341.282 164.159 324.772 169.811 314.717C175.463 304.663 173.467 295.952 173.467 295.952L155.452 286.833Z" fill="#F4F3B6"/>
<path d="M100.806 395.899C97.4867 397.603 93.9991 400.41 94.0472 404.154C94.0472 405.042 94.3118 405.977 95.0093 406.529C95.4423 406.865 95.9714 407.033 96.5005 407.129C98.5449 407.537 100.71 407.369 102.682 406.673C101.696 406.529 101.167 407.849 101.094 408.857C100.998 410.249 101.07 411.833 102.081 412.769C103.091 413.704 104.726 413.656 105.953 413.033C107.18 412.409 108.118 411.305 109.008 410.225C108.045 412.481 110.258 415.096 112.663 415.24C115.069 415.408 117.305 413.848 118.989 412.073C120.793 410.129 122.212 407.849 123.15 405.354C128.826 390.044 108.623 391.891 100.806 395.899Z" fill="#F4F3B6"/>
<path d="M165.986 369.886C163.22 362.663 157.28 356.808 150.93 352.44C143.979 347.641 135.465 343.274 127.407 345.793C117.931 348.769 113.024 357.096 110.932 366.311C109.849 371.11 107.757 393.763 107.757 393.763C113.866 401.946 124.762 399.402 124.762 399.402L129.091 388.436C129.091 388.436 140.299 399.762 151.002 396.163C160.262 393.043 167.766 387.668 167.574 377.997C167.526 375.141 166.948 372.43 165.986 369.886Z" fill="#EAC652"/>
<path d="M46.5689 461.026C45.4865 461.89 43.8029 462.85 41.6142 463.522C39.3774 464.098 36.3709 464.458 32.739 462.754C31.5124 462.154 30.406 461.41 29.4199 460.498C28.4337 459.587 27.5438 458.483 26.9425 457.259C26.3172 456.035 25.764 454.619 25.4754 453.107C25.2349 451.62 25.0905 449.94 25.1868 448.212C25.5956 441.301 29.6844 433.286 36.0822 427.263C39.233 424.191 42.937 421.671 46.8094 419.512C50.7298 417.472 54.7946 415.864 58.8834 414.808C59.8936 414.496 60.9278 414.328 61.938 414.112C62.9482 413.92 63.9343 413.656 64.9445 413.561C66.9408 413.297 68.9612 413.033 70.5967 412.961C74.0361 412.769 77.1147 412.793 79.7364 412.889C79.7364 412.889 80.7947 412.865 82.6948 412.889C84.5708 412.913 87.2887 412.961 90.5598 413.177C91.3775 413.225 92.2193 413.297 93.1092 413.345C93.9751 413.417 94.8891 413.489 95.8993 413.584C96.4044 413.632 96.8854 413.681 97.4145 413.729C97.8956 413.776 98.4007 413.824 98.9058 413.896C99.8919 414.016 100.926 414.136 101.984 414.256C105.977 414.76 110.354 415.336 114.972 415.936C123.944 417.088 133.516 418.144 142.223 418.264C146.577 418.336 150.665 418.168 154.297 417.76C157.929 417.352 161.056 416.68 163.509 415.912C163.798 415.816 164.11 415.72 164.471 415.624C164.808 415.528 165.121 415.384 165.481 415.24C165.842 415.12 166.203 414.976 166.612 414.832C166.973 414.664 167.333 414.496 167.718 414.304C168.536 413.992 169.185 413.513 170.003 413.105C170.34 412.865 170.677 412.601 171.037 412.385C171.23 412.265 171.398 412.145 171.542 412.001C171.711 411.857 171.855 411.737 172.023 411.593C173.274 410.465 174.332 409.169 175.246 407.369C175.439 406.889 175.679 406.433 175.896 405.93C176.04 405.378 176.233 404.826 176.425 404.25C176.569 403.914 176.521 403.866 176.569 403.674C176.617 403.53 176.665 403.362 176.665 403.194C176.738 402.858 176.738 402.498 176.762 402.138C176.762 400.626 176.377 398.73 175.415 396.883C174.982 395.971 174.429 395.083 173.803 394.267C173.202 393.451 172.529 392.731 171.831 392.107C171.663 391.939 171.494 391.795 171.326 391.651C171.134 391.483 170.941 391.339 170.725 391.195C170.34 390.883 169.907 390.619 169.522 390.332C168.704 389.804 167.887 389.3 167.069 388.916C165.457 388.1 163.942 387.548 162.763 387.164C161.08 386.636 159.011 385.892 157.087 384.692C155.163 383.516 153.359 381.861 152.469 379.437C151.7 377.277 151.724 373.654 152.71 370.39C153.672 367.102 155.692 364.127 158.603 363.455C160.551 362.999 162.715 363.383 164.76 363.911C168.247 364.751 172.408 366.023 176.93 368.23C179.191 369.334 181.524 370.654 183.809 372.31C186.07 373.918 188.451 375.957 190.519 378.285C194.68 382.916 198.096 388.796 199.635 395.827C200.381 399.33 200.621 403.098 200.116 406.913C199.972 407.849 199.803 408.833 199.587 409.745L198.889 412.241C198.481 413.896 197.783 415.552 197.134 417.184C194.44 423.807 189.245 429.614 183.592 433.526C177.868 437.413 171.831 439.525 166.323 440.917C160.791 442.285 155.668 442.885 151.122 443.221C146.577 443.557 142.584 443.581 139.265 443.533C129.74 443.413 120.504 442.597 111.485 441.757C106.987 441.349 102.538 440.893 98.2564 440.581C97.174 440.485 96.1398 440.437 95.0815 440.365L92.0269 440.245C89.9103 440.197 87.8419 440.173 85.7975 440.197C81.7087 440.269 77.7882 440.557 74.0842 441.181C73.1702 441.325 72.2082 441.493 71.4385 441.709C70.6448 441.925 69.827 442.045 69.0333 442.333C67.4459 442.813 65.8825 443.413 64.3673 444.085C58.2821 446.772 53.1591 451.164 50.3931 455.843C48.7576 458.291 47.9639 460.019 46.5689 461.026Z" fill="#DB9A46"/>
<path d="M46.569 461.026C47.964 460.018 48.7818 458.291 50.3451 455.651C51.4275 453.731 53.0149 451.908 54.8188 450.204C55.2998 449.796 55.7087 449.316 56.2138 448.932L57.7291 447.732C58.8114 447.012 59.8697 446.22 61.0482 445.596C62.1787 444.9 63.4053 444.349 64.632 443.749C65.8827 443.269 67.1334 442.693 68.4322 442.333C69.731 441.877 71.0057 441.637 72.3526 441.277C73.8438 440.989 75.3591 440.749 76.8984 440.581C76.7301 440.365 76.4895 440.149 76.0807 439.933C74.4932 439.117 72.7134 438.397 71.0538 437.893C70.2361 437.653 69.3702 437.389 68.5043 437.221C67.6384 437.077 66.7485 436.957 65.8346 436.885C62.2027 436.646 58.3544 437.269 54.8188 438.733C56.8151 436.789 59.076 435.086 61.4812 433.43L63.3332 432.278L64.2712 431.678L65.2333 431.15L67.2055 430.094C67.879 429.758 68.5524 429.47 69.2499 429.134C70.0917 428.751 71.126 428.079 70.8373 427.335C70.693 426.975 70.2601 426.759 69.8512 426.615C66.7245 425.367 62.804 425.295 59.2203 426.471C60.7837 425.415 62.7559 424.815 64.6079 424.119C66.4118 423.327 68.36 422.223 68.5524 420.688C68.6486 419.896 68.2638 419.176 67.7106 418.528C65.8105 416.248 62.4432 415.048 58.4266 414.904C52.3655 416.56 46.2323 419.344 40.8928 423.255C35.5533 427.119 31.0556 432.182 28.3136 437.605C25.5477 443.029 24.6337 448.668 25.5236 453.179C25.7401 454.307 26.1249 455.387 26.5338 456.347C26.9667 457.331 27.4237 458.195 28.0731 459.011C29.3479 460.618 30.9112 461.866 32.7632 462.754C36.4191 464.458 39.4016 464.098 41.6384 463.522C43.803 462.85 45.4626 461.89 46.569 461.026Z" fill="#F4F3B6"/>
<path d="M165.986 369.886C163.22 362.663 157.28 356.808 150.93 352.44C143.474 347.281 128.995 339.818 122.525 350.473C119.903 354.792 119.206 360.071 119.711 365.087C120.216 370.102 121.851 374.949 123.583 379.677C127.191 389.444 139.794 399.954 151.002 396.187C160.262 393.067 167.766 387.692 167.574 378.021C167.526 375.141 166.948 372.43 165.986 369.886Z" fill="#EAC652"/>
<path fill-rule="evenodd" clip-rule="evenodd" d="M159.107 194.085C159.107 194.085 159.035 135.244 142.632 132.125C123.535 128.477 114.203 205.987 114.203 205.987L159.107 194.085Z" fill="#EAC652"/>
<path d="M135.368 143.763C123.366 151.85 119.302 196.748 119.302 196.748C131.953 181.606 146.6 173.472 146.6 173.472C146.6 173.472 147.346 135.652 135.368 143.763Z" fill="#5D3317"/>
<path fill-rule="evenodd" clip-rule="evenodd" d="M106.867 209.731C91.4016 235.503 96.3322 291.224 141.213 299.767C196.773 310.35 251.395 283.593 247.835 244.262C242.087 180.671 207.428 172.56 189.678 169.176C175.631 166.488 133.324 165.72 106.867 209.731Z" fill="#EAC652"/>
<path fill-rule="evenodd" clip-rule="evenodd" d="M231.913 235.096C231.913 235.096 247.017 151.298 227.487 138.748C210.049 127.565 189.87 178.823 189.87 178.823L231.913 235.096Z" fill="#EAC652"/>
<path d="M196.989 176.039C196.989 176.039 214.98 188.158 222.292 208.267C222.292 208.267 232.85 164.425 224.432 151.49C217.145 140.308 203.796 157.514 196.989 176.039Z" fill="#5D3317"/>
<path d="M144.676 243.662C144.676 243.662 147.875 246.374 151.363 250.381C154.85 254.413 159.805 256.021 163.413 258.18C167.021 260.34 172.673 265.332 166.083 273.515C159.853 281.242 146.961 290.456 131.688 285.369C111.894 278.77 114.275 263.364 114.515 255.133C114.756 246.902 121.057 247.166 124.834 247.07C128.61 246.974 134.551 243.398 137.87 242.726C141.141 242.055 144.676 243.662 144.676 243.662Z" fill="#F4F3B6"/>
<path d="M104.438 219.785C107.709 208.867 116.079 202.532 123.15 205.651C130.221 208.771 133.324 220.145 130.053 231.064C126.782 241.983 118.412 248.318 111.34 245.198C104.269 242.079 101.167 230.704 104.438 219.785Z" fill="white"/>
<path d="M106.771 224.153C108.887 217.434 114.732 213.666 119.807 215.73C124.882 217.77 127.287 224.897 125.17 231.592C123.054 238.311 117.209 242.078 112.134 240.015C107.059 237.975 104.654 230.872 106.771 224.153Z" fill="#0B1411"/>
<path d="M109.272 222.305C108.647 224.273 109.344 226.337 110.835 226.936C112.303 227.536 114.01 226.433 114.636 224.465C115.261 222.497 114.563 220.433 113.072 219.833C111.581 219.233 109.873 220.337 109.272 222.305Z" fill="white"/>
<path d="M154.008 227.632C157.448 216.762 166.924 210.619 175.174 213.954C183.424 217.29 187.296 228.808 183.881 239.703C180.441 250.597 170.965 256.717 162.715 253.381C154.465 250.046 150.569 238.527 154.008 227.632Z" fill="white"/>
<path d="M155.764 232.648C157.881 225.929 163.725 222.161 168.8 224.225C173.875 226.265 176.28 233.392 174.164 240.087C172.047 246.806 166.203 250.573 161.128 248.534C156.053 246.446 153.647 239.343 155.764 232.648Z" fill="#0B1411"/>
<path d="M160.334 230.176C159.709 232.144 160.406 234.208 161.897 234.808C163.389 235.407 165.072 234.304 165.698 232.336C166.323 230.368 165.626 228.304 164.134 227.704C162.667 227.105 160.959 228.208 160.334 230.176Z" fill="white"/>
<path fill-rule="evenodd" clip-rule="evenodd" d="M122.865 248.798C122.865 248.798 122.865 248.798 122.813 249.587L122.865 248.798C123.304 248.827 123.635 249.205 123.606 249.642C123.578 250.079 123.199 250.41 122.761 250.381C122.761 250.381 122.761 250.381 122.761 250.381L122.759 250.381L122.752 250.381L122.72 250.379C122.692 250.377 122.649 250.374 122.592 250.371C122.478 250.365 122.307 250.357 122.086 250.348C121.643 250.331 120.995 250.311 120.182 250.304C118.556 250.291 116.272 250.327 113.644 250.528C108.371 250.93 101.788 251.987 96.3624 254.577C95.9663 254.766 95.4915 254.599 95.302 254.203C95.1125 253.808 95.28 253.334 95.6762 253.145C101.363 250.431 108.176 249.353 113.523 248.946C116.204 248.741 118.535 248.704 120.196 248.718C121.027 248.725 121.691 248.745 122.149 248.763C122.378 248.772 122.556 248.781 122.677 248.787C122.737 248.79 122.784 248.793 122.815 248.795L122.852 248.797L122.861 248.798L122.865 248.798ZM119.486 253.947C119.486 253.947 119.486 253.947 119.486 253.947L119.478 253.948L119.45 253.953C119.424 253.958 119.384 253.965 119.332 253.975C119.228 253.994 119.071 254.025 118.866 254.066C118.457 254.15 117.855 254.278 117.093 254.459C115.569 254.822 113.406 255.394 110.858 256.229C105.757 257.9 99.1405 260.619 93.0303 264.809C92.6684 265.058 92.1734 264.966 91.9246 264.605C91.6759 264.244 91.7676 263.75 92.1295 263.502C98.4059 259.197 105.174 256.421 110.362 254.721C112.958 253.87 115.164 253.287 116.724 252.916C117.504 252.731 118.123 252.598 118.549 252.512C118.761 252.468 118.926 252.437 119.038 252.416C119.094 252.405 119.137 252.397 119.166 252.392L119.2 252.386L119.209 252.384L119.213 252.384C119.213 252.384 119.213 252.384 119.35 253.165L119.213 252.384C119.646 252.308 120.058 252.598 120.133 253.029C120.208 253.461 119.918 253.872 119.486 253.947ZM152.226 254.055C152.331 253.63 152.762 253.37 153.189 253.475L152.998 254.245L152.808 255.015C152.381 254.91 152.121 254.48 152.226 254.055ZM152.998 254.245C152.808 255.015 152.808 255.015 152.808 255.015L153.067 255.079C153.238 255.121 153.491 255.184 153.82 255.266C154.479 255.429 155.441 255.669 156.656 255.973C159.086 256.582 162.526 257.451 166.566 258.49C174.648 260.568 185.128 263.326 194.727 266.047C195.15 266.166 195.59 265.922 195.71 265.5C195.83 265.079 195.584 264.64 195.162 264.52C185.544 261.794 175.05 259.033 166.963 256.953C162.919 255.913 159.476 255.044 157.044 254.434C155.827 254.13 154.864 253.89 154.204 253.726C153.874 253.644 153.621 253.581 153.449 253.539L153.189 253.475C153.189 253.475 153.189 253.475 152.998 254.245ZM123.666 255.736C123.837 256.14 123.647 256.605 123.243 256.776C123.243 256.776 123.243 256.776 123.243 256.776L123.238 256.778L123.22 256.785C123.203 256.793 123.177 256.804 123.142 256.819C123.071 256.85 122.965 256.897 122.825 256.96C122.544 257.088 122.125 257.283 121.578 257.549C120.486 258.082 118.887 258.903 116.871 260.046C112.839 262.333 107.142 265.911 100.5 271.069C100.154 271.338 99.6542 271.276 99.3844 270.93C99.1147 270.584 99.177 270.086 99.5235 269.817C106.231 264.608 111.994 260.987 116.085 258.667C118.131 257.506 119.76 256.671 120.88 256.124C121.44 255.851 121.872 255.649 122.167 255.516C122.314 255.449 122.427 255.399 122.504 255.366C122.542 255.349 122.571 255.336 122.591 255.328L122.615 255.318L122.621 255.315L122.623 255.314L122.624 255.314C122.624 255.314 122.624 255.314 122.933 256.045L122.624 255.314C123.029 255.143 123.495 255.333 123.666 255.736ZM154.525 259.286C154.656 258.868 155.103 258.636 155.522 258.768L155.283 259.524C155.522 258.768 155.522 258.768 155.522 258.768L155.526 258.769L155.538 258.773L155.584 258.787C155.609 258.795 155.64 258.805 155.677 258.817C155.703 258.825 155.732 258.835 155.763 258.845C155.921 258.896 156.153 258.972 156.454 259.073C157.057 259.274 157.939 259.576 159.056 259.976C161.29 260.777 164.469 261.974 168.254 263.559C175.821 266.729 185.823 271.459 195.543 277.695C195.912 277.932 196.019 278.422 195.782 278.791C195.544 279.159 195.052 279.266 194.683 279.029C185.065 272.859 175.153 268.17 167.639 265.022C163.883 263.449 160.73 262.262 158.518 261.47C157.412 261.073 156.542 260.775 155.949 260.577C155.652 260.478 155.425 260.403 155.272 260.354C155.196 260.329 155.139 260.311 155.1 260.299L155.058 260.285L155.047 260.282L155.045 260.281C155.045 260.281 155.045 260.281 155.051 260.26L155.045 260.281C154.626 260.15 154.393 259.704 154.525 259.286ZM150.241 261.046C150.501 260.693 150.998 260.617 151.352 260.877C160.703 267.73 169.299 274.713 175.555 279.981C178.683 282.616 181.228 284.823 182.991 286.372C183.872 287.146 184.559 287.756 185.025 288.172C185.258 288.381 185.436 288.541 185.556 288.649C185.616 288.703 185.661 288.744 185.692 288.771L185.738 288.813L185.738 288.813C185.739 288.813 185.739 288.814 185.204 289.4C184.669 289.987 184.669 289.987 184.669 289.987L184.668 289.987L184.666 289.985L184.624 289.947C184.605 289.93 184.58 289.908 184.55 289.88L184.49 289.826C184.372 289.72 184.195 289.561 183.964 289.354C183.501 288.94 182.818 288.334 181.94 287.562C180.184 286.02 177.648 283.82 174.529 281.194C168.29 275.94 159.724 268.981 150.411 262.155C150.057 261.896 149.981 261.4 150.241 261.046ZM185.792 289.934C185.496 290.258 184.993 290.282 184.669 289.987L185.204 289.4L185.739 288.814C186.063 289.108 186.087 289.61 185.792 289.934Z" fill="#0B1411"/>
<path d="M135.897 255.613C135.007 256.549 130.389 263.532 125.314 258.54C125.314 258.54 124.569 261.756 126.781 267.323C126.781 267.323 130.293 261.996 136.017 262.524C141.766 263.052 144.484 269.531 144.484 269.531C147.947 265.284 147.803 263.292 147.803 263.292C147.803 263.292 138.615 263.412 136.017 255.469C135.993 255.517 135.969 255.541 135.897 255.613Z" fill="#0A1311"/>
<path d="M136.017 262.524C130.269 261.996 126.781 267.323 126.781 267.323C127.912 270.203 130.125 272.651 134.189 273.371C139 274.234 142.295 272.267 144.508 269.555C144.484 269.555 141.742 263.076 136.017 262.524Z" fill="#CB542F"/>
<path fill-rule="evenodd" clip-rule="evenodd" d="M137.666 248.385C138.094 248.486 138.359 248.913 138.259 249.339L136.382 257.306C136.282 257.733 135.854 257.997 135.427 257.897C134.999 257.797 134.734 257.37 134.834 256.943L136.71 248.976C136.811 248.55 137.239 248.285 137.666 248.385Z" fill="#0B1411"/>
<path d="M139.649 232.84C134.093 232.12 129.042 234.807 128.369 238.791C127.696 242.798 137.461 249.134 137.461 249.134C137.461 249.134 147.803 245.39 148.476 241.383C149.15 237.399 145.205 233.584 139.649 232.84Z" fill="#CB542F"/>
<path d="M19.6308 279.658L57.5365 333.027C58.1859 334.035 59.2442 334.731 60.4228 334.947L126.758 349.129C130.318 349.777 133.54 345.001 131.833 341.81L100.205 282.129C99.5071 280.81 98.1842 279.946 96.717 279.826L24.1525 274.282C20.5448 273.994 17.6826 276.634 19.6308 279.658Z" fill="#B1B1EB"/>
<path d="M20.5929 282.753L53.4477 336.05C54.0971 337.058 55.1554 337.754 56.334 337.97L124.184 350.137C127.744 350.785 130.486 347.041 128.802 343.849L97.15 284.169C96.4525 282.849 95.1296 281.985 93.6625 281.865L22.9499 276.154C19.3662 275.866 18.6206 279.73 20.5929 282.753Z" fill="#9B9BE5"/>
<path d="M189.677 314.093C189.677 314.093 186.166 304.255 169.089 309.702C155.86 313.925 142.223 317.861 142.223 317.861L117.642 316.925L115.213 326.764C115.213 326.764 145.446 338.474 163.749 338.57C182.053 338.642 191 329.619 189.677 314.093Z" fill="#EAC652"/>
<path d="M128.874 318.653C131.279 320.812 131.953 327.364 129.451 329.571C128.417 330.483 127.07 330.963 125.747 331.347C120.6 332.811 115.092 332.979 109.849 331.827C107.733 331.371 100.878 329.163 102.008 325.9C102.417 324.748 103.668 324.028 104.894 323.98C104.077 323.404 103.139 323.044 102.321 322.492C101.503 321.94 100.733 321.148 100.613 320.165C100.397 318.413 102.177 317.141 103.788 316.397C102.946 314.597 103.62 312.222 105.303 311.142C106.241 310.542 107.396 310.326 108.526 310.254C116.175 309.678 123.39 313.733 128.874 318.653Z" fill="#F4F3B6"/>
<defs>
<linearGradient id="paint0_linear_277_22354" x1="406.378" y1="52.2521" x2="413.391" y2="52.2521" gradientUnits="userSpaceOnUse">
<stop offset="0.24" stop-color="#8CCFAE"/>
<stop offset="0.73" stop-color="#8CCFAE"/>
</linearGradient>
<linearGradient id="paint1_linear_277_22354" x1="430.056" y1="52.2521" x2="437.07" y2="52.2521" gradientUnits="userSpaceOnUse">
<stop offset="0.24" stop-color="#9AD162"/>
<stop offset="0.73" stop-color="#9AD162"/>
</linearGradient>
<linearGradient id="paint2_linear_277_22354" x1="193" y1="56.4824" x2="450" y2="56.4824" gradientUnits="userSpaceOnUse">
<stop stop-color="#CEE8FB"/>
<stop offset="0.24" stop-color="#C1E4F9"/>
<stop offset="0.57" stop-color="#A7DCF5"/>
<stop offset="0.87" stop-color="#A7DCF5"/>
<stop offset="0.99" stop-color="#8CD4F5"/>
</linearGradient>
<clipPath id="clip0_277_22354">
<rect width="104" height="166" fill="white" transform="translate(146 220)"/>
</clipPath>
</defs>
</svg>
